<?xml version="1.0" encoding="utf-8"?>
<!-- Generator: Adobe Illustrator 27.0.1, SVG Export Plug-In . SVG Version: 6.00 Build 0)  -->
<svg version="1.1" id="Layer_1" xmlns="http://www.w3.org/2000/svg" xmlns:xlink="http://www.w3.org/1999/xlink" x="0px" y="0px"
	 viewBox="0 0 283.5 141.7" style="enable-background:new 0 0 283.5 141.7;" xml:space="preserve">
<style type="text/css">
	.st0{fill:url(#SVGID_1_);}
	.st1{fill:url(#SVGID_00000127723415010885237200000011026286830689049532_);}
	.st2{fill:url(#SVGID_00000173128328586494950980000006449459605053702846_);}
	.st3{fill:url(#SVGID_00000170279035913150054140000000312861887271257728_);}
	.st4{fill:url(#SVGID_00000000201282679503359250000016341617050021285792_);}
	.st5{fill:url(#SVGID_00000150078501033024268060000005491153912542333069_);}
	.st6{fill:url(#SVGID_00000098191523707169289130000012011382956741203625_);}
	.st7{fill:url(#SVGID_00000161590667194725182240000007350287972282421127_);}
	.st8{fill:url(#SVGID_00000152242906394300325430000016711265310420483748_);}
	.st9{fill:url(#SVGID_00000039823662562239689510000006616258896602323128_);}
</style>
<g>
	<linearGradient id="SVGID_1_" gradientUnits="userSpaceOnUse" x1="29.4405" y1="55.6095" x2="61.0405" y2="87.2095">
		<stop  offset="2.725212e-04" style="stop-color:#4CC1C4"/>
		<stop  offset="0.5578" style="stop-color:#2975BA"/>
		<stop  offset="0.9997" style="stop-color:#3A58A6"/>
	</linearGradient>
	<path class="st0" d="M56.4,84.7v7.1c-2.6,1.1-5.7,1.6-8.8,1.6c-6.4,0-10.7-4.4-10.7-10.9V65.2h-5.7v-7.4h5.7v-9.7h8.8v9.7h10.2v7.4
		H45.7v15.4c0,3.1,1.9,5.2,4.8,5.2C52.4,85.8,54.4,85.5,56.4,84.7z"/>
	
		<linearGradient id="SVGID_00000070117623507604577010000016138279939932348551_" gradientUnits="userSpaceOnUse" x1="63.9376" y1="62.4124" x2="94.0876" y2="92.5624">
		<stop  offset="2.725212e-04" style="stop-color:#3F9AD4"/>
		<stop  offset="0.4527" style="stop-color:#486CB3"/>
		<stop  offset="1" style="stop-color:#5459A6"/>
	</linearGradient>
	<path style="fill:url(#SVGID_00000070117623507604577010000016138279939932348551_);" d="M93.4,71.4v21.8h-8.5l-0.2-4.9
		c-2.3,3.1-6.3,5.1-10.6,5.1c-7.2,0-12.1-4.3-12.1-10.7c0-6.7,5.9-11,14.8-11c2.4,0,5,0.3,7.7,0.8v-0.6c0-4.6-3.1-7.4-8.4-7.4
		c-3.3,0-5.9,1-8.1,2.8L64.3,62c3.7-3,8.1-4.5,14.2-4.5C87.4,57.5,93.4,62.8,93.4,71.4z M84.6,78.3c-2.3-0.4-4.6-0.7-6.6-0.7
		c-4.1,0-6.8,1.9-6.8,4.9c0,2.8,1.9,4.7,5.4,4.7C80.8,87.2,84.6,84,84.6,78.3z"/>
	<g>
		
			<linearGradient id="SVGID_00000134235208113259960660000017861186000034220934_" gradientUnits="userSpaceOnUse" x1="148.375" y1="64.675" x2="170.325" y2="86.625">
			<stop  offset="2.725212e-04" style="stop-color:#9BCDEE"/>
			<stop  offset="0.5578" style="stop-color:#9E92C6"/>
			<stop  offset="1" style="stop-color:#7F5FA7"/>
		</linearGradient>
		
			<rect x="155" y="58.1" style="fill:url(#SVGID_00000134235208113259960660000017861186000034220934_);" width="8.8" height="35.1"/>
	</g>
	
		<linearGradient id="SVGID_00000009567125644581633320000001015377483285114043_" gradientUnits="userSpaceOnUse" x1="174.6842" y1="62.4481" x2="201.1431" y2="88.9069">
		<stop  offset="2.725262e-04" style="stop-color:#D0C7E2"/>
		<stop  offset="0.5578" style="stop-color:#B492C3"/>
		<stop  offset="0.9997" style="stop-color:#975DA5"/>
	</linearGradient>
	<path style="fill:url(#SVGID_00000009567125644581633320000001015377483285114043_);" d="M169.4,75.5c0-10.7,7.5-17.9,18.7-17.9
		c4.6,0,8.7,1.5,11.9,4l-5,5.9c-1.8-1.5-3.9-2.4-6.8-2.4c-5.8,0-9.7,4.2-9.7,10.5s3.9,10.5,9.8,10.5c3.2,0,5.9-1,7.9-3.1l5,5.8
		c-3.3,3.3-8,4.8-13.2,4.8C176.9,93.5,169.4,86.3,169.4,75.5z"/>
	
		<linearGradient id="SVGID_00000009583875058155425630000012706203000694358968_" gradientUnits="userSpaceOnUse" x1="208.3721" y1="62.4778" x2="238.4221" y2="92.5278">
		<stop  offset="2.720169e-04" style="stop-color:#C8AAD1"/>
		<stop  offset="0.5575" style="stop-color:#BB7DB4"/>
		<stop  offset="0.9997" style="stop-color:#BE57A0"/>
	</linearGradient>
	<path style="fill:url(#SVGID_00000009583875058155425630000012706203000694358968_);" d="M237.8,71v22.2h-8.4l-0.2-5.4
		c-2.3,3.6-6.3,5.6-10.6,5.6c-7.2,0-12.1-4.3-12.1-10.7c0-6.7,5.9-11,14.8-11c2.4,0,5,0.3,7.7,0.8v-0.6c0-4.6-3.1-7.4-8.4-7.4
		c-3.3,0-5.9,1-8.1,2.8l-3.8-5.1c3.7-3,8.1-4.5,14.2-4.5C231.8,57.5,237.8,62.8,237.8,71z M228.9,78.3c-2.3-0.4-4.6-0.7-6.6-0.7
		c-4.1,0-6.8,1.9-6.8,4.9c0,2.8,1.9,4.7,5.4,4.7C225.1,87.2,228.9,84,228.9,78.3z"/>
	
		<linearGradient id="SVGID_00000157998487680920789810000016239013219635289481_" gradientUnits="userSpaceOnUse" x1="234.4" y1="57.25" x2="261.3" y2="84.15">
		<stop  offset="2.725262e-04" style="stop-color:#E6B6C6"/>
		<stop  offset="0.5578" style="stop-color:#CF78B0"/>
		<stop  offset="1" style="stop-color:#D268A7"/>
	</linearGradient>
	<path style="fill:url(#SVGID_00000157998487680920789810000016239013219635289481_);" d="M243.4,48.2h8.8v45h-8.8V48.2z"/>
	
		<linearGradient id="SVGID_00000092443071204507084010000009220403012262800026_" gradientUnits="userSpaceOnUse" x1="100.425" y1="57.525" x2="108.175" y2="65.275">
		<stop  offset="5.439039e-04" style="stop-color:#7ABBE7"/>
		<stop  offset="1" style="stop-color:#7DA9DA"/>
	</linearGradient>
	<polygon style="fill:url(#SVGID_00000092443071204507084010000009220403012262800026_);" points="102.8,70.7 114.1,57.8 
		100.1,57.8 100.1,70.7 	"/>
	
		<linearGradient id="SVGID_00000181061592100039475340000016366917708648540845_" gradientUnits="userSpaceOnUse" x1="98.45" y1="81.1" x2="113.6" y2="96.25">
		<stop  offset="5.439089e-04" style="stop-color:#7381BF"/>
		<stop  offset="0.3624" style="stop-color:#727EBD"/>
		<stop  offset="0.6523" style="stop-color:#6E74B6"/>
		<stop  offset="0.9165" style="stop-color:#6863AC"/>
		<stop  offset="1" style="stop-color:#665CA7"/>
	</linearGradient>
	<polygon style="fill:url(#SVGID_00000181061592100039475340000016366917708648540845_);" points="104,77.9 101.6,77.9 101.6,93.1 
		116.8,93.1 	"/>
	
		<linearGradient id="SVGID_00000039827831755897292910000017601781441355331217_" gradientUnits="userSpaceOnUse" x1="120.5" y1="57.35" x2="152.05" y2="88.9">
		<stop  offset="2.725212e-04" style="stop-color:#9BCDEE"/>
		<stop  offset="0.5578" style="stop-color:#9E92C6"/>
		<stop  offset="1" style="stop-color:#7F5FA7"/>
	</linearGradient>
	<path style="fill:url(#SVGID_00000039827831755897292910000017601781441355331217_);" d="M143.3,85.8c-2.8,0-4.8-2.1-4.8-5.2V65.2
		h10.3v-7.4h-10.3v-9.7h-8.8v9.7h-3.2l-2.5,2.7v0.1l-12.8,13.6l13.2,15l-0.3-24h5.6v17.2c0,6.5,4.3,10.9,10.7,10.9
		c3.1,0,6.2-0.5,8.8-1.6v-7.1C147.3,85.5,145.3,85.8,143.3,85.8z"/>
	
		<linearGradient id="SVGID_00000013161266793277540880000005417804319304018613_" gradientUnits="userSpaceOnUse" x1="155.875" y1="47.275" x2="162.825" y2="54.225">
		<stop  offset="5.445331e-04" style="stop-color:#BFCFEA"/>
		<stop  offset="0.3686" style="stop-color:#BCCDE9"/>
		<stop  offset="0.6672" style="stop-color:#B2C6E6"/>
		<stop  offset="0.9408" style="stop-color:#A1BBE0"/>
		<stop  offset="1" style="stop-color:#9CB8DF"/>
	</linearGradient>
	<rect x="155" y="48.2" style="fill:url(#SVGID_00000013161266793277540880000005417804319304018613_);" width="8.8" height="5.1"/>
</g>
</svg>
