<svg width="480" height="180" fill="none" xmlns="http://www.w3.org/2000/svg"><path fill="#212322" d="M0 0h480v180H0z"/><path d="M73.5 41.16v4.88h-6.336v-4.88h-2.256V53h2.256v-5.104H73.5V53h2.256V41.16H73.5Zm7.64 9.968v-3.2h5.28v-1.856h-5.28v-3.04h5.792V41.16h-8.048V53h8.176v-1.872h-5.92ZM97.946 53h2.417l-5.056-11.84H93.21L88.155 53h2.415l.96-2.352h5.457l.96 2.352ZM92.3 48.776l1.967-4.816 1.968 4.816H92.3ZM104.687 53h2.096l5.04-11.84h-2.416l-3.664 9.04-3.712-9.04h-2.4L104.687 53Zm15.917-11.84-2.944 5.472-2.96-5.472h-2.416l4.24 7.472V53h2.256v-4.368l4.224-7.472h-2.4ZM142.271 53l-.8-11.904h-2.48l-3.68 8.208-3.68-8.208h-2.48l-.8 11.904h2.256l.464-8.048L134.687 53h1.248l3.616-8.08.464 8.08h2.256Zm5.024-1.872v-3.2h5.28v-1.856h-5.28v-3.04h5.792V41.16h-8.048V53h8.176v-1.872h-5.92Zm16.774-9.968h-9.472v1.872h3.6V53h2.256v-9.968h3.616V41.16ZM173.186 53h2.416l-5.056-11.84h-2.096L163.394 53h2.416l.96-2.352h5.456l.96 2.352Zm-5.648-4.224 1.968-4.816 1.968 4.816h-3.936Zm12.013 2.352V41.16h-2.256V53h7.488v-1.872h-5.232ZM74.284 82l-3.36-5.04c1.568-.464 2.528-1.68 2.528-3.296 0-2.112-1.568-3.504-3.968-3.504h-4.368V82h1.216v-4.832H69.692L72.844 82h1.44Zm-7.952-10.832h2.992c1.728 0 2.864.992 2.864 2.496 0 1.488-1.152 2.496-2.864 2.496h-2.992v-4.992Zm20.759 4.544h-5.024v1.024h3.76c-.128 2.656-1.76 4.416-4.288 4.416-2.736 0-4.544-2.032-4.544-5.072s1.808-5.072 4.528-5.072c1.264 0 2.304.304 3.152.992l.8-.784C84.323 70.352 83.09 70 81.523 70c-3.504 0-5.808 2.432-5.808 6.08s2.32 6.08 5.808 6.08c3.408 0 5.584-2.368 5.584-6.08 0-.128-.016-.24-.016-.368Zm8.51.096c1.2-.48 1.92-1.408 1.92-2.656 0-1.792-1.424-2.992-3.552-2.992h-4.4V82h4.688c2.287 0 3.807-1.312 3.807-3.296 0-1.456-.943-2.528-2.463-2.896Zm-4.817-4.64h2.864c1.569 0 2.609.848 2.609 2.128 0 1.264-1.008 2.112-2.544 2.112h-2.928v-4.24Zm3.344 9.824h-3.344v-4.56h3.344c1.6 0 2.672.912 2.672 2.272 0 1.376-1.072 2.288-2.671 2.288Zm7.034-5.872c.48 0 .864-.4.864-.88a.87.87 0 0 0-.864-.864c-.464 0-.864.4-.864.864 0 .48.4.88.864.88Zm0 7.04c.48 0 .864-.4.864-.864a.86.86 0 0 0-.864-.864.87.87 0 0 0-.864.864c0 .464.4.864.864.864Zm11.308-6.976c-.224 0-.448.016-.672.032l4.032-4.288v-.768h-6.72v1.008h5.088l-4.304 4.736.32.624c.544-.272 1.168-.4 1.824-.4 1.76 0 2.944.976 2.944 2.464 0 1.536-1.184 2.56-3.024 2.56-1.216 0-2.192-.416-2.816-1.216l-.48.896c.704.864 1.968 1.328 3.424 1.328 2.528 0 4.16-1.424 4.16-3.584 0-2.032-1.504-3.392-3.776-3.392Zm9.351 0c-.224 0-.448.016-.672.032l4.032-4.288v-.768h-6.72v1.008h5.088l-4.304 4.736.32.624c.544-.272 1.168-.4 1.824-.4 1.76 0 2.944.976 2.944 2.464 0 1.536-1.184 2.56-3.024 2.56-1.216 0-2.192-.416-2.816-1.216l-.48.896c.704.864 1.968 1.328 3.424 1.328 2.528 0 4.16-1.424 4.16-3.584 0-2.032-1.504-3.392-3.776-3.392Zm9.65 9.136h1.168l1.296-3.616h-1.376l-1.088 3.616Zm12.834-9.136c-.224 0-.448.016-.672.032l4.032-4.288v-.768h-6.72v1.008h5.088l-4.304 4.736.32.624c.544-.272 1.168-.4 1.824-.4 1.76 0 2.944.976 2.944 2.464 0 1.536-1.184 2.56-3.024 2.56-1.216 0-2.192-.416-2.816-1.216l-.48.896c.704.864 1.968 1.328 3.424 1.328 2.528 0 4.16-1.424 4.16-3.584 0-2.032-1.504-3.392-3.776-3.392Zm8.903 6.976c2.544 0 4.32-1.52 4.32-3.792 0-2.096-1.52-3.504-3.712-3.504-.688 0-1.36.096-1.968.272l.592-3.968h4.544V70.16h-5.616l-.816 6.064.832.128a5.478 5.478 0 0 1 2.208-.48c1.6 0 2.672 1.04 2.672 2.56 0 1.632-1.264 2.72-3.168 2.72-1.152 0-2.224-.32-2.944-.992l-.368.896c.784.736 1.968 1.104 3.424 1.104Zm10.176 2.16h1.168l1.296-3.616h-1.376l-1.088 3.616Zm12.833-9.136c-.224 0-.448.016-.672.032l4.032-4.288v-.768h-6.72v1.008h5.088l-4.304 4.736.32.624c.544-.272 1.168-.4 1.824-.4 1.76 0 2.944.976 2.944 2.464 0 1.536-1.184 2.56-3.024 2.56-1.216 0-2.192-.416-2.816-1.216l-.48.896c.704.864 1.968 1.328 3.424 1.328 2.528 0 4.16-1.424 4.16-3.584 0-2.032-1.504-3.392-3.776-3.392ZM187.328 82h1.216v-2.56h1.792v-1.008h-1.792V70.16h-.992l-6.08 8.384v.896h5.856V82Zm-4.464-3.552 4.512-6.24-.016 6.24h-4.496ZM73.644 99.16v5.312h-7.312V99.16h-1.216V111h1.216v-5.504h7.312V111h1.216V99.16h-1.216Zm5.977 10.832v-4.528h5.68v-1.008h-5.68v-4.288h6.08V99.16h-7.296V111h7.44v-1.008H79.62ZM97.3 111l-4.368-6.128 4-5.712h-1.408l-3.28 4.8-3.296-4.8h-1.392l3.984 5.728L87.189 111h1.408l3.648-5.2 3.664 5.2H97.3Zm1.081 1.6h1.168l3.824-14.08h-1.168l-3.824 14.08Zm16.151-13.44v5.312h-7.312V99.16h-1.216V111h1.216v-5.504h7.312V111h1.216V99.16h-1.216Zm12.201 0h-8.848v1.008h3.824V111h1.216v-10.832h3.808V99.16ZM141.729 111l-.704-11.952h-1.28l-4.624 10.032-4.64-10.032h-1.264L128.513 111h1.2l.528-9.744 4.496 9.744h.752l4.512-9.744.512 9.744h1.216Zm4.452-1.008V99.16h-1.216V111h6.816v-1.008h-5.6Zm8.113-5.872c.48 0 .864-.4.864-.88a.87.87 0 0 0-.864-.864c-.464 0-.864.4-.864.864 0 .48.4.88.864.88Zm0 7.04c.48 0 .864-.4.864-.864a.86.86 0 0 0-.864-.864.87.87 0 0 0-.864.864c0 .464.4.864.864.864Zm17.051-7.248.192-.816h-1.968l.768-3.296h-.896l-.768 3.296h-3.072l.768-3.296h-.88l-.768 3.296h-1.952l-.176.816h1.952l-.704 3.024h-1.936l-.208.816h1.952l-.752 3.248h.88l.752-3.248h3.072l-.752 3.248h.896l.752-3.248h1.968l.192-.816h-1.968l.704-3.024h1.952Zm-3.552 3.024h-3.072l.704-3.024h3.072l-.704 3.024Zm5.369 4.064h7.472v-1.008l-5.84.016 2.752-2.928c1.424-1.504 2.928-3.072 2.928-4.992 0-1.888-1.44-3.088-3.584-3.088-2.176 0-3.616 1.296-3.616 3.264l1.248.096c0-1.408.944-2.352 2.384-2.352 1.392 0 2.32.832 2.32 2.176 0 1.664-1.536 3.168-2.48 4.176l-3.584 3.856V111Zm12.407 0h1.216V99.16h-.944l-3.856 2.848.624.896 2.96-2.144V111Zm3.874 0h7.472v-1.008l-5.84.016 2.752-2.928c1.424-1.504 2.928-3.072 2.928-4.992 0-1.888-1.44-3.088-3.584-3.088-2.176 0-3.616 1.296-3.616 3.264l1.248.096c0-1.408.944-2.352 2.384-2.352 1.392 0 2.32.832 2.32 2.176 0 1.664-1.536 3.168-2.48 4.176l-3.584 3.856V111Zm13.079-6.816c-.224 0-.448.016-.672.032l4.032-4.288v-.768h-6.72v1.008h5.088l-4.304 4.736.32.624c.544-.272 1.168-.4 1.824-.4 1.76 0 2.944.976 2.944 2.464 0 1.536-1.184 2.56-3.024 2.56-1.216 0-2.192-.416-2.816-1.216l-.48.896c.704.864 1.968 1.328 3.424 1.328 2.528 0 4.16-1.424 4.16-3.584 0-2.032-1.504-3.392-3.776-3.392Zm5.623 6.816h7.472v-1.008l-5.84.016 2.752-2.928c1.424-1.504 2.928-3.072 2.928-4.992 0-1.888-1.44-3.088-3.584-3.088-2.176 0-3.616 1.296-3.616 3.264l1.248.096c0-1.408.944-2.352 2.384-2.352 1.392 0 2.32.832 2.32 2.176 0 1.664-1.536 3.168-2.48 4.176l-3.584 3.856V111Zm9.352 0h7.472v-1.008l-5.84.016 2.752-2.928c1.424-1.504 2.928-3.072 2.928-4.992 0-1.888-1.44-3.088-3.584-3.088-2.176 0-3.616 1.296-3.616 3.264l1.248.096c0-1.408.944-2.352 2.384-2.352 1.392 0 2.32.832 2.32 2.176 0 1.664-1.536 3.168-2.48 4.176l-3.584 3.856V111ZM70.316 140.16c2.064 0 3.744-.88 4.8-2.304l-.832-.768c-.848 1.232-2.192 2.064-3.952 2.064-2.832 0-4.72-2.048-4.72-5.104 0-3.024 1.904-5.04 4.752-5.04 1.616 0 2.816.736 3.648 1.696l.768-.784c-1.088-1.184-2.528-1.92-4.464-1.92-3.584 0-5.984 2.416-5.984 6.048 0 3.664 2.4 6.112 5.984 6.112Zm20.141-.16-.704-11.952h-1.28l-4.624 10.032-4.64-10.032h-1.264L77.241 140h1.2l.528-9.744L83.465 140h.752l4.512-9.744.512 9.744h1.216Zm10.885 0h1.488l-4.704-6.08 4.544-5.76h-1.489l-4.111 5.264h-2.16v-5.264h-1.216V140h1.215v-5.552h2.176l4.257 5.552Zm10.811-11.84-3.648 5.952-3.68-5.952h-1.328l4.384 7.04v4.8h1.216v-4.8l4.384-7.04h-1.328Zm3.236 4.96c.48 0 .864-.4.864-.88a.87.87 0 0 0-.864-.864c-.464 0-.864.4-.864.864 0 .48.4.88.864.88Zm0 7.04c.48 0 .864-.4.864-.864a.86.86 0 0 0-.864-.864.87.87 0 0 0-.864.864c0 .464.4.864.864.864Zm7.179-12v1.008h5.904L124.552 140h1.296l4.224-11.84h-7.504Zm12.409 4.688c-.56 0-1.04.08-1.456.24l3.44-4.928h-1.376l-3.76 5.552c-.576.832-.912 1.696-.912 2.784 0 2.192 1.536 3.664 3.84 3.664s3.84-1.472 3.84-3.696c0-2.176-1.52-3.616-3.616-3.616Zm-.224 6.304c-1.552 0-2.576-1.072-2.576-2.672 0-1.616 1.024-2.688 2.576-2.688s2.576 1.072 2.576 2.688c0 1.6-1.024 2.672-2.576 2.672Zm9.507 3.168h1.168l1.296-3.616h-1.376l-1.088 3.616Zm13.153-9.472c-.56 0-1.04.08-1.456.24l3.44-4.928h-1.376l-3.76 5.552c-.576.832-.912 1.696-.912 2.784 0 2.192 1.536 3.664 3.84 3.664s3.84-1.472 3.84-3.696c0-2.176-1.52-3.616-3.616-3.616Zm-.224 6.304c-1.552 0-2.576-1.072-2.576-2.672 0-1.616 1.024-2.688 2.576-2.688s2.576 1.072 2.576 2.688c0 1.6-1.024 2.672-2.576 2.672Zm8.761 1.008c2.544 0 4.32-1.52 4.32-3.792 0-2.096-1.52-3.504-3.712-3.504-.688 0-1.36.096-1.968.272l.592-3.968h4.544v-1.008h-5.616l-.816 6.064.832.128a5.478 5.478 0 0 1 2.208-.48c1.6 0 2.672 1.04 2.672 2.56 0 1.632-1.264 2.72-3.168 2.72-1.152 0-2.224-.32-2.944-.992l-.368.896c.784.736 1.968 1.104 3.424 1.104Zm10.176 2.16h1.168l1.296-3.616h-1.376l-1.088 3.616Zm13.153-9.472c-.56 0-1.04.08-1.456.24l3.44-4.928h-1.376l-3.76 5.552c-.576.832-.912 1.696-.912 2.784 0 2.192 1.536 3.664 3.84 3.664s3.84-1.472 3.84-3.696c0-2.176-1.52-3.616-3.616-3.616Zm-.224 6.304c-1.552 0-2.576-1.072-2.576-2.672 0-1.616 1.024-2.688 2.576-2.688s2.576 1.072 2.576 2.688c0 1.6-1.024 2.672-2.576 2.672Zm9.528-6.304c-.56 0-1.04.08-1.456.24l3.44-4.928h-1.376l-3.76 5.552c-.576.832-.912 1.696-.912 2.784 0 2.192 1.536 3.664 3.84 3.664s3.84-1.472 3.84-3.696c0-2.176-1.52-3.616-3.616-3.616Zm-.224 6.304c-1.552 0-2.576-1.072-2.576-2.672 0-1.616 1.024-2.688 2.576-2.688s2.576 1.072 2.576 2.688c0 1.6-1.024 2.672-2.576 2.672Zm9.507 3.168h1.168l1.296-3.616h-1.376l-1.088 3.616ZM220.668 128c-2.304 0-3.84 1.472-3.84 3.696 0 2.176 1.52 3.616 3.616 3.616.56 0 1.04-.08 1.456-.24L218.46 140h1.376l3.76-5.552c.576-.832.912-1.696.912-2.784 0-2.192-1.536-3.664-3.84-3.664Zm-2.576 3.68c0-1.6 1.024-2.672 2.576-2.672s2.576 1.072 2.576 2.672c0 1.616-1.024 2.688-2.576 2.688s-2.576-1.072-2.576-2.688Zm12.424 8.48c2.528 0 4.192-2.432 4.192-6.08s-1.664-6.08-4.192-6.08c-2.512 0-4.176 2.432-4.176 6.08s1.664 6.08 4.176 6.08Zm0-1.008c-1.76 0-2.928-2.032-2.928-5.072s1.168-5.072 2.928-5.072 2.928 2.032 2.928 5.072-1.168 5.072-2.928 5.072Z" fill="#fff"/></svg>