<svg width="480" height="180" fill="none" xmlns="http://www.w3.org/2000/svg"><path fill="#80818B" d="M0 0h480v180H0z"/><path d="M66.4 53.16c1.84 0 3.104-1.088 3.104-2.72v-9.28h-2.256v8.88c0 .752-.48 1.248-1.28 1.248a1.79 1.79 0 0 1-1.312-.576l-.592 1.504c.56.624 1.36.944 2.336.944Zm11.212 0c3.104 0 5.168-1.856 5.168-4.64v-7.36h-2.256v7.264c0 1.712-1.168 2.864-2.912 2.864-1.76 0-2.944-1.152-2.944-2.864V41.16h-2.256v7.36c0 2.784 2.08 4.64 5.2 4.64ZM99.32 53l-.8-11.904h-2.48l-3.68 8.208-3.68-8.208h-2.48L85.399 53h2.256l.464-8.048L91.735 53h1.248l3.616-8.08.464 8.08h2.256Zm9.808-6.272c1.008-.544 1.584-1.392 1.584-2.464 0-1.856-1.424-3.104-3.552-3.104h-5.072V53h5.136c2.496 0 4.128-1.376 4.128-3.44 0-1.344-.848-2.368-2.224-2.832Zm-4.784-3.696h2.288c1.04 0 1.76.592 1.76 1.472 0 .896-.704 1.488-1.776 1.488h-2.272v-2.96Zm2.736 8.096h-2.736v-3.28h2.768c1.136 0 1.92.656 1.92 1.648 0 .976-.784 1.632-1.952 1.632Zm12.16 2.032c3.712 0 6.208-2.432 6.208-6.08S122.951 41 119.239 41c-3.728 0-6.224 2.432-6.224 6.08s2.496 6.08 6.224 6.08Zm0-1.872c-2.32 0-3.888-1.68-3.888-4.208 0-2.528 1.568-4.208 3.888-4.208s3.872 1.68 3.872 4.208c0 2.528-1.552 4.208-3.872 4.208ZM74.784 82l-3.36-5.04c1.568-.464 2.528-1.68 2.528-3.296 0-2.112-1.568-3.504-3.968-3.504h-4.368V82h1.216v-4.832H70.192L73.344 82h1.44Zm-7.952-10.832h2.992c1.728 0 2.864.992 2.864 2.496 0 1.488-1.152 2.496-2.864 2.496h-2.992v-4.992Zm20.759 4.544h-5.024v1.024h3.76c-.128 2.656-1.76 4.416-4.288 4.416-2.736 0-4.544-2.032-4.544-5.072s1.808-5.072 4.528-5.072c1.264 0 2.304.304 3.152.992l.8-.784C84.823 70.352 83.59 70 82.023 70c-3.504 0-5.808 2.432-5.808 6.08s2.32 6.08 5.808 6.08c3.408 0 5.584-2.368 5.584-6.08 0-.128-.016-.24-.016-.368Zm8.51.096c1.2-.48 1.92-1.408 1.92-2.656 0-1.792-1.424-2.992-3.552-2.992h-4.4V82h4.688c2.287 0 3.807-1.312 3.807-3.296 0-1.456-.943-2.528-2.463-2.896Zm-4.817-4.64h2.864c1.569 0 2.609.848 2.609 2.128 0 1.264-1.008 2.112-2.544 2.112h-2.928v-4.24Zm3.344 9.824h-3.344v-4.56h3.344c1.6 0 2.672.912 2.672 2.272 0 1.376-1.072 2.288-2.671 2.288Zm7.034-5.872c.48 0 .864-.4.864-.88a.87.87 0 0 0-.864-.864c-.464 0-.864.4-.864.864 0 .48.4.88.864.88Zm0 7.04c.48 0 .864-.4.864-.864a.86.86 0 0 0-.864-.864.87.87 0 0 0-.864.864c0 .464.4.864.864.864Zm10.636-.16h1.216V70.16h-.944l-3.856 2.848.624.896 2.96-2.144V82Zm3.874 0h7.472v-1.008l-5.84.016 2.752-2.928c1.424-1.504 2.928-3.072 2.928-4.992 0-1.888-1.44-3.088-3.584-3.088-2.176 0-3.616 1.296-3.616 3.264l1.248.096c0-1.408.944-2.352 2.384-2.352 1.392 0 2.32.832 2.32 2.176 0 1.664-1.536 3.168-2.48 4.176l-3.584 3.856V82Zm13.399-7.152c-.56 0-1.04.08-1.456.24l3.44-4.928h-1.376l-3.76 5.552c-.576.832-.912 1.696-.912 2.784 0 2.192 1.536 3.664 3.84 3.664s3.84-1.472 3.84-3.696c0-2.176-1.52-3.616-3.616-3.616Zm-.224 6.304c-1.552 0-2.576-1.072-2.576-2.672 0-1.616 1.024-2.688 2.576-2.688s2.576 1.072 2.576 2.688c0 1.6-1.024 2.672-2.576 2.672Zm9.507 3.168h1.168l1.296-3.616h-1.376l-1.088 3.616ZM151.015 82h1.216V70.16h-.944l-3.856 2.848.624.896 2.96-2.144V82Zm3.873 0h7.472v-1.008l-5.84.016 2.752-2.928c1.424-1.504 2.928-3.072 2.928-4.992 0-1.888-1.44-3.088-3.584-3.088-2.176 0-3.616 1.296-3.616 3.264l1.248.096c0-1.408.944-2.352 2.384-2.352 1.392 0 2.32.832 2.32 2.176 0 1.664-1.536 3.168-2.48 4.176l-3.584 3.856V82Zm13.4-7.152c-.56 0-1.04.08-1.456.24l3.44-4.928h-1.376l-3.76 5.552c-.576.832-.912 1.696-.912 2.784 0 2.192 1.536 3.664 3.84 3.664s3.84-1.472 3.84-3.696c0-2.176-1.52-3.616-3.616-3.616Zm-.224 6.304c-1.552 0-2.576-1.072-2.576-2.672 0-1.616 1.024-2.688 2.576-2.688s2.576 1.072 2.576 2.688c0 1.6-1.024 2.672-2.576 2.672Zm9.507 3.168h1.168l1.296-3.616h-1.376l-1.088 3.616ZM189.732 82h1.216V70.16h-.944l-3.856 2.848.624.896 2.96-2.144V82Zm7.601-6.816c-.224 0-.448.016-.672.032l4.032-4.288v-.768h-6.72v1.008h5.088l-4.304 4.736.32.624c.544-.272 1.168-.4 1.824-.4 1.76 0 2.944.976 2.944 2.464 0 1.536-1.184 2.56-3.024 2.56-1.216 0-2.192-.416-2.816-1.216l-.48.896c.704.864 1.968 1.328 3.424 1.328 2.528 0 4.16-1.424 4.16-3.584 0-2.032-1.504-3.392-3.776-3.392Zm9.864 6.976c2.528 0 4.192-2.432 4.192-6.08S209.725 70 207.197 70c-2.512 0-4.176 2.432-4.176 6.08s1.664 6.08 4.176 6.08Zm0-1.008c-1.76 0-2.928-2.032-2.928-5.072s1.168-5.072 2.928-5.072 2.928 2.032 2.928 5.072-1.168 5.072-2.928 5.072ZM74.144 99.16v5.312h-7.312V99.16h-1.216V111h1.216v-5.504h7.312V111h1.216V99.16h-1.216Zm5.977 10.832v-4.528h5.68v-1.008h-5.68v-4.288h6.08V99.16h-7.296V111h7.44v-1.008H80.12ZM97.8 111l-4.368-6.128 4-5.712h-1.408l-3.28 4.8-3.296-4.8h-1.392l3.984 5.728L87.689 111h1.408l3.648-5.2 3.664 5.2H97.8Zm1.081 1.6h1.168l3.824-14.08h-1.168l-3.824 14.08Zm16.151-13.44v5.312h-7.312V99.16h-1.216V111h1.216v-5.504h7.312V111h1.216V99.16h-1.216Zm12.201 0h-8.848v1.008h3.824V111h1.216v-10.832h3.808V99.16ZM142.229 111l-.704-11.952h-1.28l-4.624 10.032-4.64-10.032h-1.264L129.013 111h1.2l.528-9.744 4.496 9.744h.752l4.512-9.744.512 9.744h1.216Zm4.452-1.008V99.16h-1.216V111h6.816v-1.008h-5.6Zm8.113-5.872c.48 0 .864-.4.864-.88a.87.87 0 0 0-.864-.864c-.464 0-.864.4-.864.864 0 .48.4.88.864.88Zm0 7.04c.48 0 .864-.4.864-.864a.86.86 0 0 0-.864-.864.87.87 0 0 0-.864.864c0 .464.4.864.864.864Zm17.051-7.248.192-.816h-1.968l.768-3.296h-.896l-.768 3.296h-3.072l.768-3.296h-.88l-.768 3.296h-1.952l-.176.816h1.952l-.704 3.024h-1.936l-.208.816h1.952l-.752 3.248h.88l.752-3.248h3.072l-.752 3.248h.896l.752-3.248h1.968l.192-.816h-1.968l.704-3.024h1.952Zm-3.552 3.024h-3.072l.704-3.024h3.072l-.704 3.024Zm4.969-7.776v1.008h5.904L175.246 111h1.296l4.224-11.84h-7.504Zm10.941 10.832v-4.528h5.68v-1.008h-5.68v-4.288h6.08V99.16h-7.296V111h7.44v-1.008h-6.224Zm7.824-10.832v1.008h5.904L194.011 111h1.296l4.224-11.84h-7.504Zm10.941 10.832v-4.528h5.68v-1.008h-5.68v-4.288h6.08V99.16h-7.296V111h7.44v-1.008h-6.224Zm13.92-5.136c1.136-.48 1.84-1.472 1.84-2.752 0-1.856-1.408-3.104-3.52-3.104s-3.52 1.248-3.52 3.12c0 1.28.704 2.272 1.84 2.736-1.344.48-2.16 1.568-2.16 3.008 0 1.968 1.536 3.296 3.84 3.296s3.84-1.328 3.84-3.328c0-1.424-.816-2.512-2.16-2.976Zm-1.68-4.848c1.36 0 2.256.88 2.256 2.192 0 1.296-.896 2.16-2.256 2.16-1.36 0-2.256-.864-2.256-2.16 0-1.312.896-2.192 2.256-2.192Zm0 10.144c-1.552 0-2.576-.944-2.576-2.384 0-1.424 1.024-2.384 2.576-2.384s2.576.96 2.576 2.384c0 1.44-1.024 2.384-2.576 2.384Zm5.804.848h7.472v-1.008l-5.84.016 2.752-2.928c1.424-1.504 2.928-3.072 2.928-4.992 0-1.888-1.44-3.088-3.584-3.088-2.176 0-3.616 1.296-3.616 3.264l1.248.096c0-1.408.944-2.352 2.384-2.352 1.392 0 2.32.832 2.32 2.176 0 1.664-1.536 3.168-2.48 4.176l-3.584 3.856V111ZM70.816 140.16c2.064 0 3.744-.88 4.8-2.304l-.832-.768c-.848 1.232-2.192 2.064-3.952 2.064-2.832 0-4.72-2.048-4.72-5.104 0-3.024 1.904-5.04 4.752-5.04 1.616 0 2.816.736 3.648 1.696l.768-.784c-1.088-1.184-2.528-1.92-4.464-1.92-3.584 0-5.984 2.416-5.984 6.048 0 3.664 2.4 6.112 5.984 6.112Zm20.141-.16-.704-11.952h-1.28l-4.624 10.032-4.64-10.032h-1.264L77.741 140h1.2l.528-9.744L83.965 140h.752l4.512-9.744.512 9.744h1.216Zm10.885 0h1.488l-4.704-6.08 4.544-5.76h-1.489l-4.111 5.264h-2.16v-5.264h-1.216V140h1.215v-5.552h2.176l4.257 5.552Zm10.811-11.84-3.648 5.952-3.68-5.952h-1.328l4.384 7.04v4.8h1.216v-4.8l4.384-7.04h-1.328Zm3.236 4.96c.48 0 .864-.4.864-.88a.87.87 0 0 0-.864-.864c-.464 0-.864.4-.864.864 0 .48.4.88.864.88Zm0 7.04c.48 0 .864-.4.864-.864a.86.86 0 0 0-.864-.864.87.87 0 0 0-.864.864c0 .464.4.864.864.864Zm13.067-.16h1.216v-2.56h1.792v-1.008h-1.792v-8.272h-.992l-6.08 8.384v.896h5.856V140Zm-4.464-3.552 4.512-6.24-.016 6.24h-4.496Zm8.662-8.288v1.008h5.904L135.138 140h1.296l4.224-11.84h-7.504Zm12.871 14.16h1.168l1.296-3.616h-1.376l-1.088 3.616Zm12.834-9.136c-.224 0-.448.016-.672.032l4.032-4.288v-.768h-6.72v1.008h5.088l-4.304 4.736.32.624c.544-.272 1.168-.4 1.824-.4 1.76 0 2.944.976 2.944 2.464 0 1.536-1.184 2.56-3.024 2.56-1.216 0-2.192-.416-2.816-1.216l-.48.896c.704.864 1.968 1.328 3.424 1.328 2.528 0 4.16-1.424 4.16-3.584 0-2.032-1.504-3.392-3.776-3.392Zm9.319-5.184c-2.304 0-3.84 1.472-3.84 3.696 0 2.176 1.52 3.616 3.616 3.616.56 0 1.04-.08 1.456-.24L165.97 140h1.376l3.76-5.552c.576-.832.912-1.696.912-2.784 0-2.192-1.536-3.664-3.84-3.664Zm-2.576 3.68c0-1.6 1.024-2.672 2.576-2.672s2.576 1.072 2.576 2.672c0 1.616-1.024 2.688-2.576 2.688s-2.576-1.072-2.576-2.688Zm12.211 10.64h1.168l1.296-3.616h-1.376l-1.088 3.616Zm12.834-9.136c-.224 0-.448.016-.672.032l4.032-4.288v-.768h-6.72v1.008h5.088l-4.304 4.736.32.624c.544-.272 1.168-.4 1.824-.4 1.76 0 2.944.976 2.944 2.464 0 1.536-1.184 2.56-3.024 2.56-1.216 0-2.192-.416-2.816-1.216l-.48.896c.704.864 1.968 1.328 3.424 1.328 2.528 0 4.16-1.424 4.16-3.584 0-2.032-1.504-3.392-3.776-3.392Zm8.491 6.816h1.216v-11.84h-.944l-3.856 2.848.624.896 2.96-2.144V140Zm7.9 2.32h1.168l1.296-3.616h-1.376l-1.088 3.616ZM219.2 140h1.216v-11.84h-.944l-3.856 2.848.624.896 2.96-2.144V140Zm9.361 0h1.216v-2.56h1.792v-1.008h-1.792v-8.272h-.992l-6.08 8.384v.896h5.856V140Zm-4.464-3.552 4.512-6.24-.016 6.24h-4.496Z" fill="#fff"/></svg>