<svg width="480" height="180" fill="none" xmlns="http://www.w3.org/2000/svg"><path fill="#D8DEE8" d="M0 0h480v180H0z"/><path d="M65.908 53h2.256V41.16h-2.256V53Zm12.774 0h2.656l-3.12-4.784c1.376-.592 2.192-1.776 2.192-3.312 0-2.24-1.648-3.744-4.144-3.744h-4.96V53h2.256v-4.352h2.416L78.682 53Zm-5.12-9.968h2.448c1.248 0 2.08.752 2.08 1.872s-.896 1.872-2.24 1.872h-2.288v-3.744Zm15.1 10.128c3.711 0 6.207-2.432 6.207-6.08S92.373 41 88.661 41c-3.728 0-6.224 2.432-6.224 6.08s2.496 6.08 6.224 6.08Zm0-1.872c-2.32 0-3.889-1.68-3.889-4.208 0-2.528 1.568-4.208 3.888-4.208s3.872 1.68 3.872 4.208c0 2.528-1.552 4.208-3.872 4.208ZM97.29 53h2.256l-.032-8.016L106.97 53h1.392V41.16h-2.256l.048 8.016-7.456-8.016H97.29V53ZM75.284 82l-3.36-5.04c1.568-.464 2.528-1.68 2.528-3.296 0-2.112-1.568-3.504-3.968-3.504h-4.368V82h1.216v-4.832H70.692L73.844 82h1.44Zm-7.952-10.832h2.992c1.728 0 2.864.992 2.864 2.496 0 1.488-1.152 2.496-2.864 2.496h-2.992v-4.992Zm20.759 4.544h-5.024v1.024h3.76c-.128 2.656-1.76 4.416-4.288 4.416-2.736 0-4.544-2.032-4.544-5.072s1.808-5.072 4.528-5.072c1.264 0 2.304.304 3.152.992l.8-.784C85.323 70.352 84.09 70 82.523 70c-3.504 0-5.808 2.432-5.808 6.08s2.32 6.08 5.808 6.08c3.408 0 5.584-2.368 5.584-6.08 0-.128-.016-.24-.016-.368Zm8.51.096c1.2-.48 1.92-1.408 1.92-2.656 0-1.792-1.424-2.992-3.552-2.992h-4.4V82h4.688c2.287 0 3.807-1.312 3.807-3.296 0-1.456-.943-2.528-2.463-2.896Zm-4.817-4.64h2.864c1.569 0 2.609.848 2.609 2.128 0 1.264-1.008 2.112-2.544 2.112h-2.928v-4.24Zm3.344 9.824h-3.344v-4.56h3.344c1.6 0 2.672.912 2.672 2.272 0 1.376-1.072 2.288-2.671 2.288Zm7.034-5.872c.48 0 .864-.4.864-.88a.87.87 0 0 0-.864-.864c-.464 0-.864.4-.864.864 0 .48.4.88.864.88Zm0 7.04c.48 0 .864-.4.864-.864a.86.86 0 0 0-.864-.864.87.87 0 0 0-.864.864c0 .464.4.864.864.864Zm7.58-.16h7.472v-1.008l-5.84.016 2.752-2.928c1.424-1.504 2.928-3.072 2.928-4.992 0-1.888-1.44-3.088-3.584-3.088-2.176 0-3.616 1.296-3.616 3.264l1.248.096c0-1.408.944-2.352 2.384-2.352 1.392 0 2.32.832 2.32 2.176 0 1.664-1.536 3.168-2.48 4.176l-3.584 3.856V82Zm13.591.16c2.528 0 4.192-2.432 4.192-6.08S125.861 70 123.333 70c-2.512 0-4.176 2.432-4.176 6.08s1.664 6.08 4.176 6.08Zm0-1.008c-1.76 0-2.928-2.032-2.928-5.072s1.168-5.072 2.928-5.072 2.928 2.032 2.928 5.072-1.168 5.072-2.928 5.072Zm11.73-5.296c1.136-.48 1.84-1.472 1.84-2.752 0-1.856-1.408-3.104-3.52-3.104s-3.52 1.248-3.52 3.12c0 1.28.704 2.272 1.84 2.736-1.344.48-2.16 1.568-2.16 3.008 0 1.968 1.536 3.296 3.84 3.296s3.84-1.328 3.84-3.328c0-1.424-.816-2.512-2.16-2.976Zm-1.68-4.848c1.36 0 2.256.88 2.256 2.192 0 1.296-.896 2.16-2.256 2.16-1.36 0-2.256-.864-2.256-2.16 0-1.312.896-2.192 2.256-2.192Zm0 10.144c-1.552 0-2.576-.944-2.576-2.384 0-1.424 1.024-2.384 2.576-2.384s2.576.96 2.576 2.384c0 1.44-1.024 2.384-2.576 2.384Zm9.83 3.168h1.168l1.296-3.616h-1.376l-1.088 3.616Zm9.105-2.32h7.472v-1.008l-5.84.016 2.752-2.928c1.424-1.504 2.928-3.072 2.928-4.992 0-1.888-1.44-3.088-3.584-3.088-2.176 0-3.616 1.296-3.616 3.264l1.248.096c0-1.408.944-2.352 2.384-2.352 1.392 0 2.32.832 2.32 2.176 0 1.664-1.536 3.168-2.48 4.176l-3.584 3.856V82Zm12.408 0h1.216V70.16h-.944l-3.856 2.848.624.896 2.96-2.144V82Zm6.929 0h1.216V70.16h-.944l-3.856 2.848.624.896 2.96-2.144V82Zm7.9 2.32h1.168l1.296-3.616h-1.376l-1.088 3.616ZM188.66 82h7.472v-1.008l-5.84.016 2.752-2.928c1.424-1.504 2.928-3.072 2.928-4.992 0-1.888-1.44-3.088-3.584-3.088-2.176 0-3.616 1.296-3.616 3.264l1.248.096c0-1.408.944-2.352 2.384-2.352 1.392 0 2.32.832 2.32 2.176 0 1.664-1.536 3.168-2.48 4.176l-3.584 3.856V82Zm12.408 0h1.216V70.16h-.944l-3.856 2.848.624.896 2.96-2.144V82Zm3.873 0h7.472v-1.008l-5.84.016 2.752-2.928c1.424-1.504 2.928-3.072 2.928-4.992 0-1.888-1.44-3.088-3.584-3.088-2.176 0-3.616 1.296-3.616 3.264l1.248.096c0-1.408.944-2.352 2.384-2.352 1.392 0 2.32.832 2.32 2.176 0 1.664-1.536 3.168-2.48 4.176l-3.584 3.856V82ZM74.644 99.16v5.312h-7.312V99.16h-1.216V111h1.216v-5.504h7.312V111h1.216V99.16h-1.216Zm5.977 10.832v-4.528h5.68v-1.008h-5.68v-4.288h6.08V99.16h-7.296V111h7.44v-1.008H80.62ZM98.3 111l-4.368-6.128 4-5.712h-1.408l-3.28 4.8-3.296-4.8h-1.392l3.984 5.728L88.189 111h1.408l3.648-5.2 3.664 5.2H98.3Zm1.081 1.6h1.168l3.824-14.08h-1.168l-3.824 14.08Zm16.151-13.44v5.312h-7.312V99.16h-1.216V111h1.216v-5.504h7.312V111h1.216V99.16h-1.216Zm12.201 0h-8.848v1.008h3.824V111h1.216v-10.832h3.808V99.16ZM142.729 111l-.704-11.952h-1.28l-4.624 10.032-4.64-10.032h-1.264L129.513 111h1.2l.528-9.744 4.496 9.744h.752l4.512-9.744.512 9.744h1.216Zm4.452-1.008V99.16h-1.216V111h6.816v-1.008h-5.6Zm8.113-5.872c.48 0 .864-.4.864-.88a.87.87 0 0 0-.864-.864c-.464 0-.864.4-.864.864 0 .48.4.88.864.88Zm0 7.04c.48 0 .864-.4.864-.864a.86.86 0 0 0-.864-.864.87.87 0 0 0-.864.864c0 .464.4.864.864.864Zm17.051-7.248.192-.816h-1.968l.768-3.296h-.896l-.768 3.296h-3.072l.768-3.296h-.88l-.768 3.296h-1.952l-.176.816h1.952l-.704 3.024h-1.936l-.208.816h1.952l-.752 3.248h.88l.752-3.248h3.072l-.752 3.248h.896l.752-3.248h1.968l.192-.816h-1.968l.704-3.024h1.952Zm-3.552 3.024h-3.072l.704-3.024h3.072l-.704 3.024Zm10.265-7.776h-4.016V111h4.016c3.456 0 5.744-2.368 5.744-5.888 0-3.584-2.288-5.952-5.744-5.952Zm-.096 10.832h-2.704v-9.824h2.704c2.752 0 4.576 1.968 4.576 4.944 0 2.912-1.824 4.88-4.576 4.88Zm11.979 1.168c2.528 0 4.192-2.432 4.192-6.08S193.469 99 190.941 99c-2.512 0-4.176 2.432-4.176 6.08s1.664 6.08 4.176 6.08Zm0-1.008c-1.76 0-2.928-2.032-2.928-5.072s1.168-5.072 2.928-5.072 2.928 2.032 2.928 5.072-1.168 5.072-2.928 5.072ZM201.87 99.16h-4.016V111h4.016c3.456 0 5.744-2.368 5.744-5.888 0-3.584-2.288-5.952-5.744-5.952Zm-.096 10.832h-2.704v-9.824h2.704c2.752 0 4.576 1.968 4.576 4.944 0 2.912-1.824 4.88-4.576 4.88Zm11.467-5.808c-.224 0-.448.016-.672.032l4.032-4.288v-.768h-6.72v1.008h5.088l-4.304 4.736.32.624c.544-.272 1.168-.4 1.824-.4 1.76 0 2.944.976 2.944 2.464 0 1.536-1.184 2.56-3.024 2.56-1.216 0-2.192-.416-2.816-1.216l-.48.896c.704.864 1.968 1.328 3.424 1.328 2.528 0 4.16-1.424 4.16-3.584 0-2.032-1.504-3.392-3.776-3.392Zm10.519-5.024h-4.016V111h4.016c3.456 0 5.744-2.368 5.744-5.888 0-3.584-2.288-5.952-5.744-5.952Zm-.096 10.832h-2.704v-9.824h2.704c2.752 0 4.576 1.968 4.576 4.944 0 2.912-1.824 4.88-4.576 4.88ZM236.891 111h1.216v-2.56h1.792v-1.008h-1.792V99.16h-.992l-6.08 8.384v.896h5.856V111Zm-4.464-3.552 4.512-6.24-.016 6.24h-4.496ZM71.316 140.16c2.064 0 3.744-.88 4.8-2.304l-.832-.768c-.848 1.232-2.192 2.064-3.952 2.064-2.832 0-4.72-2.048-4.72-5.104 0-3.024 1.904-5.04 4.752-5.04 1.616 0 2.816.736 3.648 1.696l.768-.784c-1.088-1.184-2.528-1.92-4.464-1.92-3.584 0-5.984 2.416-5.984 6.048 0 3.664 2.4 6.112 5.984 6.112Zm20.141-.16-.704-11.952h-1.28l-4.624 10.032-4.64-10.032h-1.264L78.241 140h1.2l.528-9.744L84.465 140h.752l4.512-9.744.512 9.744h1.216Zm10.885 0h1.488l-4.704-6.08 4.544-5.76h-1.489l-4.111 5.264h-2.16v-5.264h-1.216V140h1.215v-5.552h2.176l4.257 5.552Zm10.811-11.84-3.648 5.952-3.68-5.952h-1.328l4.384 7.04v4.8h1.216v-4.8l4.384-7.04h-1.328Zm3.236 4.96c.48 0 .864-.4.864-.88a.87.87 0 0 0-.864-.864c-.464 0-.864.4-.864.864 0 .48.4.88.864.88Zm0 7.04c.48 0 .864-.4.864-.864a.86.86 0 0 0-.864-.864.87.87 0 0 0-.864.864c0 .464.4.864.864.864Zm10.635-.16h1.216v-11.84h-.944l-3.856 2.848.624.896 2.96-2.144V140Zm9.362 0h1.216v-2.56h1.792v-1.008h-1.792v-8.272h-.992l-6.08 8.384v.896h5.856V140Zm-4.464-3.552 4.512-6.24-.016 6.24h-4.496Zm13.088 5.872h1.168l1.296-3.616h-1.376l-1.088 3.616Zm13.345-2.16c2.528 0 4.192-2.432 4.192-6.08s-1.664-6.08-4.192-6.08c-2.512 0-4.176 2.432-4.176 6.08s1.664 6.08 4.176 6.08Zm0-1.008c-1.76 0-2.928-2.032-2.928-5.072s1.168-5.072 2.928-5.072 2.928 2.032 2.928 5.072-1.168 5.072-2.928 5.072Zm11.729-5.296c1.136-.48 1.84-1.472 1.84-2.752 0-1.856-1.408-3.104-3.52-3.104s-3.52 1.248-3.52 3.12c0 1.28.704 2.272 1.84 2.736-1.344.48-2.16 1.568-2.16 3.008 0 1.968 1.536 3.296 3.84 3.296s3.84-1.328 3.84-3.328c0-1.424-.816-2.512-2.16-2.976Zm-1.68-4.848c1.36 0 2.256.88 2.256 2.192 0 1.296-.896 2.16-2.256 2.16-1.36 0-2.256-.864-2.256-2.16 0-1.312.896-2.192 2.256-2.192Zm0 10.144c-1.552 0-2.576-.944-2.576-2.384 0-1.424 1.024-2.384 2.576-2.384s2.576.96 2.576 2.384c0 1.44-1.024 2.384-2.576 2.384Zm9.831 3.168h1.168l1.296-3.616h-1.376l-1.088 3.616Zm13.345-2.16c2.528 0 4.192-2.432 4.192-6.08s-1.664-6.08-4.192-6.08c-2.512 0-4.176 2.432-4.176 6.08s1.664 6.08 4.176 6.08Zm0-1.008c-1.76 0-2.928-2.032-2.928-5.072s1.168-5.072 2.928-5.072 2.928 2.032 2.928 5.072-1.168 5.072-2.928 5.072Zm11.522.848h1.216v-2.56h1.792v-1.008h-1.792v-8.272h-.992l-6.08 8.384v.896h5.856V140Zm-4.464-3.552 4.512-6.24-.016 6.24h-4.496Zm13.088 5.872h1.168l1.296-3.616h-1.376l-1.088 3.616Zm13.345-2.16c2.528 0 4.192-2.432 4.192-6.08s-1.664-6.08-4.192-6.08c-2.512 0-4.176 2.432-4.176 6.08s1.664 6.08 4.176 6.08Zm0-1.008c-1.76 0-2.928-2.032-2.928-5.072s1.168-5.072 2.928-5.072 2.928 2.032 2.928 5.072-1.168 5.072-2.928 5.072Z" fill="#1B1B1B"/></svg>