<svg width="832" height="680" fill="none" xmlns="http://www.w3.org/2000/svg"><path d="M78.07 38.978C63.914 40.08 59.87 50.745 59.87 63.063v45.045c0 8.457-2.942 24.269 2.574 31.623 5.332 6.987 15.995 5.148 23.717 5.148h86.597c10.112 0 20.776-1.47 24.269-13.053 1.471-5.148.735-11.583.735-16.915 0-6.435.184-13.054 0-19.673-.551-17.099-18.385-28.314-31.807-35.484-26.843-13.974-57.731-20.592-87.884-20.776-2.941 0-2.941 4.412 0 4.412 24.821.184 49.642 4.78 72.624 14.341 14.341 5.884 38.058 16.547 42.287 33.462 2.39 9.745.368 21.511.368 31.44 0 9.009-3.31 17.098-13.789 17.834-1.839.184-3.678 0-5.332 0h-72.624c-8.641 0-17.65.735-26.291 0-11.767-1.103-10.848-10.296-10.848-18.386v-44.31c0-12.134-3.677-32.91 13.79-34.197 2.573-.368 2.757-4.964-.184-4.596Z" fill="#6F8085"/><path d="M74.945 131.826V72.807c0-4.044-.735-9.009 0-12.87.184-.735-.367-2.022 0-2.574 3.31-5.331 14.157-3.125 19.122-2.574 20.959 1.839 42.103 7.355 61.04 16.548 9.009 4.412 25.74 12.134 27.579 23.35.551 3.677 0 7.721 0 11.399 0 5.699.735 11.95 0 17.466-1.103 8.274-8.09 6.067-14.709 6.067H72.739c-2.942 0-2.942 4.413 0 4.413h100.386c6.435 0 13.054.184 13.789-8.09 1.104-9.744 1.104-21.695 0-31.44-1.103-10.112-12.134-16.914-20.04-21.695-18.202-11.031-39.162-17.466-60.121-20.775-5.332-.92-10.664-1.471-15.996-1.839-4.412-.368-11.215-1.839-15.444 0-3.86 1.655-4.596 4.78-4.964 8.457-1.47 24.27 0 48.906 0 73.359.184 2.758 4.596 2.758 4.596-.183Z" fill="#6F8085"/><path d="m106.385 98.731 18.753-18.753c2.022-2.022-1.103-5.148-3.126-3.126l-18.753 18.754c-2.022 2.022 1.103 5.148 3.126 3.125ZM134.147 115.462c2.941 0 2.941-4.412 0-4.412-2.942-.184-2.942 4.412 0 4.412ZM140.582 76.852l-37.323 37.323c-2.022 2.023 1.103 5.148 3.126 3.126l37.323-37.323c2.022-2.022-1.104-5.148-3.126-3.126ZM64.281 131.826v-26.66c0-1.287-1.103-2.206-2.206-2.206-8.274 0-18.753-2.022-26.66.368-10.847 3.125-7.537 19.305-7.537 27.578 0 10.112 4.964 13.973 14.708 13.973H72.74c2.941 0 2.758-4.228 0-4.412-5.148-.736-7.906-3.493-8.458-8.641-.367-2.758-4.78-2.758-4.412 0 .735 7.538 5.332 12.134 12.87 12.87v-4.413H50.492c-7.722 0-18.202 1.655-18.202-9.377 0-7.722-3.125-20.959 6.987-23.533 6.802-1.655 15.811 0 22.798 0l-2.206-2.207v26.66c0 2.941 4.412 2.941 4.412 0Z" fill="#6F8085"/><path d="M62.075 129.619H40.747l2.207 2.207v-10.664c0-2.942-4.413-2.942-4.413 0v10.664c0 1.287 1.103 2.206 2.206 2.206h21.328c2.941 0 2.941-4.413 0-4.413ZM96.824 107.373c2.942 0 2.942-4.413 0-4.413-2.941 0-2.941 4.413 0 4.413Z" fill="#6F8085"/><path fill-rule="evenodd" clip-rule="evenodd" d="m245.757 106.453-8.274-8.273 4.045-8.274 4.229-4.229h-4.229v-4.044l4.229-4.23 28.866-4.044h-12.319l28.866-8.274h33.094l37.323 8.274-12.319 4.045-4.228-4.045-20.592-4.045h-33.094v8.274l16.547 4.045h41.367l16.548-4.045h29.049l16.547 8.273v4.045h4.045l4.045 8.274v4.045l-4.045 4.044h4.045v4.045h-16.18c.552-1.838.92-3.861.92-5.883 0-10.112-8.274-18.386-18.386-18.386s-18.386 8.274-18.386 18.386c0 2.022.368 4.045.92 5.883h-73.543c.551-1.838.919-3.861.919-5.883 0-10.112-8.273-18.386-18.386-18.386-10.112 0-18.385 8.274-18.385 18.386 0 1.655.184 3.309.551 4.78l-13.789-2.758ZM386.04 90.458c7.906 0 14.157 6.435 14.157 14.157 0 3.861-1.655 7.538-4.229 10.112h15.26v4.045h-169.7v-4.045h26.292c-2.574-2.574-4.229-6.067-4.229-10.112 0-7.906 6.435-14.157 14.157-14.157 7.906 0 14.157 6.435 14.157 14.157 0 3.861-1.655 7.538-4.229 10.112h88.252c-2.574-2.574-4.229-6.067-4.229-10.112 0-7.906 6.435-14.157 14.341-14.157Zm5.883 14.157c0 3.309-2.574 5.883-5.883 5.883-3.31 0-5.884-2.574-5.884-5.883h4.045c0 .919.736 1.838 1.839 1.838.919 0 1.838-.735 1.838-1.838h4.045Zm-5.883-10.112c5.516 0 10.112 4.412 10.112 10.112 0 5.515-4.596 10.112-10.112 10.112s-10.112-4.413-10.112-10.112c0-5.516 4.412-10.112 10.112-10.112Zm-102.408 10.112c0 3.309-2.574 5.883-5.884 5.883-3.309 0-5.883-2.574-5.883-5.883h4.045c0 .919.735 1.838 1.838 1.838.919 0 1.839-.735 1.839-1.838h4.045Zm-5.884-10.112c5.516 0 10.112 4.412 10.112 10.112 0 5.515-4.412 10.112-10.112 10.112-5.516 0-10.112-4.413-10.112-10.112 0-5.516 4.596-10.112 10.112-10.112Zm-29.969 8.089 7.539 1.655c.183-12.135 10.112-22.063 22.43-22.063 12.319 0 22.431 10.112 22.431 22.431v1.838h63.43v-1.838c0-12.319 10.112-22.43 22.431-22.43 12.318 0 22.43 10.111 22.43 22.43v1.838h1.104l5.883-5.883v-1.471l-2.574-5.148h-5.7v-5.7l-13.421-6.618h-27.579l-16.547 4.044h-42.287l-20.224-4.964V70.601l-8.274 2.206.368 4.045-31.44 4.413-.183.184h8.273l-10.664 10.663-2.574 4.965 5.148 5.515Z" fill="#6F8085"/><path d="M312.313 16.18h-4.596v4.596h4.596v-4.597ZM275.542 142.305h-4.597v4.597h4.597v-4.597ZM275.725 41.184c4.229 0 7.722-3.493 7.722-7.722 0-4.229-3.493-7.722-7.722-7.722-4.229 0-7.906 3.31-7.906 7.722 0 4.229 3.494 7.722 7.906 7.722Zm0-11.583c2.206 0 3.861 1.839 3.861 3.861 0 2.022-1.838 3.861-3.861 3.861-2.022 0-3.861-1.839-3.861-3.861 0-2.206 1.655-3.861 3.861-3.861ZM389.901 24.27l-5.516-3.126-3.125-5.516c-.552-.92-1.655-1.287-2.574-.736-.368.184-.552.368-.736.736l-3.125 5.516-5.516 3.125c-.919.552-1.287 1.655-.735 2.574.183.368.367.552.735.736l5.516 3.125 3.125 5.516c.552.92 1.655 1.287 2.574.735.368-.184.552-.367.736-.735l3.125-5.516 5.516-3.125c.919-.552 1.287-1.655.735-2.574-.183-.368-.367-.736-.735-.736Zm-7.906 3.309c-.368.183-.551.367-.735.735l-1.655 2.942-1.655-2.942c-.184-.368-.367-.552-.735-.735l-2.942-1.655 2.942-1.655c.368-.184.551-.367.735-.735l1.655-2.942 1.655 2.942c.184.367.367.551.735.735l2.942 1.655-2.942 1.655ZM329.044 141.754l-3.125-5.516c-.552-.919-1.655-1.287-2.574-.735-.368.184-.552.368-.736.735l-3.125 5.516-5.516 3.126c-.919.551-1.287 1.654-.735 2.574.184.367.367.551.735.735l5.516 3.126 3.125 5.515c.552.92 1.655 1.287 2.574.736.368-.184.552-.368.736-.736l3.125-5.515 5.516-3.126c.919-.552 1.287-1.655.736-2.574-.184-.368-.368-.552-.736-.735l-5.516-3.126Zm-2.39 6.435c-.367.184-.551.368-.735.735l-1.655 2.942-1.655-2.942c-.183-.367-.367-.551-.735-.735l-2.942-1.655 2.942-1.654c.368-.184.552-.368.735-.736l1.655-2.942 1.655 2.942c.184.368.368.552.735.736l2.942 1.654-2.942 1.655ZM342.465 43.758l-5.515-3.126-3.126-5.515c-.551-.92-1.655-1.287-2.574-.736-.368.184-.551.368-.735.736l-3.126 5.515-5.516 3.126c-.919.551-1.287 1.655-.735 2.574.184.368.368.551.735.735l5.516 3.126 3.126 5.516c.551.919 1.654 1.287 2.574.735.367-.184.551-.368.735-.735l3.126-5.516 5.515-3.126c.92-.551 1.287-1.654.736-2.574-.184-.367-.552-.551-.736-.735Zm-8.089 3.31c-.368.183-.552.367-.736.735l-1.654 2.942-1.655-2.942c-.184-.368-.368-.552-.736-.736l-2.941-1.654 2.941-1.655c.368-.184.552-.368.736-.736l1.655-2.941 1.654 2.941c.184.368.368.552.736.736l2.941 1.655-2.941 1.654ZM369.492 169.332c5.332 0 9.745-4.412 9.745-9.744s-4.413-9.744-9.745-9.744c-5.331 0-9.744 4.412-9.744 9.744s4.229 9.744 9.744 9.744Zm0-15.627c3.31 0 5.884 2.574 5.884 5.883s-2.758 5.883-5.884 5.883c-3.125 0-5.883-2.574-5.883-5.883s2.574-5.883 5.883-5.883Z" fill="#6F8085"/><g clip-path="url(#a)" fill="#6F8085"><path d="M547.003 59.594c.712-.712.712-1.709 0-2.421l-19.514-19.515c-.285-.285-.428-.712-.428-1.14 0-.427.143-.854.428-1.139l4.558-4.558c.427-.427.57-1.14.427-1.852-.285-.57-.855-1.14-1.424-1.14l-76.634-7.121c-.855-.143-1.852.57-1.852 1.567-.142.997.57 1.851 1.567 1.851l72.788 6.552-1.852 1.852c-.997.997-1.567 2.28-1.567 3.704 0 1.424.57 2.706 1.567 3.703l19.515 19.515c.712.855 1.709.712 2.421.142Z"/><path d="M518.514 49.908c-.142-.57-.427-.997-.997-1.282l-27.776-13.96c-.142 0-.285-.142-.427-.142l-34.756-6.837c-.855-.142-1.852.427-1.994 1.425-.143.997.427 1.851 1.424 1.994l33.759 6.695 8.689 23.218a22.523 22.523 0 0 1-7.407 1.282h-34.756c-.997 0-1.709.712-1.709 1.709 0 .997.712 1.71 1.709 1.71h34.756c2.991 0 5.84-.57 8.689-1.568l8.831 23.646c.285.854-.142 2.279-1.424 2.279-21.794 1.71-29.343 15.668-35.326 26.921-4.416 8.12-7.834 14.672-15.526 14.672-.997 0-1.709.712-1.709 1.709 0 .997.712 1.71 1.709 1.71 9.686 0 13.959-7.977 18.517-16.381 5.983-10.968 12.678-23.503 32.62-25.07 3.988-.285 5.412-4.416 4.415-6.98l-8.831-23.645c9.401-3.989 16.666-11.253 17.093-11.68.427-.285.57-.855.427-1.425Zm-18.802 9.971-7.549-19.942 21.651 10.826c-2.707 2.279-7.977 6.41-14.102 9.116ZM593.867 46.062l-32.905-11.11c-.997-.285-1.851.285-2.136 1.14l-11.253 33.046c-2.849 8.689 2.279 16.38 7.834 18.945l-3.134 9.543h-17.662c-.997 0-1.71.712-1.71 1.71 0 .997.713 1.709 1.71 1.709h5.27v10.398h-2.706c-.997 0-1.71.712-1.71 1.71 0 .997.713 1.709 1.71 1.709h25.924l-9.116 18.375c-.428.854-.143 1.852.712 2.279.855.427 1.852.142 2.279-.712l9.829-19.8c.569.143 1.139.712 1.139 1.425l3.276 19.372c-3.561 3.418-8.831 3.418-8.974 3.418-.997 0-1.709.855-1.709 1.71 0 .997.712 1.709 1.709 1.709.285 0 5.271 0 9.544-2.991l2.137 12.535c.427 2.564 2.564 4.415 5.128 4.415h2.279v4.843c0 .997.712 1.71 1.709 1.71.997 0 1.709-.713 1.709-1.71v-4.843h.997c3.134 0 5.698-2.849 5.128-6.125l-5.982-35.61h4.985c.997 0 1.71-.712 1.71-1.709 0-.998-.713-1.71-1.71-1.71h-5.27v-3.418h5.27c.997 0 1.71-.713 1.71-1.71s-.713-1.709-1.71-1.709h-19.087v-5.27c0-.998-.712-1.71-1.709-1.71h-6.125l1.994-5.982c1.282.285 2.421.427 3.703.427 6.553 0 12.678-4.13 14.814-10.683l11.111-32.904c.57-1.14.142-2.137-.712-2.422Zm-40.169 65.381H543.3v-10.398h3.418v5.128c0 .997.712 1.709 1.71 1.709.997 0 1.709-.712 1.709-1.709v-5.271h3.418l.143 10.541Zm16.808-3.561h11.111v5.555l6.267 37.605c.142.997-.57 1.994-1.709 1.994h-6.838c-.854 0-1.566-.569-1.709-1.424l-5.982-35.896a4.883 4.883 0 0 0-3.134-3.845l1.994-3.989Zm-2.849-6.98v4.844l-2.849 5.555h-7.549v-10.399h10.398Zm-11.68-3.418 2.706-8.262 3.419 1.14-2.422 7.122h-3.703Zm24.642-17.378a12.11 12.11 0 0 1-15.383 7.692l-6.553-2.28c-6.125-1.851-9.828-8.83-7.691-15.383l8.261-24.643 29.628 9.972-8.262 24.642Zm9.402-27.919-29.628-9.97 1.139-3.277 29.628 9.971-1.139 3.276ZM509.113 111.016c-12.392 0-22.648 10.113-22.648 22.648 0 12.393 10.113 22.648 22.648 22.648 12.393 0 22.648-10.113 22.648-22.648s-10.113-22.648-22.648-22.648Zm0 41.735c-10.541 0-19.087-8.546-19.087-19.087s8.546-19.087 19.087-19.087 19.087 8.546 19.087 19.087c.143 10.541-8.546 19.087-19.087 19.087Z"/><path d="m516.378 128.821 3.846-3.846c.712-.712.712-1.709 0-2.421-.712-.713-1.71-.713-2.422 0l-3.846 3.845c-.854-.569-1.994-.997-2.991-1.282v-5.412c0-.997-.712-1.71-1.709-1.71-.997 0-1.71.713-1.71 1.71v5.412c-1.139.285-2.136.713-2.991 1.282l-3.846-3.845c-.712-.713-1.709-.713-2.421 0-.713.712-.713 1.709 0 2.421l3.846 3.846c-.57.855-.998 1.994-1.282 2.991h-5.413c-.997 0-1.71.712-1.71 1.71 0 .997.713 1.709 1.71 1.709h5.413c.284 1.139.712 2.136 1.282 2.991l-3.846 3.846c-.713.712-.713 1.709 0 2.422.712.712 1.709.712 2.421 0l3.846-3.846c.855.569 1.994.997 2.991 1.282v5.555c0 .997.713 1.709 1.71 1.709s1.709-.712 1.709-1.709v-5.413c1.14-.285 2.137-.712 2.991-1.282l3.846 3.846c.712.712 1.71.712 2.422 0 .712-.712.712-1.709 0-2.421l-3.846-3.846c.57-.855.997-1.995 1.282-2.992h5.413c.997 0 1.709-.712 1.709-1.709 0-.997-.712-1.709-1.709-1.709h-5.413c-.143-1.14-.712-2.137-1.282-3.134Zm-7.265 9.971c-2.849 0-5.27-2.279-5.27-5.27 0-2.849 2.279-5.271 5.27-5.271 2.849 0 5.271 2.279 5.271 5.271 0 2.991-2.279 5.27-5.271 5.27ZM488.316 72.841c.997 0 1.709-.712 1.709-1.71 0-.996-.712-1.708-1.709-1.708h-13.959c-.997 0-1.71.712-1.71 1.709 0 .997.713 1.71 1.71 1.71h13.959Z"/><path d="M547.43 131.955h-1.709c-.143-4.274-1.14-8.547-2.849-12.535-.427-.855-1.424-1.282-2.279-.997-.855.427-1.282 1.424-.997 2.279a37.135 37.135 0 0 1 2.564 11.11h-3.561c-.855-15.526-13.817-27.776-29.486-27.776-15.668 0-28.488 12.25-29.485 27.776h-3.561c.285-3.988 1.139-7.692 2.564-11.395 3.988-9.259 12.392-16.523 22.078-18.802 10.114-2.422 20.512-.285 28.489 5.982.712.57 1.851.427 2.421-.285.57-.712.427-1.851-.285-2.421-8.831-6.838-20.369-9.259-31.479-6.553-10.826 2.564-20.085 10.399-24.5 20.939-1.995 4.701-2.849 9.686-2.849 14.672 0 2.706-2.422 4.985-5.271 4.985h-13.674c-.997 0-1.709.713-1.709 1.71s.712 1.709 1.709 1.709h13.817c4.273 0 7.834-2.991 8.546-6.98h3.704c.854 15.527 13.817 27.777 29.485 27.777 15.669 0 28.489-12.25 29.486-27.777h9.116c.997 0 1.567-.712 1.567-1.709 0-.997-.997-1.709-1.852-1.709Zm-38.317 27.776c-14.386 0-26.067-11.68-26.067-26.067s11.681-26.067 26.067-26.067c14.387 0 26.067 11.68 26.067 26.067s-11.68 26.067-26.067 26.067Z"/></g><path d="m785.164 42.287-26.843-.735c-3.125 0-6.251.184-9.56.735l-7.354 1.471c-.368-1.47-1.655-2.39-3.126-2.574h-2.758c-1.471 0-2.942.92-3.309 2.39l-35.485-.92c-.367-.735-.919-1.47-1.838-1.838-1.839-.551-2.942-1.654-3.31-2.941-.551-1.471-.919-5.7 4.964-14.157.736-.92.736-2.207 0-3.31-.735-.92-1.838-1.47-2.941-1.287-4.413.736-8.458 3.493-11.583 7.538-3.126 4.045-4.964 9.01-5.148 13.973l-.552 18.202a2.904 2.904 0 0 0 2.942 2.942h.735v1.839c-.919 0-2.022.551-2.758 1.103-.919.735-1.287 1.838-1.287 2.941l-.183 5.516a4.99 4.99 0 0 0 1.103 3.126c.735.919 1.838 1.287 2.941 1.287l13.422.367h.184c1.103 0 2.206-.367 2.942-1.103l.183-.184c.736-.735 1.104-1.838 1.104-2.941l.183-5.516a4.99 4.99 0 0 0-1.103-3.126c-.735-.919-1.838-1.287-2.941-1.287h-.736V61.96h.552c.735 0 1.654-.368 2.206-.92.552-.551.735-1.286.735-2.022v-2.206l35.669.92c.184.55.367 1.102.735 1.47.552.735 1.471 1.103 2.39 1.103h2.758c.919 0 1.655-.368 2.39-.92l.184-.183c.368-.368.552-.735.736-1.287l7.354 1.839a40.814 40.814 0 0 0 9.377 1.103l26.843.735c2.574 0 5.148-.92 6.986-2.758l.368-.367c1.655-1.839 2.574-4.045 2.758-6.62 0-4.963-4.413-9.56-9.929-9.56Zm-.367 16.18-26.843-.736c-2.942 0-5.884-.368-8.642-1.103l-7.905-2.022.183-7.539 7.906-1.654c2.942-.552 5.884-.736 8.825-.736l26.843.736c1.655 0 3.31.735 4.413 2.022 1.103 1.287 1.839 2.942 1.839 4.597 0 1.654-.736 3.309-2.023 4.412-1.287 1.471-2.942 2.023-4.596 2.023Zm-49.274-1.287.368-12.503h2.39l-.368 12.503h-2.39Zm-3.125-10.296-.184 7.722-35.485-.92.184-7.722 35.485.92Zm-49.09 16.914V61.96l6.251.184v1.838l-6.251-.184Zm11.031 10.113c0 .183-.184.367-.184.551-.184.184-.367.184-.551.184l-13.422-.368c-.184 0-.368-.184-.551-.184-.184-.183-.184-.367-.184-.551l.184-5.516c0-.184.183-.368.183-.551.184-.184.368-.184.552-.184l13.422.367c.551 0 .919.368.919.92l-.368 5.332Zm-6.067-34.933c.735 2.39 2.574 4.045 5.148 5.148l-.368 14.708-13.238-.367.368-17.835c.184-8.09 5.7-15.811 12.686-17.834-2.574 4.045-6.251 11.032-4.596 16.18Z" fill="#6F8085"/><path fill-rule="evenodd" clip-rule="evenodd" d="M627.782 131.09v-12.502h4.229l4.045-4.045-8.274-4.045 4.229-4.229h12.318l-12.318-4.228v-8.274l20.592-12.318h74.462l28.866 16.547h-12.319l-16.547-12.319H669.15l-12.318 8.274 12.318 4.045 4.229-8.274v8.274l28.865 4.229V89.722h4.229l4.045 12.503h57.915l29.049 4.228 4.045 4.229h-4.045l8.274 8.274h4.229v4.228l-4.229 4.045 4.229 8.274-8.458 8.089h-7.17c.367-1.654.735-3.493.735-5.148 0-10.847-8.825-19.672-19.673-19.672-10.847 0-19.672 8.825-19.672 19.672 0 1.839.184 3.494.735 5.148h-72.807c.367-1.654.735-3.493.735-5.148 0-10.847-8.825-19.672-19.672-19.672-10.848 0-19.673 8.825-19.673 19.672 0 1.839.184 3.494.735 5.148h-5.515l-12.503-12.502Zm147.637-8.273c8.642 0 15.628 6.986 15.628 15.627 0 4.597-1.838 8.642-4.964 11.4h15.444v4.228H632.011v-4.228h22.247c-3.126-2.758-4.964-6.987-4.964-11.4 0-8.641 6.986-15.627 15.627-15.627 8.642 0 15.628 6.986 15.628 15.627 0 4.597-1.838 8.642-4.964 11.4h89.722c-3.125-2.758-4.964-6.987-4.964-11.4-.368-8.641 6.435-15.627 15.076-15.627Zm7.355 15.444c0 4.044-3.31 7.354-7.355 7.354-4.044 0-7.354-3.31-7.354-7.354h4.229c0 1.654 1.471 3.125 3.125 3.125 1.655 0 3.126-1.471 3.126-3.125h4.229Zm-7.355-11.4c6.252 0 11.4 5.148 11.4 11.4 0 6.251-5.148 11.399-11.4 11.399h-.183c-6.252 0-11.4-5.148-11.4-11.399.184-6.252 5.332-11.4 11.583-11.4Zm-103.511 11.4c0 4.044-3.31 7.354-7.354 7.354-4.045 0-7.355-3.31-7.355-7.354h4.229c0 1.654 1.471 3.125 3.126 3.125 1.654 0 3.125-1.471 3.125-3.125h4.229Zm-7.17-11.4c6.251 0 11.399 5.148 11.399 11.4 0 6.251-5.148 11.399-11.399 11.399h-.184c-6.251 0-11.399-5.148-11.399-11.399 0-6.252 5.148-11.4 11.583-11.4Zm-32.727 2.574 8.825 8.826c0-13.054 10.664-23.902 23.902-23.902a23.854 23.854 0 0 1 23.901 23.902v1.103h63.247v-1.103c0-13.054 10.663-23.902 23.901-23.902 13.054 0 23.902 10.664 23.902 23.902v1.103h.551l4.964-4.964-4.228-8.274 3.309-3.309-13.422-13.422-22.43-3.126H707.76l-1.103-3.493v4.045l-34.565-4.964-.552 1.103-23.901-7.906 14.341-9.56h-7.906l-18.018 10.663V99.1l33.829 11.215h-32.91l6.067 2.942-9.376 9.377h-1.655v6.802Z" fill="#6F8085"/><path d="M701.693 5.148h-4.596v4.596h4.596V5.148ZM664.922 131.274h-4.597v4.596h4.597v-4.596ZM665.106 30.152c4.229 0 7.722-3.493 7.722-7.722 0-4.228-3.493-7.721-7.722-7.721-4.229 0-7.722 3.493-7.722 7.721-.184 4.23 3.309 7.723 7.722 7.723Zm0-11.582c2.206 0 3.861 1.838 3.861 3.86 0 2.023-1.839 3.861-3.861 3.861-2.023 0-3.861-1.838-3.861-3.86 0-2.207 1.655-3.861 3.861-3.861ZM779.281 13.238l-5.516-3.126-3.125-5.516c-.552-.919-1.655-1.287-2.574-.735-.368.184-.552.368-.736.735l-3.125 5.516-5.516 3.126c-.919.551-1.287 1.654-.736 2.574.184.367.368.551.736.735l5.516 3.126 3.125 5.515c.552.92 1.655 1.287 2.574.736.368-.184.552-.368.736-.736l3.125-5.515 5.516-3.126c.919-.552 1.287-1.655.735-2.574-.184-.368-.367-.735-.735-.735Zm-7.906 3.31c-.368.183-.552.367-.735.735l-1.655 2.941-1.655-2.942c-.184-.367-.551-.551-.735-.735l-2.942-1.655 2.942-1.654c.367-.184.551-.368.735-.736l1.655-2.941 1.655 2.941c.183.368.367.552.735.736l2.942 1.654-2.942 1.655ZM711.07 165.655l-3.126-5.515c-.551-.92-1.654-1.287-2.574-.736-.367.184-.551.368-.735.736l-3.126 5.515-5.515 3.126c-.92.551-1.287 1.655-.736 2.574.184.368.368.551.736.735l5.515 3.126 3.126 5.516c.551.919 1.655 1.287 2.574.735.368-.184.551-.368.735-.735l3.126-5.516 5.516-3.126c.919-.551 1.287-1.654.735-2.574-.184-.367-.368-.551-.735-.735l-5.516-3.126Zm-2.39 6.435c-.368.184-.552.368-.736.736l-1.654 2.941-1.655-2.941c-.184-.368-.368-.552-.736-.736l-2.941-1.654 2.941-1.655c.368-.184.552-.368.736-.736l1.655-2.941 1.654 2.941c.184.368.368.552.736.736l2.941 1.655-2.941 1.654ZM737.361 23.534l-5.516-3.126-3.125-5.516c-.552-.919-1.655-1.287-2.574-.735-.368.184-.552.368-.736.736l-3.125 5.515-5.516 3.126c-.919.551-1.287 1.655-.735 2.574.183.367.367.551.735.735l5.516 3.126 3.125 5.515c.552.92 1.655 1.288 2.574.736.368-.184.552-.368.736-.736l3.125-5.515 5.516-3.126c.919-.551 1.287-1.654.735-2.574-.183-.367-.551-.551-.735-.735Zm-8.09 3.31c-.367.183-.551.367-.735.735l-1.655 2.941-1.655-2.941c-.183-.368-.367-.552-.735-.736l-2.942-1.654 2.942-1.655c.368-.184.552-.368.735-.736l1.655-2.941 1.655 2.941c.184.368.368.552.735.736l2.942 1.655-2.942 1.654ZM769.905 182.202c5.331 0 9.744-4.412 9.744-9.744s-4.413-9.744-9.744-9.744c-5.332 0-9.745 4.412-9.745 9.744s4.229 9.744 9.745 9.744Zm0-15.627c3.309 0 5.883 2.574 5.883 5.883s-2.758 5.883-5.883 5.883c-3.126 0-5.884-2.574-5.884-5.883s2.574-5.883 5.884-5.883Z" fill="#6F8085"/><g clip-path="url(#b)" fill="#6F8085"><path d="M50.193 295.292c0 11.583 4.597 22.615 12.687 30.888 8.09 8.274 19.304 12.687 30.887 12.687 23.902 0 43.575-19.673 43.575-43.575 0-.919-.736-1.654-1.655-1.654s-1.655.735-1.655 1.654c0 22.063-18.202 40.265-40.265 40.265-10.847 0-20.96-4.229-28.497-11.767-7.538-7.722-11.767-17.834-11.767-28.498 0-22.062 18.202-40.264 40.264-40.264.92 0 1.655-.736 1.655-1.655s-.551-1.839-1.654-1.839c-23.902 0-43.575 19.673-43.575 43.758Z"/><path d="M75.75 276.171h4.044c.184 0 .368 0 .368.184s.184.184 0 .368l-4.413 35.668c0 .184 0 .184-.183.368-.184.184-.184.184-.368.184h-3.861c-.368 0-.552-.184-.552-.552l3.861-30.704c0-.184 0-.368-.183-.184l-4.597 1.103h-.184c-.184 0-.368-.184-.368-.551l.184-2.942c0-.368.184-.552.368-.552l5.148-2.39h.736ZM82 311.104c-1.47-1.471-2.206-3.493-2.206-5.883 0-.368 0-.92.184-1.655l2.206-18.202c.368-2.942 1.47-5.332 3.31-7.17 1.838-1.839 4.228-2.758 6.986-2.758 2.574 0 4.413.735 5.883 2.206 1.471 1.471 2.207 3.493 2.207 5.884 0 .367 0 .919-.184 1.654l-2.206 18.202c-.368 2.942-1.471 5.332-3.31 7.17-1.838 1.839-4.229 2.758-6.986 2.758-2.39 0-4.413-.735-5.884-2.206Zm9.745-3.493c.919-.92 1.47-2.207 1.654-3.677l2.207-18.938v-.919c0-1.287-.368-2.206-.92-2.942-.735-.735-1.47-1.103-2.758-1.103-1.287 0-2.39.552-3.309 1.471-.92.919-1.47 2.206-1.655 3.677l-2.39 18.754v.919c0 1.287.368 2.39.92 3.125.735.736 1.47 1.104 2.757 1.104 1.471 0 2.574-.552 3.494-1.471ZM120.611 294.925l-.368 2.758c0 .367-.184.551-.551.551h-7.171c-.184 0-.184 0-.184.184l-.919 7.354c0 .184 0 .184-.184.368s-.184.184-.368.184h-2.757c-.368 0-.552-.184-.368-.552l.919-7.354c0-.184 0-.184-.184-.184h-7.17c-.184 0-.368 0-.368-.184s-.184-.184 0-.367l.368-2.758c0-.368.184-.552.551-.552h7.171c.184 0 .184 0 .184-.184l.919-7.354c0-.368.184-.552.552-.552h2.757c.184 0 .368 0 .368.184s.184.184 0 .368l-.919 7.354v.184h7.354c.368 0 .552.184.368.552ZM23.534 380.051c-.368-1.471-.551-3.126-.551-4.781 0-10.112 8.273-18.385 18.385-18.385 7.722 0 14.341 4.78 17.099 11.583.368-1.655 1.287-3.31 2.39-4.597-3.86-6.619-11.031-11.031-19.305-11.031-12.318 0-22.247 9.928-22.43 22.063l-7.539-1.655-5.331-5.332 2.574-4.964 10.663-10.664h-8.641l.184-.184 31.44-4.412-.184-4.045 8.273-2.39v10.112l15.076 3.861c.368-1.471 1.103-2.758 1.839-3.861l-12.87-3.31v-8.273H87.7l20.776 4.229 4.045 4.044 12.318-4.044-37.139-8.274H54.606l-28.866 8.274H38.06l-28.866 4.228-4.045 4.045v4.045h4.045l-4.045 4.045-4.044 8.273 8.09 8.458 14.34 2.942Z"/><path d="M54.239 385.75v-.368h-3.126c2.574-2.574 4.229-6.067 4.229-10.112 0-7.906-6.435-14.157-14.157-14.157-7.906 0-14.157 6.435-14.157 14.157 0 3.861 1.654 7.538 4.228 10.112H4.965v4.045h49.641c-.184-1.103-.367-2.39-.367-3.677Zm-13.054-.368c-5.516 0-10.113-4.412-10.113-10.112 0-5.515 4.597-10.112 10.113-10.112 5.515 0 10.112 4.413 10.112 10.112 0 5.516-4.597 10.112-10.112 10.112Z"/><path d="M41.184 377.109c-.92 0-1.838-.736-1.838-1.839H35.3c0 3.31 2.574 5.884 5.883 5.884 3.31 0 5.884-2.574 5.884-5.884h-4.045c0 1.103-.92 1.839-1.839 1.839ZM182.938 368.835l-4.045-8.273h-4.229v-4.045l-16.547-8.274h-29.049l-16.547 4.045h-4.781c1.103 1.287 1.839 2.574 2.574 4.045h2.942l16.547-4.045h27.579l13.421 6.619v5.699h5.7l2.574 5.148v1.471l-5.884 5.884h-1.103v-1.839c0-12.318-10.112-22.43-22.43-22.43-11.032 0-20.225 8.089-22.063 18.569 1.471.368 2.758 1.103 3.861 2.023.919-9.377 8.641-16.548 18.202-16.548 10.112 0 18.385 8.274 18.385 18.386 0 2.023-.367 4.045-.919 5.884h16.179v-4.045h-4.044l4.044-4.045v-4.229h-.367Z"/><path d="M163.634 375.27c0-7.906-6.435-14.157-14.157-14.157-7.906 0-14.157 6.435-14.157 14.157 0 3.861 1.654 7.538 4.228 10.112h-4.78c-.551 1.471-1.287 2.942-2.39 4.045h42.287v-4.045h-15.26c2.574-2.574 4.229-6.067 4.229-10.112Zm-14.157 10.112c-5.516 0-10.112-4.412-10.112-10.112 0-5.515 4.596-10.112 10.112-10.112 5.515 0 10.112 4.413 10.112 10.112-.184 5.516-4.597 10.112-10.112 10.112Z"/><path d="M149.476 377.109c-.919 0-1.838-.736-1.838-1.839h-4.229c0 3.31 2.574 5.884 5.884 5.884 3.309 0 5.883-2.574 5.883-5.884h-4.045c0 1.103-.735 1.839-1.655 1.839ZM132.01 389.979c1.838-2.206 3.125-4.964 3.125-7.906 0-6.067-4.964-11.031-11.031-11.031 0-6.068-4.964-11.032-11.031-11.032-.736 0-1.287 0-2.023.184-.919-7.354-6.986-13.054-14.525-13.054a14.772 14.772 0 0 0-11.031 4.964c-2.022-3.125-5.332-4.964-9.193-4.964-6.067 0-11.031 4.964-11.031 11.032 0 .735.184 1.654.184 2.39-4.413 1.471-7.539 5.515-7.539 10.48 0 1.103.184 2.022.368 3.125-2.758 3.31-4.045 7.354-4.045 11.583 0 5.884 2.758 11.215 7.355 14.709 0 2.022.551 4.045 1.654 5.883-1.103 1.839-1.654 3.861-1.654 6.067a11.927 11.927 0 0 0 11.95 11.951 10.43 10.43 0 0 0 3.31-.551c2.022 2.574 5.148 4.228 8.641 4.228 4.78 0 8.825-2.941 10.296-7.354 1.47.184 2.942.184 4.413-.184a13.635 13.635 0 0 0 9.744 4.045c4.229 0 8.457-1.839 12.135-5.516l7.722-7.722c6.618-6.802 7.538-15.26 2.206-21.327ZM85.494 424.36c-2.574 0-4.964-1.287-6.251-3.677-.552-.735-1.471-1.103-2.39-.735-1.103.367-2.207.735-3.31.735a8.24 8.24 0 0 1-8.273-8.274c0-1.838.551-3.493 1.654-4.964.552-.735.552-1.654 0-2.206-1.103-1.287-1.654-2.942-1.654-4.596v-.736c0-.735-.184-1.287-.736-1.655-4.228-2.757-6.619-7.354-6.619-12.318 0-3.677 1.471-7.17 3.861-9.928.552-.552.552-1.287.368-2.023a7.374 7.374 0 0 1-.551-2.758c0-3.677 2.757-6.802 6.618-7.354.552 0 1.104-.368 1.471-.919.368-.552.368-1.103 0-1.655-.367-.919-.735-2.022-.735-2.942 0-4.044 3.31-7.354 7.354-7.354 3.31 0 6.251 2.206 6.987 5.516.184.735.735 1.287 1.654 1.287.736 0 1.471-.368 1.839-.919 1.839-3.678 5.7-5.884 9.744-5.884 6.068 0 11.032 4.964 11.032 11.032V362.768c0 .552.184 1.287.735 1.655.552.367 1.287.367 1.839.184.919-.368 2.022-.552 2.942-.552 4.044 0 7.354 3.309 7.354 7.354 0 .552 0 1.103-.184 1.655s0 1.287.552 1.655c.367.367 1.103.551 1.654.551.552-.184 1.103-.184 1.655-.184 4.045 0 7.354 3.31 7.354 7.355 0 1.838-.735 3.861-2.022 5.332L104.615 362.4c-2.574-2.574-6.619-2.574-9.009 0-.735.736-1.287 1.471-1.47 2.39l-3.678-3.677c-2.574-2.574-6.619-2.574-9.193 0-.735.736-1.287 1.471-1.47 2.39-2.575-2.39-6.436-2.206-8.826.184-2.39 2.39-2.574 6.435-.184 8.825-.919.368-1.654.92-2.39 1.471-1.287 1.287-1.838 2.758-1.838 4.597 0 1.654.735 3.309 1.838 4.596l11.4 11.399c-.92.368-1.655.736-2.39 1.471-2.575 2.574-2.575 6.619 0 9.193l12.318 12.318c.735.736 1.654 1.471 2.758 2.023-1.287 2.758-3.861 4.78-6.987 4.78Zm41.919-15.812-7.905 7.722c-4.229 4.229-10.296 6.252-15.444 2.574l1.287-1.287c.367-.367.551-.919.551-1.287 0-.367-.184-.919-.551-1.287-.736-.735-1.839-.735-2.574 0-2.942 2.942-7.539 2.942-10.48 0l-12.319-12.318c-1.103-1.103-1.103-2.758 0-3.861 1.103-1.103 2.758-1.103 3.861 0l8.458 8.457c.735.736 1.838.736 2.574 0 .735-.735.735-1.838 0-2.574l-8.458-8.457-15.628-15.628c-.551-.551-.735-1.287-.735-2.022 0-.736.368-1.471.735-2.023 1.104-1.103 2.942-1.103 3.861 0l17.467 17.467c.735.735 1.838.735 2.574 0 .735-.736.735-1.839 0-2.574l-21.328-21.328c-1.103-1.103-1.103-2.758 0-3.861 1.104-1.103 2.758-1.103 3.861 0l3.861 3.861 17.467 17.467c.735.735 1.838.735 2.574 0 .735-.736.735-1.839 0-2.574l-17.65-17.651c-1.104-1.103-.92-2.757 0-3.861 1.103-1.103 2.757-1.103 3.86 0l7.723 7.722 9.744 9.745c.735.735 1.839.735 2.574 0 .735-.736.735-1.839 0-2.574l-9.745-9.745c-1.103-1.103-.919-2.757 0-3.861 1.104-1.103 2.758-1.103 3.862 0l27.21 26.844c5.332 5.331 3.126 12.318-1.287 16.914ZM136.423 258.153h-4.597v4.597h4.597v-4.597ZM38.978 408.181h-4.596v4.596h4.596v-4.596ZM39.162 307.059c4.228 0 7.722-3.493 7.722-7.722 0-4.228-3.494-7.722-7.722-7.722-4.229 0-7.906 3.494-7.906 7.722 0 4.229 3.493 7.722 7.906 7.722Zm0-11.583c2.206 0 3.86 1.839 3.86 3.861 0 2.207-1.838 3.861-3.86 3.861-2.023 0-3.861-1.838-3.861-3.861 0-2.206 1.654-3.861 3.86-3.861ZM162.53 293.822l-5.516-3.126-3.125-5.516c-.552-.919-1.655-1.287-2.574-.735-.368.184-.552.368-.736.735l-3.125 5.516-5.516 3.126c-.919.551-1.287 1.654-.735 2.574.183.367.367.551.735.735l5.516 3.126 3.125 5.515c.552.92 1.655 1.287 2.574.736.368-.184.552-.368.736-.736l3.125-5.515 5.516-3.126c.919-.551 1.287-1.655.735-2.574-.183-.368-.367-.551-.735-.735Zm-7.906 3.309c-.368.184-.552.368-.735.736l-1.655 2.941-1.655-2.941c-.184-.368-.367-.552-.735-.736l-2.942-1.655 2.942-1.654c.368-.184.551-.368.735-.736l1.655-2.941 1.655 2.941c.183.368.367.552.735.736l2.942 1.654-2.942 1.655ZM154.992 400.275l-3.126-5.516c-.551-.919-1.655-1.287-2.574-.735-.368.183-.551.367-.735.735l-3.126 5.516-5.516 3.125c-.919.552-1.287 1.655-.735 2.574.184.368.368.552.735.736l5.516 3.125 3.126 5.516c.551.919 1.654 1.287 2.574.735.367-.183.551-.367.735-.735l3.126-5.516 5.515-3.125c.92-.552 1.287-1.655.736-2.574-.184-.368-.368-.552-.736-.736l-5.515-3.125Zm-2.39 6.435c-.368.184-.552.367-.736.735l-1.655 2.942-1.654-2.942c-.184-.368-.368-.551-.736-.735l-2.941-1.655 2.941-1.655c.368-.184.552-.367.736-.735l1.654-2.942 1.655 2.942c.184.368.368.551.736.735l2.941 1.655-2.941 1.655ZM41.552 263.669l-5.515-3.126-3.126-5.515c-.552-.919-1.655-1.287-2.574-.736-.368.184-.552.368-.735.736l-3.126 5.515-5.516 3.126c-.919.552-1.287 1.655-.735 2.574.184.368.368.552.735.735l5.516 3.126 3.126 5.516c.551.919 1.654 1.287 2.574.735.367-.184.551-.368.735-.735l3.126-5.516 5.515-3.126c.92-.551 1.287-1.654.736-2.574-.184-.367-.552-.551-.736-.735Zm-8.09 3.309c-.367.184-.55.368-.735.736l-1.654 2.942-1.655-2.942c-.184-.368-.368-.552-.736-.736l-2.941-1.654 2.941-1.655c.368-.184.552-.368.736-.735l1.655-2.942 1.654 2.942c.184.367.368.551.736.735l2.941 1.655-2.941 1.654ZM20.777 420.499c5.331 0 9.744-4.412 9.744-9.744s-4.413-9.745-9.744-9.745c-5.332 0-9.745 4.413-9.745 9.745 0 5.332 4.229 9.744 9.745 9.744Zm0-15.628c3.31 0 5.883 2.574 5.883 5.884 0 3.309-2.574 5.883-5.883 5.883-3.31 0-5.884-2.574-5.884-5.883 0-3.31 2.574-5.884 5.884-5.884Z"/></g><g clip-path="url(#c)" fill="#6F8085"><path d="M266.051 295.292c0 11.583 4.596 22.615 12.686 30.888 8.09 8.274 19.305 12.687 30.888 12.687 23.901 0 43.574-19.673 43.574-43.575 0-.919-.735-1.654-1.655-1.654-.919 0-1.654.735-1.654 1.654 0 22.063-18.202 40.265-40.265 40.265-10.848 0-20.96-4.229-28.498-11.767-7.538-7.722-11.767-17.834-11.767-28.498 0-22.062 18.202-40.264 40.265-40.264.919 0 1.655-.736 1.655-1.655s-.552-1.839-1.655-1.839c-23.902 0-43.574 19.673-43.574 43.758Z"/><path d="M299.513 280.4h-11.767v.184l-1.287 11.399c0 .184 0 .184.184.184h6.986c.368 0 .552.184.368.551l-.368 3.31c0 .184 0 .184-.184.367-.183.184-.183.184-.367.184h-6.987c-.184 0-.184 0-.184.184l-1.287 11.399v.184H296.203c.368 0 .552.184.552.552l-.368 3.309c0 .368-.184.552-.551.552H279.84c-.184 0-.184 0-.368-.184 0-.184-.184-.184 0-.368l4.413-35.668c0-.184.184-.184.184-.368.184-.184.184-.184.367-.184h15.996c.368 0 .552.184.368.552l-.368 3.309c-.368.368-.552.552-.919.552ZM301.535 311.104c-1.47-1.471-2.206-3.309-2.206-5.883 0-.368 0-.736.184-1.471l2.39-18.57c.368-2.942 1.471-5.148 3.31-6.803 1.838-1.654 4.228-2.574 6.986-2.574 2.574 0 4.413.736 5.884 2.023 1.47 1.287 2.206 3.309 2.206 5.699 0 .368 0 .92-.184 1.655l-.184.919c0 .368-.184.552-.551.552l-3.861.184c-.368 0-.552-.184-.368-.552l.184-1.287v-.919c0-1.103-.368-2.206-1.103-2.942-.736-.735-1.655-1.103-2.758-1.103-1.287 0-2.39.368-3.31 1.287-.919.919-1.471 2.023-1.654 3.493l-2.391 19.305v.92c0 1.103.368 2.206.92 2.941.735.736 1.654 1.104 2.758 1.104 1.287 0 2.39-.368 3.309-1.287.919-.92 1.471-2.023 1.655-3.494l.184-1.287c0-.367.183-.551.551-.551l3.861.184c.368 0 .552.183.368.551v.736c-.368 2.941-1.471 5.148-3.31 6.986-1.838 1.655-4.228 2.574-6.986 2.574-2.39-.184-4.413-.919-5.884-2.39ZM322.863 311.104c-1.471-1.471-2.207-3.309-2.207-5.883 0-.368 0-.92.184-1.655l2.206-18.386c.368-2.942 1.471-5.332 3.494-6.986 1.838-1.839 4.228-2.574 7.17-2.574 2.574 0 4.597.735 6.067 2.206 1.471 1.471 2.207 3.493 2.207 5.883 0 .368 0 .736-.184 1.471l-2.206 18.386c-.368 2.942-1.471 5.148-3.494 6.986-2.022 1.839-4.228 2.574-7.17 2.574-2.574.184-4.597-.551-6.067-2.022Zm9.928-3.677c.919-.919 1.471-2.206 1.655-3.677l2.39-18.754v-.919c0-1.287-.368-2.206-1.103-3.126-.736-.735-1.655-1.103-2.942-1.103-1.287 0-2.39.552-3.31 1.471-.919.919-1.47 2.206-1.654 3.677l-2.39 18.754v.919c0 1.287.367 2.206 1.103 2.942.735.735 1.654 1.103 2.758 1.103 1.47.184 2.574-.184 3.493-1.287ZM239.391 380.051c-.367-1.471-.551-3.126-.551-4.781 0-10.112 8.273-18.385 18.386-18.385 7.722 0 14.34 4.78 17.098 11.583.368-1.655 1.287-3.31 2.39-4.597-3.861-6.619-11.031-11.031-19.305-11.031-12.318 0-22.246 9.928-22.43 22.063l-7.538-1.655-5.332-5.332 2.574-4.964 10.664-10.664h-8.642l.184-.184 31.44-4.412-.184-4.045 8.273-2.39v10.112l15.077 3.861c.367-1.471 1.103-2.758 1.838-3.861l-12.87-3.31v-8.273h33.095l20.775 4.229 4.045 4.044 12.319-4.044-37.139-8.274h-33.095l-28.865 8.274h12.318l-28.865 4.228-4.045 4.045v4.045h4.045l-4.045 4.045-4.045 8.273 8.09 8.458 14.34 2.942Z"/><path d="M270.096 385.75v-.368h-3.126c2.574-2.574 4.229-6.067 4.229-10.112 0-7.906-6.435-14.157-14.157-14.157-7.906 0-14.157 6.435-14.157 14.157 0 3.861 1.655 7.538 4.229 10.112h-26.292v4.045h49.642c-.184-1.103-.368-2.39-.368-3.677Zm-13.054-.368c-5.516 0-10.112-4.412-10.112-10.112 0-5.515 4.596-10.112 10.112-10.112s10.112 4.413 10.112 10.112c0 5.516-4.596 10.112-10.112 10.112Z"/><path d="M257.042 377.109c-.92 0-1.839-.736-1.839-1.839h-4.045c0 3.31 2.574 5.884 5.884 5.884 3.309 0 5.883-2.574 5.883-5.884h-4.045c0 1.103-.919 1.839-1.838 1.839ZM398.795 368.835l-4.045-8.273h-4.228v-4.045l-16.548-8.274h-29.049l-16.547 4.045h-4.78c1.103 1.287 1.838 2.574 2.574 4.045h2.941l16.548-4.045h27.578l13.422 6.619v5.699h5.699l2.574 5.148v1.471l-5.883 5.884h-1.103v-1.839c0-12.318-10.113-22.43-22.431-22.43-11.031 0-20.224 8.089-22.063 18.569 1.471.368 2.758 1.103 3.861 2.023.92-9.377 8.642-16.548 18.202-16.548 10.112 0 18.386 8.274 18.386 18.386 0 2.023-.368 4.045-.92 5.884h16.18v-4.045h-4.045l4.045-4.045v-4.229h-.368Z"/><path d="M379.491 375.27c0-7.906-6.435-14.157-14.157-14.157-7.906 0-14.157 6.435-14.157 14.157 0 3.861 1.655 7.538 4.229 10.112h-4.781c-.551 1.471-1.287 2.942-2.39 4.045h42.287v-4.045h-15.26c2.574-2.574 4.229-6.067 4.229-10.112Zm-14.157 10.112c-5.516 0-10.112-4.412-10.112-10.112 0-5.515 4.596-10.112 10.112-10.112s10.112 4.413 10.112 10.112c-.184 5.516-4.596 10.112-10.112 10.112Z"/><path d="M365.334 377.109c-.919 0-1.839-.736-1.839-1.839h-4.228c0 3.31 2.574 5.884 5.883 5.884s5.883-2.574 5.883-5.884h-4.044c0 1.103-.736 1.839-1.655 1.839ZM347.867 389.979c1.839-2.206 3.126-4.964 3.126-7.906 0-6.067-4.964-11.031-11.032-11.031 0-6.068-4.964-11.032-11.031-11.032-.735 0-1.287 0-2.022.184-.92-7.354-6.987-13.054-14.525-13.054a14.773 14.773 0 0 0-11.032 4.964c-2.022-3.125-5.331-4.964-9.192-4.964-6.068 0-11.032 4.964-11.032 11.032 0 .735.184 1.654.184 2.39-4.413 1.471-7.538 5.515-7.538 10.48 0 1.103.184 2.022.368 3.125-2.758 3.31-4.045 7.354-4.045 11.583 0 5.884 2.758 11.215 7.354 14.709 0 2.022.552 4.045 1.655 5.883-1.103 1.839-1.655 3.861-1.655 6.067a11.927 11.927 0 0 0 11.951 11.951c1.103 0 2.206-.184 3.309-.551 2.023 2.574 5.148 4.228 8.641 4.228 4.781 0 8.826-2.941 10.296-7.354 1.471.184 2.942.184 4.413-.184a13.637 13.637 0 0 0 9.744 4.045c4.229 0 8.458-1.839 12.135-5.516l7.722-7.722c6.619-6.802 7.538-15.26 2.206-21.327Zm-46.516 34.381c-2.574 0-4.964-1.287-6.251-3.677-.551-.735-1.471-1.103-2.39-.735-1.103.367-2.206.735-3.309.735a8.24 8.24 0 0 1-8.274-8.274 8.07 8.07 0 0 1 1.655-4.964c.551-.735.551-1.654 0-2.206-1.103-1.287-1.655-2.942-1.655-4.596v-.736c0-.735-.184-1.287-.735-1.655-4.229-2.757-6.619-7.354-6.619-12.318 0-3.677 1.471-7.17 3.861-9.928.551-.552.551-1.287.368-2.023a7.37 7.37 0 0 1-.552-2.758c0-3.677 2.758-6.802 6.619-7.354.551 0 1.103-.368 1.471-.919.367-.552.367-1.103 0-1.655-.368-.919-.736-2.022-.736-2.942 0-4.044 3.31-7.354 7.355-7.354 3.309 0 6.251 2.206 6.986 5.516.184.735.736 1.287 1.655 1.287.735 0 1.471-.368 1.838-.919 1.839-3.678 5.7-5.884 9.745-5.884 6.067 0 11.031 4.964 11.031 11.032V362.768c0 .552.184 1.287.736 1.655.551.367 1.287.367 1.838.184.92-.368 2.023-.552 2.942-.552 4.045 0 7.354 3.309 7.354 7.354 0 .552 0 1.103-.184 1.655-.183.552 0 1.287.552 1.655.368.367 1.103.551 1.655.551.551-.184 1.103-.184 1.654-.184 4.045 0 7.355 3.31 7.355 7.355 0 1.838-.736 3.861-2.023 5.332l-24.82-25.373c-2.574-2.574-6.619-2.574-9.009 0-.736.736-1.287 1.471-1.471 2.39l-3.677-3.677c-2.574-2.574-6.619-2.574-9.193 0-.736.736-1.287 1.471-1.471 2.39-2.574-2.39-6.435-2.206-8.825.184-2.39 2.39-2.574 6.435-.184 8.825-.919.368-1.655.92-2.39 1.471-1.287 1.287-1.839 2.758-1.839 4.597 0 1.654.736 3.309 1.839 4.596l11.399 11.399c-.919.368-1.655.736-2.39 1.471-2.574 2.574-2.574 6.619 0 9.193l12.318 12.318c.736.736 1.655 1.471 2.758 2.023-1.287 2.758-3.861 4.78-6.987 4.78Zm41.92-15.812-7.906 7.722c-4.229 4.229-10.296 6.252-15.444 2.574l1.287-1.287c.368-.367.552-.919.552-1.287 0-.367-.184-.919-.552-1.287-.735-.735-1.839-.735-2.574 0-2.942 2.942-7.538 2.942-10.48 0l-12.318-12.318c-1.103-1.103-1.103-2.758 0-3.861 1.103-1.103 2.758-1.103 3.861 0l8.457 8.457c.736.736 1.839.736 2.574 0 .736-.735.736-1.838 0-2.574l-8.457-8.457-15.628-15.628c-.552-.551-.736-1.287-.736-2.022 0-.736.368-1.471.736-2.023 1.103-1.103 2.942-1.103 3.861 0l17.466 17.467c.736.735 1.839.735 2.574 0 .736-.736.736-1.839 0-2.574l-21.327-21.328c-1.103-1.103-1.103-2.758 0-3.861 1.103-1.103 2.758-1.103 3.861 0l3.861 3.861 17.466 17.467c.736.735 1.839.735 2.574 0 .736-.736.736-1.839 0-2.574l-17.65-17.651c-1.103-1.103-.919-2.757 0-3.861 1.103-1.103 2.758-1.103 3.861 0l7.722 7.722 9.744 9.745c.736.735 1.839.735 2.574 0 .736-.736.736-1.839 0-2.574l-9.744-9.745c-1.103-1.103-.919-2.757 0-3.861 1.103-1.103 2.758-1.103 3.861 0l27.211 26.844c5.332 5.331 3.125 12.318-1.287 16.914ZM352.28 258.153h-4.596v4.597h4.596v-4.597ZM254.836 408.181h-4.597v4.596h4.597v-4.596ZM255.019 307.059c4.229 0 7.722-3.493 7.722-7.722 0-4.228-3.493-7.722-7.722-7.722-4.229 0-7.906 3.494-7.906 7.722 0 4.229 3.494 7.722 7.906 7.722Zm0-11.583c2.206 0 3.861 1.839 3.861 3.861 0 2.207-1.838 3.861-3.861 3.861-2.022 0-3.861-1.838-3.861-3.861 0-2.206 1.655-3.861 3.861-3.861ZM378.387 293.822l-5.515-3.126-3.126-5.516c-.552-.919-1.655-1.287-2.574-.735-.368.184-.551.368-.735.735l-3.126 5.516-5.516 3.126c-.919.551-1.287 1.654-.735 2.574.184.367.368.551.735.735l5.516 3.126 3.126 5.515c.551.92 1.654 1.287 2.574.736.367-.184.551-.368.735-.736l3.126-5.515 5.515-3.126c.92-.551 1.287-1.655.736-2.574-.184-.368-.368-.551-.736-.735Zm-7.906 3.309c-.367.184-.551.368-.735.736l-1.655 2.941-1.654-2.941c-.184-.368-.368-.552-.736-.736l-2.941-1.655 2.941-1.654c.368-.184.552-.368.736-.736l1.654-2.941 1.655 2.941c.184.368.368.552.735.736l2.942 1.654-2.942 1.655ZM370.849 400.275l-3.125-5.516c-.552-.919-1.655-1.287-2.574-.735-.368.183-.552.367-.736.735l-3.125 5.516-5.516 3.125c-.919.552-1.287 1.655-.736 2.574.184.368.368.552.736.736l5.516 3.125 3.125 5.516c.552.919 1.655 1.287 2.574.735.368-.183.552-.367.736-.735l3.125-5.516 5.516-3.125c.919-.552 1.287-1.655.735-2.574-.184-.368-.367-.552-.735-.736l-5.516-3.125Zm-2.39 6.435c-.368.184-.552.367-.735.735l-1.655 2.942-1.655-2.942c-.184-.368-.368-.551-.735-.735l-2.942-1.655 2.942-1.655c.367-.184.551-.367.735-.735l1.655-2.942 1.655 2.942c.183.368.367.551.735.735l2.942 1.655-2.942 1.655ZM257.41 263.669l-5.516-3.126-3.125-5.515c-.552-.919-1.655-1.287-2.574-.736-.368.184-.552.368-.736.736l-3.125 5.515-5.516 3.126c-.919.552-1.287 1.655-.736 2.574.184.368.368.552.736.735l5.516 3.126 3.125 5.516c.552.919 1.655 1.287 2.574.735.368-.184.552-.368.736-.735l3.125-5.516 5.516-3.126c.919-.551 1.287-1.654.735-2.574-.184-.367-.551-.551-.735-.735Zm-8.09 3.309c-.368.184-.551.368-.735.736l-1.655 2.942-1.655-2.942c-.184-.368-.367-.552-.735-.736l-2.942-1.654 2.942-1.655c.368-.184.551-.368.735-.735l1.655-2.942 1.655 2.942c.184.367.367.551.735.735l2.942 1.655-2.942 1.654ZM236.634 420.499c5.332 0 9.744-4.412 9.744-9.744s-4.412-9.745-9.744-9.745-9.744 4.413-9.744 9.745c0 5.332 4.228 9.744 9.744 9.744Zm0-15.628c3.31 0 5.883 2.574 5.883 5.884 0 3.309-2.573 5.883-5.883 5.883-3.309 0-5.883-2.574-5.883-5.883 0-3.31 2.574-5.884 5.883-5.884Z"/></g><path fill-rule="evenodd" clip-rule="evenodd" d="M432.633 396.965v-12.502h4.229l4.044-4.045-8.273-4.045 4.229-4.229h12.318l-12.318-4.228v-8.274l20.592-12.318h74.462l28.865 16.547h-12.318l-16.547-12.319h-57.915l-12.319 8.274 12.319 4.045 4.228-8.274v8.274l28.866 4.229v-12.503h4.229l4.044 12.503h57.915l29.05 4.228 4.045 4.229h-4.045l8.273 8.274h4.229v4.228l-4.229 4.045 4.229 8.274-8.457 8.089h-7.171c.368-1.654.736-3.493.736-5.148 0-10.847-8.825-19.672-19.673-19.672-10.848 0-19.673 8.825-19.673 19.672 0 1.839.184 3.494.736 5.148h-72.808c.368-1.654.736-3.493.736-5.148 0-10.847-8.825-19.672-19.673-19.672-10.847 0-19.673 8.825-19.673 19.672 0 1.839.184 3.494.736 5.148h-5.516l-12.502-12.502Zm147.637-8.273c8.641 0 15.628 6.986 15.628 15.627 0 4.597-1.839 8.642-4.964 11.4h15.444v4.228H436.862v-4.228h22.246c-3.125-2.758-4.964-6.987-4.964-11.4 0-8.641 6.987-15.627 15.628-15.627s15.628 6.986 15.628 15.627c0 4.597-1.839 8.642-4.964 11.4h89.722c-3.126-2.758-4.964-6.987-4.964-11.4-.368-8.641 6.435-15.627 15.076-15.627Zm7.354 15.627c0 4.045-3.309 7.355-7.354 7.355s-7.354-3.31-7.354-7.355h4.228c0 1.655 1.471 3.126 3.126 3.126 1.655 0 3.126-1.471 3.126-3.126h4.228Zm-7.354-11.583c6.251 0 11.399 5.148 11.399 11.4 0 6.251-5.148 11.399-11.399 11.399h-.184c-6.251 0-11.399-5.148-11.399-11.399.184-6.252 5.332-11.4 11.583-11.4Zm-103.511 11.583c0 4.045-3.31 7.355-7.355 7.355s-7.354-3.31-7.354-7.355h4.229c0 1.655 1.471 3.126 3.125 3.126 1.655 0 3.126-1.471 3.126-3.126h4.229Zm-7.171-11.583c6.251 0 11.399 5.148 11.399 11.4 0 6.251-5.148 11.399-11.399 11.399h-.184c-6.251 0-11.399-5.148-11.399-11.399 0-6.252 5.148-11.4 11.583-11.4Zm-32.726 2.574 8.825 8.826c0-13.054 10.663-23.902 23.901-23.902a23.854 23.854 0 0 1 23.902 23.902v1.103h63.246v-1.103c0-13.054 10.664-23.902 23.902-23.902 13.054 0 23.901 10.664 23.901 23.902v1.103h.552l4.964-4.964-4.229-8.274 3.31-3.309-13.422-13.422-22.431-3.126h-60.672l-1.103-3.493v4.229l-34.566-4.964-.551 1.103-23.902-7.906 14.341-9.561h-7.906l-18.018 10.664v2.942l33.83 11.215h-32.91l6.067 2.942-9.377 9.377h-1.654v6.618Z" fill="#6F8085"/><path d="M544.234 259.808c-5.148 0-9.929 1.655-14.157 4.964-2.207 1.655-4.045 3.677-5.7 6.067l-.735.736-.552-.736c-1.655-2.39-3.677-4.412-5.699-6.067-4.229-3.309-9.009-4.964-14.157-4.964-7.171 0-13.606 2.758-18.202 7.906-4.597 4.964-7.171 11.95-7.171 19.305 0 7.722 2.942 14.708 9.009 22.246 5.516 6.803 13.606 13.606 22.982 21.512l.184.184c3.126 2.757 6.803 5.699 10.48 9.009 1.655 1.47 4.597 1.47 6.251 0 3.677-3.31 7.355-6.435 10.664-9.193 9.377-7.906 17.466-14.893 22.982-21.512 6.251-7.538 9.009-14.524 9.009-22.246 0-7.538-2.574-14.341-7.17-19.305-4.597-5.148-11.032-7.906-18.018-7.906Zm13.054 46.883c-5.332 6.435-13.238 13.238-22.431 20.96-3.309 2.758-6.987 5.884-10.664 9.193l-.551.368-.368-.368c-3.677-3.309-7.354-6.251-10.48-9.009h-.184c-9.193-7.906-17.098-14.709-22.614-21.144-5.7-6.802-8.09-12.87-8.09-19.672 0-6.435 2.206-12.319 6.067-16.547 3.861-4.229 9.193-6.619 15.077-6.619 4.228 0 8.273 1.287 11.767 4.045 3.125 2.39 5.148 5.331 6.435 7.538.551.919 1.47 1.287 2.39 1.287.919 0 1.838-.552 2.39-1.287 1.287-2.023 3.309-5.148 6.435-7.538 3.493-2.758 7.354-4.045 11.767-4.045 5.883 0 11.215 2.39 15.076 6.619 3.861 4.228 6.067 10.112 6.067 16.547 0 6.802-2.574 12.87-8.089 19.672ZM484.113 317.355h-4.596v4.597h4.596v-4.597ZM447.526 342.36c4.228 0 7.722-3.494 7.722-7.722 0-4.229-3.494-7.722-7.722-7.722-4.229 0-7.722 3.493-7.722 7.722 0 4.228 3.493 7.722 7.722 7.722Zm0-11.767c2.206 0 3.861 1.838 3.861 3.861 0 2.022-1.839 3.861-3.861 3.861-2.023 0-3.861-1.839-3.861-3.861 0-2.206 1.654-3.861 3.861-3.861ZM611.341 319.745l-5.515-3.125-3.126-5.516c-.551-.919-1.655-1.287-2.574-.735-.368.183-.551.367-.735.735l-3.126 5.516-5.516 3.125c-.919.552-1.287 1.655-.735 2.574.184.368.368.552.735.736l5.516 3.125 3.126 5.516c.551.919 1.654 1.287 2.574.735.367-.183.551-.367.735-.735l3.126-5.516 5.515-3.125c.92-.552 1.287-1.655.736-2.574 0-.368-.368-.552-.736-.736Zm-7.905 3.31c-.368.184-.552.367-.736.735l-1.655 2.942-1.654-2.942c-.184-.368-.368-.551-.736-.735l-2.941-1.655 2.941-1.655c.368-.184.552-.367.736-.735l1.654-2.942 1.655 2.942c.184.368.368.551.736.735l2.941 1.655-2.941 1.655ZM563.907 339.234l-5.516-3.126-3.125-5.515c-.552-.92-1.655-1.287-2.574-.736-.368.184-.552.368-.736.736l-3.125 5.515-5.516 3.126c-.919.552-1.287 1.655-.736 2.574.184.368.368.552.736.735l5.516 3.126 3.125 5.516c.552.919 1.655 1.287 2.574.735.368-.184.552-.368.736-.735l3.125-5.516 5.516-3.126c.919-.551 1.287-1.654.735-2.574-.184-.367-.367-.551-.735-.735Zm-7.906 3.309c-.368.184-.552.368-.735.736l-1.655 2.942-1.655-2.942c-.184-.368-.368-.552-.735-.736l-2.942-1.654 2.942-1.655c.367-.184.551-.368.735-.735l1.655-2.942 1.655 2.942c.183.367.367.551.735.735l2.942 1.655-2.942 1.654Z" fill="#6F8085"/><path fill-rule="evenodd" clip-rule="evenodd" d="M648.49 355.046v-12.502h4.229l4.045-4.045-8.274-4.229 4.229-4.229h12.318l-12.318-4.228v-8.09l20.592-12.318h74.462l28.866 16.547H764.32l-16.547-12.319h-57.915l-12.318 8.09 12.318 4.045 4.229-8.274v8.274l28.865 4.229v-12.503h4.229l4.045 12.503h57.915l29.049 4.228 4.045 4.045h-4.045l8.274 8.274h4.229v4.228l-4.413 4.045 4.229 8.274-8.274 8.273h-7.17c.367-1.654.735-3.493.735-5.148 0-10.847-8.825-19.672-19.673-19.672-10.847 0-19.672 8.825-19.672 19.672 0 1.839.184 3.494.735 5.148h-72.807c.368-1.654.735-3.493.735-5.148 0-10.847-8.825-19.672-19.672-19.672-10.848 0-19.673 8.825-19.673 19.672 0 1.839.184 3.494.735 5.148h-5.515l-12.503-12.318Zm147.637-8.457c8.642 0 15.628 6.986 15.628 15.627 0 4.597-1.838 8.642-4.964 11.4h15.444v4.228H652.719v-4.228h22.247c-3.126-2.758-4.964-6.987-4.964-11.4 0-8.641 6.986-15.627 15.627-15.627 8.642 0 15.628 6.986 15.628 15.627 0 4.597-1.838 8.642-4.964 11.4h89.722c-3.125-2.758-4.964-6.987-4.964-11.4-.368-8.641 6.435-15.627 15.076-15.627Zm7.355 15.627c0 4.045-3.31 7.355-7.355 7.355-4.044 0-7.354-3.31-7.354-7.355h4.229c0 1.655 1.471 3.126 3.125 3.126 1.655 0 3.126-1.471 3.126-3.126h4.229Zm-7.355-11.399c6.252 0 11.4 5.148 11.4 11.399 0 6.252-5.148 11.4-11.4 11.4h-.183c-6.252 0-11.4-5.148-11.4-11.4.184-6.251 5.332-11.399 11.583-11.399Zm-103.511 11.399c0 4.045-3.309 7.355-7.354 7.355s-7.355-3.31-7.355-7.355h4.229c0 1.655 1.471 3.126 3.126 3.126 1.654 0 3.125-1.471 3.125-3.126h4.229Zm-7.17-11.399c6.251 0 11.399 5.148 11.399 11.399 0 6.252-5.148 11.4-11.399 11.4h-.184c-6.251 0-11.399-5.148-11.399-11.4 0-6.251 5.148-11.399 11.583-11.399Zm-32.727 2.39 8.825 8.826c0-13.054 10.664-23.902 23.902-23.902a23.854 23.854 0 0 1 23.901 23.902v1.103h63.247v-1.103c0-13.054 10.663-23.902 23.901-23.902 13.054 0 23.902 10.664 23.902 23.902v1.103h.551l4.964-4.964-4.228-8.274 3.309-3.309-13.422-13.422-22.43-3.126h-60.673l-1.103-3.493v4.045l-34.565-4.964-.919 1.287-23.902-7.906 14.341-9.561h-7.906l-17.65 10.664v2.942l33.83 11.215h-32.911l6.067 2.942-9.376 9.377h-1.655v6.618Z" fill="#6F8085"/><path d="M802.93 267.898h-4.596v4.596h4.596v-4.596ZM663.383 300.257c4.229 0 7.722-3.494 7.722-7.722 0-4.229-3.309-7.906-7.722-7.906-4.412 0-7.722 3.493-7.722 7.722 0 4.412 3.493 7.906 7.722 7.906Zm0-11.767c2.206 0 3.861 1.838 3.861 3.861 0 2.022-1.838 3.861-3.861 3.861-2.022 0-3.861-1.839-3.861-3.861 0-2.023 1.655-3.861 3.861-3.861ZM827.199 314.413l-5.516-3.125-3.125-5.516c-.552-.919-1.655-1.287-2.574-.735-.368.184-.552.367-.736.735l-3.125 5.516-5.516 3.125c-.919.552-1.287 1.655-.736 2.574.184.368.368.552.736.736l5.516 3.125 3.125 5.516c.552.919 1.655 1.287 2.574.736.368-.184.552-.368.736-.736l3.125-5.516 5.516-3.125c.919-.552 1.287-1.655.735-2.574 0-.184-.367-.552-.735-.736Zm-7.906 3.31c-.368.184-.552.368-.735.735l-1.655 2.942-1.655-2.942c-.184-.367-.368-.551-.735-.735l-2.942-1.655 2.942-1.655c.367-.183.551-.367.735-.735l1.655-2.942 1.655 2.942c.183.368.367.552.735.735l2.942 1.655-2.942 1.655ZM687.836 271.391l-5.516-3.126-3.126-5.515c-.551-.92-1.654-1.287-2.574-.736-.367.184-.551.368-.735.736l-3.126 5.515-5.515 3.126c-.92.552-1.287 1.655-.736 2.574.184.368.368.552.736.735l5.515 3.126 3.126 5.516c.551.919 1.655 1.287 2.574.735.368-.184.551-.368.735-.735l3.126-5.516 5.516-3.126c.919-.551 1.287-1.654.735-2.574-.184-.183-.368-.551-.735-.735Zm-7.906 3.309c-.368.184-.552.368-.736.736l-1.654 2.942-1.655-2.942c-.184-.368-.368-.552-.736-.736l-2.941-1.654 2.941-1.655c.368-.184.552-.368.736-.735l1.655-2.942 1.654 2.942c.184.367.368.551.736.735l2.941 1.655-2.941 1.654ZM813.962 396.23l7.538 7.538h-164l7.538-7.538c.735-.735.735-1.839 0-2.574-.736-.735-1.839-.735-2.574 0l-10.296 10.48c-.368.368-.552.919-.552 1.287 0 .551.184.919.552 1.287l10.48 10.48c.735.735 1.838.735 2.574 0 .735-.736.735-1.839 0-2.574l-7.539-7.538H821.5l-7.538 7.538c-.735.735-.735 1.838 0 2.574.735.735 1.839.735 2.574 0l10.48-10.48c.368-.368.551-.919.551-1.287 0-.552-.183-.919-.551-1.287l-10.48-10.48c-.735-.735-1.839-.735-2.574 0-.735.735-.735 1.839 0 2.574ZM97.996 569.809c-2.757-6.803-10.663-10.113-17.466-7.171-6.803 2.758-10.112 10.664-7.17 17.467a12.52 12.52 0 0 0 7.17 7.17 14.21 14.21 0 0 0 10.296 0 12.521 12.521 0 0 0 7.17-7.17 14.21 14.21 0 0 0 0-10.296Zm-8.825 13.789c-2.206.919-4.596.919-6.803.184-.183 0-.183 0-.367-.184a9.367 9.367 0 0 1-4.964-4.964c-.92-2.207-.92-4.781 0-7.171A9.367 9.367 0 0 1 82 566.499c2.206-.919 4.78-.919 7.17 0a9.367 9.367 0 0 1 4.964 4.964c2.023 4.781-.184 10.112-4.964 12.135Z" fill="#6F8085"/><path d="M147.086 604.741c-1.655-3.861-6.067-5.883-10.112-4.228-1.103.367-2.023 1.103-2.758 2.022l-.368.368-8.089-3.31.183-.735c2.391-7.354 2.391-15.076 0-22.431l-.183-.735 4.412-1.839.368.552c2.942 3.861 8.09 5.332 12.502 3.493 5.332-2.206 7.906-8.457 5.7-13.789-2.207-5.332-8.458-7.906-13.79-5.7-4.412 1.839-6.986 6.435-6.435 11.216v.551l-4.412 1.839-.368-.736a36.488 36.488 0 0 0-15.812-15.811l-.735-.368 3.309-8.09h.552c1.103 0 2.39-.184 3.309-.551 3.861-1.655 5.884-6.068 4.229-10.112-1.655-3.861-6.067-5.884-10.112-4.229-3.861 1.655-5.883 6.067-4.229 10.112.368 1.103 1.103 2.022 2.023 2.758l.367.368-3.309 8.089-.735-.184c-7.355-2.39-15.077-2.39-22.431 0l-.735.184-1.839-4.412.552-.368c3.86-2.942 5.331-8.09 3.493-12.502-2.206-5.332-8.458-7.906-13.79-5.7-5.331 2.206-7.905 8.458-5.699 13.789 1.839 4.413 6.435 6.987 11.215 6.435h.552l1.838 4.413-.735.368a36.49 36.49 0 0 0-15.812 15.811l-.367.736-7.355-3.31v-.551c0-1.103-.184-2.39-.551-3.31-1.655-3.861-6.068-5.883-10.112-4.228-4.045 1.654-5.884 6.067-4.23 10.112 1.656 3.861 6.068 5.883 10.113 4.229 1.103-.368 2.022-1.104 2.758-2.023l.368-.368 8.09 3.31-.185.735c-2.39 7.355-2.39 15.077 0 22.431l.184.735-4.412 1.839-.368-.552c-2.942-3.861-8.09-5.332-12.502-3.493-5.332 2.206-7.906 8.457-5.7 13.789 2.206 5.332 8.458 7.906 13.79 5.7 4.412-1.839 6.986-6.435 6.434-11.215v-.552l4.413-1.839.368.736a36.493 36.493 0 0 0 15.811 15.812l.736.367-3.493 7.722h-.552c-1.103 0-2.39.184-3.31.552-3.86 1.655-5.883 6.067-4.228 10.112 1.655 3.861 6.067 5.883 10.112 4.229 3.861-1.655 5.883-6.068 4.229-10.112-.368-1.104-1.103-2.023-2.023-2.758l-.367-.368 3.309-8.09.735.184c7.355 2.39 15.077 2.39 22.431 0l.735-.184 1.839 4.413-.552.368c-3.861 2.941-5.331 8.089-3.493 12.502 2.206 5.332 8.458 7.906 13.789 5.699 5.332-2.206 7.906-8.457 5.7-13.789-1.839-4.412-6.435-6.986-11.215-6.435h-.552l-1.838-4.412.735-.368a36.49 36.49 0 0 0 15.812-15.812l.367-.735 8.09 3.309v.552c0 1.103.184 2.39.552 3.309 1.654 3.861 6.067 5.884 10.112 4.229 3.493-1.287 5.332-5.884 3.677-9.745Zm-10.48-42.471c3.31-1.287 6.987.184 8.458 3.494 1.287 3.309-.184 6.986-3.494 8.457-1.471.552-3.125.736-4.78 0h-.184c-1.655-.735-2.758-1.838-3.493-3.493-1.471-3.31.184-7.171 3.493-8.458Zm-61.592-15.811c-1.655.735-3.31.551-4.78 0-1.655-.552-2.942-1.839-3.677-3.494-1.287-3.309.183-6.986 3.493-8.457 1.655-.735 3.31-.735 4.964 0 1.655.735 2.758 1.839 3.493 3.493.736 1.655.736 3.31 0 4.964-.735 1.655-2.022 2.942-3.493 3.494Zm-29.785 24.637c-.92.367-1.838.367-2.574 0a3.645 3.645 0 0 1-2.022-2.023c-.736-1.838.184-4.045 2.022-4.78 1.839-.736 4.045.184 4.78 2.022.368.92.368 1.839 0 2.758-.367.919-1.287 1.655-2.206 2.023Zm2.023 41.919c-1.471.552-3.126.735-4.78 0h-.184c-1.655-.735-2.758-1.839-3.494-3.493-.735-1.655-.735-3.31 0-4.964.736-1.655 1.839-2.758 3.494-3.494 1.654-.735 3.309-.735 4.964 0 1.654.736 2.757 1.839 3.493 3.494.735 1.654.735 3.309 0 4.964a5.51 5.51 0 0 1-3.493 3.493Zm61.592 15.812c1.654-.736 3.309-.552 4.964 0 1.655.735 2.758 1.838 3.493 3.493 1.287 3.309-.184 6.987-3.493 8.457-1.471.552-3.126.736-4.78 0h-.184c-1.655-.735-2.758-1.838-3.494-3.493-.735-1.655-.735-3.309 0-4.964.736-1.655 2.023-2.942 3.494-3.493Zm-.368-87.884a3.583 3.583 0 0 1 0-2.758 3.64 3.64 0 0 1 2.022-2.022c1.839-.736 4.045.184 4.781 2.022.735 1.839-.184 4.045-2.023 4.78-.919.368-1.838.368-2.574 0h-.184a3.64 3.64 0 0 1-2.022-2.022Zm-33.094 93.399c.367.92.367 1.839 0 2.758a3.642 3.642 0 0 1-2.023 2.023c-.919.367-1.838.367-2.574 0a3.642 3.642 0 0 1-2.022-2.023c-.736-1.838.184-4.045 2.022-4.78 1.655-.735 3.677.184 4.597 2.022Zm28.681-17.098c-7.538 3.125-15.811 3.309-23.533.367-.368-.183-.736-.183-.92-.367-7.905-3.31-13.973-9.377-17.282-17.283-3.31-7.906-3.31-16.547 0-24.453 3.31-7.906 9.377-13.973 17.282-17.282 7.906-3.31 16.548-3.126 24.453 0 7.906 3.309 13.974 9.376 17.283 17.282 3.309 7.906 3.309 16.547 0 24.453-3.126 7.722-9.377 13.973-17.283 17.283Zm37.323-6.251c-.919.367-1.838.367-2.574 0a3.646 3.646 0 0 1-2.022-2.023c-.735-1.838.184-4.045 2.022-4.78a3.583 3.583 0 0 1 2.758 0 3.643 3.643 0 0 1 2.023 2.022c.367.92.367 1.839 0 2.758-.552.919-1.287 1.655-2.207 2.023Z" fill="#6F8085"/><path d="M113.808 596.652c-2.022-4.964-7.906-7.355-12.87-5.332-2.39.919-4.228 2.942-5.332 5.332-.919 2.39-.919 5.148 0 7.538.92 2.39 2.942 4.229 5.332 5.332 1.287.551 2.574.735 3.861.735 1.287 0 2.574-.184 3.677-.735 2.391-.92 4.229-2.942 5.332-5.332 1.103-2.574 1.103-5.148 0-7.538Zm-6.986 8.825a5.156 5.156 0 0 1-4.045 0h-.184a5.744 5.744 0 0 1-2.942-2.942c-.551-1.287-.551-2.758 0-4.229a5.739 5.739 0 0 1 2.942-2.941c.735-.368 1.471-.368 2.022-.368.736 0 1.471.184 2.023.368a5.74 5.74 0 0 1 2.942 2.941c.551 1.287.551 2.758 0 4.229-.368 1.287-1.287 2.39-2.758 2.942Z" fill="#6F8085"/><path d="M91.929 511.894c-41.736 0-75.75 34.013-75.75 75.749 0 41.735 34.014 75.749 75.75 75.749 41.735 0 75.749-34.014 75.749-75.749 0-41.736-34.014-75.749-75.75-75.749ZM38.978 632.32c-24.637-29.049-20.96-72.807 8.09-97.444 12.502-10.664 28.314-16.364 44.86-16.364h.185c16.363 0 32.175 5.884 44.677 16.364l1.838 1.654-97.995 97.812-1.655-2.022Zm97.812 8.09c-12.502 10.663-28.314 16.363-44.861 16.363h-.184c-16.363 0-32.175-5.884-44.677-16.363l-1.839-1.655 97.812-97.812 1.655 1.839c11.95 14.157 17.65 31.991 16.179 50.376-1.471 18.386-9.928 35.301-24.085 47.252ZM341.799 564.109c0-10.664 4.045-30.888-10.48-34.014-10.848-2.39-24.269-.367-35.301-.367-9.744 0-24.636-2.574-27.762 9.928-1.471 6.067-.368 13.605-.368 19.673 0 9.009-6.802 13.973-9.56 22.246-3.677 11.032-1.103 25.556-1.103 36.955 0 10.296 1.838 19.305 14.157 19.857 12.318.552 24.82 0 37.139 0 10.296 0 20.775.919 31.071 0 16.364-1.471 12.87-20.04 12.87-31.623 0-6.068.368-12.503 0-18.57-.183-3.677-1.103-6.986-2.757-10.296-2.391-4.78-7.355-9.193-8.09-14.341-.368-2.758-4.597-1.654-4.229 1.103.919 6.435 6.987 11.216 9.193 17.283 1.655 4.596 1.287 9.009 1.287 13.605 0 9.193 1.839 20.592 0 29.601-2.39 11.951-18.57 8.642-26.475 8.642h-36.588c-7.906.183-21.143 3.125-22.982-9.377-1.471-9.928 0-21.327 0-31.44 0-5.883.735-10.479 3.861-15.811 3.126-5.332 6.619-8.825 6.803-15.077.367-10.847-3.31-27.762 12.87-27.762h37.323c6.435 0 13.053-.919 14.708 9.377 1.103 6.435 0 13.973 0 20.408 0 2.942 4.413 2.942 4.413 0Z" fill="#6F8085"/><path d="M325.803 532.118c0-7.906.92-16.18 0-24.086-1.287-10.112-13.605-7.538-20.959-7.538-7.355 0-19.489-2.574-20.96 7.538-1.103 7.722 0 16.18 0 24.086 0 1.287 1.103 2.206 2.206 2.206h37.323c2.942 0 2.942-4.413 0-4.413H286.09l2.206 2.207v-20.041c0-3.861.552-6.251 4.781-7.17 3.493-.736 8.089 0 11.767 0 6.618 0 16.547-2.39 16.547 6.619v20.592c0 2.758 4.412 2.758 4.412 0ZM366.804 657.508c-1.287 10.848-14.157 8.458-20.592 8.458H257.041c-1.655 0-3.493.367-4.964 0-9.928-1.839-8.825-8.458-8.825-14.709 0-2.39-.552-5.516 0-7.906.735-3.125 4.596-7.722 7.906-8.457 1.47-.368 6.067 1.838 7.354 2.206 3.861.736 7.906 1.103 11.767 1.287 17.466.368 34.749 0 52.215 0 7.906 0 15.996.552 23.902-.368 7.538-.919 18.569-7.17 20.408 5.516.551 4.413 0 9.377 0 13.973 0 2.942 4.412 2.942 4.412 0 0-8.273 2.942-23.35-7.538-26.659-6.435-2.022-14.525 2.574-20.96 2.942-3.309.184-6.618.184-9.928.184h-39.529c-10.112 0-21.144.919-31.256-.736-4.964-.735-10.664-4.045-15.812-2.39-5.883 1.839-7.354 6.987-7.538 12.502-.367 9.745-2.022 24.086 10.48 26.66 6.435 1.287 13.973.367 20.592.367H351.176c9.56 0 18.753-1.103 20.224-12.87.184-2.758-4.412-2.758-4.596 0Z" fill="#6F8085"/><path d="M299.512 659.898c19.305 0 40.632 2.39 59.386-2.758 2.757-.735 1.654-5.148-1.104-4.228-18.201 5.148-39.345 2.758-58.098 2.758-2.942-.368-2.942 4.228-.184 4.228ZM250.973 656.957c6.251 1.838 12.686 2.758 19.305 2.758 2.942 0 2.942-4.413 0-4.413a60.356 60.356 0 0 1-18.018-2.758c-2.941-.735-4.045 3.677-1.287 4.413ZM283.517 659.715c2.941 0 2.941-4.413 0-4.413-2.758 0-2.758 4.413 0 4.413ZM328.377 636.181v-58.65c0-2.942-4.412-2.942-4.412 0v58.65c0 2.758 4.412 2.758 4.412 0ZM281.311 566.499v59.018c0 2.942 4.412 2.942 4.412 0v-59.018c0-2.942-4.412-2.942-4.412 0Z" fill="#6F8085"/><path d="M312.933 569.808c-4.78 0-9.744.184-14.708 0-9.009-.367-15.076-5.699-19.857-13.053-4.228-6.435-11.767-19.673 2.574-22.615 3.31-.735 7.722 0 11.032 0 11.031 0 23.901-1.838 34.749 0 4.228.736-.184-2.39 6.251 4.229 5.148 5.148 4.412 6.251 1.287 12.134-4.229 8.09-11.583 18.57-21.328 19.305-2.757.184-2.941 4.597 0 4.413 13.054-.919 27.027-17.466 28.682-30.153 1.839-14.34-13.421-14.34-23.166-14.34-12.318 0-25.188-1.104-37.507 0-17.466 1.47-13.054 19.121-6.435 29.233 4.597 7.17 11.399 13.973 20.041 15.076 5.883.736 12.318.184 18.202.184 2.941.184 2.941-4.413.183-4.413Z" fill="#6F8085"/><path d="M326.539 542.23c-1.839 5.148-5.516 10.296-9.377 14.157-3.309 3.125-5.331 2.942-9.56 2.942-2.942 0-2.942 4.412 0 4.412 4.964 0 8.09 0 12.134-3.677 4.781-4.413 9.193-10.48 11.216-16.731.919-2.758-3.494-3.861-4.413-1.103ZM296.938 563.741c2.941 0 2.941-4.412 0-4.412-2.942-.184-2.942 4.412 0 4.412ZM333.71 521.454h-4.597v4.597h4.597v-4.597ZM372.504 621.84h-4.597v4.597h4.597v-4.597ZM258.512 546.459c4.229 0 7.722-3.494 7.722-7.722 0-4.229-3.493-7.722-7.722-7.722-4.229 0-7.722 3.309-7.722 7.722 0 4.228 3.493 7.722 7.722 7.722Zm0-11.583c2.206 0 3.861 1.838 3.861 3.861 0 2.022-1.839 3.861-3.861 3.861-2.022 0-3.861-1.839-3.861-3.861 0-2.207 1.839-3.861 3.861-3.861ZM372.871 529.36l-5.516-3.126-3.126-5.515c-.551-.92-1.654-1.287-2.574-.736-.367.184-.551.368-.735.736l-3.126 5.515-5.515 3.126c-.92.552-1.287 1.655-.736 2.574.184.368.368.552.736.735l5.515 3.126 3.126 5.516c.552.919 1.655 1.287 2.574.735.368-.184.552-.368.735-.735l3.126-5.516 5.516-3.126c.919-.551 1.287-1.654.735-2.574l-.735-.735Zm-8.09 3.493c-.368.184-.552.368-.735.736l-1.655 2.941-1.655-2.941c-.184-.368-.368-.552-.735-.736l-2.942-1.654 2.942-1.655c.367-.184.551-.368.735-.736l1.655-2.941 1.655 2.941c.183.368.367.552.735.736l2.942 1.655-2.942 1.654ZM238.472 610.257l-3.126-5.516c-.552-.919-1.655-1.287-2.574-.735a1.01 1.01 0 0 0-.919.552l-3.126 5.515-5.516 3.126c-.919.551-1.287 1.655-.735 2.574.184.368.368.551.735.735l5.516 3.126 3.126 5.516c.551.919 1.654 1.287 2.574.735.367-.184.551-.368.735-.735l3.126-5.516 5.515-3.126c.92-.551 1.287-1.654.736-2.574-.184-.367-.368-.551-.736-.735l-5.331-2.942Zm-2.391 6.251c-.367.184-.551.368-.735.736l-1.655 2.941-1.654-2.941c-.184-.368-.368-.552-.736-.736l-2.942-1.654 2.942-1.471c.368-.184.552-.368.736-.736l1.654-2.941 1.655 2.941c.184.368.368.552.735.736l2.942 1.654-2.942 1.471ZM271.933 508.584l-5.515-3.125-3.126-5.516c-.552-.919-1.655-1.287-2.574-.736-.368.184-.552.368-.735.736l-3.126 5.516-5.516 3.125c-.919.552-1.287 1.655-.735 2.574.184.368.368.552.735.736l5.516 3.125 3.126 5.516c.551.919 1.654 1.287 2.574.735.367-.184.551-.367.735-.735l3.126-5.516 5.515-3.125c.92-.552 1.287-1.655.736-2.574-.184-.368-.368-.552-.736-.736Zm-7.906 3.31c-.367.183-.551.367-.735.735l-1.655 2.942-1.654-2.942c-.184-.368-.368-.552-.736-.735l-2.942-1.655 2.942-1.655c.368-.184.552-.368.736-.735l1.654-2.942 1.655 2.942c.184.367.368.551.735.735l2.942 1.655-2.942 1.655ZM383.534 676.446c5.332 0 9.745-4.413 9.745-9.745 0-5.332-4.413-9.744-9.745-9.744-5.331 0-9.744 4.412-9.744 9.744s4.413 9.745 9.744 9.745Zm0-15.628c3.31 0 5.884 2.574 5.884 5.883 0 3.31-2.574 5.884-5.884 5.884-3.309 0-5.883-2.574-5.883-5.884 0-3.309 2.758-5.883 5.883-5.883ZM227.624 661.186h-4.597v4.596h4.597v-4.596Z" fill="#6F8085"/><g clip-path="url(#d)" fill="#6F8085"><path d="M580.455 650.889c.184-.551.735-.919.919-.919h3.493c3.31 0 5.884-2.574 5.884-5.883v-5.7c0-3.309-2.574-5.883-5.884-5.883h-3.493c-.184 0-.735-.368-.919-.92-.368-.919-.736-2.022-1.287-2.941-.184-.368-.184-1.103 0-1.287l2.39-2.39c2.39-2.391 2.39-6.068 0-8.274l-4.045-4.045c-1.103-1.103-2.574-1.655-4.229-1.655-1.654 0-3.125.552-4.228 1.655l-2.023 2.574s-.367.184-.735.184c-.184 0-.368 0-.552-.184-.919-.368-1.838-.919-2.941-1.287-.552-.184-.92-.735-.92-.919v-3.493c0-3.31-2.574-5.884-5.883-5.884h-5.7c-3.309 0-5.883 2.574-5.883 5.884v3.493c0 .184-.368.735-.919.919-.92.368-2.023.736-2.942 1.287-.184 0-.368.184-.552.184-.367 0-.551-.184-.735-.184l-2.39-2.39c-1.103-1.103-2.574-1.655-4.229-1.655-1.655 0-3.126.552-4.229 1.655l-4.045 4.045c-2.39 2.39-2.39 6.067 0 8.273l2.391 2.391c.183.183.367.919 0 1.287-.368.919-.92 1.838-1.287 2.941-.184.552-.736.92-.92.92h-3.493c-3.309 0-5.883 2.574-5.883 5.883v5.7c0 3.309 2.574 5.883 5.883 5.883h3.493c.184 0 .736.368.92.919.367.92.735 2.023 1.287 2.942.183.368.183 1.103 0 1.287l-2.391 2.39c-1.103 1.103-1.654 2.574-1.654 4.229 0 1.655.551 3.125 1.654 4.229l4.045 4.044c1.103 1.104 2.574 1.655 4.229 1.655 1.655 0 3.126-.551 4.229-1.655l2.39-2.39s.368-.184.735-.184c.184 0 .368 0 .552.184.919.368 1.838.92 2.942 1.287.551.184.919.736.919.92v3.493c0 3.309 2.574 5.883 5.883 5.883h5.7c3.309 0 5.883-2.574 5.883-5.883v-3.493c0-.184.368-.736.92-.92.919-.367 2.022-.735 2.941-1.287.184 0 .368-.184.552-.184.368 0 .551.184.735.184l2.39 2.39c1.104 1.104 2.574 1.655 4.229 1.655 1.655 0 3.126-.551 4.229-1.655l4.045-4.044c2.39-2.391 2.39-6.068 0-8.274l-2.39-2.39c-.184-.184-.368-.919 0-1.287.183-1.287.551-2.206.919-3.31Zm-15.812-9.56a11.535 11.535 0 0 1-11.583 11.583 11.535 11.535 0 0 1-11.583-11.583c0-6.435 5.332-11.399 11.583-11.399 6.435 0 11.583 5.148 11.583 11.399ZM456.167 601.8c-6.067 4.596-12.134 9.56-16.915 15.26-2.757 3.309-5.699 7.354-5.883 11.767-.552 11.215 14.709 12.134 22.614 11.95 7.171-.184 14.341-1.287 21.512-2.574 2.574-.551 1.471-4.412-1.103-4.045-5.516.92-11.032 1.839-16.548 2.207-5.331.367-11.031.551-16.179-.92-3.126-.919-6.067-2.757-6.067-6.067 0-3.493 2.39-6.803 4.596-9.377 4.964-5.883 11.032-10.847 17.099-15.443 1.838-1.471-1.103-4.413-3.126-2.758ZM510.405 523.844c-12.686 1.287-24.637 5.884-34.749 13.606-5.516 4.228-11.399 9.376-14.709 15.627-1.287 2.391 2.391 4.413 3.494 2.023 2.941-5.516 8.273-10.296 13.054-14.157 9.56-7.354 20.775-11.767 32.726-13.054 2.758-.184 2.758-4.229.184-4.045ZM442.194 508.4h-5.332v-5.332h5.332v5.332ZM587.625 527.521h-5.332v-5.332h5.332v5.332ZM486.504 666.149h-5.332v-5.331h5.332v5.331ZM465.912 528.625h-5.332v-5.332h5.332v5.332ZM555.45 554.916c-1.654 1.287-3.309 2.574-5.148 3.861.552 0 1.104-.184 1.655-.184-3.493-.735-7.17-1.103-10.48-2.206-1.838-.552-4.045-1.839-5.883-1.287-1.287.184-2.39.551-3.677.919-.92.184-2.39.368-3.126.736-.368.183 1.287.367.552 0-.552-.368-1.287-.368-1.839-.552l-3.309-1.103a22.284 22.284 0 0 0 1.287 3.125c1.287-2.574 2.574-4.964 3.677-7.538-.552.368-1.103.736-1.839 1.103h4.045c1.471 0 3.126.184 4.413-.367 2.39-.92 4.78-2.023 7.354-3.126 1.103-.368 1.287-2.022.735-2.758-.551-1.103-1.838-1.103-2.757-.735-1.104.551-2.207.919-3.31 1.471-.735.367-1.655.735-2.39 1.103-.368.184-1.103.368-1.471.551.184-.183 1.287-.183.736-.183H527.504c-.735 0-1.471.367-1.838 1.103-1.287 2.574-2.574 4.964-3.678 7.538-.551 1.287 0 2.574 1.287 3.125 1.287.368 2.391.736 3.678 1.287 1.103.368 2.022.736 3.125.552 1.471-.368 2.942-.735 4.229-1.103l2.206-.552c.184 0 .368 0 .552-.184.551-.367-.92 0-.736 0 .184.184 1.287.368 1.655.552.919.368 1.655.552 2.574.919.735.184 1.287.368 2.022.552 2.758.551 5.516 1.103 8.458 1.655 1.471.183 2.206-.552 3.309-1.287 1.103-.92 2.39-1.839 3.493-2.758.92-.736 1.287-1.839.736-2.758-.919-1.655-2.206-2.206-3.126-1.471ZM498.455 547.01c1.103.736 2.206 1.655 3.309 2.206.919.368 2.023.552 2.942.736 2.942.551 5.883.919 8.641 1.471-.551-.92-.919-1.655-1.471-2.574-.551 1.838-1.287 3.677-1.838 5.515l1.471-1.47c-2.207.735-5.7 1.103-6.987 3.125-1.839 2.574-3.677 5.7-5.148 8.458-.552 1.103 0-.184.368-.184-.184 0-1.103.551-1.287.735-1.655.919-3.31 2.023-4.781 2.942-.735.368-1.47.919-2.022 1.287-.184.184-1.287.735-.735.551.551-.183-.368 0-.552 0-.735 0-1.471.184-2.206.368-3.31.552-6.803.919-10.112 1.471-.92.184-1.471 1.103-1.471 2.022 0 1.839-.552 4.413 0 6.068.551 1.838 2.941 3.309 4.228 4.596-.183-.551-.367-.919-.551-1.471v7.538c1.103-.551 2.022-1.103 3.125-1.838-3.677-2.574-7.538-4.964-11.215-7.538.368.367.552.735.919 1.287-.919-2.758-1.838-5.332-2.573-8.09-.92-2.574-4.781-1.471-4.045 1.103.735 2.023 1.287 4.045 2.022 6.067.184.736.368 1.839.919 2.391.552.735 1.471 1.287 2.207 1.654 3.309 2.207 6.435 4.413 9.744 6.435 1.287.92 3.126-.367 3.126-1.838 0-2.39.183-4.964 0-7.355-.184-2.206-2.942-3.861-4.413-5.331.184.551.368.919.552 1.47v-5.515c-.552.735-1.104 1.287-1.471 2.022 3.309-.551 6.619-.919 9.928-1.471 1.103-.184 2.574-.184 3.677-.735 1.103-.552 2.206-1.287 3.31-2.023 2.39-1.47 5.699-2.574 7.17-4.964 1.839-2.758 3.493-5.699 5.148-8.641-.368.368-.735.552-1.287.919 1.103-.367 2.206-.735 3.126-1.103.919-.368 2.574-.551 3.309-1.287.735-.735.919-2.39 1.287-3.309.368-1.103.735-2.207 1.103-3.126s-.368-2.39-1.471-2.574c-2.758-.551-5.515-.919-8.273-1.471-.736-.184-1.471-.184-2.023-.367-.367 0-1.103-.368-.367 0-1.104-.552-2.207-1.471-3.31-2.207-2.206-1.103-4.229 2.574-2.022 4.045Z"/><path d="M515.737 601.064c-.552 2.39-.919 4.781-1.471 7.171-.184.551-.368 1.103-.368 1.654 0 1.103 0-.367.368-.367-.368 0-1.839 1.838-2.206 2.206-1.655 1.655-3.677 3.309-5.148 5.148-1.287 1.655-.552 5.148-.552 6.986.368-.551.736-1.103 1.103-1.838-1.287 1.103-2.758 2.022-4.045 3.125-1.103.92-3.309 2.023-4.044 3.31-.736 1.287-.368 3.677-.368 4.964v5.332c.919-.736 1.655-1.287 2.574-2.023-1.839-.551-3.677-1.287-5.516-1.838l1.471 1.471c-.919-2.39-2.022-4.781-2.942-7.355-.184-.551-.367-1.103-.735-1.654-.368-.552 0 .184 0 0v-18.57c0-.919-.552-1.838-1.471-2.022-3.126-.552-6.251-1.287-9.377-1.839.368.368.736.552 1.287.92-1.103-2.207-2.206-4.597-3.493-6.803-.735-1.287.184.184 0 .368v-5.516c-.184.551-.368.919-.552 1.471l9.377-9.377c-1.103-.184-2.206-.368-3.309-.368 1.287 2.574 2.574 4.964 3.677 7.538.368.552 1.103 1.104 1.838 1.104h13.054c-.551-.368-1.103-.736-1.838-1.104 1.838 2.942 3.493 6.252 5.515 9.009 1.104 1.471 2.391 1.287 3.861 1.287h5.516c2.574 0 2.758-4.044 0-4.044h-7.538c.552.367 1.103.735 1.839 1.103-1.104-2.023-2.391-3.861-3.494-5.884-.919-1.654-1.838-4.228-3.861-4.596-2.206-.184-4.596 0-6.619 0h-6.251c.552.368 1.103.735 1.839 1.103-1.287-2.574-2.574-4.964-3.677-7.538-.552-1.287-2.39-1.287-3.31-.368l-5.515 5.516c-1.655 1.655-4.229 3.309-4.413 5.883 0 1.471-.184 3.126 0 4.597 0 1.103.552 2.022 1.103 2.941.919 2.023 2.023 6.068 4.413 6.803 2.941.919 6.067 1.287 9.009 1.839-.552-.736-1.103-1.287-1.471-2.023v9.009c0 3.126-.368 6.435 0 9.561.184 1.103.735 2.206 1.103 3.309.735 1.839 1.471 3.861 2.206 5.7.552 1.471 1.103 2.022 2.574 2.574 1.655.551 3.126 1.103 4.781 1.654 1.287.368 2.574-.735 2.574-2.022v-9.377c-.368.552-.736 1.103-1.104 1.839 2.391-1.839 4.781-3.493 7.171-5.332 2.206-1.655 1.287-5.148 1.287-7.722-.184.552-.368.919-.552 1.471 2.39-2.39 5.332-4.78 7.538-7.538.92-1.287 1.104-3.31 1.287-4.964.368-1.839.736-3.494 1.104-5.332.367-2.023-3.678-3.126-4.229-.552ZM558.76 617.427c.184-1.47.552-3.125.368-4.596-.184-1.471-1.287-2.942-1.839-4.229-1.287-2.758-2.758-5.332-4.045-8.089-.367-.92-.919-1.839-1.287-2.758-.183-.184-.183-.552-.367-.736-.552-.551 0 .92.184.736.183-.368 0-1.655 0-2.023v-3.493c0-1.471.183-2.758-1.287-3.677a42.89 42.89 0 0 0-4.781-3.126c-1.471-.919-2.574-.551-4.228-.184-1.839.368-3.678.92-5.332 1.287.551 0 1.103.184 1.654.184-4.412-1.838-8.641-3.677-13.053-5.515.367.367.551.735.919 1.287-.552-4.413-1.287-8.642-1.839-13.054-.184.735-.367 1.287-.551 2.022l5.515-5.516c-.551.184-.919.368-1.47.552h11.215c-.552-.368-1.103-.735-1.839-1.103.736 1.103 1.655 2.39 2.39 3.493.736 1.103 1.471 2.574 2.574 2.942 2.758.919 6.068.919 8.826 1.471 1.103.184 2.39.551 3.309.367.919-.183 2.022-.735 2.942-.919l8.273-2.758c2.574-.919 1.471-4.78-1.103-4.045-1.838.552-3.493 1.104-5.332 1.839-.551.184-5.699 1.655-5.699 1.839 0-.184 1.654.183.551 0-.367-.184-.735-.184-1.103-.184l-3.861-.552c-2.022-.368-3.861-.735-5.883-.919.367.368.735.551 1.287.919-1.287-1.838-2.39-3.861-3.677-5.516-1.471-1.654-4.781-1.103-6.619-1.103-2.023 0-4.781-.551-6.803 0-.919.368-1.655 1.287-2.39 2.023l-3.31 3.309c-.919.919-1.47 1.471-1.47 2.942 0 .735.183 1.287.367 2.022.368 2.942.736 5.7 1.287 8.642.184 1.838.184 3.125 2.023 3.861 2.574 1.287 5.148 2.206 7.722 3.309 1.838.735 4.412 2.39 6.435 2.206 2.39-.367 4.964-1.287 7.354-1.838-.552 0-1.103-.184-1.655-.184 1.839 1.287 3.677 2.574 5.516 3.677-.368-.552-.735-1.103-1.103-1.839 0 2.391-.368 4.965 0 7.355.368 2.574 2.39 5.332 3.493 7.538 1.103 2.022 2.023 4.045 3.126 6.067.367.552.551 1.287.919 1.839l.184.367c-.736.368 0-1.47-.184-.551-.552 1.103-.184 2.942-.368 4.229-.367 2.757 3.861 2.757 4.045.183ZM591.118 594.445c6.251-4.964 12.686-9.928 17.65-16.363 2.758-3.309 5.516-7.538 4.965-12.135-1.104-11.583-18.018-10.847-26.292-10.296-6.987.552-13.973 1.655-20.776 2.942-2.574.552-1.471 4.597 1.103 4.045 5.148-1.103 10.48-2.022 15.812-2.39 5.7-.552 11.583-.919 17.283 0 3.309.551 7.905 1.655 8.825 5.516.735 3.309-1.655 6.802-3.677 9.376-4.964 6.435-11.583 11.583-17.835 16.547-2.022 1.471.92 4.413 2.942 2.758Z"/><path d="M524.746 645.741c-18.018 2.023-36.036-4.964-47.251-19.121-11.032-13.789-13.974-32.726-8.274-49.457 5.7-16.18 19.673-28.866 36.22-32.911 17.098-4.229 35.668.552 48.354 12.87 15.628 14.893 20.408 38.61 11.583 58.467-1.103 2.39 2.574 4.596 3.493 2.022 8.458-19.305 5.7-41.735-7.354-58.099-11.767-14.708-31.072-22.614-49.825-20.408-18.386 2.206-34.933 13.422-43.39 29.969-8.642 17.099-8.09 37.874 1.838 54.238 11.216 18.569 32.911 29.049 54.606 26.475 2.574-.184 2.758-4.412 0-4.045ZM458.189 512.077h-5.332v-5.332h5.332v5.332ZM610.239 670.194h-5.332v-5.331h5.332v5.331ZM439.436 674.423h-5.332v-5.332h5.332v5.332ZM560.23 501.597h-5.332v-5.331h5.332v5.331Z"/></g><path d="M793.922 602.535a8.553 8.553 0 0 0-3.861.919c-1.839-2.206-4.413-3.677-7.539-3.677-1.654 0-3.125.368-4.228 1.103h-.184l-3.861 2.391c-1.839-2.023-4.413-3.494-7.354-3.494-1.655 0-3.126.368-4.229 1.103h-.184l-15.076 9.193a564.38 564.38 0 0 1-10.848-3.125c-3.861-1.103-7.538-2.023-10.48-2.942-1.471-.368-2.758-.735-3.861-.919-.551-.184-.919-.184-1.471-.184-.367 0-.735-.184-1.103-.184h-.919c-1.103.184-2.758.552-4.596.919-3.861.92-8.642 2.207-11.4 2.942v-4.596c0-3.126-2.574-5.7-5.699-5.7h-15.812c-3.125 0-5.699 2.574-5.699 5.7v44.493c0 3.125 2.574 5.699 5.699 5.699h15.812c3.125 0 5.699-2.574 5.699-5.699v-3.493c3.31.735 10.848 2.39 18.938 4.044a2327.708 2327.708 0 0 0 15.444 3.126c2.206.368 4.412.735 6.067.919 1.655.184 2.942.368 3.861.368.735 0 1.471-.184 2.206-.368 1.471-.367 3.126-1.103 4.964-2.022 6.435-3.126 15.812-9.009 24.453-14.893 8.826-5.883 16.915-11.583 20.96-14.34 2.574-1.655 3.861-4.597 3.861-7.722 0-5.332-4.229-9.561-9.56-9.561Zm-95.606 43.942c0 .735-.736 1.471-1.471 1.471h-15.812c-.735 0-1.471-.736-1.471-1.471v-44.31c0-.735.736-1.47 1.471-1.47h15.812c.735 0 1.471.735 1.471 1.47v44.31Zm98.731-30.153c-4.964 3.31-15.995 11.216-26.659 18.202-5.332 3.493-10.664 6.619-14.893 9.009-2.206 1.103-4.044 2.206-5.515 2.758-.736.368-1.471.552-2.023.735-.551.184-.919.184-1.103.184-.551 0-1.655-.184-3.309-.367-5.7-.736-16.18-2.942-25.189-4.781a354.305 354.305 0 0 1-11.767-2.574c-1.838-.367-3.125-.735-4.044-.919v-27.578c.367-.184.919-.184 1.654-.368 2.207-.552 5.7-1.471 8.825-2.206 1.471-.368 2.942-.736 4.229-.92.552-.184 1.103-.184 1.471-.368h1.287c1.103.184 3.677.736 6.619 1.471 8.825 2.391 22.982 6.619 28.682 8.274 2.022.552 3.677 1.471 4.964 2.574.551.552 1.103 1.103 1.287 1.655.367.551.551 1.287.551 2.206 0 1.655-.735 3.125-1.838 4.229-1.103 1.103-2.574 1.838-4.229 1.838l-5.516-.551-18.937-2.391c-1.103-.183-2.206.736-2.39 1.839-.184 1.103.735 2.206 1.838 2.39l18.938 2.39 5.883.552h.184a10.28 10.28 0 0 0 10.296-10.296c0-1.471-.368-2.758-.919-4.045-.92-1.839-2.207-3.125-3.677-4.229-1.471-1.103-3.31-1.838-5.148-2.39-.92-.368-2.207-.735-3.678-1.103l11.583-7.17c.736-.368 1.471-.552 2.391-.552 1.47 0 2.574.552 3.677 1.471l-5.7 3.493c-1.103.552-1.287 1.839-.735 2.942.551 1.103 1.838 1.287 2.941.735l13.422-7.905c.735-.368 1.471-.552 2.39-.552 1.471 0 2.758.552 3.861 1.655l-15.628 9.193c-1.103.551-1.287 1.838-.735 2.941.551 1.103 1.838 1.287 2.942.736l16.731-9.929c.183 0 .367 0 .551-.183.368-.184.552-.368.919-.736l.552-.368c.735-.367 1.471-.551 2.39-.551 1.471 0 2.758.551 3.677 1.471.92.919 1.471 2.206 1.471 3.677-.368 2.022-1.287 3.493-2.574 4.412ZM771.491 562.822c.184-.552.919-.919 1.103-.919h4.045c3.677 0 6.803-2.942 6.803-6.803v-6.435c0-3.677-3.126-6.803-6.803-6.803h-4.045c-.367 0-.919-.367-1.103-.919-.368-1.103-.919-2.206-1.471-3.309-.184-.552-.184-1.287.184-1.471l2.758-2.758c2.574-2.574 2.574-6.987 0-9.561l-4.596-4.596c-1.287-1.287-2.942-2.022-4.781-2.022-1.838 0-3.493.735-4.78 2.022l-2.758 2.758s-.368.184-.735.184c-.184 0-.552 0-.736-.184-1.103-.552-2.206-.919-3.309-1.471-.552-.184-.919-.919-.919-1.103v-4.045c0-3.677-3.126-6.803-6.803-6.803h-6.435c-3.677 0-6.803 2.942-6.803 6.803v4.045c0 .368-.368.919-.919 1.103-1.103.368-2.206.919-3.31 1.471-.183 0-.367.184-.735.184s-.735-.184-.735-.184l-2.758-2.758c-1.287-1.287-2.942-2.022-4.781-2.022-1.838 0-3.493.735-4.78 2.022l-4.596 4.596c-2.574 2.574-2.574 6.987 0 9.561l2.758 2.758c.183.184.367.919.183 1.471-.551 1.103-.919 2.206-1.47 3.309-.184.552-.92.919-1.104.919h-4.044c-3.678 0-6.803 2.942-6.803 6.803v6.435c0 3.677 2.942 6.803 6.803 6.803h4.044c.368 0 .92.367 1.104.919.367 1.103.919 2.206 1.47 3.309.184.552.184 1.287-.183 1.471l-2.758 2.758c-1.287 1.287-2.023 2.942-2.023 4.78 0 1.839.736 3.494 2.023 4.781l4.596 4.596c1.287 1.287 2.942 2.023 4.78 2.023 1.839 0 3.494-.736 4.781-2.023l2.758-2.758s.367-.184.735-.184c.184 0 .552 0 .735.184 1.104.552 2.207.92 3.31 1.471.551.184.919.919.919 1.103v4.045c0 3.677 3.126 6.803 6.803 6.803h6.435c3.677 0 6.803-2.942 6.803-6.803v-4.045c0-.367.367-.919.919-1.103 1.103-.368 2.206-.919 3.309-1.471.184 0 .368-.184.736-.184.367 0 .735.184.735.184l2.758 2.758c1.287 1.287 2.942 2.023 4.78 2.023 1.839 0 3.494-.736 4.781-2.023l4.596-4.596c2.574-2.574 2.574-6.987 0-9.561l-2.758-2.758c-.184-.184-.368-.919-.184-1.471.552-.919 1.103-2.206 1.471-3.309Zm-18.018-10.848a13.182 13.182 0 0 1-13.238 13.238 13.182 13.182 0 0 1-13.237-13.238 13.182 13.182 0 0 1 13.237-13.237 13.182 13.182 0 0 1 13.238 13.237ZM810.102 655.854h4.78v4.78h-4.78v-4.78ZM663.199 655.486h4.781v4.78h-4.781v-4.78ZM667.979 564.293h4.781v4.78h-4.781v-4.78ZM789.142 637.836h4.78v4.78h-4.78v-4.78ZM795.944 652.544h4.781v4.78h-4.781v-4.78ZM661.729 512.813h4.78v4.78h-4.78v-4.78ZM812.491 509.136h4.781v4.78h-4.781v-4.78ZM705.854 661.737h4.781v4.78h-4.781v-4.78Z" fill="#6F8085"/><defs><clipPath id="a"><path fill="#fff" transform="translate(452.421 20.707)" d="M0 0h142.442v142.442H0z"/></clipPath><clipPath id="b"><path fill="#fff" transform="translate(0 247.857)" d="M0 0h183.857v183.857H0z"/></clipPath><clipPath id="c"><path fill="#fff" transform="translate(215.857 247.857)" d="M0 0h183.857v183.857H0z"/></clipPath><clipPath id="d"><path fill="#fff" transform="translate(431.714 495.714)" d="M0 0h183.857v183.857H0z"/></clipPath></defs></svg>