<svg width="832" height="680" fill="none" xmlns="http://www.w3.org/2000/svg"><path d="M134.951 67.475c0-11.766-4.229-23.166-11.951-32.175-.735-.919-2.206-1.103-3.125-.183-.92.735-1.103 2.206-.184 3.125 6.986 8.09 10.847 18.57 10.847 29.233 0 18.202-11.031 34.566-27.578 41.552v-20.96c6.067-5.148 9.56-12.686 9.56-20.592 0-14.892-12.134-27.21-27.21-27.21-10.296 0-20.04 6.067-24.453 15.444-.552 1.103 0 2.39 1.103 2.941 1.103.552 2.39 0 2.941-1.103 3.678-7.906 11.767-12.87 20.409-12.87 12.502 0 22.614 10.112 22.614 22.615 0 5.331-1.839 10.296-5.148 14.34V67.475c0-5.148-4.045-9.192-9.193-9.192H76.668c-5.148 0-9.193 4.044-9.193 9.192v14.157c-3.309-4.044-5.147-9.009-5.147-14.34V65.82c0-1.287-.92-2.207-2.023-2.39-1.287 0-2.206.919-2.39 2.022v1.839c0 8.09 3.493 15.444 9.56 20.592v20.959c-16.547-6.986-27.578-23.35-27.578-41.551 0-25.005 20.224-45.23 45.229-45.23 10.296 0 19.856 3.31 27.946 9.561.919.736 2.39.552 3.126-.367.735-.92.551-2.39-.368-3.126-8.825-6.986-19.489-10.664-30.704-10.664-27.395 0-49.642 22.247-49.642 49.642 0 20.592 12.87 39.161 31.991 46.332v46.516c0 5.148 4.045 9.192 9.193 9.192h17.1c5.147 0 9.192-4.044 9.192-9.192v-18.754c0-1.287-.919-2.206-2.206-2.206s-2.207.919-2.207 2.206v19.121c0 2.574-2.206 4.781-4.78 4.781H76.852c-2.574 0-4.78-2.207-4.78-4.781V67.659c0-2.574 2.206-4.78 4.78-4.78h16.915c2.574 0 4.78 2.206 4.78 4.78v63.983c0 1.287.92 2.206 2.207 2.206s2.206-.919 2.206-2.206v-17.651c19.305-7.354 31.991-25.924 31.991-46.516Z" fill="#6F8085"/><path d="M85.31 67.291c-4.78 0-8.826 3.862-8.826 8.826v42.103c0 4.78 3.861 8.825 8.826 8.825 4.964 0 8.825-3.861 8.825-8.825V76.117c0-4.965-4.045-8.826-8.826-8.826Zm4.412 50.929c0 2.39-1.838 4.229-4.229 4.229-2.39 0-4.228-1.839-4.228-4.229V76.117c0-2.39 1.838-4.23 4.228-4.23 2.39 0 4.23 1.84 4.23 4.23v42.103ZM55.34 14.34h-4.596v4.597h4.597v-4.596ZM31.623 43.023c4.23 0 7.722-3.494 7.722-7.722 0-4.23-3.493-7.722-7.722-7.722-4.228 0-7.722 3.309-7.722 7.538 0 4.412 3.494 7.906 7.722 7.906Zm0-11.767c2.207 0 3.861 1.838 3.861 3.86 0 2.023-1.838 3.862-3.86 3.862-2.023 0-3.862-1.839-3.862-3.861 0-2.023 1.655-3.861 3.861-3.861ZM145.798 25.924l-5.515-3.126-3.126-5.516c-.551-.919-1.655-1.287-2.574-.735-.368.184-.551.368-.735.735l-3.126 5.516-5.516 3.126c-.919.551-1.287 1.654-.735 2.574.184.367.368.551.735.735l5.516 3.126 3.126 5.515c.551.92 1.654 1.287 2.574.736.367-.184.551-.368.735-.736l3.126-5.515 5.515-3.126c.92-.551 1.287-1.655.736-2.574 0-.368-.368-.551-.736-.735Zm-7.905 3.31c-.368.183-.552.367-.736.735l-1.655 3.125-1.654-2.942c-.184-.367-.368-.551-.736-.735l-2.941-1.839 2.941-1.654c.368-.184.552-.368.736-.736l1.654-2.941 1.655 2.941c.184.368.368.552.736.736l2.941 1.654-2.941 1.655ZM159.037 65.637l-5.516-3.126-3.126-5.515c-.551-.92-1.654-1.287-2.574-.736-.367.184-.551.368-.735.736l-3.126 5.515-5.515 3.126c-.92.551-1.287 1.655-.736 2.574.184.368.368.551.736.735l5.515 3.126 3.126 5.516c.552.919 1.655 1.287 2.574.735.368-.184.552-.368.735-.735l3.126-5.516 5.516-3.126c.919-.551 1.287-1.654.735-2.574-.184-.184-.368-.551-.735-.735Zm-8.09 3.31c-.368.183-.552.367-.735.735l-1.655 2.941-1.471-2.757c-.184-.368-.368-.552-.735-.736l-2.942-1.655 2.942-1.654c.367-.184.551-.368.735-.736l1.655-2.941 1.654 2.941c.184.368.368.552.736.736l2.942 1.654-3.126 1.471ZM231.302 170.987c.552-.735 54.422-77.22 84.207-77.22a2.04 2.04 0 0 0 2.022-2.022 2.04 2.04 0 0 0-2.022-2.023c-29.785.184-83.655-76.117-84.207-76.852-.552-.92-1.839-1.103-2.574-.552-.919.552-1.103 1.839-.552 2.758 2.023 2.942 45.781 64.902 77.772 76.852-31.991 11.951-75.749 73.911-77.772 76.853-.551.919-.367 2.206.552 2.758 1.103.735 2.206.183 2.574-.552ZM358.531 75.933c7.354 0 14.157-4.597 16.731-11.95l12.318-36.956c.368-1.103-.184-2.206-1.287-2.39l-36.771-12.503c-1.103-.367-2.206.368-2.39 1.287l-12.319 36.956c-3.309 9.744 2.574 18.386 8.825 21.327l-3.493 10.664h-20.224c-1.103 0-2.023.92-2.023 2.022 0 1.103.92 2.023 2.023 2.023h5.883V98.18h-5.883a2.04 2.04 0 0 0-2.023 2.022c0 1.103.92 2.023 2.023 2.023h31.991l-10.296 20.592c-.552.919 0 2.206.919 2.573.92.552 2.207 0 2.574-.919l11.032-22.246c.735.183 1.287.735 1.287 1.47l3.677 21.695c-4.045 3.861-9.928 3.862-10.112 3.862a2.04 2.04 0 0 0-2.023 2.022 2.04 2.04 0 0 0 2.023 2.022c.367 0 5.883 0 10.847-3.493l2.39 14.157c.552 2.758 2.942 4.964 5.884 4.964h2.574v21.511a2.04 2.04 0 0 0 2.022 2.023 2.04 2.04 0 0 0 2.023-2.023v-21.878h1.103c3.493 0 6.435-3.126 5.883-6.803l-6.619-39.897h5.516a2.04 2.04 0 0 0 2.023-2.023c0-1.103-.92-2.022-2.023-2.022h-5.883V93.95h5.883a2.04 2.04 0 0 0 2.023-2.022c0-1.104-.92-2.023-2.023-2.023h-21.695v-5.883A2.04 2.04 0 0 0 358.899 82h-6.803l2.206-6.802c1.471.551 2.942.735 4.229.735Zm-17.099 21.879h-11.767V86.045h3.861v5.883a2.04 2.04 0 0 0 2.023 2.023 2.04 2.04 0 0 0 2.022-2.022v-5.884h3.861v11.767Zm18.754-3.861h12.502v6.251l6.986 42.287c.184 1.103-.735 2.39-2.022 2.39h-7.722c-.919 0-1.839-.735-2.022-1.654l-6.803-40.265c-.368-2.022-1.655-3.677-3.493-4.413l2.574-4.596Zm-10.113-77.588 33.279 11.215-1.287 3.678-33.279-11.216 1.287-3.677Zm6.987 69.682v5.332l-3.126 6.251h-8.457V85.861h11.583v.184Zm-13.054-3.86 3.126-9.194 3.861 1.287-2.758 7.906h-4.229Zm2.942-13.422c-6.803-2.207-11.032-9.929-8.641-17.283l9.376-27.762 33.095 11.215-9.377 27.762a13.647 13.647 0 0 1-17.283 8.642l-7.17-2.575Z" fill="#6F8085"/><path d="M229.831 93.95h54.606a2.04 2.04 0 0 0 2.022-2.022 2.04 2.04 0 0 0-2.022-2.022h-54.606a2.04 2.04 0 0 0-2.022 2.022 2.04 2.04 0 0 0 2.022 2.023ZM471.427 116.014a3.296 3.296 0 0 1-3.31-3.31h-3.493a6.984 6.984 0 0 0 6.987 6.987 6.983 6.983 0 0 0 6.986-6.987h-3.493c-.184 1.655-1.839 3.31-3.677 3.31Z" fill="#6F8085"/><path d="M609.32 100.018v-7.17h-7.171v-3.494h7.171l-3.494-3.493-14.34-3.493h-17.835L537.983 64.35l-7.17-7.17h-64.166l-10.848 7.17-14.341 14.34h7.171l-3.494 3.494h-7.17l-3.493 3.493v17.834l7.17 10.664v3.493h13.054c-.552-1.654-.735-3.493-.735-5.331 0-9.745 7.905-17.65 17.65-17.65 9.744 0 17.65 7.905 17.65 17.65 0 1.838-.368 3.677-.735 5.331h74.829c-.551-1.654-.735-3.493-.735-5.331 0-9.745 7.906-17.65 17.65-17.65 9.745 0 17.651 7.905 17.651 17.65 0 1.838-.368 3.677-.736 5.331h5.332l7.17-3.493 3.494-10.664-3.861-3.493Zm-76.669 9.377h-7.354c-1.471 0-2.758-1.287-2.758-2.758s1.287-2.758 2.758-2.758h7.354c4.781 0 8.825-3.861 8.825-8.825 0-4.78-3.861-8.825-8.825-8.825h-41.184l2.207 2.206c1.103 1.103 1.103 2.758 0 3.861-.552.552-1.287.736-1.839.736-.551 0-1.287-.184-1.838-.736l-6.803-6.803c-1.103-1.103-1.103-2.757 0-3.86l6.803-6.803c1.103-1.103 2.757-1.103 3.861 0 1.103 1.103 1.103 2.758 0 3.86l-2.207 2.207h41.184c7.722 0 14.157 6.251 14.157 14.157s-6.619 14.341-14.341 14.341Z" fill="#6F8085"/><path d="M579.902 116.014a3.296 3.296 0 0 1-3.309-3.31H573.1a6.983 6.983 0 0 0 6.986 6.987 6.984 6.984 0 0 0 6.987-6.987h-3.494c-.183 1.655-1.654 3.31-3.677 3.31Z" fill="#6F8085"/><path d="M594.06 112.521c0-7.722-6.252-14.157-14.158-14.157-7.721 0-14.156 6.251-14.156 14.157 0 4.228 1.838 7.905 4.78 10.479h-89.722c2.941-2.574 4.78-6.251 4.78-10.479 0-7.722-6.251-14.157-14.157-14.157-7.722 0-14.157 6.251-14.157 14.157 0 4.228 1.838 7.905 4.78 10.479h-24.085v3.494H601.598V123h-12.687c3.31-2.574 5.149-6.251 5.149-10.479ZM471.611 123c-5.884 0-10.664-4.78-10.664-10.479 0-5.884 4.78-10.48 10.48-10.48 5.883 0 10.48 4.78 10.48 10.48 0 5.883-4.597 10.479-10.296 10.479Zm108.475 0c-5.883 0-10.663-4.78-10.663-10.479 0-5.884 4.78-10.48 10.479-10.48 5.884 0 10.48 4.78 10.48 10.48.184 5.883-4.596 10.479-10.296 10.479ZM671.105 114.175c-.368-1.471-.552-3.125-.552-4.78 0-10.112 8.274-18.386 18.386-18.386 7.722 0 14.341 4.78 17.098 11.583.368-1.654 1.287-3.31 2.391-4.596-3.861-6.619-11.032-11.032-19.305-11.032-12.319 0-22.247 9.929-22.431 22.063l-7.538-1.654-5.332-5.332 2.574-4.964 10.664-10.664h-8.641l.183-.184 31.44-4.413-.184-4.044 8.274-2.39v10.112l15.076 3.86c.368-1.47 1.103-2.757 1.838-3.86l-12.87-3.31v-8.273h33.095l20.776 4.228 4.044 4.045 12.319-4.045-37.139-8.273h-33.095l-28.865 8.273h12.318l-28.865 4.045-4.229 4.229v4.045h4.229l-4.045 4.045-4.229 8.457 8.274 8.274 14.341 2.941Z" fill="#6F8085"/><path d="M701.809 119.875v-.368h-3.126c2.574-2.574 4.229-6.067 4.229-10.112 0-7.906-6.435-14.157-14.157-14.157-7.906 0-14.157 6.435-14.157 14.157 0 3.861 1.655 7.538 4.229 10.112h-26.292v4.045h49.642c-.184-1.103-.368-2.39-.368-3.677Zm-13.054-.368c-5.516 0-10.112-4.412-10.112-10.112 0-5.516 4.596-10.112 10.112-10.112s10.112 4.412 10.112 10.112c0 5.516-4.596 10.112-10.112 10.112Z" fill="#6F8085"/><path d="M688.755 111.234c-.92 0-1.839-.736-1.839-1.839h-4.045c0 3.309 2.574 5.883 5.884 5.883 3.309 0 5.883-2.574 5.883-5.883h-4.045c0 1.103-.919 1.839-1.838 1.839ZM830.509 102.96l-4.045-8.274h-4.228v-4.045l-16.548-8.273h-29.049l-16.547 4.045h-4.78c1.103 1.287 1.838 2.574 2.574 4.045h2.941l16.547-4.045h27.579l13.422 6.619v5.7h5.699l2.574 5.147v1.471l-5.883 5.883h-1.104v-1.838c0-12.319-10.112-22.43-22.43-22.43-11.031 0-20.224 8.09-22.063 18.569 1.471.368 2.758 1.103 3.861 2.022.919-9.376 8.641-16.547 18.202-16.547 10.112 0 18.386 8.274 18.386 18.386 0 2.022-.368 4.045-.92 5.883h16.18v-4.045h-4.045l4.045-4.044v-4.229h-.368Z" fill="#6F8085"/><path d="M811.204 109.395c0-7.906-6.435-14.157-14.157-14.157-7.906 0-14.157 6.435-14.157 14.157 0 3.861 1.654 7.538 4.228 10.112h-4.78c-.551 1.471-1.287 2.942-2.206 4.045h42.287v-4.045h-15.26c2.39-2.574 4.045-6.067 4.045-10.112Zm-14.157 10.112c-5.516 0-10.112-4.412-10.112-10.112 0-5.516 4.596-10.112 10.112-10.112 5.515 0 10.112 4.412 10.112 10.112-.184 5.516-4.597 10.112-10.112 10.112Z" fill="#6F8085"/><path d="M797.047 111.234c-.92 0-1.839-.736-1.839-1.839h-4.229c0 3.309 2.574 5.883 5.884 5.883 3.309 0 5.883-2.574 5.883-5.883h-4.045c0 1.103-.735 1.839-1.654 1.839ZM779.58 124.104c1.839-2.207 3.126-4.965 3.126-7.906 0-6.068-4.964-11.032-11.032-11.032 0-6.067-4.964-11.031-11.031-11.031-.736 0-1.287 0-2.023.184-.919-7.355-6.986-13.054-14.524-13.054a14.771 14.771 0 0 0-11.032 4.964c-2.022-3.126-5.332-4.964-9.193-4.964-6.067 0-11.031 4.964-11.031 11.031 0 .736.184 1.655.184 2.39-4.413 1.471-7.538 5.516-7.538 10.48 0 1.103.184 2.023.367 3.126-2.757 3.309-4.044 7.354-4.044 11.583 0 5.883 2.757 11.215 7.354 14.708 0 2.023.551 4.045 1.655 5.884-1.104 1.838-1.655 3.861-1.655 6.067a11.927 11.927 0 0 0 11.951 11.951c1.103 0 2.206-.184 3.309-.552 2.022 2.574 5.148 4.229 8.641 4.229 4.781 0 8.825-2.942 10.296-7.354 1.471.184 2.942.184 4.413-.184a13.637 13.637 0 0 0 9.744 4.045c4.229 0 8.458-1.839 12.135-5.516l7.722-7.722c6.619-6.803 7.538-15.26 2.206-21.327Zm-46.516 34.381c-2.574 0-4.964-1.287-6.251-3.677-.551-.736-1.471-1.103-2.39-.736-1.103.552-2.206.736-3.309.736a8.24 8.24 0 0 1-8.274-8.274 8.07 8.07 0 0 1 1.655-4.964c.551-.735.551-1.655 0-2.206-1.103-1.287-1.655-2.942-1.655-4.597v-.735c0-.736-.184-1.287-.735-1.655-4.229-2.758-6.619-7.354-6.619-12.318 0-3.677 1.471-7.171 3.861-9.929.551-.551.551-1.287.367-2.022a7.391 7.391 0 0 1-.551-2.758c0-3.677 2.758-6.802 6.619-7.354.551 0 1.103-.368 1.471-.92.367-.551.367-1.102 0-1.654-.368-.92-.736-2.022-.736-2.942 0-4.045 3.31-7.354 7.354-7.354 3.31 0 6.252 2.206 6.987 5.516.184.735.735 1.287 1.655 1.287.735 0 1.471-.368 1.838-.92 1.839-3.677 5.7-5.883 9.745-5.883 6.067 0 11.031 4.964 11.031 11.031v.736c0 .551.184 1.287.736 1.654.551.368 1.287.368 1.838.184.919-.367 2.023-.551 2.942-.551 4.045 0 7.354 3.309 7.354 7.354 0 .552 0 1.103-.184 1.655-.184.551 0 1.287.552 1.654.368.368 1.103.552 1.655.552.551-.184 1.103-.184 1.654-.184 4.045 0 7.355 3.31 7.355 7.354 0 1.839-.736 3.861-2.023 5.332l-24.821-25.372c-2.574-2.574-6.618-2.574-9.009 0-.735.735-1.287 1.47-1.47 2.39l-3.678-3.677c-2.574-2.574-6.618-2.574-9.192 0-.736.736-1.287 1.47-1.471 2.39-2.574-2.39-6.435-2.206-8.825.184-2.391 2.39-2.574 6.435-.184 8.825-.92.368-1.655.919-2.39 1.471-1.287 1.287-1.839 2.758-1.839 4.596 0 1.655.735 3.31 1.839 4.597l11.399 11.399c-.92.368-1.655.735-2.39 1.471-2.574 2.574-2.574 6.619 0 9.193l12.318 12.318c.735.736 1.655 1.471 2.758 2.023-1.287 2.757-3.861 4.78-6.987 4.78Zm41.92-15.812-7.906 7.722c-4.229 4.229-10.296 6.251-15.444 2.574l1.287-1.287c.368-.368.551-.919.551-1.287 0-.368-.183-.919-.551-1.287-.736-.735-1.839-.735-2.574 0-2.942 2.942-7.538 2.942-10.48 0l-12.318-12.318c-1.104-1.103-1.104-2.758 0-3.861 1.103-1.103 2.757-1.103 3.861 0l8.457 8.457c.735.736 1.839.736 2.574 0 .735-.735.735-1.838 0-2.574l-8.457-8.641-15.628-15.628c-.552-.552-.736-1.287-.736-2.022 0-.736.368-1.471.736-2.023 1.103-1.103 2.941-1.103 3.861 0l17.466 17.467c.736.735 1.839.735 2.574 0 .736-.736.736-1.839 0-2.574l-21.327-21.144c-1.103-1.103-1.103-2.758 0-3.861 1.103-1.103 2.758-1.103 3.861 0l3.861 3.861 17.466 17.466c.736.736 1.839.736 2.574 0 .736-.735.736-1.838 0-2.574l-17.65-17.65c-1.103-1.103-.919-2.758 0-3.86 1.103-1.104 2.758-1.104 3.861 0l7.722 7.721 9.744 9.745c.736.735 1.839.735 2.574 0 .736-.736.736-1.839 0-2.574l-9.376-9.561c-1.104-1.103-.92-2.758 0-3.861 1.103-1.103 2.757-1.103 3.861 0l26.843 26.659c5.332 5.332 3.125 12.319-1.287 16.915ZM723.32 16.18h-4.596v4.596h4.596v-4.597ZM686.549 142.305h-4.597v4.597h4.597v-4.597ZM686.732 41.184c4.229 0 7.722-3.493 7.722-7.722 0-4.229-3.493-7.722-7.722-7.722-4.229 0-7.906 3.31-7.906 7.722 0 4.229 3.493 7.722 7.906 7.722Zm0-11.583c2.206 0 3.861 1.839 3.861 3.861 0 2.022-1.839 3.861-3.861 3.861-2.022 0-3.861-1.839-3.861-3.861 0-2.206 1.655-3.861 3.861-3.861ZM800.908 24.27l-5.516-3.126-3.125-5.516c-.552-.92-1.655-1.287-2.574-.736-.368.184-.552.368-.736.736l-3.125 5.516-5.516 3.125c-.919.552-1.287 1.655-.736 2.574.184.368.368.552.736.736l5.516 3.125 3.125 5.516c.552.92 1.655 1.287 2.574.735.368-.184.552-.367.736-.735l3.125-5.516 5.516-3.125c.919-.552 1.287-1.655.735-2.574-.184-.368-.367-.736-.735-.736Zm-7.906 3.309c-.368.183-.552.367-.735.735l-1.655 2.942-1.655-2.942c-.184-.368-.368-.552-.735-.735l-2.942-1.655 2.942-1.655c.367-.184.551-.367.735-.735l1.655-2.942 1.655 2.942c.183.367.367.551.735.735l2.942 1.655-2.942 1.655ZM802.562 134.399l-3.125-5.515c-.552-.92-1.655-1.287-2.574-.736-.368.184-.552.368-.736.736l-3.125 5.515-5.516 3.126c-.919.552-1.287 1.655-.736 2.574.184.368.368.552.736.735l5.516 3.126 3.125 5.516c.552.919 1.655 1.287 2.574.735.368-.184.552-.368.736-.735l3.125-5.516 5.516-3.126c.919-.551 1.287-1.654.735-2.574-.184-.367-.367-.551-.735-.735l-5.516-3.126Zm-2.39 6.435c-.368.184-.552.368-.735.736l-1.655 2.942-1.655-2.942c-.184-.368-.368-.552-.735-.736l-2.942-1.654 2.942-1.655c.367-.184.551-.368.735-.735l1.655-2.942 1.655 2.942c.183.367.367.551.735.735l2.942 1.655-2.942 1.654ZM753.472 43.758l-5.515-3.126-3.126-5.515c-.552-.92-1.655-1.287-2.574-.736-.368.184-.552.368-.735.736l-3.126 5.515-5.516 3.126c-.919.551-1.287 1.655-.735 2.574.184.368.368.551.735.735l5.516 3.126 3.126 5.516c.551.919 1.654 1.287 2.574.735.367-.184.551-.368.735-.735l3.126-5.516 5.515-3.126c.92-.551 1.287-1.654.736-2.574-.184-.367-.552-.551-.736-.735Zm-8.089 3.31c-.368.183-.552.367-.736.735l-1.655 2.942-1.654-2.942c-.184-.368-.368-.552-.736-.736l-2.941-1.654 2.941-1.655c.368-.184.552-.368.736-.736l1.654-2.941 1.655 2.941c.184.368.368.552.736.736l2.941 1.655-2.941 1.654ZM780.499 169.332c5.332 0 9.745-4.412 9.745-9.744s-4.413-9.744-9.745-9.744c-5.332 0-9.744 4.412-9.744 9.744s4.229 9.744 9.744 9.744Zm0-15.627c3.31 0 5.884 2.574 5.884 5.883s-2.758 5.883-5.884 5.883c-3.125 0-5.883-2.574-5.883-5.883s2.574-5.883 5.883-5.883Z" fill="#6F8085"/><g clip-path="url(#a)" fill="#6F8085"><path d="M50.193 295.292c0 11.583 4.597 22.615 12.687 30.888 8.09 8.274 19.304 12.687 30.887 12.687 23.902 0 43.575-19.673 43.575-43.575 0-.919-.736-1.654-1.655-1.654s-1.655.735-1.655 1.654c0 22.063-18.202 40.265-40.265 40.265-10.847 0-20.96-4.229-28.497-11.767-7.538-7.722-11.767-17.834-11.767-28.498 0-22.062 18.202-40.264 40.264-40.264.92 0 1.655-.736 1.655-1.655s-.551-1.839-1.654-1.839c-23.902 0-43.575 19.673-43.575 43.758Z"/><path d="M63.615 312.759c0-.184-.184-.184 0-.368l4.413-35.668c0-.184.183-.184.183-.368.184-.184.184-.184.368-.184h3.861c.368 0 .552.184.552.552l-3.861 31.623v.184h11.583c.367 0 .551.184.551.552l-.368 3.309c0 .368-.183.552-.551.552H64.35c-.551-.184-.551-.184-.735-.184ZM85.31 310.92c-1.471-1.655-2.207-3.677-2.207-6.251 0-.368 0-.919.184-1.655l3.31-26.291c0-.184 0-.184.184-.368.183-.184.183-.184.367-.184h3.861c.368 0 .552.184.552.552l-3.31 26.843v1.103c0 1.287.368 2.39.92 3.309.735.736 1.654 1.287 2.758 1.287 1.287 0 2.39-.551 3.31-1.47.918-.92 1.47-2.391 1.654-4.045l3.309-26.843c0-.184 0-.184.184-.368s.184-.184.368-.184h3.861c.368 0 .551.184.551.552l-3.309 26.291c-.368 3.126-1.471 5.7-3.493 7.538-2.023 1.839-4.23 2.942-7.17 2.942-2.39-.368-4.413-1.287-5.884-2.758ZM103.512 312.575v-.368l9.193-17.65v-.368l-4.965-17.65v-.184c0-.368.184-.552.552-.552h4.045c.184 0 .368.184.551.368l3.126 12.686c0 .184 0 .184.184.184s.184 0 .184-.184l6.067-12.686c.184-.368.368-.368.552-.368h3.861c.183 0 .367 0 .367.184v.368l-9.193 17.65c-.183.184-.183.184 0 .368l4.965 17.466v.184c0 .184 0 .184-.184.368-.184 0-.184.184-.368.184h-3.861c-.368 0-.552-.184-.552-.368l-3.125-12.686c0-.184 0-.184-.184-.184s-.184 0-.184.184l-6.067 12.87c-.184.368-.368.368-.552.368h-4.045c-.183 0-.367 0-.367-.184ZM23.534 380.051c-.368-1.471-.551-3.126-.551-4.781 0-10.112 8.273-18.385 18.385-18.385 7.722 0 14.341 4.78 17.099 11.583.368-1.655 1.287-3.31 2.39-4.597-3.86-6.619-11.031-11.031-19.305-11.031-12.318 0-22.247 9.928-22.43 22.063l-7.539-1.655-5.331-5.332 2.574-4.964 10.663-10.664h-8.641l.184-.184 31.44-4.412-.184-4.045 8.273-2.39v10.112l15.076 3.861c.368-1.471 1.103-2.758 1.839-3.861l-12.87-3.31v-8.273H87.7l20.776 4.229 4.045 4.044 12.318-4.044-37.139-8.274H54.606l-28.866 8.274H38.06l-28.866 4.228-4.045 4.045v4.045h4.045l-4.045 4.045-4.044 8.273 8.09 8.458 14.34 2.942Z"/><path d="M54.239 385.75v-.368h-3.126c2.574-2.574 4.229-6.067 4.229-10.112 0-7.906-6.435-14.157-14.157-14.157-7.906 0-14.157 6.435-14.157 14.157 0 3.861 1.654 7.538 4.228 10.112H4.965v4.045h49.641c-.184-1.103-.367-2.39-.367-3.677Zm-13.054-.368c-5.516 0-10.113-4.412-10.113-10.112 0-5.515 4.597-10.112 10.113-10.112 5.515 0 10.112 4.413 10.112 10.112 0 5.516-4.597 10.112-10.112 10.112Z"/><path d="M41.184 377.109c-.92 0-1.838-.736-1.838-1.839H35.3c0 3.31 2.574 5.884 5.883 5.884 3.31 0 5.884-2.574 5.884-5.884h-4.045c0 1.103-.92 1.839-1.839 1.839ZM182.938 368.835l-4.045-8.273h-4.229v-4.045l-16.547-8.274h-29.049l-16.547 4.045h-4.781c1.103 1.287 1.839 2.574 2.574 4.045h2.942l16.547-4.045h27.579l13.421 6.619v5.699h5.7l2.574 5.148v1.471l-5.884 5.884h-1.103v-1.839c0-12.318-10.112-22.43-22.43-22.43-11.032 0-20.225 8.089-22.063 18.569 1.471.368 2.758 1.103 3.861 2.023.919-9.377 8.641-16.548 18.202-16.548 10.112 0 18.385 8.274 18.385 18.386 0 2.023-.367 4.045-.919 5.884h16.179v-4.045h-4.044l4.044-4.045v-4.229h-.367Z"/><path d="M163.634 375.27c0-7.906-6.435-14.157-14.157-14.157-7.906 0-14.157 6.435-14.157 14.157 0 3.861 1.654 7.538 4.228 10.112h-4.78c-.551 1.471-1.287 2.942-2.39 4.045h42.287v-4.045h-15.26c2.574-2.574 4.229-6.067 4.229-10.112Zm-14.157 10.112c-5.516 0-10.112-4.412-10.112-10.112 0-5.515 4.596-10.112 10.112-10.112 5.515 0 10.112 4.413 10.112 10.112-.184 5.516-4.597 10.112-10.112 10.112Z"/><path d="M149.476 377.109c-.919 0-1.838-.736-1.838-1.839h-4.229c0 3.31 2.574 5.884 5.884 5.884 3.309 0 5.883-2.574 5.883-5.884h-4.045c0 1.103-.735 1.839-1.655 1.839ZM132.01 389.979c1.838-2.206 3.125-4.964 3.125-7.906 0-6.067-4.964-11.031-11.031-11.031 0-6.068-4.964-11.032-11.031-11.032-.736 0-1.287 0-2.023.184-.919-7.354-6.986-13.054-14.525-13.054a14.772 14.772 0 0 0-11.031 4.964c-2.022-3.125-5.332-4.964-9.193-4.964-6.067 0-11.031 4.964-11.031 11.032 0 .735.184 1.654.184 2.39-4.413 1.471-7.539 5.515-7.539 10.48 0 1.103.184 2.022.368 3.125-2.758 3.31-4.045 7.354-4.045 11.583 0 5.884 2.758 11.215 7.355 14.709 0 2.022.551 4.045 1.654 5.883-1.103 1.839-1.654 3.861-1.654 6.067a11.927 11.927 0 0 0 11.95 11.951 10.43 10.43 0 0 0 3.31-.551c2.022 2.574 5.148 4.228 8.641 4.228 4.78 0 8.825-2.941 10.296-7.354 1.47.184 2.942.184 4.413-.184a13.635 13.635 0 0 0 9.744 4.045c4.229 0 8.457-1.839 12.135-5.516l7.722-7.722c6.618-6.802 7.538-15.26 2.206-21.327ZM85.494 424.36c-2.574 0-4.964-1.287-6.251-3.677-.552-.735-1.471-1.103-2.39-.735-1.103.367-2.207.735-3.31.735a8.24 8.24 0 0 1-8.273-8.274c0-1.838.551-3.493 1.654-4.964.552-.735.552-1.654 0-2.206-1.103-1.287-1.654-2.942-1.654-4.596v-.736c0-.735-.184-1.287-.736-1.655-4.228-2.757-6.619-7.354-6.619-12.318 0-3.677 1.471-7.17 3.861-9.928.552-.552.552-1.287.368-2.023a7.374 7.374 0 0 1-.551-2.758c0-3.677 2.757-6.802 6.618-7.354.552 0 1.104-.368 1.471-.919.368-.552.368-1.103 0-1.655-.367-.919-.735-2.022-.735-2.942 0-4.044 3.31-7.354 7.354-7.354 3.31 0 6.251 2.206 6.987 5.516.184.735.735 1.287 1.654 1.287.736 0 1.471-.368 1.839-.919 1.839-3.678 5.7-5.884 9.744-5.884 6.068 0 11.032 4.964 11.032 11.032V362.768c0 .552.184 1.287.735 1.655.552.367 1.287.367 1.839.184.919-.368 2.022-.552 2.942-.552 4.044 0 7.354 3.309 7.354 7.354 0 .552 0 1.103-.184 1.655s0 1.287.552 1.655c.367.367 1.103.551 1.654.551.552-.184 1.103-.184 1.655-.184 4.045 0 7.354 3.31 7.354 7.355 0 1.838-.735 3.861-2.022 5.332L104.615 362.4c-2.574-2.574-6.619-2.574-9.009 0-.735.736-1.287 1.471-1.47 2.39l-3.678-3.677c-2.574-2.574-6.619-2.574-9.193 0-.735.736-1.287 1.471-1.47 2.39-2.575-2.39-6.436-2.206-8.826.184-2.39 2.39-2.574 6.435-.184 8.825-.919.368-1.654.92-2.39 1.471-1.287 1.287-1.838 2.758-1.838 4.597 0 1.654.735 3.309 1.838 4.596l11.4 11.399c-.92.368-1.655.736-2.39 1.471-2.575 2.574-2.575 6.619 0 9.193l12.318 12.318c.735.736 1.654 1.471 2.758 2.023-1.287 2.758-3.861 4.78-6.987 4.78Zm41.919-15.812-7.905 7.722c-4.229 4.229-10.296 6.252-15.444 2.574l1.287-1.287c.367-.367.551-.919.551-1.287 0-.367-.184-.919-.551-1.287-.736-.735-1.839-.735-2.574 0-2.942 2.942-7.539 2.942-10.48 0l-12.319-12.318c-1.103-1.103-1.103-2.758 0-3.861 1.103-1.103 2.758-1.103 3.861 0l8.458 8.457c.735.736 1.838.736 2.574 0 .735-.735.735-1.838 0-2.574l-8.458-8.457-15.628-15.628c-.551-.551-.735-1.287-.735-2.022 0-.736.368-1.471.735-2.023 1.104-1.103 2.942-1.103 3.861 0l17.467 17.467c.735.735 1.838.735 2.574 0 .735-.736.735-1.839 0-2.574l-21.328-21.328c-1.103-1.103-1.103-2.758 0-3.861 1.104-1.103 2.758-1.103 3.861 0l3.861 3.861 17.467 17.467c.735.735 1.838.735 2.574 0 .735-.736.735-1.839 0-2.574l-17.65-17.651c-1.104-1.103-.92-2.757 0-3.861 1.103-1.103 2.757-1.103 3.86 0l7.723 7.722 9.744 9.745c.735.735 1.839.735 2.574 0 .735-.736.735-1.839 0-2.574l-9.745-9.745c-1.103-1.103-.919-2.757 0-3.861 1.104-1.103 2.758-1.103 3.862 0l27.21 26.844c5.332 5.331 3.126 12.318-1.287 16.914ZM136.423 258.153h-4.597v4.597h4.597v-4.597ZM38.978 408.181h-4.596v4.596h4.596v-4.596ZM39.162 307.059c4.228 0 7.722-3.493 7.722-7.722 0-4.228-3.494-7.722-7.722-7.722-4.229 0-7.906 3.494-7.906 7.722 0 4.229 3.493 7.722 7.906 7.722Zm0-11.583c2.206 0 3.86 1.839 3.86 3.861 0 2.207-1.838 3.861-3.86 3.861-2.023 0-3.861-1.838-3.861-3.861 0-2.206 1.654-3.861 3.86-3.861ZM162.53 293.822l-5.516-3.126-3.125-5.516c-.552-.919-1.655-1.287-2.574-.735-.368.184-.552.368-.736.735l-3.125 5.516-5.516 3.126c-.919.551-1.287 1.654-.735 2.574.183.367.367.551.735.735l5.516 3.126 3.125 5.515c.552.92 1.655 1.287 2.574.736.368-.184.552-.368.736-.736l3.125-5.515 5.516-3.126c.919-.551 1.287-1.655.735-2.574-.183-.368-.367-.551-.735-.735Zm-7.906 3.309c-.368.184-.552.368-.735.736l-1.655 2.941-1.655-2.941c-.184-.368-.367-.552-.735-.736l-2.942-1.655 2.942-1.654c.368-.184.551-.368.735-.736l1.655-2.941 1.655 2.941c.183.368.367.552.735.736l2.942 1.654-2.942 1.655ZM154.992 400.275l-3.126-5.516c-.551-.919-1.655-1.287-2.574-.735-.368.183-.551.367-.735.735l-3.126 5.516-5.516 3.125c-.919.552-1.287 1.655-.735 2.574.184.368.368.552.735.736l5.516 3.125 3.126 5.516c.551.919 1.654 1.287 2.574.735.367-.183.551-.367.735-.735l3.126-5.516 5.515-3.125c.92-.552 1.287-1.655.736-2.574-.184-.368-.368-.552-.736-.736l-5.515-3.125Zm-2.39 6.435c-.368.184-.552.367-.736.735l-1.655 2.942-1.654-2.942c-.184-.368-.368-.551-.736-.735l-2.941-1.655 2.941-1.655c.368-.184.552-.367.736-.735l1.654-2.942 1.655 2.942c.184.368.368.551.736.735l2.941 1.655-2.941 1.655ZM41.552 263.669l-5.515-3.126-3.126-5.515c-.552-.919-1.655-1.287-2.574-.736-.368.184-.552.368-.735.736l-3.126 5.515-5.516 3.126c-.919.552-1.287 1.655-.735 2.574.184.368.368.552.735.735l5.516 3.126 3.126 5.516c.551.919 1.654 1.287 2.574.735.367-.184.551-.368.735-.735l3.126-5.516 5.515-3.126c.92-.551 1.287-1.654.736-2.574-.184-.367-.552-.551-.736-.735Zm-8.09 3.309c-.367.184-.55.368-.735.736l-1.654 2.942-1.655-2.942c-.184-.368-.368-.552-.736-.736l-2.941-1.654 2.941-1.655c.368-.184.552-.368.736-.735l1.655-2.942 1.654 2.942c.184.367.368.551.736.735l2.941 1.655-2.941 1.654ZM20.777 420.499c5.331 0 9.744-4.412 9.744-9.744s-4.413-9.745-9.744-9.745c-5.332 0-9.745 4.413-9.745 9.745 0 5.332 4.229 9.744 9.745 9.744Zm0-15.628c3.31 0 5.883 2.574 5.883 5.884 0 3.309-2.574 5.883-5.883 5.883-3.31 0-5.884-2.574-5.884-5.883 0-3.31 2.574-5.884 5.884-5.884Z"/></g><g clip-path="url(#b)" fill="#6F8085"><path d="M266.051 295.292c0 11.583 4.596 22.615 12.686 30.888 8.09 8.274 19.305 12.687 30.888 12.687 23.901 0 43.574-19.673 43.574-43.575 0-.919-.735-1.654-1.655-1.654-.919 0-1.654.735-1.654 1.654 0 22.063-18.202 40.265-40.265 40.265-10.848 0-20.96-4.229-28.498-11.767-7.538-7.722-11.767-17.834-11.767-28.498 0-22.062 18.202-40.264 40.265-40.264.919 0 1.655-.736 1.655-1.655s-.552-1.839-1.655-1.839c-23.902 0-43.574 19.673-43.574 43.758Z"/><path d="M280.759 311.104c-1.471-1.471-2.206-3.309-2.206-5.883 0-.368 0-.92.184-1.655l2.206-18.386c.368-2.942 1.471-5.332 3.493-6.986 1.839-1.839 4.229-2.574 7.171-2.574 2.574 0 4.596.735 6.067 2.206s2.206 3.493 2.206 5.883c0 .368 0 .736-.184 1.471l-2.206 18.386c-.368 2.942-1.471 5.148-3.493 6.986-2.023 1.839-4.229 2.574-7.171 2.574-2.574.184-4.596-.551-6.067-2.022Zm9.928-3.677c.92-.919 1.471-2.206 1.655-3.677l2.39-18.754v-.919c0-1.287-.368-2.206-1.103-3.126-.735-.735-1.655-1.103-2.942-1.103-1.287 0-2.39.552-3.309 1.471s-1.471 2.206-1.655 3.677l-2.39 18.754v.919c0 1.287.368 2.206 1.103 2.942.736.735 1.655 1.103 2.758 1.103 1.287.184 2.574-.184 3.493-1.287ZM302.822 310.92c-1.471-1.655-2.207-3.677-2.207-6.251 0-.368 0-.919.184-1.655l3.31-26.475c0-.184 0-.184.183-.368.184-.184.184-.184.368-.184h3.861c.368 0 .552.184.552.552l-3.31 26.843v1.103c0 1.287.368 2.39.92 3.31.735.735 1.654 1.287 2.757 1.287 1.287 0 2.391-.552 3.31-1.471.919-.92 1.471-2.39 1.655-4.045l3.309-26.843c0-.184 0-.184.184-.368s.184-.184.368-.184h3.861c.367 0 .551.184.551.552l-3.309 26.291c-.368 3.126-1.471 5.7-3.494 7.538-2.022 1.839-4.228 2.942-7.17 2.942-2.39-.184-4.413-1.103-5.883-2.574ZM344.373 276.171c0 .184.184.184 0 .368l-.367 3.309c0 .184 0 .184-.184.368s-.184.184-.368.184h-6.619c-.184 0-.184 0-.184.184l-3.861 31.623c0 .368-.183.552-.551.552h-3.861c-.368 0-.552-.184-.368-.552l3.677-31.623c0-.184 0-.184-.184-.184h-6.251c-.367 0-.551-.184-.367-.552l.367-3.309c0-.184.184-.184.184-.368.184-.184.184-.184.368-.184h18.386c0 .184.183.184.183.184ZM239.391 380.051c-.367-1.471-.551-3.126-.551-4.781 0-10.112 8.273-18.385 18.386-18.385 7.722 0 14.34 4.78 17.098 11.583.368-1.655 1.287-3.31 2.39-4.597-3.861-6.619-11.031-11.031-19.305-11.031-12.318 0-22.246 9.928-22.43 22.063l-7.538-1.655-5.332-5.332 2.574-4.964 10.664-10.664h-8.642l.184-.184 31.44-4.412-.184-4.045 8.273-2.39v10.112l15.077 3.861c.367-1.471 1.103-2.758 1.838-3.861l-12.87-3.31v-8.273h33.095l20.775 4.229 4.045 4.044 12.319-4.044-37.139-8.274h-33.095l-28.865 8.274h12.318l-28.865 4.228-4.045 4.045v4.045h4.045l-4.045 4.045-4.045 8.273 8.09 8.458 14.34 2.942Z"/><path d="M270.096 385.75v-.368h-3.126c2.574-2.574 4.229-6.067 4.229-10.112 0-7.906-6.435-14.157-14.157-14.157-7.906 0-14.157 6.435-14.157 14.157 0 3.861 1.655 7.538 4.229 10.112h-26.292v4.045h49.642c-.184-1.103-.368-2.39-.368-3.677Zm-13.054-.368c-5.516 0-10.112-4.412-10.112-10.112 0-5.515 4.596-10.112 10.112-10.112s10.112 4.413 10.112 10.112c0 5.516-4.596 10.112-10.112 10.112Z"/><path d="M257.042 377.109c-.92 0-1.839-.736-1.839-1.839h-4.045c0 3.31 2.574 5.884 5.884 5.884 3.309 0 5.883-2.574 5.883-5.884h-4.045c0 1.103-.919 1.839-1.838 1.839ZM398.795 368.835l-4.045-8.273h-4.228v-4.045l-16.548-8.274h-29.049l-16.547 4.045h-4.78c1.103 1.287 1.838 2.574 2.574 4.045h2.941l16.548-4.045h27.578l13.422 6.619v5.699h5.699l2.574 5.148v1.471l-5.883 5.884h-1.103v-1.839c0-12.318-10.113-22.43-22.431-22.43-11.031 0-20.224 8.089-22.063 18.569 1.471.368 2.758 1.103 3.861 2.023.92-9.377 8.642-16.548 18.202-16.548 10.112 0 18.386 8.274 18.386 18.386 0 2.023-.368 4.045-.92 5.884h16.18v-4.045h-4.045l4.045-4.045v-4.229h-.368Z"/><path d="M379.491 375.27c0-7.906-6.435-14.157-14.157-14.157-7.906 0-14.157 6.435-14.157 14.157 0 3.861 1.655 7.538 4.229 10.112h-4.781c-.551 1.471-1.287 2.942-2.39 4.045h42.287v-4.045h-15.26c2.574-2.574 4.229-6.067 4.229-10.112Zm-14.157 10.112c-5.516 0-10.112-4.412-10.112-10.112 0-5.515 4.596-10.112 10.112-10.112s10.112 4.413 10.112 10.112c-.184 5.516-4.596 10.112-10.112 10.112Z"/><path d="M365.334 377.109c-.919 0-1.839-.736-1.839-1.839h-4.228c0 3.31 2.574 5.884 5.883 5.884s5.883-2.574 5.883-5.884h-4.044c0 1.103-.736 1.839-1.655 1.839ZM347.867 389.979c1.839-2.206 3.126-4.964 3.126-7.906 0-6.067-4.964-11.031-11.032-11.031 0-6.068-4.964-11.032-11.031-11.032-.735 0-1.287 0-2.022.184-.92-7.354-6.987-13.054-14.525-13.054a14.773 14.773 0 0 0-11.032 4.964c-2.022-3.125-5.331-4.964-9.192-4.964-6.068 0-11.032 4.964-11.032 11.032 0 .735.184 1.654.184 2.39-4.413 1.471-7.538 5.515-7.538 10.48 0 1.103.184 2.022.368 3.125-2.758 3.31-4.045 7.354-4.045 11.583 0 5.884 2.758 11.215 7.354 14.709 0 2.022.552 4.045 1.655 5.883-1.103 1.839-1.655 3.861-1.655 6.067a11.927 11.927 0 0 0 11.951 11.951c1.103 0 2.206-.184 3.309-.551 2.023 2.574 5.148 4.228 8.641 4.228 4.781 0 8.826-2.941 10.296-7.354 1.471.184 2.942.184 4.413-.184a13.637 13.637 0 0 0 9.744 4.045c4.229 0 8.458-1.839 12.135-5.516l7.722-7.722c6.619-6.802 7.538-15.26 2.206-21.327Zm-46.516 34.381c-2.574 0-4.964-1.287-6.251-3.677-.551-.735-1.471-1.103-2.39-.735-1.103.367-2.206.735-3.309.735a8.24 8.24 0 0 1-8.274-8.274 8.07 8.07 0 0 1 1.655-4.964c.551-.735.551-1.654 0-2.206-1.103-1.287-1.655-2.942-1.655-4.596v-.736c0-.735-.184-1.287-.735-1.655-4.229-2.757-6.619-7.354-6.619-12.318 0-3.677 1.471-7.17 3.861-9.928.551-.552.551-1.287.368-2.023a7.37 7.37 0 0 1-.552-2.758c0-3.677 2.758-6.802 6.619-7.354.551 0 1.103-.368 1.471-.919.367-.552.367-1.103 0-1.655-.368-.919-.736-2.022-.736-2.942 0-4.044 3.31-7.354 7.355-7.354 3.309 0 6.251 2.206 6.986 5.516.184.735.736 1.287 1.655 1.287.735 0 1.471-.368 1.838-.919 1.839-3.678 5.7-5.884 9.745-5.884 6.067 0 11.031 4.964 11.031 11.032V362.768c0 .552.184 1.287.736 1.655.551.367 1.287.367 1.838.184.92-.368 2.023-.552 2.942-.552 4.045 0 7.354 3.309 7.354 7.354 0 .552 0 1.103-.184 1.655-.183.552 0 1.287.552 1.655.368.367 1.103.551 1.655.551.551-.184 1.103-.184 1.654-.184 4.045 0 7.355 3.31 7.355 7.355 0 1.838-.736 3.861-2.023 5.332l-24.82-25.373c-2.574-2.574-6.619-2.574-9.009 0-.736.736-1.287 1.471-1.471 2.39l-3.677-3.677c-2.574-2.574-6.619-2.574-9.193 0-.736.736-1.287 1.471-1.471 2.39-2.574-2.39-6.435-2.206-8.825.184-2.39 2.39-2.574 6.435-.184 8.825-.919.368-1.655.92-2.39 1.471-1.287 1.287-1.839 2.758-1.839 4.597 0 1.654.736 3.309 1.839 4.596l11.399 11.399c-.919.368-1.655.736-2.39 1.471-2.574 2.574-2.574 6.619 0 9.193l12.318 12.318c.736.736 1.655 1.471 2.758 2.023-1.287 2.758-3.861 4.78-6.987 4.78Zm41.92-15.812-7.906 7.722c-4.229 4.229-10.296 6.252-15.444 2.574l1.287-1.287c.368-.367.552-.919.552-1.287 0-.367-.184-.919-.552-1.287-.735-.735-1.839-.735-2.574 0-2.942 2.942-7.538 2.942-10.48 0l-12.318-12.318c-1.103-1.103-1.103-2.758 0-3.861 1.103-1.103 2.758-1.103 3.861 0l8.457 8.457c.736.736 1.839.736 2.574 0 .736-.735.736-1.838 0-2.574l-8.457-8.457-15.628-15.628c-.552-.551-.736-1.287-.736-2.022 0-.736.368-1.471.736-2.023 1.103-1.103 2.942-1.103 3.861 0l17.466 17.467c.736.735 1.839.735 2.574 0 .736-.736.736-1.839 0-2.574l-21.327-21.328c-1.103-1.103-1.103-2.758 0-3.861 1.103-1.103 2.758-1.103 3.861 0l3.861 3.861 17.466 17.467c.736.735 1.839.735 2.574 0 .736-.736.736-1.839 0-2.574l-17.65-17.651c-1.103-1.103-.919-2.757 0-3.861 1.103-1.103 2.758-1.103 3.861 0l7.722 7.722 9.744 9.745c.736.735 1.839.735 2.574 0 .736-.736.736-1.839 0-2.574l-9.744-9.745c-1.103-1.103-.919-2.757 0-3.861 1.103-1.103 2.758-1.103 3.861 0l27.211 26.844c5.332 5.331 3.125 12.318-1.287 16.914ZM352.28 258.153h-4.596v4.597h4.596v-4.597ZM254.836 408.181h-4.597v4.596h4.597v-4.596ZM255.019 307.059c4.229 0 7.722-3.493 7.722-7.722 0-4.228-3.493-7.722-7.722-7.722-4.229 0-7.906 3.494-7.906 7.722 0 4.229 3.494 7.722 7.906 7.722Zm0-11.583c2.206 0 3.861 1.839 3.861 3.861 0 2.207-1.838 3.861-3.861 3.861-2.022 0-3.861-1.838-3.861-3.861 0-2.206 1.655-3.861 3.861-3.861ZM378.387 293.822l-5.515-3.126-3.126-5.516c-.552-.919-1.655-1.287-2.574-.735-.368.184-.551.368-.735.735l-3.126 5.516-5.516 3.126c-.919.551-1.287 1.654-.735 2.574.184.367.368.551.735.735l5.516 3.126 3.126 5.515c.551.92 1.654 1.287 2.574.736.367-.184.551-.368.735-.736l3.126-5.515 5.515-3.126c.92-.551 1.287-1.655.736-2.574-.184-.368-.368-.551-.736-.735Zm-7.906 3.309c-.367.184-.551.368-.735.736l-1.655 2.941-1.654-2.941c-.184-.368-.368-.552-.736-.736l-2.941-1.655 2.941-1.654c.368-.184.552-.368.736-.736l1.654-2.941 1.655 2.941c.184.368.368.552.735.736l2.942 1.654-2.942 1.655ZM370.849 400.275l-3.125-5.516c-.552-.919-1.655-1.287-2.574-.735-.368.183-.552.367-.736.735l-3.125 5.516-5.516 3.125c-.919.552-1.287 1.655-.736 2.574.184.368.368.552.736.736l5.516 3.125 3.125 5.516c.552.919 1.655 1.287 2.574.735.368-.183.552-.367.736-.735l3.125-5.516 5.516-3.125c.919-.552 1.287-1.655.735-2.574-.184-.368-.367-.552-.735-.736l-5.516-3.125Zm-2.39 6.435c-.368.184-.552.367-.735.735l-1.655 2.942-1.655-2.942c-.184-.368-.368-.551-.735-.735l-2.942-1.655 2.942-1.655c.367-.184.551-.367.735-.735l1.655-2.942 1.655 2.942c.183.368.367.551.735.735l2.942 1.655-2.942 1.655ZM257.41 263.669l-5.516-3.126-3.125-5.515c-.552-.919-1.655-1.287-2.574-.736-.368.184-.552.368-.736.736l-3.125 5.515-5.516 3.126c-.919.552-1.287 1.655-.736 2.574.184.368.368.552.736.735l5.516 3.126 3.125 5.516c.552.919 1.655 1.287 2.574.735.368-.184.552-.368.736-.735l3.125-5.516 5.516-3.126c.919-.551 1.287-1.654.735-2.574-.184-.367-.551-.551-.735-.735Zm-8.09 3.309c-.368.184-.551.368-.735.736l-1.655 2.942-1.655-2.942c-.184-.368-.367-.552-.735-.736l-2.942-1.654 2.942-1.655c.368-.184.551-.368.735-.735l1.655-2.942 1.655 2.942c.184.367.367.551.735.735l2.942 1.655-2.942 1.654ZM236.634 420.499c5.332 0 9.744-4.412 9.744-9.744s-4.412-9.745-9.744-9.745-9.744 4.413-9.744 9.745c0 5.332 4.228 9.744 9.744 9.744Zm0-15.628c3.31 0 5.883 2.574 5.883 5.884 0 3.309-2.573 5.883-5.883 5.883-3.309 0-5.883-2.574-5.883-5.883 0-3.31 2.574-5.884 5.883-5.884Z"/></g><g clip-path="url(#c)" fill="#6F8085"><path d="M481.907 295.292c0 11.583 4.597 22.615 12.686 30.888 8.09 8.274 19.305 12.687 30.888 12.687 23.902 0 43.574-19.673 43.574-43.575 0-.919-.735-1.654-1.654-1.654-.92 0-1.655.735-1.655 1.654 0 22.063-18.202 40.265-40.265 40.265-10.847 0-20.959-4.229-28.497-11.767-7.539-7.722-11.767-17.834-11.767-28.498 0-22.062 18.202-40.264 40.264-40.264.92 0 1.655-.736 1.655-1.655s-.552-1.839-1.655-1.839c-23.901 0-43.574 19.673-43.574 43.758Z"/><path d="M509.67 312.759c0-.184-.184-.184 0-.368l4.412-35.668c0-.184.184-.184.184-.368.184-.184.184-.184.368-.184h3.861c.367 0 .551.184.551.552l-4.596 35.668c0 .368-.184.552-.552.552h-3.861c-.184-.184-.367-.184-.367-.184ZM538.167 276.171h3.861c.184 0 .184 0 .368.184 0 .184.184.184 0 .368l-4.413 35.668c0 .368-.183.552-.551.552h-4.413c-.367 0-.367-.184-.551-.368l-5.7-24.085s0-.184-.184 0c0 0-.184 0-.184.184l-2.941 23.901c0 .368-.184.552-.552.552h-3.861c-.184 0-.184 0-.368-.184 0-.184-.183-.184 0-.368l4.413-35.668c0-.184.184-.184.184-.368.184-.184.184-.184.368-.184h4.412c.184 0 .368.184.552.368l5.699 24.085c0 .184 0 .184.184.184s.184 0 .184-.184l2.942-23.901c.184-.736.367-.736.551-.736ZM455.248 380.051c-.368-1.471-.552-3.126-.552-4.781 0-10.112 8.274-18.385 18.386-18.385 7.722 0 14.341 4.78 17.099 11.583.367-1.655 1.287-3.31 2.39-4.597-3.861-6.619-11.031-11.031-19.305-11.031-12.318 0-22.247 9.928-22.431 22.063l-7.538-1.655-5.332-5.332 2.574-4.964 10.664-10.664h-8.641l.184-.184 31.439-4.412-.184-4.045 8.274-2.39v10.112l15.076 3.861c.368-1.471 1.103-2.758 1.839-3.861l-12.87-3.31v-8.273h33.094l20.776 4.229 4.045 4.044 12.318-4.044-37.139-8.274H486.32l-28.866 8.274h12.319l-28.866 4.228-4.045 4.045v4.045h4.045l-4.045 4.045-4.045 8.273 8.09 8.458 14.341 2.942Z"/><path d="M485.952 385.75v-.368h-3.125c2.574-2.574 4.229-6.067 4.229-10.112 0-7.906-6.435-14.157-14.157-14.157-7.906 0-14.157 6.435-14.157 14.157 0 3.861 1.654 7.538 4.228 10.112h-26.291v4.045h49.641c-.184-1.103-.368-2.39-.368-3.677Zm-13.053-.368c-5.516 0-10.113-4.412-10.113-10.112 0-5.515 4.597-10.112 10.113-10.112 5.515 0 10.112 4.413 10.112 10.112 0 5.516-4.597 10.112-10.112 10.112Z"/><path d="M472.898 377.109c-.919 0-1.838-.736-1.838-1.839h-4.045c0 3.31 2.574 5.884 5.883 5.884 3.31 0 5.884-2.574 5.884-5.884h-4.045c0 1.103-.92 1.839-1.839 1.839ZM614.652 368.835l-4.045-8.273h-4.229v-4.045l-16.547-8.274h-29.049l-16.548 4.045h-4.78c1.103 1.287 1.839 2.574 2.574 4.045h2.942l16.547-4.045h27.579l13.421 6.619v5.699h5.7l2.574 5.148v1.471l-5.884 5.884h-1.103v-1.839c0-12.318-10.112-22.43-22.43-22.43-11.032 0-20.225 8.089-22.063 18.569 1.471.368 2.758 1.103 3.861 2.023.919-9.377 8.641-16.548 18.202-16.548 10.112 0 18.385 8.274 18.385 18.386 0 2.023-.367 4.045-.919 5.884h16.179v-4.045h-4.044l4.044-4.045v-4.229h-.367Z"/><path d="M595.348 375.27c0-7.906-6.435-14.157-14.157-14.157-7.906 0-14.157 6.435-14.157 14.157 0 3.861 1.654 7.538 4.228 10.112h-4.78c-.552 1.471-1.287 2.942-2.39 4.045h42.287v-4.045h-15.26c2.574-2.574 4.229-6.067 4.229-10.112Zm-14.157 10.112c-5.516 0-10.113-4.412-10.113-10.112 0-5.515 4.597-10.112 10.113-10.112 5.515 0 10.112 4.413 10.112 10.112-.184 5.516-4.597 10.112-10.112 10.112Z"/><path d="M581.19 377.109c-.919 0-1.838-.736-1.838-1.839h-4.229c0 3.31 2.574 5.884 5.883 5.884 3.31 0 5.884-2.574 5.884-5.884h-4.045c0 1.103-.735 1.839-1.655 1.839ZM563.724 389.979c1.838-2.206 3.125-4.964 3.125-7.906 0-6.067-4.964-11.031-11.031-11.031 0-6.068-4.964-11.032-11.032-11.032-.735 0-1.287 0-2.022.184-.919-7.354-6.987-13.054-14.525-13.054a14.773 14.773 0 0 0-11.031 4.964c-2.023-3.125-5.332-4.964-9.193-4.964-6.067 0-11.031 4.964-11.031 11.032 0 .735.183 1.654.183 2.39-4.412 1.471-7.538 5.515-7.538 10.48 0 1.103.184 2.022.368 3.125-2.758 3.31-4.045 7.354-4.045 11.583 0 5.884 2.758 11.215 7.354 14.709 0 2.022.552 4.045 1.655 5.883-1.103 1.839-1.655 3.861-1.655 6.067a11.927 11.927 0 0 0 11.951 11.951c1.103 0 2.206-.184 3.31-.551 2.022 2.574 5.148 4.228 8.641 4.228 4.78 0 8.825-2.941 10.296-7.354 1.471.184 2.942.184 4.412-.184a13.639 13.639 0 0 0 9.745 4.045c4.229 0 8.457-1.839 12.134-5.516l7.722-7.722c6.619-6.802 7.539-15.26 2.207-21.327Zm-46.516 34.381c-2.574 0-4.964-1.287-6.251-3.677-.552-.735-1.471-1.103-2.39-.735-1.104.367-2.207.735-3.31.735a8.239 8.239 0 0 1-8.273-8.274c0-1.838.551-3.493 1.654-4.964.552-.735.552-1.654 0-2.206-1.103-1.287-1.654-2.942-1.654-4.596v-.736c0-.735-.184-1.287-.736-1.655-4.229-2.757-6.619-7.354-6.619-12.318 0-3.677 1.471-7.17 3.861-9.928.552-.552.552-1.287.368-2.023a7.37 7.37 0 0 1-.552-2.758c0-3.677 2.758-6.802 6.619-7.354.552 0 1.103-.368 1.471-.919.368-.552.368-1.103 0-1.655-.368-.919-.735-2.022-.735-2.942 0-4.044 3.309-7.354 7.354-7.354 3.309 0 6.251 2.206 6.987 5.516.183.735.735 1.287 1.654 1.287.736 0 1.471-.368 1.839-.919 1.838-3.678 5.699-5.884 9.744-5.884 6.068 0 11.032 4.964 11.032 11.032V362.768c0 .552.184 1.287.735 1.655.552.367 1.287.367 1.839.184.919-.368 2.022-.552 2.941-.552 4.045 0 7.355 3.309 7.355 7.354 0 .552 0 1.103-.184 1.655s0 1.287.551 1.655c.368.367 1.104.551 1.655.551.552-.184 1.103-.184 1.655-.184 4.045 0 7.354 3.31 7.354 7.355 0 1.838-.735 3.861-2.022 5.332L536.329 362.4c-2.574-2.574-6.619-2.574-9.009 0-.735.736-1.287 1.471-1.471 2.39l-3.677-3.677c-2.574-2.574-6.619-2.574-9.193 0-.735.736-1.287 1.471-1.471 2.39-2.574-2.39-6.435-2.206-8.825.184-2.39 2.39-2.574 6.435-.184 8.825-.919.368-1.654.92-2.39 1.471-1.287 1.287-1.838 2.758-1.838 4.597 0 1.654.735 3.309 1.838 4.596l11.399 11.399c-.919.368-1.654.736-2.39 1.471-2.574 2.574-2.574 6.619 0 9.193l12.319 12.318c.735.736 1.654 1.471 2.757 2.023-1.287 2.758-3.861 4.78-6.986 4.78Zm41.919-15.812-7.906 7.722c-4.228 4.229-10.296 6.252-15.444 2.574l1.287-1.287c.368-.367.552-.919.552-1.287 0-.367-.184-.919-.552-1.287-.735-.735-1.838-.735-2.574 0-2.941 2.942-7.538 2.942-10.479 0l-12.319-12.318c-1.103-1.103-1.103-2.758 0-3.861 1.103-1.103 2.758-1.103 3.861 0l8.458 8.457c.735.736 1.838.736 2.574 0 .735-.735.735-1.838 0-2.574l-8.458-8.457-15.628-15.628c-.551-.551-.735-1.287-.735-2.022 0-.736.368-1.471.735-2.023 1.103-1.103 2.942-1.103 3.861 0l17.467 17.467c.735.735 1.838.735 2.574 0 .735-.736.735-1.839 0-2.574l-21.328-21.328c-1.103-1.103-1.103-2.758 0-3.861 1.103-1.103 2.758-1.103 3.861 0l3.861 3.861 17.467 17.467c.735.735 1.838.735 2.574 0 .735-.736.735-1.839 0-2.574l-17.651-17.651c-1.103-1.103-.919-2.757 0-3.861 1.104-1.103 2.758-1.103 3.861 0l7.722 7.722 9.745 9.745c.735.735 1.838.735 2.574 0 .735-.736.735-1.839 0-2.574l-9.745-9.745c-1.103-1.103-.919-2.757 0-3.861 1.104-1.103 2.758-1.103 3.861 0l27.211 26.844c5.332 5.331 3.126 12.318-1.287 16.914ZM568.136 258.153h-4.596v4.597h4.596v-4.597ZM470.692 408.181h-4.596v4.596h4.596v-4.596ZM470.876 307.059c4.228 0 7.722-3.493 7.722-7.722 0-4.228-3.494-7.722-7.722-7.722-4.229 0-7.906 3.494-7.906 7.722 0 4.229 3.493 7.722 7.906 7.722Zm0-11.583c2.206 0 3.861 1.839 3.861 3.861 0 2.207-1.839 3.861-3.861 3.861-2.023 0-3.861-1.838-3.861-3.861 0-2.206 1.654-3.861 3.861-3.861ZM594.244 293.822l-5.516-3.126-3.125-5.516c-.552-.919-1.655-1.287-2.574-.735-.368.184-.552.368-.736.735l-3.125 5.516-5.516 3.126c-.919.551-1.287 1.654-.736 2.574.184.367.368.551.736.735l5.516 3.126 3.125 5.515c.552.92 1.655 1.287 2.574.736.368-.184.552-.368.736-.736l3.125-5.515 5.516-3.126c.919-.551 1.287-1.655.735-2.574-.184-.368-.367-.551-.735-.735Zm-7.906 3.309c-.368.184-.552.368-.735.736l-1.655 2.941-1.655-2.941c-.184-.368-.368-.552-.735-.736l-2.942-1.655 2.942-1.654c.367-.184.551-.368.735-.736l1.655-2.941 1.655 2.941c.183.368.367.552.735.736l2.942 1.654-2.942 1.655ZM586.706 400.275l-3.126-5.516c-.552-.919-1.655-1.287-2.574-.735-.368.183-.552.367-.735.735l-3.126 5.516-5.516 3.125c-.919.552-1.287 1.655-.735 2.574.184.368.368.552.735.736l5.516 3.125 3.126 5.516c.551.919 1.654 1.287 2.574.735.367-.183.551-.367.735-.735l3.126-5.516 5.515-3.125c.92-.552 1.287-1.655.736-2.574-.184-.368-.368-.552-.736-.736l-5.515-3.125Zm-2.391 6.435c-.367.184-.551.367-.735.735l-1.655 2.942-1.654-2.942c-.184-.368-.368-.551-.736-.735l-2.942-1.655 2.942-1.655c.368-.184.552-.367.736-.735l1.654-2.942 1.655 2.942c.184.368.368.551.735.735l2.942 1.655-2.942 1.655ZM473.266 263.669l-5.515-3.126-3.126-5.515c-.552-.919-1.655-1.287-2.574-.736-.368.184-.552.368-.735.736l-3.126 5.515-5.516 3.126c-.919.552-1.287 1.655-.735 2.574.184.368.368.552.735.735l5.516 3.126 3.126 5.516c.551.919 1.654 1.287 2.574.735.367-.184.551-.368.735-.735l3.126-5.516 5.515-3.126c.92-.551 1.287-1.654.736-2.574-.184-.367-.552-.551-.736-.735Zm-8.089 3.309c-.368.184-.552.368-.736.736l-1.655 2.942-1.654-2.942c-.184-.368-.368-.552-.736-.736l-2.941-1.654 2.941-1.655c.368-.184.552-.368.736-.735l1.654-2.942 1.655 2.942c.184.367.368.551.736.735l2.941 1.655-2.941 1.654ZM452.491 420.499c5.331 0 9.744-4.412 9.744-9.744s-4.413-9.745-9.744-9.745c-5.332 0-9.745 4.413-9.745 9.745 0 5.332 4.229 9.744 9.745 9.744Zm0-15.628c3.309 0 5.883 2.574 5.883 5.884 0 3.309-2.574 5.883-5.883 5.883-3.31 0-5.884-2.574-5.884-5.883 0-3.31 2.574-5.884 5.884-5.884Z"/></g><path d="M697.765 295.292c0 11.583 4.596 22.615 12.686 30.888 8.09 8.274 19.305 12.687 30.888 12.687 23.901 0 43.574-19.673 43.574-43.575 0-.919-.736-1.654-1.655-1.654s-1.655.735-1.655 1.654c0 22.063-18.201 40.265-40.264 40.265-10.848 0-20.96-4.229-28.498-11.767-7.538-7.722-11.767-17.834-11.767-28.498 0-22.062 18.202-40.264 40.265-40.264.919 0 1.654-.736 1.654-1.655s-.551-1.839-1.654-1.839c-23.902 0-43.574 19.673-43.574 43.758Z" fill="#6F8085"/><path d="M730.124 280.4h-11.767v.184l-1.287 11.399c0 .184 0 .184.184.184h6.986c.368 0 .552.184.368.551l-.368 3.31c0 .184 0 .184-.184.367-.184.184-.183.184-.367.184h-6.987c-.184 0-.184 0-.184.184l-1.287 11.399v.184h11.399c.368 0 .552.184.552.552l-.368 3.309c0 .368-.184.552-.551.552h-16.18c-.184 0-.184 0-.367-.184 0-.184-.184-.184 0-.368l4.412-35.668c0-.184.184-.184.184-.368.184-.184.184-.184.368-.184h15.995c.368 0 .552.184.368.552l-.368 3.309c0 .368-.184.552-.551.552ZM749.245 276.171h3.861c.184 0 .184 0 .368.184 0 .184.184.184 0 .368l-4.413 35.668c0 .368-.184.552-.551.552h-4.413c-.368 0-.368-.184-.551-.368l-5.7-24.085s0-.184-.184 0c0 0-.184 0-.184.183l-2.941 23.902c0 .368-.184.551-.552.551h-3.677c-.184 0-.184 0-.368-.183 0-.184-.184-.184 0-.368l4.413-35.668c0-.184.184-.184.184-.368.183-.184.183-.184.367-.184h4.413c.184 0 .368.184.551.368l5.7 24.085c0 .184 0 .184.184.184 0 0 .184 0 .184-.184l2.941-23.901c-.183-.736 0-.736.368-.736ZM755.864 311.104c-1.471-1.471-2.207-3.309-2.207-5.7 0-.367 0-.919.184-1.47l2.39-19.305c.368-2.758 1.471-4.964 3.31-6.619 1.838-1.655 4.228-2.574 6.986-2.574 2.574 0 4.413.735 5.884 2.022 1.471 1.471 2.206 3.31 2.206 5.7 0 .368 0 .735-.184 1.471l-.368 2.206c0 .184 0 .184-.184.368-.183.183-.183.183-.367.183h-3.861c-.368 0-.552-.183-.552-.551l.368-2.39v-.919c0-1.104-.368-2.207-1.103-2.942-.736-.736-1.655-1.103-2.758-1.103-1.287 0-2.39.367-3.309 1.287-.92.919-1.471 2.022-1.655 3.493l-2.39 19.305v.919c0 1.287.367 2.206.919 2.942.735.735 1.655 1.103 2.758 1.103 1.287 0 2.39-.368 3.309-1.287.92-.919 1.471-2.022 1.655-3.493l.735-5.7c0-.184 0-.184-.183-.184h-3.861c-.368 0-.552-.184-.368-.551l.368-3.31c0-.367.183-.551.551-.551h8.458c.367 0 .551.184.551.551l-1.287 9.745c-.368 2.758-1.471 4.964-3.309 6.619-1.839 1.654-4.229 2.574-6.987 2.574-2.206.367-4.229-.368-5.699-1.839ZM671.105 380.051c-.367-1.471-.551-3.126-.551-4.781 0-10.112 8.273-18.385 18.386-18.385 7.721 0 14.34 4.78 17.098 11.583.368-1.655 1.287-3.31 2.39-4.597-3.861-6.619-11.031-11.031-19.305-11.031-12.318 0-22.246 9.928-22.43 22.063l-7.538-1.655-5.332-5.332 2.574-4.964 10.664-10.664h-8.642l.184-.184 31.44-4.412-.184-4.045 8.273-2.39v10.112l15.077 3.861c.367-1.471 1.103-2.758 1.838-3.861l-12.87-3.31v-8.273h33.094l20.776 4.229 4.045 4.044 12.319-4.044-37.14-8.274h-33.094l-28.865 8.274h12.318l-28.865 4.228-4.045 4.045v4.045h4.045l-4.045 4.045-4.045 8.273 8.09 8.458 14.34 2.942Z" fill="#6F8085"/><path d="M701.81 385.75v-.368h-3.126c2.574-2.574 4.229-6.067 4.229-10.112 0-7.906-6.435-14.157-14.157-14.157-7.906 0-14.157 6.435-14.157 14.157 0 3.861 1.655 7.538 4.229 10.112h-26.292v4.045h49.642c-.184-1.103-.368-2.39-.368-3.677Zm-13.054-.368c-5.516 0-10.112-4.412-10.112-10.112 0-5.515 4.596-10.112 10.112-10.112s10.112 4.413 10.112 10.112c0 5.516-4.596 10.112-10.112 10.112Z" fill="#6F8085"/><path d="M688.755 377.109c-.919 0-1.838-.736-1.838-1.839h-4.045c0 3.31 2.574 5.884 5.883 5.884 3.31 0 5.884-2.574 5.884-5.884h-4.045c0 1.103-.919 1.839-1.839 1.839ZM830.509 368.835l-4.045-8.273h-4.228v-4.045l-16.548-8.274h-29.049l-16.547 4.045h-4.78c1.103 1.287 1.838 2.574 2.574 4.045h2.941l16.547-4.045h27.579l13.422 6.619v5.699h5.699l2.574 5.148v1.471l-5.883 5.884h-1.104v-1.839c0-12.318-10.112-22.43-22.43-22.43-11.031 0-20.224 8.089-22.063 18.569 1.471.368 2.758 1.103 3.861 2.023.919-9.377 8.641-16.548 18.202-16.548 10.112 0 18.386 8.274 18.386 18.386 0 2.023-.368 4.045-.92 5.884h16.18v-4.045h-4.045l4.045-4.045v-4.229h-.368Z" fill="#6F8085"/><path d="M811.205 375.27c0-7.906-6.435-14.157-14.157-14.157-7.906 0-14.157 6.435-14.157 14.157 0 3.861 1.655 7.538 4.229 10.112h-4.781c-.551 1.471-1.287 2.942-2.39 4.045h42.287v-4.045h-15.26c2.574-2.574 4.229-6.067 4.229-10.112Zm-14.157 10.112c-5.516 0-10.112-4.412-10.112-10.112 0-5.515 4.596-10.112 10.112-10.112s10.112 4.413 10.112 10.112c-.184 5.516-4.596 10.112-10.112 10.112Z" fill="#6F8085"/><path d="M797.048 377.109c-.92 0-1.839-.736-1.839-1.839h-4.229c0 3.31 2.574 5.884 5.884 5.884 3.309 0 5.883-2.574 5.883-5.884h-4.045c0 1.103-.735 1.839-1.654 1.839ZM779.581 389.979c1.839-2.206 3.126-4.964 3.126-7.906 0-6.067-4.964-11.031-11.032-11.031 0-6.068-4.964-11.032-11.031-11.032-.736 0-1.287 0-2.023.184-.919-7.354-6.986-13.054-14.524-13.054a14.773 14.773 0 0 0-11.032 4.964c-2.022-3.125-5.332-4.964-9.193-4.964-6.067 0-11.031 4.964-11.031 11.032 0 .735.184 1.654.184 2.39-4.413 1.471-7.538 5.515-7.538 10.48 0 1.103.184 2.022.367 3.125-2.757 3.31-4.044 7.354-4.044 11.583 0 5.884 2.757 11.215 7.354 14.709 0 2.022.551 4.045 1.655 5.883-1.104 1.839-1.655 3.861-1.655 6.067a11.927 11.927 0 0 0 11.951 11.951c1.103 0 2.206-.184 3.309-.551 2.022 2.574 5.148 4.228 8.641 4.228 4.781 0 8.825-2.941 10.296-7.354 1.471.184 2.942.184 4.413-.184a13.637 13.637 0 0 0 9.744 4.045c4.229 0 8.458-1.839 12.135-5.516l7.722-7.722c6.619-6.802 7.538-15.26 2.206-21.327Zm-46.516 34.381c-2.574 0-4.964-1.287-6.251-3.677-.551-.735-1.471-1.103-2.39-.735-1.103.367-2.206.735-3.309.735a8.24 8.24 0 0 1-8.274-8.274 8.07 8.07 0 0 1 1.655-4.964c.551-.735.551-1.654 0-2.206-1.103-1.287-1.655-2.942-1.655-4.596v-.736c0-.735-.184-1.287-.735-1.655-4.229-2.757-6.619-7.354-6.619-12.318 0-3.677 1.471-7.17 3.861-9.928.551-.552.551-1.287.367-2.023a7.387 7.387 0 0 1-.551-2.758c0-3.677 2.758-6.802 6.619-7.354.551 0 1.103-.368 1.471-.919.367-.552.367-1.103 0-1.655-.368-.919-.736-2.022-.736-2.942 0-4.044 3.31-7.354 7.354-7.354 3.31 0 6.252 2.206 6.987 5.516.184.735.735 1.287 1.655 1.287.735 0 1.471-.368 1.838-.919 1.839-3.678 5.7-5.884 9.745-5.884 6.067 0 11.031 4.964 11.031 11.032V362.768c0 .552.184 1.287.736 1.655.551.367 1.287.367 1.838.184.919-.368 2.023-.552 2.942-.552 4.045 0 7.354 3.309 7.354 7.354 0 .552 0 1.103-.184 1.655s0 1.287.552 1.655c.368.367 1.103.551 1.655.551.551-.184 1.103-.184 1.654-.184 4.045 0 7.355 3.31 7.355 7.355 0 1.838-.736 3.861-2.023 5.332L752.186 362.4c-2.574-2.574-6.618-2.574-9.009 0-.735.736-1.287 1.471-1.47 2.39l-3.678-3.677c-2.574-2.574-6.618-2.574-9.192 0-.736.736-1.287 1.471-1.471 2.39-2.574-2.39-6.435-2.206-8.825.184-2.391 2.39-2.574 6.435-.184 8.825-.92.368-1.655.92-2.39 1.471-1.287 1.287-1.839 2.758-1.839 4.597 0 1.654.735 3.309 1.839 4.596l11.399 11.399c-.92.368-1.655.736-2.39 1.471-2.574 2.574-2.574 6.619 0 9.193l12.318 12.318c.735.736 1.655 1.471 2.758 2.023-1.287 2.758-3.861 4.78-6.987 4.78Zm41.92-15.812-7.906 7.722c-4.229 4.229-10.296 6.252-15.444 2.574l1.287-1.287c.368-.367.551-.919.551-1.287 0-.367-.183-.919-.551-1.287-.736-.735-1.839-.735-2.574 0-2.942 2.942-7.538 2.942-10.48 0l-12.318-12.318c-1.104-1.103-1.104-2.758 0-3.861 1.103-1.103 2.757-1.103 3.861 0l8.457 8.457c.735.736 1.839.736 2.574 0 .735-.735.735-1.838 0-2.574l-8.457-8.457-15.628-15.628c-.552-.551-.736-1.287-.736-2.022 0-.736.368-1.471.736-2.023 1.103-1.103 2.941-1.103 3.861 0l17.466 17.467c.736.735 1.839.735 2.574 0 .736-.736.736-1.839 0-2.574l-21.327-21.328c-1.103-1.103-1.103-2.758 0-3.861 1.103-1.103 2.758-1.103 3.861 0l3.861 3.861 17.466 17.467c.736.735 1.839.735 2.574 0 .736-.736.736-1.839 0-2.574l-17.65-17.651c-1.103-1.103-.919-2.757 0-3.861 1.103-1.103 2.758-1.103 3.861 0l7.722 7.722 9.744 9.745c.736.735 1.839.735 2.574 0 .736-.736.736-1.839 0-2.574l-9.744-9.745c-1.103-1.103-.919-2.757 0-3.861 1.103-1.103 2.758-1.103 3.861 0l27.211 26.844c5.332 5.331 3.125 12.318-1.287 16.914ZM783.994 258.153h-4.597v4.597h4.597v-4.597ZM686.55 408.181h-4.597v4.596h4.597v-4.596ZM686.733 307.059c4.229 0 7.722-3.493 7.722-7.722 0-4.228-3.493-7.722-7.722-7.722-4.229 0-7.906 3.494-7.906 7.722 0 4.229 3.493 7.722 7.906 7.722Zm0-11.583c2.206 0 3.861 1.839 3.861 3.861 0 2.207-1.839 3.861-3.861 3.861-2.022 0-3.861-1.838-3.861-3.861 0-2.206 1.655-3.861 3.861-3.861ZM810.101 293.822l-5.515-3.126-3.126-5.516c-.552-.919-1.655-1.287-2.574-.735-.368.184-.552.368-.735.735l-3.126 5.516-5.516 3.126c-.919.551-1.287 1.654-.735 2.574.184.367.368.551.735.735l5.516 3.126 3.126 5.515c.551.92 1.654 1.287 2.574.736.367-.184.551-.368.735-.736l3.126-5.515 5.515-3.126c.92-.551 1.287-1.655.736-2.574-.184-.368-.368-.551-.736-.735Zm-7.906 3.309c-.367.184-.551.368-.735.736l-1.655 2.941-1.654-2.941c-.184-.368-.368-.552-.736-.736l-2.942-1.655 2.942-1.654c.368-.184.552-.368.736-.736l1.654-2.941 1.655 2.941c.184.368.368.552.735.736l2.942 1.654-2.942 1.655ZM802.563 400.275l-3.126-5.516c-.551-.919-1.654-1.287-2.574-.735-.367.183-.551.367-.735.735l-3.126 5.516-5.515 3.125c-.92.552-1.287 1.655-.736 2.574.184.368.368.552.736.736l5.515 3.125 3.126 5.516c.552.919 1.655 1.287 2.574.735.368-.183.552-.367.735-.735l3.126-5.516 5.516-3.125c.919-.552 1.287-1.655.735-2.574-.184-.368-.368-.552-.735-.736l-5.516-3.125Zm-2.39 6.435c-.368.184-.552.367-.736.735l-1.654 2.942-1.655-2.942c-.184-.368-.368-.551-.735-.735l-2.942-1.655 2.942-1.655c.367-.184.551-.367.735-.735l1.655-2.942 1.654 2.942c.184.368.368.551.736.735l2.942 1.655-2.942 1.655ZM689.124 263.669l-5.516-3.126-3.126-5.515c-.551-.919-1.654-1.287-2.574-.736-.367.184-.551.368-.735.736l-3.126 5.515-5.515 3.126c-.92.552-1.287 1.655-.736 2.574.184.368.368.552.736.735l5.515 3.126 3.126 5.516c.552.919 1.655 1.287 2.574.735.368-.184.552-.368.735-.735l3.126-5.516 5.516-3.126c.919-.551 1.287-1.654.735-2.574-.184-.367-.551-.551-.735-.735Zm-8.09 3.309c-.368.184-.552.368-.735.736l-1.655 2.942-1.655-2.942c-.184-.368-.368-.552-.735-.736l-2.942-1.654 2.942-1.655c.367-.184.551-.368.735-.735l1.655-2.942 1.655 2.942c.183.367.367.551.735.735l2.942 1.655-2.942 1.654ZM668.348 420.499c5.332 0 9.744-4.412 9.744-9.744s-4.412-9.745-9.744-9.745-9.744 4.413-9.744 9.745c0 5.332 4.228 9.744 9.744 9.744Zm0-15.628c3.309 0 5.883 2.574 5.883 5.884 0 3.309-2.574 5.883-5.883 5.883s-5.883-2.574-5.883-5.883c0-3.31 2.574-5.884 5.883-5.884Z" fill="#6F8085"/><g clip-path="url(#d)" fill="#6F8085"><path d="M23.534 627.907c-.368-1.47-.551-3.125-.551-4.78 0-10.112 8.273-18.386 18.385-18.386 7.722 0 14.341 4.781 17.099 11.583.368-1.654 1.287-3.309 2.39-4.596-3.86-6.619-11.031-11.031-19.305-11.031-12.318 0-22.247 9.928-22.43 22.062l-7.539-1.654-5.331-5.332 2.574-4.964 10.663-10.664h-8.641l.184-.184 31.44-4.412-.184-4.045 8.273-2.39v10.112l15.076 3.861c.368-1.471 1.103-2.758 1.839-3.861l-12.87-3.31v-8.273H87.7l20.776 4.228 4.045 4.045 12.318-4.045-37.139-8.273H54.606l-28.866 8.273H38.06L9.193 596.1l-4.045 4.045v4.045h4.045l-4.045 4.045-4.044 8.273 8.09 8.458 14.34 2.941Z"/><path d="M54.239 633.607v-.368h-3.126c2.574-2.574 4.229-6.067 4.229-10.112 0-7.906-6.435-14.157-14.157-14.157-7.906 0-14.157 6.435-14.157 14.157 0 3.861 1.654 7.538 4.228 10.112H4.965v4.045h49.641c-.184-1.103-.367-2.39-.367-3.677Zm-13.054-.368c-5.516 0-10.113-4.412-10.113-10.112 0-5.515 4.597-10.112 10.113-10.112 5.515 0 10.112 4.413 10.112 10.112 0 5.516-4.597 10.112-10.112 10.112Z"/><path d="M41.184 624.966c-.92 0-1.838-.736-1.838-1.839H35.3c0 3.31 2.574 5.884 5.883 5.884 3.31 0 5.884-2.574 5.884-5.884h-4.045c0 1.103-.92 1.839-1.839 1.839ZM182.938 616.692l-4.045-8.273h-4.229v-4.045l-16.547-8.274h-29.049l-16.547 4.045h-4.781c1.103 1.287 1.839 2.574 2.574 4.045h2.942l16.547-4.045h27.579l13.421 6.619v5.699h5.7l2.574 5.148v1.471l-5.884 5.884h-1.103v-1.839c0-12.318-10.112-22.43-22.43-22.43-11.032 0-20.225 8.089-22.063 18.569 1.471.368 2.758 1.103 3.861 2.023.919-9.377 8.641-16.548 18.202-16.548 10.112 0 18.385 8.274 18.385 18.386 0 2.023-.367 4.045-.919 5.884h16.179v-4.045h-4.044l4.044-4.045v-4.229h-.367Z"/><path d="M163.634 623.127c0-7.906-6.435-14.157-14.157-14.157-7.906 0-14.157 6.435-14.157 14.157 0 3.861 1.654 7.538 4.228 10.112h-4.78c-.551 1.471-1.287 2.942-2.39 4.045h42.287v-4.045h-15.26c2.574-2.574 4.229-6.067 4.229-10.112Zm-14.157 10.112c-5.516 0-10.112-4.412-10.112-10.112 0-5.515 4.596-10.112 10.112-10.112 5.515 0 10.112 4.413 10.112 10.112-.184 5.516-4.597 10.112-10.112 10.112Z"/><path d="M149.476 624.966c-.919 0-1.838-.736-1.838-1.839h-4.229c0 3.31 2.574 5.884 5.884 5.884 3.309 0 5.883-2.574 5.883-5.884h-4.045c0 1.103-.735 1.839-1.655 1.839ZM132.01 637.836c1.838-2.207 3.125-4.964 3.125-7.906 0-6.067-4.964-11.032-11.031-11.032 0-6.067-4.964-11.031-11.031-11.031-.736 0-1.287 0-2.023.184-.919-7.354-6.986-13.054-14.525-13.054a14.772 14.772 0 0 0-11.031 4.964c-2.022-3.125-5.332-4.964-9.193-4.964-6.067 0-11.031 4.964-11.031 11.031 0 .736.184 1.655.184 2.391-4.413 1.47-7.539 5.515-7.539 10.479 0 1.104.184 2.023.368 3.126-2.758 3.309-4.045 7.354-4.045 11.583 0 5.883 2.758 11.215 7.355 14.709 0 2.022.551 4.044 1.654 5.883-1.103 1.839-1.654 3.861-1.654 6.067a11.927 11.927 0 0 0 11.95 11.951c1.103 0 2.207-.184 3.31-.552 2.022 2.574 5.148 4.229 8.641 4.229 4.78 0 8.825-2.942 10.296-7.354 1.47.184 2.942.184 4.413-.184a13.635 13.635 0 0 0 9.744 4.045c4.229 0 8.457-1.839 12.135-5.516l7.722-7.722c6.618-6.803 7.538-15.26 2.206-21.327Zm-46.516 34.381c-2.574 0-4.964-1.287-6.251-3.677-.552-.736-1.471-1.103-2.39-.736-1.103.368-2.207.736-3.31.736a8.24 8.24 0 0 1-8.273-8.274c0-1.838.551-3.493 1.654-4.964.552-.735.552-1.655 0-2.206-1.103-1.287-1.654-2.942-1.654-4.597v-.735c0-.735-.184-1.287-.736-1.655-4.228-2.758-6.619-7.354-6.619-12.318 0-3.677 1.471-7.171 3.861-9.928.552-.552.552-1.287.368-2.023a7.374 7.374 0 0 1-.551-2.758c0-3.677 2.757-6.802 6.618-7.354.552 0 1.104-.368 1.471-.919.368-.552.368-1.103 0-1.655-.367-.919-.735-2.022-.735-2.942 0-4.045 3.31-7.354 7.354-7.354 3.31 0 6.251 2.206 6.987 5.516.184.735.735 1.287 1.654 1.287.736 0 1.471-.368 1.839-.92 1.839-3.677 5.7-5.883 9.744-5.883 6.068 0 11.032 4.964 11.032 11.031v.736c0 .551.184 1.287.735 1.655.552.367 1.287.367 1.839.183.919-.367 2.022-.551 2.942-.551 4.044 0 7.354 3.309 7.354 7.354 0 .552 0 1.103-.184 1.655-.184.551 0 1.287.552 1.655.367.367 1.103.551 1.654.551.552-.184 1.103-.184 1.655-.184 4.045 0 7.354 3.31 7.354 7.355 0 1.838-.735 3.861-2.022 5.331l-24.821-25.372c-2.574-2.574-6.619-2.574-9.009 0-.735.736-1.287 1.471-1.47 2.39l-3.678-3.677c-2.574-2.574-6.619-2.574-9.193 0-.735.736-1.287 1.471-1.47 2.39-2.575-2.39-6.436-2.206-8.826.184-2.39 2.39-2.574 6.435-.184 8.825-.919.368-1.654.92-2.39 1.471-1.287 1.287-1.838 2.758-1.838 4.597 0 1.654.735 3.309 1.838 4.596l11.4 11.399c-.92.368-1.655.736-2.39 1.471-2.575 2.574-2.575 6.619 0 9.193l12.318 12.318c.735.736 1.654 1.471 2.758 2.023-1.287 2.758-3.861 4.78-6.987 4.78Zm41.919-15.812-7.905 7.722c-4.229 4.229-10.296 6.251-15.444 2.574l1.287-1.287c.367-.367.551-.919.551-1.287 0-.367-.184-.919-.551-1.287-.736-.735-1.839-.735-2.574 0-2.942 2.942-7.539 2.942-10.48 0l-12.319-12.318c-1.103-1.103-1.103-2.758 0-3.861 1.103-1.103 2.758-1.103 3.861 0l8.458 8.457c.735.736 1.838.736 2.574 0 .735-.735.735-1.838 0-2.574l-8.458-8.457-15.628-15.628c-.551-.552-.735-1.287-.735-2.022 0-.736.368-1.471.735-2.023 1.104-1.103 2.942-1.103 3.861 0l17.467 17.467c.735.735 1.838.735 2.574 0 .735-.736.735-1.839 0-2.574l-21.328-21.328c-1.103-1.103-1.103-2.758 0-3.861 1.104-1.103 2.758-1.103 3.861 0l3.861 3.861 17.467 17.467c.735.735 1.838.735 2.574 0 .735-.736.735-1.839 0-2.574l-17.65-17.651c-1.104-1.103-.92-2.758 0-3.861 1.103-1.103 2.757-1.103 3.86 0l7.723 7.722 9.744 9.745c.735.735 1.839.735 2.574 0 .735-.736.735-1.839 0-2.574l-9.745-9.745c-1.103-1.103-.919-2.758 0-3.861 1.104-1.103 2.758-1.103 3.862 0l27.21 26.843c5.332 5.332 3.126 12.319-1.287 16.915ZM136.423 506.01h-4.597v4.597h4.597v-4.597ZM38.978 656.038h-4.596v4.596h4.596v-4.596ZM39.162 554.916c4.228 0 7.722-3.493 7.722-7.722 0-4.229-3.494-7.722-7.722-7.722-4.229 0-7.906 3.493-7.906 7.722 0 4.229 3.493 7.722 7.906 7.722Zm0-11.583c2.206 0 3.86 1.839 3.86 3.861 0 2.206-1.838 3.861-3.86 3.861-2.023 0-3.861-1.838-3.861-3.861 0-2.206 1.654-3.861 3.86-3.861ZM162.53 541.679l-5.516-3.126-3.125-5.516c-.552-.919-1.655-1.287-2.574-.735-.368.184-.552.368-.736.735l-3.125 5.516-5.516 3.126c-.919.551-1.287 1.654-.735 2.574.183.367.367.551.735.735l5.516 3.126 3.125 5.515c.552.92 1.655 1.287 2.574.736.368-.184.552-.368.736-.736l3.125-5.515 5.516-3.126c.919-.552 1.287-1.655.735-2.574-.183-.368-.367-.552-.735-.735Zm-7.906 3.309c-.368.184-.552.368-.735.735l-1.655 2.942-1.655-2.942c-.184-.367-.367-.551-.735-.735l-2.942-1.655 2.942-1.654c.368-.184.551-.368.735-.736l1.655-2.942 1.655 2.942c.183.368.367.552.735.736l2.942 1.654-2.942 1.655ZM154.992 648.132l-3.126-5.516c-.551-.919-1.655-1.287-2.574-.736-.368.184-.551.368-.735.736l-3.126 5.516-5.516 3.125c-.919.552-1.287 1.655-.735 2.574.184.368.368.552.735.736l5.516 3.125 3.126 5.516c.551.919 1.654 1.287 2.574.735.367-.184.551-.367.735-.735l3.126-5.516 5.515-3.125c.92-.552 1.287-1.655.736-2.574-.184-.368-.368-.552-.736-.736l-5.515-3.125Zm-2.39 6.435c-.368.183-.552.367-.736.735l-1.655 2.942-1.654-2.942c-.184-.368-.368-.552-.736-.735l-2.941-1.655 2.941-1.655c.368-.184.552-.368.736-.735l1.654-2.942 1.655 2.942c.184.367.368.551.736.735l2.941 1.655-2.941 1.655ZM41.552 511.526l-5.515-3.126-3.126-5.515c-.552-.92-1.655-1.287-2.574-.736-.368.184-.552.368-.735.736l-3.126 5.515-5.516 3.126c-.919.552-1.287 1.655-.735 2.574.184.368.368.552.735.735l5.516 3.126 3.126 5.516c.551.919 1.654 1.287 2.574.735.367-.184.551-.368.735-.735l3.126-5.516 5.515-3.126c.92-.551 1.287-1.654.736-2.574-.184-.367-.552-.551-.736-.735Zm-8.09 3.309c-.367.184-.55.368-.735.736l-1.654 2.942-1.655-2.942c-.184-.368-.368-.552-.736-.736l-2.941-1.654 2.941-1.655c.368-.184.552-.368.736-.735l1.655-2.942 1.654 2.942c.184.367.368.551.736.735l2.941 1.655-2.941 1.654ZM20.777 668.356c5.331 0 9.744-4.413 9.744-9.744 0-5.332-4.413-9.745-9.744-9.745-5.332 0-9.745 4.413-9.745 9.745 0 5.331 4.229 9.744 9.745 9.744Zm0-15.628c3.31 0 5.883 2.574 5.883 5.884 0 3.309-2.574 5.883-5.883 5.883-3.31 0-5.884-2.574-5.884-5.883 0-3.31 2.574-5.884 5.884-5.884ZM128.884 543.149c0-19.305-15.812-35.116-35.117-35.116S58.65 523.844 58.65 543.149s15.812 34.933 35.117 34.933 35.117-15.811 35.117-34.933Zm-8.641 0c0 .92.735 1.655 1.654 1.655h3.494c-.92 16.18-13.974 29.233-29.97 29.969v-3.493c0-.92-.735-1.655-1.654-1.655-.92 0-1.655.735-1.655 1.655v3.493c-16.179-.919-29.233-13.973-29.968-29.969h3.493c.92 0 1.655-.735 1.655-1.655 0-.919-.736-1.654-1.655-1.654h-3.493c.735-16.364 13.789-29.234 29.968-30.153v3.493c0 .92.736 1.655 1.655 1.655.92 0 1.655-.735 1.655-1.655v-3.493c16.179.919 29.233 13.973 29.969 29.969h-3.494c-.919 0-1.654.735-1.654 1.838Z"/><path d="M50.193 543.149c0 11.583 4.597 22.615 12.687 30.888 8.09 8.274 19.304 12.686 30.887 12.686 23.902 0 43.575-19.672 43.575-43.574 0-.919-.736-1.654-1.655-1.654s-1.655.735-1.655 1.654c0 22.063-18.202 40.265-40.265 40.265-10.847 0-20.96-4.229-28.497-11.767-7.538-7.722-11.767-17.834-11.767-28.498 0-22.063 18.202-40.264 40.264-40.264.92 0 1.655-.736 1.655-1.655s-.551-1.839-1.654-1.839c-23.902 0-43.575 19.673-43.575 43.758Z"/><path d="M91.01 542.966v-14.341c0-1.287 1.103-2.207 2.206-2.207 1.287 0 2.206 1.104 2.206 2.207v14.341c0 1.287-1.103 2.206-2.206 2.206s-2.206-.919-2.206-2.206Z"/><path d="M93.216 540.759h14.341c1.287 0 2.206 1.103 2.206 2.207 0 1.287-1.103 2.206-2.206 2.206h-14.34c-1.288 0-2.207-1.103-2.207-2.206 0-1.287 1.103-2.207 2.206-2.207Z"/></g><g clip-path="url(#e)" fill="#6F8085"><path d="M266.051 543.149c0 11.583 4.596 22.615 12.686 30.888 8.09 8.274 19.305 12.686 30.888 12.686 23.901 0 43.574-19.672 43.574-43.574 0-.919-.735-1.654-1.655-1.654-.919 0-1.654.735-1.654 1.654 0 22.063-18.202 40.265-40.265 40.265-10.848 0-20.96-4.229-28.498-11.767-7.538-7.722-11.767-17.834-11.767-28.498 0-22.063 18.202-40.264 40.265-40.264.919 0 1.655-.736 1.655-1.655s-.552-1.839-1.655-1.839c-23.902 0-43.574 19.673-43.574 43.758Z"/><path d="m279.289 560.248-2.391-35.668c0-.184 0-.368.184-.368.184-.184.184-.184.368-.184h4.045c.368 0 .551.184.551.552l1.104 24.453v.184s.183 0 .183-.184l6.619-24.637c.184-.368.368-.552.552-.552h3.493c.368 0 .368.184.368.552l.919 24.637s0 .184.184.184 0 0 .184-.184l6.619-24.637c0-.368.184-.552.551-.552h3.861c.368 0 .552.184.368.552l-10.848 35.668c-.183.368-.367.552-.551.552h-3.677c-.368 0-.368-.184-.368-.552l-.919-24.821s0-.183-.184-.183v.183l-6.619 25.005c-.184.368-.368.552-.552.552h-3.493c-.368-.184-.551-.184-.551-.552ZM315.692 560.248l-.367-6.067v-.184H306.683v.184l-1.838 6.067c0 .368-.184.551-.552.551h-3.861c-.184 0-.368 0-.368-.183v-.368l11.951-35.668c0-.368.184-.552.552-.552h4.412c.368 0 .552.184.552.552l3.125 35.484c0 .368-.183.552-.551.552h-3.861c-.368 0-.552 0-.552-.368Zm-7.722-10.296h6.803s.184 0 .184-.184l-1.287-18.569v-.184s-.184 0-.184.184l-5.516 18.753c0-.184 0-.184 0 0ZM321.576 560.432v-.368l9.193-17.65v-.368l-4.964-17.65v-.184c0-.368.184-.552.551-.552h4.045c.184 0 .368.184.552.368l3.125 12.686c0 .184 0 .184.184.184 0 0 .184 0 .184-.184l6.067-12.686c.184-.368.368-.368.552-.368h3.861c.184 0 .368 0 .368.184v.368l-9.193 17.65c-.184.184-.184.184 0 .368l4.964 17.466v.184c0 .184 0 .184-.184.368-.184 0-.184.184-.368.184h-3.861c-.367 0-.551-.184-.551-.368l-3.126-12.686c0-.184 0-.184-.184-.184 0 0-.183 0-.183.184l-6.068 12.686c-.184.368-.367.368-.551.368h-4.045c-.184.184-.368.184-.368 0ZM239.391 627.907c-.367-1.47-.551-3.125-.551-4.78 0-10.112 8.273-18.386 18.386-18.386 7.722 0 14.34 4.781 17.098 11.583.368-1.654 1.287-3.309 2.39-4.596-3.861-6.619-11.031-11.031-19.305-11.031-12.318 0-22.246 9.928-22.43 22.062l-7.538-1.654-5.332-5.332 2.574-4.964 10.664-10.664h-8.642l.184-.184 31.44-4.412-.184-4.045 8.273-2.39v10.112l15.077 3.861c.367-1.471 1.103-2.758 1.838-3.861l-12.87-3.31v-8.273h33.095l20.775 4.228 4.045 4.045 12.319-4.045-37.139-8.273h-33.095l-28.865 8.273h12.318l-28.865 4.229-4.045 4.045v4.045h4.045l-4.045 4.045-4.045 8.273 8.09 8.458 14.34 2.941Z"/><path d="M270.096 633.607v-.368h-3.126c2.574-2.574 4.229-6.067 4.229-10.112 0-7.906-6.435-14.157-14.157-14.157-7.906 0-14.157 6.435-14.157 14.157 0 3.861 1.655 7.538 4.229 10.112h-26.292v4.045h49.642c-.184-1.103-.368-2.39-.368-3.677Zm-13.054-.368c-5.516 0-10.112-4.412-10.112-10.112 0-5.515 4.596-10.112 10.112-10.112s10.112 4.413 10.112 10.112c0 5.516-4.596 10.112-10.112 10.112Z"/><path d="M257.042 624.966c-.92 0-1.839-.736-1.839-1.839h-4.045c0 3.31 2.574 5.884 5.884 5.884 3.309 0 5.883-2.574 5.883-5.884h-4.045c0 1.103-.919 1.839-1.838 1.839ZM398.795 616.692l-4.045-8.273h-4.228v-4.045l-16.548-8.274h-29.049l-16.547 4.045h-4.78c1.103 1.287 1.838 2.574 2.574 4.045h2.941l16.548-4.045h27.578l13.422 6.619v5.699h5.699l2.574 5.148v1.471l-5.883 5.884h-1.103v-1.839c0-12.318-10.113-22.43-22.431-22.43-11.031 0-20.224 8.089-22.063 18.569 1.471.368 2.758 1.103 3.861 2.023.92-9.377 8.642-16.548 18.202-16.548 10.112 0 18.386 8.274 18.386 18.386 0 2.023-.368 4.045-.92 5.884h16.18v-4.045h-4.045l4.045-4.045v-4.229h-.368Z"/><path d="M379.491 623.127c0-7.906-6.435-14.157-14.157-14.157-7.906 0-14.157 6.435-14.157 14.157 0 3.861 1.655 7.538 4.229 10.112h-4.781c-.551 1.471-1.287 2.942-2.39 4.045h42.287v-4.045h-15.26c2.574-2.574 4.229-6.067 4.229-10.112Zm-14.157 10.112c-5.516 0-10.112-4.412-10.112-10.112 0-5.515 4.596-10.112 10.112-10.112s10.112 4.413 10.112 10.112c-.184 5.516-4.596 10.112-10.112 10.112Z"/><path d="M365.334 624.966c-.919 0-1.839-.736-1.839-1.839h-4.228c0 3.31 2.574 5.884 5.883 5.884s5.883-2.574 5.883-5.884h-4.044c0 1.103-.736 1.839-1.655 1.839ZM347.867 637.836c1.839-2.207 3.126-4.964 3.126-7.906 0-6.067-4.964-11.032-11.032-11.032 0-6.067-4.964-11.031-11.031-11.031-.735 0-1.287 0-2.022.184-.92-7.354-6.987-13.054-14.525-13.054a14.773 14.773 0 0 0-11.032 4.964c-2.022-3.125-5.331-4.964-9.192-4.964-6.068 0-11.032 4.964-11.032 11.031 0 .736.184 1.655.184 2.391-4.413 1.47-7.538 5.515-7.538 10.479 0 1.104.184 2.023.368 3.126-2.758 3.309-4.045 7.354-4.045 11.583 0 5.883 2.758 11.215 7.354 14.709 0 2.022.552 4.044 1.655 5.883-1.103 1.839-1.655 3.861-1.655 6.067a11.927 11.927 0 0 0 11.951 11.951c1.103 0 2.206-.184 3.309-.552 2.023 2.574 5.148 4.229 8.641 4.229 4.781 0 8.826-2.942 10.296-7.354 1.471.184 2.942.184 4.413-.184a13.637 13.637 0 0 0 9.744 4.045c4.229 0 8.458-1.839 12.135-5.516l7.722-7.722c6.619-6.803 7.538-15.26 2.206-21.327Zm-46.516 34.381c-2.574 0-4.964-1.287-6.251-3.677-.551-.736-1.471-1.103-2.39-.736-1.103.368-2.206.736-3.309.736a8.24 8.24 0 0 1-8.274-8.274 8.07 8.07 0 0 1 1.655-4.964c.551-.735.551-1.655 0-2.206-1.103-1.287-1.655-2.942-1.655-4.597v-.735c0-.735-.184-1.287-.735-1.655-4.229-2.758-6.619-7.354-6.619-12.318 0-3.677 1.471-7.171 3.861-9.928.551-.552.551-1.287.368-2.023a7.37 7.37 0 0 1-.552-2.758c0-3.677 2.758-6.802 6.619-7.354.551 0 1.103-.368 1.471-.919.367-.552.367-1.103 0-1.655-.368-.919-.736-2.022-.736-2.942 0-4.045 3.31-7.354 7.355-7.354 3.309 0 6.251 2.206 6.986 5.516.184.735.736 1.287 1.655 1.287.735 0 1.471-.368 1.838-.92 1.839-3.677 5.7-5.883 9.745-5.883 6.067 0 11.031 4.964 11.031 11.031v.736c0 .551.184 1.287.736 1.655.551.367 1.287.367 1.838.183.92-.367 2.023-.551 2.942-.551 4.045 0 7.354 3.309 7.354 7.354 0 .552 0 1.103-.184 1.655-.183.551 0 1.287.552 1.655.368.367 1.103.551 1.655.551.551-.184 1.103-.184 1.654-.184 4.045 0 7.355 3.31 7.355 7.355 0 1.838-.736 3.861-2.023 5.331l-24.82-25.372c-2.574-2.574-6.619-2.574-9.009 0-.736.736-1.287 1.471-1.471 2.39l-3.677-3.677c-2.574-2.574-6.619-2.574-9.193 0-.736.736-1.287 1.471-1.471 2.39-2.574-2.39-6.435-2.206-8.825.184-2.39 2.39-2.574 6.435-.184 8.825-.919.368-1.655.92-2.39 1.471-1.287 1.287-1.839 2.758-1.839 4.597 0 1.654.736 3.309 1.839 4.596l11.399 11.399c-.919.368-1.655.736-2.39 1.471-2.574 2.574-2.574 6.619 0 9.193l12.318 12.318c.736.736 1.655 1.471 2.758 2.023-1.287 2.758-3.861 4.78-6.987 4.78Zm41.92-15.812-7.906 7.722c-4.229 4.229-10.296 6.251-15.444 2.574l1.287-1.287c.368-.367.552-.919.552-1.287 0-.367-.184-.919-.552-1.287-.735-.735-1.839-.735-2.574 0-2.942 2.942-7.538 2.942-10.48 0l-12.318-12.318c-1.103-1.103-1.103-2.758 0-3.861 1.103-1.103 2.758-1.103 3.861 0l8.457 8.457c.736.736 1.839.736 2.574 0 .736-.735.736-1.838 0-2.574l-8.457-8.457-15.628-15.628c-.552-.552-.736-1.287-.736-2.022 0-.736.368-1.471.736-2.023 1.103-1.103 2.942-1.103 3.861 0l17.466 17.467c.736.735 1.839.735 2.574 0 .736-.736.736-1.839 0-2.574l-21.327-21.328c-1.103-1.103-1.103-2.758 0-3.861 1.103-1.103 2.758-1.103 3.861 0l3.861 3.861 17.466 17.467c.736.735 1.839.735 2.574 0 .736-.736.736-1.839 0-2.574l-17.65-17.651c-1.103-1.103-.919-2.758 0-3.861 1.103-1.103 2.758-1.103 3.861 0l7.722 7.722 9.744 9.745c.736.735 1.839.735 2.574 0 .736-.736.736-1.839 0-2.574l-9.744-9.745c-1.103-1.103-.919-2.758 0-3.861 1.103-1.103 2.758-1.103 3.861 0l27.211 26.843c5.332 5.332 3.125 12.319-1.287 16.915ZM352.28 506.01h-4.596v4.597h4.596v-4.597ZM254.836 656.038h-4.597v4.596h4.597v-4.596ZM255.019 554.916c4.229 0 7.722-3.493 7.722-7.722 0-4.229-3.493-7.722-7.722-7.722-4.229 0-7.906 3.493-7.906 7.722 0 4.229 3.494 7.722 7.906 7.722Zm0-11.583c2.206 0 3.861 1.839 3.861 3.861 0 2.206-1.838 3.861-3.861 3.861-2.022 0-3.861-1.838-3.861-3.861 0-2.206 1.655-3.861 3.861-3.861ZM378.387 541.679l-5.515-3.126-3.126-5.516c-.552-.919-1.655-1.287-2.574-.735-.368.184-.551.368-.735.735l-3.126 5.516-5.516 3.126c-.919.551-1.287 1.654-.735 2.574.184.367.368.551.735.735l5.516 3.126 3.126 5.515c.551.92 1.654 1.287 2.574.736.367-.184.551-.368.735-.736l3.126-5.515 5.515-3.126c.92-.552 1.287-1.655.736-2.574-.184-.368-.368-.552-.736-.735Zm-7.906 3.309c-.367.184-.551.368-.735.735l-1.655 2.942-1.654-2.942c-.184-.367-.368-.551-.736-.735l-2.941-1.655 2.941-1.654c.368-.184.552-.368.736-.736l1.654-2.942 1.655 2.942c.184.368.368.552.735.736l2.942 1.654-2.942 1.655ZM370.849 648.132l-3.125-5.516c-.552-.919-1.655-1.287-2.574-.736-.368.184-.552.368-.736.736l-3.125 5.516-5.516 3.125c-.919.552-1.287 1.655-.736 2.574.184.368.368.552.736.736l5.516 3.125 3.125 5.516c.552.919 1.655 1.287 2.574.735.368-.184.552-.367.736-.735l3.125-5.516 5.516-3.125c.919-.552 1.287-1.655.735-2.574-.184-.368-.367-.552-.735-.736l-5.516-3.125Zm-2.39 6.435c-.368.183-.552.367-.735.735l-1.655 2.942-1.655-2.942c-.184-.368-.368-.552-.735-.735l-2.942-1.655 2.942-1.655c.367-.184.551-.368.735-.735l1.655-2.942 1.655 2.942c.183.367.367.551.735.735l2.942 1.655-2.942 1.655ZM257.41 511.526l-5.516-3.126-3.125-5.515c-.552-.92-1.655-1.287-2.574-.736-.368.184-.552.368-.736.736l-3.125 5.515-5.516 3.126c-.919.552-1.287 1.655-.736 2.574.184.368.368.552.736.735l5.516 3.126 3.125 5.516c.552.919 1.655 1.287 2.574.735.368-.184.552-.368.736-.735l3.125-5.516 5.516-3.126c.919-.551 1.287-1.654.735-2.574-.184-.367-.551-.551-.735-.735Zm-8.09 3.309c-.368.184-.551.368-.735.736l-1.655 2.942-1.655-2.942c-.184-.368-.367-.552-.735-.736l-2.942-1.654 2.942-1.655c.368-.184.551-.368.735-.735l1.655-2.942 1.655 2.942c.184.367.367.551.735.735l2.942 1.655-2.942 1.654ZM236.634 668.356c5.332 0 9.744-4.413 9.744-9.744 0-5.332-4.412-9.745-9.744-9.745s-9.744 4.413-9.744 9.745c0 5.331 4.228 9.744 9.744 9.744Zm0-15.628c3.31 0 5.883 2.574 5.883 5.884 0 3.309-2.573 5.883-5.883 5.883-3.309 0-5.883-2.574-5.883-5.883 0-3.31 2.574-5.884 5.883-5.884Z"/></g><path d="M460.028 667.62h127.229c6.067 0 10.848-4.964 10.848-10.847v-88.987l1.287-.368c.735-.184 7.538-2.758 7.538-10.296v-12.134c0-6.068-4.964-10.848-10.848-10.848h-30.704l1.655-2.758c1.471-2.39 2.206-5.148 2.206-8.089 0-8.458-6.803-15.26-15.26-15.26-13.238 0-23.718 13.421-28.866 21.327l-1.471 2.022-1.47-2.39c-5.148-7.906-15.812-21.327-28.866-21.327a15.223 15.223 0 0 0-15.26 15.26c0 2.758.735 5.7 2.206 8.09l1.655 2.758h-30.52c-6.068 0-10.848 4.964-10.848 10.847v12.135c0 7.538 6.619 10.112 7.538 10.296l1.287.367v88.987c-.184 6.251 4.597 11.215 10.664 11.215Zm133.664-10.847c0 3.493-2.942 6.435-6.435 6.435H460.028c-3.493 0-6.435-2.942-6.435-6.435v-88.987h140.099v88.987Zm-64.534-125.758c4.597-6.987 13.973-18.754 25.005-18.754 7.354.368 10.663 5.884 10.663 10.848s-3.309 10.48-10.663 10.847H527.32l1.838-2.941Zm-36.036-18.938c11.032 0 20.408 11.767 25.005 18.754l1.838 2.942h-26.843c-7.354-.368-10.847-5.884-10.847-10.848.183-4.964 3.493-10.48 10.847-10.848Zm-48.17 44.861v-12.134c0-3.493 2.941-6.435 6.435-6.435h144.511c3.494 0 6.435 2.942 6.435 6.435v12.134c0 3.494-2.941 6.435-6.435 6.435H451.387c-3.678 0-6.435-2.941-6.435-6.435Z" fill="#6F8085"/><path d="M476.759 617.795c0 11.583 4.596 22.614 12.686 30.888 8.273 8.274 19.305 12.686 30.888 12.686 23.901 0 43.574-19.673 43.574-43.574 0-.919-.735-1.655-1.655-1.655-.919 0-1.654.736-1.654 1.655 0 22.063-18.202 40.265-40.265 40.265-10.848 0-20.96-4.229-28.498-11.767-7.538-7.722-11.767-17.834-11.767-28.498 0-22.063 18.202-40.265 40.265-40.265.919 0 1.655-.735 1.655-1.654 0-.92-.736-1.655-1.655-1.655-23.902 0-43.574 19.673-43.574 43.574Z" fill="#6F8085"/><path d="M502.315 598.674h4.044c.184 0 .368 0 .368.184s.184.184 0 .367l-4.412 35.669c0 .184 0 .184-.184.367 0 .184 0 .184-.184.184h-3.861c-.368 0-.552-.184-.552-.551l3.861-30.704c0-.184 0-.368-.184-.184l-4.596 1.287h-.184c-.184 0-.368-.184-.368-.552l.184-2.942c0-.367.184-.551.368-.551l5.148-2.39c.184-.184.368-.184.552-.184ZM508.566 633.791c-1.471-1.471-2.207-3.494-2.207-5.884 0-.368 0-.919.184-1.655l2.207-18.201c.367-2.942 1.47-5.332 3.309-7.171 1.839-1.838 4.229-2.758 6.987-2.758 2.574 0 4.412.736 5.883 2.207 1.471 1.47 2.206 3.493 2.206 5.883 0 .368 0 .919-.184 1.655l-2.206 18.202c-.368 2.941-1.471 5.331-3.309 7.17-1.839 1.839-4.229 2.758-6.987 2.758-2.39 0-4.412-.736-5.883-2.206Zm9.744-3.678c.919-.919 1.471-2.206 1.655-3.677l2.39-18.753v-.919c0-1.287-.368-2.207-.919-2.942-.736-.736-1.471-1.103-2.758-1.103s-2.39.551-3.31 1.471c-.919.919-1.47 2.206-1.654 3.677l-2.39 18.753v.919c0 1.287.367 2.391.919 3.126.735.735 1.471 1.103 2.758 1.103 1.287-.184 2.39-.551 3.309-1.655ZM547.175 617.427l-.367 2.758c0 .368-.184.552-.552.552h-7.17c-.184 0-.184 0-.184.184l-.92 7.354c0 .184 0 .184-.183.368-.184.184-.184.184-.368.184h-2.758c-.368 0-.552-.184-.368-.552l.92-7.354c0-.184 0-.184-.184-.184h-7.171c-.184 0-.367 0-.367-.184s-.184-.184 0-.368l.367-2.758c0-.367.184-.551.552-.551h7.17c.184 0 .184 0 .184-.184l.919-7.354c0-.368.184-.552.552-.552h2.758c.184 0 .368 0 .368.184s.183.184 0 .368l-.92 7.354v.184h7.355c.367 0 .551.184.367.551ZM562.988 580.84h-4.596v4.596h4.596v-4.596ZM465.727 629.746c4.229 0 7.722-3.494 7.722-7.722 0-4.229-3.493-7.722-7.722-7.722-4.229 0-7.722 3.493-7.722 7.722-.184 4.228 3.309 7.722 7.722 7.722Zm0-11.767c2.206 0 3.861 1.838 3.861 3.861 0 2.206-1.839 3.861-3.861 3.861-2.022 0-3.861-1.839-3.861-3.861 0-2.023 1.655-3.861 3.861-3.861ZM589.095 616.324l-5.515-3.125-3.126-5.516c-.551-.919-1.655-1.287-2.574-.735-.368.183-.551.367-.735.735l-3.126 5.516-5.516 3.125c-.919.552-1.287 1.655-.735 2.574.184.368.368.552.735.736l5.516 3.125 3.126 5.516c.551.919 1.654 1.287 2.574.735.367-.183.551-.367.735-.735l3.126-5.516 5.515-3.125c.92-.552 1.287-1.655.736-2.574-.184-.368-.368-.552-.736-.736Zm-7.905 3.31c-.368.184-.552.367-.736.735l-1.655 3.126-1.654-2.942c-.184-.368-.368-.552-.736-.735l-2.941-1.655 2.941-1.655c.368-.184.552-.368.736-.735l1.654-2.942 1.655 2.942c.184.367.368.551.736.735l2.941 1.655-2.941 1.471ZM477.31 586.172l-5.516-3.126-3.125-5.516c-.552-.919-1.655-1.287-2.574-.735-.368.184-.552.368-.736.735l-3.125 5.516-5.516 3.126c-.919.551-1.287 1.654-.735 2.574.184.367.368.551.735.735l5.516 3.126 3.125 5.515c.552.92 1.655 1.287 2.574.736.368-.184.552-.368.736-.736l3.125-5.515 5.516-3.126c.919-.551 1.287-1.655.736-2.574-.184-.184-.368-.551-.736-.735Zm-8.09 3.309c-.367.184-.551.368-.735.736l-1.655 2.941-1.654-2.941c-.184-.368-.368-.552-.736-.736l-2.941-1.655 2.941-1.654c.368-.184.552-.368.736-.736l1.654-2.941 1.655 2.941c.184.368.368.552.735.736l2.942 1.654-2.942 1.655ZM776.823 616.508c1.839-2.206 3.126-4.964 3.126-7.906 0-6.067-4.964-11.031-11.032-11.031 0-6.067-4.964-11.032-11.031-11.032-.735 0-1.287 0-2.022.184-.92-7.354-6.987-13.054-14.525-13.054a14.77 14.77 0 0 0-11.032 4.965c-2.022-3.126-5.331-4.965-9.192-4.965-6.068 0-11.032 4.965-11.032 11.032 0 .735.184 1.655.184 2.39-4.413 1.471-7.538 5.516-7.538 10.48 0 1.103.184 2.022.368 3.125-2.758 3.31-4.045 7.355-4.045 11.583 0 5.884 2.758 11.216 7.354 14.709 0 2.022.552 4.045 1.655 5.883-1.103 1.839-1.655 3.861-1.655 6.068 0 6.619 5.332 11.95 11.951 11.95a10.4 10.4 0 0 0 3.309-.551c2.023 2.574 5.148 4.229 8.641 4.229 4.781 0 8.826-2.942 10.296-7.355 1.471.184 2.942.184 4.413-.184a13.637 13.637 0 0 0 9.744 4.045c4.229 0 8.458-1.838 12.135-5.515l7.722-7.722c6.619-6.803 7.354-15.261 2.206-21.328Zm-46.516 34.381c-2.574 0-4.964-1.287-6.251-3.677-.551-.735-1.471-1.103-2.39-.735-1.103.551-2.206.735-3.309.735a8.239 8.239 0 0 1-8.274-8.273c0-1.839.552-3.494 1.655-4.964.551-.736.551-1.655 0-2.207-1.103-1.287-1.655-2.941-1.655-4.596v-.736c0-.735-.184-1.287-.735-1.654-4.229-2.758-6.619-7.355-6.619-12.319 0-3.677 1.471-7.17 3.861-9.928.551-.552.551-1.287.368-2.022a7.377 7.377 0 0 1-.552-2.758c0-3.677 2.758-6.803 6.619-7.355.551 0 1.103-.367 1.471-.919.367-.551.367-1.103 0-1.655-.368-.919-.736-2.022-.736-2.941 0-4.045 3.31-7.355 7.355-7.355 3.309 0 6.251 2.207 6.986 5.516.184.736.736 1.287 1.655 1.287.735 0 1.471-.368 1.838-.919 1.839-3.677 5.7-5.884 9.745-5.884 6.067 0 11.031 4.965 11.031 11.032V589.297c0 .552.184 1.287.736 1.655.551.368 1.287.368 1.838.184.92-.368 2.023-.552 2.942-.552 4.045 0 7.354 3.31 7.354 7.355 0 .551 0 1.103-.184 1.654-.183.552 0 1.287.552 1.655.368.368 1.103.552 1.655.552.551-.184 1.103-.184 1.654-.184 4.045 0 7.355 3.309 7.355 7.354 0 1.839-.736 3.861-2.023 5.332l-25.004-25.372c-2.574-2.574-6.619-2.574-9.009 0-.736.551-1.287 1.47-1.471 2.39l-3.677-3.677c-2.574-2.574-6.619-2.574-9.193 0-.736.735-1.287 1.47-1.471 2.39-2.574-2.39-6.435-2.39-8.825.184-2.39 2.39-2.574 6.435-.184 8.825-.919.367-1.655.919-2.39 1.471-1.287 1.287-1.839 2.757-1.839 4.596 0 1.655.736 3.309 1.839 4.596l11.399 11.583c-.919.368-1.655.736-2.39 1.471-2.574 2.574-2.574 6.619 0 9.193l12.318 12.319c.736.735 1.655 1.47 2.758 2.022-1.103 2.574-3.861 4.596-6.803 4.596Zm41.736-15.811-7.722 7.722c-4.229 4.228-10.296 6.251-15.444 2.574l1.287-1.287c.368-.368.552-.92.552-1.287 0-.368-.184-.92-.552-1.287-.735-.736-1.839-.736-2.574 0-2.942 2.941-7.538 2.941-10.48 0l-12.318-12.319c-1.103-1.103-1.103-2.758 0-3.861 1.103-1.103 2.758-1.103 3.861 0l8.457 8.458c.736.735 1.839.735 2.574 0 .736-.736.736-1.839 0-2.574l-8.457-8.458-15.628-15.628c-.552-.551-.736-1.287-.736-2.022 0-.735.368-1.471.736-2.022 1.103-1.104 2.942-1.104 3.861 0l17.466 17.466c.736.735 1.839.735 2.574 0 .736-.735.736-1.839 0-2.574l-21.327-21.327c-1.103-1.104-1.103-2.758 0-3.861 1.103-1.104 2.758-1.104 3.861 0l3.861 3.861 17.466 17.466c.736.735 1.839.735 2.574 0 .736-.735.736-1.839 0-2.574l-17.466-17.466c-1.103-1.104-.919-2.758 0-3.861 1.103-1.104 2.758-1.104 3.861 0l7.722 7.722 9.744 9.744c.736.735 1.839.735 2.574 0 .736-.735.736-1.839 0-2.574l-9.744-9.744c-1.103-1.104-.919-2.758 0-3.861 1.103-1.104 2.758-1.104 3.861 0l26.659 26.659c5.7 5.332 3.493 12.318-1.103 16.915Z" fill="#6F8085"/><path d="M675.885 667.62h127.229c6.068 0 10.848-4.964 10.848-10.847v-88.987l1.287-.368c.735-.184 7.538-2.758 7.538-10.296v-12.134c0-6.068-4.964-10.848-10.847-10.848h-30.705l1.655-2.758c1.471-2.39 2.206-5.148 2.206-8.089 0-8.458-6.802-15.26-15.26-15.26-13.237 0-23.717 13.421-28.865 21.327l-1.471 2.022-1.471-2.39c-5.148-7.906-15.812-21.327-28.866-21.327a15.223 15.223 0 0 0-15.26 15.26c0 2.758.736 5.7 2.207 8.09l1.654 2.758h-30.52c-6.067 0-10.848 4.964-10.848 10.847v12.135c0 7.538 6.619 10.112 7.539 10.296l1.287.367v88.987c-.184 6.251 4.596 11.215 10.663 11.215Zm133.664-10.847c0 3.493-2.941 6.435-6.435 6.435H675.885c-3.493 0-6.435-2.942-6.435-6.435v-88.987h140.099v88.987Zm-64.533-125.758c4.596-6.987 13.973-18.754 25.004-18.754 7.354.368 10.664 5.884 10.664 10.848s-3.31 10.48-10.664 10.847h-26.843l1.839-2.941Zm-36.036-18.938c11.031 0 20.408 11.767 25.004 18.754l1.839 2.942H708.98c-7.355-.368-10.848-5.884-10.848-10.848.184-4.964 3.493-10.48 10.848-10.848Zm-48.171 44.861v-12.134c0-3.493 2.942-6.435 6.435-6.435h144.512c3.493 0 6.435 2.942 6.435 6.435v12.134c0 3.494-2.942 6.435-6.435 6.435H667.244c-3.677 0-6.435-2.941-6.435-6.435Z" fill="#6F8085"/><defs><clipPath id="a"><path fill="#fff" transform="translate(0 247.857)" d="M0 0h183.857v183.857H0z"/></clipPath><clipPath id="b"><path fill="#fff" transform="translate(215.857 247.857)" d="M0 0h183.857v183.857H0z"/></clipPath><clipPath id="c"><path fill="#fff" transform="translate(431.714 247.857)" d="M0 0h183.857v183.857H0z"/></clipPath><clipPath id="d"><path fill="#fff" transform="translate(0 495.714)" d="M0 0h183.857v183.857H0z"/></clipPath><clipPath id="e"><path fill="#fff" transform="translate(215.857 495.714)" d="M0 0h183.857v183.857H0z"/></clipPath></defs></svg>