<svg width="385" height="125" fill="none" xmlns="http://www.w3.org/2000/svg"><path d="M35.987 65.713h-.252L13.853 2.13H.303V86.375h1.768V5.322h.253l28.193 81.136L58.879 4.483h.252V86.375h11.867V2.13H57.953L35.987 65.713ZM275.589 3.727v38.72h-39.471V2.131h-1.851V86.375h1.851V44.127h39.471v42.248h11.782V2.13h-11.782v1.596ZM204.221 84.695 161.132 35.56l30.129-31.833 1.599-1.596h-2.357l-9.762 10.247-27.605 28.977h-1.178V2.131h-11.866V86.375h11.866V43.035h.926l29.456 34.52 7.49 8.82h15.822l-1.431-1.68ZM111.478 63.613V23.129H99.611v42.164h11.867v-1.68Z" fill="#948074"/><path d="M106.428 84.695V2.13h-1.767V86.375h1.767v-1.68ZM256.99 37.324h28.277v11.842H255.812V37.324h1.178ZM146.236 110.144h1.178l5.807 13.943h-1.431l-1.851-4.368h-6.312l-1.767 4.368h-1.515l5.891-13.943Zm3.45 8.483-2.777-6.887-2.861 6.887h5.638ZM179.983 122.995c.842 0 1.599-.168 2.188-.504.59-.336 1.01-.756 1.431-1.344.337-.504.589-1.176.758-1.848.168-.672.168-1.428.168-2.1v-7.055h1.346v7.055c0 .924-.084 1.848-.336 2.688a9.298 9.298 0 0 1-1.01 2.268c-.505.672-1.094 1.176-1.852 1.512-.757.42-1.683.588-2.777.588s-2.02-.168-2.777-.588a5.662 5.662 0 0 1-1.852-1.596 9.336 9.336 0 0 1-1.01-2.268c-.168-.84-.336-1.68-.336-2.604v-7.055h1.346v7.055c0 .756.085 1.428.253 2.184.168.672.421 1.344.757 1.848.337.504.842 1.008 1.431 1.26.673.336 1.431.504 2.272.504ZM218.865 111.32H213.9v12.767h-1.347V111.32h-4.965v-1.26h11.361v1.26h-.084ZM245.628 124.171c-1.01 0-1.851-.168-2.693-.588-.842-.42-1.515-.924-2.104-1.596-.589-.672-1.01-1.428-1.347-2.268a7.17 7.17 0 0 1 0-5.291c.337-.84.758-1.596 1.431-2.268.673-.672 1.263-1.176 2.104-1.596.842-.42 1.683-.588 2.609-.588 1.01 0 1.852.168 2.693.588.842.42 1.515.924 2.104 1.596.589.672 1.01 1.428 1.347 2.268a6.84 6.84 0 0 1 .505 2.603c0 .924-.169 1.848-.505 2.688-.337.84-.758 1.596-1.347 2.268-.589.672-1.262 1.176-2.104 1.512-.926.504-1.767.672-2.693.672Zm-5.218-7.056c0 .756.084 1.512.337 2.184.252.672.589 1.344 1.094 1.848.421.504 1.01 1.008 1.599 1.26.589.336 1.346.504 2.104.504.757 0 1.515-.168 2.188-.504.673-.336 1.178-.756 1.599-1.344a7.875 7.875 0 0 0 1.01-1.848c.252-.672.337-1.428.337-2.1 0-.756-.169-1.512-.421-2.183-.253-.672-.589-1.344-1.094-1.848-.421-.504-1.01-1.008-1.599-1.26-.589-.336-1.347-.504-2.104-.504-.758 0-1.515.168-2.188.504-.674.336-1.179.756-1.599 1.344a7.875 7.875 0 0 0-1.01 1.848c-.253.671-.253 1.343-.253 2.099ZM282.658 112.748c-.421-.42-.926-.84-1.599-1.092a6.436 6.436 0 0 0-2.272-.42c-1.263 0-2.104.252-2.693.672-.589.504-.842 1.092-.842 1.932 0 .42.084.756.253 1.008.168.252.42.504.673.671.336.168.757.336 1.178.504.505.168 1.094.252 1.767.42a35.2 35.2 0 0 1 2.02.504c.589.168 1.094.42 1.515.756.421.336.758.672.926 1.092.252.42.336.924.336 1.596s-.084 1.176-.336 1.68c-.253.504-.589.84-1.01 1.176a3.426 3.426 0 0 1-1.599.672c-.589.168-1.262.252-2.02.252-2.188 0-4.04-.672-5.639-2.016l.674-1.092c.252.252.589.504.925.756.337.252.758.42 1.179.588.42.168.841.336 1.346.42.505.084 1.01.168 1.515.168 1.094 0 2.02-.168 2.609-.588.589-.42.926-1.008.926-1.848 0-.42-.084-.756-.253-1.092a1.646 1.646 0 0 0-.757-.756c-.337-.252-.758-.42-1.347-.588a18.374 18.374 0 0 0-1.851-.504 31.223 31.223 0 0 1-1.936-.504c-.589-.168-1.01-.42-1.431-.672a1.964 1.964 0 0 1-.841-1.008c-.168-.419-.253-.839-.253-1.427 0-.672.085-1.176.337-1.68a3.713 3.713 0 0 1 1.01-1.26c.421-.336 1.01-.588 1.599-.756.589-.168 1.262-.252 2.02-.252a7.95 7.95 0 0 1 2.525.42c.757.252 1.43.672 2.019 1.176l-.673 1.092ZM317.164 110.144v13.943h-1.347v-6.552h-8.332v6.552h-1.346v-13.943h1.346v6.215h8.332v-6.215h1.347ZM346.029 124.171c-1.009 0-1.851-.168-2.693-.588-.841-.42-1.515-.924-2.104-1.596-.589-.672-1.01-1.428-1.346-2.268a7.149 7.149 0 0 1-.505-2.604c0-.924.168-1.847.505-2.687.336-.84.757-1.596 1.431-2.268.673-.672 1.262-1.176 2.104-1.596.841-.42 1.683-.588 2.608-.588 1.01 0 1.852.168 2.694.588.841.42 1.514.924 2.104 1.596.589.672 1.009 1.428 1.346 2.268.337.84.505 1.679.505 2.603 0 .924-.168 1.848-.505 2.688-.337.84-.757 1.596-1.346 2.268-.59.672-1.263 1.176-2.104 1.512-.926.504-1.768.672-2.694.672Zm-5.217-7.056c0 .756.084 1.512.336 2.184.253.672.589 1.344 1.094 1.848.421.504 1.01 1.008 1.599 1.26.589.336 1.347.504 2.104.504.758 0 1.515-.168 2.188-.504.674-.336 1.179-.756 1.599-1.344a7.875 7.875 0 0 0 1.01-1.848c.253-.672.337-1.428.337-2.1 0-.756-.168-1.512-.421-2.183-.252-.672-.589-1.344-1.094-1.848-.421-.504-1.01-1.008-1.599-1.26-.589-.336-1.346-.504-2.104-.504-.757 0-1.515.168-2.188.504-.673.336-1.178.756-1.599 1.344a7.911 7.911 0 0 0-1.01 1.848c-.252.671-.252 1.343-.252 2.099ZM374.896 124.087v-13.943h5.807c.59 0 1.179.168 1.684.42.505.252.925.588 1.346 1.008.337.42.673.84.842 1.428.168.504.336 1.092.336 1.596a4 4 0 0 1-.336 1.679 5.827 5.827 0 0 1-.842 1.428c-.336.42-.757.756-1.262 1.008s-1.01.336-1.683.336h-4.545v5.124h-1.347v-.084Zm1.347-6.384h4.46c.421 0 .758-.084 1.095-.252.336-.168.589-.42.841-.672.253-.336.421-.672.589-1.008.169-.419.169-.755.169-1.175 0-.42-.085-.84-.253-1.26-.168-.42-.337-.756-.589-1.008a3.722 3.722 0 0 0-.926-.672 2.33 2.33 0 0 0-1.094-.252h-4.376v6.299h.084ZM383.734 84.695 351.501.03h-2.862l-27.436 72.485-5.218 13.858h1.852l2.945-7.727 10.1-26.793h27.604l8.752 23.014 4.377 11.507h12.792l-.673-1.68Zm-52.011-34.52 13.045-34.437 13.045 34.436h-26.09Z" fill="#948074"/></svg>