<svg width="387" height="126" fill="none" xmlns="http://www.w3.org/2000/svg"><path d="M36.771 66.713h-.252L14.638 3.13H1.087V87.375h1.767V6.322h.253L31.3 87.459 59.663 5.483h.252V87.375h11.867V3.13H58.737L36.771 66.713ZM276.373 4.727v38.72h-39.471V3.131h-1.851V87.375h1.851V45.127h39.471v42.248h11.782V3.13h-11.782v1.596ZM205.005 85.695 161.916 36.56l30.129-31.833 1.599-1.596h-2.357l-9.762 10.247-27.604 28.977h-1.179V3.131h-11.866V87.375h11.866V44.035h.926l29.456 34.52 7.49 8.82h15.822l-1.431-1.68ZM112.262 64.613V24.129h-11.866v42.164h11.866v-1.68Z" fill="#000302" stroke="#030504" stroke-miterlimit="10"/><path d="M107.213 85.695V3.13h-1.768V87.375h1.768v-1.68ZM257.774 38.324h28.277v11.842H256.596V38.324h1.178ZM147.02 111.144h1.178l5.807 13.943h-1.43l-1.852-4.368h-6.312l-1.767 4.368h-1.515l5.891-13.943Zm3.451 8.483-2.778-6.887-2.861 6.887h5.639ZM180.767 123.995c.842 0 1.599-.168 2.189-.504.589-.336 1.01-.756 1.43-1.344.337-.504.589-1.176.758-1.848.168-.672.168-1.428.168-2.1v-7.055h1.347v7.055c0 .924-.085 1.848-.337 2.688a9.298 9.298 0 0 1-1.01 2.268c-.505.672-1.094 1.176-1.851 1.512-.758.42-1.684.588-2.778.588s-2.02-.168-2.777-.588a5.658 5.658 0 0 1-1.851-1.596 9.26 9.26 0 0 1-1.01-2.268c-.169-.84-.337-1.68-.337-2.604v-7.055h1.347v7.055c0 .756.084 1.428.252 2.184.168.672.421 1.344.757 1.848.337.504.842 1.008 1.431 1.26.673.336 1.431.504 2.272.504ZM219.649 112.32h-4.965v12.767h-1.347V112.32h-4.965v-1.26h11.362v1.26h-.085ZM246.412 125.171c-1.01 0-1.851-.168-2.693-.588-.841-.42-1.515-.924-2.104-1.596-.589-.672-1.01-1.428-1.346-2.268a7.149 7.149 0 0 1-.505-2.604c0-.924.168-1.847.505-2.687.336-.84.757-1.596 1.43-2.268.674-.672 1.263-1.176 2.104-1.596.842-.42 1.683-.588 2.609-.588 1.01 0 1.852.168 2.693.588.842.42 1.515.924 2.104 1.596.589.672 1.01 1.428 1.347 2.268.337.84.505 1.679.505 2.603 0 .924-.168 1.848-.505 2.688-.337.84-.758 1.596-1.347 2.268-.589.672-1.262 1.176-2.104 1.512-.925.504-1.767.672-2.693.672Zm-5.218-7.056c0 .756.085 1.512.337 2.184.252.672.589 1.344 1.094 1.848.421.504 1.01 1.008 1.599 1.26.589.336 1.347.504 2.104.504.758 0 1.515-.168 2.188-.504.674-.336 1.178-.756 1.599-1.344a7.875 7.875 0 0 0 1.01-1.848c.253-.672.337-1.428.337-2.1 0-.756-.169-1.512-.421-2.183-.252-.672-.589-1.344-1.094-1.848-.421-.504-1.01-1.008-1.599-1.26-.589-.336-1.347-.504-2.104-.504-.757 0-1.515.168-2.188.504-.673.336-1.178.756-1.599 1.344a7.875 7.875 0 0 0-1.01 1.848c-.253.671-.253 1.343-.253 2.099ZM283.442 113.748c-.421-.42-.925-.84-1.599-1.092a6.432 6.432 0 0 0-2.272-.42c-1.262 0-2.104.252-2.693.672-.589.504-.842 1.092-.842 1.932 0 .42.084.756.253 1.008.168.252.421.504.673.671.337.168.757.336 1.178.504.505.168 1.094.252 1.768.42.757.168 1.43.336 2.019.504a4.27 4.27 0 0 1 1.515.756c.421.336.758.672.926 1.092.253.42.337.924.337 1.596s-.084 1.176-.337 1.68c-.252.504-.589.84-1.01 1.176a3.426 3.426 0 0 1-1.599.672c-.589.168-1.262.252-2.02.252-2.188 0-4.039-.672-5.638-2.016l.673-1.092c.252.252.589.504.926.756.336.252.757.42 1.178.588.421.168.841.336 1.346.42.505.084 1.01.168 1.515.168 1.094 0 2.02-.168 2.609-.588.589-.42.926-1.008.926-1.848 0-.42-.084-.756-.253-1.092a1.646 1.646 0 0 0-.757-.756c-.337-.252-.757-.42-1.347-.588a18.3 18.3 0 0 0-1.851-.504 31.41 31.41 0 0 1-1.936-.504c-.589-.168-1.01-.42-1.43-.672a1.96 1.96 0 0 1-.842-1.008c-.168-.419-.252-.839-.252-1.427 0-.672.084-1.176.336-1.68a3.724 3.724 0 0 1 1.01-1.26c.421-.336 1.01-.588 1.599-.756.589-.168 1.263-.252 2.02-.252a7.95 7.95 0 0 1 2.525.42c.757.252 1.43.672 2.02 1.176l-.674 1.092ZM317.948 111.144v13.943h-1.347v-6.552h-8.332v6.552h-1.346v-13.943h1.346v6.215h8.332v-6.215h1.347ZM346.814 125.171c-1.01 0-1.852-.168-2.693-.588-.842-.42-1.515-.924-2.104-1.596-.59-.672-1.01-1.428-1.347-2.268a7.149 7.149 0 0 1-.505-2.604c0-.924.168-1.847.505-2.687.337-.84.757-1.596 1.431-2.268.673-.672 1.262-1.176 2.104-1.596.841-.42 1.683-.588 2.609-.588 1.01 0 1.851.168 2.693.588.841.42 1.515.924 2.104 1.596.589.672 1.01 1.428 1.346 2.268.337.84.505 1.679.505 2.603 0 .924-.168 1.848-.505 2.688-.336.84-.757 1.596-1.346 2.268-.589.672-1.263 1.176-2.104 1.512-.926.504-1.768.672-2.693.672Zm-5.218-7.056c0 .756.084 1.512.336 2.184.253.672.59 1.344 1.094 1.848.421.504 1.01 1.008 1.599 1.26.59.336 1.347.504 2.104.504.758 0 1.515-.168 2.189-.504.673-.336 1.178-.756 1.599-1.344a7.948 7.948 0 0 0 1.01-1.848c.252-.672.336-1.428.336-2.1 0-.756-.168-1.512-.421-2.183-.252-.672-.589-1.344-1.094-1.848-.42-.504-1.01-1.008-1.599-1.26-.589-.336-1.346-.504-2.104-.504-.757 0-1.515.168-2.188.504-.673.336-1.178.756-1.599 1.344a7.911 7.911 0 0 0-1.01 1.848c-.252.671-.252 1.343-.252 2.099ZM375.681 125.087v-13.943h5.807c.589 0 1.178.168 1.683.42.505.252.926.588 1.346 1.008.337.42.674.84.842 1.428.168.504.337 1.092.337 1.596 0 .588-.085 1.091-.337 1.679a5.795 5.795 0 0 1-.842 1.428c-.336.42-.757.756-1.262 1.008s-1.01.336-1.683.336h-4.545v5.124h-1.346v-.084Zm1.346-6.384h4.461c.42 0 .757-.084 1.094-.252.336-.168.589-.42.841-.672.253-.336.421-.672.589-1.008.169-.419.169-.755.169-1.175 0-.42-.084-.84-.253-1.26-.168-.42-.336-.756-.589-1.008a3.722 3.722 0 0 0-.926-.672 2.33 2.33 0 0 0-1.094-.252h-4.376v6.299h.084ZM384.518 85.695 352.285 1.03h-2.862l-27.436 72.485-5.217 13.858h1.851l2.946-7.727 10.099-26.793h27.604l8.753 23.014 4.376 11.507h12.792l-.673-1.68Zm-52.011-34.52 13.045-34.437 13.045 34.436h-26.09Z" fill="#000302" stroke="#030504" stroke-miterlimit="10"/></svg>