<svg width="386" height="125" fill="none" xmlns="http://www.w3.org/2000/svg"><path d="M36.379 66.107h-.253L14.245 2.144H.695v84.749h1.768V5.355h.252L30.91 86.977 59.27 4.51h.253v82.383h11.866V2.144H58.344L36.38 66.107ZM275.98 3.75v38.952h-39.47V2.144h-1.852v84.749h1.852V44.39h39.47V86.893h11.783V2.144H275.98v1.605ZM204.613 85.203l-43.09-49.43 30.129-32.024 1.599-1.605h-2.356l-9.763 10.308-27.604 29.151h-1.178V2.144h-11.867v84.749h11.867V43.293h.926l29.455 34.728 7.491 8.872h15.821l-1.43-1.69ZM111.869 63.994V23.268h-11.866v42.416h11.866v-1.69Z" fill="#494846"/><path d="M106.82 85.203V2.143h-1.767v84.75h1.767v-1.69ZM257.381 37.547H285.659v11.914H256.203V37.547h1.178ZM146.627 110.805h1.179l5.807 14.026h-1.431l-1.852-4.394h-6.311l-1.768 4.394h-1.515l5.891-14.026Zm3.451 8.534-2.777-6.929-2.862 6.929h5.639ZM180.375 123.732c.841 0 1.599-.169 2.188-.507.589-.337 1.01-.76 1.431-1.351.336-.507.589-1.183.757-1.859.168-.676.168-1.437.168-2.113v-7.097h1.347v7.097c0 .93-.084 1.859-.337 2.704a9.347 9.347 0 0 1-1.01 2.282c-.504.675-1.094 1.182-1.851 1.52-.757.423-1.683.592-2.777.592s-2.02-.169-2.778-.592a5.671 5.671 0 0 1-1.851-1.605 9.378 9.378 0 0 1-1.01-2.281c-.168-.845-.337-1.69-.337-2.62v-7.097h1.347v7.097c0 .761.084 1.437.252 2.197.169.676.421 1.352.758 1.859.337.507.841 1.014 1.431 1.267.673.338 1.43.507 2.272.507ZM219.257 111.988h-4.966v12.843h-1.346v-12.843h-4.966v-1.268h11.362v1.268h-.084ZM246.02 124.915c-1.01 0-1.852-.169-2.693-.591-.842-.423-1.515-.929-2.104-1.605-.59-.676-1.01-1.437-1.347-2.282a7.226 7.226 0 0 1-.505-2.619c0-.93.168-1.859.505-2.704.337-.845.757-1.605 1.431-2.281.673-.676 1.262-1.183 2.104-1.606.841-.422 1.683-.591 2.609-.591 1.01 0 1.851.169 2.693.591.841.423 1.515.93 2.104 1.606.589.676 1.01 1.436 1.346 2.281.337.845.505 1.69.505 2.619 0 .93-.168 1.859-.505 2.704-.336.845-.757 1.606-1.346 2.282-.589.676-1.263 1.182-2.104 1.52-.926.507-1.768.676-2.693.676Zm-5.218-7.097c0 .76.084 1.521.336 2.197.253.676.59 1.352 1.095 1.859.42.507 1.009 1.014 1.599 1.267.589.338 1.346.507 2.104.507.757 0 1.514-.169 2.188-.507.673-.338 1.178-.76 1.599-1.352a8 8 0 0 0 1.01-1.859c.252-.676.336-1.436.336-2.112 0-.761-.168-1.521-.421-2.197-.252-.676-.589-1.352-1.094-1.859-.42-.507-1.01-1.014-1.599-1.267-.589-.338-1.346-.507-2.104-.507-.757 0-1.515.169-2.188.507-.673.338-1.178.76-1.599 1.352a7.957 7.957 0 0 0-1.01 1.858c-.252.676-.252 1.352-.252 2.113ZM283.05 113.424c-.421-.422-.926-.845-1.599-1.098a6.397 6.397 0 0 0-2.273-.423c-1.262 0-2.104.254-2.693.676-.589.507-.841 1.099-.841 1.943 0 .423.084.761.252 1.014.168.254.421.507.673.676.337.169.758.338 1.179.507.505.169 1.094.254 1.767.423.757.169 1.431.338 2.02.507a4.268 4.268 0 0 1 1.515.76c.42.338.757.676.925 1.099.253.422.337.929.337 1.605 0 .676-.084 1.183-.337 1.69-.252.507-.589.845-1.009 1.183a3.42 3.42 0 0 1-1.599.676c-.59.169-1.263.253-2.02.253-2.188 0-4.04-.676-5.639-2.027l.673-1.099c.253.254.589.507.926.761.337.253.757.422 1.178.591.421.169.842.338 1.347.422.505.085 1.01.169 1.515.169 1.094 0 2.02-.169 2.609-.591.589-.422.925-1.014.925-1.859 0-.422-.084-.76-.252-1.098a1.654 1.654 0 0 0-.758-.761c-.336-.253-.757-.422-1.346-.591a18.243 18.243 0 0 0-1.852-.507c-.757-.169-1.346-.338-1.935-.507-.589-.169-1.01-.423-1.431-.676-.421-.254-.673-.592-.842-1.014-.168-.423-.252-.845-.252-1.437 0-.675.084-1.182.337-1.689.252-.507.589-.93 1.01-1.268.42-.338 1.009-.591 1.599-.76.589-.169 1.262-.254 2.019-.254.926 0 1.768.169 2.525.423.758.253 1.431.676 2.02 1.183l-.673 1.098ZM317.555 110.805v14.026h-1.346v-6.591h-8.332v6.591h-1.347v-14.026h1.347v6.252h8.332v-6.252h1.346ZM346.421 124.915c-1.01 0-1.851-.169-2.693-.591-.842-.423-1.515-.929-2.104-1.605-.589-.676-1.01-1.437-1.347-2.282a7.247 7.247 0 0 1 0-5.323c.337-.845.758-1.605 1.431-2.281.673-.676 1.263-1.183 2.104-1.606.842-.422 1.683-.591 2.609-.591 1.01 0 1.852.169 2.693.591.842.423 1.515.93 2.104 1.606.589.676 1.01 1.436 1.347 2.281.336.845.505 1.69.505 2.619 0 .93-.169 1.859-.505 2.704-.337.845-.758 1.606-1.347 2.282-.589.676-1.262 1.182-2.104 1.52-.926.507-1.767.676-2.693.676Zm-5.218-7.097c0 .76.084 1.521.337 2.197.252.676.589 1.352 1.094 1.859.421.507 1.01 1.014 1.599 1.267.589.338 1.346.507 2.104.507.757 0 1.515-.169 2.188-.507.673-.338 1.178-.76 1.599-1.352a7.963 7.963 0 0 0 1.01-1.859c.252-.676.337-1.436.337-2.112 0-.761-.169-1.521-.421-2.197-.253-.676-.589-1.352-1.094-1.859-.421-.507-1.01-1.014-1.599-1.267-.589-.338-1.347-.507-2.104-.507a4.89 4.89 0 0 0-2.188.507c-.674.338-1.179.76-1.599 1.352a7.92 7.92 0 0 0-1.01 1.858c-.253.676-.253 1.352-.253 2.113ZM375.288 124.831v-14.026h5.807c.589 0 1.178.169 1.683.422.505.254.926.592 1.347 1.014.336.423.673.845.841 1.437.169.507.337 1.098.337 1.605 0 .591-.084 1.098-.337 1.69a5.864 5.864 0 0 1-.841 1.436 3.722 3.722 0 0 1-1.263 1.014c-.505.254-1.009.338-1.683.338h-4.544v5.154h-1.347v-.084Zm1.347-6.422h4.46c.421 0 .758-.084 1.094-.253.337-.169.589-.423.842-.676.252-.338.421-.676.589-1.014.168-.423.168-.761.168-1.183 0-.423-.084-.845-.252-1.267-.169-.423-.337-.761-.589-1.014a3.748 3.748 0 0 0-.926-.676 2.322 2.322 0 0 0-1.094-.254h-4.377v6.337h.085ZM384.125 85.203 351.892.03h-2.861l-27.436 72.92-5.218 13.942h1.851l2.946-7.774 10.099-26.954h27.604l8.753 23.152 4.376 11.576h12.792l-.673-1.69Zm-52.01-34.728 13.044-34.643 13.045 34.643h-26.089Z" fill="#494846"/></svg>