<svg width="385" height="124" fill="none" xmlns="http://www.w3.org/2000/svg"><path d="M35.771 65.55h-.252L13.638 2.095H.087V86.17h1.767V5.281h.253L30.3 86.254 58.663 4.443h.252V86.17h11.867V2.095H57.737L35.771 65.55ZM275.373 3.688v38.643h-39.471V2.095h-1.851V86.17h1.851V44.007h39.471V86.17h11.782V2.095h-11.782v1.593ZM204.005 84.494l-43.089-49.037 30.129-31.769 1.599-1.593h-2.357l-9.762 10.227-27.604 28.919h-1.179V2.095h-11.866V86.17h11.866V42.917h.926l29.456 34.452 7.49 8.801h15.822l-1.431-1.676ZM111.262 63.454V23.051H99.395v42.08h11.867v-1.677Z" fill="#6F8085"/><path d="M106.213 84.494V2.095h-1.768V86.17h1.768v-1.676ZM256.774 37.217h28.277v11.82H255.596v-11.82h1.178ZM146.02 109.892h1.178l5.807 13.915h-1.43l-1.852-4.359h-6.312l-1.767 4.359h-1.515l5.891-13.915Zm3.451 8.466-2.778-6.873-2.861 6.873h5.639ZM179.767 122.717c.842 0 1.599-.167 2.189-.503.589-.335 1.01-.754 1.43-1.341.337-.503.589-1.173.758-1.844.168-.671.168-1.425.168-2.096v-7.041h1.347v7.041c0 .922-.085 1.844-.337 2.683a9.279 9.279 0 0 1-1.01 2.263c-.505.671-1.094 1.173-1.851 1.509-.758.419-1.684.587-2.778.587s-2.02-.168-2.777-.587a5.65 5.65 0 0 1-1.851-1.593 9.224 9.224 0 0 1-1.01-2.263c-.169-.838-.337-1.677-.337-2.599v-7.041h1.347v7.041c0 .755.084 1.425.252 2.18.168.67.421 1.341.757 1.844.337.503.842 1.006 1.431 1.257.673.336 1.431.503 2.272.503ZM218.649 111.066h-4.965v12.741h-1.347v-12.741h-4.965v-1.258h11.362v1.258h-.085ZM245.412 123.891c-1.01 0-1.851-.168-2.693-.587-.841-.419-1.515-.922-2.104-1.593-.589-.67-1.01-1.425-1.346-2.263a7.118 7.118 0 0 1-.505-2.598c0-.922.168-1.845.505-2.683.336-.838.757-1.592 1.43-2.263.674-.671 1.263-1.174 2.104-1.593.842-.419 1.683-.586 2.609-.586 1.01 0 1.852.167 2.693.586.842.419 1.515.922 2.104 1.593.589.671 1.01 1.425 1.347 2.263.337.838.505 1.677.505 2.599 0 .922-.168 1.844-.505 2.682-.337.838-.758 1.593-1.347 2.263-.589.671-1.262 1.174-2.104 1.509-.925.503-1.767.671-2.693.671Zm-5.218-7.041c0 .754.085 1.508.337 2.179.252.671.589 1.341 1.094 1.844.421.503 1.01 1.006 1.599 1.257.589.336 1.347.503 2.104.503.758 0 1.515-.167 2.188-.503.674-.335 1.178-.754 1.599-1.341a7.83 7.83 0 0 0 1.01-1.844c.253-.67.337-1.425.337-2.095 0-.755-.169-1.509-.421-2.18-.252-.67-.589-1.341-1.094-1.844-.421-.503-1.01-1.006-1.599-1.257-.589-.336-1.347-.503-2.104-.503-.757 0-1.515.167-2.188.503-.673.335-1.178.754-1.599 1.341a7.85 7.85 0 0 0-1.01 1.844c-.253.671-.253 1.341-.253 2.096ZM282.442 112.491c-.421-.419-.925-.838-1.599-1.09a6.454 6.454 0 0 0-2.272-.419c-1.262 0-2.104.251-2.693.671-.589.503-.842 1.089-.842 1.928 0 .419.084.754.253 1.005.168.252.421.503.673.671.337.168.757.335 1.178.503.505.168 1.094.251 1.768.419.757.168 1.43.335 2.019.503.59.168 1.094.419 1.515.754.421.336.758.671.926 1.09.253.419.337.922.337 1.593 0 .67-.084 1.173-.337 1.676-.252.503-.589.838-1.01 1.174a3.433 3.433 0 0 1-1.599.67c-.589.168-1.262.252-2.02.252-2.188 0-4.039-.671-5.638-2.012l.673-1.09c.252.252.589.503.926.755.336.251.757.419 1.178.586.421.168.841.336 1.346.42.505.083 1.01.167 1.515.167 1.094 0 2.02-.167 2.609-.587.589-.419.926-1.005.926-1.844 0-.419-.084-.754-.253-1.089a1.644 1.644 0 0 0-.757-.755c-.337-.251-.757-.419-1.347-.587a18.358 18.358 0 0 0-1.851-.502c-.757-.168-1.347-.336-1.936-.503-.589-.168-1.01-.42-1.43-.671a1.957 1.957 0 0 1-.842-1.006c-.168-.419-.252-.838-.252-1.425 0-.67.084-1.173.336-1.676a3.727 3.727 0 0 1 1.01-1.258c.421-.335 1.01-.586 1.599-.754.589-.168 1.263-.252 2.02-.252a7.95 7.95 0 0 1 2.525.42c.757.251 1.43.67 2.02 1.173l-.674 1.09ZM316.948 109.892v13.915h-1.347v-6.538h-8.332v6.538h-1.346v-13.915h1.346v6.203h8.332v-6.203h1.347ZM345.814 123.891c-1.01 0-1.852-.168-2.693-.587-.842-.419-1.515-.922-2.104-1.593-.59-.67-1.01-1.425-1.347-2.263a7.118 7.118 0 0 1-.505-2.598c0-.922.168-1.845.505-2.683.337-.838.757-1.592 1.431-2.263.673-.671 1.262-1.174 2.104-1.593.841-.419 1.683-.586 2.609-.586 1.01 0 1.851.167 2.693.586.841.419 1.515.922 2.104 1.593.589.671 1.01 1.425 1.346 2.263.337.838.505 1.677.505 2.599 0 .922-.168 1.844-.505 2.682-.336.838-.757 1.593-1.346 2.263-.589.671-1.263 1.174-2.104 1.509-.926.503-1.768.671-2.693.671Zm-5.218-7.041c0 .754.084 1.508.336 2.179.253.671.59 1.341 1.094 1.844.421.503 1.01 1.006 1.599 1.257.59.336 1.347.503 2.104.503.758 0 1.515-.167 2.189-.503.673-.335 1.178-.754 1.599-1.341a7.902 7.902 0 0 0 1.01-1.844c.252-.67.336-1.425.336-2.095 0-.755-.168-1.509-.421-2.18-.252-.67-.589-1.341-1.094-1.844-.42-.503-1.01-1.006-1.599-1.257-.589-.336-1.346-.503-2.104-.503-.757 0-1.515.167-2.188.503-.673.335-1.178.754-1.599 1.341a7.885 7.885 0 0 0-1.01 1.844c-.252.671-.252 1.341-.252 2.096ZM374.681 123.807v-13.915h5.807c.589 0 1.178.168 1.683.419.505.252.926.587 1.346 1.006.337.419.674.838.842 1.425.168.503.337 1.09.337 1.593 0 .587-.085 1.09-.337 1.676a5.774 5.774 0 0 1-.842 1.425 3.712 3.712 0 0 1-1.262 1.006c-.505.252-1.01.335-1.683.335h-4.545v5.114h-1.346v-.084Zm1.346-6.371h4.461c.42 0 .757-.084 1.094-.251.336-.168.589-.419.841-.671.253-.335.421-.67.589-1.006.169-.419.169-.754.169-1.173 0-.419-.084-.838-.253-1.257-.168-.42-.336-.755-.589-1.006a3.719 3.719 0 0 0-.926-.671 2.33 2.33 0 0 0-1.094-.251h-4.376v6.286h.084ZM383.518 84.494 351.285 0h-2.862l-27.436 72.34-5.217 13.83h1.851l2.946-7.712 10.099-26.74h27.604l8.753 22.968 4.376 11.484h12.792l-.673-1.676Zm-52.011-34.452 13.045-34.367 13.045 34.367h-26.09Z" fill="#6F8085"/></svg>