<svg width="386" height="125" fill="none" xmlns="http://www.w3.org/2000/svg"><path d="M36.379 66.075h-.253L14.245 2.112H.695v84.749h1.768V5.323h.252L30.91 86.946 59.27 4.477h.253v82.383h11.866V2.112H58.344L36.38 66.075ZM275.98 3.718V42.67h-39.47V2.112h-1.852v84.749h1.852V44.36h39.47V86.86h11.783V2.112H275.98v1.606ZM204.613 85.171l-43.09-49.43 30.129-32.023 1.599-1.606h-2.356l-9.763 10.309-27.604 29.15h-1.178V2.113h-11.867v84.749h11.867V43.261h.926l29.455 34.728 7.491 8.872h15.821l-1.43-1.69ZM111.869 63.963V23.236h-11.866V65.653h11.866v-1.69Z" fill="#80818B"/><path d="M106.82 85.171V2.112h-1.767v84.749h1.767v-1.69ZM257.381 37.516H285.659V49.43H256.203V37.516h1.178ZM146.627 110.773h1.179l5.807 14.026h-1.431l-1.852-4.393h-6.311l-1.768 4.393h-1.515l5.891-14.026Zm3.451 8.534-2.777-6.928-2.862 6.928h5.639ZM180.375 123.701c.841 0 1.599-.169 2.188-.507.589-.338 1.01-.761 1.431-1.352.336-.507.589-1.183.757-1.859.168-.676.168-1.436.168-2.112v-7.098h1.347v7.098c0 .929-.084 1.859-.337 2.704a9.357 9.357 0 0 1-1.01 2.281c-.504.676-1.094 1.183-1.851 1.521-.757.422-1.683.591-2.777.591s-2.02-.169-2.778-.591a5.686 5.686 0 0 1-1.851-1.606 9.378 9.378 0 0 1-1.01-2.281c-.168-.845-.337-1.69-.337-2.619v-7.098h1.347v7.098c0 .76.084 1.436.252 2.197.169.676.421 1.351.758 1.858.337.507.841 1.014 1.431 1.268.673.338 1.43.507 2.272.507ZM219.257 111.956h-4.966v12.843h-1.346v-12.843h-4.966v-1.267h11.362v1.267h-.084ZM246.02 124.884c-1.01 0-1.852-.169-2.693-.592-.842-.422-1.515-.929-2.104-1.605-.59-.676-1.01-1.436-1.347-2.281a7.231 7.231 0 0 1-.505-2.62c0-.929.168-1.859.505-2.704.337-.845.757-1.605 1.431-2.281.673-.676 1.262-1.183 2.104-1.605.841-.423 1.683-.592 2.609-.592 1.01 0 1.851.169 2.693.592.841.422 1.515.929 2.104 1.605.589.676 1.01 1.436 1.346 2.281.337.845.505 1.69.505 2.62a7.34 7.34 0 0 1-.505 2.704c-.336.845-.757 1.605-1.346 2.281-.589.676-1.263 1.183-2.104 1.521-.926.507-1.768.676-2.693.676Zm-5.218-7.098c0 .761.084 1.521.336 2.197.253.676.59 1.352 1.095 1.859.42.507 1.009 1.014 1.599 1.267.589.338 1.346.507 2.104.507.757 0 1.514-.169 2.188-.507.673-.338 1.178-.76 1.599-1.352a7.993 7.993 0 0 0 1.01-1.858c.252-.676.336-1.437.336-2.113a6.36 6.36 0 0 0-.421-2.197c-.252-.676-.589-1.352-1.094-1.859-.42-.507-1.01-1.014-1.599-1.267-.589-.338-1.346-.507-2.104-.507-.757 0-1.515.169-2.188.507-.673.338-1.178.76-1.599 1.352a7.963 7.963 0 0 0-1.01 1.859c-.252.676-.252 1.352-.252 2.112ZM283.05 113.392c-.421-.422-.926-.845-1.599-1.098a6.419 6.419 0 0 0-2.273-.422c-1.262 0-2.104.253-2.693.675-.589.507-.841 1.099-.841 1.944 0 .422.084.76.252 1.014.168.253.421.507.673.676.337.169.758.338 1.179.507.505.169 1.094.253 1.767.422.757.169 1.431.338 2.02.507a4.27 4.27 0 0 1 1.515.761c.42.338.757.676.925 1.098.253.423.337.93.337 1.606 0 .675-.084 1.182-.337 1.689-.252.507-.589.845-1.009 1.183a3.41 3.41 0 0 1-1.599.676c-.59.169-1.263.254-2.02.254-2.188 0-4.04-.676-5.639-2.028l.673-1.099c.253.254.589.507.926.761.337.253.757.422 1.178.591.421.169.842.338 1.347.423.505.084 1.01.169 1.515.169 1.094 0 2.02-.169 2.609-.592.589-.422.925-1.014.925-1.858 0-.423-.084-.761-.252-1.099a1.652 1.652 0 0 0-.758-.76c-.336-.254-.757-.423-1.346-.592a18.243 18.243 0 0 0-1.852-.507c-.757-.169-1.346-.338-1.935-.507-.589-.169-1.01-.422-1.431-.676-.421-.253-.673-.591-.842-1.014-.168-.422-.252-.845-.252-1.436 0-.676.084-1.183.337-1.69a3.729 3.729 0 0 1 1.01-1.267c.42-.338 1.009-.592 1.599-.761.589-.169 1.262-.253 2.019-.253.926 0 1.768.169 2.525.422.758.254 1.431.676 2.02 1.183l-.673 1.098ZM317.555 110.773v14.026h-1.346v-6.59h-8.332v6.59h-1.347v-14.026h1.347v6.253h8.332v-6.253h1.346ZM346.421 124.884c-1.01 0-1.851-.169-2.693-.592-.842-.422-1.515-.929-2.104-1.605-.589-.676-1.01-1.436-1.347-2.281a7.253 7.253 0 0 1 0-5.324c.337-.845.758-1.605 1.431-2.281.673-.676 1.263-1.183 2.104-1.605.842-.423 1.683-.592 2.609-.592 1.01 0 1.852.169 2.693.592.842.422 1.515.929 2.104 1.605.589.676 1.01 1.436 1.347 2.281.336.845.505 1.69.505 2.62a7.36 7.36 0 0 1-.505 2.704c-.337.845-.758 1.605-1.347 2.281-.589.676-1.262 1.183-2.104 1.521-.926.507-1.767.676-2.693.676Zm-5.218-7.098c0 .761.084 1.521.337 2.197.252.676.589 1.352 1.094 1.859.421.507 1.01 1.014 1.599 1.267.589.338 1.346.507 2.104.507.757 0 1.515-.169 2.188-.507.673-.338 1.178-.76 1.599-1.352a7.957 7.957 0 0 0 1.01-1.858c.252-.676.337-1.437.337-2.113 0-.76-.169-1.521-.421-2.197-.253-.676-.589-1.352-1.094-1.859-.421-.507-1.01-1.014-1.599-1.267-.589-.338-1.347-.507-2.104-.507a4.89 4.89 0 0 0-2.188.507c-.674.338-1.179.76-1.599 1.352a7.926 7.926 0 0 0-1.01 1.859c-.253.676-.253 1.352-.253 2.112ZM375.288 124.799v-14.026h5.807c.589 0 1.178.169 1.683.423.505.253.926.591 1.347 1.014.336.422.673.844.841 1.436.169.507.337 1.098.337 1.605 0 .592-.084 1.099-.337 1.69a5.87 5.87 0 0 1-.841 1.437c-.337.422-.758.76-1.263 1.014-.505.253-1.009.338-1.683.338h-4.544v5.154h-1.347v-.085Zm1.347-6.421h4.46a2.32 2.32 0 0 0 1.094-.254c.337-.169.589-.422.842-.676.252-.338.421-.676.589-1.014.168-.422.168-.76.168-1.183 0-.422-.084-.845-.252-1.267-.169-.423-.337-.761-.589-1.014a3.748 3.748 0 0 0-.926-.676 2.322 2.322 0 0 0-1.094-.254h-4.377v6.338h.085ZM384.125 85.171 351.892 0h-2.861l-27.436 72.92-5.218 13.941h1.851l2.946-7.774 10.099-26.954h27.604l8.753 23.152 4.376 11.576h12.792l-.673-1.69Zm-52.01-34.728 13.044-34.642 13.045 34.642h-26.089Z" fill="#80818B"/></svg>