<svg width="458" height="148" fill="none" xmlns="http://www.w3.org/2000/svg"><path d="M43.15 78.25h-.3l-26-75.7H.75V102.85h2.1V6.35h.3l33.5 96.6 33.7-97.6h.3v97.5h14.1V2.55h-15.5l-26.1 75.7ZM327.85 4.45v46.1h-46.9v-48h-2.2V102.85h2.2v-50.3h46.9v50.3h14V2.55h-14v1.9ZM243.05 100.85l-51.2-58.5 35.8-37.9 1.9-1.9h-2.8l-11.6 12.2-32.8 34.5h-1.4V2.55h-14.1V102.85h14.1v-51.6h1.1l35 41.1 8.9 10.5h18.8l-1.7-2ZM132.85 75.75v-48.2h-14.1v50.2h14.1v-2Z" fill="#D8DEE8"/><path d="M126.85 100.85V2.55h-2.1v100.3h2.1v-2ZM305.75 44.45h33.6v14.1h-35v-14.1h1.4ZM174.15 131.15h1.4l6.9 16.6h-1.7l-2.2-5.2h-7.5l-2.1 5.2h-1.8l7-16.6Zm4.1 10.1-3.3-8.2-3.4 8.2h6.7ZM214.251 146.45c1 0 1.9-.2 2.6-.6.7-.4 1.2-.9 1.7-1.6.4-.6.7-1.4.9-2.2.2-.8.2-1.7.2-2.5v-8.4h1.6v8.4c0 1.1-.1 2.2-.4 3.2-.3 1-.7 1.9-1.2 2.7-.6.8-1.3 1.4-2.2 1.8-.9.5-2 .7-3.3.7-1.3 0-2.4-.2-3.3-.7-.9-.5-1.6-1.1-2.2-1.9-.5-.8-.9-1.7-1.2-2.7-.2-1-.4-2-.4-3.1v-8.4h1.6v8.4c0 .9.1 1.7.3 2.6.2.8.5 1.6.9 2.2.4.6 1 1.2 1.7 1.5.8.4 1.7.6 2.7.6ZM260.451 132.55h-5.9v15.2h-1.6v-15.2h-5.9v-1.5h13.5v1.5h-.1ZM292.251 147.85c-1.2 0-2.2-.2-3.2-.7-1-.5-1.8-1.1-2.5-1.9-.7-.8-1.2-1.7-1.6-2.7-.4-1-.6-2.1-.6-3.1 0-1.1.2-2.2.6-3.2.4-1 .9-1.9 1.7-2.7.8-.8 1.5-1.4 2.5-1.9s2-.7 3.1-.7c1.2 0 2.2.2 3.2.7 1 .5 1.8 1.1 2.5 1.9.7.8 1.2 1.7 1.6 2.7.4 1 .6 2 .6 3.1s-.2 2.2-.6 3.2c-.4 1-.9 1.9-1.6 2.7-.7.8-1.5 1.4-2.5 1.8-1.1.6-2.1.8-3.2.8Zm-6.2-8.4c0 .9.1 1.8.4 2.6.3.8.7 1.6 1.3 2.2.5.6 1.2 1.2 1.9 1.5.7.4 1.6.6 2.5.6.9 0 1.8-.2 2.6-.6.8-.4 1.4-.9 1.9-1.6.5-.7.9-1.4 1.2-2.2.3-.8.4-1.7.4-2.5 0-.9-.2-1.8-.5-2.6s-.7-1.6-1.3-2.2c-.5-.6-1.2-1.2-1.9-1.5-.7-.4-1.6-.6-2.5-.6-.9 0-1.8.2-2.6.6-.8.4-1.4.9-1.9 1.6-.5.7-.9 1.4-1.2 2.2-.3.8-.3 1.6-.3 2.5ZM336.25 134.25c-.5-.5-1.1-1-1.9-1.3-.8-.3-1.7-.5-2.7-.5-1.5 0-2.5.3-3.2.8-.7.6-1 1.3-1 2.3 0 .5.1.9.3 1.2.2.3.5.6.8.8.4.2.9.4 1.4.6.6.2 1.3.3 2.1.5.9.2 1.7.4 2.4.6.7.2 1.3.5 1.8.9s.9.8 1.1 1.3c.3.5.4 1.1.4 1.9 0 .8-.1 1.4-.4 2-.3.6-.7 1-1.2 1.4-.5.4-1.2.7-1.9.8-.7.2-1.5.3-2.4.3-2.6 0-4.8-.8-6.7-2.4l.8-1.3c.3.3.7.6 1.1.9.4.3.9.5 1.4.7.5.2 1 .4 1.6.5.6.1 1.2.2 1.8.2 1.3 0 2.4-.2 3.1-.7.7-.5 1.1-1.2 1.1-2.2 0-.5-.1-.9-.3-1.3-.2-.4-.5-.7-.9-.9-.4-.3-.9-.5-1.6-.7-.6-.2-1.3-.4-2.2-.6-.9-.2-1.6-.4-2.3-.6-.7-.2-1.2-.5-1.7-.8-.5-.3-.8-.7-1-1.2-.2-.5-.3-1-.3-1.7 0-.8.1-1.4.4-2 .3-.6.7-1.1 1.2-1.5.5-.4 1.2-.7 1.9-.9.7-.2 1.5-.3 2.4-.3 1.1 0 2.1.2 3 .5.9.3 1.7.8 2.4 1.4l-.8 1.3ZM377.25 131.15v16.6h-1.6v-7.8h-9.9v7.8h-1.6v-16.6h1.6v7.4h9.9v-7.4h1.6ZM411.55 147.85c-1.2 0-2.2-.2-3.2-.7-1-.5-1.8-1.1-2.5-1.9-.7-.8-1.2-1.7-1.6-2.7-.4-1-.6-2.1-.6-3.1 0-1.1.2-2.2.6-3.2.4-1 .9-1.9 1.7-2.7.8-.8 1.5-1.4 2.5-1.9s2-.7 3.1-.7c1.2 0 2.2.2 3.2.7 1 .5 1.8 1.1 2.5 1.9.7.8 1.2 1.7 1.6 2.7.4 1 .6 2 .6 3.1s-.2 2.2-.6 3.2c-.4 1-.9 1.9-1.6 2.7-.7.8-1.5 1.4-2.5 1.8-1.1.6-2.1.8-3.2.8Zm-6.2-8.4c0 .9.1 1.8.4 2.6.3.8.7 1.6 1.3 2.2.5.6 1.2 1.2 1.9 1.5.7.4 1.6.6 2.5.6.9 0 1.8-.2 2.6-.6.8-.4 1.4-.9 1.9-1.6.5-.7.9-1.4 1.2-2.2.3-.8.4-1.7.4-2.5 0-.9-.2-1.8-.5-2.6s-.7-1.6-1.3-2.2c-.5-.6-1.2-1.2-1.9-1.5-.7-.4-1.6-.6-2.5-.6-.9 0-1.8.2-2.6.6-.8.4-1.4.9-1.9 1.6-.5.7-.9 1.4-1.2 2.2-.3.8-.3 1.6-.3 2.5ZM445.851 147.75v-16.6h6.9c.7 0 1.4.2 2 .5.6.3 1.1.7 1.6 1.2.4.5.8 1 1 1.7.2.6.4 1.3.4 1.9 0 .7-.1 1.3-.4 2-.3.7-.6 1.2-1 1.7s-.9.9-1.5 1.2c-.6.3-1.2.4-2 .4h-5.4v6.1h-1.6v-.1Zm1.6-7.6h5.3c.5 0 .9-.1 1.3-.3.4-.2.7-.5 1-.8.3-.4.5-.8.7-1.2.2-.5.2-.9.2-1.4 0-.5-.1-1-.3-1.5-.2-.5-.4-.9-.7-1.2-.3-.3-.7-.6-1.1-.8-.4-.2-.8-.3-1.3-.3h-5.2v7.5h.1ZM456.35 100.85 418.05.05h-3.4l-32.6 86.3-6.2 16.5h2.2l3.5-9.2 12-31.9h32.8l10.4 27.4 5.2 13.7h15.2l-.8-2Zm-61.8-41.1 15.5-41 15.5 41h-31Z" fill="#D8DEE8"/></svg>