<svg width="928" height="465" fill="none" xmlns="http://www.w3.org/2000/svg"><path fill="#494846" d="M0 .5h928v464H0z"/><path d="m177.07 94.54-19.8 52.38h39.6l-19.8-52.38Zm-58.5 104.94h15.84l48.6-128.88h4.32l48.96 128.88h16.02V202h-55.44v-2.52h19.98l-18.9-50.04h-41.76l-18.9 50.04h19.98V202h-38.7v-2.52Zm188.138-41.58h-.36c-.24 1.56-2.22 3.12-5.94 4.68l-13.5 5.4c-3.84 1.56-6.78 3.78-8.82 6.66-2.04 2.76-3.06 6.24-3.06 10.44 0 1.8.18 3.66.54 5.58.36 1.92 1.02 3.66 1.98 5.22.96 1.44 2.28 2.64 3.96 3.6 1.8.96 4.08 1.44 6.84 1.44 3.96 0 7.14-.84 9.54-2.52 2.52-1.68 4.38-3.78 5.58-6.3 1.32-2.52 2.16-5.22 2.52-8.1.48-3 .72-5.7.72-8.1v-18Zm31.5 42.12c-1.56 1.2-3.42 2.22-5.58 3.06-2.16.96-4.8 1.44-7.92 1.44-5.76 0-9.96-1.2-12.6-3.6-2.52-2.52-4.26-6-5.22-10.44h-.36c-.48 1.08-1.14 2.46-1.98 4.14-.84 1.56-2.16 3.12-3.96 4.68-1.68 1.44-3.96 2.64-6.84 3.6-2.88 1.08-6.54 1.62-10.98 1.62-5.04 0-9.06-.6-12.06-1.8-3-1.08-5.34-2.46-7.02-4.14-1.68-1.68-2.82-3.54-3.42-5.58-.48-2.16-.72-4.14-.72-5.94 0-4.2.84-7.56 2.52-10.08 1.68-2.52 3.84-4.5 6.48-5.94 2.76-1.56 5.76-2.82 9-3.78 3.36-.96 6.72-1.98 10.08-3.06 3.96-1.32 7.2-2.46 9.72-3.42 2.64-.96 4.68-2.1 6.12-3.42 1.44-1.44 2.4-3.18 2.88-5.22.6-2.16.9-5.04.9-8.64 0-2.88-.18-5.46-.54-7.74-.36-2.28-1.02-4.2-1.98-5.76-.96-1.68-2.34-2.94-4.14-3.78-1.8-.84-4.2-1.26-7.2-1.26-3.96 0-7.26.72-9.9 2.16-2.52 1.32-3.78 3.54-3.78 6.66 0 2.04.18 4.08.54 6.12.36 1.92.54 3.36.54 4.32 0 1.68-.6 3.12-1.8 4.32-1.2 1.08-2.94 1.62-5.22 1.62-3.96 0-6.42-.72-7.38-2.16-.96-1.44-1.44-3.3-1.44-5.58 0-2.64.6-5.16 1.8-7.56 1.2-2.4 2.94-4.5 5.22-6.3 2.4-1.92 5.34-3.42 8.82-4.5 3.6-1.08 7.68-1.62 12.24-1.62 5.52 0 10.14.72 13.86 2.16 3.72 1.32 6.72 3.18 9 5.58 2.28 2.28 3.9 4.92 4.86 7.92.96 2.88 1.44 5.94 1.44 9.18v44.82c0 3.48.54 5.82 1.62 7.02 1.08 1.2 2.64 1.8 4.68 1.8 1.32 0 2.7-.24 4.14-.72 1.44-.48 2.82-1.2 4.14-2.16l1.44 1.98ZM131.71 280.12l-4.4 11.64h8.8l-4.4-11.64Zm-13 23.32h3.52l10.8-28.64h.96l10.88 28.64h3.56v.56h-12.32v-.56h4.44l-4.2-11.12h-9.28l-4.2 11.12h4.44v.56h-8.6v-.56Zm39.328-15h3.68c.747 0 1.427-.093 2.04-.28a3.501 3.501 0 0 0 1.56-.96c.454-.48.8-1.12 1.04-1.92.24-.8.36-1.813.36-3.04 0-1.387-.186-2.493-.56-3.32-.346-.853-.813-1.493-1.4-1.92a4.452 4.452 0 0 0-1.92-.84 11.01 11.01 0 0 0-2.08-.2c-.48 0-.973.013-1.48.04-.48 0-.893.027-1.24.08v12.36Zm0 15c.32.027.667.067 1.04.12.4.027.96.04 1.68.04 1.254 0 2.32-.12 3.2-.36.907-.24 1.64-.653 2.2-1.24.587-.613 1.014-1.413 1.28-2.4.267-.987.4-2.227.4-3.72 0-2.133-.453-3.813-1.36-5.04-.906-1.227-2.253-1.84-4.04-1.84h-4.4v14.44Zm-8.44 0h4.44v-27.36h-4.44v-.56h8.2l1.28-.08h1.24c.4-.027.787-.04 1.16-.04 1.947 0 3.547.24 4.8.72 1.254.453 2.24 1.027 2.96 1.72.72.667 1.214 1.4 1.48 2.2.267.773.4 1.48.4 2.12 0 .88-.2 1.693-.6 2.44a6.101 6.101 0 0 1-1.56 1.96 7.86 7.86 0 0 1-2.24 1.36c-.853.347-1.746.573-2.68.68v.08c.96.08 1.934.293 2.92.64 1.014.32 1.92.787 2.72 1.4a6.861 6.861 0 0 1 2 2.2c.507.88.76 1.893.76 3.04 0 1.2-.226 2.307-.68 3.32-.453.987-1.133 1.84-2.04 2.56-.906.72-2.053 1.293-3.44 1.72-1.386.4-3 .6-4.84.6-.373 0-.746-.013-1.12-.04-.346 0-.72-.013-1.12-.04-.4-.027-.813-.053-1.24-.08h-8.36v-.56Zm52.32.56h-.6c-.187-.213-.4-.4-.64-.56-.24-.187-.613-.28-1.12-.28-.4 0-.84.08-1.32.24-.453.133-.987.293-1.6.48-.587.187-1.253.347-2 .48-.747.16-1.573.24-2.48.24-1.68 0-3.32-.307-4.92-.92-1.573-.613-3.067-1.613-4.48-3-1.307-1.307-2.4-2.853-3.28-4.64-.88-1.787-1.32-3.853-1.32-6.2 0-2 .36-3.907 1.08-5.72a15.373 15.373 0 0 1 3-4.8 14.166 14.166 0 0 1 4.52-3.28c1.733-.827 3.627-1.24 5.68-1.24.827 0 1.56.08 2.2.24.64.16 1.213.347 1.72.56.507.187.973.36 1.4.52.427.16.84.24 1.24.24.533 0 .907-.08 1.12-.24.24-.187.453-.387.64-.6h.6v8h-.44a24.377 24.377 0 0 0-.92-3 8.228 8.228 0 0 0-1.56-2.6c-.667-.773-1.52-1.387-2.56-1.84-1.013-.48-2.28-.72-3.8-.72-1.413 0-2.627.227-3.64.68-1.013.427-1.867 1.013-2.56 1.76a8.539 8.539 0 0 0-1.68 2.56c-.4.96-.707 1.987-.92 3.08a26.314 26.314 0 0 0-.44 3.28 64.562 64.562 0 0 0-.08 3.12c0 2.8.227 5.12.68 6.96.453 1.84 1.08 3.293 1.88 4.36.827 1.067 1.813 1.813 2.96 2.24 1.147.427 2.413.64 3.8.64 1.787 0 3.227-.253 4.32-.76 1.093-.507 1.973-1.16 2.64-1.96a9.013 9.013 0 0 0 1.52-2.76c.347-1.04.653-2.067.92-3.08h.44V304Zm11.667-.56c.454.053.974.093 1.56.12.614.027 1.28.04 2 .04.907 0 1.8-.04 2.68-.12.907-.107 1.76-.307 2.56-.6a8.47 8.47 0 0 0 2.28-1.32c.72-.587 1.36-1.347 1.92-2.28.854-1.44 1.44-2.907 1.76-4.4.347-1.52.52-3.173.52-4.96 0-2.107-.2-4.013-.6-5.72-.4-1.733-1.066-3.2-2-4.4-.906-1.227-2.12-2.173-3.64-2.84-1.52-.667-3.4-1-5.64-1-.666 0-1.28.013-1.84.04l-1.56.08v27.36Zm-8.44 0h4.44v-27.36h-4.44v-.56h8.56l1.12-.08h1.12c.374-.027.747-.04 1.12-.04.8 0 1.507.013 2.12.04.64.027 1.227.08 1.76.16.56.053 1.08.147 1.56.28.507.107 1.04.253 1.6.44 1.627.533 3.027 1.253 4.2 2.16 1.2.88 2.174 1.907 2.92 3.08a12.343 12.343 0 0 1 1.68 3.84c.374 1.387.56 2.84.56 4.36 0 1.76-.213 3.347-.64 4.76-.426 1.387-1.013 2.627-1.76 3.72-.746 1.067-1.626 2-2.64 2.8-.986.773-2.053 1.4-3.2 1.88-.64.293-1.253.52-1.84.68-.56.16-1.146.28-1.76.36-.586.08-1.24.133-1.96.16-.72.027-1.546.04-2.48.04-.4 0-.826-.013-1.28-.04-.453 0-.906-.013-1.36-.04l-1.36-.08h-8.04v-.56Zm32.618 0h4.44v-27.36h-4.44v-.56h22.88v6.92h-.44c-.347-1.04-.72-1.947-1.12-2.72-.4-.8-.88-1.467-1.44-2a5.177 5.177 0 0 0-2-1.24c-.774-.267-1.707-.4-2.8-.4h-6.64v12.36h2.6c.88 0 1.626-.08 2.24-.24a3.361 3.361 0 0 0 1.56-.88c.453-.453.826-1.053 1.12-1.8.32-.773.626-1.76.92-2.96h.44V295h-.44a46.164 46.164 0 0 0-.6-2.24 6.282 6.282 0 0 0-.84-1.92c-.347-.56-.827-1-1.44-1.32-.587-.347-1.36-.52-2.32-.52h-3.24v14.44h7.56c1.466 0 2.68-.307 3.64-.92.986-.64 1.786-1.387 2.4-2.24a10.028 10.028 0 0 0 1.36-2.72c.293-.933.48-1.707.56-2.32h.44V304h-24.4v-.56Zm28.164 0h4.44v-27.36h-4.44v-.56h22.88v6.92h-.44c-.347-1.04-.72-1.947-1.12-2.72-.4-.8-.88-1.467-1.44-2a5.177 5.177 0 0 0-2-1.24c-.774-.267-1.707-.4-2.8-.4h-6.64v12.96h2.6c.88 0 1.626-.08 2.24-.24a3.361 3.361 0 0 0 1.56-.88c.453-.453.826-1.053 1.12-1.8.32-.773.626-1.76.92-2.96h.44v12.44h-.44a46.164 46.164 0 0 0-.6-2.24 6.282 6.282 0 0 0-.84-1.92c-.347-.56-.827-1-1.44-1.32-.587-.347-1.36-.52-2.32-.52h-3.24v13.84h4.44v.56h-12.88v-.56Zm56.439-9.64h-3.2v9.08h-.48c-.293-.293-.533-.493-.72-.6-.186-.107-.48-.16-.88-.16-.48 0-.973.133-1.48.4-.48.24-1.053.52-1.72.84-.64.32-1.4.6-2.28.84-.88.267-1.946.4-3.2.4-1.893 0-3.573-.307-5.04-.92-1.466-.64-2.88-1.64-4.24-3-1.333-1.333-2.44-2.907-3.32-4.72-.88-1.813-1.32-3.853-1.32-6.12 0-1.52.174-2.88.52-4.08.347-1.227.76-2.293 1.24-3.2.507-.907 1.014-1.667 1.52-2.28.534-.613.974-1.093 1.32-1.44 1.2-1.2 2.574-2.173 4.12-2.92 1.547-.747 3.307-1.12 5.28-1.12 1.014 0 1.84.08 2.48.24.667.16 1.24.347 1.72.56.48.187.907.36 1.28.52.4.16.84.24 1.32.24.534 0 .907-.067 1.12-.2.24-.16.467-.373.68-.64h.6v8h-.44c-.106-.693-.32-1.507-.64-2.44-.293-.933-.773-1.827-1.44-2.68-.64-.853-1.506-1.573-2.6-2.16-1.066-.587-2.44-.88-4.12-.88-2 0-3.613.427-4.84 1.28-1.2.827-2.146 1.933-2.84 3.32-.666 1.36-1.12 2.907-1.36 4.64a42.918 42.918 0 0 0-.32 5.24c0 1.2.054 2.4.16 3.6.107 1.2.28 2.333.52 3.4a14.452 14.452 0 0 0 1.08 2.96 7.64 7.64 0 0 0 1.76 2.32c.8.72 1.627 1.227 2.48 1.52.854.267 1.96.4 3.32.4.827 0 1.654-.133 2.48-.4a6.709 6.709 0 0 0 2.2-1.28c.667-.56 1.2-1.267 1.6-2.12.427-.88.64-1.907.64-3.08v-3.36h-5.16v-.56h12.2v.56Zm2.076 9.64h4.44v-27.36h-4.44v-.56h12.88v.56h-4.44v13.08h13.32v-13.08h-4.44v-.56h12.88v.56h-4.44v27.36h4.44v.56h-12.88v-.56h4.44v-13.72h-13.32v13.72h4.44v.56h-12.88v-.56Zm32.737 0h4.44v-27.36h-4.44v-.56h12.88v.56h-4.44v27.36h4.44v.56h-12.88v-.56Zm27.348-6.76c0 1.093-.12 2.12-.36 3.08-.213.96-.586 1.8-1.12 2.52-.506.72-1.186 1.293-2.04 1.72-.853.4-1.893.6-3.12.6-.853 0-1.64-.107-2.36-.32a5.792 5.792 0 0 1-1.88-.84c-.533-.4-.96-.867-1.28-1.4a3.674 3.674 0 0 1-.44-1.8c0-.8.227-1.44.68-1.92.454-.507 1.12-.76 2-.76.4 0 .734.067 1 .2.267.133.467.293.6.48.16.16.267.347.32.56.08.213.12.4.12.56 0 .293-.04.547-.12.76l-.24.64c-.08.213-.16.44-.24.68-.08.24-.12.547-.12.92 0 .613.174 1.053.52 1.32.374.24.867.36 1.48.36.774 0 1.4-.28 1.88-.84.48-.587.72-1.6.72-3.04v-24.08h-4.44v-.56h12.88v.56h-4.44v20.6Zm6.556 6.76h4.44v-27.36h-4.44v-.56h12.56v.56h-4.12v12.72h.4l12.08-12.72h-4.16v-.56h8.28v.56h-3.32l-10.16 10.76 14.52 16.6h2.64v.56h-11.56v-.56h3.6l-12-14.08h-.32v14.08h4.12v.56h-12.56v-.56Zm29.648 0h4.44v-27.36h-4.44v-.56h12.88v.56h-4.44v27.36h7.12c2.347 0 4.187-.733 5.52-2.2 1.334-1.467 2.307-3.467 2.92-6h.44V304h-24.44v-.56Zm27.223 0h4.44v-27.36h-4.44v-.56h9l7.4 21.52h.08l7.4-21.52h8.84v.56h-4.44v27.36h4.44v.56h-12.88v-.56h4.44v-27.12h-.08l-9.56 27.72-9.52-27.44h-.08v26.84h4.44v.56h-9.48v-.56Zm34.605 0h4.44v-27.36h-4.44v-.56h8.56l13.52 21.8h.08v-21.24h-4.44v-.56h9.48v.56h-4.44v28.48h-.8l-16.84-26.84h-.08v25.72h4.44v.56h-9.48v-.56Zm35.347-13.72c0 2.4.16 4.493.48 6.28.32 1.787.853 3.28 1.6 4.48.747 1.2 1.707 2.093 2.88 2.68 1.173.587 2.627.88 4.36.88 1.707 0 3.147-.293 4.32-.88 1.2-.587 2.173-1.48 2.92-2.68.747-1.2 1.28-2.693 1.6-4.48.32-1.787.48-3.88.48-6.28 0-1.84-.12-3.613-.36-5.32-.24-1.733-.707-3.267-1.4-4.6-.667-1.36-1.613-2.44-2.84-3.24-1.2-.8-2.773-1.2-4.72-1.2-1.947 0-3.533.4-4.76 1.2-1.2.8-2.147 1.88-2.84 3.24-.667 1.333-1.12 2.867-1.36 4.6-.24 1.707-.36 3.48-.36 5.32Zm-4.6 0c0-2.133.413-4.107 1.24-5.92.853-1.813 1.933-3.387 3.24-4.72a15.09 15.09 0 0 1 4.48-3.12c1.653-.773 3.307-1.16 4.96-1.16 1.76 0 3.467.387 5.12 1.16a14.445 14.445 0 0 1 4.48 3.12c1.307 1.333 2.347 2.907 3.12 4.72.8 1.813 1.2 3.787 1.2 5.92 0 1.867-.36 3.693-1.08 5.48a15.9 15.9 0 0 1-2.96 4.76 14.899 14.899 0 0 1-4.44 3.36c-1.68.853-3.493 1.28-5.44 1.28-2 0-3.853-.413-5.56-1.24a14.673 14.673 0 0 1-4.44-3.28 15.663 15.663 0 0 1-2.88-4.76 15.56 15.56 0 0 1-1.04-5.6Zm40.201-.04c.534.107 1.094.187 1.68.24.587.053 1.107.08 1.56.08 1.974 0 3.507-.573 4.6-1.72 1.12-1.173 1.68-2.933 1.68-5.28 0-1.36-.133-2.493-.4-3.4-.266-.907-.693-1.627-1.28-2.16-.56-.56-1.306-.947-2.24-1.16-.906-.213-2-.32-3.28-.32-.506 0-.973.013-1.4.04-.4.027-.706.053-.92.08v13.6Zm-8.44 13.76h4.44v-27.36h-4.44v-.56h8.64l1.12-.08h1.08c.374-.027.747-.04 1.12-.04 1.52 0 2.92.187 4.2.56 1.307.347 2.427.853 3.36 1.52.96.667 1.707 1.467 2.24 2.4.534.933.8 1.973.8 3.12 0 1.2-.306 2.267-.92 3.2-.613.933-1.426 1.72-2.44 2.36-1.013.64-2.2 1.133-3.56 1.48-1.333.347-2.733.52-4.2.52-.373 0-.853-.027-1.44-.08-.586-.08-1.106-.16-1.56-.24v13.2h4.44v.56h-12.88v-.56Zm32.058-13.72c0 2.4.16 4.493.48 6.28.32 1.787.853 3.28 1.6 4.48.746 1.2 1.706 2.093 2.88 2.68 1.173.587 2.626.88 4.36.88 1.706 0 3.146-.293 4.32-.88 1.2-.587 2.173-1.48 2.92-2.68.746-1.2 1.28-2.693 1.6-4.48.32-1.787.48-3.88.48-6.28 0-1.84-.12-3.613-.36-5.32-.24-1.733-.707-3.267-1.4-4.6-.667-1.36-1.614-2.44-2.84-3.24-1.2-.8-2.774-1.2-4.72-1.2-1.947 0-3.534.4-4.76 1.2-1.2.8-2.147 1.88-2.84 3.24-.667 1.333-1.12 2.867-1.36 4.6-.24 1.707-.36 3.48-.36 5.32Zm22.12 21.88c-2.32-.027-4.174-.12-5.56-.28-1.36-.16-2.467-.413-3.32-.76-.827-.347-1.52-.813-2.08-1.4a28.023 28.023 0 0 1-1.8-2.24c-.587-.773-1.214-1.413-1.88-1.92-.667-.48-1.28-.8-1.84-.96a12.026 12.026 0 0 1-4.16-2 14.69 14.69 0 0 1-3.24-3.32 15.757 15.757 0 0 1-2.12-4.24 15.968 15.968 0 0 1-.72-4.76c0-2.08.4-4.027 1.2-5.84.826-1.813 1.893-3.387 3.2-4.72a15.333 15.333 0 0 1 4.48-3.2c1.653-.773 3.333-1.16 5.04-1.16 1.76 0 3.466.387 5.12 1.16a14.445 14.445 0 0 1 4.48 3.12c1.306 1.333 2.346 2.907 3.12 4.72.8 1.813 1.2 3.787 1.2 5.92 0 1.867-.36 3.693-1.08 5.48a15.9 15.9 0 0 1-2.96 4.76 14.924 14.924 0 0 1-4.44 3.36c-1.68.853-3.494 1.28-5.44 1.28-.507 0-1.014-.04-1.52-.12l-.04.12c.4.213.773.413 1.12.6.373.187.773.347 1.2.48.426.16.893.293 1.4.4.533.107 1.16.2 1.88.28a4.43 4.43 0 0 1 2.16.84 9.912 9.912 0 0 1 1.84 1.64c.346.4.653.733.92 1 .293.293.6.52.92.68.346.187.746.32 1.2.4.453.08 1.026.12 1.72.12v.56Zm13.481-23.16h3.68c.747 0 1.427-.093 2.04-.28a3.512 3.512 0 0 0 1.56-.96c.453-.48.8-1.12 1.04-1.92.24-.8.36-1.813.36-3.04 0-1.387-.187-2.493-.56-3.32-.347-.853-.813-1.493-1.4-1.92a4.452 4.452 0 0 0-1.92-.84c-.693-.133-1.387-.2-2.08-.2-.48 0-.973.013-1.48.04-.48 0-.893.027-1.24.08v12.36Zm-8.44 15h4.44v-27.36h-4.44v-.56H612.846l.96-.08h.96c.32-.027.64-.04.96-.04 1.573 0 2.96.093 4.16.28 1.2.16 2.32.653 3.36 1.48.933.72 1.587 1.533 1.96 2.44.4.907.6 1.76.6 2.56 0 .4-.08.92-.24 1.56-.133.613-.453 1.253-.96 1.92-.48.64-1.187 1.24-2.12 1.8-.933.533-2.173.893-3.72 1.08v.08c.427.053 1 .16 1.72.32a9.092 9.092 0 0 1 2.24.72c.773.347 1.48.813 2.12 1.4.64.56 1.093 1.293 1.36 2.2a8.75 8.75 0 0 1 .32 1.84c.08.667.133 1.36.16 2.08.053.72.093 1.413.12 2.08.053.667.133 1.227.24 1.68.16.693.413 1.32.76 1.88.347.56.907.84 1.68.84a3.21 3.21 0 0 0 1.08-.2 2.674 2.674 0 0 0 1-.64l.36.44c-.133.107-.293.227-.48.36a3.54 3.54 0 0 1-.64.32c-.267.107-.6.187-1 .24-.373.08-.84.12-1.4.12-1.067 0-1.96-.133-2.68-.4-.693-.267-1.253-.653-1.68-1.16-.427-.533-.747-1.173-.96-1.92-.187-.773-.32-1.667-.4-2.68l-.28-3.64c-.107-1.333-.373-2.373-.8-3.12-.427-.747-.933-1.293-1.52-1.64a3.956 3.956 0 0 0-1.76-.6c-.613-.08-1.147-.12-1.6-.12h-4v14.44h4.44v.56h-12.88v-.56Zm30.667-8.04h.44c.293 1.44.667 2.653 1.12 3.64.48.987 1 1.8 1.56 2.44.56.64 1.147 1.133 1.76 1.48a7.67 7.67 0 0 0 1.84.76c.64.16 1.24.253 1.8.28.587.027 1.133.04 1.64.04 1.413 0 2.573-.213 3.48-.64.907-.427 1.627-.96 2.16-1.6.533-.667.907-1.373 1.12-2.12.213-.773.32-1.48.32-2.12 0-.933-.173-1.733-.52-2.4a5.514 5.514 0 0 0-1.32-1.68 6.928 6.928 0 0 0-1.76-1.16c-.613-.293-1.2-.52-1.76-.68l-4.6-1.4c-2.16-.667-3.8-1.547-4.92-2.64-1.093-1.093-1.64-2.56-1.64-4.4 0-1.2.213-2.307.64-3.32a7.794 7.794 0 0 1 1.8-2.68 8.425 8.425 0 0 1 2.76-1.76c1.093-.427 2.28-.64 3.56-.64.933 0 1.707.08 2.32.24a9.03 9.03 0 0 1 1.64.56c.453.187.853.36 1.2.52.373.16.747.24 1.12.24.347 0 .573-.04.68-.12.133-.107.307-.347.52-.72h.56v7.24h-.48c-.16-.96-.44-1.88-.84-2.76a7.877 7.877 0 0 0-1.48-2.36 6.591 6.591 0 0 0-2.24-1.64c-.853-.427-1.853-.64-3-.64-.64 0-1.347.093-2.12.28a6.366 6.366 0 0 0-2.16.88 5.607 5.607 0 0 0-1.68 1.68c-.427.693-.64 1.573-.64 2.64 0 .853.173 1.587.52 2.2a5.552 5.552 0 0 0 1.32 1.52c.56.4 1.173.747 1.84 1.04.693.267 1.387.507 2.08.72l4.84 1.52c.507.16 1.147.373 1.92.64a8.34 8.34 0 0 1 2.24 1.2c.747.533 1.373 1.24 1.88 2.12.533.88.8 2 .8 3.36 0 1.253-.24 2.453-.72 3.6a8.963 8.963 0 0 1-2 3c-.88.853-1.947 1.547-3.2 2.08-1.253.507-2.667.76-4.24.76-.56 0-1.053-.013-1.48-.04a8.54 8.54 0 0 1-1.2-.08c-.373-.053-.747-.12-1.12-.2a8.9 8.9 0 0 1-1.24-.28 42.498 42.498 0 0 1-1.72-.56c-.613-.213-1.147-.32-1.6-.32-.4 0-.68.08-.84.24a2.39 2.39 0 0 0-.36.64h-.6v-8.6Zm30.92 8.04h4.44v-27.36h-2.32c-.534 0-1.134.053-1.8.16-.667.08-1.347.333-2.04.76-.667.427-1.32 1.107-1.96 2.04-.614.907-1.147 2.173-1.6 3.8h-.44v-7.32h24.32v7.32h-.44c-.454-1.627-1-2.893-1.64-3.8-.614-.933-1.267-1.613-1.96-2.04-.667-.427-1.334-.68-2-.76a11.47 11.47 0 0 0-1.8-.16h-2.32v27.36h4.44v.56h-12.88v-.56Zm20.944-27.92h12.88v.56h-4.44v19.32c0 1.6.133 2.96.4 4.08.293 1.093.72 1.987 1.28 2.68a4.73 4.73 0 0 0 2.08 1.44c.826.293 1.773.44 2.84.44 1.493 0 2.813-.213 3.96-.64 1.146-.453 2.133-1.24 2.96-2.36a7.79 7.79 0 0 0 .68-1.04c.213-.347.386-.747.52-1.2.16-.48.28-1.04.36-1.68.08-.667.12-1.48.12-2.44v-18.6h-4.44v-.56h9.48v.56h-4.44v19.4c0 1.12-.12 2.147-.36 3.08-.24.907-.734 1.853-1.48 2.84-.72.96-1.72 1.733-3 2.32-1.28.587-2.974.88-5.08.88-3.2 0-5.654-.787-7.36-2.36-1.68-1.573-2.52-3.987-2.52-7.24v-18.92h-4.44v-.56Zm29.031 0h12.36v.56h-4.44l8.88 23.2 8.76-23.2h-4.36v-.56h8.64v.56h-3.6l-10.76 28.52h-1l-10.88-28.52h-3.6v-.56Zm28.947 0h12.04v.56h-4.16l8.24 23.2h.08l5.32-14.76-3.04-8.44h-3.36v-.56h12v.56h-4.36l8.24 23.2h.08l8.4-23.2h-4.28v-.56h8.56v.56h-3.6l-10.36 28.52h-1l-6.88-19.2h-.08l-6.96 19.2h-1.08l-10.2-28.52h-3.6v-.56Zm44.489 27.92h3.84l8-13.36-8.52-14h-3.32v-.56h11.92v.56h-3.84l6.4 10.52 6.4-10.52h-3.84v-.56h8.32v.56h-3.84l-6.68 11.08 9.96 16.28h3.32v.56h-12v-.56h3.84l-7.8-12.8-7.64 12.8h3.84v.56h-8.36v-.56Zm37.352 0h4.44v-11.48l-9-15.88h-3.64v-.56h12.24v.56h-4l8 14.08 7.56-14.08h-4.04v-.56h8.56v.56h-3.88l-7.8 14.6v12.76h4.44v.56h-12.88v-.56Zm24.244-27.92h19.08l-16.76 27.92h8.8c1.333 0 2.36-.187 3.08-.56.72-.4 1.36-.867 1.92-1.4.586-.533 1.186-1.347 1.8-2.44.613-1.093 1.066-2.36 1.36-3.8h.44V304h-22.12l16.68-27.92h-6.2c-2.16 0-3.84.573-5.04 1.72-1.2 1.12-2.067 2.68-2.6 4.68h-.44v-6.96ZM130.87 353.2h-.08c-.053.347-.493.693-1.32 1.04l-3 1.2c-.853.347-1.507.84-1.96 1.48-.453.613-.68 1.387-.68 2.32 0 .4.04.813.12 1.24.08.427.227.813.44 1.16.213.32.507.587.88.8.4.213.907.32 1.52.32.88 0 1.587-.187 2.12-.56.56-.373.973-.84 1.24-1.4.293-.56.48-1.16.56-1.8.107-.667.16-1.267.16-1.8v-4Zm7 9.36c-.347.267-.76.493-1.24.68-.48.213-1.067.32-1.76.32-1.28 0-2.213-.267-2.8-.8-.56-.56-.947-1.333-1.16-2.32h-.08c-.107.24-.253.547-.44.92-.187.347-.48.693-.88 1.04-.373.32-.88.587-1.52.8-.64.24-1.453.36-2.44.36-1.12 0-2.013-.133-2.68-.4-.667-.24-1.187-.547-1.56-.92a2.905 2.905 0 0 1-.76-1.24c-.107-.48-.16-.92-.16-1.32 0-.933.187-1.68.56-2.24.373-.56.853-1 1.44-1.32a9.536 9.536 0 0 1 2-.84c.747-.213 1.493-.44 2.24-.68.88-.293 1.6-.547 2.16-.76.587-.213 1.04-.467 1.36-.76.32-.32.533-.707.64-1.16.133-.48.2-1.12.2-1.92 0-.64-.04-1.213-.12-1.72-.08-.507-.227-.933-.44-1.28a2.013 2.013 0 0 0-.92-.84c-.4-.187-.933-.28-1.6-.28-.88 0-1.613.16-2.2.48-.56.293-.84.787-.84 1.48 0 .453.04.907.12 1.36.08.427.12.747.12.96 0 .373-.133.693-.4.96-.267.24-.653.36-1.16.36-.88 0-1.427-.16-1.64-.48-.213-.32-.32-.733-.32-1.24 0-.587.133-1.147.4-1.68.267-.533.653-1 1.16-1.4.533-.427 1.187-.76 1.96-1 .8-.24 1.707-.36 2.72-.36 1.227 0 2.253.16 3.08.48.827.293 1.493.707 2 1.24a4.315 4.315 0 0 1 1.08 1.76c.213.64.32 1.32.32 2.04v9.96c0 .773.12 1.293.36 1.56.24.267.587.4 1.04.4.293 0 .6-.053.92-.16a3.39 3.39 0 0 0 .92-.48l.32.44Zm17.778-8.72c0-1.227-.067-2.32-.2-3.28-.134-.987-.374-1.827-.72-2.52-.32-.693-.787-1.227-1.4-1.6-.587-.373-1.347-.56-2.28-.56-.987 0-1.8.173-2.44.52a4.74 4.74 0 0 0-1.56 1.32 5.445 5.445 0 0 0-.72 1.2c-.16.427-.294.933-.4 1.52a18.597 18.597 0 0 0-.24 2.04c-.027.747-.04 1.64-.04 2.68 0 .88.066 1.787.2 2.72.133.933.386 1.787.76 2.56.373.747.893 1.36 1.56 1.84.693.48 1.6.72 2.72.72 1.093 0 1.96-.213 2.6-.64.64-.427 1.12-1.04 1.44-1.84.32-.8.52-1.76.6-2.88.08-1.147.12-2.413.12-3.8Zm-16.52 8.6h3.08v-27.72h-3.08v-.56h6.52v14.88h.08c.373-1.04 1.013-1.92 1.92-2.64.906-.72 2.093-1.08 3.56-1.08 1.146 0 2.226.253 3.24.76a8.804 8.804 0 0 1 2.68 1.96 9.016 9.016 0 0 1 1.84 2.84c.453 1.093.68 2.24.68 3.44 0 1.227-.24 2.4-.72 3.52a9.632 9.632 0 0 1-1.88 2.92 9.251 9.251 0 0 1-2.8 2.04 7.479 7.479 0 0 1-3.32.76c-.907 0-1.68-.16-2.32-.48a5.56 5.56 0 0 1-1.56-1.08 5.151 5.151 0 0 1-.92-1.32 10.64 10.64 0 0 1-.48-1.16h-.08V363h-6.44v-.56Zm40.431-3.84c-.08.293-.24.72-.48 1.28-.214.533-.574 1.08-1.08 1.64-.48.533-1.147 1.013-2 1.44-.827.4-1.907.6-3.24.6-1.014 0-2.067-.16-3.16-.48a9.104 9.104 0 0 1-3-1.52c-.907-.72-1.654-1.653-2.24-2.8-.56-1.147-.84-2.56-.84-4.24 0-1.307.24-2.52.72-3.64a9.78 9.78 0 0 1 2-2.92 9.124 9.124 0 0 1 2.96-1.92 9.329 9.329 0 0 1 3.64-.72c.72 0 1.453.093 2.2.28.773.16 1.466.427 2.08.8.64.347 1.16.813 1.56 1.4.426.56.64 1.253.64 2.08 0 .56-.187 1.027-.56 1.4-.347.347-.854.52-1.52.52-.454 0-.894-.093-1.32-.28-.4-.213-.6-.56-.6-1.04 0-.373.093-.827.28-1.36.186-.533.28-.973.28-1.32 0-.613-.307-1.08-.92-1.4-.614-.347-1.32-.52-2.12-.52-.587 0-1.2.08-1.84.24-.614.133-1.187.493-1.72 1.08-.507.587-.934 1.467-1.28 2.64-.32 1.173-.48 2.773-.48 4.8 0 1.147.066 2.227.2 3.24.16 1.013.426 1.907.8 2.68a4.97 4.97 0 0 0 1.6 1.8c.693.427 1.586.64 2.68.64 1.173 0 2.133-.173 2.88-.52.773-.347 1.373-.76 1.8-1.24.453-.507.786-1.013 1-1.52.213-.507.373-.92.48-1.24l.6.12Zm7.498-4.76c0 1.387.04 2.653.12 3.8.08 1.12.28 2.08.6 2.88.32.8.8 1.413 1.44 1.84.64.427 1.506.64 2.6.64 1.12 0 2.013-.24 2.68-.72a4.843 4.843 0 0 0 1.6-1.84 8.701 8.701 0 0 0 .76-2.56c.133-.933.2-1.84.2-2.72 0-1.04-.027-1.933-.08-2.68a14.43 14.43 0 0 0-.2-2.04 6.93 6.93 0 0 0-.44-1.52 6.668 6.668 0 0 0-.68-1.2 4.74 4.74 0 0 0-1.56-1.32c-.64-.347-1.454-.52-2.44-.52-.934 0-1.707.187-2.32.56-.587.373-1.054.907-1.4 1.6-.32.693-.547 1.533-.68 2.52-.134.96-.2 2.053-.2 3.28Zm6.92-19.68h6.52v28.28h3.08v.56h-6.44v-3.48h-.08c-.107.32-.267.707-.48 1.16-.214.453-.534.893-.96 1.32-.4.427-.92.787-1.56 1.08-.614.32-1.374.48-2.28.48a7.729 7.729 0 0 1-3.36-.76 9.407 9.407 0 0 1-2.76-2.04c-.8-.853-1.44-1.827-1.92-2.92a9.28 9.28 0 0 1-.68-3.52c0-1.2.226-2.347.68-3.44a8.982 8.982 0 0 1 1.84-2.84 8.78 8.78 0 0 1 2.68-1.96 7.14 7.14 0 0 1 3.24-.76c1.466 0 2.653.36 3.56 1.08.906.72 1.546 1.6 1.92 2.64h.08v-14.32h-3.08v-.56Zm24.791 18.36c.053-.373.08-.72.08-1.04v-1c0-.907-.094-1.653-.28-2.24-.16-.587-.4-1.053-.72-1.4a2.271 2.271 0 0 0-1.12-.72 3.961 3.961 0 0 0-1.4-.24c-.907 0-1.654.187-2.24.56a3.82 3.82 0 0 0-1.4 1.44 7.928 7.928 0 0 0-.8 2.12c-.16.8-.267 1.64-.321 2.52h8.201Zm-8.24.56c0 .267-.014.547-.04.84v1.04c0 .88.053 1.8.16 2.76.106.96.333 1.827.68 2.6a5.073 5.073 0 0 0 1.6 1.92c.72.507 1.666.76 2.84.76 1.173 0 2.133-.173 2.88-.52.773-.347 1.373-.76 1.8-1.24.453-.507.786-1.013 1-1.52.213-.507.373-.92.48-1.24l.6.12c-.08.293-.24.72-.48 1.28-.214.533-.574 1.08-1.08 1.64-.48.533-1.147 1.013-2 1.44-.827.4-1.907.6-3.24.6-1.334 0-2.574-.213-3.72-.64a8.354 8.354 0 0 1-4.84-4.68c-.454-1.12-.68-2.36-.68-3.72 0-1.173.226-2.307.68-3.4.48-1.12 1.12-2.107 1.92-2.96a9.577 9.577 0 0 1 2.88-2.04 7.924 7.924 0 0 1 3.52-.8c.746 0 1.546.133 2.4.4a6.71 6.71 0 0 1 2.36 1.32c.746.587 1.36 1.373 1.84 2.36.506.987.76 2.213.76 3.68h-12.32Zm15.28 9.36h3.08V346.4h-3.08v-.56h3.08v-2.12c0-.933.04-1.733.12-2.4.106-.693.24-1.293.4-1.8.16-.533.346-.987.559-1.36.214-.4.454-.76.721-1.08.693-.88 1.56-1.64 2.6-2.28 1.04-.667 2.146-1 3.32-1 .88 0 1.626.133 2.24.4.64.24 1.16.547 1.56.92.4.373.693.787.88 1.24.186.427.28.813.28 1.16 0 .507-.147.973-.44 1.4-.294.427-.787.64-1.48.64-.347 0-.747-.08-1.2-.24-.427-.16-.64-.507-.64-1.04 0-.453.12-.853.36-1.2.266-.373.4-.787.4-1.24 0-.587-.24-.973-.72-1.16a3.616 3.616 0 0 0-1.48-.32c-1.094 0-2.04.48-2.84 1.44-.8.96-1.2 2.453-1.2 4.48v5.56h4.96v.56h-4.96v16.04h3.64v.56h-10.16v-.56Zm19.96 1.76c-.347.213-.707.427-1.08.64a4.92 4.92 0 0 0-.96.88 5.186 5.186 0 0 0-.68 1.2c-.16.48-.24 1.067-.24 1.76 0 .96.16 1.747.48 2.36.346.64.773 1.147 1.28 1.52.533.4 1.12.68 1.76.84.64.16 1.266.24 1.88.24.96 0 1.826-.147 2.6-.44.8-.293 1.48-.693 2.04-1.2a4.693 4.693 0 0 0 1.32-1.68c.32-.64.48-1.307.48-2 0-1.493-.414-2.56-1.24-3.2-.8-.613-1.907-.92-3.32-.92h-4.32Zm6.48-13c0-.613-.04-1.227-.12-1.84a5.007 5.007 0 0 0-.52-1.72 2.829 2.829 0 0 0-1.16-1.28c-.507-.32-1.2-.48-2.08-.48-1.36 0-2.387.413-3.08 1.24-.694.827-1.04 2.187-1.04 4.08 0 .8.053 1.52.16 2.16.133.64.36 1.2.68 1.68.32.453.746.8 1.28 1.04.533.24 1.213.36 2.04.36 1.386 0 2.373-.427 2.96-1.28.586-.88.88-2.2.88-3.96Zm-12.48 9.2c0-.72.133-1.333.4-1.84.266-.533.586-.987.96-1.36.4-.4.813-.72 1.24-.96.453-.24.853-.44 1.2-.6-1.547-1.067-2.32-2.507-2.32-4.32 0-.933.226-1.773.68-2.52a6.433 6.433 0 0 1 1.72-1.88 7.486 7.486 0 0 1 2.28-1.2c.853-.267 1.666-.4 2.44-.4 1.2 0 2.226.24 3.08.72.88.48 1.52.92 1.92 1.32.293-.507.72-.973 1.28-1.4.586-.427 1.306-.64 2.16-.64.533 0 1.026.12 1.48.36.453.213.68.693.68 1.44 0 .48-.16.84-.48 1.08-.294.24-.6.36-.92.36-.374 0-.64-.107-.8-.32a5.863 5.863 0 0 1-.44-.68 5.547 5.547 0 0 0-.36-.68.663.663 0 0 0-.6-.32c-.267 0-.547.12-.84.36a3.894 3.894 0 0 0-.72.76c.24.267.546.72.92 1.36.373.64.56 1.44.56 2.4 0 .8-.2 1.533-.6 2.2a6.25 6.25 0 0 1-1.6 1.76c-.64.507-1.4.907-2.28 1.2-.854.267-1.734.4-2.64.4-.934 0-1.747-.12-2.44-.36a19.025 19.025 0 0 1-1.6-.68c-.294.133-.614.28-.96.44-.32.16-.627.36-.92.6-.267.24-.494.533-.68.88-.187.32-.28.693-.28 1.12 0 .4.08.733.24 1 .16.267.36.467.6.6.266.133.56.227.88.28.32.053.653.08 1 .08h6.32c1.866 0 3.346.453 4.44 1.36 1.12.88 1.68 2.28 1.68 4.2 0 1.173-.254 2.24-.76 3.2a7.95 7.95 0 0 1-2.04 2.48 8.532 8.532 0 0 1-2.88 1.64c-1.094.4-2.214.6-3.36.6-1.04 0-2-.12-2.88-.36-.854-.24-1.6-.573-2.24-1a4.743 4.743 0 0 1-1.52-1.48 3.778 3.778 0 0 1-.52-1.96c0-.693.133-1.333.4-1.92a6.801 6.801 0 0 1 1.08-1.52c.453-.427.96-.8 1.52-1.12.56-.32 1.12-.587 1.68-.8v-.08c-1.76 0-3.067-.293-3.92-.88-.827-.56-1.24-1.533-1.24-2.92Zm19.982 2.04h3.08v-27.72h-3.08v-.56h6.52v15.72h.08c.133-.347.36-.773.68-1.28a6.014 6.014 0 0 1 1.28-1.48c.56-.48 1.227-.88 2-1.2.8-.347 1.747-.52 2.84-.52 1.76 0 3.187.427 4.28 1.28 1.12.853 1.68 2.213 1.68 4.08v11.68h3.08v.56h-9.6v-.56h3.08v-12.92c0-1.04-.253-1.893-.76-2.56-.48-.667-1.24-1-2.28-1-.853 0-1.667.187-2.44.56a6.409 6.409 0 0 0-2.04 1.56 7.69 7.69 0 0 0-1.4 2.36c-.32.907-.48 1.893-.48 2.96v9.04h3.08v.56h-9.6v-.56Zm27.173-25.92c0-.587.2-1.08.6-1.48.427-.427.933-.64 1.52-.64s1.08.213 1.48.64c.427.4.64.893.64 1.48s-.213 1.093-.64 1.52c-.4.4-.893.6-1.48.6s-1.093-.2-1.52-.6c-.4-.427-.6-.933-.6-1.52Zm-2.6 25.92h3.08V346.4h-3.08v-.56h6.52v16.6h3.08v.56h-9.6v-.56Zm14.436-25.92c0-.587.2-1.08.6-1.48.427-.427.933-.64 1.52-.64s1.08.213 1.48.64c.427.4.64.893.64 1.48s-.213 1.093-.64 1.52c-.4.4-.893.6-1.48.6s-1.093-.2-1.52-.6c-.4-.427-.6-.933-.6-1.52Zm-2.6 9.32h6.52v17.96c0 1.28-.04 2.333-.12 3.16-.053.853-.133 1.547-.24 2.08-.107.533-.227.947-.36 1.24-.133.32-.267.613-.4.88-.32.64-.693 1.173-1.12 1.6-.4.427-.827.76-1.28 1-.427.267-.867.44-1.32.52-.453.107-.867.16-1.24.16-.427 0-.893-.08-1.4-.24a4.452 4.452 0 0 1-1.4-.64 3.583 3.583 0 0 1-1.12-1.16c-.32-.453-.48-.987-.48-1.6 0-.64.173-1.12.52-1.44.347-.32.773-.48 1.28-.48.48 0 .84.12 1.08.36.24.267.36.613.36 1.04 0 .32-.053.627-.16.92-.08.293-.12.667-.12 1.12 0 .533.173.92.52 1.16.347.267.733.4 1.16.4.773 0 1.36-.32 1.76-.96.427-.613.64-1.613.64-3V346.4h-3.08v-.56Zm11.836 16.6h3.08v-27.72h-3.08v-.56h6.52v19.12h.44l7.96-6.88h-2.84v-.56h6.2v.56h-2.4l-6.24 5.36 8.84 10.68h1.72v.56h-9v-.56h2.84l-7.08-8.6h-.44v8.6h2.2v.56h-8.72v-.56Zm21.484 0h3.08v-27.72h-3.08v-.56h6.52v28.28h3.08v.56h-9.6v-.56Zm11.516 0h3.08V346.4h-3.08v-.56h6.44v4.2h.08c.56-1.6 1.36-2.773 2.4-3.52 1.067-.747 2.347-1.12 3.84-1.12 1.334 0 2.507.293 3.52.88 1.04.587 1.72 1.56 2.04 2.92h.08c.187-.48.44-.947.76-1.4.32-.453.72-.853 1.2-1.2a5.588 5.588 0 0 1 1.68-.88c.667-.213 1.414-.32 2.24-.32 3.894 0 5.84 1.987 5.84 5.96v11.08h3.08v.56h-9.6v-.56h3.08v-13.6c0-.907-.253-1.613-.76-2.12-.48-.507-1.146-.76-2-.76-.666 0-1.333.133-2 .4a5.109 5.109 0 0 0-1.8 1.12c-.533.507-.973 1.16-1.32 1.96-.32.8-.48 1.733-.48 2.8v10.2h3.08v.56h-9.6v-.56h3.08V349.4c0-1.173-.24-2.04-.72-2.6s-1.12-.84-1.92-.84c-.56 0-1.173.147-1.84.44-.666.267-1.293.707-1.88 1.32-.56.587-1.04 1.36-1.44 2.32-.373.96-.56 2.133-.56 3.52v8.88h3.08v.56h-9.6v-.56Zm35.005 0h3.08V346.4H376v-.56h6.44v4.28h.08c.16-.347.387-.787.68-1.32a7.513 7.513 0 0 1 1.28-1.56c.533-.507 1.2-.933 2-1.28.8-.373 1.773-.56 2.92-.56 1.76 0 3.187.427 4.28 1.28 1.12.853 1.68 2.213 1.68 4.08v11.68h3.08v.56h-9.6v-.56h3.08v-12.92c0-1.04-.253-1.893-.76-2.56-.48-.667-1.24-1-2.28-1-.853 0-1.667.187-2.44.56a6.409 6.409 0 0 0-2.04 1.56 7.69 7.69 0 0 0-1.4 2.36c-.32.907-.48 1.893-.48 2.96v9.04h3.08v.56H376v-.56Zm29.253-8c0 1.893.147 3.4.44 4.52.293 1.12.68 1.987 1.16 2.6.48.587 1.04.973 1.68 1.16.64.187 1.32.28 2.04.28s1.4-.093 2.04-.28c.64-.187 1.2-.573 1.68-1.16.48-.613.867-1.48 1.16-2.6.293-1.12.44-2.627.44-4.52 0-1.6-.107-2.933-.32-4-.213-1.093-.547-1.973-1-2.64-.427-.693-.973-1.187-1.64-1.48-.667-.293-1.453-.44-2.36-.44-.907 0-1.693.147-2.36.44-.667.293-1.227.787-1.68 1.48-.427.667-.747 1.547-.96 2.64-.213 1.067-.32 2.4-.32 4Zm-4 0c0-1.307.28-2.52.84-3.64.587-1.12 1.32-2.08 2.2-2.88a10.26 10.26 0 0 1 3-1.92c1.12-.453 2.213-.68 3.28-.68 1.067 0 2.147.227 3.24.68a9.6 9.6 0 0 1 3 1.92c.907.8 1.64 1.76 2.2 2.88.587 1.12.88 2.333.88 3.64 0 1.253-.267 2.44-.8 3.56a9.834 9.834 0 0 1-2.12 2.88 9.7 9.7 0 0 1-2.96 1.96c-1.12.48-2.267.72-3.44.72s-2.32-.24-3.44-.72a10.228 10.228 0 0 1-3-1.96 10.21 10.21 0 0 1-2.08-2.88 8.184 8.184 0 0 1-.8-3.56Zm38.067-.6c0-1.227-.067-2.32-.2-3.28-.134-.987-.374-1.827-.72-2.52-.32-.693-.787-1.227-1.4-1.6-.587-.373-1.347-.56-2.28-.56-.987 0-1.8.173-2.44.52a4.74 4.74 0 0 0-1.56 1.32 5.445 5.445 0 0 0-.72 1.2c-.16.427-.294.933-.4 1.52a18.597 18.597 0 0 0-.24 2.04c-.027.747-.04 1.64-.04 2.68 0 .88.066 1.787.2 2.72.133.933.386 1.787.76 2.56.373.747.893 1.36 1.56 1.84.693.48 1.6.72 2.72.72 1.093 0 1.96-.213 2.6-.64.64-.427 1.12-1.04 1.44-1.84.32-.8.52-1.76.6-2.88.08-1.147.12-2.413.12-3.8Zm-16.52 19.8h3.08V346.4h-3.08v-.56h6.44v3.36h.08a6.043 6.043 0 0 1 1.96-2.76c.933-.747 2.133-1.12 3.6-1.12 1.146 0 2.226.253 3.24.76a8.804 8.804 0 0 1 2.68 1.96 9.016 9.016 0 0 1 1.84 2.84c.453 1.093.68 2.24.68 3.44 0 1.227-.24 2.4-.72 3.52a9.632 9.632 0 0 1-1.88 2.92 9.251 9.251 0 0 1-2.8 2.04 7.479 7.479 0 0 1-3.32.76c-.907 0-1.68-.16-2.32-.48-.614-.293-1.12-.64-1.52-1.04a5.469 5.469 0 0 1-.92-1.28 8.246 8.246 0 0 1-.44-1.08h-.08v13.96h3.08v.56h-9.6v-.56Zm28.671-19.8c0 1.387.04 2.653.12 3.8.08 1.12.28 2.08.6 2.88.32.8.8 1.413 1.44 1.84.64.427 1.506.64 2.6.64 1.12 0 2.013-.24 2.68-.72a4.843 4.843 0 0 0 1.6-1.84 8.701 8.701 0 0 0 .76-2.56c.133-.933.2-1.84.2-2.72 0-1.04-.027-1.933-.08-2.68a14.43 14.43 0 0 0-.2-2.04 6.93 6.93 0 0 0-.44-1.52 6.668 6.668 0 0 0-.68-1.2 4.74 4.74 0 0 0-1.56-1.32c-.64-.347-1.454-.52-2.44-.52-.934 0-1.707.187-2.32.56-.587.373-1.054.907-1.4 1.6-.32.693-.547 1.533-.68 2.52-.134.96-.2 2.053-.2 3.28Zm6.92 19.8h3.08v-13.96h-.08a8.39 8.39 0 0 1-.44 1.08c-.214.427-.52.853-.92 1.28-.4.4-.92.747-1.56 1.04-.614.32-1.374.48-2.28.48a7.729 7.729 0 0 1-3.36-.76 9.407 9.407 0 0 1-2.76-2.04c-.8-.853-1.44-1.827-1.92-2.92a9.28 9.28 0 0 1-.68-3.52c0-1.2.226-2.347.68-3.44a8.982 8.982 0 0 1 1.84-2.84 8.78 8.78 0 0 1 2.68-1.96 7.14 7.14 0 0 1 3.24-.76c1.466 0 2.653.36 3.56 1.08.933.72 1.6 1.653 2 2.8h.08v-3.36h6.44v.56h-3.08v27.24h3.08v.56h-9.6v-.56Zm11.791-11.2h3.08V346.4h-3.08v-.56h6.44v4.04h.08c.106-.4.28-.853.52-1.36.24-.507.573-.987 1-1.44a5.59 5.59 0 0 1 1.52-1.2c.613-.32 1.346-.48 2.2-.48.613 0 1.146.107 1.6.32.453.187.826.44 1.12.76.293.293.506.64.64 1.04.133.4.2.8.2 1.2 0 .88-.2 1.467-.6 1.76-.4.293-.867.44-1.4.44-1.174 0-1.76-.373-1.76-1.12 0-.24.026-.427.08-.56.053-.16.106-.307.16-.44.08-.16.146-.333.2-.52.053-.187.08-.453.08-.8 0-.853-.467-1.28-1.4-1.28-.427 0-.88.16-1.36.48-.48.32-.934.787-1.36 1.4-.4.613-.747 1.36-1.04 2.24-.267.853-.4 1.84-.4 2.96v9.16h3.48v.56h-10v-.56Zm17.449-5.04h.44c.186.64.426 1.293.72 1.96.293.64.68 1.24 1.16 1.8.506.533 1.12.973 1.84 1.32.72.347 1.586.52 2.6.52.853 0 1.613-.253 2.28-.76.666-.533 1-1.387 1-2.56 0-1.013-.267-1.72-.8-2.12a5.613 5.613 0 0 0-1.8-1l-3.12-1.08c-.4-.133-.84-.293-1.32-.48a5.541 5.541 0 0 1-1.28-.84c-.4-.373-.734-.84-1-1.4-.24-.56-.36-1.28-.36-2.16 0-.747.146-1.44.44-2.08.293-.64.693-1.2 1.2-1.68a5.398 5.398 0 0 1 1.8-1.12c.72-.267 1.493-.4 2.32-.4.586 0 1.053.053 1.4.16.373.08.693.173.96.28.266.08.506.173.72.28.213.08.466.12.76.12.293 0 .506-.107.64-.32h.44v4.56h-.44a15.68 15.68 0 0 0-.64-1.68 6.238 6.238 0 0 0-.88-1.48 3.273 3.273 0 0 0-1.24-1c-.48-.24-1.054-.36-1.72-.36-1.28 0-2.28.293-3 .88-.694.56-1.04 1.32-1.04 2.28 0 .853.293 1.507.88 1.96.613.427 1.506.827 2.68 1.2l2.92.96c1.253.427 2.28 1.013 3.08 1.76.8.747 1.2 1.733 1.2 2.96 0 .72-.147 1.427-.44 2.12a4.999 4.999 0 0 1-1.24 1.84c-.534.507-1.2.92-2 1.24-.774.32-1.667.48-2.68.48a6.436 6.436 0 0 1-1.64-.2c-.48-.107-.934-.227-1.36-.36-.4-.133-.774-.253-1.12-.36a2.702 2.702 0 0 0-.96-.2c-.294 0-.507.067-.64.2-.134.107-.24.227-.32.36h-.44v-5.6Zm15.471-11.56h3.08v-5.16c.213.08.413.147.6.2.187.053.507.08.96.08.4 0 .747-.04 1.04-.12.293-.107.573-.267.84-.48v5.48h5.68v.56h-5.68v13.08c0 .747.067 1.36.2 1.84.16.453.36.813.6 1.08.24.24.493.4.76.48.293.08.573.12.84.12.933 0 1.68-.333 2.24-1a4.97 4.97 0 0 0 1.12-2.36l.56.2c-.08.347-.2.733-.36 1.16a4.09 4.09 0 0 1-.76 1.24c-.32.373-.747.68-1.28.92-.533.267-1.2.4-2 .4-2 0-3.4-.387-4.2-1.16-.773-.773-1.16-1.867-1.16-3.28V346.4h-3.08v-.56Zm35.4 17.16h-6.44v-4.04h-.08c-.24.533-.533 1.08-.88 1.64a6.415 6.415 0 0 1-1.24 1.48 5.802 5.802 0 0 1-1.72 1.04c-.64.293-1.4.44-2.28.44-1.066 0-1.933-.12-2.6-.36-.666-.24-1.186-.493-1.56-.76-.186-.133-.4-.293-.64-.48a3.588 3.588 0 0 1-.6-.84c-.186-.347-.346-.787-.48-1.32-.133-.56-.2-1.24-.2-2.04V346.4h-3.08v-.56h6.52v12.28c0 .693.04 1.333.12 1.92a4.73 4.73 0 0 0 .56 1.56c.267.427.614.773 1.04 1.04.427.24.987.36 1.68.36.587 0 1.187-.173 1.8-.52.64-.347 1.214-.84 1.72-1.48.534-.64.974-1.4 1.32-2.28.347-.907.52-1.92.52-3.04v-9.28h-3.04v-.56h6.48v16.6h3.08v.56Zm.231-17.16h9.68v.56h-3.28l5.16 12.56 5.36-12.56h-3.28v-.56h6.08v.56h-2.16l-7.56 17.92-7.28-17.92h-2.72v-.56Zm19.818 0h9.64v.56h-3.32l4.48 12.48 4.16-9.88-1-2.6h-1.68v-.56h7.96v.56h-2.68l4.64 12.4 5-12.4h-3.76v-.56h6.52v.56h-2.12l-7.16 17.92-5.44-14.52-6.08 14.52-6.44-17.92h-2.72v-.56Zm30.408 16.6h2.12l5.48-7.36-5.96-8.68h-2.24v-.56h9.4v.56h-3.16l4.12 6 4.32-6h-2.96v-.56h5.88v.56h-2.12l-4.76 6.56 6.52 9.48h2.2v.56h-9.36v-.56h3.16l-4.68-6.8-5.04 6.8h2.96v.56h-5.88v-.56Zm18.458-16.6h9.8v.56h-3.36l5.16 12.56 5.4-12.56h-3.32v-.56h6.12v.56h-2.16l-6.6 15.44a96.652 96.652 0 0 0-1.44 3.44l-1.36 3.52c-.373.96-.746 1.8-1.12 2.52-.373.72-.773 1.307-1.2 1.76-.4.453-.84.787-1.32 1-.48.24-1.04.36-1.68.36-.773 0-1.4-.12-1.88-.36-.453-.24-.813-.52-1.08-.84a2.415 2.415 0 0 1-.52-1 4.03 4.03 0 0 1-.12-.88c0-.667.187-1.173.56-1.52.374-.32.827-.48 1.36-.48.187 0 .387.013.6.04.214.053.414.133.6.24.187.107.347.253.48.44.134.187.2.413.2.68 0 .373-.12.72-.36 1.04-.213.347-.32.72-.32 1.12 0 .347.094.573.28.68.187.107.44.16.76.16a2.17 2.17 0 0 0 1.16-.32c.374-.187.734-.507 1.08-.96.347-.453.694-1.053 1.04-1.8a43.17 43.17 0 0 0 1.16-2.68l1.76-4.48-6.92-17.12h-2.76v-.56Zm22.338 0h12.68l-9.96 16.6h5.64c.773 0 1.4-.147 1.88-.44.507-.32.907-.707 1.2-1.16.32-.48.56-.987.72-1.52.187-.533.36-1.04.52-1.52h.32l-.52 5.2h-13.92l9.96-16.6h-3.44c-.667 0-1.253.027-1.76.08-.48.027-.92.16-1.32.4-.4.24-.773.627-1.12 1.16-.347.533-.72 1.293-1.12 2.28h-.32l.56-4.48ZM123.71 421.44h4.44v-25.36c-.4.293-.853.587-1.36.88l-4.56 2.6-.32-.52c1.76-.987 3.36-1.933 4.8-2.84 1.44-.907 2.8-2 4.08-3.28h.8v28.52h4.44v.56h-12.32v-.56Zm34.581.56h-18.28v-.56c1.04-.88 1.987-1.693 2.84-2.44a51.61 51.61 0 0 0 2.44-2.2 42.263 42.263 0 0 0 2.2-2.2c.694-.747 1.4-1.547 2.12-2.4 1.707-2.08 2.867-4.093 3.48-6.04.64-1.947.96-3.747.96-5.4 0-2.4-.413-4.213-1.24-5.44-.8-1.227-2.08-1.84-3.84-1.84-1.36 0-2.48.307-3.36.92-.88.587-1.32 1.413-1.32 2.48 0 .373.08.76.24 1.16.187.373.28.76.28 1.16 0 .453-.16.8-.48 1.04-.32.213-.693.32-1.12.32-.56 0-1.04-.147-1.44-.44-.4-.293-.6-.827-.6-1.6 0-.693.2-1.373.6-2.04.4-.693.947-1.293 1.64-1.8.694-.533 1.52-.96 2.48-1.28a9.68 9.68 0 0 1 3.08-.48c1.547 0 2.867.227 3.96.68 1.12.453 2.04 1.053 2.76 1.8a6.837 6.837 0 0 1 1.6 2.48c.347.933.52 1.893.52 2.88 0 1.2-.173 2.32-.52 3.36a12.09 12.09 0 0 1-1.44 2.88 18.487 18.487 0 0 1-2.04 2.6 69.878 69.878 0 0 1-2.44 2.48c-1.2 1.2-2.386 2.347-3.56 3.44a192.445 192.445 0 0 1-3.8 3.52h9.16c1.574 0 2.707-.373 3.4-1.12.694-.773 1.12-1.827 1.28-3.16h.44V422Zm6.342-14.88.64-.32c.213-.107.453-.213.72-.32.293-.107.626-.213 1-.32.4-.133.866-.267 1.4-.4 1.173-.32 2.146-.72 2.92-1.2.773-.48 1.373-1.04 1.8-1.68.453-.64.76-1.347.92-2.12.186-.773.28-1.613.28-2.52 0-.64-.067-1.24-.2-1.8a3.971 3.971 0 0 0-.68-1.52c-.32-.453-.747-.8-1.28-1.04-.507-.267-1.16-.4-1.96-.4-.88 0-1.6.12-2.16.36-.56.213-1 .48-1.32.8-.294.293-.494.6-.6.92-.107.293-.16.533-.16.72 0 .72.106 1.267.32 1.64.24.373.36.707.36 1 0 .48-.174.813-.52 1-.32.187-.707.28-1.16.28-1.174 0-1.76-.573-1.76-1.72 0-.347.106-.827.32-1.44.24-.64.64-1.267 1.2-1.88.56-.613 1.306-1.133 2.24-1.56.96-.453 2.146-.68 3.56-.68 1.28 0 2.386.2 3.32.6.96.4 1.746.907 2.36 1.52a5.675 5.675 0 0 1 1.36 1.96c.293.693.44 1.36.44 2 0 1.12-.334 2.08-1 2.88-.64.8-1.4 1.467-2.28 2-.854.533-1.72.947-2.6 1.24-.88.293-1.547.48-2 .56v.08c1.146.053 2.253.28 3.32.68 1.066.4 2.013.96 2.84 1.68a7.703 7.703 0 0 1 1.96 2.48c.48.96.72 2.04.72 3.24 0 1.067-.24 2.12-.72 3.16a8.755 8.755 0 0 1-1.96 2.8c-.827.827-1.84 1.493-3.04 2-1.174.507-2.48.76-3.92.76-1.334 0-2.467-.187-3.4-.56-.934-.347-1.707-.813-2.32-1.4a7.28 7.28 0 0 1-1.44-2 9.031 9.031 0 0 1-.72-2.28l.56-.12c.053.373.186.88.4 1.52.213.64.573 1.28 1.08 1.92.533.64 1.253 1.2 2.16 1.68.933.453 2.133.68 3.6.68.826 0 1.6-.12 2.32-.36.72-.24 1.333-.68 1.84-1.32.533-.64.946-1.507 1.24-2.6.293-1.12.44-2.547.44-4.28 0-.88-.067-1.747-.2-2.6-.134-.88-.4-1.653-.8-2.32a4.72 4.72 0 0 0-1.64-1.68c-.694-.427-1.6-.64-2.72-.64-.934 0-1.787.147-2.56.44a8.308 8.308 0 0 0-2.16 1.12l-.36-.64Zm25.541 14.32h3.56V415h-11.4c.986-2.133 1.92-4.093 2.8-5.88.906-1.787 1.72-3.347 2.44-4.68.746-1.36 1.373-2.48 1.88-3.36.533-.88.906-1.48 1.12-1.8.96-1.52 1.733-2.693 2.32-3.52.613-.853 1.133-1.493 1.56-1.92.426-.427.786-.68 1.08-.76.32-.107.68-.16 1.08-.16.693 0 1.133.107 1.32.32.213.187.32.4.32.64 0 .133-.08.293-.24.48-.134.187-.494.56-1.08 1.12-.614.587-1.187 1.147-1.72 1.68a38.482 38.482 0 0 0-1.44 1.6 80.033 80.033 0 0 0-1.36 1.56c-.427.507-.867 1.027-1.32 1.56a42.415 42.415 0 0 0-4.32 6.16 712.892 712.892 0 0 0-3.56 6.28h10.52v-10.68h3.44v10.68h3.56v.68h-3.56v6.44h3.56v.56h-10.56v-.56Zm16.501-28.52h1.32l1.2 1.2c.427.4.88.76 1.36 1.08.507.32 1.067.573 1.68.76.613.187 1.32.28 2.12.28a8.53 8.53 0 0 0 1.48-.12c.453-.107.893-.28 1.32-.52a7.31 7.31 0 0 0 1.28-1.04c.453-.427.947-.973 1.48-1.64l.44.28a91.991 91.991 0 0 1-1.96 2.6 13.474 13.474 0 0 1-1.76 1.88c-.56.48-1.16.84-1.8 1.08-.64.24-1.373.36-2.2.36-.48 0-.933-.027-1.36-.08-.4-.08-.84-.2-1.32-.36-.453-.16-.947-.347-1.48-.56-.533-.24-1.147-.52-1.84-.84l-1.52 9.72.08.08c.613-.88 1.453-1.573 2.52-2.08 1.067-.507 2.32-.76 3.76-.76s2.707.253 3.8.76c1.12.48 2.053 1.12 2.8 1.92.747.8 1.307 1.72 1.68 2.76a8.962 8.962 0 0 1 .56 3.12c0 .8-.16 1.76-.48 2.88-.293 1.093-.813 2.16-1.56 3.2-.72 1.013-1.707 1.88-2.96 2.6-1.253.72-2.827 1.08-4.72 1.08-1.413 0-2.573-.187-3.48-.56-.88-.347-1.587-.76-2.12-1.24-.533-.507-.907-1.013-1.12-1.52-.187-.533-.28-.973-.28-1.32 0-.613.2-1.04.6-1.28a2.66 2.66 0 0 1 1.44-.4c.56 0 1 .133 1.32.4.347.267.52.667.52 1.2 0 .187-.013.4-.04.64v.6c0 1.2.333 1.987 1 2.36.667.373 1.56.56 2.68.56.88 0 1.64-.147 2.28-.44.667-.293 1.227-.813 1.68-1.56.453-.747.787-1.747 1-3 .24-1.28.36-2.893.36-4.84 0-1.12-.08-2.133-.24-3.04-.16-.907-.44-1.68-.84-2.32a3.793 3.793 0 0 0-1.56-1.48c-.667-.347-1.52-.52-2.56-.52-1.2 0-2.2.187-3 .56-.8.347-1.453.773-1.96 1.28a5.81 5.81 0 0 0-1.16 1.6c-.24.56-.413 1.04-.52 1.44l-.44-.12 2.52-16.64Zm31.501 20.2c0-1.68-.133-3.053-.4-4.12-.24-1.067-.533-1.867-.88-2.4-.346-.533-.826-.96-1.44-1.28-.586-.347-1.306-.52-2.16-.52-1.333 0-2.413.293-3.24.88-.8.56-1.386 1.173-1.76 1.84-.24.453-.4.947-.48 1.48-.08.533-.12 1.133-.12 1.8 0 2.053.067 3.773.2 5.16.16 1.36.507 2.613 1.04 3.76.294.667.76 1.213 1.4 1.64.667.427 1.614.64 2.84.64 1.04 0 1.88-.2 2.52-.6.64-.427 1.134-1 1.48-1.72.374-.773.627-1.653.76-2.64.16-1.013.24-2.32.24-3.92Zm4 .12c0 1.2-.24 2.36-.72 3.48a10.228 10.228 0 0 1-1.96 3 9.644 9.644 0 0 1-2.84 2.08 8.17 8.17 0 0 1-3.48.76c-1.2 0-2.36-.227-3.48-.68-1.093-.453-2.066-1.173-2.92-2.16-.853-1.013-1.546-2.32-2.08-3.92-.506-1.6-.76-3.547-.76-5.84 0-2.373.294-4.587.88-6.64.614-2.08 1.454-3.893 2.52-5.44 1.067-1.547 2.307-2.76 3.72-3.64 1.44-.88 3-1.32 4.68-1.32 1.014 0 1.854.16 2.52.48.694.293 1.24.68 1.64 1.16.427.453.72.96.88 1.52.187.533.28 1.04.28 1.52 0 .587-.2 1.08-.6 1.48-.373.4-.893.6-1.56.6-1.226 0-1.84-.453-1.84-1.36 0-.24.04-.453.12-.64.107-.187.214-.387.32-.6.134-.213.254-.453.36-.72.107-.267.16-.6.16-1 0-.693-.226-1.173-.68-1.44-.453-.293-1.066-.44-1.84-.44-1.013 0-1.906.24-2.68.72a6.84 6.84 0 0 0-2 1.92c-.56.773-1.026 1.667-1.4 2.68-.373.987-.68 2-.92 3.04-.24 1.013-.44 2-.6 2.96-.133.96-.253 1.8-.36 2.52l.08.08c.534-.96 1.307-1.72 2.32-2.28 1.04-.587 2.187-.88 3.44-.88 1.44 0 2.707.28 3.8.84 1.094.533 2 1.24 2.72 2.12a8.68 8.68 0 0 1 1.68 2.88c.4 1.067.6 2.12.6 3.16Zm3.982-19.72h15.56a40.069 40.069 0 0 1-1.04 7 77.899 77.899 0 0 1-1.84 6.52c-.667 2-1.307 3.72-1.92 5.16a132.417 132.417 0 0 1-1.24 2.8c-.854 1.84-1.574 3.28-2.16 4.32-.587 1.013-1.107 1.76-1.56 2.24-.427.48-.827.76-1.2.84-.347.107-.707.16-1.08.16-.374 0-.774-.107-1.2-.32-.427-.213-.64-.547-.64-1 0-.507.16-.907.48-1.2.346-.32.76-.72 1.24-1.2a56.114 56.114 0 0 0 2.88-3c.773-.907 1.44-1.76 2-2.56.56-.827 1.053-1.64 1.48-2.44.426-.8.866-1.667 1.32-2.6a39.223 39.223 0 0 0 1.72-4.12c.453-1.307.8-2.467 1.04-3.48.266-1.04.453-1.893.56-2.56.106-.693.173-1.147.2-1.36h-9.88c-1.36 0-2.374.387-3.04 1.16-.667.747-1.08 1.76-1.24 3.04h-.44v-7.4Zm23.621 5.28c0 .853.12 1.587.36 2.2a4.81 4.81 0 0 0 1.12 1.6c.186.187.466.4.84.64.373.24.786.493 1.24.76l1.44.76c.533.24 1.053.48 1.56.72.32-.187.64-.427.96-.72.346-.32.666-.707.96-1.16.293-.48.533-1.04.72-1.68.186-.64.28-1.373.28-2.2 0-.8-.054-1.573-.16-2.32a6.518 6.518 0 0 0-.6-2 3.343 3.343 0 0 0-1.32-1.4c-.56-.347-1.294-.52-2.2-.52-1.6 0-2.867.493-3.8 1.48-.934.987-1.4 2.267-1.4 3.84Zm-.76 16.52c0 .88.093 1.72.28 2.52.213.8.533 1.52.96 2.16a5.124 5.124 0 0 0 1.72 1.48c.72.347 1.586.52 2.6.52.88 0 1.666-.213 2.36-.64a7.55 7.55 0 0 0 1.8-1.64c.506-.667.893-1.4 1.16-2.2.266-.8.4-1.56.4-2.28 0-1.147-.214-2.093-.64-2.84a5.82 5.82 0 0 0-1.64-1.96 11.169 11.169 0 0 0-2.32-1.48 248.3 248.3 0 0 1-2.6-1.32c-.88.427-1.587.92-2.12 1.48a6.02 6.02 0 0 0-1.24 1.76 7.466 7.466 0 0 0-.6 2.08c-.08.747-.12 1.533-.12 2.36Zm-3.28-.28c0-1.147.24-2.147.72-3a9.107 9.107 0 0 1 1.8-2.2c.72-.613 1.466-1.12 2.24-1.52.8-.4 1.48-.72 2.04-.96a24.2 24.2 0 0 1-2.2-1.12 9.4 9.4 0 0 1-1.76-1.44 6.795 6.795 0 0 1-1.16-1.96c-.267-.747-.4-1.653-.4-2.72 0-1.04.226-2 .68-2.88a8.048 8.048 0 0 1 1.84-2.28 8.25 8.25 0 0 1 2.52-1.48 8.002 8.002 0 0 1 2.92-.56c.906 0 1.8.147 2.68.44.88.267 1.653.667 2.32 1.2a5.551 5.551 0 0 1 1.64 1.88c.426.72.64 1.533.64 2.44 0 .853-.147 1.613-.44 2.28a7.105 7.105 0 0 1-1.2 1.8 11.67 11.67 0 0 1-1.72 1.48c-.64.453-1.307.893-2 1.32.773.373 1.546.8 2.32 1.28.8.453 1.506 1 2.12 1.64.64.64 1.16 1.373 1.56 2.2.4.827.6 1.76.6 2.8a8.98 8.98 0 0 1-.64 3.36 8.4 8.4 0 0 1-1.88 2.84c-.8.8-1.787 1.453-2.96 1.96-1.147.48-2.454.72-3.92.72a9.757 9.757 0 0 1-3.32-.56 8.118 8.118 0 0 1-2.64-1.56 7.283 7.283 0 0 1-1.76-2.36c-.427-.933-.64-1.947-.64-3.04Zm24.221-12.84c0 1.067.04 2.107.12 3.12.107 1.013.32 1.92.64 2.72.347.8.853 1.453 1.52 1.96.667.48 1.573.72 2.72.72.293 0 .733-.053 1.32-.16.613-.133 1.227-.4 1.84-.8s1.147-.987 1.6-1.76c.453-.8.68-1.867.68-3.2 0-.773-.027-1.613-.08-2.52a39.609 39.609 0 0 0-.24-2.68c-.107-.88-.253-1.68-.44-2.4-.16-.747-.373-1.333-.64-1.76-.24-.427-.64-.853-1.2-1.28-.56-.453-1.453-.68-2.68-.68-1.04 0-1.893.2-2.56.6-.667.4-1.2.973-1.6 1.72-.373.747-.64 1.667-.8 2.76-.133 1.067-.2 2.28-.2 3.64Zm-4 .04c0-1.28.267-2.48.8-3.6a10.484 10.484 0 0 1 2.12-2.96c.88-.853 1.853-1.52 2.92-2 1.093-.507 2.187-.76 3.28-.76s2.173.2 3.24.6c1.093.4 2.067 1.107 2.92 2.12.88.987 1.587 2.333 2.12 4.04.533 1.68.8 3.813.8 6.4 0 2.453-.187 4.573-.56 6.36-.373 1.76-.867 3.253-1.48 4.48-.587 1.227-1.267 2.213-2.04 2.96-.747.72-1.507 1.28-2.28 1.68-.773.4-1.52.667-2.24.8-.693.133-1.293.2-1.8.2-.8 0-1.6-.12-2.4-.36-.8-.213-1.52-.52-2.16-.92-.64-.4-1.16-.893-1.56-1.48a3.579 3.579 0 0 1-.56-1.96c0-.907.227-1.52.68-1.84.453-.347.973-.52 1.56-.52.64 0 1.093.16 1.36.48.267.293.4.6.4.92 0 .213-.053.413-.16.6-.107.187-.227.387-.36.6a7.274 7.274 0 0 0-.32.76c-.08.267-.12.6-.12 1 0 .613.28 1.133.84 1.56.587.4 1.453.6 2.6.6 1.067 0 2.013-.213 2.84-.64.853-.453 1.573-1.213 2.16-2.28.587-1.067 1.027-2.493 1.32-4.28.32-1.787.48-4.027.48-6.72h-.08c-.133.267-.347.587-.64.96-.267.347-.627.693-1.08 1.04-.453.32-1 .6-1.64.84-.64.24-1.387.36-2.24.36-1.36 0-2.587-.267-3.68-.8a9.344 9.344 0 0 1-2.72-2.12 9.793 9.793 0 0 1-1.72-2.92c-.4-1.093-.6-2.16-.6-3.2Zm24.861 5.48c0 2.48.067 4.627.2 6.44.16 1.787.427 3.267.8 4.44.4 1.147.947 2 1.64 2.56.694.56 1.6.84 2.72.84s2.027-.28 2.72-.84c.694-.56 1.227-1.413 1.6-2.56.4-1.173.667-2.653.8-4.44.16-1.813.24-3.96.24-6.44 0-2.48-.08-4.613-.24-6.4-.133-1.787-.4-3.253-.8-4.4-.373-1.173-.906-2.04-1.6-2.6-.693-.56-1.6-.84-2.72-.84s-2.026.28-2.72.84c-.693.56-1.24 1.427-1.64 2.6-.373 1.147-.64 2.613-.8 4.4-.133 1.787-.2 3.92-.2 6.4Zm-4 0c0-1.6.12-3.267.36-5 .267-1.76.747-3.36 1.44-4.8.694-1.467 1.64-2.667 2.84-3.6 1.227-.933 2.8-1.4 4.72-1.4s3.48.467 4.68 1.4c1.227.933 2.187 2.133 2.88 3.6.694 1.44 1.16 3.04 1.4 4.8.267 1.733.4 3.4.4 5 0 1.627-.133 3.32-.4 5.08-.24 1.733-.706 3.333-1.4 4.8-.693 1.44-1.653 2.627-2.88 3.56-1.2.933-2.76 1.4-4.68 1.4s-3.493-.467-4.72-1.4c-1.2-.933-2.146-2.12-2.84-3.56-.693-1.467-1.173-3.067-1.44-4.8-.24-1.76-.36-3.453-.36-5.08Zm23.302 21.12c.773-.56 1.4-1.107 1.88-1.64.506-.507.893-1 1.16-1.48.293-.453.48-.867.56-1.24.106-.373.16-.693.16-.96 0-.853-.24-1.547-.72-2.08-.454.667-1.027 1-1.72 1-.507 0-1-.187-1.48-.56-.48-.373-.72-.907-.72-1.6 0-.613.226-1.147.68-1.6.48-.453 1.066-.68 1.76-.68.506 0 .96.12 1.36.36.426.24.786.547 1.08.92.293.373.506.813.64 1.32.16.507.24 1.013.24 1.52a5.74 5.74 0 0 1-.48 2.28c-.32.773-.707 1.48-1.16 2.12-.454.64-.947 1.2-1.48 1.68-.534.48-1 .853-1.4 1.12l-.36-.48Zm11.012-8.52c0-.587.2-1.08.6-1.48.427-.427.934-.64 1.52-.64.587 0 1.08.213 1.48.64.427.4.64.893.64 1.48s-.213 1.093-.64 1.52c-.4.4-.893.6-1.48.6-.586 0-1.093-.2-1.52-.6-.4-.427-.6-.933-.6-1.52Zm11.053 0c0-.587.2-1.08.6-1.48.427-.427.933-.64 1.52-.64s1.08.213 1.48.64c.427.4.64.893.64 1.48s-.213 1.093-.64 1.52c-.4.4-.893.6-1.48.6s-1.093-.2-1.52-.6c-.4-.427-.6-.933-.6-1.52Zm1.84-15.48h.64c.293.613.64 1.093 1.04 1.44s.947.52 1.64.52c.48 0 .893-.107 1.24-.32.347-.213.627-.573.84-1.08.24-.533.413-1.24.52-2.12.107-.907.16-2.04.16-3.4 0-1.307-.067-2.387-.2-3.24-.107-.853-.28-1.52-.52-2-.213-.48-.48-.813-.8-1a2.026 2.026 0 0 0-1.04-.28c-.213 0-.467.027-.76.08-.267.053-.52.147-.76.28a1.85 1.85 0 0 0-.64.48 1.23 1.23 0 0 0-.24.76c0 .24.04.467.12.68.107.187.213.387.32.6.133.187.253.387.36.6.107.213.16.453.16.72 0 .4-.16.733-.48 1-.293.267-.667.4-1.12.4-.48 0-.907-.12-1.28-.36-.373-.267-.56-.693-.56-1.28 0-.4.093-.867.28-1.4a4.69 4.69 0 0 1 .96-1.48c.427-.453.96-.84 1.6-1.16.64-.32 1.4-.48 2.28-.48 1.52 0 2.747.6 3.68 1.8.933 1.173 1.4 2.933 1.4 5.28 0 .987-.107 1.933-.32 2.84a7.386 7.386 0 0 1-.92 2.36 5.072 5.072 0 0 1-1.68 1.68c-.667.4-1.48.6-2.44.6-.72 0-1.32-.16-1.8-.48-.453-.32-.8-.613-1.04-.88v8.88h-.64v-10.04Zm15.249 15.48c0-.587.2-1.08.6-1.48.427-.427.934-.64 1.52-.64.587 0 1.08.213 1.48.64.427.4.64.893.64 1.48s-.213 1.093-.64 1.52c-.4.4-.893.6-1.48.6-.586 0-1.093-.2-1.52-.6-.4-.427-.6-.933-.6-1.52Zm.48-21.96c-.026-.24-.053-.547-.08-.92l-.08-1.12a45.318 45.318 0 0 0-.08-1c-.026-.32-.04-.533-.04-.64 0-.533.174-.973.52-1.32.347-.373.814-.56 1.4-.56.587 0 1.054.187 1.4.56.347.347.52.787.52 1.32 0 .107-.013.32-.04.64-.026.293-.053.627-.08 1l-.08 1.12c-.026.373-.053.68-.08.92l-1.24 16.52h-.8l-1.24-16.52Zm16.818-5.56c.614 0 1.054.2 1.32.6.267.373.4.747.4 1.12 0 .267-.08.547-.24.84a36.56 36.56 0 0 0-.48 1.12c-.16.427-.333.973-.52 1.64-.16.64-.266 1.453-.32 2.44.88-.56 1.574-1.12 2.08-1.68.507-.56.934-1.053 1.28-1.48.347-.427.654-.773.92-1.04.267-.267.614-.4 1.04-.4.56 0 .974.187 1.24.56.294.347.44.72.44 1.12 0 .373-.08.68-.24.92-.16.213-.36.387-.6.52-.186.107-.44.173-.76.2-.293 0-.68.04-1.16.12a14.1 14.1 0 0 0-1.76.44c-.666.187-1.466.507-2.4.96.934.453 1.734.787 2.4 1 .694.187 1.28.32 1.76.4.48.08.867.133 1.16.16.32 0 .574.053.76.16.24.133.44.32.6.56.16.213.24.507.24.88 0 .4-.146.787-.44 1.16-.266.347-.68.52-1.24.52-.426 0-.773-.133-1.04-.4a14.058 14.058 0 0 1-.92-1.04c-.346-.427-.773-.92-1.28-1.48-.506-.56-1.2-1.12-2.08-1.68.054.987.16 1.813.32 2.48.187.64.374 1.187.56 1.64.187.427.347.787.48 1.08.16.293.24.573.24.84 0 .373-.133.76-.4 1.16-.266.373-.706.56-1.32.56-.613 0-1.053-.187-1.32-.56-.266-.4-.4-.787-.4-1.16 0-.267.067-.547.2-.84.16-.293.32-.653.48-1.08.187-.453.36-1 .52-1.64.187-.667.307-1.493.36-2.48-.88.56-1.573 1.12-2.08 1.68-.506.56-.933 1.053-1.28 1.48a13.61 13.61 0 0 1-.92 1.04c-.266.267-.613.4-1.04.4-.56 0-.986-.173-1.28-.52-.266-.373-.4-.76-.4-1.16 0-.373.08-.667.24-.88.16-.24.36-.427.6-.56.187-.107.427-.16.72-.16.294-.027.68-.08 1.16-.16a18.84 18.84 0 0 0 1.76-.4c.694-.213 1.507-.547 2.44-1-.96-.453-1.786-.773-2.48-.96a12.61 12.61 0 0 0-1.72-.44c-.48-.08-.88-.12-1.2-.12-.293-.027-.533-.093-.72-.2a1.883 1.883 0 0 1-.6-.52c-.16-.24-.24-.547-.24-.92 0-.4.134-.773.4-1.12.294-.373.72-.56 1.28-.56.427 0 .774.133 1.04.4.267.267.574.613.92 1.04.347.427.774.92 1.28 1.48.507.56 1.2 1.12 2.08 1.68-.053-.987-.16-1.8-.32-2.44-.16-.667-.333-1.213-.52-1.64a11.51 11.51 0 0 0-.52-1.12 2.033 2.033 0 0 1-.2-.84c0-.373.134-.747.4-1.12.267-.4.707-.6 1.32-.6Zm21.334 3.92c0 .693.186 1.52.56 2.48.4.96.84 1.92 1.32 2.88a22.74 22.74 0 0 0 1.32-.84c.453-.293.84-.64 1.16-1.04.346-.4.626-.867.84-1.4.213-.533.32-1.16.32-1.88 0-.907-.227-1.707-.68-2.4-.427-.693-1.174-1.04-2.24-1.04-.694 0-1.307.307-1.84.92-.507.613-.76 1.387-.76 2.32Zm-1.44 7.36c-1.387.72-2.494 1.56-3.32 2.52-.827.933-1.24 2.173-1.24 3.72 0 1.2.213 2.467.64 3.8a15.84 15.84 0 0 0 1.68 3.6c.693 1.093 1.466 2 2.32 2.72.88.693 1.76 1.04 2.64 1.04a5.49 5.49 0 0 0 2.68-.68 12.636 12.636 0 0 0 2.4-1.76l-7.8-14.96Zm10.48 11.76c.773-1.307 1.293-2.6 1.56-3.88.293-1.28.44-2.56.44-3.84 0-1.28-.067-2.293-.2-3.04-.107-.773-.307-1.36-.6-1.76a1.93 1.93 0 0 0-1.2-.76c-.48-.133-1.094-.2-1.84-.2v-.56h7.6v.56c-.694 0-1.254.093-1.68.28a2.14 2.14 0 0 0-1 .88c-.214.4-.36.92-.44 1.56a26.18 26.18 0 0 0-.08 2.24c0 1.093-.054 2.067-.16 2.92-.107.853-.254 1.64-.44 2.36a12.82 12.82 0 0 1-.72 2 31.149 31.149 0 0 1-.96 1.84c.693 1.28 1.306 2.293 1.84 3.04.533.72 1.146 1.08 1.84 1.08.426 0 .76-.12 1-.36.266-.24.466-.547.6-.92.133-.373.226-.773.28-1.2.053-.453.08-.893.08-1.32h.56c0 1.12-.147 2.053-.44 2.8-.294.72-.667 1.307-1.12 1.76-.427.453-.92.773-1.48.96-.56.187-1.094.28-1.6.28-.56 0-1.04-.067-1.44-.2-.4-.107-.76-.28-1.08-.52a5.978 5.978 0 0 1-.84-.96c-.267-.373-.56-.813-.88-1.32a10.587 10.587 0 0 1-2.84 1.96c-.587.293-1.24.533-1.96.72-.72.213-1.494.32-2.32.32-1.68 0-3.094-.32-4.24-.96-1.147-.667-2.08-1.453-2.8-2.36-.694-.933-1.187-1.907-1.48-2.92-.294-1.04-.44-1.92-.44-2.64 0-1.387.24-2.6.72-3.64a10.472 10.472 0 0 1 1.88-2.72c.773-.8 1.613-1.493 2.52-2.08a49.19 49.19 0 0 1 2.64-1.6 22 22 0 0 1-.88-2.04c-.294-.8-.44-1.76-.44-2.88 0-.907.16-1.707.48-2.4.32-.72.733-1.333 1.24-1.84a5.289 5.289 0 0 1 1.72-1.16 5.34 5.34 0 0 1 2-.4c1.013 0 1.866.32 2.56.96.72.64 1.08 1.64 1.08 3 0 .8-.134 1.507-.4 2.12a5.454 5.454 0 0 1-.96 1.56c-.374.453-.8.84-1.28 1.16-.48.32-.934.6-1.36.84l6.96 13.28Z" fill="#fff" fill-opacity=".81"/></svg>