<svg width="928" height="464" fill="none" xmlns="http://www.w3.org/2000/svg"><path fill="#fff" d="M0 0h928v464H0z"/><path d="M172.12 84.7h10.62l53.1 127.8h-13.32l-16.56-39.96h-57.42l-16.38 39.96h-13.5l53.46-127.8Zm30.96 77.94-25.74-63.18-26.1 63.18h51.84Zm70.734 51.66c-4.44 0-8.58-.72-12.42-2.16-3.72-1.56-7.02-3.66-9.9-6.3-2.76-2.64-4.92-5.7-6.48-9.18-1.56-3.6-2.34-7.44-2.34-11.52 0-4.08.96-7.86 2.88-11.34 1.92-3.48 4.62-6.48 8.1-9 3.48-2.52 7.62-4.44 12.42-5.76 4.8-1.44 10.08-2.16 15.84-2.16 4.8 0 9.66.42 14.58 1.26 4.92.84 9.3 2.04 13.14 3.6v-8.46c0-8.28-2.34-14.82-7.02-19.62-4.68-4.92-11.16-7.38-19.44-7.38-4.8 0-9.72.96-14.76 2.88-5.04 1.92-10.14 4.68-15.3 8.28l-4.32-8.1c12.12-8.16 23.88-12.24 35.28-12.24 11.76 0 21 3.3 27.72 9.9 6.72 6.6 10.08 15.72 10.08 27.36v42.3c0 3.36 1.5 5.04 4.5 5.04v10.8c-2.04.36-3.6.54-4.68.54-3.12 0-5.58-.78-7.38-2.34-1.68-1.56-2.58-3.72-2.7-6.48l-.36-7.38c-4.32 5.64-9.78 9.96-16.38 12.96-6.48 3-13.5 4.5-21.06 4.5Zm2.88-9.36c6.36 0 12.18-1.2 17.46-3.6 5.4-2.4 9.48-5.58 12.24-9.54 1.08-1.08 1.86-2.22 2.34-3.42.6-1.32.9-2.52.9-3.6v-15.3a74.466 74.466 0 0 0-12.78-3.6 69.63 69.63 0 0 0-13.32-1.26c-8.64 0-15.66 1.8-21.06 5.4-5.4 3.6-8.1 8.34-8.1 14.22 0 2.88.54 5.58 1.62 8.1 1.2 2.52 2.76 4.74 4.68 6.66 2.04 1.8 4.44 3.24 7.2 4.32s5.7 1.62 8.82 1.62ZM128.86 272.1h2.36l11.8 28.4h-2.96l-3.68-8.88h-12.76l-3.64 8.88h-3l11.88-28.4Zm6.88 17.32-5.72-14.04-5.8 14.04h11.52Zm32.711 3.76a6.859 6.859 0 0 1-.64 2.96c-.426.88-1 1.653-1.72 2.32a8.252 8.252 0 0 1-2.52 1.52c-.96.347-1.986.52-3.08.52h-13.4v-28.4h13.68c.987 0 1.88.213 2.68.64.8.427 1.48.987 2.04 1.68.56.667.987 1.44 1.28 2.32.32.853.48 1.72.48 2.6 0 1.44-.36 2.76-1.08 3.96-.72 1.173-1.72 2.053-3 2.64 1.627.48 2.907 1.373 3.84 2.68.96 1.307 1.44 2.827 1.44 4.56Zm-2.8-.48c0-.693-.12-1.36-.36-2a4.862 4.862 0 0 0-1.04-1.72 4.596 4.596 0 0 0-1.56-1.2 3.941 3.941 0 0 0-1.92-.48h-10.88v10.76h10.6c.72 0 1.387-.147 2-.44a5.208 5.208 0 0 0 1.64-1.16c.48-.507.854-1.08 1.12-1.72.267-.667.4-1.347.4-2.04Zm-15.76-18.16v10.48h9.76c.694 0 1.334-.147 1.92-.44a4.852 4.852 0 0 0 1.56-1.16c.427-.48.76-1.027 1-1.64.24-.64.36-1.307.36-2 0-.72-.12-1.4-.36-2.04a4.363 4.363 0 0 0-.96-1.64c-.4-.48-.88-.853-1.44-1.12a3.908 3.908 0 0 0-1.84-.44h-10Zm21.961 11.56c0-1.707.293-3.4.88-5.08a14.369 14.369 0 0 1 2.64-4.56c1.147-1.333 2.56-2.413 4.24-3.24 1.68-.853 3.587-1.28 5.72-1.28 2.533 0 4.693.573 6.48 1.72 1.813 1.147 3.147 2.64 4 4.48l-2.2 1.36c-.453-.933-1.013-1.72-1.68-2.36a8.84 8.84 0 0 0-2.08-1.56c-.747-.4-1.52-.68-2.32-.84-.8-.187-1.587-.28-2.36-.28-1.707 0-3.213.347-4.52 1.04a10.627 10.627 0 0 0-3.32 2.72 12.046 12.046 0 0 0-2 3.8c-.453 1.387-.68 2.8-.68 4.24 0 1.573.267 3.08.8 4.52.56 1.44 1.307 2.72 2.24 3.84a11.526 11.526 0 0 0 3.36 2.64c1.307.64 2.72.96 4.24.96.8 0 1.613-.093 2.44-.28a10.075 10.075 0 0 0 2.44-.96c.8-.453 1.533-1 2.2-1.64a8.782 8.782 0 0 0 1.68-2.4l2.32 1.2a8.901 8.901 0 0 1-1.92 2.84c-.827.8-1.747 1.48-2.76 2.04a13.65 13.65 0 0 1-3.24 1.28c-1.12.293-2.227.44-3.32.44-1.947 0-3.733-.427-5.36-1.28a14.192 14.192 0 0 1-4.2-3.32 16.203 16.203 0 0 1-2.76-4.68c-.64-1.76-.96-3.547-.96-5.36Zm29.302 14.4v-28.4h9.64c2.266 0 4.24.373 5.92 1.12 1.706.747 3.12 1.76 4.24 3.04 1.146 1.28 2 2.787 2.56 4.52.586 1.707.88 3.533.88 5.48 0 2.16-.32 4.12-.96 5.88-.64 1.733-1.56 3.227-2.76 4.48-1.174 1.227-2.6 2.187-4.28 2.88-1.654.667-3.52 1-5.6 1h-9.64Zm20.44-14.24c0-1.707-.24-3.267-.72-4.68-.48-1.44-1.187-2.68-2.12-3.72-.907-1.04-2.027-1.84-3.36-2.4-1.334-.587-2.867-.88-4.6-.88h-6.84v23.44h6.84c1.76 0 3.306-.293 4.64-.88 1.36-.613 2.493-1.44 3.4-2.48.906-1.067 1.586-2.307 2.04-3.72.48-1.44.72-3 .72-4.68Zm27.234 11.76v2.48h-19.08v-28.4h18.72v2.48h-15.92v10.24h13.88v2.36h-13.88v10.84h16.28Zm5.295 2.48v-28.4h18.64v2.48h-15.84v10.44h13.36v2.32h-13.36v13.16h-2.8Zm43.449-4.16c-2.64 2.907-5.68 4.36-9.12 4.36-1.92 0-3.693-.413-5.32-1.24-1.6-.827-3-1.92-4.2-3.28a15.778 15.778 0 0 1-2.76-4.6c-.666-1.733-1-3.507-1-5.32 0-1.893.32-3.707.96-5.44.667-1.733 1.587-3.253 2.76-4.56a13.06 13.06 0 0 1 4.16-3.16c1.6-.8 3.347-1.2 5.24-1.2 1.387 0 2.654.16 3.8.48 1.147.293 2.16.72 3.04 1.28a8.71 8.71 0 0 1 2.32 1.96 11.256 11.256 0 0 1 1.68 2.48l-2.16 1.44c-.933-1.76-2.146-3.053-3.64-3.88-1.493-.827-3.186-1.24-5.08-1.24-1.573 0-3 .333-4.28 1a10.453 10.453 0 0 0-3.24 2.68c-.88 1.093-1.56 2.36-2.04 3.8-.48 1.413-.72 2.88-.72 4.4 0 1.6.267 3.12.8 4.56.56 1.44 1.32 2.707 2.28 3.8.96 1.067 2.08 1.92 3.36 2.56 1.307.64 2.72.96 4.24.96 1.627 0 3.174-.373 4.64-1.12 1.494-.773 2.92-1.987 4.28-3.64v-4.72h-6.32v-2.16h8.68v13.96h-2.36v-4.16Zm30.513-24.24v28.4h-2.76v-13.28h-16.84v13.28h-2.8v-28.4h2.8v12.64h16.84V272.1h2.76Zm7.131 28.4v-28.4h2.8v28.4h-2.8Zm7.722-3.56c.587.4 1.333.747 2.24 1.04.933.293 1.973.44 3.12.44 1.44 0 2.587-.253 3.44-.76.88-.533 1.547-1.307 2-2.32.453-1.013.747-2.253.88-3.72.133-1.493.2-3.187.2-5.08V272.1h2.8v14.44c0 2.16-.107 4.133-.32 5.92-.187 1.76-.6 3.267-1.24 4.52a6.877 6.877 0 0 1-2.8 2.92c-1.227.693-2.88 1.04-4.96 1.04-2.4 0-4.453-.587-6.16-1.76l.8-2.24Zm21.458 3.56v-28.36h2.8v16.48l15.64-16.52h3.08l-11.6 12.48 12.2 15.92h-3.08l-10.88-14.28-5.36 5.56v8.72h-2.8Zm25.703 0v-28.4h2.8v25.92h16.4v2.48h-19.2Zm48.48 0v-23.32l-10.36 18.04h-1.64l-10.36-18.04v23.32h-2.8v-28.4h2.88l11.08 19.44 11.16-19.44h2.84v28.4h-2.8Zm12.719-23.2v23.2h-2.8v-28.4h2.16l18.8 23.64v-23.6h2.8v28.36h-2.44l-18.52-23.2Zm39.538 23.4c-1.973 0-3.787-.4-5.44-1.2a13.961 13.961 0 0 1-4.2-3.24 14.991 14.991 0 0 1-2.72-4.64 15.246 15.246 0 0 1-.96-5.32c0-1.893.333-3.707 1-5.44a15.304 15.304 0 0 1 2.84-4.6 13.369 13.369 0 0 1 4.24-3.16c1.627-.8 3.387-1.2 5.28-1.2 1.973 0 3.773.427 5.4 1.28 1.653.827 3.053 1.92 4.2 3.28a14.991 14.991 0 0 1 2.72 4.64c.64 1.707.96 3.453.96 5.24a14.52 14.52 0 0 1-1.04 5.44 14.698 14.698 0 0 1-2.8 4.6 13.706 13.706 0 0 1-4.2 3.16c-1.627.773-3.387 1.16-5.28 1.16Zm-10.52-14.4c0 1.547.253 3.04.76 4.48a12.459 12.459 0 0 0 2.16 3.8 11.02 11.02 0 0 0 3.32 2.64c1.28.64 2.707.96 4.28.96 1.6 0 3.053-.347 4.36-1.04a10.627 10.627 0 0 0 3.32-2.72c.907-1.12 1.6-2.387 2.08-3.8.507-1.413.76-2.853.76-4.32 0-1.547-.267-3.027-.8-4.44-.507-1.44-1.227-2.707-2.16-3.8a10.495 10.495 0 0 0-3.32-2.6c-1.28-.667-2.693-1-4.24-1-1.6 0-3.053.347-4.36 1.04a10.164 10.164 0 0 0-3.32 2.68 12.917 12.917 0 0 0-2.12 3.8 13.345 13.345 0 0 0-.72 4.32Zm29.119 14.2v-28.4h11.76c1.227 0 2.347.267 3.36.8a8.436 8.436 0 0 1 2.68 2.04 9.414 9.414 0 0 1 1.76 2.84 8.654 8.654 0 0 1 .64 3.24 9.82 9.82 0 0 1-.6 3.4 9.201 9.201 0 0 1-1.68 2.84 8.377 8.377 0 0 1-2.6 2c-.987.507-2.093.76-3.32.76h-9.2v10.48h-2.8Zm2.8-12.96h9.08c.827 0 1.573-.173 2.24-.52a5.792 5.792 0 0 0 1.76-1.44 7.11 7.11 0 0 0 1.12-2.08c.267-.8.4-1.627.4-2.48 0-.88-.16-1.707-.48-2.48a6.258 6.258 0 0 0-1.24-2.08 5.177 5.177 0 0 0-1.84-1.36 4.85 4.85 0 0 0-2.2-.52h-8.84v12.96Zm41.283 10.44a13.258 13.258 0 0 1-3.6 2c-1.28.48-2.667.72-4.16.72-1.974 0-3.787-.413-5.44-1.24a13.961 13.961 0 0 1-4.2-3.24 14.476 14.476 0 0 1-2.72-4.6 15.246 15.246 0 0 1-.96-5.32c0-1.893.333-3.707 1-5.44a15.304 15.304 0 0 1 2.84-4.6 13.369 13.369 0 0 1 4.24-3.16c1.626-.8 3.386-1.2 5.28-1.2 1.973 0 3.773.427 5.4 1.28 1.653.827 3.053 1.92 4.2 3.28a14.991 14.991 0 0 1 2.72 4.64c.64 1.707.96 3.453.96 5.24 0 1.947-.36 3.8-1.08 5.56a14.432 14.432 0 0 1-2.92 4.64l3.36 3.96h-2.76l-2.16-2.52Zm-7.76.2c1.2 0 2.306-.187 3.32-.56 1.013-.4 1.946-.933 2.8-1.6l-3.56-4.24h2.76l2.28 2.72a12.459 12.459 0 0 0 2.16-3.8c.506-1.44.76-2.907.76-4.4 0-1.547-.267-3.027-.8-4.44-.507-1.44-1.227-2.707-2.16-3.8a11.031 11.031 0 0 0-3.32-2.64c-1.28-.667-2.694-1-4.24-1-1.6 0-3.054.347-4.36 1.04a10.154 10.154 0 0 0-3.32 2.68 12.774 12.774 0 0 0-2.12 3.84 13.345 13.345 0 0 0-.72 4.32c0 1.547.253 3.04.76 4.48a12.417 12.417 0 0 0 2.16 3.8 11.02 11.02 0 0 0 3.32 2.64c1.28.64 2.706.96 4.28.96Zm18.521 2.32v-28.4h12c1.226 0 2.346.267 3.36.8a8.436 8.436 0 0 1 2.68 2.04 8.822 8.822 0 0 1 1.72 2.84 8.674 8.674 0 0 1 .64 3.24c0 1.04-.16 2.04-.48 3a8.881 8.881 0 0 1-1.28 2.56 7.898 7.898 0 0 1-1.96 1.92 7.205 7.205 0 0 1-2.6 1.04l6.96 10.96h-3.16l-6.68-10.48h-8.4v10.48h-2.8Zm2.8-12.96h9.28c.826 0 1.573-.173 2.24-.52a5.555 5.555 0 0 0 1.76-1.48 7.11 7.11 0 0 0 1.12-2.08 7.45 7.45 0 0 0 .4-2.44c0-.853-.16-1.667-.48-2.44a6.275 6.275 0 0 0-1.24-2.08 5.628 5.628 0 0 0-1.84-1.4 4.854 4.854 0 0 0-2.2-.52h-9.04v12.96Zm39.933-10.12c-.8-.907-1.867-1.64-3.2-2.2-1.334-.56-2.854-.84-4.56-.84-2.507 0-4.334.48-5.48 1.44-1.147.933-1.72 2.213-1.72 3.84 0 .853.146 1.56.44 2.12.32.533.8 1 1.44 1.4.64.4 1.453.747 2.44 1.04 1.013.293 2.2.587 3.56.88 1.52.32 2.88.68 4.08 1.08 1.226.4 2.266.907 3.12 1.52.853.587 1.506 1.307 1.96 2.16.453.853.68 1.92.68 3.2 0 1.307-.254 2.44-.76 3.4a6.786 6.786 0 0 1-2.12 2.4c-.907.64-1.987 1.12-3.24 1.44-1.254.293-2.627.44-4.12.44-4.4 0-8.2-1.373-11.4-4.12l1.4-2.28c.506.533 1.106 1.04 1.8 1.52.72.48 1.506.907 2.36 1.28.88.347 1.813.627 2.8.84.986.187 2.026.28 3.12.28 2.266 0 4.026-.4 5.28-1.2 1.28-.827 1.92-2.067 1.92-3.72 0-.88-.187-1.613-.56-2.2-.347-.613-.88-1.133-1.6-1.56-.72-.453-1.614-.84-2.68-1.16a56.68 56.68 0 0 0-3.72-.96 44.133 44.133 0 0 1-3.92-1.08c-1.12-.373-2.067-.84-2.84-1.4-.774-.56-1.36-1.227-1.76-2-.374-.8-.56-1.773-.56-2.92 0-1.307.24-2.467.72-3.48a6.838 6.838 0 0 1 2.12-2.56c.906-.693 1.973-1.213 3.2-1.56 1.226-.373 2.586-.56 4.08-.56 1.893 0 3.573.293 5.04.88 1.493.56 2.84 1.36 4.04 2.4l-1.36 2.24Zm27.661-2.84h-10.12v25.92h-2.8v-25.92h-10.12v-2.48h23.04v2.48Zm15.774 23.6c1.787 0 3.267-.333 4.44-1 1.2-.693 2.147-1.587 2.84-2.68.72-1.12 1.214-2.387 1.48-3.8.294-1.413.44-2.84.44-4.28V272.1h2.8v14.32c0 1.92-.213 3.747-.64 5.48-.426 1.707-1.12 3.213-2.08 4.52-.933 1.307-2.16 2.347-3.68 3.12-1.52.773-3.373 1.16-5.56 1.16-2.24 0-4.133-.4-5.68-1.2-1.52-.827-2.746-1.907-3.68-3.24-.933-1.333-1.6-2.853-2-4.56-.4-1.707-.6-3.467-.6-5.28V272.1h2.76v14.32c0 1.493.147 2.947.44 4.36.294 1.413.787 2.667 1.48 3.76a8.194 8.194 0 0 0 2.84 2.64c1.174.667 2.64 1 4.4 1Zm18.556-26.08 10.16 24.92 10.12-24.92h2.92l-11.84 28.4h-2.44l-11.84-28.4h2.92Zm37.948.2h2.64l4 10.08 4.04-10.08h2.68l-4.96 12.12 5.44 12.84 10.28-25.16h3.04l-12.04 28.4h-2.48l-5.96-14.04-6 14.04h-2.44l-12-28.4h3l10.32 25.16 5.4-12.84-4.96-12.12Zm30.956-.2 9.32 12.4 9.32-12.4h3.08l-10.92 14.4 10.6 14h-3.08l-9-12-9 12h-3.16l10.6-14-10.92-14.4h3.16Zm25.633 0 9.28 15.28 9.36-15.28h3.04l-11 17.84v10.56h-2.8v-10.64l-10.96-17.76h3.08Zm23.575 26.2 19.32-23.72h-19v-2.48h22.24v2.2l-19.08 23.72h19.04v2.48h-22.52v-2.2ZM124.74 355.9c-.987 0-1.907-.16-2.76-.48a7.54 7.54 0 0 1-2.2-1.4 6.464 6.464 0 0 1-1.44-2.04 6.362 6.362 0 0 1-.52-2.56c0-.907.213-1.747.64-2.52.427-.773 1.027-1.44 1.8-2 .773-.56 1.693-.987 2.76-1.28 1.067-.32 2.24-.48 3.52-.48 1.067 0 2.147.093 3.24.28 1.093.187 2.067.453 2.92.8v-1.88c0-1.84-.52-3.293-1.56-4.36-1.04-1.093-2.48-1.64-4.32-1.64-1.067 0-2.16.213-3.28.64-1.12.427-2.253 1.04-3.4 1.84l-.96-1.8c2.693-1.813 5.307-2.72 7.84-2.72 2.613 0 4.667.733 6.16 2.2 1.493 1.467 2.24 3.493 2.24 6.08v9.4c0 .747.333 1.12 1 1.12v2.4c-.453.08-.8.12-1.04.12-.693 0-1.24-.173-1.64-.52-.373-.347-.573-.827-.6-1.44l-.08-1.64a9.421 9.421 0 0 1-3.64 2.88c-1.44.667-3 1-4.68 1Zm.64-2.08c1.413 0 2.707-.267 3.88-.8 1.2-.533 2.107-1.24 2.72-2.12.24-.24.413-.493.52-.76.133-.293.2-.56.2-.8v-3.4a16.548 16.548 0 0 0-2.84-.8 15.45 15.45 0 0 0-2.96-.28c-1.92 0-3.48.4-4.68 1.2-1.2.8-1.8 1.853-1.8 3.16 0 .64.12 1.24.36 1.8.267.56.613 1.053 1.04 1.48.453.4.987.72 1.6.96a5.33 5.33 0 0 0 1.96.36Zm26.117 2.08c-1.653 0-3.173-.413-4.56-1.24-1.36-.827-2.427-1.893-3.2-3.2v4.04h-2.44v-29.2h2.72v12.72c.933-1.413 2.053-2.547 3.36-3.4 1.307-.88 2.827-1.32 4.56-1.32 1.467 0 2.773.307 3.92.92a8.875 8.875 0 0 1 2.96 2.48 10.697 10.697 0 0 1 1.88 3.48c.453 1.28.68 2.6.68 3.96 0 1.467-.253 2.853-.76 4.16a11.2 11.2 0 0 1-2.08 3.44c-.88.96-1.933 1.733-3.16 2.32a9.06 9.06 0 0 1-3.88.84Zm-.64-2.4c1.147 0 2.187-.227 3.12-.68a7.772 7.772 0 0 0 2.44-1.88 8.832 8.832 0 0 0 1.6-2.68c.4-1.013.6-2.053.6-3.12a9.076 9.076 0 0 0-.56-3.16 8.049 8.049 0 0 0-1.52-2.68 6.77 6.77 0 0 0-2.36-1.88c-.907-.48-1.907-.72-3-.72-.827 0-1.6.147-2.32.44a7.4 7.4 0 0 0-2 1.12 8.917 8.917 0 0 0-1.64 1.68 9.911 9.911 0 0 0-1.2 1.96v6.48c.107.72.387 1.4.84 2.04a7.974 7.974 0 0 0 1.68 1.6 9.377 9.377 0 0 0 2.12 1.08c.773.267 1.507.4 2.2.4Zm13.687-8.48c0-1.467.254-2.853.76-4.16.507-1.307 1.214-2.44 2.12-3.4.934-.987 2.04-1.76 3.32-2.32 1.28-.56 2.694-.84 4.24-.84 1.974 0 3.694.453 5.16 1.36a8.474 8.474 0 0 1 3.32 3.6l-2.64.84a6.161 6.161 0 0 0-2.48-2.48c-1.04-.613-2.2-.92-3.48-.92a7.129 7.129 0 0 0-3 .64 7.772 7.772 0 0 0-2.4 1.76c-.666.72-1.2 1.587-1.6 2.6-.373 1.013-.56 2.12-.56 3.32 0 1.173.2 2.28.6 3.32a8.72 8.72 0 0 0 1.64 2.72 8.346 8.346 0 0 0 2.4 1.8c.934.427 1.92.64 2.96.64.667 0 1.32-.093 1.96-.28a8.094 8.094 0 0 0 1.84-.76 7.03 7.03 0 0 0 1.44-1.16c.4-.427.68-.88.84-1.36l2.68.8a7.066 7.066 0 0 1-1.28 2.08 9.388 9.388 0 0 1-2 1.64c-.746.453-1.586.8-2.52 1.04-.906.267-1.853.4-2.84.4-1.52 0-2.92-.28-4.2-.84a10.603 10.603 0 0 1-3.32-2.36 11.521 11.521 0 0 1-2.2-3.48c-.506-1.307-.76-2.707-.76-4.2Zm31.719 10.88c-1.44 0-2.773-.293-4-.88a10.432 10.432 0 0 1-3.16-2.4 11.328 11.328 0 0 1-2.08-3.4 11.742 11.742 0 0 1-.72-4.08c0-1.467.24-2.853.72-4.16.48-1.333 1.133-2.493 1.96-3.48a9.358 9.358 0 0 1 3-2.32c1.173-.587 2.453-.88 3.84-.88 1.76 0 3.32.467 4.68 1.4 1.36.907 2.427 2.013 3.2 3.32V326.3h2.72v25.68c0 .747.32 1.12.96 1.12v2.4c-.4.08-.72.12-.96.12-.64 0-1.2-.2-1.68-.6-.48-.427-.72-.933-.72-1.52v-2.04a9.119 9.119 0 0 1-3.36 3.24c-1.413.8-2.88 1.2-4.4 1.2Zm.6-2.4c.667 0 1.373-.133 2.12-.4a9.134 9.134 0 0 0 2.16-1.08 7.553 7.553 0 0 0 1.68-1.64c.48-.64.773-1.32.88-2.04v-6.44a6.868 6.868 0 0 0-1.16-2 8.766 8.766 0 0 0-1.76-1.68 7.852 7.852 0 0 0-2.08-1.12 6.508 6.508 0 0 0-2.2-.4c-1.12 0-2.133.24-3.04.72a7.794 7.794 0 0 0-2.36 1.92 8.455 8.455 0 0 0-1.48 2.68 9.563 9.563 0 0 0-.52 3.12c0 1.12.2 2.187.6 3.2a8.84 8.84 0 0 0 1.64 2.68 8.155 8.155 0 0 0 2.44 1.8c.96.453 1.987.68 3.08.68Zm24.723 2.4c-1.52 0-2.92-.28-4.2-.84a10.735 10.735 0 0 1-3.28-2.36 11.502 11.502 0 0 1-2.2-3.48c-.507-1.307-.76-2.707-.76-4.2 0-1.467.253-2.84.76-4.12.533-1.307 1.253-2.44 2.16-3.4.933-.987 2.04-1.76 3.32-2.32 1.28-.587 2.667-.88 4.16-.88 1.52 0 2.907.293 4.16.88a9.644 9.644 0 0 1 3.28 2.32c.907.987 1.613 2.12 2.12 3.4.507 1.28.76 2.64.76 4.08v.64c0 .213-.013.36-.04.44h-17.84c.08 1.12.333 2.16.76 3.12a8.943 8.943 0 0 0 1.72 2.44 7.992 7.992 0 0 0 2.36 1.64 7.498 7.498 0 0 0 4.88.28 8.094 8.094 0 0 0 1.84-.76 7.174 7.174 0 0 0 1.52-1.16c.453-.48.8-1 1.04-1.56l2.36.64a7.186 7.186 0 0 1-1.36 2.12 10.41 10.41 0 0 1-2.04 1.64c-.773.453-1.627.8-2.56 1.04-.933.267-1.907.4-2.92.4Zm7.68-11.92c-.08-1.12-.347-2.133-.8-3.04a7.79 7.79 0 0 0-1.68-2.4 7.135 7.135 0 0 0-2.36-1.56 7.203 7.203 0 0 0-2.84-.56 7.59 7.59 0 0 0-5.28 2.12 8.15 8.15 0 0 0-1.64 2.4c-.4.933-.64 1.947-.72 3.04h15.32Zm7.601 11.52v-18.68h-2.88v-2.16h2.88v-.56c0-2.56.547-4.56 1.64-6 1.094-1.467 2.587-2.2 4.48-2.2.827 0 1.627.12 2.4.36.774.24 1.44.56 2 .96l-.84 1.96c-.373-.293-.84-.52-1.4-.68a5.675 5.675 0 0 0-1.64-.24c-1.28 0-2.253.493-2.92 1.48-.666.987-1 2.413-1 4.28v.64h5.76v2.16h-5.76v18.68h-2.72Zm19.587.28c-1.44 0-2.76-.293-3.96-.88a10.772 10.772 0 0 1-3.08-2.4 11.1 11.1 0 0 1-2-3.4c-.48-1.28-.72-2.6-.72-3.96 0-1.44.226-2.813.68-4.12.48-1.333 1.146-2.493 2-3.48a9.724 9.724 0 0 1 3.04-2.36c1.2-.587 2.52-.88 3.96-.88 1.786 0 3.333.453 4.64 1.36 1.306.88 2.426 2 3.36 3.36v-4.36h2.44v20.92c0 1.44-.28 2.707-.84 3.8a7.868 7.868 0 0 1-2.2 2.8c-.907.747-1.987 1.307-3.24 1.68a13.41 13.41 0 0 1-3.92.56c-2.4 0-4.334-.427-5.8-1.28-1.467-.853-2.654-2-3.56-3.44l1.68-1.32c.826 1.333 1.92 2.307 3.28 2.92 1.36.64 2.826.96 4.4.96a9.312 9.312 0 0 0 2.88-.44c.906-.267 1.693-.68 2.36-1.24.693-.533 1.24-1.227 1.64-2.08.4-.827.6-1.8.6-2.92v-4.12a8.69 8.69 0 0 1-3.28 3.16c-1.387.773-2.84 1.16-4.36 1.16Zm.76-2.28c.8 0 1.586-.147 2.36-.44a7.896 7.896 0 0 0 2.08-1.16 7.93 7.93 0 0 0 1.6-1.68c.426-.613.706-1.24.84-1.88v-6.44a8.151 8.151 0 0 0-1.2-2.08 8.331 8.331 0 0 0-1.72-1.64 8.599 8.599 0 0 0-2.08-1.08 6.284 6.284 0 0 0-2.2-.4c-1.174 0-2.227.253-3.16.76a7.332 7.332 0 0 0-2.32 1.92 8.944 8.944 0 0 0-1.48 2.72 10.17 10.17 0 0 0-.48 3.08c0 1.12.2 2.187.6 3.2a8.82 8.82 0 0 0 1.64 2.68 8.676 8.676 0 0 0 2.48 1.8c.933.427 1.946.64 3.04.64Zm33.126 2h-2.72v-11.64c0-2.373-.413-4.147-1.24-5.32-.8-1.173-1.986-1.76-3.56-1.76a6.03 6.03 0 0 0-2.32.48 8.183 8.183 0 0 0-2.12 1.24 9.11 9.11 0 0 0-1.76 1.88c-.48.72-.84 1.507-1.08 2.36v12.76h-2.72v-29.2h2.72v13.08c.827-1.573 1.974-2.813 3.44-3.72a8.887 8.887 0 0 1 4.76-1.36c1.2 0 2.214.227 3.04.68a5.397 5.397 0 0 1 2.04 1.84c.534.773.92 1.72 1.16 2.84.24 1.093.36 2.307.36 3.64v12.2Zm5.801 0v-20.84h2.72v20.84h-2.72Zm0-25.2v-4h2.72v4h-2.72Zm5.591 32.44c-.88 0-1.707-.12-2.48-.36a5.441 5.441 0 0 1-2.08-1.2l1.32-1.84c.426.373.893.627 1.4.76a5.96 5.96 0 0 0 1.52.2c.48 0 .933-.093 1.36-.28a3.648 3.648 0 0 0 1.2-.8c.346-.32.626-.707.84-1.16.213-.453.32-.947.32-1.48v-21.92h2.72v21.76c0 .933-.174 1.787-.52 2.56a6.307 6.307 0 0 1-1.4 2c-.56.56-1.214.987-1.96 1.28a5.46 5.46 0 0 1-2.24.48Zm3.4-32.44v-4h2.72v4h-2.72Zm23.584 25.2-7.68-10.68-4.48 4.16v6.52h-2.72v-29.2h2.72v19.84l11.72-11.44h3.08l-8.52 8.52 8.84 12.28h-2.96Zm6.451-29.2h2.72v24.48c0 .773.213 1.387.64 1.84.427.427 1.027.64 1.8.64.293 0 .64-.04 1.04-.12.4-.08.773-.187 1.12-.32l.48 2.2c-.507.213-1.133.387-1.88.52-.72.133-1.347.2-1.88.2-1.253 0-2.24-.347-2.96-1.04-.72-.72-1.08-1.72-1.08-3v-25.4Zm41.778 29.2h-2.72v-11.64c0-2.427-.386-4.213-1.16-5.36-.773-1.147-1.92-1.72-3.44-1.72-.8 0-1.56.147-2.28.44a7.36 7.36 0 0 0-1.96 1.24 8.632 8.632 0 0 0-1.56 1.92c-.453.72-.8 1.52-1.04 2.4v12.72h-2.72v-11.64c0-2.48-.373-4.28-1.12-5.4-.746-1.12-1.893-1.68-3.44-1.68-1.573 0-2.973.547-4.2 1.64-1.226 1.093-2.106 2.533-2.64 4.32v12.76h-2.72v-20.84h2.48v4.72c.854-1.6 1.974-2.84 3.36-3.72a8.228 8.228 0 0 1 4.6-1.36c1.76 0 3.16.493 4.2 1.48 1.067.987 1.72 2.28 1.96 3.88 1.947-3.573 4.627-5.36 8.04-5.36 1.174 0 2.16.213 2.96.64a4.824 4.824 0 0 1 1.96 1.84c.507.773.867 1.72 1.08 2.84.24 1.093.36 2.32.36 3.68v12.2Zm23.278 0h-2.72v-11.64c0-2.48-.373-4.28-1.12-5.4-.72-1.12-1.84-1.68-3.36-1.68-.8 0-1.6.147-2.4.44-.8.293-1.547.707-2.24 1.24a9.5 9.5 0 0 0-1.8 1.92 7.227 7.227 0 0 0-1.16 2.36v12.76h-2.72v-20.84h2.48v4.72c.853-1.52 2.067-2.747 3.64-3.68 1.6-.933 3.333-1.4 5.2-1.4 1.147 0 2.12.213 2.92.64.8.427 1.44 1.027 1.92 1.8.48.773.827 1.72 1.04 2.84.213 1.12.32 2.36.32 3.72v12.2Zm14.68.4c-1.52 0-2.906-.28-4.16-.84a10.747 10.747 0 0 1-3.28-2.36 10.817 10.817 0 0 1-2.12-3.44 11.311 11.311 0 0 1-.76-4.12c0-1.467.254-2.853.76-4.16a11.424 11.424 0 0 1 2.16-3.44 10.747 10.747 0 0 1 3.28-2.36c1.254-.587 2.627-.88 4.12-.88 1.494 0 2.867.293 4.12.88a10.121 10.121 0 0 1 3.28 2.36 10.425 10.425 0 0 1 2.16 3.44c.534 1.307.8 2.693.8 4.16 0 1.44-.253 2.813-.76 4.12a10.425 10.425 0 0 1-2.16 3.44c-.906.987-2 1.773-3.28 2.36-1.253.56-2.64.84-4.16.84Zm-7.56-10.72c0 1.173.2 2.267.6 3.28a9.45 9.45 0 0 0 1.6 2.64 7.772 7.772 0 0 0 2.4 1.76c.934.427 1.92.64 2.96.64s2.014-.213 2.92-.64a8.143 8.143 0 0 0 2.44-1.8 8.82 8.82 0 0 0 1.64-2.68c.4-1.013.6-2.107.6-3.28 0-1.147-.2-2.227-.6-3.24-.4-1.04-.946-1.933-1.64-2.68a7.35 7.35 0 0 0-2.44-1.8 6.442 6.442 0 0 0-2.92-.68c-1.04 0-2.013.227-2.92.68a7.5 7.5 0 0 0-2.4 1.8 8.72 8.72 0 0 0-1.64 2.72c-.4 1.013-.6 2.107-.6 3.28Zm33.11 10.72c-1.76 0-3.32-.44-4.68-1.32a10.936 10.936 0 0 1-3.24-3.4v12.84h-2.72v-29.36h2.44v4.04a9.904 9.904 0 0 1 3.32-3.16 8.388 8.388 0 0 1 4.44-1.24c1.44 0 2.76.307 3.96.92a9.794 9.794 0 0 1 3.12 2.4c.88.987 1.56 2.133 2.04 3.44.506 1.307.76 2.653.76 4.04a12.61 12.61 0 0 1-.68 4.16 10.437 10.437 0 0 1-1.96 3.44 9.291 9.291 0 0 1-3 2.36c-1.147.56-2.414.84-3.8.84Zm-.76-2.4c1.12 0 2.133-.24 3.04-.72a7.447 7.447 0 0 0 2.36-1.88 8.628 8.628 0 0 0 1.52-2.68 9.59 9.59 0 0 0 .52-3.12c0-1.12-.2-2.187-.6-3.2a8.84 8.84 0 0 0-1.64-2.68 7.728 7.728 0 0 0-2.48-1.84 6.873 6.873 0 0 0-3.04-.68c-.694 0-1.427.147-2.2.44a8.514 8.514 0 0 0-2.12 1.12c-.64.453-1.2 1-1.68 1.64-.454.613-.734 1.267-.84 1.96v6.4c.32.747.72 1.44 1.2 2.08.506.64 1.066 1.2 1.68 1.68.64.453 1.32.813 2.04 1.08.72.267 1.466.4 2.24.4Zm22.847 2.4c-1.413 0-2.707-.293-3.88-.88a9.93 9.93 0 0 1-2.96-2.4 11.412 11.412 0 0 1-1.92-3.44 12.37 12.37 0 0 1-.68-4.08c0-1.44.253-2.813.76-4.12a11.2 11.2 0 0 1 2.08-3.44 10.55 10.55 0 0 1 3.16-2.36 8.966 8.966 0 0 1 3.92-.88c.8 0 1.573.12 2.32.36.773.213 1.493.52 2.16.92.667.373 1.267.84 1.8 1.4.56.533 1.04 1.12 1.44 1.76v-4.08h2.44v25.72c0 .747.333 1.133 1 1.16v2.36c-.267.053-.533.08-.8.08h-.72c-.613-.053-1.133-.32-1.56-.8-.427-.453-.64-1-.64-1.64v-10.36c-1.013 1.547-2.187 2.72-3.52 3.52-1.333.8-2.8 1.2-4.4 1.2Zm.84-2.4c.8 0 1.547-.133 2.24-.4a8.094 8.094 0 0 0 1.96-1.04 9.083 9.083 0 0 0 1.64-1.56c.48-.613.893-1.253 1.24-1.92v-6.44a4.694 4.694 0 0 0-.84-2.04 7.488 7.488 0 0 0-1.68-1.76 7.905 7.905 0 0 0-2.12-1.2 6.405 6.405 0 0 0-2.28-.44c-1.12 0-2.16.24-3.12.72a8.11 8.11 0 0 0-2.44 1.92 8.62 8.62 0 0 0-1.56 2.68 8.962 8.962 0 0 0-.56 3.12c0 1.12.187 2.187.56 3.2a8.62 8.62 0 0 0 1.56 2.68 7.813 7.813 0 0 0 2.36 1.8 6.87 6.87 0 0 0 3.04.68Zm26.208-16.44c-1.84.053-3.44.56-4.8 1.52-1.36.96-2.32 2.28-2.88 3.96v12.96h-2.72v-20.84h2.56v5c.773-1.6 1.813-2.853 3.12-3.76 1.306-.907 2.706-1.36 4.2-1.36.213 0 .386.013.52.04v2.48Zm10.543 18.84c-1.627 0-3.213-.267-4.76-.8-1.547-.533-2.88-1.307-4-2.32l1.24-1.84c1.173.96 2.36 1.68 3.56 2.16 1.227.48 2.533.72 3.92.72 1.68 0 3.013-.333 4-1 1.013-.693 1.52-1.667 1.52-2.92 0-.587-.133-1.067-.4-1.44-.267-.4-.667-.747-1.2-1.04-.507-.293-1.16-.547-1.96-.76-.773-.24-1.68-.48-2.72-.72-1.2-.293-2.24-.587-3.12-.88-.88-.293-1.613-.627-2.2-1-.56-.373-.987-.827-1.28-1.36-.267-.56-.4-1.253-.4-2.08 0-1.04.2-1.96.6-2.76a5.73 5.73 0 0 1 1.68-1.96 7.675 7.675 0 0 1 2.48-1.2c.96-.267 1.973-.4 3.04-.4 1.6 0 3.053.267 4.36.8 1.307.507 2.36 1.187 3.16 2.04l-1.32 1.6c-.773-.8-1.72-1.4-2.84-1.8-1.093-.4-2.24-.6-3.44-.6-.72 0-1.387.08-2 .24-.613.133-1.16.36-1.64.68-.453.32-.813.733-1.08 1.24-.267.48-.4 1.053-.4 1.72 0 .56.093 1.013.28 1.36.187.347.493.653.92.92.427.24.96.467 1.6.68.667.187 1.467.387 2.4.6 1.333.32 2.507.64 3.52.96 1.013.32 1.853.693 2.52 1.12.693.427 1.213.947 1.56 1.56.347.613.52 1.36.52 2.24 0 1.92-.733 3.44-2.2 4.56-1.467 1.12-3.44 1.68-5.92 1.68Zm22.572-1.4c-.16.08-.4.187-.72.32-.293.133-.64.267-1.04.4s-.853.253-1.36.36c-.507.107-1.04.16-1.6.16-.587 0-1.147-.08-1.68-.24-.533-.16-1-.4-1.4-.72a3.85 3.85 0 0 1-.96-1.28c-.24-.507-.36-1.093-.36-1.76v-14.92h-2.88v-2.16h2.88v-7.04h2.72v7.04h4.8v2.16h-4.8v14.16c.053.773.32 1.347.8 1.72.507.347 1.08.52 1.72.52.773 0 1.453-.12 2.04-.36.587-.267.96-.453 1.12-.56l.72 2.2Zm9.919 1.4c-2.267 0-3.96-.747-5.08-2.24-1.094-1.52-1.64-3.773-1.64-6.76v-12.24h2.72v11.76c0 4.72 1.613 7.08 4.84 7.08.8 0 1.586-.133 2.36-.4a7.146 7.146 0 0 0 2.12-1.16 8.713 8.713 0 0 0 1.76-1.8c.533-.693.96-1.48 1.28-2.36v-13.12h2.72v17.32c0 .747.32 1.12.96 1.12v2.4c-.32.053-.587.08-.8.08h-.4c-.64-.027-1.16-.253-1.56-.68-.4-.427-.6-1-.6-1.72v-2.4a9.87 9.87 0 0 1-8.68 5.12Zm23.47-.4-8.48-20.84h2.8l7.16 18.32 7.2-18.32h2.64l-8.48 20.84h-2.84Zm41.328-20.84h2.68l-8.96 20.84h-2.24l-4.48-10.64-4.44 10.64h-2.24l-8.96-20.84h2.64l7.6 18.04 3.96-9.52-3.56-8.48h2.28l2.72 6.8 2.72-6.8h2.32l-3.56 8.48 3.96 9.52 7.56-18.04Zm6.819 0 6.24 8.16.32.6.32-.6 6.24-8.16h2.92l-7.96 10.48 7.96 10.36h-2.92l-6.24-8.12-.32-.56-.32.56-6.24 8.12h-2.92l7.96-10.36-7.96-10.48h2.92Zm20.836 27.24c.213.027.413.04.6.04.213.027.413.04.6.04.48 0 .853-.067 1.12-.2.293-.133.573-.427.84-.88s.56-1.107.88-1.96c.347-.853.827-2 1.44-3.44l-9.08-20.84h2.8l7.72 18.32 7.16-18.32h2.6l-10.8 26.88c-.293.773-.787 1.44-1.48 2-.667.587-1.587.88-2.76.88-.267 0-.52-.013-.76-.04-.24 0-.533-.027-.88-.08v-2.4Zm18.72-8.24 14.08-16.96h-13.76v-2.04h16.72v1.84l-14.04 16.96h14v2.04h-17v-1.84ZM132.74 408.02v2.48h-13.56v-2.48h5.68V390.9c-.213.32-.587.667-1.12 1.04-.507.373-1.08.72-1.72 1.04-.613.32-1.253.587-1.92.8-.667.213-1.253.32-1.76.32v-2.64c.613 0 1.28-.173 2-.52.747-.347 1.44-.747 2.08-1.2.667-.453 1.227-.88 1.68-1.28.453-.4.707-.667.76-.8h2.8v20.36h5.08Zm2.629 2.48c0-.907.08-1.813.24-2.72a9.91 9.91 0 0 1 .92-2.76c.48-.907 1.147-1.773 2-2.6.88-.853 2.04-1.653 3.48-2.4.774-.4 1.574-.787 2.4-1.16.854-.4 1.627-.84 2.32-1.32.72-.48 1.307-1.013 1.76-1.6.454-.613.68-1.32.68-2.12 0-.507-.12-1-.36-1.48a3.398 3.398 0 0 0-1-1.32c-.426-.4-.973-.72-1.64-.96-.64-.24-1.4-.36-2.28-.36-.88 0-1.666.133-2.36.4a8.418 8.418 0 0 0-1.84.88c-.506.347-.946.72-1.32 1.12-.373.373-.653.68-.84.92l-1.8-1.96c.16-.16.467-.453.92-.88.454-.427 1.04-.853 1.76-1.28.747-.427 1.614-.8 2.6-1.12.987-.347 2.094-.52 3.32-.52 1.227 0 2.32.173 3.28.52.96.32 1.774.773 2.44 1.36a5.922 5.922 0 0 1 1.52 2.04c.347.747.52 1.533.52 2.36 0 1.093-.24 2.04-.72 2.84a7.92 7.92 0 0 1-1.8 2.08 12.727 12.727 0 0 1-2.24 1.52c-.8.4-1.52.747-2.16 1.04-.853.373-1.693.8-2.52 1.28-.8.453-1.52.96-2.16 1.52a8.224 8.224 0 0 0-1.6 1.88c-.4.693-.6 1.467-.6 2.32h14.24v2.48h-17.16Zm32.82-9.44c1.76.293 3.16 1.093 4.2 2.4 1.066 1.307 1.6 2.92 1.6 4.84 0 1.2-.227 2.293-.68 3.28a6.676 6.676 0 0 1-1.88 2.56c-.8.72-1.774 1.267-2.92 1.64-1.12.4-2.374.6-3.76.6-2.027 0-3.8-.413-5.32-1.24-1.52-.8-2.667-1.92-3.44-3.36l1.88-1.72c.56 1.173 1.413 2.107 2.56 2.8 1.146.693 2.586 1.04 4.32 1.04 2 0 3.573-.493 4.72-1.48 1.146-.96 1.72-2.347 1.72-4.16 0-1.84-.6-3.293-1.8-4.36-1.2-1.067-2.934-1.6-5.2-1.6h-1v-2.32h1.08c2.053 0 3.626-.467 4.72-1.4 1.093-.96 1.64-2.2 1.64-3.72 0-.8-.147-1.507-.44-2.12a4.07 4.07 0 0 0-1.24-1.52c-.507-.427-1.12-.747-1.84-.96a7.741 7.741 0 0 0-2.28-.32c-1.52 0-2.867.347-4.04 1.04a6.435 6.435 0 0 0-2.6 2.8l-1.76-1.68c.32-.693.773-1.32 1.36-1.88a8.431 8.431 0 0 1 2-1.48 10.12 10.12 0 0 1 2.48-.92c.906-.24 1.84-.36 2.8-.36 1.226 0 2.346.173 3.36.52 1.04.347 1.933.84 2.68 1.48a6.165 6.165 0 0 1 1.72 2.24c.426.88.64 1.853.64 2.92 0 .8-.12 1.573-.36 2.32a6.598 6.598 0 0 1-1.04 1.96 6.337 6.337 0 0 1-1.68 1.44c-.64.373-1.374.613-2.2.72Zm21.887 14.52v-7.12h-13.32v-2.4l14.2-18.4h1.84v18.32h3.52v2.48h-3.52v7.12h-2.72Zm-10.44-9.6h10.72v-14.04l-10.72 14.04Zm29.116-7.96c1.307 0 2.52.227 3.64.68a8.504 8.504 0 0 1 2.92 1.84c.853.8 1.52 1.76 2 2.88.48 1.093.72 2.307.72 3.64 0 1.413-.267 2.693-.8 3.84-.507 1.173-1.213 2.16-2.12 2.96a9.29 9.29 0 0 1-3.12 1.92c-1.2.453-2.48.68-3.84.68-1.013 0-1.987-.133-2.92-.4a9.216 9.216 0 0 1-2.52-1.08 10.89 10.89 0 0 1-2.12-1.72 9.23 9.23 0 0 1-1.52-2.24l1.8-1.36a8.85 8.85 0 0 0 3.04 3.16c1.307.8 2.733 1.2 4.28 1.2.987 0 1.907-.173 2.76-.52.853-.32 1.6-.787 2.24-1.4a6.285 6.285 0 0 0 1.48-2.2c.373-.853.56-1.787.56-2.8 0-.987-.173-1.88-.52-2.68a6.234 6.234 0 0 0-1.44-2.12 6.451 6.451 0 0 0-2.16-1.36 7.361 7.361 0 0 0-2.68-.48c-1.253 0-2.44.28-3.56.84a6.712 6.712 0 0 0-2.68 2.36h-2.52c.027-.16.093-.52.2-1.08.107-.56.24-1.227.4-2 .16-.773.333-1.627.52-2.56l.56-2.88c.453-2.24.947-4.733 1.48-7.48h13.72v2.52h-11.68l-1.96 10.2a6.944 6.944 0 0 1 2.52-1.72c1.013-.427 2.12-.64 3.32-.64Zm33.077 3.12c0 1.36-.267 2.64-.8 3.84a9.511 9.511 0 0 1-2.12 3.08 10.068 10.068 0 0 1-3.2 2.08c-1.227.507-2.547.76-3.96.76-1.494 0-2.867-.267-4.12-.8a9.486 9.486 0 0 1-3.24-2.36c-.88-1.013-1.574-2.253-2.08-3.72-.507-1.493-.76-3.16-.76-5 0-2.88.253-5.387.76-7.52.506-2.16 1.213-3.947 2.12-5.36.933-1.44 2.04-2.507 3.32-3.2 1.28-.693 2.706-1.04 4.28-1.04 1.893 0 3.586.467 5.08 1.4 1.493.933 2.626 2.227 3.4 3.88l-1.76 1.6c-.56-1.36-1.44-2.44-2.64-3.24-1.2-.827-2.56-1.24-4.08-1.24-1.174 0-2.24.28-3.2.84-.96.56-1.787 1.373-2.48 2.44-.667 1.04-1.2 2.333-1.6 3.88-.374 1.547-.56 3.293-.56 5.24.586-1.573 1.586-2.827 3-3.76 1.44-.933 3.066-1.4 4.88-1.4 1.36 0 2.626.253 3.8.76 1.2.48 2.24 1.16 3.12 2.04a9.348 9.348 0 0 1 2.08 3.04 9.394 9.394 0 0 1 .76 3.76Zm-10 7.36c1.013 0 1.96-.187 2.84-.56a7.696 7.696 0 0 0 2.36-1.6 6.975 6.975 0 0 0 1.6-2.32c.4-.907.6-1.867.6-2.88s-.2-1.96-.6-2.84a7.362 7.362 0 0 0-1.64-2.36 7.145 7.145 0 0 0-2.36-1.56c-.88-.4-1.827-.6-2.84-.6-1.014 0-1.974.2-2.88.6a7.723 7.723 0 0 0-2.36 1.56 7.684 7.684 0 0 0-1.6 2.36 7.185 7.185 0 0 0-.56 2.84c0 1.013.2 1.96.6 2.84.4.88.933 1.667 1.6 2.36.693.667 1.48 1.2 2.36 1.6a7.49 7.49 0 0 0 2.88.56Zm28.421-18.8h-15.32v-2.52h19.64l-14.36 28.4h-3.12l13.16-25.88Zm26.447 12.92c0 1.253-.267 2.387-.8 3.4a8.277 8.277 0 0 1-2.16 2.56c-.907.72-1.974 1.28-3.2 1.68-1.2.373-2.467.56-3.8.56-1.414 0-2.72-.213-3.92-.64-1.2-.453-2.24-1.053-3.12-1.8a8.492 8.492 0 0 1-2-2.68 7.472 7.472 0 0 1-.72-3.24c0-.907.16-1.747.48-2.52a7.648 7.648 0 0 1 1.32-2.04 8.326 8.326 0 0 1 1.8-1.56 9.467 9.467 0 0 1 2.08-1.04 10.6 10.6 0 0 1-1.8-.96 7.978 7.978 0 0 1-1.48-1.36 6.79 6.79 0 0 1-1.04-1.68 5.33 5.33 0 0 1-.36-1.96c0-1.173.266-2.2.8-3.08a7.593 7.593 0 0 1 2.04-2.28 9.737 9.737 0 0 1 2.84-1.4c1.066-.32 2.133-.48 3.2-.48 1.066 0 2.12.16 3.16.48a9.135 9.135 0 0 1 2.84 1.4 6.983 6.983 0 0 1 2.08 2.24c.533.907.8 1.933.8 3.08 0 .693-.134 1.347-.4 1.96a6.061 6.061 0 0 1-1.04 1.72c-.427.507-.934.96-1.52 1.36a10.6 10.6 0 0 1-1.8.96c.773.267 1.506.64 2.2 1.12a7.996 7.996 0 0 1 1.8 1.6 6.86 6.86 0 0 1 1.24 2.08c.32.773.48 1.613.48 2.52Zm-2.76-.2c0-.96-.214-1.8-.64-2.52a5.982 5.982 0 0 0-1.68-1.88 7.9 7.9 0 0 0-2.32-1.16 8.414 8.414 0 0 0-2.52-.4c-.88 0-1.734.147-2.56.44a6.99 6.99 0 0 0-2.24 1.2 5.728 5.728 0 0 0-1.6 1.88c-.4.747-.6 1.573-.6 2.48 0 .933.213 1.773.64 2.52.426.72.973 1.333 1.64 1.84a7.993 7.993 0 0 0 2.28 1.16c.853.267 1.706.4 2.56.4.853 0 1.693-.133 2.52-.4a8.066 8.066 0 0 0 2.28-1.2 6.335 6.335 0 0 0 1.6-1.88c.426-.747.64-1.573.64-2.48Zm-13.24-12.96c0 .773.186 1.467.56 2.08a5.555 5.555 0 0 0 1.44 1.52c.586.4 1.24.707 1.96.92.746.213 1.466.32 2.16.32.72 0 1.44-.107 2.16-.32a6.38 6.38 0 0 0 1.96-.96 5.17 5.17 0 0 0 1.48-1.56c.373-.613.56-1.307.56-2.08 0-.747-.174-1.413-.52-2a4.507 4.507 0 0 0-1.4-1.52 5.842 5.842 0 0 0-1.96-.96 8.418 8.418 0 0 0-2.32-.32c-.774 0-1.534.12-2.28.36-.72.213-1.36.533-1.92.96-.56.4-1.014.907-1.36 1.52a4.068 4.068 0 0 0-.52 2.04Zm19.431 7.96c0-1.36.253-2.627.76-3.8a9.894 9.894 0 0 1 2.16-3.12 10.046 10.046 0 0 1 3.2-2.08c1.226-.507 2.546-.76 3.96-.76 1.493 0 2.866.28 4.12.84a8.685 8.685 0 0 1 3.2 2.32c.906 1.013 1.613 2.267 2.12 3.76.506 1.467.76 3.12.76 4.96 0 2.88-.254 5.4-.76 7.56-.507 2.133-1.227 3.907-2.16 5.32-.907 1.44-2.014 2.507-3.32 3.2-1.28.693-2.694 1.04-4.24 1.04-1.867 0-3.56-.467-5.08-1.4-1.494-.933-2.627-2.227-3.4-3.88l1.76-1.6c.56 1.36 1.44 2.44 2.64 3.24a7.136 7.136 0 0 0 4.08 1.24c1.173 0 2.24-.28 3.2-.84.96-.56 1.786-1.373 2.48-2.44.693-1.04 1.226-2.32 1.6-3.84.373-1.547.573-3.307.6-5.28-.614 1.573-1.64 2.827-3.08 3.76-1.414.933-3.027 1.4-4.84 1.4-1.36 0-2.64-.24-3.84-.72a10.175 10.175 0 0 1-3.08-2.04 9.804 9.804 0 0 1-2.08-3.08 9.377 9.377 0 0 1-.76-3.76Zm10.04-7.36c-1.014 0-1.974.2-2.88.6a7.723 7.723 0 0 0-2.36 1.56 7.684 7.684 0 0 0-1.6 2.36c-.4.88-.6 1.827-.6 2.84s.2 1.973.6 2.88c.4.88.933 1.653 1.6 2.32.693.667 1.48 1.2 2.36 1.6a7.49 7.49 0 0 0 2.88.56 7.498 7.498 0 0 0 2.88-.56 7.696 7.696 0 0 0 2.36-1.6 7.281 7.281 0 0 0 1.56-2.32c.4-.907.6-1.867.6-2.88 0-.987-.2-1.92-.6-2.8a6.871 6.871 0 0 0-1.6-2.36 6.867 6.867 0 0 0-2.36-1.6c-.88-.4-1.827-.6-2.84-.6Zm34.237 8.72c0 1.76-.253 3.387-.76 4.88-.507 1.467-1.213 2.747-2.12 3.84a9.639 9.639 0 0 1-3.16 2.52c-1.227.587-2.56.88-4 .88s-2.773-.293-4-.88a10.074 10.074 0 0 1-3.2-2.52c-.88-1.093-1.573-2.373-2.08-3.84-.507-1.493-.76-3.12-.76-4.88 0-1.76.253-3.373.76-4.84.507-1.493 1.2-2.773 2.08-3.84a9.847 9.847 0 0 1 3.2-2.56c1.227-.613 2.56-.92 4-.92s2.773.307 4 .92a9.433 9.433 0 0 1 3.16 2.56c.907 1.067 1.613 2.347 2.12 3.84.507 1.467.76 3.08.76 4.84Zm-2.76 0c0-1.44-.187-2.747-.56-3.92-.347-1.173-.84-2.173-1.48-3a6.523 6.523 0 0 0-2.32-1.96c-.88-.48-1.853-.72-2.92-.72-1.093 0-2.093.24-3 .72-.88.453-1.64 1.107-2.28 1.96-.64.827-1.147 1.827-1.52 3-.347 1.173-.52 2.48-.52 3.92s.173 2.747.52 3.92c.373 1.173.88 2.187 1.52 3.04.64.827 1.4 1.467 2.28 1.92.907.453 1.907.68 3 .68 1.067 0 2.04-.227 2.92-.68a6.68 6.68 0 0 0 2.32-1.92c.64-.853 1.133-1.867 1.48-3.04.373-1.173.56-2.48.56-3.92Zm8.412 14.96.68-3.36h-.92v-3.8h2.64v3.8l-1 3.36h-1.4Zm8.145-3.24v-3.92h2.36v3.92h-2.36Zm11.138-8.08c0-1.76.266-3.16.8-4.2.56-1.04 1.426-1.907 2.6-2.6.533-.32 1.12-.64 1.76-.96.64-.347 1.24-.76 1.8-1.24a6.299 6.299 0 0 0 1.4-1.72c.4-.667.6-1.493.6-2.48 0-.88-.16-1.64-.48-2.28a4.538 4.538 0 0 0-1.2-1.6 4.81 4.81 0 0 0-1.76-1 6.293 6.293 0 0 0-2-.32c-1.44 0-2.734.4-3.88 1.2-1.12.773-1.974 1.733-2.56 2.88l-1.88-1.2a8.24 8.24 0 0 1 1.44-2.2 8.59 8.59 0 0 1 1.96-1.6 8.717 8.717 0 0 1 2.36-1c.853-.24 1.72-.36 2.6-.36.986 0 1.946.16 2.88.48a6.72 6.72 0 0 1 2.48 1.4c.746.64 1.333 1.44 1.76 2.4.453.96.68 2.08.68 3.36 0 1.067-.16 1.973-.48 2.72a5.988 5.988 0 0 1-1.2 1.88c-.507.533-1.094 1-1.76 1.4-.64.373-1.294.747-1.96 1.12-.48.267-.934.547-1.36.84a4.408 4.408 0 0 0-1.16 1.08c-.347.427-.627.96-.84 1.6-.187.64-.28 1.44-.28 2.4h-2.32Zm.04 8.08v-4.28h2.36v4.28h-2.36Zm16.503-9.12v-19.56h2.72v19.56h-2.72Zm0 9.12v-4.48h2.72v4.48h-2.72Zm9.878-21.84 1.72-2.48-2.72-.88.44-1.44 2.76 1.04v-2.92h1.48v2.92l2.76-1.04.44 1.44-2.72.88 1.76 2.48-1.28.88-1.68-2.6-1.72 2.6-1.24-.88Zm32.212 21.84-3.28-3.44a12.677 12.677 0 0 1-3.88 2.84c-1.44.667-3.014 1-4.72 1a11.19 11.19 0 0 1-3.56-.56c-1.094-.373-2.054-.893-2.88-1.56a8.11 8.11 0 0 1-1.92-2.44c-.48-.96-.72-2.013-.72-3.16 0-.96.16-1.84.48-2.64.32-.8.76-1.533 1.32-2.2a13.1 13.1 0 0 1 1.92-1.92c.72-.587 1.48-1.147 2.28-1.68a47.139 47.139 0 0 1-1.84-2.08 20.64 20.64 0 0 1-1.2-1.68 7.1 7.1 0 0 1-.64-1.52c-.134-.48-.2-.973-.2-1.48 0-.88.173-1.693.52-2.44.373-.773.88-1.44 1.52-2a7.2 7.2 0 0 1 2.24-1.32c.88-.32 1.826-.48 2.84-.48.933 0 1.8.133 2.6.4a6.09 6.09 0 0 1 2.08 1.16 5.033 5.033 0 0 1 1.96 4.04c0 .827-.174 1.587-.52 2.28a7.96 7.96 0 0 1-1.32 1.92c-.56.613-1.214 1.2-1.96 1.76a47.05 47.05 0 0 1-2.4 1.68l7.96 8.32a14.68 14.68 0 0 0 1.24-3.28c.32-1.2.48-2.453.48-3.76h2.32a17.755 17.755 0 0 1-.68 4.68 14.865 14.865 0 0 1-1.76 4.04l5.32 5.52h-3.6Zm-11.6-1.8c1.36 0 2.613-.28 3.76-.84a10.11 10.11 0 0 0 3.04-2.4l-8.6-9.08c-1.414.987-2.587 2.027-3.52 3.12-.934 1.067-1.4 2.32-1.4 3.76 0 .88.186 1.667.56 2.36.4.667.92 1.24 1.56 1.72.64.453 1.36.8 2.16 1.04.8.213 1.613.32 2.44.32Zm-4.72-20.8c0 .32.04.64.12.96.106.32.293.693.56 1.12.266.4.613.88 1.04 1.44.453.533 1.04 1.173 1.76 1.92 1.546-1.013 2.8-1.96 3.76-2.84.986-.907 1.48-1.933 1.48-3.08 0-1.04-.387-1.893-1.16-2.56-.774-.667-1.76-1-2.96-1-.667 0-1.28.107-1.84.32a4.835 4.835 0 0 0-1.48.88c-.4.373-.72.8-.96 1.28-.214.48-.32 1-.32 1.56Z" fill="#494846"/></svg>