<svg width="784" height="450" viewBox="0 0 784 450" fill="none" xmlns="http://www.w3.org/2000/svg">
<g clip-path="url(#clip0_118_4524)">
<path d="M58.8197 0C26.4476 0 0.0947266 26.3397 0.0947266 58.6957C0.0947266 91.0516 26.4476 117.391 58.8197 117.391C91.1919 117.391 117.545 91.0516 117.545 58.6957C117.545 26.3397 91.1919 0 58.8197 0ZM58.8197 112.5C29.1391 112.5 4.98848 88.3614 4.98848 58.6957C4.98848 29.0299 29.1391 4.8913 58.8197 4.8913C88.5003 4.8913 112.651 29.0299 112.651 58.6957C112.651 88.3614 88.5003 112.5 58.8197 112.5Z" fill="#1B1B1B"/>
<path d="M44.1381 29.3479H34.3506V48.9131H44.1381V29.3479Z" fill="#1B1B1B"/>
<path d="M83.2885 29.3479H73.501V48.9131H83.2885V29.3479Z" fill="#1B1B1B"/>
<path d="M58.8201 92.9349C43.9676 92.9349 31.9045 80.8778 31.9045 66.0327H27.0107C27.0107 83.568 41.276 97.8262 58.8201 97.8262C76.3642 97.8262 90.6295 83.568 90.6295 66.0327H85.7357C85.7357 80.8778 73.6726 92.9349 58.8201 92.9349Z" fill="#1B1B1B"/>
<path d="M225.207 0C192.835 0 166.482 26.3397 166.482 58.6957C166.482 91.0516 192.835 117.391 225.207 117.391C257.58 117.391 283.932 91.0516 283.932 58.6957C283.932 26.3397 257.58 0 225.207 0ZM225.207 112.5C195.527 112.5 171.376 88.3614 171.376 58.6957C171.376 29.0299 195.527 4.8913 225.207 4.8913C254.888 4.8913 279.039 29.0299 279.039 58.6957C279.039 88.3614 254.888 112.5 225.207 112.5Z" fill="#1B1B1B"/>
<path d="M210.526 29.3479H200.738V48.9131H210.526V29.3479Z" fill="#1B1B1B"/>
<path d="M249.676 29.3479H239.889V48.9131H249.676V29.3479Z" fill="#1B1B1B"/>
<path d="M193.398 66.0326C193.398 83.5679 207.664 97.826 225.208 97.826C242.752 97.826 257.017 83.5679 257.017 66.0326V63.5869H193.398V66.0326ZM252.026 68.4782C250.778 82.1739 239.228 92.9347 225.208 92.9347C211.187 92.9347 199.638 82.1739 198.39 68.4782H252.001H252.026Z" fill="#1B1B1B"/>
<path d="M391.595 0C359.223 0 332.87 26.3397 332.87 58.6957C332.87 91.0516 359.223 117.391 391.595 117.391C423.967 117.391 450.32 91.0516 450.32 58.6957C450.32 26.3397 423.967 0 391.595 0ZM391.595 112.5C361.915 112.5 337.764 88.3614 337.764 58.6957C337.764 29.0299 361.915 4.8913 391.595 4.8913C421.276 4.8913 445.426 29.0299 445.426 58.6957C445.426 88.3614 421.276 112.5 391.595 112.5Z" fill="#1B1B1B"/>
<path d="M391.596 92.9349C376.743 92.9349 364.68 80.8778 364.68 66.0327H359.786C359.786 83.568 374.051 97.8262 391.596 97.8262C409.14 97.8262 423.405 83.568 423.405 66.0327H418.511C418.511 80.8778 406.448 92.9349 391.596 92.9349Z" fill="#1B1B1B"/>
<path d="M372.021 39.1303C376.058 39.1303 379.361 42.4319 379.361 46.4673H384.255C384.255 39.7173 378.774 34.239 372.021 34.239C365.267 34.239 359.786 39.7173 359.786 46.4673H364.68C364.68 42.4319 367.983 39.1303 372.021 39.1303Z" fill="#1B1B1B"/>
<path d="M411.17 34.239C404.417 34.239 398.936 39.7173 398.936 46.4673H403.829C403.829 42.4319 407.133 39.1303 411.17 39.1303C415.207 39.1303 418.511 42.4319 418.511 46.4673H423.404C423.404 39.7173 417.923 34.239 411.17 34.239Z" fill="#1B1B1B"/>
<path d="M557.982 0C525.61 0 499.257 26.3397 499.257 58.6957C499.257 91.0516 525.61 117.391 557.982 117.391C590.354 117.391 616.707 91.0516 616.707 58.6957C616.707 26.3397 590.354 0 557.982 0ZM557.982 112.5C528.301 112.5 504.151 88.3614 504.151 58.6957C504.151 29.0299 528.301 4.8913 557.982 4.8913C587.662 4.8913 611.813 29.0299 611.813 58.6957C611.813 88.3614 587.662 112.5 557.982 112.5Z" fill="#1B1B1B"/>
<path d="M526.173 66.0326C526.173 83.5679 540.438 97.826 557.982 97.826C575.526 97.826 589.792 83.5679 589.792 66.0326V63.5869H526.173V66.0326ZM584.8 68.4782C583.552 82.1739 572.003 92.9347 557.982 92.9347C543.962 92.9347 532.412 82.1739 531.164 68.4782H584.776H584.8Z" fill="#1B1B1B"/>
<path d="M538.407 39.1303C542.445 39.1303 545.748 42.4319 545.748 46.4673H550.642C550.642 39.7173 545.161 34.239 538.407 34.239C531.654 34.239 526.173 39.7173 526.173 46.4673H531.067C531.067 42.4319 534.37 39.1303 538.407 39.1303Z" fill="#1B1B1B"/>
<path d="M577.557 34.239C570.803 34.239 565.322 39.7173 565.322 46.4673H570.216C570.216 42.4319 573.519 39.1303 577.557 39.1303C581.594 39.1303 584.897 42.4319 584.897 46.4673H589.791C589.791 39.7173 584.31 34.239 577.557 34.239Z" fill="#1B1B1B"/>
<path d="M724.37 0C691.997 0 665.645 26.3397 665.645 58.6957C665.645 91.0516 691.997 117.391 724.37 117.391C756.742 117.391 783.095 91.0516 783.095 58.6957C783.095 26.3397 756.742 0 724.37 0ZM724.37 112.5C694.689 112.5 670.538 88.3614 670.538 58.6957C670.538 29.0299 694.689 4.8913 724.37 4.8913C754.05 4.8913 778.201 29.0299 778.201 58.6957C778.201 88.3614 754.05 112.5 724.37 112.5Z" fill="#1B1B1B"/>
<path d="M724.37 92.9349C709.517 92.9349 697.454 80.8778 697.454 66.0327H692.561C692.561 83.568 706.826 97.8262 724.37 97.8262C741.914 97.8262 756.179 83.568 756.179 66.0327H751.286C751.286 80.8778 739.222 92.9349 724.37 92.9349Z" fill="#1B1B1B"/>
<path d="M743.944 41.576C739.907 41.576 736.604 38.2743 736.604 34.239H731.71C731.71 40.989 737.191 46.4673 743.944 46.4673C750.698 46.4673 756.179 40.989 756.179 34.239H751.285C751.285 38.2743 747.982 41.576 743.944 41.576Z" fill="#1B1B1B"/>
<path d="M704.795 46.4673C711.548 46.4673 717.029 40.989 717.029 34.239H712.136C712.136 38.2743 708.832 41.576 704.795 41.576C700.758 41.576 697.454 38.2743 697.454 34.239H692.561C692.561 40.989 698.042 46.4673 704.795 46.4673Z" fill="#1B1B1B"/>
<path d="M58.8197 166.304C26.4476 166.304 0.0947266 192.644 0.0947266 225C0.0947266 257.356 26.4476 283.696 58.8197 283.696C91.1919 283.696 117.545 257.356 117.545 225C117.545 192.644 91.1919 166.304 58.8197 166.304ZM58.8197 278.804C29.1391 278.804 4.98848 254.666 4.98848 225C4.98848 195.334 29.1391 171.196 58.8197 171.196C88.5003 171.196 112.651 195.334 112.651 225C112.651 254.666 88.5003 278.804 58.8197 278.804Z" fill="#1B1B1B"/>
<path d="M35.4521 214.949L50.1334 207.612C50.9653 207.196 51.4792 206.34 51.4792 205.435C51.4792 204.53 50.9653 203.65 50.1334 203.258L35.4521 195.921L33.2744 200.299L43.5758 205.459L33.2744 210.62L35.4521 214.997V214.949Z" fill="#1B1B1B"/>
<path d="M83.2885 195.652H73.501V215.218H83.2885V195.652Z" fill="#1B1B1B"/>
<path d="M58.8201 259.239C43.9676 259.239 31.9045 247.182 31.9045 232.337H27.0107C27.0107 249.872 41.276 264.131 58.8201 264.131C76.3642 264.131 90.6295 249.872 90.6295 232.337H85.7357C85.7357 247.182 73.6726 259.239 58.8201 259.239Z" fill="#1B1B1B"/>
<path d="M225.207 166.304C192.835 166.304 166.482 192.644 166.482 225C166.482 257.356 192.835 283.696 225.207 283.696C257.58 283.696 283.932 257.356 283.932 225C283.932 192.644 257.58 166.304 225.207 166.304ZM225.207 278.804C195.527 278.804 171.376 254.666 171.376 225C171.376 195.334 195.527 171.196 225.207 171.196C254.888 171.196 279.039 195.334 279.039 225C279.039 254.666 254.888 278.804 225.207 278.804Z" fill="#1B1B1B"/>
<path d="M199.393 214.949L214.074 207.612C214.906 207.196 215.42 206.34 215.42 205.435C215.42 204.53 214.906 203.65 214.074 203.258L199.393 195.921L197.215 200.299L207.516 205.459L197.215 210.62L199.393 214.997V214.949Z" fill="#1B1B1B"/>
<path d="M236.341 207.611L251.022 214.948L253.2 210.571L242.899 205.41L253.2 200.25L251.022 195.872L236.341 203.209C235.509 203.625 234.995 204.481 234.995 205.386C234.995 206.291 235.509 207.171 236.341 207.563V207.611Z" fill="#1B1B1B"/>
<path d="M193.398 232.337C193.398 249.872 207.664 264.13 225.208 264.13C242.752 264.13 257.017 249.872 257.017 232.337V229.891H193.398V232.337ZM252.026 234.783C250.778 248.478 239.228 259.239 225.208 259.239C211.187 259.239 199.638 248.478 198.39 234.783H252.001H252.026Z" fill="#1B1B1B"/>
<path d="M391.595 166.304C359.223 166.304 332.87 192.644 332.87 225C332.87 257.356 359.223 283.696 391.595 283.696C423.967 283.696 450.32 257.356 450.32 225C450.32 192.644 423.967 166.304 391.595 166.304ZM391.595 171.196C407.133 171.196 421.129 177.823 430.965 188.364C430.892 188.364 352.298 188.364 352.225 188.364C362.061 177.823 376.057 171.196 391.595 171.196ZM427.858 193.207L424.114 215.609C423.918 216.783 422.891 217.663 421.692 217.663H400.624C399.425 217.663 398.397 216.807 398.202 215.609L394.458 193.207H427.833H427.858ZM388.708 193.207L384.964 215.609C384.768 216.783 383.741 217.663 382.542 217.663H361.156C360.03 217.663 359.052 216.905 358.831 216.025L355.308 193.207H388.708ZM391.595 278.804C361.915 278.804 337.764 254.666 337.764 225C337.764 212.038 342.388 200.128 350.047 190.834C350.047 190.932 350.023 191.03 350.047 191.152L354.06 217.003C354.868 220.28 357.804 222.554 361.18 222.554H382.566C386.163 222.554 389.222 219.987 389.809 216.416L391.62 205.631L393.43 216.416C394.018 219.962 397.076 222.554 400.673 222.554H421.741C425.338 222.554 428.396 219.987 428.983 216.416L433.192 191.152C433.192 191.152 433.192 190.932 433.192 190.81C440.875 200.103 445.475 212.014 445.475 224.976C445.475 254.641 421.325 278.78 391.644 278.78L391.595 278.804Z" fill="#1B1B1B"/>
<path d="M391.596 259.239C376.743 259.239 364.68 247.182 364.68 232.337H359.786C359.786 249.872 374.051 264.131 391.596 264.131C409.14 264.131 423.405 249.872 423.405 232.337H418.511C418.511 247.182 406.448 259.239 391.596 259.239Z" fill="#1B1B1B"/>
<path d="M557.982 332.609C525.61 332.609 499.257 358.948 499.257 391.304C499.257 423.66 525.61 450 557.982 450C590.354 450 616.707 423.66 616.707 391.304C616.707 358.948 590.354 332.609 557.982 332.609ZM557.982 445.109C528.301 445.109 504.151 420.97 504.151 391.304C504.151 361.639 528.301 337.5 557.982 337.5C587.662 337.5 611.813 361.639 611.813 391.304C611.813 420.97 587.662 445.109 557.982 445.109Z" fill="#1B1B1B"/>
<path d="M557.982 421.459C571.171 421.459 582.647 413.144 587.198 400.255L582.598 398.617C578.683 409.671 569.262 416.543 557.982 416.543C546.702 416.543 537.282 409.671 533.367 398.617L528.767 400.255C533.318 413.119 544.794 421.459 557.982 421.459Z" fill="#1B1B1B"/>
<path d="M529.746 364.718L527.557 369.092L547.121 378.872L549.31 374.497L529.746 364.718Z" fill="#1B1B1B"/>
<path d="M586.254 364.604L566.689 374.384L568.878 378.759L588.443 368.979L586.254 364.604Z" fill="#1B1B1B"/>
<path d="M724.37 332.609C691.997 332.609 665.645 358.948 665.645 391.304C665.645 423.66 691.997 450 724.37 450C756.742 450 783.095 423.66 783.095 391.304C783.095 358.948 756.742 332.609 724.37 332.609ZM724.37 445.109C694.689 445.109 670.538 420.97 670.538 391.304C670.538 361.639 694.689 337.5 724.37 337.5C754.05 337.5 778.201 361.639 778.201 391.304C778.201 420.97 754.05 445.109 724.37 445.109Z" fill="#1B1B1B"/>
<path d="M698.555 381.253L713.236 373.916C714.068 373.5 714.582 372.644 714.582 371.739C714.582 370.834 714.068 369.954 713.236 369.563L698.555 362.226L696.377 366.603L706.678 371.764L696.377 376.924L698.555 381.302V381.253Z" fill="#1B1B1B"/>
<path d="M735.503 373.916L750.184 381.253L752.362 376.875L742.061 371.715L752.362 366.554L750.184 362.177L735.503 369.514C734.671 369.929 734.157 370.785 734.157 371.69C734.157 372.595 734.671 373.476 735.503 373.867V373.916Z" fill="#1B1B1B"/>
<path d="M742.207 409.133L734.157 417.18L726.107 409.133C725.642 408.669 725.03 408.424 724.369 408.424C723.709 408.424 723.097 408.693 722.632 409.133L714.582 417.18L706.507 409.133C705.553 408.18 704.011 408.18 703.057 409.133L693.27 418.916L696.72 422.389L704.794 414.343L712.869 422.389C713.358 422.853 713.97 423.098 714.606 423.098C715.242 423.098 715.854 422.853 716.344 422.389L724.394 414.343L732.444 422.389C733.374 423.318 734.989 423.318 735.894 422.389L743.944 414.343L751.995 422.389L755.445 418.94L745.657 409.158C744.727 408.228 743.112 408.228 742.207 409.158V409.133Z" fill="#1B1B1B"/>
<path d="M391.595 332.609C359.223 332.609 332.87 358.948 332.87 391.304C332.87 423.66 359.223 450 391.595 450C423.967 450 450.32 423.66 450.32 391.304C450.32 358.948 423.967 332.609 391.595 332.609ZM391.595 445.109C361.915 445.109 337.764 420.97 337.764 391.304C337.764 361.639 361.915 337.5 391.595 337.5C421.276 337.5 445.426 361.639 445.426 391.304C445.426 420.97 421.276 445.109 391.595 445.109Z" fill="#1B1B1B"/>
<path d="M368.228 381.253L382.909 373.916C383.741 373.5 384.255 372.644 384.255 371.739C384.255 370.834 383.741 369.978 382.909 369.563L368.228 362.226L366.05 366.603L376.351 371.764L366.05 376.924L368.228 381.302V381.253Z" fill="#1B1B1B"/>
<path d="M416.064 361.957H406.276V381.522H416.064V361.957Z" fill="#1B1B1B"/>
<path d="M391.595 415.761C378.382 415.761 366.784 406.125 364.655 393.334L359.835 394.141C361.67 405.098 369.353 414.049 379.385 418.182V427.989C379.385 434.739 384.866 440.217 391.62 440.217C398.373 440.217 403.854 434.739 403.854 427.989V418.182C413.862 414.049 421.57 405.098 423.405 394.141L418.584 393.334C416.431 406.1 404.857 415.761 391.644 415.761H391.595ZM398.936 427.989C398.936 432.024 395.633 435.326 391.595 435.326C387.558 435.326 384.255 432.024 384.255 427.989V419.771C385.845 420.138 387.485 420.407 389.149 420.554V428.013H394.042V420.554C395.706 420.432 397.346 420.163 398.936 419.771V427.989Z" fill="#1B1B1B"/>
<path d="M557.982 166.304C525.61 166.304 499.257 192.644 499.257 225C499.257 257.356 525.61 283.696 557.982 283.696C590.354 283.696 616.707 257.356 616.707 225C616.707 192.644 590.354 166.304 557.982 166.304ZM557.982 278.804C528.301 278.804 504.151 254.666 504.151 225C504.151 195.334 528.301 171.196 557.982 171.196C587.662 171.196 611.813 195.334 611.813 225C611.813 254.666 587.662 278.804 557.982 278.804Z" fill="#1B1B1B"/>
<path d="M526.173 232.337C526.173 249.872 540.438 264.13 557.982 264.13C575.526 264.13 589.792 249.872 589.792 232.337V229.891H526.173V232.337ZM584.8 234.783C583.552 248.478 572.003 259.239 557.982 259.239C543.962 259.239 532.412 248.478 531.164 234.783H584.776H584.8Z" fill="#1B1B1B"/>
<path d="M536.67 216.954C537.134 217.418 537.746 217.663 538.407 217.663C539.068 217.663 539.679 217.394 540.144 216.954L549.124 207.978C551.62 205.508 552.354 201.766 551.008 198.465C549.711 195.285 546.824 193.28 543.301 193.207C541.563 193.207 539.899 193.671 538.407 194.552C536.914 193.671 535.201 193.207 533.342 193.207C529.965 193.255 527.078 195.261 525.781 198.465C524.435 201.766 525.194 205.484 527.665 207.978L536.645 216.954H536.67ZM530.332 200.299C530.601 199.639 531.433 198.147 533.513 198.098C535.03 198.098 536.131 198.783 536.767 199.37C537.697 200.201 539.116 200.201 540.046 199.37C540.682 198.783 541.784 198.098 543.374 198.098C545.38 198.122 546.212 199.639 546.457 200.299C546.922 201.473 546.971 203.185 545.65 204.505L538.382 211.769L531.115 204.505C529.794 203.185 529.818 201.448 530.308 200.299H530.332Z" fill="#1B1B1B"/>
<path d="M582.451 193.207C580.714 193.207 579.05 193.671 577.557 194.552C576.065 193.671 574.352 193.207 572.492 193.207C569.115 193.255 566.228 195.261 564.931 198.465C563.61 201.766 564.344 205.484 566.815 207.978L575.795 216.954C576.26 217.418 576.872 217.663 577.533 217.663C578.193 217.663 578.805 217.394 579.27 216.954L588.25 207.978C590.721 205.508 591.48 201.766 590.134 198.465C588.837 195.285 585.95 193.28 582.426 193.207H582.451ZM584.8 204.505L577.557 211.769L570.314 204.505C568.993 203.185 569.018 201.448 569.507 200.299C569.776 199.639 570.608 198.147 572.688 198.098C573.887 198.098 575.037 198.538 575.942 199.37C576.872 200.201 578.291 200.201 579.221 199.37C580.126 198.538 581.276 198.098 582.549 198.098C584.555 198.122 585.387 199.639 585.632 200.299C586.097 201.473 586.146 203.185 584.824 204.505H584.8Z" fill="#1B1B1B"/>
<path d="M724.37 166.304C691.997 166.304 665.645 192.644 665.645 225C665.645 257.356 691.997 283.696 724.37 283.696C756.742 283.696 783.095 257.356 783.095 225C783.095 192.644 756.742 166.304 724.37 166.304ZM724.37 278.804C694.689 278.804 670.538 254.666 670.538 225C670.538 195.334 694.689 171.196 724.37 171.196C754.05 171.196 778.201 195.334 778.201 225C778.201 254.666 754.05 278.804 724.37 278.804Z" fill="#1B1B1B"/>
<path d="M724.369 256.794C737.558 256.794 749.034 248.478 753.585 235.59C753.854 234.832 753.732 234 753.267 233.364C752.802 232.704 752.068 232.337 751.26 232.337H697.429C696.646 232.337 695.888 232.728 695.423 233.364C694.958 234 694.86 234.832 695.105 235.59C699.656 248.454 711.132 256.794 724.32 256.794H724.369ZM747.615 237.228C743.137 246.375 734.499 251.902 724.369 251.902C714.239 251.902 705.626 246.375 701.124 237.228H747.59H747.615Z" fill="#1B1B1B"/>
<path d="M743.944 207.88C739.907 207.88 736.604 204.579 736.604 200.543H731.71C731.71 207.293 737.191 212.772 743.944 212.772C750.698 212.772 756.179 207.293 756.179 200.543H751.285C751.285 204.579 747.982 207.88 743.944 207.88Z" fill="#1B1B1B"/>
<path d="M704.795 212.772C711.548 212.772 717.029 207.293 717.029 200.543H712.136C712.136 204.579 708.832 207.88 704.795 207.88C700.758 207.88 697.454 204.579 697.454 200.543H692.561C692.561 207.293 698.042 212.772 704.795 212.772Z" fill="#1B1B1B"/>
<path d="M763.52 200.543H758.626V215.217H763.52V200.543Z" fill="#1B1B1B"/>
<path d="M770.861 200.543H765.967V215.217H770.861V200.543Z" fill="#1B1B1B"/>
<path d="M225.207 332.609C192.835 332.609 166.482 358.948 166.482 391.304C166.482 423.66 192.835 450 225.207 450C257.58 450 283.932 423.66 283.932 391.304C283.932 358.948 257.58 332.609 225.207 332.609ZM225.207 445.109C195.527 445.109 171.376 420.97 171.376 391.304C171.376 361.639 195.527 337.5 225.207 337.5C254.888 337.5 279.039 361.639 279.039 391.304C279.039 420.97 254.888 445.109 225.207 445.109Z" fill="#1B1B1B"/>
<path d="M200.445 380.397L205.633 375.188L210.82 380.397L214.295 376.924L209.083 371.739L214.295 366.554L210.82 363.082L205.633 368.291L200.445 363.082L196.971 366.554L202.183 371.739L196.971 376.924L200.445 380.397Z" fill="#1B1B1B"/>
<path d="M239.595 380.397L244.782 375.188L249.969 380.397L253.444 376.924L248.232 371.739L253.444 366.554L249.969 363.082L244.782 368.291L239.595 363.082L236.12 366.554L241.332 371.739L236.12 376.924L239.595 380.397Z" fill="#1B1B1B"/>
<path d="M193.398 398.641C193.398 416.177 207.664 430.435 225.208 430.435C242.752 430.435 257.017 416.177 257.017 398.641V396.196H193.398V398.641ZM252.026 401.087C250.778 414.783 239.228 425.544 225.208 425.544C211.187 425.544 199.638 414.783 198.39 401.087H252.001H252.026Z" fill="#1B1B1B"/>
<path d="M58.8197 332.609C26.4476 332.609 0.0947266 358.948 0.0947266 391.304C0.0947266 423.66 26.4476 450 58.8197 450C91.1919 450 117.545 423.66 117.545 391.304C117.545 358.948 91.1919 332.609 58.8197 332.609ZM58.8197 445.109C29.1391 445.109 4.98848 420.97 4.98848 391.304C4.98848 361.639 29.1391 337.5 58.8197 337.5C88.5003 337.5 112.651 361.639 112.651 391.304C112.651 420.97 88.5003 445.109 58.8197 445.109Z" fill="#1B1B1B"/>
<path d="M58.8201 425.543C43.9676 425.543 31.9045 413.486 31.9045 398.641H27.0107C27.0107 416.176 41.276 430.435 58.8201 430.435C76.3642 430.435 90.6295 416.176 90.6295 398.641H85.7357C85.7357 413.486 73.6726 425.543 58.8201 425.543Z" fill="#1B1B1B"/>
<path d="M27.0838 383.38C26.8636 384.31 27.1817 385.288 27.9157 385.875C28.6498 386.486 29.6775 386.584 30.5339 386.144L39.2203 381.791L47.9067 386.144C49.1057 386.78 50.0844 386.217 50.5248 385.875C51.2589 385.288 51.6015 384.31 51.3568 383.38L49.2525 374.943L55.6143 368.584C56.2261 367.973 56.4707 367.043 56.2505 366.212C56.0058 365.356 55.3452 364.696 54.4888 364.5L45.6311 362.274L41.2512 355.72C40.3458 354.35 38.0947 354.35 37.1894 355.72L32.8095 362.274L23.9518 364.5C23.0954 364.72 22.4347 365.38 22.19 366.212C21.9453 367.068 22.19 367.973 22.8262 368.584L29.1881 374.943L27.0838 383.38ZM34.9382 366.774C35.5255 366.628 36.0393 366.261 36.3819 365.747L39.2447 361.467L42.1076 365.747C42.4502 366.261 42.964 366.628 43.5512 366.774L49.1546 368.168L44.8726 372.448C44.2608 373.06 44.0162 373.94 44.2364 374.772L45.3864 379.394L40.3458 376.875C40.0033 376.704 39.6362 376.606 39.2447 376.606C38.8532 376.606 38.4862 376.704 38.1437 376.875L33.1031 379.394L34.2531 374.772C34.4489 373.94 34.2287 373.06 33.6169 372.448L29.3349 368.168L34.9382 366.774Z" fill="#1B1B1B"/>
<path d="M93.6636 364.476L84.8059 362.25L80.426 355.696C79.5206 354.326 77.2695 354.326 76.3642 355.696L71.9843 362.25L63.1266 364.476C62.2702 364.696 61.6095 365.356 61.3648 366.187C61.1201 367.043 61.3648 367.948 62.001 368.56L68.3629 374.918L66.2586 383.356C66.0384 384.285 66.3565 385.264 67.0905 385.851C67.849 386.462 68.8523 386.56 69.7087 386.12L78.3951 381.766L87.0815 386.12C88.2805 386.853 89.2592 386.193 89.6996 385.851C90.4337 385.264 90.7763 384.285 90.5316 383.356L88.4273 374.918L94.7891 368.56C95.4009 367.948 95.6455 367.019 95.4253 366.187C95.1806 365.331 94.52 364.671 93.6636 364.476ZM83.9984 372.448C83.3867 373.06 83.142 373.94 83.3622 374.772L84.5123 379.394L79.4717 376.875C79.1291 376.704 78.7621 376.606 78.3706 376.606C77.9791 376.606 77.6121 376.704 77.2695 376.875L72.229 379.394L73.379 374.772C73.5992 373.94 73.3545 373.06 72.7428 372.448L68.4608 368.168L74.0641 366.774C74.6514 366.628 75.1652 366.261 75.5078 365.747L78.3706 361.467L81.2335 365.747C81.576 366.261 82.0899 366.628 82.6771 366.774L88.2805 368.168L83.9984 372.448Z" fill="#1B1B1B"/>
</g>
<defs>
<clipPath id="clip0_118_4524">
<rect width="783" height="450" fill="white" transform="translate(0.0947266)"/>
</clipPath>
</defs>
</svg>
