<svg xmlns="http://www.w3.org/2000/svg" width="928" height="465" fill="none"><path fill="#fff" d="M0 .5h928v464H0z"/><path fill="#ABBF56" d="M239.627 228.52c-1.26-4.86-2.88-10.26-3.42-12.06-.54-1.62-1.44-4.68-1.98-6.66l-3.06-9.9c-1.98-6.66-3.96-13.5-4.86-17.28-.36-1.26-1.08-3.24-1.44-4.14-.54-1.08-.9-2.34-.9-2.7 0-.36-.72-3.24-1.8-6.3-3.96-12.6-5.22-16.74-5.94-20.7-.9-3.78-2.34-9-5.04-17.28-.72-1.98-1.44-4.32-1.62-5.22-1.62-5.58-3.6-11.7-4.14-12.24-.54-.54-6.3-.72-30.24-.9-7.92 0-10.8.18-11.34.72-.72.72-2.88 6.3-7.56 20.52-1.62 5.04-4.32 12.96-5.94 17.64-1.8 4.68-3.96 11.7-5.04 15.66-1.08 4.14-3.42 11.34-4.86 16.38-1.62 4.86-3.42 10.98-4.14 13.68l-2.34 8.1-3.24 11.34-3.78 13.32c-1.98 6.66-2.16 7.92-.36 8.64.72.36 1.98.36 2.7.36.9-.18 8.82-.54 17.64-.54 8.82-.18 16.56-.54 17.28-.72 1.26-.36 1.98-1.8 3.42-8.1.72-2.88 1.44-5.94 1.8-6.84.18-1.08.54-2.7.9-3.6.18-1.08.72-1.98 1.08-2.16.72-.36 19.62-.72 22.86-.54.36.18.9 1.44 1.26 3.24 2.52 10.8 4.32 16.92 5.04 18 .9.9 2.16 1.08 20.7.9 15.84-.18 19.8-.36 20.34-.9.54-.72 0-2.88-1.98-9.72Zm-56.7-39.96c-7.38 0-7.02.18-5.94-4.14.36-1.44 1.08-3.96 1.44-5.94 1.98-7.2 5.58-18.9 5.94-18.72.18.18 1.98 14.4 4.68 26.46l.54 2.34h-6.66Zm179.395 39.96c-1.26-4.86-2.88-10.26-3.42-12.06-.54-1.62-1.44-4.68-1.98-6.66l-3.06-9.9c-1.98-6.66-3.96-13.5-4.86-17.28-.36-1.26-1.08-3.24-1.44-4.14-.54-1.08-.9-2.34-.9-2.7 0-.36-.72-3.24-1.8-6.3-3.96-12.6-5.22-16.74-5.94-20.7-.9-3.78-2.34-9-5.04-17.28-.72-1.98-1.44-4.32-1.62-5.22-1.62-5.58-3.6-11.7-4.14-12.24-.54-.54-6.3-.72-30.24-.9-7.92 0-10.8.18-11.34.72-.72.72-2.88 6.3-7.56 20.52-1.62 5.04-4.32 12.96-5.94 17.64-1.8 4.68-3.96 11.7-5.04 15.66-1.08 4.14-3.42 11.34-4.86 16.38-1.62 4.86-3.42 10.98-4.14 13.68l-2.34 8.1-3.24 11.34-3.78 13.32c-1.98 6.66-2.16 7.92-.36 8.64.72.36 1.98.36 2.7.36.9-.18 8.82-.54 17.64-.54 8.82-.18 16.56-.54 17.28-.72 1.26-.36 1.98-1.8 3.42-8.1.72-2.88 1.44-5.94 1.8-6.84.18-1.08.54-2.7.9-3.6.18-1.08.72-1.98 1.08-2.16.72-.36 19.62-.72 22.86-.54.36.18.9 1.44 1.26 3.24 2.52 10.8 4.32 16.92 5.04 18 .9.9 2.16 1.08 20.7.9 15.84-.18 19.8-.36 20.34-.9.54-.72 0-2.88-1.98-9.72Zm-56.7-39.96c-7.38 0-7.02.18-5.94-4.14.36-1.44 1.08-3.96 1.44-5.94 1.98-7.2 5.58-18.9 5.94-18.72.18.18 1.98 14.4 4.68 26.46l.54 2.34h-6.66ZM151.427 332.06c-.28-1.08-.64-2.28-.76-2.68-.12-.36-.32-1.04-.44-1.48l-.68-2.2c-.44-1.48-.88-3-1.08-3.84-.08-.28-.24-.72-.32-.92-.12-.24-.2-.52-.2-.6 0-.08-.16-.72-.4-1.4-.88-2.8-1.16-3.72-1.32-4.6-.2-.84-.52-2-1.12-3.84-.16-.44-.32-.96-.36-1.16-.36-1.24-.8-2.6-.92-2.72-.12-.12-1.4-.16-6.72-.2-1.76 0-2.4.04-2.52.16-.16.16-.64 1.4-1.68 4.56-.36 1.12-.96 2.88-1.32 3.92-.4 1.04-.88 2.6-1.12 3.48-.24.92-.76 2.52-1.08 3.64-.36 1.08-.76 2.44-.92 3.04l-.52 1.8-.72 2.52-.84 2.96c-.44 1.48-.48 1.76-.08 1.92.16.08.44.08.6.08.2-.04 1.96-.12 3.92-.12 1.96-.04 3.68-.12 3.84-.16.28-.08.44-.4.76-1.8.16-.64.32-1.32.4-1.52.04-.24.12-.6.2-.8.04-.24.16-.44.24-.48.16-.08 4.36-.16 5.08-.12.08.04.2.32.28.72.56 2.4.96 3.76 1.12 4 .2.2.48.24 4.6.2 3.52-.04 4.4-.08 4.52-.2.12-.16 0-.64-.44-2.16Zm-12.6-8.88c-1.64 0-1.56.04-1.32-.92.08-.32.24-.88.32-1.32.44-1.6 1.24-4.2 1.32-4.16.04.04.44 3.2 1.04 5.88l.12.52h-1.48Zm37.025 1.28c-.52-1.84-1.88-3.48-3.4-4.16-.44-.2-.92-.36-1-.36-.12 0-.08-.16.16-.28 1.2-.56 2-1.8 2.52-3.04.6-1.36.64-4.36-.24-6.08-.2-.4-.4-.72-.4-.8 0-.16-1.32-1.44-1.92-1.88-.32-.2-.84-.52-1.16-.68-1.68-.84-2.52-.84-11.68-.72-3.36.04-4.12.08-4.28.24-.16.16-.16.8-.16 4.48 0 2.32.04 8.4.04 13.48 0 7.2.04 9.64.16 9.72.12.12 1 .08 5.44.12.92 0 9-.04 9.68-.12.72-.08 2.2-.44 2.36-.56.08-.08.44-.2.8-.32 1.04-.36 2.56-2.12 2.96-3.52.08-.32.2-.72.28-.92.32-.92.04-3.92-.16-4.6Zm-12.2-11.8c1.96 0 2.72.36 3 1.36.12.44-.04 1.32-.32 1.8-.12.16-.44.4-.76.56-.44.2-.88.28-1.84.32-.68.04-1.28.04-1.28-.04l-.08-2.04-.04-1.96h1.32Zm2.4 14.76c-.44.16-2 .24-2.96.16-.72-.04-.6.24-.68-2.52l-.04-1.68.68-.04c1.28-.08 2.6.04 3.04.16.44.12 1.16.68 1.36 1.24.44 1.28-.24 2.32-1.4 2.68Zm36.417-3.2c-1.04-.36-2-.72-2.2-.76-.2-.08-.72-.24-1.16-.36-1.08-.32-1.32-.2-1.92.96-.36.76-.68 1.2-1.24 1.68-1.28 1.04-2.08 1.36-3.56 1.36-1.2-.04-1.88-.24-2.84-.96-1.28-.96-2-1.88-2.56-3.44-.92-2.48-.32-5.6 1.48-7.36.84-.84 1.16-1.08 1.76-1.28.68-.24 2.84-.24 3.56.04.8.28 2.2 1.32 2.68 2 .44.56.52.64.96.64.52 0 6.28-2.44 6.56-2.76.24-.36-.08-1.04-1.28-2.92-.96-1.44-1-1.48-2.2-2.4-1.16-.8-2.96-1.72-4.4-2.16-1.64-.44-2.8-.48-4.16-.48-.92 0-2.16.08-3 .32-1.36.32-3.32 1.08-3.72 1.4-.16.16-.36.24-.44.24-.08 0-.44.24-.72.48l-.92.64c-.56.4-2.44 2.56-2.96 3.36-1.56 2.6-2 4.08-2.16 7.44-.12 2.88.16 4.52 1.16 6.72.72 1.6 1.04 2.12 2.08 3.32 1.16 1.36 2 2.12 3.24 2.84.2.16.6.4.84.56.68.48 2.88 1.2 4.24 1.44 1.28.24 3.52.28 4.92.08 1.2-.16 3.84-1.12 4.68-1.72.16-.12.64-.44 1.04-.68.44-.24 1.12-.84 1.56-1.28 1.48-1.44 3.12-4.32 3.12-5.36 0-.6-.56-.96-2.44-1.6Zm26.831-5.64c-.24-1.36-.96-3.68-1.4-4.56a5.84 5.84 0 0 1-.36-.88c-.24-.68-1.08-1.84-2.2-3.04-1.04-1-1.44-1.32-2.4-1.8-2.6-1.36-4.84-1.76-9.52-1.76-1.52-.04-3.48-.04-4.36-.04-.84 0-1.6 0-1.68.04-.08.08-.08 4.64-.04 13.64.04 11.96.08 13.56.24 13.84.24.36.48.44 1.6.48 4.28.16 8.92-.08 10.84-.56 3.16-.8 4.48-1.48 6.12-3.2 1.36-1.4 2.08-2.8 2.72-5.16.16-.6.32-1.16.36-1.2.08-.12.28-1.96.28-2.56.04-1.08-.04-2.24-.2-3.24Zm-7.84 2.48c-.04 1.28-.12 1.64-.44 2.52-.36.84-.56 1.16-1.08 1.68-.8.76-1.64 1.2-2.68 1.4-.44.08-.88.2-1 .2-.12.04-.2-.04-.24-.28-.04-.2-.04-2.96-.04-6.16.04-4.48.08-5.88.2-5.96.24-.12 1.4.04 2.08.36 1.08.44 1.84 1.2 2.44 2.24.68 1.24.84 2.08.76 4Zm28.529 6.52c-.32-.56-.72-.6-2.76-.52-2.08.08-1.84.08-3.96 0l-2.36-.08h-.6v-3.16l.32-.08c.16-.04 1.88-.04 3.8 0l3.68.08.2-.32c.12-.2.16-.8.16-3.16 0-2.68 0-2.88-.24-3.08-.24-.24-.6-.24-4.16-.24h-3.68l.04-1.6c.04-.88.04-1.6.04-1.6.08-.12 8.72.04 8.8.12.12.08.68-.08.84-.28.28-.36.16-6.48-.16-6.8-.04-.08-.24-.12-.4-.16-.68-.08-4.56-.2-5.52-.2-.52 0-3.32 0-6.16.04-3.64 0-5.24.04-5.36.16-.2.16-.28 2-.4 10.36-.04 2.12-.08 4.72-.12 5.72-.04 1-.08 3.4-.08 5.28.04 1.88 0 4.04 0 4.84v1.4l.44.12c.24.08 2.28.12 5.28.08 2.68-.04 6.6-.04 8.68-.04h3.76l.08-.28c.04-.16.08-1.6.08-3.24 0-2.64-.04-3-.24-3.36Zm21.603-20.88c-.24-.2-.72-.2-8.8-.2-5.76 0-8.64.08-8.8.16-.24.12-.28.32-.32 3.04-.04 1.6-.08 6.16-.08 10.08 0 3.96-.04 8.84-.08 10.8-.08 3.04-.08 3.64.08 3.76.2.2 2 .24 6.68.16 1.4-.04 1.48-.04 1.64-.32.16-.32.24-2.4.24-6.64v-2.36h1.64l5.4-.04c.52 0 1.04-.04 1.12-.12.12-.08.16-.76.12-3.32-.04-3.68.04-3.52-1.64-3.56-.6 0-2.36 0-3.92.04l-2.84.04-.04-1.36c0-.6-.04-1.36-.04-1.72v-.6h3c3.4 0 5.8-.12 6.32-.24.44-.12.48-.28.52-4.12 0-2.96 0-3.24-.2-3.48Zm28.432 14.04-.16-.8c-.12-.68-.68-1.24-1.36-1.36-1.84-.36-10.92-.28-11.28.04-.12.16-.2.8-.2 2.68v2.48l.32.24c.32.24.68.2 2.52.24 1.16 0 2.12.04 2.16.08.12.12-.24.64-.88 1.32-1.04 1.04-2.16 1.48-3.64 1.48-.88 0-2.28-.36-2.28-.56 0-.04-.12-.12-.28-.2-.52-.24-1.72-1.44-2.16-2.2-1.12-1.84-1.4-3.88-.8-5.92.36-1.36.72-1.96 1.68-2.92 1.16-1.16 1.72-1.4 3.32-1.36.72 0 1.52.08 1.76.16.56.2 1.68.88 2.28 1.44.24.2.56.36.72.36.4 0 5.84-2.56 6.24-2.92.52-.48.36-.92-.84-2.6-1.28-1.8-4.64-3.72-7.56-4.24-1.92-.32-4.48-.08-5.36.16-2 .52-3.76 1.32-5.08 2.28-1.88 1.36-4.24 4.36-5 6.4-.08.28-.36 1.16-.56 2-.36 1.36-.4 1.68-.4 3.6 0 1.84.04 2.24.32 3.44.44 1.76 1.76 4.56 2.52 5.24l.44.6c.48.64 1.76 1.88 2.36 2.28.24.16.52.4.64.48 1.12.8 2.16 1.32 3.04 1.56.08 0 .28.08.48.16.28.12 1.4.36 2.64.6.44.04 3.24 0 4-.12.68-.08 3-.84 3.76-1.24.4-.24 1.6-.96 1.72-1.12.04-.04.16-.12.32-.2.44-.2 1.8-1.52 2.44-2.4 1.12-1.48 1.96-3.32 2.2-4.68.2-1.12.16-3.72-.04-4.48Zm26.229 3.68c0-9.36-.12-16.56-.24-17.28-.08-.56-.48-.68-2.24-.6-.8.04-2.48.08-3.76.08-2.16.04-2.36.08-2.56.32-.12.2-.16 1.04-.12 4.72l.04 4.44-5.4-.08-.04-1.64c-.04-.92 0-2.96-.04-4.56 0-2.6-.04-2.96-.24-3.08-.16-.12-.96-.16-2.8-.16-1.4-.04-3.24-.08-4.12-.12-1.52-.08-1.52-.08-1.72.24-.2.28-.24.6-.4 4.36-.04.72-.08 3.24-.04 5.68 0 2.4 0 7.2.04 10.64 0 6.6 0 6.76.56 7 .16.08 2.12.12 4.4.12 4 0 4.16 0 4.36-.24.16-.24.16-.68.08-2.92-.04-1.44-.08-3.08-.12-3.68-.04-1.04-.08-2.56-.08-3.12.04-.28.04-.28 2.76-.24 1.48.04 2.8.08 2.84.12.08.04.12 1.68.16 3.76.04 6.24.04 6.04.32 6.24.28.2 5.24-.08 7.24 0l.84.04.16-.4c.12-.32.16-2.64.12-9.64Zm12.675 9.24c-.04-.24-.12-2.32-.16-4.6-.04-2.28.04-5.16-.04-6.36-.04-2.08.08-4.4 0-12.6 0-3.2 0-3.16-.84-3.48-.44-.16-7.32-.16-8.12 0-.32.08-.36 1.12-.28 6.52 0 3.12 0 9.12.04 13.32l.04 7.68.28.2c.12.08.36.16.44.12.28-.08 6.52-.08 7.36.04.96.08 1.36-.16 1.28-.84Zm20.336-14.8c-.04-1.2 0-3.44 0-5.04 0-1.56-.04-3.76-.08-4.88-.04-1.56-.08-2.08-.24-2.24-.12-.12-.88-.2-4.12-.2h-4l-.28.32c-.32.36-.28.4-.24 3.44.04 3.56.08 5.8 0 10.12-.08 3.4.08 3.68-.6 4.4-1.04 1.04-2.24 1.24-5.16.76-2.24-.4-2.28-.36-2.36 1.04-.08 1.08 0 6.8.08 7.08.16.4 2.68.88 5.68 1 1.12.04 1.72.12 2.96 0 .96-.08 2.28-.36 2.76-.56 1.4-.68 2.08-1.08 2.8-1.8 1.16-1.12 1.92-2.28 2.2-3.32.88-3.24.68-5.68.6-10.12Zm30.11 14.56c-.2-.24-.44-.6-.56-.76-.4-.68-1.28-2-1.6-2.44-.2-.24-.8-1.32-1.2-1.92-.08-.08-.08-.28-.2-.4-.24-.24-1.56-2.12-2.16-3.04-.2-.36-.52-.76-.64-.92-.16-.16-.44-.64-.64-1.04-.24-.4-.48-.76-.56-.8-.08-.08-.28-.32-.48-.6-.16-.28-.52-.84-.8-1.24-.4-.6-.44-.8-.36-.96.08-.12.24-.4.36-.64s.4-.6.56-.84c.2-.28.6-.88.88-1.4.28-.56.6-1.08.72-1.24.12-.12.4-.52.6-.84.2-.36.44-.72.56-.84.12-.12.52-.68.88-1.24.4-.56 1-1.24 1.16-1.4.12-.24.44-.76.72-1.16.92-1.32 1.28-2.08 1.28-2.56 0-.28-.08-.6-.16-.68-.12-.08-.84-.12-2.36-.04-1.2.04-3.04.08-4.08.08-1.84.04-1.88.16-2.12.52 0 .04-.16.24-.36.52-.48.52-1.56 2.12-1.96 2.88-.12.28-.4.64-.64.92-.2.24-.64.84-.96 1.36-.28.48-.76 1.24-1.04 1.64a7.1 7.1 0 0 0-.56.84c-.04.08-.32.56-.64 1.04l-1.32 2.04c-.12.24-.24.56-.36.68-.16.28-.12.8-.2-7.24l-.04-4.76-.32-.24c-.24-.2-.52-.24-1.84-.24-.84 0-2.48-.04-3.68-.04-2.68-.04-2.6-.08-2.68 1.68-.08 1.56-.04 17.76.04 22.52.12 3.8.08 3.76 1.08 3.84.84.04 6.16-.04 6.92-.12.88-.12.96-.2.96-.84 0-1.12-.16-5.64-.2-6.84-.28-4.92-.28-5.28-.04-5.08.12.08.2.2.2.24 0 .08.08.28.2.4.12.16.76 1.04 1.36 1.92.64.92 1.2 1.72 1.28 1.8.12.08.24.28.32.44.08.16.44.64.76 1.12.36.44.72.92.8 1.04.44.68 4.04 5.56 4.32 5.76.28.16.84.2 4.44.2 4.88 0 5.08-.04 4.36-1.08Zm22.491-7.24c-.12-.12-1.36-.16-4.92-.16h-4.84l-.04-1.24c-.08-2.88-.24-4.92-.28-7.96l-.04-3.56c0-1.28-.08-3.56-.12-4.72 0-1.32-.08-1.44-.32-1.72l-.28-.32-3.96.04c-2.24.04-4.2.08-4.4.12-.16.04-.4.16-.44.28-.16.36-.12 7.8 0 11.28.08 1.2 0 3.44.04 5 .04 1.48.12 3.32.12 4 .04.72.08 2.52.08 4.08 0 2.32.04 2.8.2 2.92.16.12 1.12.16 3.76.2l5.4.08c1 0 3.6-.04 5.72-.08l3.88-.04.28-.36c.32-.4.32-.4.32-4.08 0-2.64-.04-3.68-.16-3.76Zm32.005 7.84c-.08-.32-.12-1.92-.24-10.6-.08-6.92-.12-6.32 0-11.88.08-4.08.08-4.92-.08-5-.24-.16-7.52-.08-7.88.04-.2.08-.48.4-.72.68-.76 1.12-4.64 7.48-5.04 8.36l-.16.36-.4-.68c-.2-.36-.68-1.16-1.04-1.72l-2.56-4.08-1.84-3h-4.24c-3.92 0-4.24 0-4.36.2-.08.16-.12 5.4-.04 13.8.08 15.04 0 13.92.96 14 1.12.12 7.52-.08 8.4-.24l.44-.08-.08-5.12-.08-5.2v-1.28l.04-1.16.24.52c.12.28.36.64.48.76.24.24.52.76 1.24 2.08.24.36.44.72.56.84.08.08.32.48.52.88.56 1.12 1.68 2.72 1.88 2.72.24 0 .64-.64 1.36-2.16.32-.64.84-1.44 1.08-1.8.24-.36.48-.68.48-.72 0-.04.16-.4.4-.8.24-.36.56-.92.76-1.24l.36-.56v3.24c0 5.92.12 9.04.28 9.16.08.04 1.92.08 4.04.08 2.08 0 4.04.04 4.28.08.24 0 .56-.04.76-.08.24-.12.28-.2.2-.4Zm28.075-2.84c0-.32-.12-6.28-.2-12.4-.12-9.76-.16-11.92-.24-12.12-.16-.4-1.72-.28-6.92-.16-.84 0-1.64.16-1.76.24-.16.12-.2.6-.2 3.56 0 3.32.04 5 .2 7.12l.08 1.04-.32-.32c-.2-.2-.44-.48-.56-.68-.2-.44-.76-1.16-1.72-2.16-1.6-1.96-2.24-2.84-2.24-2.92 0-.04-.2-.32-.4-.64-.2-.28-.56-.76-.72-1.04-.32-.48-.88-1.2-1.24-1.6-.08-.12-.2-.32-.24-.44-.04-.16-.24-.44-.44-.64-.2-.24-.52-.72-.84-1.12l-.32-.4h-4.44c-1.08 0-1.6.08-1.76.2-.24.16-.24.36-.36 2.56-.2 3.56-.28 24.16-.12 24.68l.12.44 7 .12c1.24.04 1.68-.08 1.8-.44.08-.32-.12-5.92-.16-7.64l-.08-3.32v-.56l.04-.4.28.36.64.84c.64.84 1.52 2.16 2.12 2.96l1.88 2.56.8 1.04c.32.4.72 1 .96 1.36.56.92.8 1.24 1.6 2.24.72.88.76.92 1.36 1h3.16c3.32 0 3.2.04 3.24-1.76.04-.72.04-1.4 0-1.56Zm5.446-1.96c.04.04.2.28.44.56.48.64 1.76 1.92 2.36 2.32.24.16.56.36.68.48 1.12.72 2.16 1.24 3.04 1.48.04.04.28.12.44.2.52.2 2.16.52 3.28.64 1.16.08 2.64.04 3.92-.12.96-.16 2.36-.48 2.56-.6.08-.04.2-.12.28-.12.68-.16 1.88-.76 3-1.48l.72-.48c.56-.4 1.88-1.68 2.36-2.32.2-.28.4-.52.44-.56.68-.72 2.04-3.52 2.44-5.28.32-1.16.36-2.36.36-3.44 0-1.04-.04-2.24-.4-3.6-.6-2.32-.88-2.92-2.12-4.72-1.72-2.6-3.88-4.24-6.6-5.28-2.16-.8-4.72-.84-5.44-.84-.92 0-3.08-.04-5.44.84-2.76 1.04-4.88 2.68-6.64 5.28-1.24 1.8-1.48 2.4-2.08 4.72-.36 1.36-.4 2.88-.4 3.64 0 .76.04 2.24.32 3.4.44 1.76 1.76 4.56 2.48 5.28Zm5.96-11.08c.4-1.36.72-1.92 1.72-2.88 1.2-1.2 2.04-1.6 3.68-1.64 1.6 0 2.16.08 2.96.48.8.36 2.2 1.72 2.64 2.52.48.96.84 2.44.84 3.68.04 1.92-.84 3.84-2.24 5.12-1 .92-1.16 1.04-2.24 1.28-1.08.28-2.12.32-3 .08-3.44-.96-5.4-4.8-4.36-8.64Zm44.217-4c-.28-1.6-2.08-4.88-3.04-5.52-.28-.2-.52-.4-.52-.48 0-.08-.32-.28-.76-.48-2.36-1.04-3.12-1.16-9.84-1.16-6.36-.04-6.68-.04-6.92.2-.12.16-.2.68-.2 2.08l-.08 8.2c-.04 5.48-.04 11.56-.04 16.2v1.28l.84.04c.44.04 2.44.08 4.48.08 2.84 0 3.6-.04 3.72-.2.08-.16.08-.8-.08-5.52l-.08-2.52h1.72c2.4 0 5.4-.48 5.92-.92.08-.04.32-.12.52-.16.44-.12 1.92-1.28 2.52-2.04.8-.96 1.24-2.08 1.68-3.96.28-1.08.36-3.96.16-5.12Zm-9.52 4.76c-.32.2-.84.32-1.72.36l-1.28.04.08-4.8h1.16c2.16 0 3.16.72 3.16 2.2 0 1.08-.4 1.68-1.4 2.2Zm38.425 11.24c-.48-.44-.76-.8-.68-.84.64-.52 2.08-3.52 2.56-5.32.28-1.2.32-2.4.32-3.48 0-.48-.04-2.2-.4-3.56-.6-2.36-.88-2.96-2.12-4.8-1.72-2.52-3.88-4.24-6.64-5.28-2.12-.8-4.08-.84-5.44-.84-1.28 0-3.32.04-5.44.84-2.76 1.04-4.92 2.76-6.64 5.28-1.28 1.84-1.52 2.44-2.12 4.8-.36 1.36-.4 2.72-.4 3.56 0 1.08.04 2.28.32 3.48.44 1.72 1.76 4.56 2.52 5.28.04.04.24.28.44.56.48.64 1.72 1.92 2.32 2.32.24.16.56.32.68.44 1.16.8 2.36 1.4 3.08 1.52.04 0 .16.08.24.12.56.36 3.24.76 5 .76 1.8 0 4.56-.44 5-.8.04-.04.12-.08.16-.08.2.04 1.56-.52 2.16-.88.24-.2.32-.16 1.08.56 1.2 1.08 2.28 2 2.48 2.08.6.24.84.04 2.36-1.72.88-1.08 1.2-1.52 1.2-1.8 0-.32-.08-.4-2.04-2.2Zm-6.64-7.8c-.16.48-.36.92-.4.96-.04.04-.24-.12-.48-.32-1.56-1.6-2.56-2.48-2.8-2.48-.16 0-.4.2-.56.44-.16.2-.48.56-.64.8-1.16 1.2-2.16 2.56-2.16 2.8 0 .2.24.44.76.92.76.6 1.4 1.28 1.4 1.44 0 .12-1.68.04-2.32-.12-3.44-.96-5.4-4.8-4.36-8.64.4-1.32.76-1.92 1.72-2.88 1.16-1.2 2.04-1.6 3.68-1.6 1.6-.04 2.16.04 3 .44.8.36 2.16 1.72 2.6 2.52.88 1.64 1.12 4.12.56 5.72Zm34.887 10.96c-.16-.24-.32-.56-.48-.88-.2-.36-.48-.88-.68-1.16-.2-.28-.52-.84-.72-1.28-.2-.4-.44-.84-.48-.96-.32-.6-2.32-4.16-2.56-4.56l-.28-.44.4-.24c1.6-1.2 2.2-2.16 2.76-4.68.28-1.04.36-3.92.12-5.08-.48-2.44-2.04-4.88-3-5.52-.28-.16-.48-.4-.48-.48 0-.04-.36-.28-.8-.48-2.36-1.04-3.12-1.12-9.76-1.16-6.36 0-6.72 0-6.92.24-.12.12-.16.64-.16 1.72 0 .84-.08 5.08-.12 9.36l-.08 9.12c-.04 5.76.08 7.16.16 7.4.08.24.16.28 1.16.28.56-.04 2.52-.04 4.28 0 2.16.04 3.28 0 3.36-.12.12-.12.04-.76.04-6.68v-1.64l.44-.04c.32-.04.52 0 .64.16.28.32 1.28 2.24 2.28 4.24.52 1.04.96 1.96 1.04 2.04.04.12.16.32.24.44.28.76.88 1.52 1.16 1.6.4.08 8.44.04 8.64-.08.2-.16.12-.72-.2-1.12Zm-11.32-14.52c-.32.16-.88.28-1.76.32l-1.24.08.08-4.8h1.16c2.08 0 3.08.76 3.08 2.2 0 1.12-.36 1.68-1.32 2.2Zm32.565 3.24c-.76-1.08-1.84-2.04-2.8-2.64-1.08-.64-3.36-1.8-4.16-2.08-1.4-.52-3.32-1.32-3.84-1.68-.64-.44-.76-1-.32-1.4.24-.16.48-.24 1.16-.24 1.28 0 2.48.52 3.52 1.56.96.92.84.92 3.76-.56 2.64-1.32 3.24-1.72 3.12-2.12-.6-1.96-3.12-4.84-4.96-5.68-.44-.2-1.44-.52-2.24-.72-2.36-.68-4.8-.56-7.32.32-1.24.44-2.12 1-3.24 2.08-.88.92-1.16 1.36-1.52 2.16-.76 1.6-.88 2.04-.84 3.68 0 2.12.28 3 1.44 4.6.88 1.28 3.48 2.88 6.72 4.08 3.48 1.36 4.64 2.36 3.72 3.4-.32.32-.4.36-1.28.36-1.64-.04-3.32-.96-4.44-2.44-.4-.64-.6-.8-.92-.84-.4-.04-6.08 2.32-6.24 2.6-.16.28 0 .84.6 2.16.88 1.84 1.36 2.48 2.92 3.76.32.28.64.52.68.52.08 0 .48.2.84.44 1.28.92 3.2 1.52 4.84 1.6 1.52.2 2.8.08 4.08-.2 3.52-.8 6.04-2.6 7.24-5.2.48-1 .64-1.76.64-3.4 0-1.8-.36-3.04-1.16-4.12Zm23.42-15.08c-.2-.24-.4-.28-4.4-.36-2.32-.04-4.4-.08-4.6-.04-.2 0-1.2 0-2.24-.04-5.16-.04-9.04.04-9.2.16-.16.16-.28 6.76-.12 7 .16.2.84.24 3.92.28l2.4.04-.08 4.4-.16 8.44c-.04 2.2-.08 4.8-.12 5.76-.04 1.4 0 1.76.12 1.84.12.04 1.96.12 4.12.08 3.72 0 3.96 0 4.2-.24.24-.2.28-.32.2-.76-.04-.28-.08-2.36-.04-4.64 0-2.28.04-6.56.04-9.52v-5.32l2.88-.04c2.4-.04 2.88-.04 3.04-.24.16-.16.2-.64.24-3.36 0-2.8 0-3.2-.2-3.44Zm26.064 8.04c-.04-3-.12-6.12-.12-6.92v-1.4l-1.24-.08c-.56-.04-2.2-.12-3.64-.08-2.44.04-3.04.08-3.24.28-.24.2-.24.76-.28 8.92 0 9.88-.12 9.96-.84 10.92-.8 1-2.64 1.2-3.72.08-1.04-1.12-1.08-1.64-1.04-11.44.04-7.64 0-8.24-.24-8.48-.16-.28-.48-.28-4.32-.28-3.16 0-3.6 0-3.84.16-.16.12-.16 1.6-.16 6.92 0 6.96.16 12.08.56 13.92.12.96.84 2.68 1.28 3.4.36.56 1.52 1.96 2.72 2.6.76.4 3 1.12 4.44 1.24.76.08 1.56.24 1.8.24 2.72 0 5.32-.24 7.36-1.4.48-.28 2.28-1.96 2.68-2.68.4-.72 1.12-2.44 1.32-3.4.4-1.84.56-6.72.52-12.52Zm27.898-8.24c-.16-.16-1.2-.2-4.6-.24-3.68 0-4.4 0-4.68.2-.36.2-.44.88-.68 3.16-.08.8-.24 1.52-.24 1.6-.04.04-.28 1.24-.48 2.64l-.76 3.96c-.4 1.8-.6 2.76-.76 3.76-.12.48-.24 1.16-.36 1.56l-.2.68-.32-1.24c-.8-3.04-2.6-10.12-3.52-14.44-.2-.84-.44-1.64-.52-1.72-.08-.12-1.2-.16-4.2-.16-2.28 0-4.16 0-4.24.08-.2.12-.16.56.2 1.88.52 1.6 1.32 4.44 1.4 5 .04.2.12.56.2.72.16.28.6 1.76.84 2.8.04.48.32 1.2.52 1.68.2.52.52 1.64.8 2.56.24.92.68 2.4.96 3.24.24.84.64 2.04.76 2.52.16.52.28 1.08.32 1.24.48.96 2 4.96 2.12 5.4.08.32.2.6.28.68.08.08.76.16 1.48.2h1.4c.08-.04 1.48-.08 3.16-.08 1.76-.04 3.12-.08 3.2-.16.08-.12.6-1.48.88-2.68.08-.24.24-.76.4-1.2.56-1.84.96-2.96 1.08-3.8.2-.88.44-1.8 1.36-4.64.24-.68.4-1.24.4-1.36 0-.12.08-.4.16-.56.12-.24.24-.68.32-.92.24-.88.64-2.4 1.12-3.92.24-.8.52-1.72.68-2.16.08-.44.28-1.12.4-1.48.16-.44.48-1.6.8-2.68.52-1.88.56-1.96.32-2.12Zm39.787-.16c-.2-.16-8.24-.08-8.4.08-.12.08-.24.4-.32.84-.32 1.72-1.28 6-1.64 7.12l-.8 3.36c-.28 1.2-.64 2.44-.76 2.88l-.24.76-.2-.6c-.12-.36-.4-1.08-.48-1.64-.12-.52-.32-1.04-.36-1.16-.08-.08-.2-.44-.28-.72l-.36-1.28-.24-1.2-.36-1.2c-.12-.36-.24-.84-.28-1.04-.04-.2-.28-.96-.52-1.68-.24-.76-.56-1.84-.76-2.4-.12-.6-.32-1.36-.44-1.68l-.2-.52h-2.84c-2.04 0-2.76.04-2.84.16-.12.12-.68 2.2-1 3.92-.48 2.12-2.12 8.48-2.52 9.92l-.2.72-.48-1.84a243.78 243.78 0 0 1-2.64-11c-.16-.84-.4-1.6-.52-1.68-.08-.12-1.2-.16-4.2-.2-2.24 0-4.16.04-4.24.08-.2.12-.16.56.28 1.84.48 1.68 1.24 4.48 1.32 5.04.04.24.12.56.2.72.2.32.6 1.76.8 2.8l.56 1.68c.2.56.6 1.68.8 2.6.24.92.68 2.4.96 3.24.28.84.64 1.96.8 2.52.12.52.28 1.04.32 1.24.44.96 2 4.92 2.08 5.4.08.28.2.6.28.68.08.08.8.16 1.48.16.68.04 2.44 0 3.88-.04l2.56-.04.08-.44c.08-.16.28-1.12.52-2.16.24-.96.52-2.32.64-2.92l.36-1.6c.44-1.92.56-2.44.64-2.96.08-.28.16-.72.28-.96.04-.32.12-.56.16-.6.04-.04.28.84.52 1.88.28 1.04.6 2.32.76 2.84.12.56.32 1.2.4 1.48.04.32.16 1.08.32 1.72.16.72.4 1.64.48 2.12.12.4.24 1 .32 1.16l.08.44 2.56.04c1.44.04 3.16.04 3.96 0 1.24-.04 1.32-.08 1.48-.4.24-.52 1.68-4.48 2.2-6.16.28-.88.76-2.28 1.08-3.04l1.04-3.36c.24-1.12.6-2.28.8-2.84.2-.48.44-1.24.48-1.68.32-1.04.72-2.48.88-2.8.08-.16.2-.48.24-.72.04-.56.84-3.36 1.32-5.04.44-1.28.48-1.72.2-1.84Zm26.244 26.12c-.32-.48-.76-1.32-1-1.8-.28-.48-.64-1.2-.84-1.52-.2-.36-.52-.96-.68-1.32-.2-.4-.52-.92-.76-1.28-.28-.32-.44-.64-.44-.68 0-.04-.16-.32-.32-.6l-.56-.92c-.12-.24-.72-1.28-1.36-2.36l-1.2-1.96.28-.48c.16-.24.4-.64.52-.88s.32-.48.44-.6c.08-.12.16-.24.16-.28 0-.12 1-1.88 1.44-2.56.12-.16.48-.76.72-1.28.28-.52.76-1.24 1.04-1.64.24-.4.48-.76.48-.8 0-.04.28-.52.68-1.12.36-.56.72-1.2.84-1.44.12-.2.4-.72.68-1.16.52-.92.48-1.24-.16-1.4-.16-.04-2.08-.12-4.2-.12-3.48 0-3.92.04-4.2.24-.2.12-.36.28-.36.36 0 .04-.28.48-.6.96-.32.48-.72 1.12-.88 1.44-.16.32-.48.88-.72 1.24-.24.32-.6.84-.76 1.12-.24.48-.28.48-.4.28l-.44-.64c-.12-.2-.52-.8-.8-1.32-.32-.52-.84-1.4-1.24-1.96-.36-.56-.64-1.08-.64-1.12 0-.08-.16-.24-.36-.36-.32-.2-.72-.24-4.2-.24-2.12 0-4.04.08-4.24.12-.64.16-.64.48-.12 1.4.28.44.56.96.68 1.16.08.24.48.88.84 1.44.36.6.68 1.08.68 1.12 0 .04.2.4.48.8.28.4.72 1.12 1.04 1.64.28.52.64 1.12.76 1.28.44.68 1.4 2.44 1.4 2.56 0 .04.08.16.2.28.08.12.28.36.4.6l.48.88.28.48-1.12 1.96c-.64 1.08-1.28 2.12-1.36 2.36l-.56.92c-.16.28-.36.56-.36.6 0 .04-.2.36-.44.68-.24.36-.6.88-.76 1.28-.16.36-.48.96-.68 1.32-.2.32-.6 1.04-.84 1.52s-.72 1.32-1.04 1.8c-.32.52-.56 1.08-.56 1.2 0 .12.16.32.36.4.28.16 1.12.24 4.52.2l4.12-.04.32-.32c.16-.16.52-.8.84-1.36l1.52-2.68.96-1.68.56 1c.28.52.84 1.48 1.2 2.12.4.64.8 1.4.96 1.72.12.32.4.68.6.88l.32.32h4.16c5.36 0 5.36.04 4.24-1.76Zm26.6-25.96c-.2-.04-2.08-.08-4.28-.08-4.4 0-4.4 0-4.72.88-.12.28-.64 1.56-1.16 2.76-.6 1.24-1.2 2.72-1.44 3.28l-.44 1-.44-1.08-1.4-3.32c-.52-1.24-1.12-2.48-1.2-2.76-.36-.92-.36-.92-4.76-.92-2.12 0-4.08.04-4.28.12-.56.16-.6.48-.28 1.08l.76 1.4c.24.48.68 1.2.96 1.6.24.36 1 1.84 1.72 3.16.68 1.32 1.44 2.76 1.64 3.08 1 1.76 1.44 2.56 2.24 4.2l.84 1.76.04 5.64c.04 4.16.04 5.72.12 5.8.12.04 1.4.12 2.88.16 3.12.08 5.4.04 5.6-.08.08-.04.08-1.48.04-4.4l-.08-5.76v-1.4l.52-.92c.28-.52.64-1.16.76-1.52.12-.28.32-.72.48-.88.12-.2 1.2-2.24 2.32-4.56 1.2-2.32 2.24-4.32 2.32-4.4.08-.12.4-.64.68-1.2.32-.56.68-1.28.88-1.56.36-.56.24-.92-.32-1.08Zm22.773 23.8c-.04-2.44-.08-3.16-.2-3.28-.2-.2-1.6-.2-6.84-.08-1.44.04-2.64.04-2.64 0 0-.2 1.6-2.76 2.04-3.36.2-.24.36-.48.36-.52 0-.08.2-.4.44-.76.28-.32.48-.68.48-.72 0-.08.2-.44.48-.88.56-.84 1.4-2.32 1.4-2.4 0-.04.24-.44.56-.88.28-.4.72-1.08.92-1.48.2-.36.48-.88.64-1.08.16-.2.64-1.04 1.08-1.84l.8-1.44-.04-2.52c-.04-2.04-.04-2.48-.24-2.68-.2-.2-.44-.24-5.88-.12-7.08.08-10.28.16-11.72.2-1.6.08-1.56 0-1.52 2.96 0 3.36.04 3.76.16 3.96.08.12.56.2 1.6.24 2 .08 6.52.04 6.68-.04.12-.08.12.12 0 .28-.08.08-.4.72-.8 1.52-.4.76-1.32 2.24-2 3.28l-1.76 2.76c-.28.48-.72 1.16-.96 1.52-.2.36-.48.8-.6.96-.08.2-.76 1.28-1.44 2.48l-1.24 2.2v2.6c0 1.44.08 2.72.16 2.84.12.2.56.24 9.88.24 8.72 0 9.8-.04 10-.2.24-.24.2.04.2-3.76ZM141.427 378.98c-.04-2-.08-5.96-.08-8.72.04-4.68 0-5.16-.24-5.4-.2-.28-.28-.28-3.76-.36-6.32-.12-10.04-.08-10.16.04-.08.08-.16 1.36-.16 3.56 0 3.16.04 3.44.24 3.68.24.28.36.28 2.52.2l2.36-.04v.52c.08 12.32.16 15.72.32 18.64.08 1.36.08 1.36.4 1.4.56.08 8.52.04 8.56-.04.12-.12.12-9.44 0-13.48Zm16.575 5.24c.8-.68 1.96-2.12 3.8-4.52 1.08-1.44 2.36-4.08 2.68-5.04.48-1.48.2-3.4 0-4.08-.44-1.52-1.08-2.6-2.2-3.72-1.08-1.08-1.96-1.68-3.16-2.08-3.68-1.24-7.84-.84-10.64 1.08-.8.52-1.96 1.76-2.8 2.88-.24.36-.52.68-.56.68-.2.12-.8 1.4-.8 1.76 0 .2.12.44.24.56.36.28 2.6 1.52 4.52 2.48 2 .96 1.84 1 2.68-.32.64-1 .96-1.32 1.68-1.68.88-.44 1.36-.44 1.84-.08.32.32.4.44.4.92 0 1.08-1.08 2.68-3.68 5.48-1.4 1.48-3.08 3.36-3.96 4.44-.52.64-1.36 1.6-1.88 2.12-.52.56-1 1.12-1.04 1.32-.08.2-.16 1.56-.16 3.04 0 2.48.04 2.76.24 2.84.12.08 3.16.16 6.72.16 3.56 0 6.48.04 6.52.04.08.12 5.32-.08 5.44-.16.16-.12.16-.16.2-4.44 0-2.16-.04-2.8-.16-2.92-.16-.12-.8-.16-3.12-.16-1.6 0-2.96-.04-3.08-.12-.12-.08-.04-.2.28-.48Zm30.231-1.44c-.12-1.44-.88-2.96-1.16-3.08-.04-.04-.24-.36-.4-.64-.28-.56-1.72-2.08-1.88-2.08-.04 0-.28-.16-.56-.4-.48-.36-1.56-.96-2.2-1.16-.24-.04.16-.48 1.72-1.96 2.92-2.84 2.8-2.68 2.88-3.4.04-.28.08-1.56.04-2.84-.08-1.8-.12-2.28-.24-2.44-.24-.16-.88-.2-5.36-.28-10.2-.08-13.36-.04-13.6.12-.12.16-.12.12-.16 4.44 0 2.08.04 2.72.12 2.88.2.16 1 .16 3.88.16h3.76l-.88.8c-.52.48-1.52 1.36-2.36 2.04l-1.72 1.56c-.4.32-.4.36-.44 1.76-.04 1.08 0 1.56.12 1.64.12.12.76.16 2.72.12 3.68-.08 5.12.2 6.44 1.28 1 .84 1.52 2.28.96 3.16-.96 1.64-4.44.64-6.12-1.64-.36-.56-.6-.72-.88-.8-.44-.04-6 2.24-6.12 2.56-.16.24 0 .8.6 2.08.84 1.8 1.28 2.4 2.84 3.72.32.2.64.48.68.48.08 0 .4.2.8.4 1.24.92 3.12 1.52 4.76 1.56.68.04 1.28.08 1.32.12.08.08 1.8-.08 2.6-.28 4.2-1 6.96-3.44 7.64-6.76.32-1.72.28-2 .2-3.12Zm27.386-2.28c-.04-.36-.6-.52-1.96-.56-.68 0-1.32-.04-1.36-.08-.08-.04-.08-2.48 0-5.28.04-1 .04-3.6.08-5.76 0-3.24-.04-3.96-.2-4.08-.12-.16-.76-.2-3.2-.24-1.64-.04-3.48-.08-4.04-.12l-1.04-.04-1.12 1.16-1.64 1.88c-.28.4-.96 1.2-1.52 1.76-1.28 1.32-2.36 2.48-3.16 3.48-.36.4-1.32 1.44-2.12 2.28-.84.88-1.92 2.08-2.4 2.68-.48.56-.96 1.12-1.08 1.2-.28.24-.28 7.68 0 7.96.16.2 1.12.24 6.28.28 3.36.04 6.08.08 6.12.12.04.04.08 1.04.08 2.28 0 1.24.08 2.44.16 2.68l.12.4h4.04c2.92 0 4.08-.04 4.32-.16l.32-.16v-5.28l1.36-.04c1.36-.12 1.68-.2 1.76-.64.12-.8.24-4.84.2-5.72Zm-12.92-.76c-.32 0-1.2-.08-1.96-.08l-1.44-.08.48-.52c.28-.24.48-.48.48-.52 0-.04.16-.2.32-.36.44-.52 1.12-1.28 1.92-2.24.44-.56.8-.96.88-.96.12 0 .12 2.64 0 3.88l-.08.92-.6-.04Zm38.044 3.2c0-1.96-.24-3-1.04-4.4-.44-.84-1.44-1.96-1.92-2.24-.12-.08-.48-.36-.8-.56-.28-.24-.64-.44-.76-.44-.16 0-.24-.04-.24-.08 0-.12-.44-.32-1.36-.64-.68-.28-4.36-.92-5.04-.88-.08 0-.4 0-.68-.04h-.52l.04-.72.08-.76c0-.04 2.28-.04 5.04-.08 4.16 0 5.04-.04 5.16-.2.2-.16.24-.52.2-2.84-.04-2.76-.12-4.24-.32-4.44-.16-.16-1.44-.16-8.36-.12-9.72.04-9.6.04-9.8.24-.4.36-.36 15.44 0 15.68.12.04 1.88.08 3.96.08 4.84 0 6.32.24 7.32 1.24.44.44.84 1.28.84 1.72 0 .44-.64 1.36-1.16 1.6-.56.28-1.88.2-2.8-.2-.96-.4-2.2-1.4-2.6-2.08-.4-.64-.68-.84-1-.84-.4 0-5.96 2.44-6.12 2.68-.28.48 1.24 3.64 2.28 4.64.64.68 1.76 1.6 1.92 1.6.08 0 .4.2.76.44 1.32.88 3.16 1.44 4.88 1.56 1.44.16 3.24.04 4.36-.28 3.44-.92 5.88-2.8 6.84-5.32.72-1.8.84-2.44.84-4.32Zm2.056 2.56c.52 2.2 1.2 3.4 2.6 4.68.68.64 2.04 1.56 2.92 1.96.92.44 3.36.84 4.92.84 1.64 0 4-.4 5-.84.84-.4 2.2-1.32 2.88-1.96 1.44-1.28 2.12-2.48 2.64-4.68.24-.96.28-1.36.2-2.76-.08-1.96-.32-2.92-1.12-4.52-1.12-2.12-3.44-4-5.72-4.6-.36-.08-.68-.2-.76-.28-.08-.04.08-.36.32-.76.28-.36 1.2-1.8 2.16-3.2.88-1.36 1.88-2.8 2.2-3.28.56-.72.68-1.28.36-1.48-.08-.08-2.2-.12-4.76-.12-4.92 0-4.84 0-5.4.72-.84 1.08-4.8 7.12-5.92 9-.96 1.72-1.88 3.76-2.4 5.4-.44 1.4-.52 4.36-.12 5.88Zm8.72-5.44c1.12-.48 1.92-.48 3.12-.12 1.32.48 1.72 2.6 1.32 3.8-.2.8-.84 1.36-1.76 1.56-1 .32-1.76.24-2.68-.2-1.64-.84-1.64-4.16 0-5.04Zm33.763-15.28c-.2-.24-.64-.24-6.76-.28-8.6-.08-11.88-.04-12.04.12-.08.08-.16.48-.16.92-.04 3.36-.04 6.24.04 6.32.12.2 1.08.24 4.72.28 2 0 3.76.04 3.84.08.12.04.12.16-.04.48l-.52 1.2c-.2.48-.64 1.44-1.04 2.16-1.04 1.96-3.4 6.56-3.88 7.6l-1.04 2.08c-1.88 3.76-3 6.08-3 6.24 0 .4.36.48 2.12.48.96-.04 2.04 0 2.4.04.36.04 1.56.08 2.68.12 2.48 0 2.44.04 3.12-1.56.48-1.16 2.32-4.92 2.84-5.92.12-.2.4-.76.6-1.24 1.04-2.28 2.48-5.24 4.12-8.32.32-.68 1-1.92 1.44-2.8l.8-1.6v-3.08c0-2.84 0-3.12-.24-3.32Zm23.773 16.48c-.28-1.08-1-2.36-1.88-3.48l-.84-1.04.4-.4c.2-.28.6-.88.84-1.4.44-.88.48-1.08.52-2.32.04-1.08 0-1.52-.2-2.4-.36-1.4-.64-1.92-1.6-3-.96-1.08-2.24-1.88-4-2.6-1.24-.52-4.88-.72-7.04-.36-1.52.2-2.4.56-3.8 1.44-1.08.72-2.2 1.88-2.72 2.84-.6 1.16-.96 2.68-.88 4 .08 1.4.24 1.92 1.08 3.2.36.52.68.96.68 1.04 0 .04-.2.24-.4.48-1.56 1.48-2.56 4.44-2.28 6.84.32 2.76 1.24 4.52 3.2 6.2.64.56 2.52 1.72 2.76 1.72.12 0 .24.08.32.16.16.16 2.32.56 3.76.72 1 .12 2.16.04 3.36-.16.48-.12 1.16-.24 1.52-.28.72-.08 1.36-.4 2.48-1.04 2.6-1.52 3.88-3.16 4.6-5.76.28-1.2.36-3.32.12-4.4Zm-12.96-10c.44-.32 1.48-.72 2.2-.64.32.04.8.2 1.12.32.48.24.64.4.8.88.2.52.2 1.16-.04 1.76-.2.48-.36.64-.8.88-.88.48-2.48.36-3.12-.2-.64-.6-1-2.36-.16-3Zm4.36 12.6c-.24.6-.6.92-1.4 1.12-1.64.52-3.24-.08-3.52-1.44-.28-1.4.36-2.52 1.4-2.88.84-.28 1.68-.24 2.52.12.6.28.72.4.96.88.28.72.32 1.6.04 2.2Zm31.742-12.36c-.52-2.2-1.2-3.4-2.6-4.68-.68-.64-2.04-1.56-2.92-1.96-.92-.44-3.36-.84-4.92-.84-1.64 0-4 .4-5 .84-.84.4-2.2 1.32-2.88 1.96-1.44 1.28-2.12 2.48-2.64 4.68-.24.96-.28 1.36-.2 2.76.08 1.96.32 2.92 1.12 4.52 1.12 2.12 3.44 4 5.72 4.6.36.08.68.2.76.28.08.04-.08.36-.32.76-.28.36-1.2 1.8-2.16 3.2-.88 1.36-1.88 2.8-2.2 3.28-.56.72-.68 1.28-.36 1.48.08.08 2.2.12 4.76.12 4.92 0 4.84 0 5.4-.72.84-1.08 4.8-7.12 5.92-9 .96-1.72 1.88-3.76 2.4-5.4.44-1.4.52-4.36.12-5.88Zm-8.72 5.44c-1.12.48-1.92.48-3.12.12-1.32-.48-1.72-2.6-1.32-3.8.2-.8.84-1.36 1.76-1.56 1-.32 1.76-.24 2.68.2 1.64.84 1.64 4.16 0 5.04Zm32.442-5.24c-.48-1.68-1.6-3.64-2.68-4.72-1.28-1.28-2.92-2.24-4.4-2.52-2.04-.44-3.32-.48-4.64-.32-1.88.28-2.84.56-3.76 1.04-1.28.68-1.76 1.04-2.68 2-1.4 1.48-2.28 3.4-3.04 6.72-.24 1.04-.28 3.68-.28 4.56 0 1.04-.04 4.04.8 6.8.52 1.76 1.6 3.68 2.68 4.76.92.92 1.36 1.24 2.68 1.96.84.44 1.84.64 3.68.92.64.12 1.44.16 1.8.08 3.48-.36 5.44-1.16 7.24-3.16 1.4-1.44 2.52-3.36 3.12-6.72.36-2 .28-4.08.28-5.84 0-.88-.12-3.16-.8-5.56Zm-7.72 8.04c-.08 1.32-.16 1.92-.36 2.36-.36.84-1.04 1.52-1.76 1.76-.32.16-.68.24-.84.24-.84 0-1.88-.96-2.24-2.04-.4-1.36-.28-6.32.2-7.48.24-.6 1.04-1.36 1.6-1.52 1.12-.36 2.44.44 3.08 1.8.4.76.44 2.24.32 4.88Zm19.048 7.88c-.44-1.12-.6-1.36-1.16-1.96-.88-.92-1.52-1.16-2.88-1.12-1 .04-1.24.08-2.08.52-.76.36-1.08.6-1.36 1.04-.76 1.08-.84 1.36-.84 2.56 0 1.28.2 1.8 1.04 2.76.6.68 1.28 1 2.28 1.08.52.04.8.12.8.24 0 .4-1.44 1.8-2.36 2.36-.36.2-.72.44-.8.52-.16.2.16 1.84.4 2.12.24.28 1.08.12 2.04-.32 4.04-1.88 6.28-6.32 4.92-9.8Zm10.947-1.04c-.48-1-1.28-1.8-2.16-2.24-.6-.28-.88-.32-1.96-.32-1.24 0-1.28 0-2.12.48-1.64.92-2.44 2.08-2.52 3.76-.04 1.28.12 1.88.84 2.84.64.84 1.4 1.32 2.52 1.68.6.2 2.24.16 2.8-.08.72-.28 1.84-1.12 2.12-1.56.72-1.16.88-1.68.88-2.76 0-.88-.04-1.12-.4-1.8Zm23.177-15.84c-.12-.88-.64-2.28-1.16-3.04-.8-1.2-2.56-2.48-4.12-3-3.76-1.28-7.96-.84-10.84 1.12-.8.52-2 1.76-2.84 2.92-.24.4-.56.68-.6.72-.2.08-.8 1.4-.8 1.8 0 .2.12.44.24.52.32.32 2.6 1.56 4.56 2.52 2.08 1.04 1.88 1.08 2.8-.32.64-.96.96-1.32 1.72-1.68.88-.44 1.4-.48 1.84-.08.32.28.4.44.4.84 0 .56-.68 1.68-3.04 4.8-.68 1-1.4 2.12-1.6 2.56-.68 1.52-.88 2.64-.48 2.88.16.08 1.56.16 3.52.16h3.28l.44-.72c.48-.84 1.28-1.72 2.84-3.24.6-.6 1.04-1.28 1.16-1.4l.76-1c1.28-1.68 2.12-4.52 1.92-6.36Zm-8.4 14.68c-.6-.32-1.96-.52-2.56-.44-1.04.2-2.32 1-2.84 1.8-1.6 2.4-.52 5.24 2.4 6.2.52.16 2.12 0 2.68-.28 1.92-.92 2.84-3.2 2.12-5.12-.32-.84-1.08-1.8-1.8-2.16Zm19.772-20.48c-.08-.28-.16-.32-1.72-.36-2.8-.08-6.44 0-6.8.12-.4.12-.44.92-.4 5.72.04 2.68.12 5.16.16 5.56l.28 3.08c.28 2.96.4 3.8.72 4.16.24.24.44.24 3.28.28 1.72.04 3.16 0 3.36-.08.28-.12.32-.24.52-1.52.24-1.52.56-4.68.68-7.08.12-2.32.08-9.52-.08-9.88Zm-4.04 20.16c-.88-.08-1-.04-1.8.36-1.64.8-2.4 2.16-2.32 4 .04.88.12 1.04.6 1.76.48.8.72.96 1.88 1.56.52.28 2.28.28 2.96-.04 1.96-.92 2.88-3.36 2.04-5.32-.64-1.48-1.72-2.2-3.36-2.32Zm27.626-15.32c-.04-.08-.32-.56-.56-1.04-.96-1.76-.96-1.76-1.44-1.76-.24 0-.48.04-.56.12-.08.04-.36.24-.64.4-1.08.56-2.8 1.64-3.08 1.88-.16.16-.56.4-.84.6l-.56.28v-1.68c-.04-.92-.04-2.08 0-2.64 0-1.12-.2-1.44-.88-1.44-2.48-.04-3.52.08-3.72.48-.08.12-.12 1.2-.12 2.6 0 1.28-.04 2.36-.08 2.36s-.28-.16-.56-.32c-.28-.2-.76-.48-1.12-.68-.36-.16-.88-.48-1.2-.68-.52-.32-.76-.44-2.12-1.2-.48-.28-.56-.28-.84-.16-.16.12-.44.44-.64.8-.72 1.36-1.32 2.64-1.28 2.8.04.08.64.44 1.36.84l3 1.68 1.68 1-1.16.64c-.6.36-1.68.92-2.32 1.24-2.24 1.16-2.4 1.28-2.48 1.48-.04.12.16.56.52 1.12.32.52.72 1.2.88 1.52.56 1.08 1.04 1.32 1.64.84.2-.16 1.36-.84 2.4-1.36.4-.2.96-.52 1.24-.72 1.04-.64.96-.64.96-.04v2.96c-.04 1.6 0 2.4.12 2.44.04.08.24.12.44.16l.32.08h1.72c1.2-.04 1.76-.08 1.84-.2.12-.12.2-.96.24-3.28l.08-3.16 1.72 1.16c2.44 1.6 2.72 1.76 2.84 1.76.04 0 .16.08.24.2.08.08.28.16.4.16.24 0 .48-.28 1.28-1.44 1.04-1.52 1.12-1.68.92-2.08-.12-.24-1.08-.92-1.64-1.24-.24-.12-.64-.4-.96-.64-.28-.2-.68-.48-.84-.52a4.63 4.63 0 0 1-.64-.44c-.2-.12-.48-.32-.6-.36-.52-.2-.48-.24 1.4-1.28.28-.12.56-.32.68-.44.12-.08.24-.16.32-.16.08 0 .16-.08.16-.12 0-.08.04-.12.16-.12.08 0 .28-.12.44-.24.36-.28 1-.64 1.48-.88.2-.08.4-.24.44-.32.12-.2.08-.8-.04-.96Zm24.755 6.2c-.16-.28-.28-.28-2.16-.28-7.76-.04-8.68-.08-9.96-.56-1-.4-1.36-.8-1.4-1.72 0-.84.28-1.16 1.44-1.68.76-.4.84-.4 2.56-.4 1.8 0 2.8.12 4.32.56 1.36.36 1.48.36 1.72 0 .16-.2.24-.48.24-.72-.04-.24 0-1.36.08-2.48l.08-2.44c-.04-.48-.36-.88-.6-.88-.08 0-.48-.16-.84-.36-.32-.24-.88-.44-1.2-.44-.28-.04-.84-.16-1.24-.24-.32-.12-.96-.2-1.32-.24-.36-.04-1.08-.12-1.6-.2-.92-.12-1.04-.12-2.4.04-2.84.36-4.68 1.2-6.32 2.88-1.72 1.76-2.72 4.68-2.32 6.84.24 1.36.68 2.12 2.16 3.6l.52.52-.6.36c-.36.2-.84.6-1.12.84-.48.44-1.52 1.96-1.64 2.48-.36 1.28-.44 1.76-.44 2.56 0 1.4.4 2.96.92 4 .84 1.56 2.72 3.24 4.48 4 .36.16.72.36.84.4.24.08 1.2.32 2.08.48 1.88.32 6.32.04 8.52-.56 2.04-.56 2.56-.84 2.68-1.36.12-.48.16-2.68.12-7.08v-2.44l.96.04c1.64.04 1.6.12 1.6-2.8.04-1.92 0-2.52-.16-2.72Zm-9.28 10.12s-.64.08-1.4.12c-1.2.12-1.4.08-2.08-.12-.6-.24-.84-.36-1.12-.8-.36-.44-.44-.64-.44-1.2 0-1.12.68-1.96 1.96-2.36.52-.16 2.96-.24 3.08-.08.04.04.04 4.36 0 4.44Z"/></svg>