<svg xmlns="http://www.w3.org/2000/svg" width="928" height="465" fill="none"><path fill="#3A8283" d="M0 .5h928v464H0z"/><path fill="#fff" fill-opacity=".81" d="m296.035 128.543.703-.703c.352-.235.586-.41.703-.528.821-.468 4.629-2.285 11.426-5.449h.176c3.398-1.523 6.094-2.871 8.086-4.043 2.812-1.523 4.746-2.754 5.801-3.691.703-24.61-.41-41.953-3.34-52.031-.586-2.227-1.348-4.16-2.285-5.801-.235-.117-.469-.352-.703-.703-.469 0-.938.175-1.407.527-1.406.82-3.34 2.695-5.8 5.625-7.735 8.906-12.129 26.719-13.184 53.438-.117 2.812-.176 7.265-.176 13.359Zm-10.019 48.164c-1.758-16.758-2.637-32.871-2.637-48.34 0-4.687.059-9.258.176-13.711.468-12.773 1.875-24.14 4.218-34.101 2.696-11.836 6.622-20.801 11.778-26.895 3.047-3.75 6.152-6.562 9.316-8.437 2.578-1.524 5.156-2.285 7.735-2.285.82 0 1.699.058 2.636.175 3.399.703 6.211 2.754 8.438 6.153 1.406 1.992 2.754 5.039 4.043 9.14 2.695 9.375 4.043 24.14 4.043 44.297 0 3.75-.059 7.676-.176 11.777-.117 10.899-.645 23.086-1.582 36.563 0 1.055-.117 2.637-.352 4.746-.117 2.227-.234 3.926-.351 5.098-.352 3.984-.528 6.738-.528 8.261-.351 5.625-.527 8.79-.527 9.493 0 1.757-.644 3.222-1.934 4.394-1.289 1.289-2.753 1.934-4.394 1.934-1.875 0-3.398-.645-4.57-1.934-1.172-1.172-1.758-2.637-1.758-4.394 0-.821.176-4.278.527-10.371 0-1.875.176-4.571.528-8.086.234-2.344.468-5.684.703-10.02.468-7.383.82-14.355 1.054-20.918-1.757.82-4.511 2.168-8.261 4.043h-.176c-4.922 2.227-8.262 3.926-10.02 5.098-3.164 1.64-5.683 3.574-7.558 5.801.351 9.257 1.113 19.628 2.285 31.113.117 1.64-.352 3.164-1.406 4.57-1.055 1.406-2.461 2.227-4.219 2.461-1.641.234-3.164-.234-4.57-1.406-1.407-1.172-2.227-2.578-2.461-4.219Zm91.933-60.469c-5.508 4.805-10.429 10.547-14.765 17.227-4.454 6.68-7.266 12.949-8.438 18.808-1.172 6.329-.469 10.782 2.109 13.36 1.993 1.758 4.395 2.871 7.207 3.34 3.282.703 7.208.879 11.778.527.117-.469.176-1.172.176-2.109.117-.938.175-1.7.175-2.286 0-2.46.235-7.324.704-14.589.703-13.36 1.054-24.786 1.054-34.278ZM341.738 86.18c0-5.743.352-10.371 1.055-13.887 1.055-5.39 2.754-10.078 5.098-14.063 2.343-3.515 4.218-5.917 5.625-7.207 2.461-2.109 5.507-3.515 9.14-4.218 1.406-.352 2.754-.528 4.043-.528 4.805 0 8.906 1.992 12.305 5.977 3.516 3.984 6.035 9.61 7.558 16.875 2.696 10.312 4.043 24.375 4.043 42.187v4.571c0 9.843-.351 21.621-1.054 35.332-.469 7.148-.703 11.953-.703 14.414a89.02 89.02 0 0 0-.528 9.844c0 1.64-.586 3.105-1.758 4.394-1.289 1.289-2.753 1.934-4.394 1.934-.117 0-.293-.059-.527-.176h-1.055c-3.516.469-6.797.703-9.844.703-9.844 0-17.344-2.52-22.5-7.559-4.57-4.335-6.855-9.843-6.855-16.523 0-2.695.351-5.625 1.054-8.789 1.875-8.203 5.918-16.816 12.129-25.84 6.328-9.023 13.36-16.172 21.094-21.445.469-.352 1.172-.645 2.109-.879-.351-12.305-1.464-22.09-3.339-29.356-1.407-5.39-3.047-9.199-4.922-11.425-1.055-1.407-2.461-1.934-4.219-1.582-1.523.351-2.637.82-3.34 1.406-.703.703-1.758 2.226-3.164 4.57-2.93 4.805-4.394 11.895-4.394 21.27 0 1.64-.645 3.105-1.934 4.394-1.289 1.29-2.754 1.934-4.395 1.934-1.757 0-3.222-.645-4.394-1.934-1.289-1.289-1.934-2.754-1.934-4.394ZM285.508 257.898l.156-.156c.078-.052.13-.091.156-.117.183-.104 1.029-.508 2.539-1.211h.039a18.806 18.806 0 0 0 1.797-.898c.625-.339 1.055-.612 1.289-.821.157-5.468-.091-9.323-.742-11.562a5.275 5.275 0 0 0-.508-1.289.441.441 0 0 1-.156-.156.519.519 0 0 0-.312.117c-.313.182-.743.599-1.289 1.25-1.719 1.979-2.696 5.937-2.93 11.875a79.76 79.76 0 0 0-.039 2.968Zm-2.227 10.704a103.235 103.235 0 0 1-.547-13.79c.105-2.838.417-5.364.938-7.578.599-2.63 1.471-4.622 2.617-5.976.677-.834 1.367-1.459 2.07-1.875.573-.339 1.146-.508 1.719-.508.182 0 .378.013.586.039.755.156 1.38.612 1.875 1.367.313.443.612 1.12.899 2.031.598 2.084.898 5.365.898 9.844 0 .834-.013 1.706-.039 2.617a139.104 139.104 0 0 1-.352 8.125c0 .235-.026.586-.078 1.055-.026.495-.052.873-.078 1.133-.078.885-.117 1.497-.117 1.836a73.01 73.01 0 0 0-.117 2.109c0 .391-.144.716-.43.977-.286.286-.612.43-.977.43-.416 0-.755-.144-1.015-.43a1.324 1.324 0 0 1-.391-.977c0-.182.039-.95.117-2.304 0-.417.039-1.016.118-1.797a52.49 52.49 0 0 0 .156-2.227c.104-1.641.182-3.19.234-4.648-.39.182-1.002.481-1.836.898h-.039c-1.094.495-1.836.873-2.226 1.133-.704.365-1.263.794-1.68 1.289.078 2.057.247 4.362.508 6.914.026.365-.078.703-.313 1.016a1.355 1.355 0 0 1-.937.547c-.365.052-.703-.053-1.016-.313-.312-.26-.495-.573-.547-.937Zm15.313-2.735a17.595 17.595 0 0 0 1.718-1.719c1.771-1.875 3.139-3.58 4.102-5.117 1.172-1.771 1.719-3.138 1.641-4.101 0-.261-.117-.482-.352-.664-.338-.261-.963-.391-1.875-.391-.859-.026-1.797.143-2.812.508-.677.286-1.498.703-2.461 1.25.026 2.083.039 5.495.039 10.234Zm-.078-13.633c1.692-1.328 2.968-2.747 3.828-4.257.807-1.485 1.237-2.748 1.289-3.789.026-.73-.143-1.29-.508-1.68-.885-.86-2.5-1.107-4.844-.742.104 4.531.183 8.02.235 10.468Zm-1.563-13.086c1.172-.234 2.253-.351 3.242-.351 2.11 0 3.737.573 4.883 1.719.99.989 1.445 2.252 1.367 3.789-.026 1.432-.573 3.099-1.64 5a14.738 14.738 0 0 1-1.172 1.757h.273c1.511.053 2.656.365 3.438.938.911.677 1.406 1.576 1.484 2.695a.87.87 0 0 1 .039.274c0 1.562-.716 3.424-2.148 5.586-1.068 1.718-2.526 3.554-4.375 5.507-1.537 1.641-2.761 2.774-3.672 3.399-.365.234-.729.312-1.094.234h-.234a.638.638 0 0 1-.156.039c-.365 0-.691-.143-.977-.429a1.416 1.416 0 0 1-.391-.977c0-11.484-.13-20.625-.39-27.422v-.117c0-.547.26-.937.781-1.172a1.52 1.52 0 0 1 .742-.469Zm21.953 9.375c-.026-.911-.104-1.705-.234-2.382-.182-.756-.43-1.381-.742-1.875-.339-.469-.664-.808-.977-1.016-.234-.156-.404-.234-.508-.234-.26 0-.586.247-.976.742-1.12 1.536-1.966 4.219-2.539 8.047-.547 3.854-.56 7.265-.039 10.234.26 1.51.625 2.643 1.093 3.399.339.651.743 1.002 1.211 1.054.677.078 1.485-.638 2.422-2.148.443-.808.912-1.953 1.406-3.438.079-.208.144-.377.196-.508.052-.156.091-.299.117-.429l.117-.352c.208-.599.365-1.015.469-1.25a1.66 1.66 0 0 1 .781-.742 1.35 1.35 0 0 1 1.055-.039c.364.182.612.443.742.781.078.182.117.365.117.547a1.6 1.6 0 0 1-.078.508c-.026.078-.169.443-.43 1.094l-.429 1.289c-.339.989-.573 1.64-.703 1.953a14.691 14.691 0 0 1-.977 2.031c-.573.938-1.185 1.706-1.836 2.305-.859.781-1.797 1.172-2.812 1.172a3.86 3.86 0 0 1-.547-.039c-1.354-.157-2.448-.938-3.282-2.344-.625-1.146-1.093-2.604-1.406-4.375a28.654 28.654 0 0 1-.429-5.078c0-1.875.169-3.881.507-6.016.573-4.271 1.576-7.37 3.008-9.297.964-1.276 2.057-1.914 3.281-1.914h.078c1.329.078 2.54.886 3.633 2.422.599.859.99 1.849 1.172 2.969.104.521.209 1.458.313 2.812a1.32 1.32 0 0 1-.352 1.016 1.4 1.4 0 0 1-.976.469c-.391.026-.717-.092-.977-.352a1.543 1.543 0 0 1-.469-1.016Zm7.617 15.899c.73-1.198 1.211-2.031 1.446-2.5a40.817 40.817 0 0 0 3.125-7.266c.833-2.76 1.146-5.117.937-7.07-.156-2.109-.911-3.685-2.265-4.727-.99-.755-1.927-1.132-2.813-1.132-.052 4.14-.13 8.411-.234 12.812a641.53 641.53 0 0 0-.196 9.883Zm-1.328-25.234a5.093 5.093 0 0 1 1.758-.313c.547 0 1.107.091 1.68.273.963.287 1.914.782 2.851 1.485 2.006 1.588 3.125 3.828 3.36 6.719.026.39.039.794.039 1.21 0 2.084-.391 4.389-1.172 6.915-.729 2.474-1.81 5.065-3.242 7.773-1.198 2.214-2.448 4.154-3.75 5.82-.287.365-.651.547-1.094.547h-.508c-.39 0-.716-.143-.976-.429a1.265 1.265 0 0 1-.43-.977c0-3.438.078-8.034.234-13.789.157-6.849.235-11.419.235-13.711 0-.234.052-.443.156-.625.13-.469.417-.768.859-.898Zm13.399.39a9.41 9.41 0 0 1 1.758-.156h.312c.417 0 1.003.039 1.758.117.312 0 .534.013.664.039h.625c.26.026.443.039.547.039.364 0 .69.13.976.391.287.26.43.586.43.976 0 .391-.143.717-.43.977-.286.286-.612.43-.976.43h-.625a9.303 9.303 0 0 0-.703-.039 1.018 1.018 0 0 0-.313-.04 2.346 2.346 0 0 0-.351-.039c-1.068-.052-1.706-.065-1.914-.039h-.586a153.61 153.61 0 0 0-.352 6.289c.912-.078 1.992-.299 3.242-.664a1.17 1.17 0 0 1 1.055.118c.338.182.56.455.664.82.104.364.065.716-.117 1.055a1.463 1.463 0 0 1-.82.703c-1.615.442-3.008.703-4.18.781 0 .338-.013.859-.039 1.562a43.486 43.486 0 0 0-.039 1.524c-.131 5.026-.039 8.997.273 11.914a50.22 50.22 0 0 1 2.383-.391l.82-.117a.436.436 0 0 1 .196-.039.642.642 0 0 1 .195-.039h.234c.104-.026.17-.039.196-.039.416-.052.807-.104 1.171-.156.391-.052.73.039 1.016.273.313.261.495.573.547.938a.434.434 0 0 1 .039.195c0 .286-.104.56-.312.82a1.088 1.088 0 0 1-.899.547c-.13.026-.534.091-1.211.195-.026 0-.104.013-.234.039h-.391c-.104.027-.169.04-.195.04-.209.026-.469.065-.781.117-1.355.182-2.487.39-3.399.625a1.367 1.367 0 0 1-.43.078c-.442 0-.807-.208-1.093-.625a1.115 1.115 0 0 1-.43-.82c-.365-2.344-.547-5.586-.547-9.727 0-1.224.013-2.526.039-3.906a383.1 383.1 0 0 1 .703-12.93c-.026-.026-.039-.052-.039-.078-.13-.651.078-1.159.625-1.524.287-.182.599-.26.938-.234Zm9.492-.312c1.016-.235 2.279-.378 3.789-.43h2.656c.365 0 .69.13.977.391.286.286.43.625.43 1.015 0 .365-.144.69-.43.977-.287.286-.612.429-.977.429H351.953c-.963.053-1.693.105-2.187.157 0 2.526-.013 4.609-.039 6.25.078-.026.208-.052.39-.078.182-.026.352-.053.508-.079.182-.078.352-.13.508-.156.078 0 .169-.013.273-.039a112.76 112.76 0 0 1 1.641-.312c.651-.079 1.25-.118 1.797-.118.416 0 .755.131 1.015.391.261.287.391.625.391 1.016 0 .364-.13.69-.391.976-.26.287-.599.43-1.015.43-.677 0-1.641.13-2.891.391a.346.346 0 0 0-.156.039h-.117c-.912.182-1.576.286-1.992.312-.027.417-.04 1.029-.04 1.836a62.282 62.282 0 0 0-.039 1.875l-.078 4.414c-.052 4.74-.078 7.774-.078 9.102 0 .39-.13.716-.391.976a1.455 1.455 0 0 1-1.015.391c-.365 0-.69-.13-.977-.391a1.265 1.265 0 0 1-.429-.976c0-1.354.026-4.401.078-9.141l.078-4.453c.052-2.344.078-3.867.078-4.57-.026-.079-.039-.222-.039-.43 0-.026.013-.078.039-.156v-.196c.052-2.239.078-4.948.078-8.125v-.195c-.052-.338.039-.651.274-.937.234-.313.52-.508.859-.586Zm14.492 14.726c.13-.026.339-.065.625-.117.287-.078.56-.143.82-.195a89.882 89.882 0 0 1 3.868-.703c.39-.053.742.039 1.054.273.313.234.495.547.547.938v.195c0 .495-.234.885-.703 1.172.469 3.932.273 7.018-.586 9.257-.417 1.172-1.015 2.084-1.797 2.735-.755.651-1.614.976-2.578.976-1.797 0-3.359-1.041-4.687-3.125-1.276-2.005-1.953-4.466-2.032-7.382v-.821c0-.859.026-1.966.079-3.32.13-2.396.364-4.44.703-6.133.39-2.422 1.002-4.31 1.836-5.664.546-.911 1.158-1.549 1.835-1.914.626-.338 1.25-.508 1.876-.508.312 0 .638.052.976.156.547.105 1.068.43 1.563.977.338.365.625.781.859 1.25 1.12 2.318 1.562 4.662 1.328 7.031a1.266 1.266 0 0 1-.469.938c-.312.26-.651.377-1.015.351a1.346 1.346 0 0 1-.977-.507c-.26-.313-.364-.651-.312-1.016.156-1.875-.196-3.737-1.055-5.586-.078-.156-.221-.339-.43-.547l-.195-.195v-.039c-.313-.052-.56-.026-.742.078-.287.156-.573.482-.86.976-.573.938-1.08 2.513-1.523 4.727a55.557 55.557 0 0 0-.586 5.781c-.078 1.745-.104 3.047-.078 3.907.026 2.395.547 4.388 1.562 5.976.756 1.198 1.537 1.797 2.344 1.797.261 0 .534-.104.82-.313.339-.312.651-.833.938-1.562.651-1.849.807-4.427.469-7.734-.052.026-.521.143-1.407.351-.963.182-1.484.287-1.562.313a1.544 1.544 0 0 1-1.055-.235 1.352 1.352 0 0 1-.586-.898c-.078-.365 0-.703.235-1.016.208-.338.508-.547.898-.625Zm20.742-13.476c.078 1.614.091 3.515.039 5.703.339-.104.664-.065.977.117.338.156.573.404.703.742a1.6 1.6 0 0 1 .078.508c0 .182-.039.365-.117.547-.156.364-.43.612-.82.742l-.938.352c-.026.937-.143 3.242-.351 6.914v.586c-.339 4.895-.508 8.776-.508 11.64 0 .391-.13.716-.391.977-.26.286-.599.429-1.015.429-.365 0-.691-.143-.977-.429a1.328 1.328 0 0 1-.391-.977c0-2.89.157-6.823.469-11.797v-.586c.026-.599.13-2.422.313-5.468-.131.052-.534.247-1.211.586l-1.719.859a.454.454 0 0 1-.117.078c-.443.234-1.016.521-1.719.859-.677.339-1.159.573-1.445.704 0 .286-.013.507-.039.664-.235 5.338-.105 9.752.39 13.242.052.416-.039.768-.273 1.054a1.325 1.325 0 0 1-.899.547 1.486 1.486 0 0 1-1.054-.234 1.348 1.348 0 0 1-.547-.937c-.521-3.594-.651-8.112-.391-13.555a1.505 1.505 0 0 1-.742-.703 1.385 1.385 0 0 1-.117-.547c0-.182.039-.365.117-.547.13-.365.378-.612.742-.742.052-.052.104-.078.156-.078.026-.704.144-2.344.352-4.922.104-1.406.195-2.761.273-4.063.079-1.276.131-2.018.157-2.226.026-.365.182-.677.468-.938a1.263 1.263 0 0 1 1.016-.39c.365.026.69.195.977.507.26.287.377.612.351.977a499.72 499.72 0 0 1-.469 6.328 222.859 222.859 0 0 1-.234 3.32c.365-.182.925-.455 1.68-.82.052-.052.104-.078.156-.078 1.094-.547 2.227-1.12 3.398-1.719.339-.13.625-.26.86-.39a96.333 96.333 0 0 0 0-6.719 1.263 1.263 0 0 1 .39-1.016c.287-.286.612-.443.977-.469.365 0 .69.144.977.43.286.261.442.573.468.938Zm3.711-.782c.026 0 .274-.026.742-.078 1.25-.182 1.928-.273 2.032-.273.833 0 1.471.026 1.914.078.364.052.664.234.898.547.261.312.365.651.313 1.015a1.567 1.567 0 0 1-.547.938 1.327 1.327 0 0 1-1.016.273 6.32 6.32 0 0 0-.82-.039c-.313 2.631-.495 6.641-.547 12.032-.026 5.364.104 9.544.391 12.539a16.89 16.89 0 0 1 1.367-.039c.364 0 .69.143.976.429.287.261.43.586.43.977 0 .364-.143.69-.43.976-.286.287-.612.43-.976.43-1.406 0-2.682.13-3.828.391a1.825 1.825 0 0 1-.352.039c-.234 0-.482-.078-.742-.235a1.328 1.328 0 0 1-.586-.859c-.13-.365-.078-.716.156-1.055.209-.338.495-.547.86-.625h.156a.423.423 0 0 0 .156-.078c-.286-2.969-.417-7.083-.39-12.344.026-5.286.195-9.401.507-12.343a.346.346 0 0 0-.156.039.434.434 0 0 0-.195.039 1.397 1.397 0 0 1-1.016-.313 1.326 1.326 0 0 1-.547-.898v-.235c0-.312.091-.598.274-.859a1.4 1.4 0 0 1 .976-.469Zm10.899.078c.416.027.924.027 1.523 0 .495-.052 1.068-.117 1.719-.195.651-.13 1.211-.208 1.68-.234h.156a.638.638 0 0 1 .156-.039 1.6 1.6 0 0 1 .508-.078c.13 0 .26.013.39.039.391.026.704.182.938.468.26.261.391.573.391.938v.273c.885 1.98 1.445 4.506 1.679 7.578.104 1.303.17 3.152.196 5.547 0 .131.013.3.039.508v1.133c0 5.312-.86 9.062-2.578 11.25-.886 1.094-1.928 1.771-3.125 2.031a6.695 6.695 0 0 1-1.016.078c-.833 0-1.654-.234-2.461-.703-1.016-.573-1.862-1.393-2.539-2.461a9.642 9.642 0 0 1-1.328-3.593 13.841 13.841 0 0 1-.078-1.446c0-2.5 1.028-4.791 3.086-6.875.26-.286.586-.429.976-.429.391 0 .716.143.977.429.312.261.469.586.469.977 0 .39-.157.716-.469.976-1.745 1.823-2.474 3.815-2.188 5.977.261 1.901 1.094 3.229 2.5 3.984 1.094.651 2.084.43 2.969-.664.625-.755 1.107-1.914 1.445-3.476.417-1.875.612-4.115.586-6.719 0-.078-.013-.208-.039-.391v-.547c-.026-2.369-.104-4.153-.234-5.351-.209-2.682-.664-4.883-1.367-6.602a58.24 58.24 0 0 0-1.329.157c-.729.13-1.367.208-1.914.234-.625.052-1.341.039-2.148-.039a1.37 1.37 0 0 1-.898-.508 1.386 1.386 0 0 1-.274-1.055c.052-.39.234-.703.547-.937a1.489 1.489 0 0 1 1.055-.235Zm23.984 2.5c-.286.678-.807 1.993-1.562 3.946-.625 1.719-1.172 3.047-1.641 3.984a19.81 19.81 0 0 1-2.422 3.946c-.312.416-1.068 1.354-2.266 2.812l-.117.117a.611.611 0 0 1-.156.117c-.365.495-.586.782-.664.86 0 .026.026.039.078.039.573.312 1.602.82 3.086 1.523.156.052.286.104.391.156.312.157.599.274.859.352.078.052.208.117.391.195.078.026.208.092.39.196.625.234 1.133.468 1.524.703 1.119.495 1.81.846 2.07 1.054.313.235.495.547.547.938a1.093 1.093 0 0 1-.234 1.016c-.261.338-.586.533-.977.586a1.328 1.328 0 0 1-1.016-.274h-.039c-.026-.026-.052-.039-.078-.039-.026 0-.078-.039-.156-.117a1.908 1.908 0 0 0-.195-.117 6.135 6.135 0 0 1-.469-.196 5.038 5.038 0 0 0-.664-.312c-.183-.104-.677-.326-1.485-.664a2.642 2.642 0 0 0-.39-.195c-.052-.053-.183-.131-.391-.235a17.127 17.127 0 0 0-.82-.351 1.883 1.883 0 0 1-.43-.196c-1.588-.729-2.669-1.25-3.242-1.562-.026 0-.052-.013-.078-.039v.468c.026 2.214.039 4.415.039 6.602 0 .391-.13.716-.391.977a1.389 1.389 0 0 1-1.015.429c-.365 0-.69-.143-.977-.429a1.328 1.328 0 0 1-.391-.977c0-2.187-.013-4.388-.039-6.602v-6.015c0-6.094.078-10.807.235-14.141.026-.39.182-.716.469-.976a1.11 1.11 0 0 1 .859-.391c.052 0 .091.013.117.039.365.026.677.169.938.43.26.286.39.612.39.976-.156 3.334-.234 8.021-.234 14.063v.273l.078-.078c1.38-1.667 2.135-2.591 2.266-2.773a16.474 16.474 0 0 0 2.109-3.438c.312-.599.833-1.836 1.562-3.711.625-1.745 1.172-3.125 1.641-4.14.156-.339.417-.573.781-.703a1.34 1.34 0 0 1 1.055.039c.339.156.573.416.703.781.156.364.143.716-.039 1.054Zm5.43-1.64c-.573 3.047-.834 7.864-.782 14.453 0 2.292.027 4.401.079 6.328.026 1.849.039 3.633.039 5.352 1.276-.078 2.187-.131 2.734-.157.234-.026.456-.039.664-.039a46.955 46.955 0 0 1 2.93-.117c.39 0 .729.13 1.015.391.261.26.391.599.391 1.015 0 .365-.13.691-.391.977a1.46 1.46 0 0 1-1.015.391c-1.042 0-1.953.026-2.735.078-.026 0-.247.026-.664.078-1.614.104-2.838.156-3.671.156h-.821c-.364 0-.677-.143-.937-.43a1.386 1.386 0 0 1-.43-1.015 3.98 3.98 0 0 0 .117-.274c.026-.13.039-.221.039-.273 0-1.745-.013-3.776-.039-6.094a160.273 160.273 0 0 1-.117-6.367v-.898c0-6.146.273-10.821.82-14.024.052-.364.235-.664.547-.898a1.24 1.24 0 0 1 .781-.274c.079 0 .17.013.274.039.364.052.664.248.898.586.235.313.326.651.274 1.016Zm8.789 27.344c-.052-.938-.117-2.8-.195-5.586-.131-3.828-.196-6.42-.196-7.774v-2.187c0-2.839.091-5.209.274-7.11.104-1.38.26-2.5.468-3.359.131-.521.287-.938.469-1.25.313-.573.742-.924 1.289-1.055.573-.208 1.133-.078 1.68.391.208.156.39.404.547.742 0 .026.013.078.039.156a.462.462 0 0 0 .078.118c.026.052.052.117.078.195.833 1.771 1.589 4.167 2.266 7.187.052.157.104.417.156.782.078.364.13.573.156.625.287-1.537.599-2.93.938-4.18.677-2.63 1.354-4.44 2.031-5.43.286-.416.547-.729.781-.937.391-.261.794-.391 1.211-.391h.313c.546.078 1.002.352 1.367.82.234.235.456.625.664 1.172.417.886.625 2.006.625 3.36v1.914a5.468 5.468 0 0 0-.039.586c-.026 1.015-.195 3.346-.508 6.992a26.972 26.972 0 0 0-.117 1.719c-.052.651-.091 1.119-.117 1.406-.313 4.505-.3 8.021.039 10.547.052.39-.026.742-.235 1.054a1.323 1.323 0 0 1-.898.547c-.417.026-.781-.065-1.094-.273a1.378 1.378 0 0 1-.508-.899c-.39-2.578-.416-6.302-.078-11.171.026-.209.065-.651.117-1.329.052-.703.105-1.315.157-1.836.26-3.75.403-6.041.429-6.874 0-.131.013-.326.039-.586v-1.719c0-.651-.065-1.276-.195-1.875-.443.911-.872 2.213-1.289 3.906-.495 2.031-.951 4.18-1.367 6.445-.365 2.11-.573 3.399-.625 3.868v.39c0 .261-.091.534-.274.821-.13.182-.312.325-.547.429-.364.209-.755.222-1.171.039-.287-.104-.495-.26-.625-.468a.439.439 0 0 1-.078-.157 1.235 1.235 0 0 0-.118-.156c0-.078-.013-.169-.039-.273a1.199 1.199 0 0 0-.078-.235v-.078l-.039-.039c0-.078-.039-.234-.117-.469a1.643 1.643 0 0 1-.039-.273c-.182-.729-.378-1.55-.586-2.461a1.93 1.93 0 0 0-.117-.586.864.864 0 0 1-.039-.273 1.296 1.296 0 0 1-.039-.313c-.157-.495-.248-.885-.274-1.172-.078-.364-.169-.82-.273-1.367a38.347 38.347 0 0 1-.235-1.016 48.442 48.442 0 0 0-1.289-4.687c-.078.39-.117.794-.117 1.211-.208 2.239-.286 5.247-.234 9.023 0 1.328.052 3.906.156 7.735.026.208.052.52.078.937v.977c0 .078.013.351.039.82v.82c0 .339.013.651.039.938v.742c.026.182.039.325.039.43 0 .364-.13.69-.39.976a1.459 1.459 0 0 1-1.016.391c-.391 0-.716-.13-.977-.391a1.412 1.412 0 0 1-.39-.976Zm16.797.117c.104-1.693.156-3.737.156-6.133 0-1.068-.039-3.125-.117-6.172v-.078a215.007 215.007 0 0 1-.117-6.719v-2.773c.026-.052.052-.117.078-.196v-.82l.117-1.484c.078-1.328.26-2.266.547-2.813.156-.39.39-.664.703-.82.26-.13.521-.195.781-.195.313 0 .612.091.899.273.416.261.781.794 1.093 1.602.078.234.196.742.352 1.523.026.287.104.703.234 1.25.052.339.156.86.313 1.563 1.015 5.156 1.575 7.903 1.679 8.242a97.614 97.614 0 0 0 1.485 6.562c.338 1.12.625 2.084.859 2.891.052-.313.091-.677.117-1.094.157-1.927.183-3.945.079-6.054-.105-1.589-.287-3.62-.547-6.094a37.942 37.942 0 0 1-.079-.938 9.55 9.55 0 0 0-.078-.781c-.338-3.099-.507-5.56-.507-7.383 0-.39.143-.716.429-.976.287-.287.612-.43.977-.43.416 0 .755.143 1.015.43.261.26.391.586.391.976 0 1.719.156 4.089.469 7.11.052.364.104.924.156 1.679.287 2.552.482 4.649.586 6.289a56.66 56.66 0 0 1 .078 2.891c0 1.276-.052 2.461-.156 3.555-.156 1.901-.417 3.242-.781 4.023-.235.651-.586 1.094-1.055 1.328a1.511 1.511 0 0 1-1.211.117 2.659 2.659 0 0 1-.859-.429c-.469-.469-.925-1.315-1.368-2.539-.286-.651-.69-1.927-1.21-3.828-.469-1.823-.99-4.05-1.563-6.68-.104-.573-.286-1.524-.547-2.852-.286-1.328-.521-2.409-.703-3.242 0 1.406.039 3.659.117 6.758v.078c.078 3.099.117 5.182.117 6.25 0 2.578-.065 4.688-.195 6.328a1.362 1.362 0 0 1-.469.938c-.26.234-.56.351-.898.351h-.117c-.365-.026-.677-.195-.938-.508a1.15 1.15 0 0 1-.312-.976Zm18.711-24.258a6.3 6.3 0 0 0-.703 1.523c-.808 2.188-1.237 5.026-1.29 8.516 0 3.49.391 6.393 1.172 8.711.729 2.161 1.537 3.242 2.422 3.242.365 0 .729-.234 1.094-.703.469-.677.859-1.654 1.172-2.93.651-2.708.859-5.872.625-9.492-.261-3.672-.86-6.432-1.797-8.281-.391-.729-.755-1.159-1.094-1.289a.485.485 0 0 0-.273 0c-.209.052-.43.182-.664.39-.209.183-.43.287-.664.313Zm3.125-3.086c.807.469 1.51 1.289 2.109 2.461 1.094 2.161 1.784 5.26 2.07 9.297.078 1.068.117 2.096.117 3.086 0 2.708-.286 5.143-.859 7.305-.417 1.666-.963 2.955-1.641 3.867-.859 1.25-1.966 1.875-3.32 1.875-1.302 0-2.383-.547-3.242-1.641-.755-.859-1.38-2.031-1.875-3.516-.833-2.63-1.25-5.846-1.25-9.648.052-3.698.534-6.849 1.445-9.453.547-1.484 1.198-2.591 1.953-3.32.86-.834 1.81-1.25 2.852-1.25.182 0 .378.013.586.039.521.078.872.377 1.055.898Zm9.296 10.469c.235-.209.56-.521.977-.938 1.563-1.38 2.682-2.656 3.359-3.828.573-.937.795-1.732.664-2.383-.156-.677-.807-1.289-1.953-1.836-.703-.338-1.497-.455-2.382-.351-.026.443-.118 1.68-.274 3.711a188.12 188.12 0 0 0-.391 5.625Zm-.703-11.875a5.182 5.182 0 0 1 1.719-.274h.625a7.067 7.067 0 0 1 2.617.664c1.953.886 3.112 2.136 3.477 3.75.052.313.078.612.078.899 0 1.094-.352 2.252-1.055 3.476-.781 1.329-2.07 2.826-3.867 4.493-.963.859-1.641 1.445-2.031 1.757a4.224 4.224 0 0 1-.43.352 7.894 7.894 0 0 0-.43.391 1.014 1.014 0 0 0-.273.156c-.182 4.713-.052 8.906.391 12.578.052.417-.052.781-.313 1.094a1.38 1.38 0 0 1-.898.508.642.642 0 0 1-.196.039c-.312 0-.599-.105-.859-.313-.312-.26-.482-.573-.508-.937-.312-2.526-.468-5.365-.468-8.516 0-1.589.039-3.268.117-5.039v-.352c.078-1.797.273-4.7.586-8.711.13-1.588.247-3.164.351-4.726.026-.339.169-.625.43-.86.26-.26.573-.403.937-.429Zm16.094 28.945c-.677-.182-1.25-.443-1.719-.781-.963-.651-1.77-1.602-2.422-2.852-1.119-2.109-1.757-4.922-1.914-8.437a61.41 61.41 0 0 1-.039-2.188c0-2.369.196-4.661.586-6.875.599-3.151 1.472-5.234 2.617-6.25.287-.286.678-.403 1.172-.351.313-.183.612-.326.899-.43a4.905 4.905 0 0 1 1.679-.312c.782 0 1.537.208 2.266.625.99.651 1.836 1.653 2.539 3.007 1.172 2.344 1.862 5.43 2.071 9.258.052.781.078 1.537.078 2.266 0 2.812-.326 5.351-.977 7.617-.469 1.589-1.029 2.852-1.68 3.789-.677.833-1.419 1.419-2.226 1.758.364.781.898 1.315 1.601 1.601.391.157.651.404.782.743.156.338.156.703 0 1.093a1.298 1.298 0 0 1-.743.782 1.594 1.594 0 0 1-.507.078c-.183 0-.365-.039-.547-.117-1.276-.495-2.279-1.42-3.008-2.774a39.154 39.154 0 0 1-.508-1.25Zm2.031-5.43v.274c.026.364.052.781.078 1.25.053.469.092.794.118.976.781-.52 1.419-1.692 1.914-3.515.755-2.682 1.028-5.664.82-8.945-.156-3.49-.742-6.211-1.758-8.165-.521-.963-1.028-1.575-1.523-1.835-.443-.287-.964-.339-1.563-.157-.963.365-1.549 1.315-1.758 2.852-.052.599-.364.989-.937 1.172-.026.104-.052.26-.078.468a4.437 4.437 0 0 1-.078.43 35.755 35.755 0 0 0-.508 8.359c.156 3.126.69 5.573 1.601 7.344.339.625.665 1.107.977 1.446 0-.079-.026-.573-.078-1.485a.864.864 0 0 1-.039-.273 1.323 1.323 0 0 1 .351-1.016c.261-.286.586-.443.977-.469.365-.026.703.079 1.016.313.286.26.442.586.468.976Zm10.274-11.25.547-.546c1.38-1.329 2.343-2.474 2.89-3.438.756-1.172 1.081-2.2.977-3.086-.078-.781-.443-1.51-1.094-2.187-.833-.886-1.901-1.263-3.203-1.133a296.523 296.523 0 0 0-.117 8.594v1.796Zm-1.797-12.89a9.894 9.894 0 0 1 2.539-.352c.417 0 .82.039 1.211.117 1.302.261 2.448.912 3.437 1.954 1.068 1.145 1.68 2.395 1.836 3.75.157 1.614-.312 3.268-1.406 4.961-.807 1.223-1.914 2.539-3.32 3.945a101.01 101.01 0 0 0-1.602 1.562c0 .026.026.078.078.157a.3.3 0 0 0 .039.117c.183.338.417.807.704 1.406 1.041 1.875 1.705 3.047 1.992 3.516.338.599.716 1.263 1.133 1.992.807 1.224 1.432 2.109 1.875 2.656.234.287.468.521.703.703.078.078.143.117.195.117.365.105.638.313.82.625.131.235.196.469.196.704V267a1.676 1.676 0 0 1-.625.898 1.413 1.413 0 0 1-1.016.235c-.469-.104-.924-.352-1.367-.742a6.747 6.747 0 0 1-1.055-1.055c-.547-.677-1.237-1.667-2.07-2.969-.313-.521-.729-1.211-1.25-2.07-.391-.703-.794-1.432-1.211-2.188v.196c.026 1.484.039 2.955.039 4.414.026 1.041.039 2.474.039 4.297 0 .364-.13.69-.391.976a1.409 1.409 0 0 1-.976.391c-.417 0-.755-.13-1.016-.391a1.412 1.412 0 0 1-.39-.976c0-1.797-.013-3.217-.04-4.258 0-1.459-.013-2.93-.039-4.414 0-.495-.013-1.146-.039-1.953v-1.641c-.156-.234-.221-.469-.195-.703 0-.235.065-.456.195-.664v-4.531c0-3.516.052-6.524.157-9.024a3.015 3.015 0 0 1-.157-.39 1.357 1.357 0 0 1 .118-1.055c.208-.313.494-.521.859-.625Zm20.586 3.125c-1.458.364-2.539.911-3.242 1.64-.547.599-.86 1.368-.938 2.305-.052.964.117 2.083.508 3.36.26.885.781 2.239 1.563 4.062.026.078.247.573.664 1.484.859 1.823 1.419 3.086 1.679 3.789.599 1.563.977 2.787 1.133 3.672.104.547.156 1.055.156 1.524 0 .755-.117 1.419-.351 1.992-.417 1.172-1.289 2.057-2.617 2.656a8.008 8.008 0 0 1-2.5.625 4.167 4.167 0 0 1-.586.039c-.808 0-1.524-.143-2.149-.429-.521-.209-.976-.56-1.367-1.055-.391-.469-.612-.977-.664-1.524v-.195c0-.286.104-.56.312-.82.235-.287.534-.469.899-.547.364-.026.703.078 1.015.312.313.209.495.495.547.86v.039l.118.117c.104.156.195.234.273.234.755.391 1.745.313 2.969-.234.573-.234.963-.586 1.172-1.055.182-.546.195-1.224.039-2.031-.157-.833-.495-1.875-1.016-3.125-.312-.833-.859-2.07-1.641-3.711-.338-.781-.546-1.289-.625-1.523-.781-1.641-1.341-3.086-1.679-4.336-.521-1.719-.742-3.177-.664-4.375.26-3.307 2.356-5.469 6.289-6.485.13-.026.26-.039.39-.039.235 0 .456.065.664.196.313.208.521.494.625.859.105.365.066.716-.117 1.055-.208.338-.495.56-.859.664Zm4.453-2.305c1.224-.156 2.734-.234 4.531-.234h1.602c.156 0 .429.013.82.039h1.133c1.12.026 2.226.039 3.32.039.365 0 .69.143.977.43.286.286.429.612.429.976 0 .417-.143.755-.429 1.016-.287.26-.612.39-.977.39-1.12 0-2.252-.013-3.398-.039h-1.094c-.052 2.422-.078 6.511-.078 12.266V267.625c0 .391-.13.716-.391.977-.26.286-.586.429-.976.429a1.39 1.39 0 0 1-1.016-.429 1.328 1.328 0 0 1-.391-.977V254.461c0-5.755.027-9.857.079-12.305-1.276 0-2.565.065-3.868.196a1.326 1.326 0 0 1-1.015-.274c-.287-.26-.443-.599-.469-1.016-.026-.026-.039-.065-.039-.117.026-.312.143-.599.352-.859a1.37 1.37 0 0 1 .898-.508Zm18.086 1.289c-.026.287-.078.821-.156 1.602-.026.26-.052.625-.078 1.093-.053.495-.092.873-.118 1.133-.26 3.646-.39 6.732-.39 9.258.052 3.854.351 6.875.898 9.063.573 2.291 1.341 3.515 2.305 3.672.651.078 1.198-.079 1.641-.469.52-.495.95-1.328 1.289-2.5.599-2.162.859-5.339.781-9.531-.078-2.11-.209-4.454-.391-7.032a61.253 61.253 0 0 1-.156-1.797c-.078-1.015-.117-1.601-.117-1.757-.078-1.198-.117-2.045-.117-2.54 0-.364.13-.69.39-.976.261-.26.586-.391.977-.391.39 0 .729.131 1.015.391.261.286.391.612.391.976 0 .443.039 1.224.117 2.344 0 .183.039.768.117 1.758.105.99.17 1.576.196 1.758.182 2.578.312 4.974.39 7.187v1.407c0 3.88-.312 6.862-.937 8.945-.443 1.641-1.107 2.891-1.992 3.75-.912.859-1.967 1.289-3.164 1.289a4.19 4.19 0 0 1-.821-.078c-1.224-.182-2.252-.86-3.086-2.031-.677-.964-1.198-2.188-1.562-3.672-.599-2.396-.925-5.651-.977-9.766 0-2.786.157-5.95.469-9.492.026-.26.052-.625.078-1.094.026-.495.052-.872.078-1.133 0-.104.013-.286.039-.546.026-.261.052-.495.078-.704.026-.208.039-.325.039-.351.053-.365.222-.677.508-.938.261-.234.56-.351.899-.351h.117c.365.026.677.195.937.508.235.312.339.651.313 1.015Zm13.633.078c.312 2.552.859 5.886 1.64 10 .391 2.11 1.081 5.443 2.071 10 .234 1.198.521 2.292.859 3.282.078.13.143.286.195.468.782-1.744 1.615-5.442 2.5-11.093.417-2.683.821-5.469 1.211-8.36 0-.078.026-.351.078-.82.053-.469.092-.742.118-.82.026-.209.052-.482.078-.821.052-.312.078-.482.078-.508.052-.234.091-.481.117-.742.026-.286.052-.482.078-.586.026-.13.052-.234.078-.312.131-.365.365-.638.703-.821.209-.13.417-.195.625-.195.131 0 .261.026.391.078.391.104.677.326.859.664.131.209.196.43.196.664 0 .131-.013.261-.039.391-.026 0-.039.026-.039.078a.747.747 0 0 1-.039.235 9.03 9.03 0 0 0-.118.898c0 .026-.026.208-.078.547-.026.312-.052.573-.078.781l-.273 1.641c-.495 3.958-.873 6.771-1.133 8.437-1.016 6.25-1.992 10.313-2.93 12.188-.416.781-.885 1.328-1.406 1.64-.365.183-.716.274-1.055.274-.521 0-1.015-.248-1.484-.742-.833-.834-1.576-2.774-2.227-5.821a499.288 499.288 0 0 1-2.07-10.078c-.755-3.932-1.315-7.318-1.68-10.156v-.195c0-.313.091-.599.274-.86.208-.312.521-.482.937-.508.365-.052.703.039 1.016.274.312.234.495.534.547.898Zm16.836-.039c-.808 8.933-.469 16.472 1.015 22.617.157.704.313 1.263.469 1.68.026-.052.065-.156.117-.312.287-.756.573-1.81.86-3.164.442-2.162.872-4.818 1.289-7.969.312-2.682.442-4.362.39-5.039v-.078c0-.365.131-.69.391-.977.234-.26.547-.404.937-.43h.079c.364 0 .677.131.937.391.287.26.443.573.469.937.26 4.089.651 7.787 1.172 11.094.416 2.448.833 4.128 1.25 5.039.13-.26.286-.612.468-1.054.443-1.068.873-2.526 1.29-4.375a66.436 66.436 0 0 0 1.679-11.328c.156-1.823.195-3.373.117-4.649 0-.521-.052-1.016-.156-1.484a5.73 5.73 0 0 1-.078-.43c0-.026-.013-.052-.039-.078a1.483 1.483 0 0 1-.234-1.055c.052-.364.234-.664.546-.898.261-.183.534-.274.821-.274.078 0 .156.013.234.039.391.052.69.248.899.586.468.599.742 1.745.82 3.438.026.469.039.963.039 1.484 0 1.042-.052 2.214-.156 3.516-.287 4.166-.873 8.099-1.758 11.797-.521 2.135-.99 3.724-1.406 4.765-.625 1.589-1.328 2.578-2.11 2.969-.755.443-1.497.404-2.226-.117-.495-.313-.899-.833-1.211-1.563-.573-1.172-1.042-2.916-1.407-5.234-.052.443-.156.964-.312 1.562a41.962 41.962 0 0 1-.938 3.516c-.442 1.224-.924 2.057-1.445 2.5-.443.339-.885.508-1.328.508a2.21 2.21 0 0 1-.43-.039c-.547-.104-1.015-.443-1.406-1.016-.495-.703-.95-1.901-1.367-3.593-1.016-4.219-1.524-8.972-1.524-14.258 0-2.917.157-6.003.469-9.258.026-.391.196-.716.508-.977.287-.26.625-.364 1.016-.312.39.026.716.195.976.508.261.312.352.651.274 1.015Zm23.945 14.649c-.911 2.968-2.161 7.2-3.75 12.695a1.45 1.45 0 0 1-.664.859c-.339.183-.69.209-1.055.079a1.31 1.31 0 0 1-.82-.665 1.23 1.23 0 0 1-.195-.664c0-.13.026-.26.078-.39 1.64-5.755 3.008-10.378 4.101-13.867.313-.964.534-1.667.664-2.11a517.485 517.485 0 0 0-4.179-10.234c-.131-.391-.131-.755 0-1.094.156-.338.403-.599.742-.781.39-.13.755-.117 1.094.039.338.156.586.404.742.742a511.627 511.627 0 0 1 3.008 7.227A237.86 237.86 0 0 1 610 239.93c.156-.391.417-.651.781-.782a1.478 1.478 0 0 1 1.055-.039c.365.131.625.378.781.743.156.364.156.716 0 1.054a186.771 186.771 0 0 0-3.75 10.469 876.49 876.49 0 0 1 6.406 16.523 1.471 1.471 0 0 1-.039 1.055 1.45 1.45 0 0 1-.781.742 1.854 1.854 0 0 1-.508.078c-.208 0-.403-.039-.586-.117a1.63 1.63 0 0 1-.742-.82 455.637 455.637 0 0 0-5.117-13.281Zm21.641-14.766a191.805 191.805 0 0 1-2.227 4.531c-1.016 1.875-1.888 3.347-2.617 4.414l-.078.078a.308.308 0 0 0-.039.118c.026 2.057.026 4.427 0 7.109 0 .313-.013.638-.039.977 0 .338-.013.768-.039 1.289v1.523c-.079 3.698-.118 6.146-.118 7.344 0 .39-.143.716-.429.976-.287.287-.612.43-.977.43-.364 0-.69-.143-.976-.43a1.263 1.263 0 0 1-.43-.976c0-1.224.039-3.698.117-7.422 0-.443.013-.938.039-1.484v-1.289c.026-.339.039-.665.039-.977.052-3.229.039-5.846-.039-7.852v-.195c-.651-.989-1.341-2.187-2.07-3.594-.365-.703-1.055-2.07-2.07-4.101a1.311 1.311 0 0 1-.157-.586 1.3 1.3 0 0 1 .117-.508 1.65 1.65 0 0 1 .704-.82c.338-.156.69-.17 1.054-.039.365.156.638.403.821.742 1.25 2.63 2.356 4.765 3.32 6.406.703-1.172 1.159-1.992 1.367-2.461.287-.521 1.016-1.979 2.188-4.375.182-.364.442-.612.781-.742.182-.052.351-.078.508-.078.182 0 .364.039.547.117.364.182.611.456.742.82.052.183.078.352.078.508 0 .182-.039.365-.117.547Zm3.203-1.094c.547 0 1.133.026 1.758.078 1.041.053 2.005.092 2.89.118 1.406.078 2.487.156 3.242.234.547.026.951.065 1.211.117l.469.117c.052 0 .156.026.313.079.234.104.403.221.507.351.209.182.339.443.391.781a.61.61 0 0 1 0 .43c0 .104-.026.234-.078.391-.052.13-.117.26-.195.39 0 .078-.013.13-.04.157a.454.454 0 0 0-.078.117c-.026 0-.039.026-.039.078-.989 2.734-2.383 7.031-4.179 12.89a1.349 1.349 0 0 1-.118.352c-1.328 4.427-2.395 7.813-3.203 10.156.313-.026 1.016-.078 2.11-.156.442-.026.872-.065 1.289-.117 2.448-.182 4.14-.156 5.078.078.39.078.69.273.898.586.131.208.196.443.196.703 0 .104-.013.221-.039.352a1.305 1.305 0 0 1-.625.859 1.282 1.282 0 0 1-1.016.195c-.703-.156-2.135-.156-4.297 0-.13.026-.338.052-.625.078h-.586c-1.536.131-2.5.196-2.89.196a5.753 5.753 0 0 1-.626.039c-.156 0-.299-.013-.429-.039-.261 0-.443-.026-.547-.078a.57.57 0 0 1-.352-.118c-.286-.13-.494-.299-.625-.507-.26-.417-.325-.834-.195-1.25.026-.105.091-.274.195-.508.026 0 .039-.013.039-.039.938-2.683 2.136-6.446 3.594-11.289 0-.026.013-.065.039-.118.052-.052.078-.104.078-.156 1.537-5.182 2.852-9.297 3.946-12.344a19.752 19.752 0 0 0-.782-.078 53.794 53.794 0 0 0-1.093-.078 27.186 27.186 0 0 1-1.055-.078 553.328 553.328 0 0 0-2.891-.117 21.266 21.266 0 0 0-1.757-.078 1.472 1.472 0 0 1-.977-.43c-.234-.286-.352-.638-.352-1.055.026-.364.183-.677.469-.937.261-.261.56-.378.899-.352h.078ZM291.289 307.164c-1.224 1.068-2.318 2.344-3.281 3.828-.99 1.485-1.615 2.878-1.875 4.18-.261 1.406-.104 2.396.469 2.969.442.39.976.638 1.601.742.729.156 1.602.195 2.617.117.026-.104.039-.26.039-.469.026-.208.039-.377.039-.508 0-.546.053-1.627.157-3.242.156-2.969.234-5.508.234-7.617Zm-8.047-6.68c0-1.276.078-2.304.235-3.086.234-1.197.612-2.239 1.132-3.125.521-.781.938-1.315 1.25-1.601.547-.469 1.224-.781 2.032-.938.312-.078.612-.117.898-.117 1.068 0 1.979.443 2.734 1.328.782.886 1.342 2.136 1.68 3.75.599 2.292.899 5.417.899 9.375v1.016c0 2.187-.079 4.805-.235 7.852-.104 1.588-.156 2.656-.156 3.203a19.83 19.83 0 0 0-.117 2.187c0 .365-.13.69-.391.977-.286.286-.612.429-.976.429a.303.303 0 0 1-.118-.039H291.875c-.781.104-1.51.157-2.187.157-2.188 0-3.855-.56-5-1.68-1.016-.964-1.524-2.188-1.524-3.672 0-.599.078-1.25.234-1.953.417-1.823 1.316-3.737 2.696-5.742 1.406-2.006 2.968-3.594 4.687-4.766.104-.078.261-.143.469-.195-.078-2.735-.326-4.909-.742-6.524-.313-1.198-.677-2.044-1.094-2.539-.234-.312-.547-.429-.937-.351-.339.078-.586.182-.743.312-.156.156-.39.495-.703 1.016-.651 1.068-.976 2.643-.976 4.726 0 .365-.144.69-.43.977-.286.286-.612.43-.977.43-.39 0-.716-.144-.976-.43-.287-.287-.43-.612-.43-.977Zm15.547 16.368c.417-.495.729-.873.938-1.133 1.718-2.188 2.981-4.05 3.789-5.586 1.067-2.057 1.562-3.906 1.484-5.547a16.218 16.218 0 0 0-.156-1.211c-.078-.391-.196-.664-.352-.82-.052-.078-.156-.144-.312-.196-.417-.104-.977.026-1.68.391-.781.391-1.51.938-2.188 1.641-.572.625-.937 1.185-1.093 1.679-.026.209-.13.417-.313.625 0 1.224-.013 2.292-.039 3.203-.052 4.089-.078 6.407-.078 6.954Zm.117-24.649c.052 1.979.078 5.182.078 9.609.782-.677 1.537-1.197 2.266-1.562 1.328-.677 2.539-.885 3.633-.625 1.406.391 2.291 1.432 2.656 3.125.156.573.247 1.146.273 1.719v.39c0 2.032-.598 4.219-1.796 6.563-.964 1.823-2.331 3.828-4.102 6.016-1.615 2.031-2.682 3.32-3.203 3.867-.26.416-.664.599-1.211.547h-.039c-.026.026-.052.039-.078.039-.391 0-.716-.144-.977-.43a1.415 1.415 0 0 1-.39-.977c0-3.541.026-7.083.078-10.625v-2.226c.026-.807.039-1.432.039-1.875.026-.469.039-.938.039-1.406.052-4.948.039-8.972-.039-12.071a1.32 1.32 0 0 1 .351-1.015c.287-.287.612-.43.977-.43h.117c.339 0 .625.117.86.352.286.286.442.624.468 1.015Zm18.047 8.633c-.156-1.719-.495-3.177-1.015-4.375-.131-.26-.274-.521-.43-.781l-.196-.196c0-.026-.013-.039-.039-.039v-.039l-.156.078a1.966 1.966 0 0 0-.39.274c-.678.703-1.289 2.304-1.836 4.804-.599 2.683-.873 5.469-.821 8.36 0 3.177.313 5.599.938 7.266.338.833.703 1.406 1.094 1.718.26.261.599.339 1.015.235.261-.079.482-.274.664-.586.157-.261.365-.847.625-1.758l.274-1.094a59.53 59.53 0 0 1 .547-2.461c.182-1.015.325-1.706.429-2.07.078-.391.287-.69.625-.899a1.282 1.282 0 0 1 1.016-.195c.364.078.664.287.898.625.157.235.235.482.235.742 0 .104-.013.209-.039.313-.235 1.12-.378 1.797-.43 2.031a96.205 96.205 0 0 1-.586 2.578c-.078.443-.169.847-.273 1.211-.105.443-.209.807-.313 1.094-.13.417-.325.833-.586 1.25-.599 1.068-1.458 1.719-2.578 1.953a4.798 4.798 0 0 1-.859.078c-.886 0-1.706-.286-2.461-.859-.782-.651-1.407-1.615-1.875-2.891-.782-2.005-1.172-4.752-1.172-8.242v-.352c0-2.838.299-5.716.898-8.632.651-3.125 1.537-5.209 2.656-6.25.808-.756 1.615-1.133 2.422-1.133.417 0 .821.091 1.211.273.808.417 1.498 1.25 2.071 2.5.312.807.599 1.797.859 2.969.156.885.26 1.641.313 2.266.026.39-.079.742-.313 1.054a1.36 1.36 0 0 1-.937.469 1.319 1.319 0 0 1-1.016-.352 1.357 1.357 0 0 1-.469-.937Zm8.555 16.445c.156-.208.312-.442.469-.703.52-.859 1.093-2.2 1.718-4.023.235-.521.404-.951.508-1.289.052-.183.274-.756.664-1.719.677-1.563 1.055-2.682 1.133-3.359v-.118c.052-.208.104-.364.156-.468a7.8 7.8 0 0 0-.703-1.993c-.469-.963-.911-1.445-1.328-1.445-.365-.026-.703.143-1.016.508-.416.443-.82 1.172-1.211 2.187-.651 1.901-1.002 4.284-1.054 7.149 0 2.396.221 4.153.664 5.273Zm8.047-24.843c.052 1.51.078 3.32.078 5.429 0 2.526-.039 5.482-.117 8.867 0 .157-.013.43-.039.821v1.133c-.131 4.296-.196 7.721-.196 10.273 0 .365-.143.69-.429.977a1.267 1.267 0 0 1-.977.429c-.391 0-.716-.143-.977-.429-.286-.287-.429-.612-.429-.977 0-.781.026-2.8.078-6.055-.052.13-.117.339-.195.625a93.067 93.067 0 0 1-.86 2.227 25.027 25.027 0 0 1-1.094 2.226c-.807 1.355-1.64 2.123-2.5 2.305-.625.156-1.21.052-1.757-.312-.365-.287-.69-.678-.977-1.172-.755-1.381-1.133-3.646-1.133-6.797.052-3.099.469-5.807 1.25-8.125.521-1.38 1.107-2.422 1.758-3.125.938-1.016 2.005-1.485 3.203-1.406.86.026 1.654.39 2.383 1.093l.195.196c.026-2.605 0-5.313-.078-8.125-.026-.365.091-.69.352-.977.286-.286.612-.443.976-.469h.078c.365 0 .678.118.938.352.286.286.443.625.469 1.016Zm4.765 11.328c.729-.235 1.433-.704 2.11-1.407.937-1.015 1.653-2.356 2.148-4.023.443-1.51.534-2.734.274-3.672-.053-.182-.105-.299-.157-.352l-.039-.078h-.039c-.026-.026-.117-.013-.273.039-.964.261-1.81 1.303-2.539 3.125a6.226 6.226 0 0 1-.196.664c-.104.339-.221.691-.351 1.055-.339 1.016-.638 2.552-.899 4.61l-.039.039Zm-.273 2.929a39.361 39.361 0 0 0-.039 3.946c.13 2.448.547 4.31 1.25 5.586.651 1.145 1.627 1.588 2.93 1.328 1.067-.183 1.901-.86 2.5-2.032.156-.338.429-.572.82-.703.364-.13.716-.104 1.054.078.365.183.599.456.704.821.052.13.078.26.078.39 0 .235-.052.456-.156.664-.443.86-1.081 1.628-1.915 2.305-.807.677-1.666 1.094-2.578 1.25a7.415 7.415 0 0 1-1.289.117c-1.953 0-3.476-.937-4.57-2.812-.912-1.537-1.458-3.828-1.641-6.875v-1.406c0-1.928.131-3.92.391-5.977.26-2.109.586-3.815.976-5.117.209-.703.43-1.328.665-1.875.468-1.224.963-2.149 1.484-2.774.729-.989 1.667-1.666 2.812-2.031a3.847 3.847 0 0 1 1.055-.156c.547 0 1.042.13 1.484.39.704.443 1.198 1.146 1.485 2.11.391 1.38.299 3.112-.274 5.195-.572 2.057-1.51 3.776-2.812 5.156-1.276 1.407-2.747 2.214-4.414 2.422Zm20.586-12.187c-1.511-.182-2.578.221-3.203 1.211-.443.677-.782 2.031-1.016 4.062 1.641-.286 2.93-.429 3.867-.429.391 0 .729.143 1.016.429a1.416 1.416 0 0 1 0 1.953c-.287.287-.625.43-1.016.43-.963 0-2.304.169-4.023.508 0 .026-.026.039-.078.039-.052 1.745-.065 3.138-.039 4.18.052 5.39.442 9.583 1.171 12.578.105.364.053.703-.156 1.015a1.45 1.45 0 0 1-.859.664 1.03 1.03 0 0 1-.391.079c-.234 0-.455-.066-.664-.196a1.453 1.453 0 0 1-.664-.859c-.781-3.125-1.198-7.539-1.25-13.242-.026-.886-.013-2.084.039-3.594-.677.104-1.289.195-1.836.273-.364.052-.703-.052-1.015-.312-.339-.261-.521-.573-.547-.938v-.195c0-.312.104-.599.312-.859.261-.313.573-.482.938-.508a22.092 22.092 0 0 0 2.304-.352c0-.104.013-.26.039-.468.027-.209.04-.365.04-.469.312-2.448.807-4.219 1.484-5.313 1.094-1.692 2.708-2.539 4.844-2.539.338 0 .677.026 1.015.078.391.026.703.183.938.469.208.261.312.547.312.859v.235a1.323 1.323 0 0 1-.547.898 1.395 1.395 0 0 1-1.015.313Zm11.992 2.656c-.599-.963-1.159-1.523-1.68-1.68-.286-.078-.586 0-.898.235-1.068.807-1.979 2.487-2.735 5.039-.755 2.552-1.002 4.765-.742 6.64.104.756.261 1.237.469 1.446.052 0 .13-.026.234-.078 1.25-.547 2.253-1.927 3.008-4.141.026-.104.091-.286.196-.547.104-.26.182-.469.234-.625.13-.286.286-.703.469-1.25.442-1.12.768-2.083.976-2.891.235-.807.391-1.523.469-2.148Zm3.203-3.32c.313 1.484.547 3.62.703 6.406.13 1.667.196 3.281.196 4.844 0 1.562-.066 3.073-.196 4.531-.286 3.724-.911 6.615-1.875 8.672-.573 1.302-1.341 2.279-2.304 2.93a4.572 4.572 0 0 1-2.813.937c-.286 0-.586-.026-.898-.078-.756-.078-1.42-.247-1.993-.508-.833-.39-1.458-.898-1.875-1.523-.599-.886-.859-1.797-.781-2.735.078-.937.482-1.731 1.211-2.382.599-.626 1.354-1.016 2.266-1.172a4.982 4.982 0 0 1 2.695.273c.365.156.612.404.742.742.13.365.117.729-.039 1.094-.13.339-.377.586-.742.742-.391.156-.755.156-1.094 0-.729-.312-1.367-.208-1.914.313-.443.416-.443.937 0 1.562.261.417.899.69 1.914.82.599.105 1.172-.013 1.719-.351.469-.365.938-.99 1.406-1.875.834-1.693 1.367-4.245 1.602-7.656.13-1.589.169-3.737.117-6.446l-.078.157c-.026.078-.104.286-.235.625a6.695 6.695 0 0 1-.195.625 74.67 74.67 0 0 0-.312.742c-.026.078-.078.221-.157.429-.442 1.303-.976 2.37-1.601 3.204-.886 1.276-1.888 2.135-3.008 2.578-1.328.573-2.435.377-3.32-.586-.625-.677-1.016-1.68-1.172-3.008a12.47 12.47 0 0 1-.117-1.758c0-1.771.312-3.776.937-6.015.938-3.178 2.188-5.352 3.75-6.524.729-.547 1.498-.82 2.305-.82.364 0 .755.065 1.172.195.364.104.807.352 1.328.742.208-.494.547-.781 1.016-.859.364-.078.716 0 1.054.234.339.235.534.534.586.899Zm10.117 8.906a5.536 5.536 0 0 1-.312.273c-.547.756-.99 1.42-1.328 1.993-1.979 3.255-2.969 6.432-2.969 9.531 0 .078-.026.208-.078.391.026 1.302.039 3.111.039 5.429 0 .391-.143.716-.43.977-.286.286-.612.429-.976.429-.365 0-.69-.143-.977-.429a1.268 1.268 0 0 1-.43-.977c0-2.318-.039-6.979-.117-13.984v-1.133c-.078-5.859-.117-10.143-.117-12.852 0-.39.143-.729.43-1.015.26-.261.586-.391.976-.391.391 0 .716.13.977.391.286.286.429.625.429 1.015 0 2.657.04 6.823.118 12.5.156-.312.39-.755.703-1.328 1.25-2.057 2.357-3.281 3.32-3.672.833-.364 1.563-.299 2.188.196.468.312.846.833 1.132 1.562.443 1.12.665 3.06.665 5.821 0 1.015-.04 2.122-.118 3.32a82.08 82.08 0 0 1-.234 4.18l-.234 3.046v.821a9.504 9.504 0 0 1-.079.664v.43c0 .364-.143.69-.429.976-.261.26-.586.391-.977.391-.364 0-.69-.131-.976-.391-.287-.286-.43-.612-.43-.976 0-.391.039-1.094.117-2.11 0-.182.078-1.211.234-3.086a73.16 73.16 0 0 0 .235-4.062c.156-4.063.039-6.706-.352-7.93Zm7.852-2.656c-.182 2.89-.221 6.419-.117 10.586 0 .755.013 1.497.039 2.226.078 3.386.117 5.638.117 6.758 0 .391-.143.716-.43.977-.286.286-.612.429-.976.429-.391 0-.716-.143-.977-.429a1.268 1.268 0 0 1-.43-.977c0-1.094-.039-3.32-.117-6.68a63.597 63.597 0 0 1-.039-2.265 259.2 259.2 0 0 1-.039-4.375c0-2.396.052-4.532.156-6.406a1.38 1.38 0 0 1 .508-1.016c.287-.234.612-.339.977-.313.416.026.742.183.976.469.261.287.378.625.352 1.016Zm-.039-6.641v.742c0 .235-.026.521-.078.86a1.326 1.326 0 0 1-.547.898 1.324 1.324 0 0 1-1.016.274 1.355 1.355 0 0 1-.937-.547 1.387 1.387 0 0 1-.274-1.055c0-.026.013-.091.039-.195v-1.055c.026-.417.183-.755.469-1.016.26-.234.56-.351.898-.351h.079c.39 0 .729.143 1.015.43.261.286.378.624.352 1.015Zm7.265 5.313c.053.781.196 2.187.43 4.218.208 1.771.339 3.086.391 3.946.26 2.526.39 4.83.39 6.914 0 1.588-.078 3.06-.234 4.414-.156 1.354-.339 2.513-.547 3.476-.417 1.589-1.055 2.761-1.914 3.516-.286.286-.807.638-1.562 1.055-.547.286-.938.455-1.172.507-.104.027-.209.04-.313.04a1.74 1.74 0 0 1-.351-.04c-.469-.13-.795-.403-.977-.82a1.161 1.161 0 0 1-.156-.586c0-.13.013-.26.039-.39 0-.105.052-.274.156-.508.13-.287.352-.495.664-.625.287-.13.573-.156.86-.078l.585-.352.118-.117a.423.423 0 0 0 .156-.078c0-.026.026-.065.078-.117h.039c.417-.417.755-1.133 1.016-2.149.234-.729.403-1.745.508-3.047.312-2.942.26-6.523-.157-10.742-.052-.859-.195-2.148-.429-3.867-.079-.729-.157-1.537-.235-2.422a52.879 52.879 0 0 1-.195-1.914c-.052-.365.052-.703.312-1.016.261-.312.586-.481.977-.507.365-.053.703.052 1.016.312.312.234.481.56.507.977Zm-.429-5.977v1.523c0 .391-.143.717-.43.977-.286.287-.612.43-.976.43-.391 0-.717-.143-.977-.43a1.263 1.263 0 0 1-.43-.977v-1.523c0-.365.143-.69.43-.977.26-.286.586-.429.977-.429.364 0 .69.143.976.429.287.287.43.612.43.977Zm13.515 5.82c-.703 2.266-1.653 4.193-2.851 5.782a19.052 19.052 0 0 1-2.266 2.539 11.32 11.32 0 0 1-.43.351l-.429.43a3.116 3.116 0 0 0-.547.625c-.104.13-.156.247-.156.352 0 .234.169.624.508 1.171.859 1.276 2.994 3.62 6.406 7.032.26.26.39.586.39.976 0 .417-.13.755-.39 1.016-.261.26-.586.39-.977.39-.39 0-.716-.13-.976-.39-2.865-2.865-4.779-4.896-5.743-6.094a483.875 483.875 0 0 0-.039 7.266c0 .364-.143.69-.429.976a1.324 1.324 0 0 1-.977.391 1.32 1.32 0 0 1-.976-.391c-.287-.286-.43-.612-.43-.976 0-10.729.299-19.805.898-27.227.052-.364.222-.677.508-.937a1.6 1.6 0 0 1 .899-.352.3.3 0 0 1 .117.039c.364.026.677.182.937.469.261.286.378.625.352 1.015-.287 3.23-.521 7.253-.703 12.071l.234-.235c.807-.755 1.458-1.471 1.953-2.148.964-1.302 1.771-2.969 2.422-5 .13-.365.365-.638.703-.82.339-.157.69-.183 1.055-.078.364.13.638.364.82.703.182.312.222.664.117 1.054Zm5.469-6.289c-.078.912-.13 1.563-.156 1.953a73.945 73.945 0 0 0-.195 3.047 158.416 158.416 0 0 0-.391 8.75c-.078 4.766.104 8.295.547 10.586.234 1.224.508 2.018.82 2.383h.039a.697.697 0 0 0 .196-.078 1.351 1.351 0 0 1 1.054-.195c.391.104.677.312.86.625.13.26.195.52.195.781 0 .078-.013.169-.039.273-.078.365-.287.651-.625.86-.625.416-1.211.625-1.758.625-.729 0-1.406-.352-2.031-1.055-.651-.781-1.146-2.018-1.485-3.711-.39-2.109-.599-5.13-.625-9.062 0-.651.013-1.342.039-2.071.026-2.317.157-5.273.391-8.867l.234-3.125c.026-.338.079-.99.157-1.953.026-.365.195-.677.507-.938.261-.234.547-.351.86-.351h.117c.417.052.742.221.977.508.234.286.338.625.312 1.015Zm18.32 4.141c-1.744 2.682-2.903 6.406-3.476 11.172a94.437 94.437 0 0 0-.391 4.219c0 .312-.013.612-.039.898-.026.312-.052.742-.078 1.289a203.43 203.43 0 0 0-.078 1.836c0 .156-.013.404-.039.742 0 .313-.013.534-.039.664l-.117 2.266a1.402 1.402 0 0 1-.508.937c-.261.235-.56.352-.899.352h-.117a1.283 1.283 0 0 1-.898-.43 1.322 1.322 0 0 1-.391-.976v-.078c.052-.86.091-1.563.117-2.11 0-.026.039-1.015.117-2.969 0-1.588-.013-3.151-.039-4.687a70.474 70.474 0 0 1-.039-2.344c0-2.318.052-4.297.157-5.937 0-.078.013-.196.039-.352 0-.156.013-.325.039-.508.026-.182.052-.429.078-.742.078-.703.117-1.224.117-1.562.078-1.302-.039-2.279-.352-2.93l-.078-.078c-.182.26-.39.638-.625 1.133-.599 1.224-1.171 2.851-1.718 4.882-.365 1.198-.756 2.813-1.172 4.844a12.17 12.17 0 0 0-.352 1.641c-.026.13-.065.299-.117.508v.195c-.026 0-.039.026-.039.078-.026.13-.065.352-.117.664.052 6.094.117 9.583.195 10.469v.078c0 .391-.143.716-.43.977-.26.26-.56.403-.898.429h-.078c-.391 0-.716-.13-.977-.39-.26-.235-.403-.547-.429-.938a4.211 4.211 0 0 1-.079-.469v-.507c-.026-.105-.039-.3-.039-.586 0-.052-.013-.144-.039-.274v-.273c-.182-2.005-.273-3.698-.273-5.078 0-.443.013-.86.039-1.25.026-.625.091-1.407.195-2.344v-2.891c0-7.422.104-11.758.313-13.008a1.48 1.48 0 0 1 .586-.898c.26-.156.521-.234.781-.234.078 0 .169.013.273.039.365.078.664.273.899.586.234.312.312.664.234 1.054-.052.209-.117 1.446-.195 3.711.364-1.015.664-1.745.898-2.187.443-.912.86-1.589 1.25-2.032.287-.312.573-.546.86-.703a2.32 2.32 0 0 1 1.367-.273c.495.078.95.299 1.367.664.287.26.573.638.859 1.133.495.989.743 2.122.743 3.398a17.686 17.686 0 0 1 1.875-3.125c.468-.599.95-1.002 1.445-1.211.807-.234 1.51-.039 2.109.586.547.625.912 1.719 1.094 3.281.156 1.407.234 3.269.234 5.586 0 1.407-.026 2.969-.078 4.688-.026 1.016-.117 3.021-.273 6.016-.052.963-.091 1.731-.117 2.304a17.793 17.793 0 0 0-.117 1.953c-.079 1.276-.118 2.019-.118 2.227 0 .391-.143.716-.429.976-.287.287-.612.43-.977.43-.417 0-.755-.143-1.016-.43-.26-.26-.39-.585-.39-.976 0-.208.039-1.016.117-2.422 0-.651.039-1.289.117-1.914.026-.312.065-1.094.117-2.344.157-2.942.248-4.922.274-5.937.156-4.401.117-7.67-.117-9.805l-.118-.703Zm5.196 23.086c-.209-4.479-.313-13.086-.313-25.82 0-.417.13-.756.391-1.016.26-.26.599-.391 1.016-.391.364 0 .69.131.976.391.287.26.43.599.43 1.016V299c.39-1.25.846-2.318 1.367-3.203.677-1.094 1.458-1.836 2.344-2.227 1.067-.442 2.174-.299 3.32.43.703.417 1.224 1.068 1.563 1.953.286.703.468 1.432.546 2.188.078.755.118 1.588.118 2.5v.039c0 1.875-.131 5.117-.391 9.726-.234 4.089-.352 7.253-.352 9.492 0 .391-.143.717-.429.977-.287.26-.612.391-.977.391-.391 0-.716-.131-.976-.391a1.263 1.263 0 0 1-.43-.977c0-2.317.117-5.546.351-9.687.261-4.531.391-7.708.391-9.531v-.039c0-.599-.026-1.315-.078-2.149-.156-1.146-.443-1.875-.859-2.187-.313-.183-.56-.235-.743-.157-.312.131-.638.495-.976 1.094-.807 1.302-1.524 3.542-2.149 6.719-.494 2.448-.872 5.391-1.132 8.828-.209 2.865-.274 5.078-.196 6.641v.039c0 .39-.143.716-.429.976a1.43 1.43 0 0 1-.938.43h-.039c-.365 0-.69-.13-.977-.391a1.224 1.224 0 0 1-.429-.937Zm22.148-16.445a6.311 6.311 0 0 1-2.422.234c-1.25-.13-2.343-.651-3.281-1.563-.338 2.162-.43 4.597-.273 7.305.234 3.333.833 5.886 1.796 7.656.391.73.821 1.25 1.29 1.563.338.182.729.169 1.171-.039.313-.156.599-.534.86-1.133.364-.703.651-1.693.859-2.969.443-2.448.534-5.338.274-8.672a52.138 52.138 0 0 0-.274-2.382Zm-.508-2.735c-.312-1.276-.599-2.252-.859-2.929-.391-1.016-.807-1.732-1.25-2.149a2.767 2.767 0 0 0-.43-.351c-.625.598-1.185 1.562-1.679 2.89.052.313.182.69.39 1.133.547.937 1.276 1.471 2.188 1.601.468.027 1.015-.039 1.64-.195Zm-1.836-8.164c.651.208 1.237.599 1.758 1.172.677.703 1.289 1.719 1.836 3.047.235.573.495 1.406.781 2.5l.469-.352c.313-.286.651-.403 1.016-.351a1.4 1.4 0 0 1 .937.508c.235.234.352.52.352.859v.156a1.344 1.344 0 0 1-.508.977c-.547.416-1.107.82-1.68 1.211.209.963.352 2.083.43 3.359.287 3.542.182 6.654-.312 9.336-.235 1.484-.586 2.721-1.055 3.711-.547 1.198-1.289 2.018-2.227 2.461-.625.286-1.237.43-1.836.43-.625 0-1.237-.17-1.836-.508-.937-.495-1.744-1.393-2.421-2.696-1.12-2.083-1.823-5-2.11-8.75a31.138 31.138 0 0 1-.117-2.656c0-2.63.273-5.091.82-7.383.078-.39.222-.963.43-1.718-.052-.782.013-1.472.195-2.071.495-1.849 1.628-2.942 3.399-3.281.026-.026.052-.039.078-.039.26-.156.521-.234.781-.234.287 0 .56.104.82.312Zm11.094 7.344a5.56 5.56 0 0 0 1.914-1.055c.599-.599.925-1.185.977-1.758 0-.52-.195-.924-.586-1.211-.547-.364-1.263-.546-2.149-.546-.026.312-.039.846-.039 1.601-.026.208-.052.547-.078 1.016v1.054c0 .261-.013.56-.039.899Zm-.39-7.383c1.796-.052 3.242.313 4.336 1.094 1.171.833 1.757 1.914 1.757 3.242 0 .13-.013.273-.039.43-.078 1.328-.703 2.539-1.875 3.632-.989.912-2.278 1.537-3.867 1.876a209.535 209.535 0 0 0-.078 4.14c-.182 7.188 0 11.706.547 13.555.104.364.052.716-.156 1.055a1.313 1.313 0 0 1-.821.664c-.13.026-.26.039-.39.039-.235 0-.456-.052-.664-.157a1.446 1.446 0 0 1-.664-.859c-.469-1.667-.704-5.013-.704-10.039 0-1.328.013-2.76.039-4.297 0-.651.013-1.628.039-2.93.053-1.276.079-2.2.079-2.773.13-4.427.195-6.953.195-7.578 0-.391.143-.729.43-1.016.286-.26.612-.39.976-.39.313 0 .599.104.86.312Zm15.117 6.328c.104-1.458.156-2.396.156-2.812-1.797-.104-3.125.573-3.984 2.031-.912 1.562-1.263 3.581-1.055 6.055.078.989.273 1.953.586 2.89.286.703.586 1.185.898 1.446 0 .026.026.065.078.117.417-.287.834-.886 1.25-1.797.625-1.276 1.146-3.177 1.563-5.703.052-.365.104-.651.156-.86 0-.078.013-.156.039-.234.052-.078.078-.13.078-.156 0-.052.026-.157.078-.313a8.05 8.05 0 0 0 .157-.664Zm.469 23.946c.572-.938.82-1.862.742-2.774a1.316 1.316 0 0 1 .312-1.055c.235-.312.547-.481.938-.507.364-.026.703.091 1.015.351.287.235.456.534.508.899.026.234.039.468.039.703a6.89 6.89 0 0 1-.351 2.109c-.313.99-.756 1.81-1.329 2.461a2.86 2.86 0 0 1-1.093.859 1.907 1.907 0 0 1-.977.274c-.234 0-.469-.039-.703-.117-.521-.183-.95-.56-1.289-1.133a4.557 4.557 0 0 1-.586-1.641c-.208-1.015-.208-2.305 0-3.867.026-.13.065-.339.117-.625a9.62 9.62 0 0 1 .078-.664c.209-1.276.313-1.979.313-2.109.13-1.667.312-3.49.547-5.469-.183.182-.443.351-.781.508-1.146.625-2.214.507-3.204-.352-1.38-1.198-2.2-3.281-2.461-6.25a16.924 16.924 0 0 1-.078-1.601c0-2.37.508-4.428 1.524-6.172 1.354-2.266 3.307-3.399 5.859-3.399.521 0 1.055.039 1.602.117.39.026.729.248 1.015.664.495.261.743.691.743 1.29 0 1.692-.079 2.981-.235 3.867-.026.521-.065 1.08-.117 1.679-.26 2.5-.521 4.844-.781 7.032 0 .234-.026.52-.078.859-.443 3.958-.704 6.445-.782 7.461-.156 1.276-.26 2.044-.312 2.305-.078.573-.13.976-.156 1.211-.183 1.197-.196 2.187-.039 2.968v.118Zm8.007-24.727c.078-.078.144-.117.196-.117.442-.235.729-.443.859-.625.339-.703.286-1.433-.156-2.188a.682.682 0 0 1-.196-.195c-.156.026-.299.13-.429.312a.453.453 0 0 1-.117.079l-.118.117a63.468 63.468 0 0 0-.039 2.617Zm1.407 2.422c.156.208.286.39.39.547.469.885.951 1.979 1.446 3.281.026.052.052.13.078.234.13.339.286.703.468 1.094.183.391.287.625.313.703.573 1.38 1.445 3.438 2.617 6.172l.156.313c.052.156.104.273.157.351a67.885 67.885 0 0 0 1.679 3.594c.313.599.521.989.625 1.172.104.156.17.26.196.312v-.039c.26.287.416.599.468.938v.117c0 .338-.104.651-.312.937-.235.287-.56.456-.977.508a1.34 1.34 0 0 1-.976-.312c-.365-.313-.873-1.107-1.524-2.383-.234-.469-.807-1.693-1.718-3.672a1.474 1.474 0 0 1-.157-.352 1.529 1.529 0 0 0-.156-.351c-.599-1.38-1.484-3.425-2.656-6.133a48.523 48.523 0 0 1-.781-1.953.305.305 0 0 0-.04-.117c0-.026-.013-.052-.039-.078-.338-.86-.573-1.42-.703-1.68.052 5.703.313 10.898.782 15.586.026.364-.092.703-.352 1.016a1.374 1.374 0 0 1-.898.507h-.118c-.338 0-.638-.104-.898-.312a1.528 1.528 0 0 1-.508-.938c-.547-5.13-.82-10.95-.82-17.461 0-2.578.052-5.247.156-8.007 0-.391.143-.717.43-.977.286-.26.612-.391.976-.391.078 0 .13.013.156.039.599-.416 1.198-.625 1.797-.625.209 0 .417.026.625.079.834.182 1.498.69 1.993 1.523.468.703.716 1.523.742 2.461.052.911-.13 1.732-.547 2.461-.182.391-.482.755-.899 1.094-.104.078-.442.299-1.015.664-.026 0-.078.026-.156.078Zm16.601-3.164c.078-.781.052-1.42-.078-1.914-.104-.391-.221-.651-.352-.782-.078-.078-.143-.117-.195-.117-.104-.026-.26 0-.469.078-.599.261-1.08.821-1.445 1.68-.495 1.042-.599 2.227-.312 3.555.078.547.39 1.471.937 2.773.104.156.391.768.859 1.836a.892.892 0 0 1 .118.195.863.863 0 0 0 .117.274c.104.286.182.469.234.547.078.13.169.299.274.508.104.234.182.403.234.507.313.703.703 1.615 1.172 2.735 1.042 2.5 1.641 4.596 1.797 6.289.052.338.078.677.078 1.015 0 .704-.104 1.355-.313 1.954-.286 1.015-.859 1.862-1.718 2.539a4.254 4.254 0 0 1-2.657.898h-.078c-1.015 0-1.979-.286-2.89-.859-.938-.547-1.602-1.263-1.993-2.149-.26-.547-.39-1.08-.39-1.601 0-.521.13-1.055.39-1.602.131-.364.378-.612.743-.742.338-.156.703-.169 1.093-.039.339.156.586.417.743.781.13.365.117.716-.04 1.055-.13.312-.13.651 0 1.015.183.339.482.651.899.938 1.016.573 1.836.612 2.461.117.755-.547 1.068-1.562.937-3.047-.156-1.328-.703-3.164-1.64-5.508l-1.172-2.617a1.524 1.524 0 0 0-.117-.312 8.062 8.062 0 0 1-.196-.313 2.573 2.573 0 0 0-.156-.429l-.234-.469c-.156-.313-.235-.482-.235-.508-.104-.208-.39-.833-.859-1.875-.625-1.406-1.016-2.526-1.172-3.359-.364-1.901-.182-3.646.547-5.235.625-1.484 1.563-2.5 2.813-3.047.598-.286 1.158-.429 1.679-.429.834 0 1.576.351 2.227 1.054.963 1.068 1.341 2.683 1.133 4.844-.026.365-.196.677-.508.938-.287.26-.625.377-1.016.351-.364-.052-.677-.234-.937-.547a1.337 1.337 0 0 1-.313-.976Zm10.508-3.867c-.078.677-.169 2.552-.273 5.625v2.07c.52 0 1.236-.052 2.148-.156.365-.052.703.039 1.016.273.338.208.533.508.586.898.026.391-.079.743-.313 1.055a1.323 1.323 0 0 1-.898.547c-.886.13-1.732.195-2.539.195.026 1.068.091 2.513.195 4.336.234 3.698.638 6.563 1.211 8.594.338 1.068.69 1.901 1.054 2.5.261.365.534.573.821.625.364.052.664.234.898.547.209.26.313.547.313.859v.118c-.052.39-.222.703-.508.937a1.349 1.349 0 0 1-.86.313h-.156c-1.041-.079-1.966-.678-2.773-1.797-.625-.86-1.107-1.98-1.445-3.36-.678-2.239-1.133-5.286-1.368-9.14a159.748 159.748 0 0 1-.195-4.532c-.99-.052-1.68-.104-2.07-.156a1.35 1.35 0 0 1-.938-.547c-.234-.26-.351-.547-.351-.859v-.117c.026-.391.195-.703.507-.938.287-.26.625-.377 1.016-.351.417.052 1.029.104 1.836.156v-2.149c.078-2.838.182-4.791.313-5.859.052-.365.221-.664.507-.898a1.6 1.6 0 0 1 .899-.352.3.3 0 0 1 .117.039c.365.052.677.221.937.508.235.286.339.625.313 1.016Zm9.453.39c-.208 1.927-.338 3.268-.391 4.024a117.17 117.17 0 0 0-.468 6.601c-.104 2.474-.052 4.701.156 6.68.234 1.719.56 2.891.977 3.515.104-.078.156-.143.156-.195.677-2.057 1.25-4.505 1.718-7.344.209-1.354.482-3.88.821-7.578.156-1.849.325-3.541.508-5.078.052-.208.104-.377.156-.508 0-.338-.013-.573-.039-.703v-.078c0-.364.13-.677.39-.937.261-.287.56-.443.899-.469h.117c.391 0 .716.13.977.39.26.261.403.56.429.899.104 1.354.157 2.187.157 2.5l-.118.469c0 .026-.013.039-.039.039v.469a70.39 70.39 0 0 1-.117 2.187c0 .182-.013.612-.039 1.289a48.84 48.84 0 0 0-.078 1.133c-.156 2.891-.26 5.534-.313 7.93 0 4.218.3 7.591.899 10.117.052.13.078.26.078.39 0 .235-.065.456-.195.664-.209.339-.495.547-.86.625-.13.026-.26.039-.39.039a1.23 1.23 0 0 1-.664-.195 1.313 1.313 0 0 1-.664-.859 33.293 33.293 0 0 1-.821-5.117 1.21 1.21 0 0 0-.078.273 2.507 2.507 0 0 1-.078.352c-.312.833-.82 1.458-1.523 1.875-1.12.703-2.149.586-3.086-.352-.99-1.042-1.641-2.851-1.953-5.43a43.578 43.578 0 0 1-.235-4.726c0-.755.013-1.537.039-2.344.078-2.005.235-4.271.469-6.797.104-.911.26-2.252.469-4.023.026-.417.182-.755.468-1.016a1.391 1.391 0 0 1 1.055-.273c.365.026.677.195.938.508.234.312.325.664.273 1.054Zm11.055-.39c.104.52.351 2.33.742 5.429.286 2.37.625 4.766 1.016 7.188.468 3.125.989 5.781 1.562 7.969.182.781.43 1.64.742 2.578.104-.599.183-1.185.235-1.758.052-.261.156-.912.312-1.953.13-1.042.195-1.576.195-1.602.391-2.63.638-4.518.743-5.664.52-5.208.429-9.062-.274-11.562-.104-.391-.065-.743.117-1.055.183-.339.456-.56.821-.664.156-.052.312-.078.468-.078.209 0 .404.052.586.156.339.208.56.495.664.859.495 1.719.743 3.92.743 6.602 0 1.771-.105 3.776-.313 6.015-.286 2.396-.547 4.323-.781 5.782-.026.234-.117.872-.274 1.914-.13 1.015-.195 1.575-.195 1.68a39.19 39.19 0 0 0-.39 2.968c-.079.834-.222 1.446-.43 1.836a2.323 2.323 0 0 1-.352.664 1.76 1.76 0 0 1-.859.625 1.478 1.478 0 0 1-.469.078c-.286 0-.573-.078-.859-.234a4.082 4.082 0 0 1-.781-.625c-.834-1.094-1.628-3.06-2.383-5.898-.599-2.162-1.133-4.909-1.602-8.243-.104-.677-.456-3.086-1.055-7.226-.286-2.37-.52-4.128-.703-5.274v-.195a1.175 1.175 0 0 1 .274-.859 1.22 1.22 0 0 1 .898-.547 1.282 1.282 0 0 1 1.016.195c.338.235.534.534.586.899Zm13.281.039v2.968c-.026 1.901-.026 3.36 0 4.375 0 3.933.13 7.487.391 10.664.182 2.292.507 4.284.976 5.977.469-1.172.938-2.839 1.406-5 .651-3.151 1.094-5.846 1.329-8.086.286-2.656.364-4.401.234-5.234a.675.675 0 0 1-.039-.274c0-.338.104-.638.312-.898.209-.261.482-.417.821-.469a.67.67 0 0 1 .273-.039c.313 0 .599.104.859.313.287.208.456.481.508.82.131.625.222 1.484.274 2.578a63.5 63.5 0 0 1 .078 3.086c.026 2.734.104 4.779.234 6.133.235 2.63.69 4.804 1.367 6.523.157.339.287.599.391.781.469-.755.755-2.07.859-3.945.131-2.109.039-4.713-.273-7.812-.13-1.667-.352-3.803-.664-6.407a79.324 79.324 0 0 1-.156-.976 10.411 10.411 0 0 0-.157-1.133c-.052-.469-.091-.833-.117-1.094a69.707 69.707 0 0 1-.351-2.461c-.052-.39.026-.742.234-1.054.234-.313.534-.482.899-.508.39-.052.742.026 1.054.234.313.235.495.534.547.899.104.859.221 1.692.352 2.5.286 1.953.442 3.033.468 3.242.313 2.344.547 4.518.703 6.523.183 2.136.274 4.037.274 5.703a36.6 36.6 0 0 1-.078 2.5c-.156 2.891-.742 4.883-1.758 5.977-.573.599-1.185.898-1.836.898-.651.026-1.237-.234-1.758-.781-.234-.208-.495-.573-.781-1.094a3.704 3.704 0 0 1-.43-.976c-.468-1.094-.846-2.435-1.133-4.024-.624 2.683-1.25 4.597-1.874 5.742-.287.495-.547.847-.782 1.055-.442.417-.937.625-1.484.625h-.078c-.547-.026-1.055-.312-1.524-.859-.208-.339-.416-.794-.625-1.367-.677-1.954-1.133-4.414-1.367-7.383-.234-3.203-.351-6.836-.351-10.899a37.39 37.39 0 0 1-.039-1.836c0-.755.013-1.601.039-2.539v-2.968c0-.391.13-.717.39-.977.261-.26.599-.391 1.016-.391.364 0 .69.131.976.391.261.26.391.586.391.977Zm17.305-.625c.625 2.786 1.601 5.82 2.929 9.101 1.771-5.364 2.852-8.581 3.243-9.648.104-.365.325-.638.664-.821a1.385 1.385 0 0 1 1.093-.078c.365.131.638.378.821.742.182.339.195.691.039 1.055a394.508 394.508 0 0 0-4.141 12.656c.547 1.25 1.328 2.956 2.344 5.118.547 1.119.898 1.836 1.055 2.148.312.755.651 1.484 1.015 2.188a245.266 245.266 0 0 1 1.914 4.257c.078.183.117.365.117.547 0 .183-.039.365-.117.547-.13.365-.377.612-.742.742-.365.157-.716.17-1.055.039a1.292 1.292 0 0 1-.781-.742c-.703-1.693-2.005-4.531-3.906-8.515a203.17 203.17 0 0 1-1.133-2.344c-1.068 3.62-2.148 7.265-3.242 10.937a1.31 1.31 0 0 1-.664.821c-.209.13-.43.195-.664.195-.13 0-.261-.026-.391-.078a1.496 1.496 0 0 1-.82-.625 1.239 1.239 0 0 1-.117-1.094 578.533 578.533 0 0 1 4.179-13.945 91.783 91.783 0 0 1-1.289-3.086c-1.432-3.516-2.461-6.693-3.086-9.531v-.313c0-.234.065-.469.196-.703.208-.313.494-.534.859-.664.365-.078.716 0 1.055.234.338.209.547.495.625.86Zm15.273.078a87.923 87.923 0 0 0-.156 3.437 66.869 66.869 0 0 0 .117 6.133c.156 2.266.469 3.893.938 4.883.078.208.156.351.234.43l.039-.039a.48.48 0 0 0 .117-.079c.417-.286.807-.755 1.172-1.406.208-.495.443-1.211.703-2.148a.3.3 0 0 1 .039-.117v-.118c.026-.026.039-.078.039-.156a.3.3 0 0 0 .039-.117c.287-1.172.508-2.292.664-3.359a31.42 31.42 0 0 1 .313-1.797v-.079a.3.3 0 0 0 .039-.117v-.078c0-.026.013-.052.039-.078a26.05 26.05 0 0 0 .352-2.227c.078-.781.052-1.653-.078-2.617v-.234c0-.339.117-.638.351-.899a1.11 1.11 0 0 1 .859-.468.442.442 0 0 1 .196-.039c.338 0 .638.13.898.39.287.235.443.521.469.86.026 0 .039.026.039.078.104.937.247 2.63.43 5.078.182 3.047.286 5.82.312 8.32 0 3.412-.13 6.224-.39 8.438-.365 3.021-1.016 5.013-1.954 5.976-1.276 1.407-2.539 2.11-3.789 2.11-.364 0-.729-.065-1.093-.196-1.328-.442-2.214-1.497-2.657-3.164-.39-1.536-.299-2.825.274-3.867.495-.755 1.146-1.172 1.953-1.25.729-.078 1.51.143 2.344.664.312.235.508.534.586.899.078.39.013.755-.196 1.093a1.22 1.22 0 0 1-.898.547 1.354 1.354 0 0 1-1.055-.195 1.71 1.71 0 0 0-.351-.195c-.131.416-.118.937.039 1.562.182.677.455 1.094.82 1.25.13.026.326 0 .586-.078.417-.182.872-.547 1.367-1.094.573-.599.99-2.057 1.25-4.375.234-2.161.352-4.817.352-7.968a3.522 3.522 0 0 1-.196.507 2.623 2.623 0 0 0-.195.469c-.547 1.068-1.211 1.888-1.992 2.461-.964.729-1.927.911-2.891.547-.729-.365-1.315-1.016-1.758-1.953-.572-1.354-.937-3.308-1.093-5.86a49.58 49.58 0 0 1-.196-4.648v-1.758c.026-.911.092-2.096.196-3.555.026-.364.182-.677.468-.937.261-.234.547-.352.86-.352h.117c.417.026.755.196 1.016.508.234.287.338.612.312.977Zm11.836 10.82c.625.13 1.419.234 2.383.313h.078a77.626 77.626 0 0 1 1.289-3.516c.182-.547.43-1.458.742-2.734 0-.105.013-.17.039-.196.209-.989.391-1.666.547-2.031.052-.312.156-.638.313-.977a20.756 20.756 0 0 0-1.524-.039c-.807-.052-1.992-.078-3.554-.078a1.398 1.398 0 0 1-.977-.468c-.26-.261-.378-.586-.352-.977 0-.391.144-.716.43-.977.287-.26.599-.39.938-.39h.078c1.51 0 2.669.026 3.476.078.834 0 1.667.039 2.5.117.443 0 .742.013.899.039h.195c.078.026.13.039.156.039.026 0 .065.013.118.039a.3.3 0 0 0 .117.039c.364.078.651.287.859.625.26.521.26 1.055 0 1.602l-.234.351-.157.157c-.39.781-.755 1.94-1.093 3.476-.026.026-.039.091-.039.196-.287 1.224-.573 2.239-.86 3.046-.026.079-.377 1.068-1.054 2.969.442.104.989.248 1.64.43.365.13.625.377.781.742.131.365.131.729 0 1.094-.13.39-.377.651-.742.781-.364.156-.716.169-1.054.039a8.785 8.785 0 0 0-1.602-.43c-.234.704-.56 1.732-.977 3.086-1.067 3.23-1.835 6.159-2.304 8.789-.026.026-.039.066-.039.118a.638.638 0 0 0-.039.156 11.25 11.25 0 0 0 1.679-.234c1.589-.209 2.8-.43 3.633-.665.391-.104.703-.156.938-.156h.351c.235 0 .456.052.664.156.547.261.821.704.821 1.329v.195c-.053.26-.131.469-.235.625a1.89 1.89 0 0 1-.234.273c-.443.469-.951.56-1.524.274-.026 0-.039.013-.039.039-.156.026-1.471.26-3.945.703-.339.078-.781.143-1.328.195l-1.094.156c-.234.027-.56.04-.976.04-.209 0-.365-.013-.469-.04-.391-.104-.69-.286-.899-.546-.13-.105-.247-.287-.351-.547-.026-.026-.039-.091-.039-.196a.434.434 0 0 0-.039-.195c0-.208.013-.364.039-.469 0-.234.039-.507.117-.82a.423.423 0 0 0 .078-.156v-.117c.13-.313.195-.534.195-.664.443-2.526 1.224-5.56 2.344-9.102.104-.286.248-.716.43-1.289.182-.547.312-.977.39-1.289a19.628 19.628 0 0 1-2.031-.274 1.33 1.33 0 0 1-.859-.586 1.266 1.266 0 0 1-.235-1.054 1.34 1.34 0 0 1 .586-.86 1.488 1.488 0 0 1 1.055-.234ZM284.297 346.156h.078a.346.346 0 0 1 .156-.039c.026-.026.091-.052.196-.078.104-.026.169-.039.195-.039l.586-.117c.469-.052.781-.078.937-.078.573.052 1.003.169 1.289.351.313.209.534.521.664.938.053.13.079.325.079.586v.195a.638.638 0 0 0-.039.156v.078c-.365 3.23-.586 7.136-.665 11.719-.026 1.511-.039 4.193-.039 8.047v2.227c0 .416-.143.755-.429 1.015a1.411 1.411 0 0 1-1.953 0c-.287-.26-.43-.599-.43-1.015v-2.227c0-3.854.013-6.549.039-8.086.026-4.062.234-7.734.625-11.016h-.039c-.026 0-.091.013-.195.039-.131.027-.209.04-.235.04a2.15 2.15 0 0 1-.429.078 1.323 1.323 0 0 1-1.016-.274c-.313-.26-.495-.573-.547-.937v-.196c0-.286.091-.572.273-.859.209-.312.508-.482.899-.508Zm5.664 4.844c.078-.495.234-1.081.469-1.758.234-.729.56-1.328.976-1.797 1.068-1.276 2.253-1.966 3.555-2.07a1.45 1.45 0 0 1 .351-.039c1.146 0 2.214.456 3.204 1.367.859.807 1.536 1.836 2.031 3.086.469 1.224.651 2.409.547 3.555-.078 1.015-.521 2.357-1.328 4.023-.573 1.146-1.381 2.552-2.422 4.219-.13.286-.339.625-.625 1.016a6.635 6.635 0 0 1-.235.39c-.13.182-.26.378-.39.586a3.88 3.88 0 0 0-.196.313c-.182.338-.442.742-.781 1.211a26.958 26.958 0 0 0-1.289 2.304c-.26.443-.534.977-.82 1.602h.664c.26.026.573.052.937.078H296.328c1.979 0 3.62.091 4.922.273.365.026.664.196.898.508.183.261.274.547.274.86v.195c-.052.364-.234.677-.547.937-.26.183-.534.274-.82.274h-.196c-.989-.156-2.5-.235-4.531-.235h-.664c-1.797-.078-2.891-.13-3.281-.156h-.039c-.052 0-.091.013-.117.039-.026.026-.039.052-.039.078h-.118c-.364.052-.677.026-.937-.078-.729-.208-1.133-.69-1.211-1.445v-.234c0-.99.469-2.344 1.406-4.063a120.723 120.723 0 0 1 1.445-2.383 10.6 10.6 0 0 1 .743-1.25c0-.026.13-.221.39-.586.235-.364.378-.599.43-.703.156-.234.365-.573.625-1.015 1.042-1.641 1.81-2.969 2.305-3.985.625-1.276.976-2.291 1.054-3.047.052-.703-.078-1.471-.39-2.304-.313-.834-.756-1.498-1.328-1.993-.469-.468-.925-.677-1.368-.625-.52 0-1.08.352-1.679 1.055-.365.495-.638 1.276-.821 2.344-.078.391-.273.69-.586.898-.338.209-.69.274-1.054.196-.365-.052-.664-.248-.899-.586-.234-.339-.312-.69-.234-1.055Zm14.297 1.016c.364-1.693 1.146-3.204 2.344-4.532.729-.833 1.523-1.367 2.382-1.601.313-.078.625-.117.938-.117.807 0 1.562.286 2.266.859 1.302 1.068 1.927 2.552 1.874 4.453a8.93 8.93 0 0 1-1.054 3.906c1.745.521 2.969 1.719 3.672 3.594.416 1.068.625 2.266.625 3.594 0 .989-.117 2.057-.352 3.203-.417 2.214-1.471 3.971-3.164 5.273-1.484 1.12-3.112 1.68-4.883 1.68-1.849-.052-3.268-.664-4.258-1.836-.651-.833-.976-1.758-.976-2.773 0-.729.169-1.511.508-2.344a1.52 1.52 0 0 0 .156-.352c.156-.312.312-.572.469-.781.39-.443.872-.664 1.445-.664.365 0 .69.13.977.391.26.286.39.612.39.976 0 .573-.247.99-.742 1.25a.3.3 0 0 1-.039.117.298.298 0 0 1-.039.118c-.391.963-.391 1.718 0 2.265.391.495 1.107.769 2.148.821 1.12 0 2.162-.378 3.125-1.133 1.094-.781 1.797-1.966 2.11-3.555.442-2.109.403-3.867-.118-5.273-.572-1.433-1.692-2.11-3.359-2.032H310.586c-.026.026-.052.039-.078.039h-.196a1.362 1.362 0 0 1-.468 0c-.104 0-.274-.026-.508-.078a2.613 2.613 0 0 0-.391-.195 1.403 1.403 0 0 1-.468-.664c-.287-.755-.131-1.419.468-1.992.209-.209.534-.404.977-.586 0-.026.026-.039.078-.039.078-.026.117-.052.117-.078.078-.052.182-.104.313-.157a5.629 5.629 0 0 0 .859-2.734c0-1.016-.286-1.758-.859-2.227-.235-.234-.469-.299-.703-.195-.339.078-.691.326-1.055.742-.912 1.042-1.458 2.097-1.641 3.164a1.333 1.333 0 0 1-.586.86c-.338.234-.69.325-1.054.273-.365-.078-.651-.286-.86-.625a1.325 1.325 0 0 1-.273-1.015Zm25.039-5.547c.286 3.489.469 7.76.547 12.812.026 1.641.039 4.623.039 8.946v2.461c0 .364-.13.69-.391.976-.286.287-.625.43-1.015.43-.365 0-.691-.143-.977-.43a1.413 1.413 0 0 1-.391-.976v-7.032h-.625c-.234 0-1.015.026-2.343.078h-.664c-.521 0-.912.026-1.172.078h-1.094c-.208.027-.456.04-.742.04h-.313c-.078 0-.13-.013-.156-.04-.312-.026-.586-.169-.82-.429a1.184 1.184 0 0 1-.391-.703 2.168 2.168 0 0 1-.078-.43c0-.078.026-.26.078-.547.026-.208.091-.534.195-.976a.636.636 0 0 0 .078-.274.335.335 0 0 0 .04-.156c.026-.052.052-.13.078-.235.026-.078.052-.169.078-.273a.3.3 0 0 1 .039-.117.3.3 0 0 0 .039-.117v-.039c.312-1.276.573-2.279.781-3.008.235-.677.586-1.719 1.055-3.125a624.937 624.937 0 0 1 1.172-3.672c.312-1.068.586-2.266.82-3.594.052-.364.247-.651.586-.859a1.41 1.41 0 0 1 .82-.274h.196c.39.052.69.248.898.586.234.313.326.651.274 1.016-.183 1.068-.495 2.37-.938 3.906a150.074 150.074 0 0 1-1.172 3.789 22.254 22.254 0 0 0-.664 1.875c-.208.651-.325 1.042-.352 1.172a1078.63 1078.63 0 0 0-.703 2.774.684.684 0 0 1-.078.195 5.652 5.652 0 0 1-.117.391 5.98 5.98 0 0 0-.117.312h.391c.078 0 .286-.013.624-.039.339 0 .534-.013.586-.039h.625c1.849-.052 2.878-.078 3.086-.078a21.757 21.757 0 0 1-.039-1.524c-.078-5.026-.273-9.218-.586-12.578-.026-.39.092-.729.352-1.015a1.36 1.36 0 0 1 .937-.469c.365-.026.704.078 1.016.312.287.235.456.534.508.899Zm4.453-1.758c.755.156 1.667.221 2.734.195.391 0 1.407-.078 3.047-.234.365-.052.703.039 1.016.273.312.261.495.573.547.938.052.364-.039.716-.274 1.055a1.222 1.222 0 0 1-.937.507 57.953 57.953 0 0 1-3.321.274H335a62.402 62.402 0 0 0-.117 2.578v.312a1.696 1.696 0 0 0-.039.313v.234a.642.642 0 0 0-.039.196c-.078 1.822-.091 3.177-.039 4.062a6.604 6.604 0 0 1 3.554-.508 6.143 6.143 0 0 1 3.282 1.367c1.484 1.172 2.343 2.865 2.578 5.079.052.416.078.82.078 1.21 0 1.485-.326 2.995-.977 4.532-.781 1.979-1.953 3.463-3.515 4.453-1.068.755-2.214 1.133-3.438 1.133a7.113 7.113 0 0 1-2.383-.43c-.625-.234-1.106-.508-1.445-.82a2.781 2.781 0 0 1-.82-.742 2.365 2.365 0 0 1-.391-1.133c0-.157.026-.326.078-.508.104-.391.326-.677.664-.859a1.17 1.17 0 0 1 1.055-.118c.599.131.937.495 1.016 1.094l.039.039c.234.156.481.287.742.391 1.198.442 2.318.325 3.359-.352 1.042-.729 1.875-1.81 2.5-3.242a9.418 9.418 0 0 0 .664-4.375c-.156-1.432-.677-2.487-1.562-3.164-.729-.573-1.576-.846-2.539-.82-.964.052-1.836.403-2.617 1.054-.261.261-.586.378-.977.352a1.397 1.397 0 0 1-.977-.469c-.156-.182-.26-.43-.312-.742-.182-.234-.274-.456-.274-.664-.234-1.458-.273-3.438-.117-5.938 0-.234.026-.612.078-1.132.079-1.589.118-2.67.118-3.243a1.666 1.666 0 0 1-.196-1.171c.104-.391.313-.678.625-.86.209-.13.417-.195.625-.195.157 0 .313.026.469.078Zm15.82 20.547c.782 2.37 1.888 3.75 3.321 4.14.807.235 1.445 0 1.914-.703.573-.833.807-1.927.703-3.281-.13-1.406-.495-2.37-1.094-2.891-.26-.208-.586-.338-.976-.39-.469-.052-1.029.091-1.68.429-.417.183-.873.56-1.367 1.133-.469.547-.73.99-.782 1.328a.303.303 0 0 1-.039.118v.117Zm4.922-14.102c.209-.807.052-1.823-.469-3.047-.234-.39-.69-.703-1.367-.937-.26-.104-.56-.039-.898.195-.443.313-.873.899-1.289 1.758-.938 1.979-1.524 4.505-1.758 7.578a30.459 30.459 0 0 0 .039 4.609c.625-.572 1.211-1.002 1.758-1.289 2.318-1.119 4.232-.976 5.742.43 1.224 1.12 1.901 2.708 2.031 4.766.026.26.039.521.039.781 0 1.589-.403 3.021-1.211 4.297-.885 1.328-2.057 1.992-3.515 1.992-.469 0-.964-.065-1.485-.195-1.276-.365-2.395-1.133-3.359-2.305-.781-1.042-1.419-2.305-1.914-3.789-.651-2.135-.977-4.531-.977-7.188 0-.729.026-1.497.079-2.304.26-3.49.937-6.354 2.031-8.594.599-1.25 1.315-2.2 2.148-2.852.703-.494 1.445-.742 2.227-.742.39 0 .781.065 1.172.196 1.51.494 2.526 1.328 3.046 2.5.808 1.744 1.016 3.372.626 4.882a1.5 1.5 0 0 1-.626.86 1.443 1.443 0 0 1-1.093.117 1.455 1.455 0 0 1-.86-.664 1.362 1.362 0 0 1-.117-1.055Zm6.836-6.601h1.016c.573 0 1.276-.013 2.109-.039h.469a92.414 92.414 0 0 1 2.187-.039h.469c.521 0 .873.013 1.055.039.156 0 .312.026.469.078.078.026.208.065.39.117.261.156.443.325.547.508.208.286.313.625.313 1.015v.235c0 .26-.066.521-.196.781a1.56 1.56 0 0 1-.156.352c-.078.156-.117.247-.117.273 0 .026-.013.039-.039.039v.039c-1.198 3.386-2.201 6.602-3.008 9.649.078 0 .182.013.312.039.131.026.222.039.274.039a1.4 1.4 0 0 1 .937.508c.235.312.339.651.313 1.015a1.325 1.325 0 0 1-.547.899c-.313.26-.651.377-1.016.351a4.277 4.277 0 0 0-.468-.078h-.508c-.495 1.901-.847 3.346-1.055 4.336-.13.573-.26 1.575-.39 3.008v.039l-.118 1.054c-.052.443-.091.769-.117.977a31.391 31.391 0 0 1-.43 2.109c-.13.365-.364.638-.703.821a1.23 1.23 0 0 1-.664.195c-.13 0-.26-.026-.39-.078a1.46 1.46 0 0 1-.821-.703c-.182-.339-.221-.677-.117-1.016.234-.781.417-1.992.547-3.633v-.039c.13-1.328.286-2.435.469-3.32.208-1.094.521-2.448.937-4.063-.807-.13-1.484-.26-2.031-.39a1.314 1.314 0 0 1-.859-.664c-.209-.313-.261-.664-.157-1.055.105-.364.326-.651.664-.859a1.166 1.166 0 0 1 1.055-.117c.547.13 1.224.26 2.031.39.964-3.646 2.006-7.005 3.125-10.078-.807 0-1.51.013-2.109.039h-.469c-2.057.052-3.281.052-3.672 0-.364-.052-.664-.247-.898-.586a1.299 1.299 0 0 1-.273-.82c0-.078.013-.156.039-.234.052-.391.234-.691.546-.899a1.272 1.272 0 0 1 1.055-.234Zm15.195 12.929a132.534 132.534 0 0 0-.976 2.344c-.677 1.849-1.068 3.503-1.172 4.961-.156 1.667.013 2.891.508 3.672.495.833 1.445 1.25 2.851 1.25 1.042 0 1.862-.391 2.461-1.172 1.328-1.875 1.667-3.659 1.016-5.351-.287-.678-.794-1.485-1.523-2.422a56.112 56.112 0 0 0-2.305-2.461 4.481 4.481 0 0 1-.43-.391 4 4 0 0 0-.351-.391c-.026 0-.04-.013-.04-.039h-.039Zm3.243-.781a60.46 60.46 0 0 1 2.07 2.305c.911 1.12 1.549 2.174 1.914 3.164.391.911.586 1.849.586 2.812 0 1.693-.625 3.412-1.875 5.157-1.12 1.588-2.695 2.382-4.727 2.382-2.448 0-4.192-.872-5.234-2.617-.677-1.015-1.016-2.357-1.016-4.023 0-.443.026-.899.078-1.367.157-1.693.612-3.568 1.368-5.625.494-1.433 1.028-2.631 1.601-3.594-.521-.651-.924-1.224-1.211-1.719-.781-1.38-1.08-2.695-.898-3.945.234-2.318 1.172-3.828 2.812-4.531a4.5 4.5 0 0 1 1.719-.352c.964 0 1.914.365 2.852 1.094 1.432 1.094 2.187 2.63 2.265 4.609.078 2.083-.69 4.167-2.304 6.25Zm-1.993-1.992c1.094-1.484 1.602-2.865 1.524-4.141-.052-1.093-.456-1.927-1.211-2.5-.625-.468-1.211-.599-1.758-.39-.208.104-.417.299-.625.586a3.348 3.348 0 0 0-.508 1.679c-.13 1.198.729 2.787 2.578 4.766Zm14.415 2.93c-.469.182-1.029.312-1.68.39-2.031.209-3.464-.625-4.297-2.5-.365-.859-.547-1.823-.547-2.89 0-.625.065-1.276.195-1.953.365-1.902.99-3.386 1.875-4.454.599-.677 1.25-1.145 1.954-1.406.312-.078.624-.117.937-.117.521 0 1.055.117 1.602.351.859.495 1.536 1.277 2.031 2.344.416.886.703 1.94.859 3.164.13.834.195 1.758.195 2.774 0 1.51-.143 3.19-.429 5.039-.443 2.943-1.068 5.56-1.875 7.851-.912 2.578-1.927 4.349-3.047 5.313-.26.208-.547.312-.859.312h-.157a1.725 1.725 0 0 1-1.015-.507c-.235-.261-.326-.586-.274-.977.026-.417.196-.742.508-.977.651-.52 1.38-1.875 2.188-4.062.807-2.292 1.393-4.74 1.757-7.344 0-.052.013-.117.039-.195a.658.658 0 0 0 .04-.156Zm.273-3.868c.052-1.041.013-1.992-.117-2.851-.235-1.849-.716-2.969-1.446-3.36a.42.42 0 0 0-.39-.039c-.156.053-.352.222-.586.508-.599.729-1.029 1.771-1.289 3.125-.235 1.328-.169 2.409.195 3.242.261.651.729.938 1.406.86.886-.13 1.485-.469 1.797-1.016.104-.182.248-.338.43-.469Zm10.078-5.898c-.677.443-1.263 1.38-1.758 2.813-.859 2.291-1.315 4.947-1.367 7.968-.052 3.151.339 5.729 1.172 7.735.417.989.872 1.705 1.367 2.148a2.243 2.243 0 0 0 1.641.586c0-.026.026-.052.078-.078.13-.104.273-.261.43-.469.312-.547.638-1.445.976-2.695.625-2.474.912-5.339.86-8.594 0-3.255-.352-5.885-1.055-7.891-.313-.807-.625-1.354-.938-1.64-.156-.104-.325-.104-.507 0-.313.13-.612.169-.899.117Zm1.094-3.047c.755 0 1.432.248 2.031.742.729.547 1.354 1.511 1.875 2.891.807 2.292 1.211 5.221 1.211 8.789v.781c0 3.255-.312 6.094-.938 8.516-.364 1.484-.82 2.643-1.367 3.476-.729 1.172-1.64 1.81-2.734 1.915h-.234c-1.276 0-2.396-.43-3.36-1.29-.833-.703-1.549-1.77-2.148-3.203-.912-2.213-1.367-4.896-1.367-8.047v-.781c.052-3.359.559-6.341 1.523-8.945.547-1.38 1.172-2.474 1.875-3.281.911-1.042 1.94-1.576 3.086-1.602h.156c.104 0 .235.013.391.039Zm8.398 31.406c.078-.078.157-.182.235-.312.182-.208.338-.469.468-.781.417-.756.743-1.433.977-2.032.182-.599.273-1.015.273-1.25-.599-.234-.898-.677-.898-1.328 0-.39.13-.716.391-.976.286-.287.625-.43 1.015-.43.677 0 1.237.234 1.68.703.338.417.534.912.586 1.484.026.131.039.261.039.391 0 .677-.156 1.458-.469 2.344-.286.885-.69 1.745-1.211 2.578-.495.833-.937 1.419-1.328 1.758-.26.208-.547.312-.859.312h-.196c-.364-.026-.677-.195-.937-.507a1.322 1.322 0 0 1-.313-.782c0-.052.013-.117.039-.195.026-.391.196-.716.508-.977Zm12.227-7.656v2.383c0 .365-.143.69-.43.977-.26.286-.586.429-.976.429-.365 0-.691-.143-.977-.429-.286-.287-.43-.612-.43-.977v-2.383c0-.39.144-.729.43-1.016.286-.26.612-.39.977-.39.39 0 .716.13.976.39.287.287.43.626.43 1.016Zm4.101-16.797c.079-2.37.938-4.336 2.579-5.898 1.171-1.224 2.473-1.836 3.906-1.836.677 0 1.263.195 1.758.586.312.26.612.599.898 1.015l.078.079a.3.3 0 0 1 .039.117c0 .026.013.052.039.078l.039.078a7.809 7.809 0 0 1 1.367 4.062v.235c0 1.12-.221 2.396-.664 3.828-.416 1.302-1.067 2.813-1.953 4.531-.286.573-.455.925-.507 1.055-.235.495-.404.833-.508 1.016a15.497 15.497 0 0 0-.782 1.875 3.416 3.416 0 0 0-.234.781c0 .104-.013.208-.039.312-.026 0-.039.013-.039.039-.13.677-.208 1.302-.234 1.875-.026.235-.04.625-.04 1.172 0 .391-.143.729-.429 1.016-.287.26-.612.391-.977.391-.416 0-.755-.131-1.015-.391a1.459 1.459 0 0 1-.391-1.016c0-.625.013-1.08.039-1.367.026-.651.13-1.406.313-2.266v-.039c.026-.182.052-.286.078-.312.052-.261.156-.651.312-1.172.261-.651.56-1.354.899-2.109.104-.235.273-.586.507-1.055.313-.469.495-.82.547-1.055.834-1.666 1.433-3.06 1.797-4.179.729-2.292.599-4.18-.39-5.665 0-.026-.026-.078-.079-.156a.611.611 0 0 0-.117-.156 2.086 2.086 0 0 0-.312-.391h-.039c-.599 0-1.237.326-1.914.977-1.12 1.12-1.693 2.5-1.719 4.141a1.36 1.36 0 0 1-.469.937c-.312.26-.651.378-1.015.352a1.59 1.59 0 0 1-.977-.43 1.355 1.355 0 0 1-.352-.938v-.117Zm5.586 18.907v.273c.026.13.052.221.078.273v.274c.026.104.039.299.039.586 0 .364-.143.69-.429.976a1.411 1.411 0 0 1-.977.391c-.416 0-.755-.13-1.015-.391a1.409 1.409 0 0 1-.391-.976c0-.209-.013-.326-.039-.352v-.234c-.026-.104-.039-.3-.039-.586a1.476 1.476 0 0 1 .312-1.016 1.41 1.41 0 0 1 .938-.508c.39-.026.729.092 1.016.352.312.234.481.547.507.938Zm12.149-25.938c0 .208.013.43.039.664.026.234.039.547.039.938.026.39.039.755.039 1.093.156 4.558.234 6.901.234 7.032.104 3.229.157 6.445.157 9.648 0 .365-.131.69-.391.977a1.39 1.39 0 0 1-1.016.429c-.364 0-.69-.143-.976-.429-.287-.287-.43-.612-.43-.977 0-3.177-.052-6.367-.156-9.57-.052-2.188-.13-4.519-.235-6.993a649.84 649.84 0 0 1-.078-2.734v-.078c0-.339.118-.638.352-.898.26-.287.599-.443 1.016-.469h.078c.338 0 .638.13.898.39.26.261.404.586.43.977Zm.664 25c-.026.339-.039.703-.039 1.094 0 .39-.143.729-.43 1.015a1.41 1.41 0 0 1-.977.391c-.39 0-.729-.13-1.015-.391a1.456 1.456 0 0 1-.391-1.015c0-.469.013-.873.039-1.211 0-.391.144-.716.43-.977.313-.286.651-.416 1.016-.39.364.026.69.195.976.507.261.287.391.612.391.977Zm5.547-18.477c.312-.208.677-.429 1.093-.664l.079-.078a.3.3 0 0 1 .117-.039.385.385 0 0 1-.196-.078c-.078-.052-.13-.078-.156-.078a.3.3 0 0 0-.117-.039c-.26-.13-.521-.248-.781-.352a8.038 8.038 0 0 0-.547-.234 1.292 1.292 0 0 1-.781-.742 1.386 1.386 0 0 1-.118-.547c0-.182.026-.352.079-.508.182-.365.442-.625.781-.781.364-.13.716-.13 1.054 0 .105.026.3.091.586.195.287.13.547.248.782.352.026 0 .039.013.039.039.026 0 .052.013.078.039.182.052.299.091.351.117v-.039c-.026-.729-.117-1.354-.273-1.875-.052-.365.039-.716.273-1.055.209-.312.495-.508.86-.586a1.282 1.282 0 0 1 1.054.196c.313.208.508.507.586.898.105.547.196 1.302.274 2.266.026 0 .195-.065.508-.196l.039-.039c.521-.208.95-.39 1.289-.547.364-.208.716-.247 1.054-.117.365.157.639.404.821.742.13.209.195.417.195.625 0 .131-.026.274-.078.43a1.63 1.63 0 0 1-.742.82c-.13.079-.352.183-.664.313-.339.13-.612.234-.821.312 0 .026-.013.039-.039.039a1.926 1.926 0 0 0-.429.196l-.235.117a.7.7 0 0 1 .196.195c.286.287.69.586 1.211.899.338.182.546.469.625.859.104.365.052.716-.157 1.055-.208.338-.494.547-.859.625-.13.026-.247.052-.352.078a1.44 1.44 0 0 1-.703-.195 10.194 10.194 0 0 1-1.719-1.368c-.104-.104-.26-.247-.468-.429a5.63 5.63 0 0 1-1.172.859 6.877 6.877 0 0 0-.391.235c-.208.104-.39.221-.547.351-.13.078-.208.117-.234.117-.312.209-.664.261-1.055.156a1.192 1.192 0 0 1-.859-.624 1.391 1.391 0 0 1-.195-1.055c.104-.391.325-.677.664-.86Zm18.906 10.157c-.313.521-.638 1.08-.977 1.679-.651 1.172-1.054 2.188-1.211 3.047-.182.86-.143 1.602.118 2.227.312.729.989 1.419 2.031 2.07 1.536.859 2.877.807 4.023-.156a9.62 9.62 0 0 0 1.289-1.524c-.546-.677-1.393-1.796-2.539-3.359a124.048 124.048 0 0 1-2.734-3.984Zm8.594 6.992a406.6 406.6 0 0 0 2.109 2.851c.156.235.234.495.234.782a.864.864 0 0 1-.039.273c-.052.391-.234.69-.547.899-.338.234-.703.312-1.093.234a1.483 1.483 0 0 1-.899-.586c-.104-.156-.534-.768-1.289-1.836-.442.573-.872 1.029-1.289 1.367-1.198 1.016-2.461 1.524-3.789 1.524-1.094 0-2.239-.365-3.437-1.094-2.448-1.458-3.672-3.372-3.672-5.742 0-.495.052-1.003.156-1.524.234-1.067.742-2.343 1.523-3.828.365-.651.99-1.653 1.875-3.008-1.25-2.317-1.992-4.401-2.226-6.25-.365-2.864.456-5.065 2.461-6.601 1.068-.86 2.161-1.289 3.281-1.289.26 0 .521.026.781.078 1.433.234 2.461 1.107 3.086 2.617.365.99.469 2.005.313 3.047-.104.833-.404 1.797-.899 2.891-.286.625-.82 1.575-1.601 2.851-.235.313-.873 1.25-1.914 2.813.703 1.198 1.797 2.825 3.281 4.882.286.391.794 1.068 1.523 2.032a7.53 7.53 0 0 0 .118-.43c.546-2.109.572-3.828.078-5.156-.131-.443-.326-.729-.586-.86-.235-.13-.625-.078-1.172.157-.365.156-.716.169-1.055.039a1.459 1.459 0 0 1-.781-.743c-.156-.39-.156-.755 0-1.093.13-.365.378-.612.742-.742 1.25-.547 2.37-.612 3.36-.196.989.443 1.705 1.263 2.148 2.461.703 1.823.703 4.102 0 6.836-.313 1.068-.573 1.849-.781 2.344Zm-8.321-12.344c.105-.13.43-.625.977-1.484.677-1.042 1.146-1.888 1.406-2.539.755-1.563.938-2.8.547-3.711-.234-.521-.547-.821-.937-.899-.625-.104-1.25.104-1.875.625-1.146.886-1.602 2.24-1.368 4.063.105 1.094.521 2.409 1.25 3.945Z"/></svg>