<svg width="786" height="633" viewBox="0 0 786 633" fill="none" xmlns="http://www.w3.org/2000/svg">
<path d="M34.2956 390.122C34.5847 386.629 36.5115 348.112 36.7042 344.619C37.4749 330.198 38.7274 310.671 36.7042 297.145C35.2591 287.561 22.542 284.963 16.7614 292.398C-4.91545 320.793 -6.36058 370.954 17.4358 395.945C22.7346 401.588 33.5249 399.259 34.2956 390.122Z" fill="#AABDBD"/>
<path d="M598.28 75.8099C585.852 43.7427 537.296 21.6181 500.879 25.5593C491.052 26.6342 487.584 38.4579 495.58 43.9218C502.998 49.0275 510.609 52.7896 518.509 56.6412C533.057 63.6279 585.563 87.0065 585.371 86.9169C593.078 90.2311 601.171 83.2444 598.28 75.8099Z" fill="#AABDBD"/>
<path d="M31.9834 337.901C47.8798 343.455 59.7298 346.948 75.8189 350.441C164.068 369.699 249.619 352.054 323.032 319.359C417.736 276.185 510.609 199.958 541.246 94.3516C545.774 78.4971 547.701 69.092 550.013 52.2522L538.934 47.3257C521.785 98.4719 493.075 141.198 457.718 176.938C391.82 243.67 289.698 300.459 193.934 321.957C151.158 331.541 112.91 333.87 74.3738 331.362C59.2481 330.466 47.3981 328.585 32.4651 326.436L31.9834 337.901Z" fill="#AABDBD"/>
<path d="M480.454 263.824C418.699 325.271 352.704 361.728 264.937 382.598C261.083 383.494 259.06 387.077 259.927 390.301C260.698 392.989 263.107 394.78 265.901 395.049C354.728 402.931 457.621 344.619 491.822 270.542C493.267 267.317 491.726 263.555 488.257 262.212C485.271 261.137 482.188 262.033 480.454 263.824Z" fill="#AABDBD"/>
<path d="M219.271 582.794C219.368 588.437 209.926 604.023 201.448 611.815C198.943 614.234 194.993 617.458 192.488 618.802C190.176 620.146 187.382 621.848 186.515 622.475C181.698 625.699 166.38 630.984 159.443 631.969C151.351 633.134 138.344 632.955 130.926 631.701C123.026 630.447 110.213 626.685 106.263 624.087C104.914 623.281 102.505 621.937 101.349 621.131C94.1235 617.279 89.2101 613.249 82.4662 605.993C76.3966 599.544 74.4698 596.767 70.2308 588.168C64.3539 576.344 62.6198 567.566 63.1978 552.07C63.9686 533.976 66.4735 526.004 75.3369 511.941C78.3235 507.642 89.1138 495.908 92.293 493.758L97.5918 490.265C99.2296 489.011 101.253 487.667 101.735 487.667C102.216 487.667 103.372 487.219 104.239 486.323C106.552 484.622 117.824 480.412 125.724 478.62C130.637 477.276 137.766 476.829 143.065 476.739C150.965 476.649 157.709 476.829 167.151 479.158C175.532 481.486 185.937 486.323 192.681 490.623C199.714 495.549 199.907 495.729 205.495 503.432C212.528 513.464 214.454 517.137 213.009 519.107C211.371 520.809 178.134 534.245 175.147 534.245C172.642 534.245 172.16 533.797 169.559 530.841C166.765 527.169 158.576 521.615 153.952 520.182C149.809 518.749 137.285 518.838 133.335 520.092C129.866 521.167 128.036 522.511 123.219 527.079C112.91 536.664 109.538 553.414 114.933 566.76C118.209 575.18 122.448 580.106 129.866 585.212C135.454 589.064 139.404 590.049 146.341 590.228C154.915 590.139 159.54 588.437 166.862 582.794C170.041 580.196 171.871 577.778 173.991 573.657C177.363 567.387 178.808 566.76 185.07 568.372C187.671 568.999 190.658 569.806 191.814 570.253C192.97 570.433 198.558 572.314 204.628 574.284C215.996 577.688 219.175 579.569 219.271 582.794Z" fill="#ABBF56"/>
<path d="M357.811 570.611C363.496 589.69 363.496 589.69 362.34 592.288L361.376 594.527L339.796 600.26C328.042 603.485 313.591 607.426 308.003 608.859L277.751 616.204C262.915 619.787 257.52 620.951 256.46 620.593C255.4 620.235 254.437 617.727 250.872 605.724C248.464 597.662 245.477 588.347 244.128 584.674C243.068 581.181 239.793 571.686 237.288 564.072C234.687 556.011 231.7 544.277 229.388 538.186C223.415 520.271 211.661 481.755 212.046 479.605C212.046 478.888 213.299 477.993 214.07 477.545C215.129 477.097 226.016 474.051 238.444 470.648L260.506 464.736L262.529 465.99C264.264 467.065 264.938 467.602 266.961 474.499C268.984 480.501 272.934 492.235 274.861 498.863L280.545 517.315C285.459 533.08 289.505 543.381 294.322 558.25L296.442 564.61L323.514 557.713C343.36 552.607 350.393 551.084 351.26 551.532C351.935 551.532 353.765 556.907 357.811 570.611Z" fill="#ABBF56"/>
<path d="M421.589 571.776C416.868 572.941 383.438 585.929 382.185 586.914C381.8 587.272 380.355 587.362 379.584 587.272L377.657 586.824L360.219 548.756C350.585 527.975 337.194 498.147 330.161 482.651C317.636 455.958 315.517 450.763 317.058 449.688C321.008 447.269 357.715 432.938 360.412 432.759C365.615 432.579 365.518 432.4 372.648 448.255C391.434 488.831 395.962 500.565 400.876 510.866C404.055 516.689 410.028 531.11 415.327 542.396C420.626 553.682 425.732 563.804 426.503 564.879C428.429 568.104 426.888 570.164 421.589 571.776Z" fill="#ABBF56"/>
<path d="M584.021 471.991C584.889 473.245 584.696 476.201 583.732 483.636C581.709 495.997 581.131 497.609 577.47 498.236C576.218 498.415 568.125 497.34 558.876 495.907C552.903 494.832 552.421 494.832 551.843 496.445C550.013 499.849 545.099 506.298 543.943 506.656C543.751 506.746 543.462 507.194 543.462 507.462C542.402 510.418 530.263 520.271 521.399 525.466C512.825 530.483 498.374 536.394 494.52 536.394C494.038 536.484 493.171 536.394 492.979 536.574C489.028 538.096 481.321 538.813 473.228 538.544C472.265 538.365 470.242 538.544 468.508 538.455C464.365 538.365 454.345 536.036 450.01 534.513C448.18 533.797 446.445 533.259 446.156 533.259C440.183 532.184 424.961 523.048 417.543 516.42C412.437 511.762 408.583 506.387 405.211 501.461C402.61 497.609 398.564 491.339 396.155 484.084C391.82 471.633 391.145 468.229 391.723 456.137C392.398 439.745 397.6 425.682 408.005 413.052C415.905 403.289 425.828 397.287 432.09 393.615C438.738 389.674 448.469 384.299 461.378 381.791C478.142 378.656 494.038 380.268 510.224 386.807C521.977 391.644 525.157 393.525 535.465 402.572C541.438 407.767 546.93 415.471 548.471 417.62C551.747 422.547 555.312 428.1 557.624 434.371C560.803 443.955 563.019 461.78 561.478 465.99C561.189 466.438 563.693 467.244 567.354 467.871C582.384 470.379 583.058 470.558 584.021 471.991ZM490.185 426.936C485.56 424.517 474.674 422.278 469.664 422.905C464.269 423.443 461.282 424.697 453.575 429.534C445.578 434.191 442.495 438.581 440.472 447.359C438.738 454.435 438.834 458.287 440.954 465.363C447.698 485.875 469.182 497.699 489.029 492.235C492.69 491.16 501.168 486.681 500.782 486.144C500.301 485.427 495.002 484.173 489.51 483.636C485.464 482.919 483.537 482.561 482.959 481.665C482.188 480.59 482.959 471.543 484.886 462.676C484.886 461.153 485.368 458.555 485.56 457.212C485.56 455.689 486.138 454.077 486.909 453.629C488.065 452.912 495.676 454.077 508.297 456.853C510.127 457.122 511.572 457.212 511.669 456.943C511.765 456.674 511.38 454.077 510.705 451.389C508.393 442.432 499.626 431.862 490.185 426.936Z" fill="#ABBF56"/>
<path d="M677.28 348.202C680.459 352.591 684.891 361.727 686.24 366.027C687.685 370.237 687.492 383.494 686.722 386.45C683.446 398.721 674.004 409.739 663.118 420.308C662.154 421.204 658.301 423.802 654.929 426.399C648.667 431.594 636.72 437.596 631.999 439.119C624.485 441.448 613.983 440.731 610.226 440.014C605.409 439.029 595.39 435.446 590.861 432.311C581.516 427.026 559.454 408.574 530.262 382.688C507.911 362.892 501.745 357.428 501.938 356.353C502.227 354.83 503.961 353.128 516.678 340.767C531.997 325.809 533.345 324.555 535.08 325.002C537.006 325.002 539.704 327.063 571.593 355.636C612.538 392.272 614.851 394.063 623.714 394.153C632.77 394.153 639.225 386.181 638.262 379.373C637.105 373.014 637.298 372.207 595.871 335.482C561.766 305.028 559.454 302.878 559.55 301.176C559.55 299.653 561.766 297.145 571.304 287.471C576.892 281.739 583.828 275.648 586.237 273.587L591.536 269.019L597.413 274.214C600.785 277.17 614.176 288.457 626.893 299.474C651.364 320.972 671.21 339.782 677.28 348.202Z" fill="#ABBF56"/>
<path d="M768.419 242.774C776.801 246.983 783.93 250.925 784.701 251.552L785.954 252.627L775.452 270.452C769.672 280.305 758.785 298.846 751.463 311.566C743.274 325.808 737.397 335.392 736.338 336.288L734.507 338.079L727.378 334.407C723.331 332.347 712.445 326.524 702.714 321.867C693.176 317.03 681.037 310.58 676.124 307.804C671.114 305.027 658.012 298.13 647.414 292.397C605.216 270.183 596.064 265.077 595.871 263.644C595.582 262.748 599.821 255.135 609.937 237.847C617.644 224.321 625.448 211.065 626.893 208.646C629.591 204.078 640.959 186.074 643.271 183.118C643.946 182.491 644.717 181.595 645.198 181.685C647.703 180.968 679.207 196.285 680.17 198.524C680.748 199.778 679.978 202.824 679.303 203.182C678.629 203.361 653.773 243.759 654.158 244.475C654.158 244.475 657.819 246.356 662.154 248.775L670.151 253.074L680.363 235.697C690.286 218.858 691.25 217.156 693.176 216.618C694.814 215.991 695.874 216.529 709.555 223.426C721.597 229.517 724.487 231.308 725.162 232.383L726.222 234.175L715.72 251.552C710.133 260.509 705.412 268.66 705.123 269.466L704.641 271.168L720.73 279.319L722.368 276.453L729.305 265.525C735.663 255.672 734.989 256.837 740.384 246.804C745.683 236.951 746.935 235.16 750.692 235.07C753.101 235.16 755.028 235.966 768.419 242.774Z" fill="#ABBF56"/>
<path d="M116.475 65.5978C123.411 86.9162 138.73 118.536 162.526 160.366C170.715 174.967 178.326 188.313 185.552 200.495C192.296 212.229 198.751 223.515 204.82 234.533C213.298 229.785 219.368 226.471 223.029 224.501C224.57 223.605 226.015 222.709 227.461 222.082C235.361 217.603 241.912 214.11 247.114 211.692C249.812 210.438 252.606 210.079 255.496 210.796C258.194 211.602 260.313 213.304 261.758 215.991C263.011 218.32 263.3 220.828 262.529 223.515C261.469 226.113 259.639 228.083 256.941 229.338C249.812 232.831 243.646 235.966 238.443 238.922C238.251 239.011 236.806 239.907 234.204 241.609C223.511 247.61 215.321 252 209.541 254.776C207.229 255.941 205.302 256.836 203.857 257.463C201.352 258.628 198.751 258.807 195.957 257.822C192.97 256.926 190.754 255.224 189.406 252.806C189.406 252.358 189.309 251.641 189.213 250.656C188.924 249.76 188.731 249.133 188.538 248.775C182.373 237.668 175.051 224.769 166.573 209.99C159.058 197.808 151.254 184.372 143.161 169.771C142.005 167.801 140.946 165.83 139.982 164.039C118.113 124.806 103.372 94.1716 95.7613 71.8679C94.7979 69.3598 94.9906 66.8518 96.3394 64.3437C97.3028 62.3731 98.7479 60.94 100.771 60.0442C101.253 59.7755 102.024 59.5964 102.794 59.4172C105.492 58.5215 108.189 58.7902 111.08 60.2234C113.681 61.2087 115.511 63.0897 116.475 65.5978Z" fill="#3A8283" stroke="#3A8283" stroke-width="5" stroke-miterlimit="10"/>
<path d="M208.289 83.1546C202.316 75.8096 198.077 69.629 195.379 64.4338C191.236 56.5514 188.732 48.9376 187.865 41.5926C187.383 34.8747 187.479 30.0377 188.154 26.9922C189.31 21.9761 192.104 17.2287 196.343 12.8397C197.884 11.0482 199.522 9.52545 201.352 8.27142C207.904 3.70319 215.611 2.27002 224.378 4.06148C233.338 5.76338 242.587 10.5107 252.221 18.3036C266.576 28.8732 282.954 45.4443 301.355 68.1959C302.897 70.1665 304.534 72.0475 306.076 74.0181C316.288 86.5584 327.945 101.965 341.144 120.059C347.888 129.643 352.513 136.003 355.114 139.138C357.908 143.527 361.087 147.916 364.555 152.215C366.289 154.276 366.964 156.784 366.675 159.471C366.193 162.337 364.844 164.577 362.628 166.189C362.436 166.279 362.147 166.368 361.761 166.458C361.472 166.726 361.087 166.906 360.798 167.085L360.316 167.443C355.981 171.384 351.742 174.878 347.503 177.833C334.015 187.328 321.105 191.269 308.87 189.836C298.08 188.672 289.312 183.835 282.376 175.325C279.582 171.922 277.077 167.801 274.765 163.143C268.888 150.872 265.516 136.003 264.649 118.536C263.975 100.98 266.19 85.1252 271.393 70.8831C271.682 69.9873 272.356 68.9125 273.416 67.748C260.217 52.431 248.56 40.9656 238.444 33.5311C230.929 28.0671 224.763 24.7529 219.85 23.678C216.96 22.8718 214.455 23.5884 212.432 25.7382C210.698 27.6192 209.638 29.3211 209.252 30.7543C209.06 32.3666 209.156 35.3225 209.638 39.622C210.601 48.5793 215.9 58.9698 225.631 70.9726C227.365 73.0328 227.943 75.5409 227.557 78.4072C227.076 81.2736 225.823 83.5129 223.511 85.1252C221.102 86.8271 218.405 87.3645 215.515 86.9167C212.335 86.4688 210.023 85.2148 208.289 83.1546ZM289.023 86.6479C286.422 98.0237 285.651 110.116 286.615 122.836C287.386 135.644 290.083 146.304 294.515 154.903C299.428 164.129 305.016 169.055 311.182 169.861C315.71 170.22 320.142 169.324 324.477 167.174C329.68 164.935 335.267 161.352 341.144 156.515C340.855 155.798 340.181 154.903 339.217 153.649C338.447 152.305 337.676 151.32 337.098 150.603C334.593 147.468 329.872 141.019 323.032 131.345C310.122 113.609 298.85 98.7403 289.023 86.6479Z" fill="#3A8283" stroke="#3A8283" stroke-width="5" stroke-miterlimit="10"/>
</svg>
