<svg xmlns="http://www.w3.org/2000/svg" width="374" height="390" fill="none"><path fill="#CA422C" d="M16.92 200.265c.138-1.782 1.051-21.424 1.143-23.206.365-7.355.959-17.313 0-24.211-.685-4.887-6.715-6.212-9.456-2.421-10.278 14.481-10.964 40.062.32 52.807 2.512 2.878 7.628 1.69 7.994-2.969ZM284.335 39.972c-5.893-16.354-28.916-27.637-46.183-25.627-4.66.548-6.304 6.578-2.513 9.364 3.518 2.604 7.127 4.523 10.872 6.487 6.898 3.563 31.794 15.486 31.703 15.44 3.654 1.69 7.491-1.873 6.121-5.664Z"/><path fill="#CA422C" d="M15.824 173.633c7.537 2.832 13.156 4.614 20.785 6.395 41.843 9.821 82.407.822 117.216-15.851 44.904-22.018 88.94-60.892 103.466-114.75 2.147-8.085 3.061-12.881 4.157-21.47l-5.253-2.512c-8.131 26.084-21.744 47.873-38.509 66.1-31.245 34.032-79.666 62.993-125.073 73.957-20.282 4.888-38.417 6.075-56.69 4.796-7.171-.457-12.79-1.416-19.87-2.512l-.229 5.847ZM228.467 135.855c-29.281 31.337-60.572 49.929-102.187 60.573a3.25 3.25 0 0 0-2.375 3.928 3.255 3.255 0 0 0 2.832 2.421c42.117 4.02 90.904-25.718 107.121-63.495.685-1.645-.046-3.564-1.69-4.249-1.416-.548-2.878-.091-3.701.822Z"/><path fill="#ABBF56" d="M104.627 298.524c.046 2.878-4.431 10.826-8.45 14.8-1.188 1.234-3.061 2.878-4.249 3.563-1.096.686-2.42 1.553-2.832 1.873-2.284 1.645-9.547 4.34-12.836 4.842-3.837.594-10.004.503-13.522-.137-3.745-.639-9.82-2.558-11.694-3.882-.64-.412-1.781-1.097-2.33-1.508-3.426-1.964-5.755-4.02-8.953-7.72-2.878-3.289-3.791-4.705-5.801-9.09-2.787-6.03-3.61-10.507-3.335-18.41.365-9.227 1.553-13.293 5.756-20.464 1.416-2.193 6.532-8.177 8.04-9.274l2.512-1.781c.776-.64 1.736-1.325 1.964-1.325.229 0 .777-.228 1.188-.685 1.096-.868 6.44-3.015 10.187-3.929 2.33-.685 5.71-.913 8.222-.959 3.746-.046 6.944.046 11.42 1.233 3.974 1.188 8.908 3.655 12.106 5.848 3.334 2.512 3.426 2.603 6.075 6.532 3.335 5.116 4.248 6.989 3.563 7.994-.776.868-16.536 7.72-17.952 7.72-1.188 0-1.416-.228-2.65-1.736-1.325-1.873-5.207-4.705-7.4-5.436-1.964-.731-7.903-.685-9.776-.046-1.644.549-2.512 1.234-4.796 3.564-4.888 4.887-6.487 13.43-3.929 20.236 1.554 4.294 3.563 6.806 7.08 9.41 2.65 1.964 4.523 2.467 7.812 2.558 4.066-.045 6.258-.913 9.73-3.791 1.508-1.325 2.376-2.558 3.38-4.66 1.6-3.197 2.285-3.517 5.254-2.695 1.233.32 2.65.731 3.198.959.548.092 3.197 1.051 6.075 2.056 5.39 1.736 6.898 2.695 6.943 4.34ZM170.316 292.311c2.695 9.73 2.695 9.73 2.147 11.054l-.457 1.142-10.232 2.924c-5.573 1.645-12.425 3.654-15.075 4.385l-14.343 3.746c-7.035 1.827-9.593 2.421-10.096 2.238-.502-.182-.959-1.461-2.649-7.582-1.142-4.112-2.558-8.862-3.198-10.735-.502-1.782-2.055-6.624-3.243-10.507-1.233-4.111-2.65-10.095-3.746-13.202-2.832-9.136-8.405-28.778-8.222-29.875 0-.365.593-.822.959-1.05.502-.229 5.664-1.782 11.557-3.518l10.461-3.015.959.64c.822.548 1.142.822 2.102 4.34.959 3.06 2.832 9.044 3.745 12.425l2.695 9.41c2.33 8.04 4.249 13.293 6.533 20.876l1.005 3.243 12.836-3.517c9.41-2.604 12.745-3.381 13.156-3.152.32 0 1.188 2.741 3.106 9.73ZM200.556 292.905c-2.239.594-18.09 7.217-18.684 7.72-.182.182-.867.228-1.233.182l-.913-.228-8.269-19.414c-4.568-10.598-10.917-25.81-14.252-33.712-5.938-13.613-6.943-16.263-6.213-16.811 1.873-1.233 19.278-8.542 20.557-8.633 2.466-.092 2.421-.183 5.801 7.902 8.908 20.694 11.055 26.678 13.385 31.931 1.507 2.969 4.339 10.324 6.852 16.08 2.512 5.755 4.933 10.917 5.299 11.465.913 1.645.182 2.695-2.33 3.518ZM277.574 242.017c.411.639.32 2.147-.137 5.938-.959 6.304-1.233 7.127-2.969 7.446-.594.092-4.431-.457-8.817-1.187-2.832-.549-3.06-.549-3.334.274-.868 1.736-3.198 5.025-3.746 5.207-.092.046-.229.274-.229.411-.502 1.508-6.258 6.533-10.46 9.182-4.066 2.558-10.918 5.573-12.745 5.573-.229.046-.64 0-.731.092-1.873.776-5.527 1.142-9.365 1.005-.456-.092-1.416 0-2.238-.046-1.964-.046-6.715-1.234-8.771-2.01-.868-.366-1.69-.64-1.827-.64-2.832-.548-10.05-5.207-13.567-8.588-2.421-2.375-4.248-5.116-5.847-7.628-1.233-1.964-3.152-5.162-4.294-8.862-2.056-6.35-2.375-8.086-2.101-14.253.319-8.359 2.786-15.531 7.72-21.972 3.745-4.979 8.451-8.04 11.42-9.913 3.152-2.009 7.765-4.75 13.887-6.029 7.948-1.599 15.485-.777 23.16 2.558 5.573 2.466 7.08 3.426 11.968 8.04 2.832 2.649 5.436 6.578 6.167 7.674 1.553 2.512 3.243 5.344 4.339 8.542 1.508 4.888 2.559 13.978 1.828 16.125-.137.229 1.05.64 2.786.96 7.126 1.279 7.446 1.37 7.903 2.101Zm-44.493-22.977c-2.193-1.234-7.354-2.376-9.73-2.056-2.558.274-3.974.914-7.628 3.38-3.792 2.376-5.254 4.614-6.213 9.091-.822 3.609-.777 5.573.228 9.182 3.198 10.46 13.385 16.49 22.795 13.704 1.736-.548 5.756-2.832 5.573-3.107-.228-.365-2.741-1.005-5.345-1.279-1.918-.365-2.832-.548-3.106-1.005-.365-.548 0-5.161.914-9.684 0-.776.228-2.101.319-2.786 0-.777.275-1.599.64-1.828.548-.365 4.157.229 10.141 1.645.868.137 1.553.183 1.599.046.046-.137-.137-1.462-.457-2.833-1.096-4.568-5.253-9.958-9.73-12.47ZM321.792 178.886c1.507 2.239 3.609 6.898 4.248 9.091.685 2.147.594 8.908.229 10.415-1.553 6.258-6.03 11.877-11.192 17.267-.457.457-2.284 1.782-3.883 3.107-2.969 2.649-8.634 5.71-10.872 6.486-3.563 1.188-8.542.822-10.324.457-2.284-.503-7.034-2.33-9.181-3.929-4.431-2.695-14.892-12.105-28.733-25.307-10.598-10.095-13.522-12.881-13.431-13.43.137-.776.96-1.644 6.99-7.948 7.263-7.629 7.902-8.268 8.725-8.04.913 0 2.192 1.051 17.312 15.623 19.415 18.683 20.511 19.597 24.714 19.643 4.294 0 7.354-4.066 6.897-7.538-.548-3.243-.456-3.654-20.099-22.383-16.171-15.532-17.267-16.628-17.222-17.496 0-.776 1.051-2.055 5.573-6.989 2.65-2.923 5.939-6.03 7.081-7.08l2.512-2.33 2.787 2.649c1.599 1.508 7.948 7.264 13.978 12.882 11.603 10.964 21.013 20.556 23.891 24.85ZM365.006 125.12c3.974 2.147 7.354 4.157 7.72 4.477l.594.548-4.979 9.09c-2.741 5.025-7.903 14.481-11.375 20.968-3.883 7.263-6.669 12.151-7.172 12.608l-.868.913-3.38-1.873c-1.919-1.05-7.08-4.02-11.694-6.395-4.523-2.467-10.278-5.756-12.608-7.172-2.375-1.416-8.588-4.933-13.613-7.857-20.008-11.329-24.348-13.932-24.439-14.663-.137-.457 1.873-4.34 6.669-13.156a1127.972 1127.972 0 0 1 8.04-14.892c1.279-2.33 6.67-11.512 7.766-13.02.32-.319.685-.776.914-.73 1.187-.365 16.125 7.446 16.582 8.588.274.64-.092 2.193-.412 2.375-.319.092-12.105 20.694-11.922 21.059 0 0 1.736.959 3.791 2.193l3.792 2.192 4.842-8.862c4.705-8.588 5.162-9.455 6.075-9.73.777-.319 1.279-.045 7.766 3.472 5.71 3.106 7.081 4.02 7.4 4.568l.503.914-4.979 8.862c-2.65 4.568-4.888 8.725-5.025 9.136l-.229.868 7.629 4.157.777-1.462 3.289-5.573c3.014-5.025 2.695-4.431 5.253-9.547 2.512-5.025 3.106-5.939 4.888-5.984 1.142.045 2.055.456 8.405 3.928Z"/><path fill="#3A8283" stroke="#3A8283" stroke-miterlimit="10" stroke-width="5" d="M55.886 34.764c3.29 10.872 10.552 26.997 21.835 48.33 3.883 7.446 7.492 14.252 10.918 20.465 3.198 5.984 6.258 11.74 9.136 17.359a590.658 590.658 0 0 1 8.634-5.117c.731-.456 1.416-.913 2.101-1.233 3.746-2.284 6.852-4.066 9.319-5.299 1.279-.639 2.604-.822 3.974-.457 1.279.411 2.284 1.279 2.969 2.65.594 1.187.731 2.466.366 3.837-.503 1.325-1.371 2.33-2.65 2.969-3.38 1.782-6.304 3.38-8.77 4.888-.092.046-.777.502-2.01 1.37-5.071 3.061-8.954 5.299-11.695 6.715a51.752 51.752 0 0 1-2.695 1.371c-1.187.594-2.42.685-3.745.182-1.417-.456-2.467-1.324-3.107-2.558 0-.228-.045-.593-.091-1.096-.137-.457-.228-.777-.32-.959-2.923-5.665-6.395-12.243-10.415-19.78-3.563-6.212-7.263-13.064-11.1-20.51-.549-1.005-1.051-2.01-1.508-2.924-10.37-20.008-17.358-35.63-20.967-47.005-.457-1.28-.366-2.558.274-3.837.457-1.005 1.142-1.736 2.101-2.193.229-.137.594-.229.96-.32 1.279-.457 2.558-.32 3.928.411 1.233.503 2.101 1.462 2.558 2.741ZM99.42 43.718c-2.832-3.746-4.842-6.898-6.121-9.548-1.965-4.02-3.152-7.902-3.564-11.648-.228-3.426-.182-5.893.138-7.446.548-2.558 1.873-4.98 3.882-7.218.731-.913 1.508-1.69 2.376-2.33 3.106-2.33 6.761-3.06 10.917-2.146 4.249.868 8.634 3.289 13.202 7.263 6.806 5.39 14.572 13.841 23.297 25.444.731 1.005 1.508 1.964 2.238 2.97 4.843 6.394 10.37 14.252 16.628 23.479 3.198 4.888 5.391 8.131 6.624 9.73a73.911 73.911 0 0 0 4.477 6.67c.822 1.05 1.142 2.329 1.005 3.7-.229 1.461-.868 2.603-1.919 3.425a2.107 2.107 0 0 1-.411.137c-.137.138-.32.229-.457.32l-.228.183c-2.056 2.01-4.066 3.791-6.076 5.299-6.395 4.842-12.516 6.852-18.318 6.121-5.116-.594-9.273-3.06-12.562-7.4-1.325-1.736-2.512-3.837-3.609-6.213-2.786-6.258-4.385-13.841-4.796-22.749-.32-8.953.731-17.039 3.198-24.302.137-.457.456-1.005.959-1.599-6.258-7.81-11.786-13.658-16.582-17.45-3.563-2.786-6.487-4.476-8.817-5.024-1.37-.411-2.558-.046-3.517 1.05-.822.96-1.325 1.828-1.507 2.558-.092.823-.046 2.33.182 4.523.457 4.568 2.97 9.867 7.583 15.988.823 1.05 1.097 2.33.914 3.791-.229 1.462-.822 2.604-1.919 3.426-1.142.868-2.421 1.142-3.791.914-1.508-.228-2.604-.868-3.426-1.919Zm38.28 1.781c-1.233 5.801-1.599 11.968-1.142 18.455.365 6.532 1.645 11.968 3.746 16.354 2.33 4.705 4.979 7.217 7.903 7.628 2.147.183 4.248-.274 6.303-1.37 2.467-1.142 5.117-2.97 7.903-5.436-.137-.366-.457-.822-.913-1.462a11.643 11.643 0 0 0-1.005-1.553c-1.188-1.599-3.426-4.888-6.67-9.821-6.121-9.045-11.466-16.628-16.125-22.795Z"/><path fill="#CA422C" d="M212.656 360.488c-.032-.96 0-2.752 0-4.032 0-1.248-.032-3.008-.064-3.904-.032-1.248-.064-1.664-.192-1.792-.096-.096-.704-.16-3.296-.16h-3.2l-.224.256c-.256.288-.224.32-.192 2.752.032 2.848.064 4.64 0 8.096-.064 2.72.064 2.944-.48 3.52-.832.832-1.792.992-4.128.608-1.792-.32-1.824-.288-1.888.832-.064.864 0 5.44.064 5.664.128.32 2.144.704 4.544.8.896.032 1.376.096 2.368 0 .768-.064 1.824-.288 2.208-.448 1.12-.544 1.664-.864 2.24-1.44.928-.896 1.536-1.824 1.76-2.656.704-2.592.544-4.544.48-8.096Zm17.721 6.976c-.256-.448-.576-.48-2.208-.416-1.664.064-1.472.064-3.168 0l-1.888-.064h-.48v-2.528l.256-.064c.128-.032 1.504-.032 3.04 0l2.944.064.16-.256c.096-.16.128-.64.128-2.528 0-2.144 0-2.304-.192-2.464-.192-.192-.48-.192-3.328-.192h-2.944l.032-1.28c.032-.704.032-1.28.032-1.28.064-.096 6.976.032 7.04.096.096.064.544-.064.672-.224.224-.288.128-5.184-.128-5.44-.032-.064-.192-.096-.32-.128-.544-.064-3.648-.16-4.416-.16-.416 0-2.656 0-4.928.032-2.912 0-4.192.032-4.288.128-.16.128-.224 1.6-.32 8.288-.032 1.696-.064 3.776-.096 4.576-.032.8-.064 2.72-.064 4.224.032 1.504 0 3.232 0 3.872v1.12l.352.096c.192.064 1.824.096 4.224.064 2.144-.032 5.28-.032 6.944-.032h3.008l.064-.224c.032-.128.064-1.28.064-2.592 0-2.112-.032-2.4-.192-2.688Zm22.946 3.584a63.198 63.198 0 0 0-.608-2.144 27.85 27.85 0 0 1-.352-1.184l-.544-1.76c-.352-1.184-.704-2.4-.864-3.072a9.598 9.598 0 0 0-.256-.736c-.096-.192-.16-.416-.16-.48s-.128-.576-.32-1.12c-.704-2.24-.928-2.976-1.056-3.68-.16-.672-.416-1.6-.896-3.072a8.814 8.814 0 0 1-.288-.928c-.288-.992-.64-2.08-.736-2.176-.096-.096-1.12-.128-5.376-.16-1.408 0-1.92.032-2.016.128-.128.128-.512 1.12-1.344 3.648-.288.896-.768 2.304-1.056 3.136-.32.832-.704 2.08-.896 2.784-.192.736-.608 2.016-.864 2.912a50.59 50.59 0 0 0-.736 2.432l-.416 1.44-.576 2.016-.672 2.368c-.352 1.184-.384 1.408-.064 1.536.128.064.352.064.48.064.16-.032 1.568-.096 3.136-.096 1.568-.032 2.944-.096 3.072-.128.224-.064.352-.32.608-1.44.128-.512.256-1.056.32-1.216.032-.192.096-.48.16-.64.032-.192.128-.352.192-.384.128-.064 3.488-.128 4.064-.096.064.032.16.256.224.576.448 1.92.768 3.008.896 3.2.16.16.384.192 3.68.16 2.816-.032 3.52-.064 3.616-.16.096-.128 0-.512-.352-1.728Zm-10.08-7.104c-1.312 0-1.248.032-1.056-.736.064-.256.192-.704.256-1.056.352-1.28.992-3.36 1.056-3.328.032.032.352 2.56.832 4.704l.096.416h-1.184Zm32.884 6.4c0-.256-.096-5.024-.16-9.92-.096-7.808-.128-9.536-.192-9.696-.128-.32-1.376-.224-5.536-.128-.672 0-1.312.128-1.408.192-.128.096-.16.48-.16 2.848 0 2.656.032 4 .16 5.696l.064.832-.256-.256a3.354 3.354 0 0 1-.448-.544c-.16-.352-.608-.928-1.376-1.728-1.28-1.568-1.792-2.272-1.792-2.336 0-.032-.16-.256-.32-.512-.16-.224-.448-.608-.576-.832-.256-.384-.704-.96-.992-1.28a1.911 1.911 0 0 1-.192-.352c-.032-.128-.192-.352-.352-.512-.16-.192-.416-.576-.672-.896l-.256-.32h-3.552c-.864 0-1.28.064-1.408.16-.192.128-.192.288-.288 2.048-.16 2.848-.224 19.328-.096 19.744l.096.352 5.6.096c.992.032 1.344-.064 1.44-.352.064-.256-.096-4.736-.128-6.112l-.064-2.656v-.448l.032-.32.224.288.512.672c.512.672 1.216 1.728 1.696 2.368l1.504 2.048.64.832c.256.32.576.8.768 1.088.448.736.64.992 1.28 1.792.576.704.608.736 1.088.8h2.528c2.656 0 2.56.032 2.592-1.408.032-.576.032-1.12 0-1.248Zm13.221-8.672c0-2.016-.096-2.336-.736-2.336-.608-.032-2.624-.032-5.824 0-2.656.032-3.008.064-3.2.224-.224.16-.224.256-.224 2.208 0 2.368 0 2.336.928 2.464.864.096 8.64.064 8.768-.032.224-.128.32-.8.288-2.528Zm22.067-10.88c-.16-.032-1.664-.064-3.424-.064-3.52 0-3.52 0-3.776.704-.096.224-.512 1.248-.928 2.208-.48.992-.96 2.176-1.152 2.624l-.352.8-.352-.864-1.12-2.656c-.416-.992-.896-1.984-.96-2.208-.288-.736-.288-.736-3.808-.736-1.696 0-3.264.032-3.424.096-.448.128-.48.384-.224.864l.608 1.12c.192.384.544.96.768 1.28.192.288.8 1.472 1.376 2.528.544 1.056 1.152 2.208 1.312 2.464.8 1.408 1.152 2.048 1.792 3.36l.672 1.408.032 4.512c.032 3.328.032 4.576.096 4.64.096.032 1.12.096 2.304.128 2.496.064 4.32.032 4.48-.064.064-.032.064-1.184.032-3.52l-.064-4.608v-1.12l.416-.736c.224-.416.512-.928.608-1.216.096-.224.256-.576.384-.704.096-.16.96-1.792 1.856-3.648.96-1.856 1.792-3.456 1.856-3.52.064-.096.32-.512.544-.96.256-.448.544-1.024.704-1.248.288-.448.192-.736-.256-.864Zm22.723 0c-.128-.128-.96-.16-3.68-.192-2.944 0-3.52 0-3.744.16-.288.16-.352.704-.544 2.528-.064.64-.192 1.216-.192 1.28-.032.032-.224.992-.384 2.112l-.608 3.168c-.32 1.44-.48 2.208-.608 3.008-.096.384-.192.928-.288 1.248l-.16.544-.256-.992c-.64-2.432-2.08-8.096-2.816-11.552-.16-.672-.352-1.312-.416-1.376-.064-.096-.96-.128-3.36-.128-1.824 0-3.328 0-3.392.064-.16.096-.128.448.16 1.504.416 1.28 1.056 3.552 1.12 4 .032.16.096.448.16.576.128.224.48 1.408.672 2.24.032.384.256.96.416 1.344.16.416.416 1.312.64 2.048.192.736.544 1.92.768 2.592.192.672.512 1.632.608 2.016.128.416.224.864.256.992.384.768 1.6 3.968 1.696 4.32.064.256.16.48.224.544.064.064.608.128 1.184.16h1.12c.064-.032 1.184-.064 2.528-.064 1.408-.032 2.496-.064 2.56-.128.064-.096.48-1.184.704-2.144.064-.192.192-.608.32-.96.448-1.472.768-2.368.864-3.04.16-.704.352-1.44 1.088-3.712.192-.544.32-.992.32-1.088 0-.096.064-.32.128-.448.096-.192.192-.544.256-.736.192-.704.512-1.92.896-3.136.192-.64.416-1.376.544-1.728.064-.352.224-.896.32-1.184.128-.352.384-1.28.64-2.144.416-1.504.448-1.568.256-1.696Zm16.829 16.672c-.256-.448-.576-.48-2.208-.416-1.664.064-1.472.064-3.168 0l-1.888-.064h-.48v-2.528l.256-.064c.128-.032 1.504-.032 3.04 0l2.944.064.16-.256c.096-.16.128-.64.128-2.528 0-2.144 0-2.304-.192-2.464-.192-.192-.48-.192-3.328-.192h-2.944l.032-1.28c.032-.704.032-1.28.032-1.28.064-.096 6.976.032 7.04.096.096.064.544-.064.672-.224.224-.288.128-5.184-.128-5.44-.032-.064-.192-.096-.32-.128-.544-.064-3.648-.16-4.416-.16-.416 0-2.656 0-4.928.032-2.912 0-4.192.032-4.288.128-.16.128-.224 1.6-.32 8.288-.032 1.696-.064 3.776-.096 4.576-.032.8-.064 2.72-.064 4.224.032 1.504 0 3.232 0 3.872v1.12l.352.096c.192.064 1.824.096 4.224.064 2.144-.032 5.28-.032 6.944-.032h3.008l.064-.224c.032-.128.064-1.28.064-2.592 0-2.112-.032-2.4-.192-2.688Zm19.202-4.448a8.181 8.181 0 0 0-2.24-2.112c-.864-.512-2.688-1.44-3.328-1.664-1.12-.416-2.656-1.056-3.072-1.344-.512-.352-.608-.8-.256-1.12.192-.128.384-.192.928-.192 1.024 0 1.984.416 2.816 1.248.768.736.672.736 3.008-.448 2.112-1.056 2.592-1.376 2.496-1.696-.48-1.568-2.496-3.872-3.968-4.544-.352-.16-1.152-.416-1.792-.576-1.888-.544-3.84-.448-5.856.256-.992.352-1.696.8-2.592 1.664-.704.736-.928 1.088-1.216 1.728-.608 1.28-.704 1.632-.672 2.944 0 1.696.224 2.4 1.152 3.68.704 1.024 2.784 2.304 5.376 3.264 2.784 1.088 3.712 1.888 2.976 2.72-.256.256-.32.288-1.024.288-1.312-.032-2.656-.768-3.552-1.952-.32-.512-.48-.64-.736-.672-.32-.032-4.864 1.856-4.992 2.08-.128.224 0 .672.48 1.728.704 1.472 1.088 1.984 2.336 3.008.256.224.512.416.544.416.064 0 .384.16.672.352 1.024.736 2.56 1.216 3.872 1.28 1.216.16 2.24.064 3.264-.16 2.816-.64 4.832-2.08 5.792-4.16.384-.8.512-1.408.512-2.72 0-1.44-.288-2.432-.928-3.296Z"/></svg>