<svg xmlns="http://www.w3.org/2000/svg" width="373" height="390" fill="none"><path fill="#A24E4E" d="M16.363 200.265c.137-1.782 1.05-21.424 1.142-23.206.366-7.355.96-17.313 0-24.211-.685-4.887-6.715-6.212-9.456-2.421-10.278 14.481-10.963 40.062.32 52.807 2.512 2.878 7.629 1.69 7.994-2.969ZM283.777 39.972c-5.893-16.354-28.916-27.637-46.183-25.627-4.659.548-6.304 6.578-2.512 9.364 3.517 2.604 7.126 4.523 10.872 6.487 6.897 3.563 31.793 15.486 31.702 15.44 3.654 1.69 7.492-1.873 6.121-5.664Z"/><path fill="#A24E4E" d="M15.267 173.633c7.537 2.832 13.156 4.614 20.784 6.395 41.844 9.821 82.408.822 117.216-15.851 44.904-22.018 88.94-60.892 103.467-114.75 2.147-8.085 3.06-12.881 4.157-21.47l-5.254-2.512c-8.131 26.084-21.744 47.873-38.508 66.1-31.246 34.032-79.667 62.993-125.073 73.957-20.283 4.888-38.418 6.075-56.69 4.796-7.172-.457-12.79-1.416-19.871-2.512l-.228 5.847ZM227.909 135.855c-29.281 31.337-60.572 49.929-102.187 60.573a3.25 3.25 0 0 0-2.376 3.928 3.257 3.257 0 0 0 2.832 2.421c42.118 4.02 90.905-25.718 107.121-63.495.685-1.645-.045-3.564-1.69-4.249-1.416-.548-2.878-.091-3.7.822Z"/><path fill="#ABBF56" d="M104.07 298.524c.045 2.878-4.431 10.826-8.451 14.8-1.188 1.234-3.06 2.878-4.248 3.563-1.097.686-2.421 1.553-2.833 1.873-2.284 1.645-9.547 4.34-12.836 4.842-3.837.594-10.004.503-13.521-.137-3.746-.639-9.822-2.558-11.694-3.882-.64-.412-1.782-1.097-2.33-1.508-3.426-1.964-5.756-4.02-8.953-7.72-2.878-3.289-3.792-4.705-5.802-9.09-2.786-6.03-3.609-10.507-3.335-18.41.366-9.227 1.553-13.293 5.756-20.464 1.416-2.193 6.532-8.177 8.04-9.274l2.512-1.781c.777-.64 1.736-1.325 1.965-1.325.228 0 .776-.228 1.187-.685 1.097-.868 6.441-3.015 10.187-3.929 2.33-.685 5.71-.913 8.222-.959 3.746-.046 6.944.046 11.42 1.233 3.975 1.188 8.908 3.655 12.106 5.848 3.335 2.512 3.426 2.603 6.075 6.532 3.335 5.116 4.249 6.989 3.564 7.994-.777.868-16.537 7.72-17.953 7.72-1.188 0-1.416-.228-2.65-1.736-1.324-1.873-5.207-4.705-7.4-5.436-1.964-.731-7.902-.685-9.775-.046-1.645.549-2.513 1.234-4.797 3.564-4.888 4.887-6.486 13.43-3.928 20.236 1.553 4.294 3.563 6.806 7.08 9.41 2.65 1.964 4.523 2.467 7.812 2.558 4.065-.045 6.258-.913 9.73-3.791 1.507-1.325 2.375-2.558 3.38-4.66 1.599-3.197 2.284-3.517 5.253-2.695 1.234.32 2.65.731 3.198.959.548.092 3.198 1.051 6.075 2.056 5.391 1.736 6.898 2.695 6.944 4.34ZM169.759 292.311c2.695 9.73 2.695 9.73 2.147 11.054l-.457 1.142-10.233 2.924c-5.573 1.645-12.425 3.654-15.074 4.385l-14.344 3.746c-7.035 1.827-9.593 2.421-10.095 2.238-.503-.182-.96-1.461-2.65-7.582-1.142-4.112-2.558-8.862-3.197-10.735-.503-1.782-2.056-6.624-3.244-10.507-1.233-4.111-2.649-10.095-3.745-13.202-2.833-9.136-8.406-28.778-8.223-29.875 0-.365.594-.822.959-1.05.503-.229 5.665-1.782 11.557-3.518l10.461-3.015.96.64c.822.548 1.142.822 2.101 4.34.959 3.06 2.832 9.044 3.746 12.425l2.695 9.41c2.33 8.04 4.248 13.293 6.532 20.876l1.005 3.243 12.836-3.517c9.411-2.604 12.745-3.381 13.156-3.152.32 0 1.188 2.741 3.107 9.73ZM199.999 292.905c-2.238.594-18.089 7.217-18.683 7.72-.183.182-.868.228-1.234.182l-.913-.228-8.268-19.414c-4.568-10.598-10.918-25.81-14.253-33.712-5.938-13.613-6.943-16.263-6.212-16.811 1.873-1.233 19.277-8.542 20.556-8.633 2.467-.092 2.421-.183 5.801 7.902 8.908 20.694 11.055 26.678 13.385 31.931 1.507 2.969 4.34 10.324 6.852 16.08 2.512 5.755 4.933 10.917 5.299 11.465.913 1.645.183 2.695-2.33 3.518ZM277.016 242.017c.411.639.32 2.147-.137 5.938-.959 6.304-1.233 7.127-2.969 7.446-.594.092-4.431-.457-8.816-1.187-2.832-.549-3.061-.549-3.335.274-.868 1.736-3.198 5.025-3.746 5.207-.091.046-.228.274-.228.411-.503 1.508-6.258 6.533-10.461 9.182-4.066 2.558-10.918 5.573-12.745 5.573-.228.046-.639 0-.731.092-1.873.776-5.527 1.142-9.364 1.005-.457-.092-1.416 0-2.239-.046-1.964-.046-6.715-1.234-8.77-2.01-.868-.366-1.69-.64-1.827-.64-2.833-.548-10.05-5.207-13.568-8.588-2.421-2.375-4.248-5.116-5.847-7.628-1.233-1.964-3.152-5.162-4.294-8.862-2.055-6.35-2.375-8.086-2.101-14.253.32-8.359 2.787-15.531 7.72-21.972 3.746-4.979 8.451-8.04 11.42-9.913 3.152-2.009 7.766-4.75 13.887-6.029 7.948-1.599 15.486-.777 23.16 2.558 5.573 2.466 7.081 3.426 11.968 8.04 2.833 2.649 5.436 6.578 6.167 7.674 1.553 2.512 3.244 5.344 4.34 8.542 1.507 4.888 2.558 13.978 1.827 16.125-.137.229 1.051.64 2.787.96 7.126 1.279 7.446 1.37 7.902 2.101Zm-44.492-22.977c-2.193-1.234-7.355-2.376-9.73-2.056-2.559.274-3.975.914-7.629 3.38-3.792 2.376-5.253 4.614-6.213 9.091-.822 3.609-.776 5.573.229 9.182 3.197 10.46 13.384 16.49 22.794 13.704 1.736-.548 5.756-2.832 5.573-3.107-.228-.365-2.74-1.005-5.344-1.279-1.919-.365-2.832-.548-3.107-1.005-.365-.548 0-5.161.914-9.684 0-.776.228-2.101.32-2.786 0-.777.274-1.599.639-1.828.549-.365 4.157.229 10.141 1.645.868.137 1.554.183 1.599.046.046-.137-.137-1.462-.457-2.833-1.096-4.568-5.253-9.958-9.729-12.47ZM321.235 178.886c1.508 2.239 3.609 6.898 4.249 9.091.685 2.147.593 8.908.228 10.415-1.553 6.258-6.03 11.877-11.192 17.267-.457.457-2.284 1.782-3.883 3.107-2.969 2.649-8.633 5.71-10.872 6.486-3.563 1.188-8.542.822-10.323.457-2.284-.503-7.035-2.33-9.182-3.929-4.431-2.695-14.892-12.105-28.733-25.307-10.598-10.095-13.522-12.881-13.43-13.43.137-.776.959-1.644 6.989-7.948 7.263-7.629 7.903-8.268 8.725-8.04.914 0 2.193 1.051 17.313 15.623 19.414 18.683 20.51 19.597 24.713 19.643 4.294 0 7.355-4.066 6.898-7.538-.548-3.243-.457-3.654-20.1-22.383-16.171-15.532-17.267-16.628-17.221-17.496 0-.776 1.05-2.055 5.573-6.989 2.649-2.923 5.938-6.03 7.08-7.08l2.513-2.33 2.786 2.649c1.599 1.508 7.949 7.264 13.978 12.882 11.603 10.964 21.013 20.556 23.891 24.85ZM364.448 125.12c3.974 2.147 7.355 4.157 7.72 4.477l.594.548-4.979 9.09c-2.741 5.025-7.903 14.481-11.375 20.968-3.882 7.263-6.669 12.151-7.171 12.608l-.868.913-3.381-1.873c-1.918-1.05-7.08-4.02-11.694-6.395-4.522-2.467-10.278-5.756-12.608-7.172-2.375-1.416-8.588-4.933-13.612-7.857-20.009-11.329-24.348-13.932-24.44-14.663-.137-.457 1.873-4.34 6.67-13.156a1103.063 1103.063 0 0 1 8.04-14.892c1.279-2.33 6.669-11.512 7.765-13.02.32-.319.685-.776.914-.73 1.188-.365 16.125 7.446 16.582 8.588.274.64-.091 2.193-.411 2.375-.32.092-12.106 20.694-11.923 21.059 0 0 1.736.959 3.792 2.193l3.791 2.192 4.842-8.862c4.705-8.588 5.162-9.455 6.076-9.73.776-.319 1.279-.045 7.765 3.472 5.711 3.106 7.081 4.02 7.401 4.568l.502.914-4.979 8.862c-2.649 4.568-4.888 8.725-5.025 9.136l-.228.868 7.628 4.157.777-1.462 3.289-5.573c3.015-5.025 2.695-4.431 5.253-9.547 2.513-5.025 3.106-5.939 4.888-5.984 1.142.045 2.056.456 8.405 3.928Z"/><path fill="#3A8283" stroke="#3A8283" stroke-miterlimit="10" stroke-width="5" d="M55.328 34.764c3.29 10.872 10.553 26.997 21.836 48.33 3.883 7.446 7.491 14.252 10.917 20.465 3.198 5.984 6.259 11.74 9.136 17.359a589.01 589.01 0 0 1 8.634-5.117c.731-.456 1.416-.913 2.101-1.233 3.746-2.284 6.853-4.066 9.319-5.299 1.279-.639 2.604-.822 3.974-.457 1.28.411 2.284 1.279 2.97 2.65.594 1.187.731 2.466.365 3.837-.502 1.325-1.37 2.33-2.649 2.969-3.381 1.782-6.304 3.38-8.771 4.888-.091.046-.777.502-2.01 1.37-5.07 3.061-8.953 5.299-11.694 6.715a51.977 51.977 0 0 1-2.695 1.371c-1.188.594-2.421.685-3.746.182-1.416-.456-2.467-1.324-3.106-2.558 0-.228-.046-.593-.092-1.096-.137-.457-.228-.777-.32-.959-2.923-5.665-6.395-12.243-10.415-19.78-3.563-6.212-7.263-13.064-11.1-20.51a91.595 91.595 0 0 1-1.507-2.924c-10.37-20.008-17.36-35.63-20.968-47.005-.457-1.28-.365-2.558.274-3.837.457-1.005 1.142-1.736 2.102-2.193.228-.137.593-.229.959-.32 1.279-.457 2.558-.32 3.928.411 1.234.503 2.102 1.462 2.558 2.741ZM98.862 43.718c-2.832-3.746-4.842-6.898-6.121-9.548-1.964-4.02-3.152-7.902-3.563-11.648-.228-3.426-.183-5.893.137-7.446.548-2.558 1.873-4.98 3.883-7.218.73-.913 1.507-1.69 2.375-2.33 3.107-2.33 6.761-3.06 10.918-2.146 4.248.868 8.633 3.289 13.201 7.263 6.807 5.39 14.573 13.841 23.298 25.444.73 1.005 1.507 1.964 2.238 2.97 4.842 6.394 10.369 14.252 16.628 23.479 3.197 4.888 5.39 8.131 6.623 9.73a73.911 73.911 0 0 0 4.477 6.67c.822 1.05 1.142 2.329 1.005 3.7-.228 1.461-.868 2.603-1.919 3.425a2.107 2.107 0 0 1-.411.137c-.137.138-.32.229-.457.32l-.228.183c-2.056 2.01-4.066 3.791-6.076 5.299-6.395 4.842-12.516 6.852-18.317 6.121-5.117-.594-9.274-3.06-12.563-7.4-1.324-1.736-2.512-3.837-3.608-6.213-2.787-6.258-4.386-13.841-4.797-22.749-.32-8.953.731-17.039 3.198-24.302.137-.457.457-1.005.959-1.599-6.258-7.81-11.785-13.658-16.582-17.45-3.563-2.786-6.486-4.476-8.816-5.024-1.371-.411-2.558-.046-3.518 1.05-.822.96-1.324 1.828-1.507 2.558-.091.823-.046 2.33.183 4.523.457 4.568 2.969 9.867 7.583 15.988.822 1.05 1.096 2.33.913 3.791-.228 1.462-.822 2.604-1.918 3.426-1.142.868-2.421 1.142-3.792.914-1.507-.228-2.604-.868-3.426-1.919Zm38.28 1.781c-1.233 5.801-1.598 11.968-1.142 18.455.366 6.532 1.645 11.968 3.746 16.354 2.33 4.705 4.979 7.217 7.903 7.628 2.147.183 4.248-.274 6.304-1.37 2.467-1.142 5.116-2.97 7.903-5.436-.137-.366-.457-.822-.914-1.462a11.543 11.543 0 0 0-1.005-1.553c-1.188-1.599-3.426-4.888-6.669-9.821-6.122-9.045-11.466-16.628-16.126-22.795Z"/><path fill="#A24E4E" d="M149.099 360.488c-.032-.96 0-2.752 0-4.032 0-1.248-.032-3.008-.064-3.904-.032-1.248-.064-1.664-.192-1.792-.096-.096-.704-.16-3.296-.16h-3.2l-.224.256c-.256.288-.224.32-.192 2.752.032 2.848.064 4.64 0 8.096-.064 2.72.064 2.944-.48 3.52-.832.832-1.792.992-4.128.608-1.792-.32-1.824-.288-1.888.832-.064.864 0 5.44.064 5.664.128.32 2.144.704 4.544.8.896.032 1.376.096 2.368 0 .768-.064 1.824-.288 2.208-.448 1.12-.544 1.664-.864 2.24-1.44.928-.896 1.536-1.824 1.76-2.656.704-2.592.544-4.544.48-8.096Zm17.72 6.976c-.256-.448-.576-.48-2.208-.416-1.664.064-1.472.064-3.168 0l-1.888-.064h-.48v-2.528l.256-.064c.128-.032 1.504-.032 3.04 0l2.944.064.16-.256c.096-.16.128-.64.128-2.528 0-2.144 0-2.304-.192-2.464-.192-.192-.48-.192-3.328-.192h-2.944l.032-1.28c.032-.704.032-1.28.032-1.28.064-.096 6.976.032 7.04.096.096.064.544-.064.672-.224.224-.288.128-5.184-.128-5.44-.032-.064-.192-.096-.32-.128-.544-.064-3.648-.16-4.416-.16-.416 0-2.656 0-4.928.032-2.912 0-4.192.032-4.288.128-.16.128-.224 1.6-.32 8.288-.032 1.696-.064 3.776-.096 4.576-.032.8-.064 2.72-.064 4.224.032 1.504 0 3.232 0 3.872v1.12l.352.096c.192.064 1.824.096 4.224.064 2.144-.032 5.28-.032 6.944-.032h3.008l.064-.224c.032-.128.064-1.28.064-2.592 0-2.112-.032-2.4-.192-2.688Zm22.946 3.584c-.224-.864-.512-1.824-.608-2.144a27.85 27.85 0 0 1-.352-1.184l-.544-1.76c-.352-1.184-.704-2.4-.864-3.072a9.598 9.598 0 0 0-.256-.736c-.096-.192-.16-.416-.16-.48s-.128-.576-.32-1.12c-.704-2.24-.928-2.976-1.056-3.68-.16-.672-.416-1.6-.896-3.072a8.814 8.814 0 0 1-.288-.928c-.288-.992-.64-2.08-.736-2.176-.096-.096-1.12-.128-5.376-.16-1.408 0-1.92.032-2.016.128-.128.128-.512 1.12-1.344 3.648-.288.896-.768 2.304-1.056 3.136-.32.832-.704 2.08-.896 2.784-.192.736-.608 2.016-.864 2.912a50.59 50.59 0 0 0-.736 2.432l-.416 1.44-.576 2.016-.672 2.368c-.352 1.184-.384 1.408-.064 1.536.128.064.352.064.48.064.16-.032 1.568-.096 3.136-.096 1.568-.032 2.944-.096 3.072-.128.224-.064.352-.32.608-1.44.128-.512.256-1.056.32-1.216.032-.192.096-.48.16-.64.032-.192.128-.352.192-.384.128-.064 3.488-.128 4.064-.096.064.032.16.256.224.576.448 1.92.768 3.008.896 3.2.16.16.384.192 3.68.16 2.816-.032 3.52-.064 3.616-.16.096-.128 0-.512-.352-1.728Zm-10.08-7.104c-1.312 0-1.248.032-1.056-.736.064-.256.192-.704.256-1.056.352-1.28.992-3.36 1.056-3.328.032.032.352 2.56.832 4.704l.096.416h-1.184Zm32.885 6.4c0-.256-.096-5.024-.16-9.92-.096-7.808-.128-9.536-.192-9.696-.128-.32-1.376-.224-5.536-.128-.672 0-1.312.128-1.408.192-.128.096-.16.48-.16 2.848 0 2.656.032 4 .16 5.696l.064.832-.256-.256a3.354 3.354 0 0 1-.448-.544c-.16-.352-.608-.928-1.376-1.728-1.28-1.568-1.792-2.272-1.792-2.336 0-.032-.16-.256-.32-.512-.16-.224-.448-.608-.576-.832-.256-.384-.704-.96-.992-1.28a1.911 1.911 0 0 1-.192-.352c-.032-.128-.192-.352-.352-.512-.16-.192-.416-.576-.672-.896l-.256-.32h-3.552c-.864 0-1.28.064-1.408.16-.192.128-.192.288-.288 2.048-.16 2.848-.224 19.328-.096 19.744l.096.352 5.6.096c.992.032 1.344-.064 1.44-.352.064-.256-.096-4.736-.128-6.112l-.064-2.656v-.448l.032-.32.224.288.512.672c.512.672 1.216 1.728 1.696 2.368l1.504 2.048.64.832c.256.32.576.8.768 1.088.448.736.64.992 1.28 1.792.576.704.608.736 1.088.8h2.528c2.656 0 2.56.032 2.592-1.408.032-.576.032-1.12 0-1.248Zm13.22-8.672c0-2.016-.096-2.336-.736-2.336-.608-.032-2.624-.032-5.824 0-2.656.032-3.008.064-3.2.224-.224.16-.224.256-.224 2.208 0 2.368 0 2.336.928 2.464.864.096 8.64.064 8.768-.032.224-.128.32-.8.288-2.528Zm16.884-1.184c-.032-.96 0-2.752 0-4.032 0-1.248-.032-3.008-.064-3.904-.032-1.248-.064-1.664-.192-1.792-.096-.096-.704-.16-3.296-.16h-3.2l-.224.256c-.256.288-.224.32-.192 2.752.032 2.848.064 4.64 0 8.096-.064 2.72.064 2.944-.48 3.52-.832.832-1.792.992-4.128.608-1.792-.32-1.824-.288-1.888.832-.064.864 0 5.44.064 5.664.128.32 2.144.704 4.544.8.896.032 1.376.096 2.368 0 .768-.064 1.824-.288 2.208-.448 1.12-.544 1.664-.864 2.24-1.44.928-.896 1.536-1.824 1.76-2.656.704-2.592.544-4.544.48-8.096Zm21.807 10.56a63.198 63.198 0 0 0-.608-2.144 27.85 27.85 0 0 1-.352-1.184l-.544-1.76c-.352-1.184-.704-2.4-.864-3.072a9.598 9.598 0 0 0-.256-.736c-.096-.192-.16-.416-.16-.48s-.128-.576-.32-1.12c-.704-2.24-.928-2.976-1.056-3.68-.16-.672-.416-1.6-.896-3.072a8.814 8.814 0 0 1-.288-.928c-.288-.992-.64-2.08-.736-2.176-.096-.096-1.12-.128-5.376-.16-1.408 0-1.92.032-2.016.128-.128.128-.512 1.12-1.344 3.648-.288.896-.768 2.304-1.056 3.136-.32.832-.704 2.08-.896 2.784-.192.736-.608 2.016-.864 2.912a50.59 50.59 0 0 0-.736 2.432l-.416 1.44-.576 2.016-.672 2.368c-.352 1.184-.384 1.408-.064 1.536.128.064.352.064.48.064.16-.032 1.568-.096 3.136-.096 1.568-.032 2.944-.096 3.072-.128.224-.064.352-.32.608-1.44.128-.512.256-1.056.32-1.216.032-.192.096-.48.16-.64.032-.192.128-.352.192-.384.128-.064 3.488-.128 4.064-.096.064.032.16.256.224.576.448 1.92.768 3.008.896 3.2.16.16.384.192 3.68.16 2.816-.032 3.52-.064 3.616-.16.096-.128 0-.512-.352-1.728Zm-10.08-7.104c-1.312 0-1.248.032-1.056-.736.064-.256.192-.704.256-1.056.352-1.28.992-3.36 1.056-3.328.032.032.352 2.56.832 4.704l.096.416h-1.184Zm30.836.832c-.832-.288-1.6-.576-1.76-.608-.16-.064-.576-.192-.928-.288-.864-.256-1.056-.16-1.536.768-.288.608-.544.96-.992 1.344-1.024.832-1.664 1.088-2.848 1.088-.96-.032-1.504-.192-2.272-.768-1.024-.768-1.6-1.504-2.048-2.752-.736-1.984-.256-4.48 1.184-5.888.672-.672.928-.864 1.408-1.024.544-.192 2.272-.192 2.848.032.64.224 1.76 1.056 2.144 1.6.352.448.416.512.768.512.416 0 5.024-1.952 5.248-2.208.192-.288-.064-.832-1.024-2.336-.768-1.152-.8-1.184-1.76-1.92-.928-.64-2.368-1.376-3.52-1.728-1.312-.352-2.24-.384-3.328-.384-.736 0-1.728.064-2.4.256-1.088.256-2.656.864-2.976 1.12-.128.128-.288.192-.352.192s-.352.192-.576.384l-.736.512c-.448.32-1.952 2.048-2.368 2.688-1.248 2.08-1.6 3.264-1.728 5.952-.096 2.304.128 3.616.928 5.376.576 1.28.832 1.696 1.664 2.656.928 1.088 1.6 1.696 2.592 2.272.16.128.48.32.672.448.544.384 2.304.96 3.392 1.152 1.024.192 2.816.224 3.936.064.96-.128 3.072-.896 3.744-1.376.128-.096.512-.352.832-.544.352-.192.896-.672 1.248-1.024 1.184-1.152 2.496-3.456 2.496-4.288 0-.48-.448-.768-1.952-1.28Zm25.624 4.736c-.384-.352-.608-.64-.544-.672.512-.416 1.664-2.816 2.048-4.256.224-.96.256-1.92.256-2.784 0-.384-.032-1.76-.32-2.848-.48-1.888-.704-2.368-1.696-3.84-1.376-2.016-3.104-3.392-5.312-4.224-1.696-.64-3.264-.672-4.352-.672-1.024 0-2.656.032-4.352.672-2.208.832-3.936 2.208-5.312 4.224-1.024 1.472-1.216 1.952-1.696 3.84-.288 1.088-.32 2.176-.32 2.848 0 .864.032 1.824.256 2.784.352 1.376 1.408 3.648 2.016 4.224.032.032.192.224.352.448.384.512 1.376 1.536 1.856 1.856.192.128.448.256.544.352.928.64 1.888 1.12 2.464 1.216.032 0 .128.064.192.096.448.288 2.592.608 4 .608 1.44 0 3.648-.352 4-.64a.243.243 0 0 1 .128-.064c.16.032 1.248-.416 1.728-.704.192-.16.256-.128.864.448.96.864 1.824 1.6 1.984 1.664.48.192.672.032 1.888-1.376.704-.864.96-1.216.96-1.44 0-.256-.064-.32-1.632-1.76Zm-5.312-6.24c-.128.384-.288.736-.32.768-.032.032-.192-.096-.384-.256-1.248-1.28-2.048-1.984-2.24-1.984-.128 0-.32.16-.448.352-.128.16-.384.448-.512.64-.928.96-1.728 2.048-1.728 2.24 0 .16.192.352.608.736.608.48 1.12 1.024 1.12 1.152 0 .096-1.344.032-1.856-.096-2.752-.768-4.32-3.84-3.488-6.912.32-1.056.608-1.536 1.376-2.304.928-.96 1.632-1.28 2.944-1.28 1.28-.032 1.728.032 2.4.352.64.288 1.728 1.376 2.08 2.016.704 1.312.896 3.296.448 4.576Zm28.101-5.888c-.032-2.4-.096-4.896-.096-5.536v-1.12l-.992-.064a34.444 34.444 0 0 0-2.912-.064c-1.952.032-2.432.064-2.592.224-.192.16-.192.608-.224 7.136 0 7.904-.096 7.968-.672 8.736-.64.8-2.112.96-2.976.064-.832-.896-.864-1.312-.832-9.152.032-6.112 0-6.592-.192-6.784-.128-.224-.384-.224-3.456-.224-2.528 0-2.88 0-3.072.128-.128.096-.128 1.28-.128 5.536 0 5.568.128 9.664.448 11.136.096.768.672 2.144 1.024 2.72.288.448 1.216 1.568 2.176 2.08.608.32 2.4.896 3.552.992.608.064 1.248.192 1.44.192 2.176 0 4.256-.192 5.888-1.12.384-.224 1.824-1.568 2.144-2.144.32-.576.896-1.952 1.056-2.72.32-1.472.448-5.376.416-10.016Zm17.679 10.08c-.256-.448-.576-.48-2.208-.416-1.664.064-1.472.064-3.168 0l-1.888-.064h-.48v-2.528l.256-.064c.128-.032 1.504-.032 3.04 0l2.944.064.16-.256c.096-.16.128-.64.128-2.528 0-2.144 0-2.304-.192-2.464-.192-.192-.48-.192-3.328-.192h-2.944l.032-1.28c.032-.704.032-1.28.032-1.28.064-.096 6.976.032 7.04.096.096.064.544-.064.672-.224.224-.288.128-5.184-.128-5.44-.032-.064-.192-.096-.32-.128-.544-.064-3.648-.16-4.416-.16-.416 0-2.656 0-4.928.032-2.912 0-4.192.032-4.288.128-.16.128-.224 1.6-.32 8.288-.032 1.696-.064 3.776-.096 4.576-.032.8-.064 2.72-.064 4.224.032 1.504 0 3.232 0 3.872v1.12l.352.096c.192.064 1.824.096 4.224.064 2.144-.032 5.28-.032 6.944-.032h3.008l.064-.224c.032-.128.064-1.28.064-2.592 0-2.112-.032-2.4-.192-2.688Zm19.202-4.448a8.181 8.181 0 0 0-2.24-2.112c-.864-.512-2.688-1.44-3.328-1.664-1.12-.416-2.656-1.056-3.072-1.344-.512-.352-.608-.8-.256-1.12.192-.128.384-.192.928-.192 1.024 0 1.984.416 2.816 1.248.768.736.672.736 3.008-.448 2.112-1.056 2.592-1.376 2.496-1.696-.48-1.568-2.496-3.872-3.968-4.544-.352-.16-1.152-.416-1.792-.576-1.888-.544-3.84-.448-5.856.256-.992.352-1.696.8-2.592 1.664-.704.736-.928 1.088-1.216 1.728-.608 1.28-.704 1.632-.672 2.944 0 1.696.224 2.4 1.152 3.68.704 1.024 2.784 2.304 5.376 3.264 2.784 1.088 3.712 1.888 2.976 2.72-.256.256-.32.288-1.024.288-1.312-.032-2.656-.768-3.552-1.952-.32-.512-.48-.64-.736-.672-.32-.032-4.864 1.856-4.992 2.08-.128.224 0 .672.48 1.728.704 1.472 1.088 1.984 2.336 3.008.256.224.512.416.544.416.064 0 .384.16.672.352 1.024.736 2.56 1.216 3.872 1.28 1.216.16 2.24.064 3.264-.16 2.816-.64 4.832-2.08 5.792-4.16.384-.8.512-1.408.512-2.72 0-1.44-.288-2.432-.928-3.296Z"/></svg>