<?xml version="1.0" standalone="no"?>
<!DOCTYPE svg PUBLIC "-//W3C//DTD SVG 20010904//EN"
 "http://www.w3.org/TR/2001/REC-SVG-20010904/DTD/svg10.dtd">
<svg version="1.0" xmlns="http://www.w3.org/2000/svg"
 width="251.000000pt" height="251.000000pt" viewBox="0 0 251.000000 251.000000"
 preserveAspectRatio="xMidYMid meet">
<metadata>
Created by potrace 1.11, written by Peter Selinger 2001-2013
</metadata>
<g transform="translate(0.000000,251.000000) scale(0.100000,-0.100000)"
fill="#000000" stroke="none">
<path d="M420 2502 c-6 -2 -10 -164 -10 -457 l0 -453 85 0 85 1 58 65 c31 36
65 74 75 86 10 12 47 53 82 91 34 39 100 113 146 165 46 52 105 118 130 145
26 28 80 88 120 135 41 47 83 94 94 106 104 109 107 114 83 115 -113 2 -940 3
-948 1z"/>
<path d="M2059 2281 c-19 -21 -88 -96 -154 -167 -66 -70 -135 -143 -153 -163
-48 -51 -275 -293 -353 -376 -37 -38 -100 -106 -142 -150 -64 -68 -73 -82 -63
-95 19 -22 603 -689 640 -730 17 -19 63 -71 101 -115 39 -44 82 -93 97 -110
14 -16 35 -41 47 -55 l21 -25 -1 1013 c0 556 -2 1012 -3 1012 -1 0 -18 -18
-37 -39z"/>
<path d="M503 1077 c-4 -7 -8 -956 -4 -1052 1 -20 7 -20 534 -19 292 1 533 2
534 3 2 1 -131 162 -236 286 -25 30 -508 613 -550 664 -20 24 -52 62 -73 85
l-36 41 -82 0 c-45 1 -84 -3 -87 -8z"/>
</g>
</svg>
