<?xml version="1.0" encoding="utf-8"?>
<!-- Generator: Adobe Illustrator 24.1.3, SVG Export Plug-In . SVG Version: 6.00 Build 0)  -->
<svg version="1.1" id="Layer_1" xmlns="http://www.w3.org/2000/svg" xmlns:xlink="http://www.w3.org/1999/xlink" x="0px" y="0px"
	 viewBox="0 0 283.5 141.7" style="enable-background:new 0 0 283.5 141.7;" xml:space="preserve">
<style type="text/css">
	.st0{fill:#ED2334;}
</style>
<g>
	<path class="st0" d="M56.5,84.7v7.1c-2.6,1.1-5.7,1.6-8.8,1.6c-6.4,0-10.7-4.4-10.7-10.9V65.2h-5.7v-7.4h5.7v-9.7h8.8v9.7H56v7.4
		H45.7v15.4c0,3.1,1.9,5.2,4.8,5.2C52.5,85.8,54.5,85.5,56.5,84.7z"/>
	<path class="st0" d="M93.5,71.4v21.8H85l-0.2-4.9c-2.3,3.1-6.3,5.1-10.6,5.1c-7.2,0-12.1-4.3-12.1-10.7c0-6.7,5.9-11,14.8-11
		c2.4,0,5,0.3,7.7,0.8v-0.6c0-4.6-3.1-7.4-8.4-7.4c-3.3,0-5.9,1-8.1,2.8L64.4,62c3.7-3,8.1-4.5,14.2-4.5
		C87.5,57.5,93.5,62.8,93.5,71.4z M84.7,78.3c-2.3-0.4-4.6-0.7-6.6-0.7c-4.1,0-6.8,1.9-6.8,4.9c0,2.8,1.9,4.7,5.4,4.7
		C80.9,87.2,84.7,84,84.7,78.3z"/>
	<path class="st0" d="M155,58.1h8.8v35.1H155V58.1z"/>
	<path class="st0" d="M155,48.2h8.8v5.1H155V48.2z"/>
	<path class="st0" d="M169.5,75.5c0-10.7,7.5-17.9,18.7-17.9c4.6,0,8.7,1.5,11.9,4l-5,5.9c-1.8-1.5-3.9-2.4-6.8-2.4
		c-5.8,0-9.7,4.2-9.7,10.5s3.9,10.5,9.8,10.5c3.2,0,5.9-1,7.9-3.1l5,5.8c-3.3,3.3-8,4.8-13.2,4.8C177,93.5,169.5,86.3,169.5,75.5z"
		/>
	<path class="st0" d="M237.8,71v22.2h-8.4l-0.2-5.4c-2.3,3.6-6.3,5.6-10.6,5.6c-7.2,0-12.1-4.3-12.1-10.7c0-6.7,5.9-11,14.8-11
		c2.4,0,5,0.3,7.7,0.8v-0.6c0-4.6-3.1-7.4-8.4-7.4c-3.3,0-5.9,1-8.1,2.8l-3.8-5.1c3.7-3,8.1-4.5,14.2-4.5
		C231.8,57.5,237.8,62.8,237.8,71z M229,78.3c-2.3-0.4-4.6-0.7-6.6-0.7c-4.1,0-6.8,1.9-6.8,4.9c0,2.8,1.9,4.7,5.4,4.7
		C225.1,87.2,229,84,229,78.3z"/>
	<path class="st0" d="M243.5,48.2h8.8v45h-8.8V48.2z"/>
	<polygon class="st0" points="124.5,89.2 124.2,60.5 111.3,74.2 	"/>
	<polygon class="st0" points="102.8,70.7 114.2,57.8 100.2,57.8 100.2,70.7 	"/>
	<polygon class="st0" points="104.1,77.9 101.7,77.9 101.7,93.1 116.8,93.1 	"/>
	<path class="st0" d="M143.4,85.8c-2.8,0-4.8-2.1-4.8-5.2V65.2h10.3v-7.4h-10.3v-9.7h-8.8v9.7h-3.2l-2.5,2.7l0,4.7h5.7v17.2
		c0,6.5,4.3,10.9,10.7,10.9c3.1,0,6.2-0.5,8.8-1.6v-7.1C147.4,85.5,145.4,85.8,143.4,85.8z"/>
</g>
</svg>
