<svg 
xmlns="http://www.w3.org/2000/svg" 
viewBox="0 0 221 69.64">
  <g id="e392d06e-3e16-4fe0-9133-e2d5999ceff9" data-name="Layer 2">
    <g id="f76ec05b-af6e-4c6d-b948-bdc453193c43" data-name="headerlogo">
      <g>
        <path d="M25.2,36.6v7.1a23,23,0,0,1-8.8,1.6C10,45.3,5.7,40.9,5.7,34.4V17.1H0V9.7H5.7V0h8.8V9.7H24.7v7.4H14.4V32.5c0,3.1,1.9,5.2,4.8,5.2A16,16,0,0,0,25.2,36.6Z" style="fill: #ed1b33"/>
        <path d="M62.2,23.33v21.8H53.7l-.2-4.9a13.29,13.29,0,0,1-10.6,5.1c-7.2,0-12.1-4.3-12.1-10.7,0-6.7,5.9-11,14.8-11a42.35,42.35,0,0,1,7.7.8v-.6c0-4.6-3.1-7.4-8.4-7.4a12.24,12.24,0,0,0-8.1,2.8L33.09,13.9c3.7-3,8.1-4.5,14.2-4.5C56.2,9.4,62.2,14.7,62.2,23.33Zm-8.8,6.9a39.52,39.52,0,0,0-6.6-.7c-4.1,0-6.8,1.9-6.8,4.9,0,2.8,1.9,4.7,5.4,4.7,4.2,0,8-3.23,8-8.93Z" style="fill: #ed1b33"/>
        <path d="M123.7,10h8.8V45.1h-8.8Z" style="fill: #ed1b33"/>
        <path d="M123.7.1h8.8V5.2h-8.8Z" style="fill: #ed1b33"/>
        <path d="M138.2,27.4c0-10.7,7.5-17.9,18.7-17.9a19.19,19.19,0,0,1,11.9,4l-5,5.9A10,10,0,0,0,157,17c-5.8,0-9.7,4.2-9.7,10.5S151.2,38,157.1,38a10.48,10.48,0,0,0,7.9-3.1l5,5.8c-3.3,3.3-8,4.8-13.2,4.8C145.7,45.4,138.2,38.2,138.2,27.4Z" style="fill: #ed1b33"/>
        <path d="M206.5,22.9V45.1h-8.41l-.2-5.4a12.41,12.41,0,0,1-10.6,5.6c-7.2,0-12.1-4.3-12.1-10.7,0-6.7,5.9-11,14.8-11a42.35,42.35,0,0,1,7.7.8v-.6c0-4.6-3.1-7.4-8.4-7.4a12.24,12.24,0,0,0-8.1,2.8l-3.8-5.1c3.7-3,8.1-4.5,14.2-4.5C200.5,9.4,206.5,14.7,206.5,22.9Zm-8.8,7.3a39.52,39.52,0,0,0-6.6-.7c-4.1,0-6.8,1.9-6.8,4.9,0,2.8,1.9,4.7,5.4,4.7C193.8,39.1,197.7,35.9,197.7,30.2Z" style="fill: #ed1b33"/>
        <path d="M212.2.1H221v45h-8.8Z" style="fill: #ed1b33"/>
        <polygon points="93.2 41.1 92.9 12.4 80 26.1 93.2 41.1" style="fill: #ed1b33"/>
        <polygon points="71.5 22.6 82.9 9.7 68.9 9.7 68.9 22.6 71.5 22.6" style="fill: #ed1b33"/>
        <polygon points="72.8 29.8 70.4 29.8 70.4 45 85.5 45 72.8 29.8" style="fill: #ed1b33"/>
        <path d="M112.09,37.7c-2.8,0-4.8-2.1-4.8-5.2V17.1h10.3V9.7h-10.3V0h-8.8V9.7h-3.2l-2.5,2.7v4.7h5.7V34.33c0,6.5,4.3,10.9,10.7,10.9a23,23,0,0,0,8.8-1.6v-7.1A13.45,13.45,0,0,1,112.09,37.7Z" style="fill: #ed1b33"/>
      </g>
      <g>
        <path d="M116.27,62.36c0,4.37-2.72,7.28-7,7.28A6.88,6.88,0,0,1,102,62.36a6.86,6.86,0,0,1,7.29-7.27,7.75,7.75,0,0,1,5,1.57l-1.78,1.68a4.52,4.52,0,0,0-3.2-1c-2.72,0-4.54,2-4.54,5s1.8,5,4.52,5a3.91,3.91,0,0,0,4.14-3.7h-3.66V61.46h6.45C116.25,61.77,116.27,62.06,116.27,62.36Z" style="fill: #4c546b"/>
        <path d="M127.75,65.22h-7.47a2.35,2.35,0,0,0,2.47,2.37,3.24,3.24,0,0,0,2.53-1.22l2,1a5.29,5.29,0,0,1-4.5,2.26,5,5,0,0,1-5.27-5.28c0-3.26,2-5.42,5.15-5.42a4.88,4.88,0,0,1,5.15,5.19C127.82,64.49,127.78,64.91,127.75,65.22Zm-7.47-1.76h4.8c-.19-1.58-1-2.47-2.41-2.47S120.49,61.88,120.28,63.46Z" style="fill: #4c546b"/>
        <path d="M136.21,67.06v2.1a6.82,6.82,0,0,1-2.62.48,3,3,0,0,1-3.18-3.26V61.25h-1.7V59.13h1.7v-3H133v3h3v2.12h-3v4.6a1.4,1.4,0,0,0,1.41,1.55A4.65,4.65,0,0,0,136.21,67.06Z" style="fill: #4c546b"/>
        <path d="M143.05,55.28h2.7V69.45h-2.7Z" style="fill: #4c546b"/>
        <path d="M158.8,63v6.49h-2.61V63.38a2.42,2.42,0,0,0-4.82,0v6.07h-2.61V59.13h2.51l0,1.3a4.18,4.18,0,0,1,3.37-1.49A3.84,3.84,0,0,1,158.8,63Z" style="fill: #4c546b"/>
        <path d="M175.81,57.52h-4.33V69.45h-2.7V57.52h-4.31V55.28h11.34Z" style="fill: #4c546b"/>
        <path d="M175.18,64.28c0-3.2,2.22-5.34,5.53-5.34a5.35,5.35,0,1,1-5.53,5.34Zm8.35,0a2.84,2.84,0,1,0-2.82,3.12A2.81,2.81,0,0,0,183.53,64.28Z" style="fill: #4c546b"/>
        <path d="M197.8,59.13V69.45h-2.51l0-1.26a3.93,3.93,0,0,1-3.18,1.45,3.77,3.77,0,0,1-3.93-4V59.13h2.61V65.2A2.1,2.1,0,0,0,193,67.4a2.08,2.08,0,0,0,2.2-2.2V59.13Z" style="fill: #4c546b"/>
        <path d="M199.85,64.28c0-3.2,2.22-5.34,5.55-5.34a5.69,5.69,0,0,1,3.54,1.18l-1.47,1.76a3,3,0,0,0-2-.72,3.13,3.13,0,0,0,0,6.24,3.07,3.07,0,0,0,2.34-.92l1.47,1.72a5.42,5.42,0,0,1-3.93,1.44A5.13,5.13,0,0,1,199.85,64.28Z" style="fill: #4c546b"/>
        <path d="M221,63v6.49h-2.6V63.38a2.42,2.42,0,0,0-4.83,0v6.07h-2.6V54.51h2.6v5.86a4.2,4.2,0,0,1,3.32-1.43A3.83,3.83,0,0,1,221,63Z" style="fill: #4c546b"/>
      </g>
    </g>
  </g>
</svg>
