<svg data-cursor="hover" data-name="Layer 1" xmlns="http://www.w3.org/2000/svg" width="70%" viewBox="0 0 222.2 69.63"><path d="M25.2 36.6v7.1a23 23 0 0 1-8.8 1.6c-6.4 0-10.7-4.4-10.7-10.9V17.1H0V9.7h5.7V0h8.8v9.7h10.2v7.4H14.4v15.4c0 3.1 1.9 5.2 4.8 5.2a16 16 0 0 0 6-1.1ZM62.2 23.33v21.8h-8.5l-.2-4.9a13.29 13.29 0 0 1-10.6 5.1c-7.2 0-12.1-4.3-12.1-10.7 0-6.7 5.9-11 14.8-11a42.35 42.35 0 0 1 7.7.8v-.6c0-4.6-3.1-7.4-8.4-7.4a12.24 12.24 0 0 0-8.1 2.8l-3.71-5.33c3.7-3 8.1-4.5 14.2-4.5 8.91 0 14.91 5.3 14.91 13.93Zm-8.8 6.9a39.52 39.52 0 0 0-6.6-.7c-4.1 0-6.8 1.9-6.8 4.9 0 2.8 1.9 4.7 5.4 4.7 4.2 0 8-3.23 8-8.93ZM123.7 10h8.8v35.1h-8.8ZM123.7.1h8.8v5.1h-8.8ZM138.2 27.4c0-10.7 7.5-17.9 18.7-17.9a19.19 19.19 0 0 1 11.9 4l-5 5.9A10 10 0 0 0 157 17c-5.8 0-9.7 4.2-9.7 10.5s3.9 10.5 9.8 10.5a10.48 10.48 0 0 0 7.9-3.1l5 5.8c-3.3 3.3-8 4.8-13.2 4.8-11.1-.1-18.6-7.3-18.6-18.1ZM206.5 22.9v22.2h-8.41l-.2-5.4a12.41 12.41 0 0 1-10.6 5.6c-7.2 0-12.1-4.3-12.1-10.7 0-6.7 5.9-11 14.8-11a42.35 42.35 0 0 1 7.7.8v-.6c0-4.6-3.1-7.4-8.4-7.4a12.24 12.24 0 0 0-8.1 2.8l-3.8-5.1c3.7-3 8.1-4.5 14.2-4.5 8.91-.2 14.91 5.1 14.91 13.3Zm-8.8 7.3a39.52 39.52 0 0 0-6.6-.7c-4.1 0-6.8 1.9-6.8 4.9 0 2.8 1.9 4.7 5.4 4.7 4.1 0 8-3.2 8-8.9ZM212.2.1h8.8v45h-8.8ZM93.2 41.1l-.3-28.7L80 26.1l13.2 15zM71.5 22.6 82.9 9.7h-14v12.9h2.6zM72.8 29.8h-2.4V45h15.1L72.8 29.8z" style="fill:#ed1b33"/><path d="M112.09 37.7c-2.8 0-4.8-2.1-4.8-5.2V17.1h10.3V9.7h-10.3V0h-8.8v9.7h-3.2l-2.5 2.7v4.7h5.7v17.23c0 6.5 4.3 10.9 10.7 10.9a23 23 0 0 0 8.8-1.6v-7.1a13.45 13.45 0 0 1-5.9 1.17Z" style="fill:#ed1b33"/><g style="isolation:isolate"><g style="isolation:isolate"><path d="M120.56 62.4c0 4.41-2.59 7.23-6.64 7.23S107 66.74 107 62.4s2.74-7.23 6.91-7.23a7.35 7.35 0 0 1 4.7 1.45l-1 .93a5.66 5.66 0 0 0-3.74-1.18c-3.24 0-5.39 2.42-5.39 6s2.15 6 5.4 6c3 0 4.95-2.09 5.1-5.25h-4.47V62h6c.03.11.05.25.05.4Z" style="fill:#4c546b"/></g><g style="isolation:isolate"><path d="M131.75 64.91h-8c.17 2.19 1.35 3.62 3.35 3.62a4 4 0 0 0 3.25-1.72l1.05.59a5 5 0 0 1-4.3 2.23c-2.88 0-4.82-2.09-4.82-5.23s1.91-5.22 4.78-5.22 4.74 2 4.74 5.1c-.03.18-.03.48-.05.63Zm-8-1h6.62c-.11-2.24-1.37-3.65-3.31-3.65s-3.21 1.44-3.34 3.68Z" style="fill:#4c546b"/></g><g style="isolation:isolate"><path d="M139.87 68.09v1.12a6.13 6.13 0 0 1-2.44.42 2.61 2.61 0 0 1-2.72-2.78v-6.33H133v-1.14h1.75v-3h1.37v3h3.64v1.14h-3.64v6.07a1.74 1.74 0 0 0 1.77 1.86 5.52 5.52 0 0 0 1.98-.36ZM147.06 55.36h1.45v14.08h-1.45ZM161.11 63.1v6.34h-1.37v-6.07a3.2 3.2 0 0 0-6.38 0v6.07H152V59.38h1.34v1.69a3.9 3.9 0 0 1 3.66-1.89 3.81 3.81 0 0 1 4.11 3.92Z" style="fill:#4c546b"/></g><g style="isolation:isolate"><path d="M178.39 56.56h-4.53v12.88h-1.44V56.56h-4.55v-1.2h10.52Z" style="fill:#4c546b"/></g><g style="isolation:isolate"><path d="M178.29 64.42a5.14 5.14 0 1 1 10.28 0 5.14 5.14 0 1 1-10.28 0Zm8.83 0c0-2.44-1.46-4-3.67-4s-3.71 1.6-3.71 4 1.48 4 3.71 4 3.67-1.59 3.67-4ZM199.76 59.38v10.06h-1.31v-1.67a4.09 4.09 0 0 1-7.52-2v-6.39h1.37v6.08a3.07 3.07 0 0 0 6.13 0v-6.08ZM202.21 64.4a4.92 4.92 0 0 1 5.18-5.22 5 5 0 0 1 3.25 1.11l-.78 1a3.69 3.69 0 0 0-2.47-.86c-2.25 0-3.73 1.6-3.73 4s1.5 4 3.75 4a3.77 3.77 0 0 0 2.74-1.08l.8.93a5.17 5.17 0 0 1-3.64 1.33 4.89 4.89 0 0 1-5.1-5.21ZM222.2 63.1v6.34h-1.37v-6.07a3.2 3.2 0 0 0-6.38 0v6.07h-1.37V54.6h1.37v6.45a3.84 3.84 0 0 1 3.62-1.87 3.81 3.81 0 0 1 4.13 3.92Z" style="fill:#4c546b"/></g></g></svg>