<svg xmlns="http://www.w3.org/2000/svg" xlink="http://www.w3.org/1999/xlink" width="0" height="0" style="display:none;"><symbol viewBox="0 0 24 24" id="search-eye-line"><path fill="none" d="M0 0h24v24H0z"/><path d="M18.031 16.617l4.283 4.282-1.415 1.415-4.282-4.283A8.96 8.96 0 0 1 11 20c-4.968 0-9-4.032-9-9s4.032-9 9-9 9 4.032 9 9a8.96 8.96 0 0 1-1.969 5.617zm-2.006-.742A6.977 6.977 0 0 0 18 11c0-3.868-3.133-7-7-7-3.868 0-7 3.132-7 7 0 3.867 3.132 7 7 7a6.977 6.977 0 0 0 4.875-1.975l.15-.15zm-3.847-8.699a2 2 0 1 0 2.646 2.646 4 4 0 1 1-2.646-2.646z"/></symbol><symbol viewBox="0 0 24 24" id="question-line"><path fill="none" d="M0 0h24v24H0z"/><path d="M12 22C6.477 22 2 17.523 2 12S6.477 2 12 2s10 4.477 10 10-4.477 10-10 10zm0-2a8 8 0 1 0 0-16 8 8 0 0 0 0 16zm-1-5h2v2h-2v-2zm2-1.645V14h-2v-1.5a1 1 0 0 1 1-1 1.5 1.5 0 1 0-1.471-1.794l-1.962-.393A3.501 3.501 0 1 1 13 13.355z"/></symbol><symbol viewBox="0 0 24 24" id="settings-4-line"><path fill="none" d="M0 0h24v24H0z"/><path d="M2 12c0-.865.11-1.703.316-2.504A3 3 0 0 0 4.99 4.867a9.99 9.99 0 0 1 4.335-2.505 3 3 0 0 0 5.348 0 9.99 9.99 0 0 1 4.335 2.505 3 3 0 0 0 2.675 4.63c.206.8.316 1.638.316 2.503 0 .865-.11 1.703-.316 2.504a3 3 0 0 0-2.675 4.629 9.99 9.99 0 0 1-4.335 2.505 3 3 0 0 0-5.348 0 9.99 9.99 0 0 1-4.335-2.505 3 3 0 0 0-2.675-4.63C2.11 13.704 2 12.866 2 12zm4.804 3c.63 1.091.81 2.346.564 3.524.408.29.842.541 1.297.75A4.993 4.993 0 0 1 12 18c1.26 0 2.438.471 3.335 1.274.455-.209.889-.46 1.297-.75A4.993 4.993 0 0 1 17.196 15a4.993 4.993 0 0 1 2.77-2.25 8.126 8.126 0 0 0 0-1.5A4.993 4.993 0 0 1 17.195 9a4.993 4.993 0 0 1-.564-3.524 7.989 7.989 0 0 0-1.297-.75A4.993 4.993 0 0 1 12 6a4.993 4.993 0 0 1-3.335-1.274 7.99 7.99 0 0 0-1.297.75A4.993 4.993 0 0 1 6.804 9a4.993 4.993 0 0 1-2.77 2.25 8.126 8.126 0 0 0 0 1.5A4.993 4.993 0 0 1 6.805 15zM12 15a3 3 0 1 1 0-6 3 3 0 0 1 0 6zm0-2a1 1 0 1 0 0-2 1 1 0 0 0 0 2z"/></symbol><symbol viewBox="0 0 24 24" id="user-star-line"><path fill="none" d="M0 0h24v24H0z"/><path d="M12 14v2a6 6 0 0 0-6 6H4a8 8 0 0 1 8-8zm0-1c-3.315 0-6-2.685-6-6s2.685-6 6-6 6 2.685 6 6-2.685 6-6 6zm0-2c2.21 0 4-1.79 4-4s-1.79-4-4-4-4 1.79-4 4 1.79 4 4 4zm6 10.5l-2.939 1.545.561-3.272-2.377-2.318 3.286-.478L18 14l1.47 2.977 3.285.478-2.377 2.318.56 3.272L18 21.5z"/></symbol><symbol viewBox="0 0 24 24" id="login-circle-fill"><path fill="none" d="M0 0h24v24H0z"/><path d="M10 11H2.05C2.55 5.947 6.814 2 12 2c5.523 0 10 4.477 10 10s-4.477 10-10 10c-5.185 0-9.449-3.947-9.95-9H10v3l5-4-5-4v3z"/></symbol><symbol viewBox="0 0 24 24" id="draft-fill"><path fill="none" d="M0 0L24 0 24 24 0 24z"/><path d="M20 2c.552 0 1 .448 1 1v3.757l-8.999 9-.006 4.238 4.246.006L21 15.242V21c0 .552-.448 1-1 1H4c-.552 0-1-.448-1-1V3c0-.552.448-1 1-1h16zm1.778 6.808l1.414 1.414L15.414 18l-1.416-.002.002-1.412 7.778-7.778zM12 12H7v2h5v-2zm3-4H7v2h8V8z"/></symbol><symbol viewBox="0 0 24 24" id="linkedin-box-fill"><path fill="none" d="M0 0h24v24H0z"/><path d="M18.335 18.339H15.67v-4.177c0-.996-.02-2.278-1.39-2.278-1.389 0-1.601 1.084-1.601 2.205v4.25h-2.666V9.75h2.56v1.17h.035c.358-.674 1.228-1.387 2.528-1.387 2.7 0 3.2 1.778 3.2 4.091v4.715zM7.003 8.575a1.546 1.546 0 0 1-1.548-1.549 1.548 1.548 0 1 1 1.547 1.549zm1.336 9.764H5.666V9.75H8.34v8.589zM19.67 3H4.329C3.593 3 3 3.58 3 4.297v15.406C3 20.42 3.594 21 4.328 21h15.338C20.4 21 21 20.42 21 19.703V4.297C21 3.58 20.4 3 19.666 3h.003z"/></symbol><symbol viewBox="0 0 24 24" id="facebook-box-fill"><path fill="none" d="M0 0h24v24H0z"/><path d="M15.402 21v-6.966h2.333l.349-2.708h-2.682V9.598c0-.784.218-1.319 1.342-1.319h1.434V5.857a19.19 19.19 0 0 0-2.09-.107c-2.067 0-3.482 1.262-3.482 3.58v1.996h-2.338v2.708h2.338V21H4a1 1 0 0 1-1-1V4a1 1 0 0 1 1-1h16a1 1 0 0 1 1 1v16a1 1 0 0 1-1 1h-4.598z"/></symbol><symbol viewBox="0 0 24 24" id="instagram-fill"><path fill="none" d="M0 0h24v24H0z"/><path d="M12 2c2.717 0 3.056.01 4.122.06 1.065.05 1.79.217 2.428.465.66.254 1.216.598 1.772 1.153a4.908 4.908 0 0 1 1.153 1.772c.247.637.415 1.363.465 2.428.047 1.066.06 1.405.06 4.122 0 2.717-.01 3.056-.06 4.122-.05 1.065-.218 1.79-.465 2.428a4.883 4.883 0 0 1-1.153 1.772 4.915 4.915 0 0 1-1.772 1.153c-.637.247-1.363.415-2.428.465-1.066.047-1.405.06-4.122.06-2.717 0-3.056-.01-4.122-.06-1.065-.05-1.79-.218-2.428-.465a4.89 4.89 0 0 1-1.772-1.153 4.904 4.904 0 0 1-1.153-1.772c-.248-.637-.415-1.363-.465-2.428C2.013 15.056 2 14.717 2 12c0-2.717.01-3.056.06-4.122.05-1.066.217-1.79.465-2.428a4.88 4.88 0 0 1 1.153-1.772A4.897 4.897 0 0 1 5.45 2.525c.638-.248 1.362-.415 2.428-.465C8.944 2.013 9.283 2 12 2zm0 5a5 5 0 1 0 0 10 5 5 0 0 0 0-10zm6.5-.25a1.25 1.25 0 0 0-2.5 0 1.25 1.25 0 0 0 2.5 0zM12 9a3 3 0 1 1 0 6 3 3 0 0 1 0-6z"/></symbol><symbol viewBox="0 0 24 24" id="vimeo-fill"><path fill="none" d="M0 0H24V24H0z"/><path d="M1.173 8.301c-.281-.413-.252-.413.328-.922 1.232-1.082 2.394-2.266 3.736-3.212 1.215-.852 2.826-1.402 3.927-.047 1.014 1.249 1.038 3.142 1.295 4.65.257 1.564.503 3.164 1.051 4.66.152.421.443 1.217.968 1.284.678.093 1.368-1.096 1.683-1.54.817-1.18 1.925-2.769 1.785-4.286-.138-1.612-1.878-1.309-2.966-.924.175-1.809 1.858-3.843 3.48-4.53 1.72-.714 4.276-.702 5.14 1.237.923 2.102.093 4.543-.912 6.448-1.097 2.068-2.509 3.982-4.018 5.77-1.331 1.588-2.906 3.33-4.89 4.089-2.267.864-3.61-.82-4.382-2.77-.843-2.123-1.262-4.506-1.87-6.717-.256-.934-.56-1.997-1.167-2.768-.792-.995-1.692-.06-2.474.477-.269-.267-.491-.607-.714-.899z"/></symbol><symbol viewBox="0 0 24 24" id="youtube-fill"><path fill="none" d="M0 0h24v24H0z"/><path d="M21.543 6.498C22 8.28 22 12 22 12s0 3.72-.457 5.502c-.254.985-.997 1.76-1.938 2.022C17.896 20 12 20 12 20s-5.893 0-7.605-.476c-.945-.266-1.687-1.04-1.938-2.022C2 15.72 2 12 2 12s0-3.72.457-5.502c.254-.985.997-1.76 1.938-2.022C6.107 4 12 4 12 4s5.896 0 7.605.476c.945.266 1.687 1.04 1.938 2.022zM10 15.5l6-3.5-6-3.5v7z"/></symbol><symbol viewBox="0 0 24 24" id="arrow-down-circle-fill"><path fill="none" d="M0 0h24v24H0z"/><path d="M12 2c5.52 0 10 4.48 10 10s-4.48 10-10 10S2 17.52 2 12 6.48 2 12 2zm1 10V8h-2v4H8l4 4 4-4h-3z"/></symbol><symbol viewBox="0 0 24 24" id="arrow-up-circle-fill"><path fill="none" d="M0 0h24v24H0z"/><path d="M12 2c5.52 0 10 4.48 10 10s-4.48 10-10 10S2 17.52 2 12 6.48 2 12 2zm1 10h3l-4-4-4 4h3v4h2v-4z"/></symbol><symbol viewBox="0 0 24 24" id="arrow-down-circle-line"><path fill="none" d="M0 0h24v24H0z"/><path d="M12 2c5.52 0 10 4.48 10 10s-4.48 10-10 10S2 17.52 2 12 6.48 2 12 2zm0 18c4.42 0 8-3.58 8-8s-3.58-8-8-8-8 3.58-8 8 3.58 8 8 8zm1-8h3l-4 4-4-4h3V8h2v4z"/></symbol></svg>