<svg version="1.1" id="wavetop1" xmlns="http://www.w3.org/2000/svg" x="0" y="0" viewBox="0 0 1920 1080" style="enable-background:new 0 0 1920 1080" xml:space="preserve"><style>.st2,.st3,.st4,.st5{opacity:.5;fill:url(#SVGID_00000036964192350523197360000004016546029712789663_);enable-background:new}.st3,.st4,.st5{fill:url(#SVGID_00000154405772274330091030000005183330828787790214_)}.st4,.st5{fill:url(#SVGID_00000003825173016558813110000014334026720733905313_)}.st5{fill:url(#SVGID_00000041259780270494734030000008086339476798567857_)}</style><path d="M1926 1053.9c-317.3 26.1-684-.9-1008-18.9-325.9-18.1-315 27-918 18.9v93.4h1926v-93.4z" style="fill:#00d9ff"/><linearGradient id="SVGID_1_" gradientUnits="userSpaceOnUse" x1="0" y1="342.91" x2="1920" y2="342.91" gradientTransform="translate(0 1185.47)"><stop offset="0" style="stop-color:#00adff"/><stop offset="1" style="stop-color:#ff00c3"/></linearGradient><path d="M0 1048v921.6c128 64.5 256 84.7 384 60.6s256-84.7 384-181.9 256-71.5 384 77 256 49.7 384-296.3 256-330.3 384 47.1V1048c-330 0-666.1-31.2-996.1-31.2-310 0-613.9 31.2-923.9 31.2z" style="opacity:.5;fill:url(#SVGID_1_);enable-background:new"/><linearGradient id="SVGID_00000060012263879270447860000015006609019817446562_" gradientUnits="userSpaceOnUse" x1="0" y1="315.618" x2="1920" y2="315.618" gradientTransform="translate(0 1185.47)"><stop offset="0" style="stop-color:#00adff"/><stop offset="1" style="stop-color:#ff00c3"/></linearGradient><path style="opacity:.5;fill:url(#SVGID_00000060012263879270447860000015006609019817446562_);enable-background:new" d="M0 1048v904.7c128 84.7 256 113.3 384 86 128-27.3 256-77.3 384-150 128-72.8 256-74.2 384-4.4 128 69.9 256 17.5 384-156.9s256-245.9 384-214.3V1048c-206.7 0-411.5-94.6-618.2-94.6C868.5 953.4 433.3 1048 0 1048z"/><linearGradient id="SVGID_00000101786074429599539570000005898985548828120465_" gradientUnits="userSpaceOnUse" x1="0" y1="311.16" x2="1920" y2="311.16" gradientTransform="translate(0 1185.47)"><stop offset="0" style="stop-color:#00adff"/><stop offset="1" style="stop-color:#ff00c3"/></linearGradient><path style="opacity:.5;fill:url(#SVGID_00000101786074429599539570000005898985548828120465_);enable-background:new" d="M0 1048v965.3c128-14.1 256-29.4 384-46.1 128-16.7 256-33.3 384-49.9 128-16.5 256-88.9 384-217.2s256-127 384 3.9c128 130.8 256 111 384-59.6V991.2c-506.9 52.1-1055.3 17.4-1563.9-11.2-121.4 0-234.8 68-356.1 68z"/><linearGradient id="SVGID_00000162335075860579727320000001562787419977859996_" gradientUnits="userSpaceOnUse" x1="0" y1="313.86" x2="1920" y2="313.86" gradientTransform="translate(0 1185.47)"><stop offset="0" style="stop-color:#00adff"/><stop offset="1" style="stop-color:#ff00c3"/></linearGradient><path style="opacity:.5;fill:url(#SVGID_00000162335075860579727320000001562787419977859996_);enable-background:new" d="M0 1048v980.9c129.2-6.9 257.6-24.2 384-51.8 128-27.8 256-82.1 384-163s256-136.9 384-168c128-31.1 256-65.2 384-102.4s256-27.2 384 29.9V1048c-398.8 0-785.2-78.2-1184-78.2-241.2 0-494.8 78.2-736 78.2z"/><linearGradient id="SVGID_00000000912496739971953940000012033594914447281538_" gradientUnits="userSpaceOnUse" x1="0" y1="320.542" x2="1920" y2="320.542" gradientTransform="translate(0 1185.47)"><stop offset="0" style="stop-color:#00adff"/><stop offset="1" style="stop-color:#ff00c3"/></linearGradient><path style="opacity:.5;fill:url(#SVGID_00000000912496739971953940000012033594914447281538_);enable-background:new" d="M0 986.6v984c128 63.4 256 87.3 384 71.7s256-63.5 384-143.6 256-128.3 384-144.6c129.3-16.6 257.5-40.6 384-72.1 128-31.7 256-85.7 384-162v-472c-331.4 0-584.9-111.3-914.4-76.2C699.2 1004.5 276.7 1082.4 0 986.6z"/></svg>