<svg width="481" height="181" fill="none" xmlns="http://www.w3.org/2000/svg"><path fill="#F69FD6" d="M1 0h480v180H1z"/><path d="M70.845 41.16h-4.8V53H68.3v-4.032h2.464c2.544 0 4.224-1.6 4.224-3.984 0-2.288-1.648-3.824-4.144-3.824Zm-.24 5.936H68.3v-4.064h2.304c1.248 0 2.064.816 2.064 2.032 0 1.216-.784 2.032-2.064 2.032ZM77.162 53h2.256V41.16h-2.256V53Zm5.398 0h2.256l-.032-8.016L92.24 53h1.392V41.16h-2.256l.048 8.016-7.456-8.016H82.56V53Zm21.49 0h2.704l-4.752-6.064 4.528-5.776h-2.704l-3.76 4.864h-1.04V41.16H96.77V53h2.256v-5.12h1.088L104.05 53ZM75.42 82l-3.36-5.04c1.569-.464 2.529-1.68 2.529-3.296 0-2.112-1.568-3.504-3.968-3.504h-4.368V82h1.216v-4.832H70.829L73.98 82h1.44ZM67.47 71.168h2.992c1.728 0 2.864.992 2.864 2.496 0 1.488-1.152 2.496-2.864 2.496h-2.992v-4.992Zm20.759 4.544h-5.024v1.024h3.76c-.128 2.656-1.76 4.416-4.288 4.416-2.736 0-4.544-2.032-4.544-5.072s1.808-5.072 4.528-5.072c1.264 0 2.304.304 3.152.992l.8-.784C85.46 70.352 84.228 70 82.66 70c-3.504 0-5.808 2.432-5.808 6.08s2.32 6.08 5.808 6.08c3.408 0 5.584-2.368 5.584-6.08 0-.128-.016-.24-.016-.368Zm8.51.096c1.2-.48 1.92-1.408 1.92-2.656 0-1.792-1.425-2.992-3.553-2.992h-4.4V82h4.688c2.288 0 3.808-1.312 3.808-3.296 0-1.456-.944-2.528-2.464-2.896Zm-4.817-4.64h2.864c1.568 0 2.608.848 2.608 2.128 0 1.264-1.008 2.112-2.544 2.112h-2.928v-4.24Zm3.344 9.824h-3.344v-4.56h3.344c1.6 0 2.672.912 2.672 2.272 0 1.376-1.072 2.288-2.672 2.288Zm7.034-5.872c.48 0 .864-.4.864-.88a.87.87 0 0 0-.864-.864c-.464 0-.864.4-.864.864 0 .48.4.88.864.88Zm0 7.04c.48 0 .864-.4.864-.864a.86.86 0 0 0-.864-.864.87.87 0 0 0-.864.864c0 .464.4.864.864.864Zm7.58-.16h7.472v-1.008l-5.84.016 2.752-2.928c1.424-1.504 2.928-3.072 2.928-4.992 0-1.888-1.44-3.088-3.584-3.088-2.176 0-3.616 1.296-3.616 3.264l1.248.096c0-1.408.944-2.352 2.384-2.352 1.392 0 2.32.832 2.32 2.176 0 1.664-1.536 3.168-2.48 4.176l-3.584 3.856V82Zm14.839 0h1.216v-2.56h1.792v-1.008h-1.792V70.16h-.992l-6.08 8.384v.896h5.856V82Zm-4.464-3.552 4.512-6.24-.016 6.24h-4.496Zm13.11-3.6c-.56 0-1.04.08-1.456.24l3.44-4.928h-1.376l-3.76 5.552c-.576.832-.912 1.696-.912 2.784 0 2.192 1.536 3.664 3.84 3.664s3.84-1.472 3.84-3.696c0-2.176-1.52-3.616-3.616-3.616Zm-.224 6.304c-1.552 0-2.576-1.072-2.576-2.672 0-1.616 1.024-2.688 2.576-2.688s2.576 1.072 2.576 2.688c0 1.6-1.024 2.672-2.576 2.672Zm9.507 3.168h1.168l1.296-3.616h-1.376l-1.088 3.616ZM154.808 82h1.216V70.16h-.944l-3.856 2.848.624.896 2.96-2.144V82Zm7.153.16c2.544 0 4.32-1.52 4.32-3.792 0-2.096-1.52-3.504-3.712-3.504-.688 0-1.36.096-1.968.272l.592-3.968h4.544V70.16h-5.616l-.816 6.064.832.128a5.478 5.478 0 0 1 2.208-.48c1.6 0 2.672 1.04 2.672 2.56 0 1.632-1.264 2.72-3.168 2.72-1.152 0-2.224-.32-2.944-.992l-.368.896c.784.736 1.968 1.104 3.424 1.104ZM171.807 70c-2.304 0-3.84 1.472-3.84 3.696 0 2.176 1.52 3.616 3.616 3.616.56 0 1.04-.08 1.456-.24L169.599 82h1.376l3.76-5.552c.576-.832.912-1.696.912-2.784 0-2.192-1.536-3.664-3.84-3.664Zm-2.576 3.68c0-1.6 1.024-2.672 2.576-2.672s2.576 1.072 2.576 2.672c0 1.616-1.024 2.688-2.576 2.688s-2.576-1.072-2.576-2.688Zm12.211 10.64h1.168l1.296-3.616h-1.376l-1.088 3.616Zm9.105-2.32h7.472v-1.008l-5.84.016 2.752-2.928c1.424-1.504 2.928-3.072 2.928-4.992 0-1.888-1.44-3.088-3.584-3.088-2.176 0-3.616 1.296-3.616 3.264l1.248.096c0-1.408.944-2.352 2.384-2.352 1.392 0 2.32.832 2.32 2.176 0 1.664-1.536 3.168-2.48 4.176l-3.584 3.856V82Zm12.407 0h1.216V70.16h-.944l-3.856 2.848.624.896 2.96-2.144V82Zm9.362 0h1.216v-2.56h1.792v-1.008h-1.792V70.16h-.992l-6.08 8.384v.896h5.856V82Zm-4.464-3.552 4.512-6.24-.016 6.24h-4.496ZM74.781 99.16v5.312h-7.312V99.16h-1.216V111h1.216v-5.504h7.312V111h1.216V99.16H74.78Zm5.976 10.832v-4.528h5.68v-1.008h-5.68v-4.288h6.08V99.16h-7.296V111h7.44v-1.008h-6.224ZM98.438 111l-4.367-6.128 4-5.712h-1.408l-3.28 4.8-3.297-4.8h-1.391l3.983 5.728L88.325 111h1.409l3.648-5.2 3.663 5.2h1.392Zm1.082 1.6h1.168l3.824-14.08h-1.168l-3.824 14.08Zm16.151-13.44v5.312h-7.312V99.16h-1.216V111h1.216v-5.504h7.312V111h1.216V99.16h-1.216Zm12.201 0h-8.848v1.008h3.824V111h1.216v-10.832h3.808V99.16ZM142.866 111l-.704-11.952h-1.28l-4.624 10.032-4.64-10.032h-1.264L129.65 111h1.2l.528-9.744 4.496 9.744h.752l4.512-9.744.512 9.744h1.216Zm4.452-1.008V99.16h-1.216V111h6.816v-1.008h-5.6Zm8.112-5.872c.48 0 .864-.4.864-.88a.87.87 0 0 0-.864-.864c-.464 0-.864.4-.864.864 0 .48.4.88.864.88Zm0 7.04c.48 0 .864-.4.864-.864a.86.86 0 0 0-.864-.864.87.87 0 0 0-.864.864c0 .464.4.864.864.864Zm17.052-7.248.192-.816h-1.968l.768-3.296h-.896l-.768 3.296h-3.072l.768-3.296h-.88l-.768 3.296h-1.952l-.176.816h1.952l-.704 3.024h-1.936l-.208.816h1.952l-.752 3.248h.88l.752-3.248h3.072l-.752 3.248h.896l.752-3.248h1.968l.192-.816h-1.968l.704-3.024h1.952Zm-3.552 3.024h-3.072l.704-3.024h3.072l-.704 3.024Zm9.209-7.584c.512 0 .944.08 1.312.256l.096-.912c-.464-.24-1.056-.336-1.728-.336-1.456 0-2.448.944-2.448 2.368v1.808h-1.472v.96h1.472V111h1.152v-7.504h2.88v-.96h-2.88v-1.632c0-.928.656-1.552 1.616-1.552Zm6.544 4.496c-.56 0-1.04.08-1.456.24l3.44-4.928h-1.376l-3.76 5.552c-.576.832-.912 1.696-.912 2.784 0 2.192 1.536 3.664 3.84 3.664s3.84-1.472 3.84-3.696c0-2.176-1.52-3.616-3.616-3.616Zm-.224 6.304c-1.552 0-2.576-1.072-2.576-2.672 0-1.616 1.024-2.688 2.576-2.688s2.576 1.072 2.576 2.688c0 1.6-1.024 2.672-2.576 2.672ZM193.635 99c-2.304 0-3.84 1.472-3.84 3.696 0 2.176 1.52 3.616 3.616 3.616.56 0 1.04-.08 1.456-.24l-3.44 4.928h1.376l3.76-5.552c.576-.832.912-1.696.912-2.784 0-2.192-1.536-3.664-3.84-3.664Zm-2.576 3.68c0-1.6 1.024-2.672 2.576-2.672s2.576 1.072 2.576 2.672c0 1.616-1.024 2.688-2.576 2.688s-2.576-1.072-2.576-2.688Zm12.024-3.328c.512 0 .944.08 1.312.256l.096-.912c-.464-.24-1.056-.336-1.728-.336-1.456 0-2.448.944-2.448 2.368v1.808h-1.472v.96h1.472V111h1.152v-7.504h2.88v-.96h-2.88v-1.632c0-.928.656-1.552 1.616-1.552Zm9.53-.832v5.84c-.576-1.2-1.696-1.984-3.376-1.984-2.368 0-4.064 1.776-4.064 4.416 0 2.624 1.696 4.368 4.064 4.368 1.68 0 2.8-.784 3.376-1.984l.032 1.824h1.12V98.52h-1.152Zm-3.104 11.648c-1.872 0-3.12-1.36-3.12-3.376 0-2.048 1.248-3.408 3.12-3.408 1.856 0 3.104 1.36 3.104 3.392s-1.248 3.392-3.104 3.392Zm10.672-6.32c-.56 0-1.04.08-1.456.24l3.44-4.928h-1.376l-3.76 5.552c-.576.832-.912 1.696-.912 2.784 0 2.192 1.536 3.664 3.84 3.664s3.84-1.472 3.84-3.696c0-2.176-1.52-3.616-3.616-3.616Zm-.224 6.304c-1.552 0-2.576-1.072-2.576-2.672 0-1.616 1.024-2.688 2.576-2.688s2.576 1.072 2.576 2.688c0 1.6-1.024 2.672-2.576 2.672ZM71.453 140.16c2.064 0 3.744-.88 4.8-2.304l-.832-.768c-.848 1.232-2.192 2.064-3.952 2.064-2.832 0-4.72-2.048-4.72-5.104 0-3.024 1.904-5.04 4.752-5.04 1.616 0 2.816.736 3.648 1.696l.768-.784c-1.088-1.184-2.528-1.92-4.464-1.92-3.584 0-5.984 2.416-5.984 6.048 0 3.664 2.4 6.112 5.984 6.112Zm20.14-.16-.703-11.952h-1.28l-4.624 10.032-4.64-10.032h-1.264L78.378 140h1.2l.528-9.744L84.602 140h.752l4.512-9.744.512 9.744h1.216Zm10.885 0h1.488l-4.704-6.08 4.544-5.76h-1.488l-4.112 5.264h-2.16v-5.264H94.83V140h1.216v-5.552h2.176l4.256 5.552Zm10.812-11.84-3.648 5.952-3.68-5.952h-1.328l4.384 7.04v4.8h1.216v-4.8l4.384-7.04h-1.328Zm3.235 4.96c.48 0 .864-.4.864-.88a.87.87 0 0 0-.864-.864c-.464 0-.864.4-.864.864 0 .48.4.88.864.88Zm0 7.04c.48 0 .864-.4.864-.864a.86.86 0 0 0-.864-.864.87.87 0 0 0-.864.864c0 .464.4.864.864.864Zm13.068-.16h1.216v-2.56h1.792v-1.008h-1.792v-8.272h-.992l-6.08 8.384v.896h5.856V140Zm-4.464-3.552 4.512-6.24-.016 6.24h-4.496Zm13.088 5.872h1.168l1.296-3.616h-1.376l-1.088 3.616Zm14.594-2.32h1.216v-2.56h1.792v-1.008h-1.792v-8.272h-.992l-6.08 8.384v.896h5.856V140Zm-4.464-3.552 4.512-6.24-.016 6.24h-4.496Zm12.341 3.712c2.544 0 4.32-1.52 4.32-3.792 0-2.096-1.52-3.504-3.712-3.504-.688 0-1.36.096-1.968.272l.592-3.968h4.544v-1.008h-5.616l-.816 6.064.832.128a5.478 5.478 0 0 1 2.208-.48c1.6 0 2.672 1.04 2.672 2.56 0 1.632-1.264 2.72-3.168 2.72-1.152 0-2.224-.32-2.944-.992l-.368.896c.784.736 1.968 1.104 3.424 1.104Zm10.176 2.16h1.168l1.296-3.616h-1.376l-1.088 3.616Zm13.346-2.16c2.528 0 4.192-2.432 4.192-6.08s-1.664-6.08-4.192-6.08c-2.512 0-4.176 2.432-4.176 6.08s1.664 6.08 4.176 6.08Zm0-1.008c-1.76 0-2.928-2.032-2.928-5.072s1.168-5.072 2.928-5.072 2.928 2.032 2.928 5.072-1.168 5.072-2.928 5.072Zm10.059 3.168h1.168l1.296-3.616h-1.376l-1.088 3.616Zm13.346-2.16c2.528 0 4.192-2.432 4.192-6.08s-1.664-6.08-4.192-6.08c-2.512 0-4.176 2.432-4.176 6.08s1.664 6.08 4.176 6.08Zm0-1.008c-1.76 0-2.928-2.032-2.928-5.072s1.168-5.072 2.928-5.072 2.928 2.032 2.928 5.072-1.168 5.072-2.928 5.072Z" fill="#fff"/></svg>