<svg width="481" height="181" fill="none" xmlns="http://www.w3.org/2000/svg"><path fill="#E07D40" d="M.637.5h480v180h-480z"/><path d="M72.92 53.5h2.657l-3.12-4.784c1.376-.592 2.192-1.776 2.192-3.312 0-2.24-1.648-3.744-4.144-3.744h-4.96V53.5H67.8v-4.352h2.416L72.92 53.5Zm-5.12-9.968h2.449c1.248 0 2.08.752 2.08 1.872s-.896 1.872-2.24 1.872H67.8v-3.744Zm12.024 8.096v-3.2h5.28v-1.856h-5.28v-3.04h5.792V41.66h-8.048V53.5h8.176v-1.872h-5.92ZM92.95 41.66h-4.656V53.5h4.656c3.504 0 5.84-2.368 5.84-5.92s-2.336-5.92-5.84-5.92Zm0 9.968h-2.4v-8.096h2.4c2.096 0 3.488 1.616 3.488 4.048s-1.392 4.048-3.488 4.048Zm17.203-9.968h-4.656V53.5h4.656c3.504 0 5.84-2.368 5.84-5.92s-2.336-5.92-5.84-5.92Zm0 9.968h-2.4v-8.096h2.4c2.096 0 3.488 1.616 3.488 4.048s-1.392 4.048-3.488 4.048Zm16.218 1.872h2.416l-5.056-11.84h-2.096l-5.056 11.84h2.416l.96-2.352h5.456l.96 2.352Zm-5.648-4.224 1.968-4.816 1.968 4.816h-3.936Zm23.309 4.224-.8-11.904h-2.48l-3.68 8.208-3.68-8.208h-2.48l-.8 11.904h2.256l.464-8.048 3.616 8.048h1.248l3.616-8.08.464 8.08h2.256Zm11.104 0h2.416l-5.056-11.84H150.4l-5.056 11.84h2.416l.96-2.352h5.456l.96 2.352Zm-5.648-4.224 1.968-4.816 1.968 4.816h-3.936Zm13.298 4.384c2.72 0 4.544-1.408 4.544-3.504 0-2.128-1.936-3.12-3.76-3.616l-.688-.192c-1.168-.336-2.112-.672-2.112-1.616 0-.832.816-1.36 2.064-1.36 1.152 0 2.096.352 2.976 1.056l1.008-1.568c-1.136-.912-2.48-1.36-4-1.36-2.64 0-4.384 1.44-4.384 3.6 0 1.936 1.456 2.752 3.408 3.28l.672.192c1.488.416 2.48.832 2.48 1.792 0 .912-.864 1.424-2.352 1.424-1.088 0-2.208-.304-3.216-1.136l-.848 1.52c1.056.976 2.576 1.488 4.208 1.488Zm14.262-.16h2.704L175 47.436l4.528-5.776h-2.704l-3.76 4.864h-1.04V41.66h-2.256V53.5h2.256v-5.12h1.088l3.936 5.12Zm-102.127 29-3.36-5.04c1.568-.464 2.528-1.68 2.528-3.296 0-2.112-1.568-3.504-3.968-3.504h-4.368V82.5h1.216v-4.832H70.329L73.48 82.5h1.44Zm-7.952-10.832h2.992c1.728 0 2.864.992 2.864 2.496 0 1.488-1.152 2.496-2.864 2.496h-2.992v-4.992Zm20.759 4.544h-5.024v1.024h3.76c-.128 2.656-1.76 4.416-4.288 4.416-2.736 0-4.544-2.032-4.544-5.072s1.808-5.072 4.528-5.072c1.264 0 2.304.304 3.152.992l.8-.784c-1.152-.864-2.384-1.216-3.952-1.216-3.504 0-5.808 2.432-5.808 6.08s2.32 6.08 5.808 6.08c3.408 0 5.584-2.368 5.584-6.08 0-.128-.016-.24-.016-.368Zm8.51.096c1.2-.48 1.92-1.408 1.92-2.656 0-1.792-1.425-2.992-3.553-2.992h-4.4V82.5h4.688c2.288 0 3.808-1.312 3.808-3.296 0-1.456-.944-2.528-2.464-2.896Zm-4.817-4.64h2.864c1.568 0 2.608.848 2.608 2.128 0 1.264-1.008 2.112-2.544 2.112h-2.928v-4.24Zm3.344 9.824h-3.344v-4.56h3.344c1.6 0 2.672.912 2.672 2.272 0 1.376-1.072 2.288-2.672 2.288Zm7.034-5.872c.48 0 .864-.4.864-.88a.87.87 0 0 0-.864-.864c-.464 0-.864.4-.864.864 0 .48.4.88.864.88Zm0 7.04c.48 0 .864-.4.864-.864a.86.86 0 0 0-.864-.864.87.87 0 0 0-.864.864c0 .464.4.864.864.864Zm7.58-.16h7.472v-1.008l-5.84.016 2.752-2.928c1.424-1.504 2.928-3.072 2.928-4.992 0-1.888-1.44-3.088-3.584-3.088-2.176 0-3.616 1.296-3.616 3.264l1.248.096c0-1.408.944-2.352 2.384-2.352 1.392 0 2.32.832 2.32 2.176 0 1.664-1.536 3.168-2.48 4.176l-3.584 3.856v.784Zm9.351 0h7.472v-1.008l-5.84.016 2.752-2.928c1.424-1.504 2.928-3.072 2.928-4.992 0-1.888-1.44-3.088-3.584-3.088-2.176 0-3.616 1.296-3.616 3.264l1.248.096c0-1.408.944-2.352 2.384-2.352 1.392 0 2.32.832 2.32 2.176 0 1.664-1.536 3.168-2.48 4.176l-3.584 3.856v.784Zm14.839 0h1.216v-2.56h1.792v-1.008h-1.792V70.66h-.992l-6.08 8.384v.896h5.856v2.56Zm-4.464-3.552 4.512-6.24-.016 6.24h-4.496Zm13.088 5.872h1.168l1.296-3.616h-1.376l-1.088 3.616Zm12.162-2.32h1.216V70.66h-.944l-3.856 2.848.624.896 2.96-2.144V82.5Zm3.873 0h7.472v-1.008l-5.84.016 2.752-2.928c1.424-1.504 2.928-3.072 2.928-4.992 0-1.888-1.44-3.088-3.584-3.088-2.176 0-3.616 1.296-3.616 3.264l1.248.096c0-1.408.944-2.352 2.384-2.352 1.392 0 2.32.832 2.32 2.176 0 1.664-1.536 3.168-2.48 4.176l-3.584 3.856v.784Zm12.632.16c2.544 0 4.32-1.52 4.32-3.792 0-2.096-1.52-3.504-3.712-3.504-.688 0-1.36.096-1.968.272l.592-3.968h4.544V70.66h-5.616l-.816 6.064.832.128a5.478 5.478 0 0 1 2.208-.48c1.6 0 2.672 1.04 2.672 2.56 0 1.632-1.264 2.72-3.168 2.72-1.152 0-2.224-.32-2.944-.992l-.368.896c.784.736 1.968 1.104 3.424 1.104Zm10.175 2.16h1.168l1.296-3.616h-1.376l-1.088 3.616Zm13.154-9.472c-.56 0-1.04.08-1.456.24l3.44-4.928h-1.376l-3.76 5.552c-.576.832-.912 1.696-.912 2.784 0 2.192 1.536 3.664 3.84 3.664s3.84-1.472 3.84-3.696c0-2.176-1.52-3.616-3.616-3.616Zm-.224 6.304c-1.552 0-2.576-1.072-2.576-2.672 0-1.616 1.024-2.688 2.576-2.688s2.576 1.072 2.576 2.688c0 1.6-1.024 2.672-2.576 2.672Zm10.968.848h1.216v-2.56h1.792v-1.008h-1.792V70.66h-.992l-6.08 8.384v.896h5.856v2.56Zm-4.464-3.552 4.512-6.24-.016 6.24h-4.496ZM74.281 99.66v5.312h-7.312V99.66h-1.216v11.84h1.216v-5.504h7.312v5.504h1.216V99.66H74.28Zm5.976 10.832v-4.528h5.68v-1.008h-5.68v-4.288h6.08V99.66h-7.296v11.84h7.44v-1.008h-6.224Zm17.68 1.008-4.367-6.128 4-5.712h-1.408l-3.28 4.8-3.297-4.8h-1.391l3.983 5.728-4.352 6.112h1.409l3.648-5.2 3.663 5.2h1.392Zm1.082 1.6h1.168l3.824-14.08h-1.168l-3.824 14.08Zm16.151-13.44v5.312h-7.312V99.66h-1.216v11.84h1.216v-5.504h7.312v5.504h1.216V99.66h-1.216Zm12.201 0h-8.848v1.008h3.824V111.5h1.216v-10.832h3.808V99.66Zm14.995 11.84-.704-11.952h-1.28l-4.624 10.032-4.64-10.032h-1.264l-.704 11.952h1.2l.528-9.744 4.496 9.744h.752l4.512-9.744.512 9.744h1.216Zm4.452-1.008V99.66h-1.216v11.84h6.816v-1.008h-5.6Zm8.112-5.872c.48 0 .864-.4.864-.88a.87.87 0 0 0-.864-.864c-.464 0-.864.4-.864.864 0 .48.4.88.864.88Zm0 7.04c.48 0 .864-.4.864-.864a.86.86 0 0 0-.864-.864.87.87 0 0 0-.864.864c0 .464.4.864.864.864Zm17.052-7.248.192-.816h-1.968l.768-3.296h-.896l-.768 3.296h-3.072l.768-3.296h-.88l-.768 3.296h-1.952l-.176.816h1.952l-.704 3.024h-1.936l-.208.816h1.952l-.752 3.248h.88l.752-3.248h3.072l-.752 3.248h.896l.752-3.248h1.968l.192-.816h-1.968l.704-3.024h1.952Zm-3.552 3.024h-3.072l.704-3.024h3.072l-.704 3.024Zm13.401-.272c0-2.576-1.6-4.288-3.984-4.288-2.416 0-4.016 1.76-4.016 4.384 0 2.64 1.632 4.4 4.048 4.4 1.504 0 2.8-.656 3.616-1.872l-.88-.496c-.656.88-1.6 1.44-2.736 1.44-1.68 0-2.672-1.2-2.816-3.04h6.752c.016-.128.016-.384.016-.528Zm-3.984-3.36c1.632 0 2.688 1.184 2.784 3.072h-5.568c.112-1.888 1.152-3.072 2.784-3.072Zm9.965 7.856c2.528 0 4.192-2.432 4.192-6.08s-1.664-6.08-4.192-6.08c-2.512 0-4.176 2.432-4.176 6.08s1.664 6.08 4.176 6.08Zm0-1.008c-1.76 0-2.928-2.032-2.928-5.072s1.168-5.072 2.928-5.072 2.928 2.032 2.928 5.072-1.168 5.072-2.928 5.072Zm5.414-10.992v1.008h5.904l-3.92 10.832h1.296l4.224-11.84h-7.504Zm16.301-.64v5.84c-.576-1.2-1.696-1.984-3.376-1.984-2.368 0-4.064 1.776-4.064 4.416 0 2.624 1.696 4.368 4.064 4.368 1.68 0 2.8-.784 3.376-1.984l.032 1.824h1.12V99.02h-1.152Zm-3.104 11.648c-1.872 0-3.12-1.36-3.12-3.376 0-2.048 1.248-3.408 3.12-3.408 1.856 0 3.104 1.36 3.104 3.392s-1.248 3.392-3.104 3.392Zm12.113.832h1.216v-2.56h1.792v-1.008h-1.792V99.66h-.992l-6.08 8.384v.896h5.856v2.56Zm-4.464-3.552 4.512-6.24-.016 6.24h-4.496Zm13.301 3.712c2.528 0 4.192-2.432 4.192-6.08s-1.664-6.08-4.192-6.08c-2.512 0-4.176 2.432-4.176 6.08s1.664 6.08 4.176 6.08Zm0-1.008c-1.76 0-2.928-2.032-2.928-5.072s1.168-5.072 2.928-5.072 2.928 2.032 2.928 5.072-1.168 5.072-2.928 5.072ZM70.953 140.66c2.064 0 3.744-.88 4.8-2.304l-.832-.768c-.848 1.232-2.192 2.064-3.952 2.064-2.832 0-4.72-2.048-4.72-5.104 0-3.024 1.904-5.04 4.752-5.04 1.616 0 2.816.736 3.648 1.696l.768-.784c-1.088-1.184-2.528-1.92-4.464-1.92-3.584 0-5.984 2.416-5.984 6.048 0 3.664 2.4 6.112 5.984 6.112Zm20.14-.16-.703-11.952h-1.28l-4.624 10.032-4.64-10.032h-1.264l-.704 11.952h1.2l.528-9.744 4.496 9.744h.752l4.512-9.744.512 9.744h1.216Zm10.885 0h1.488l-4.704-6.08 4.544-5.76h-1.488l-4.112 5.264h-2.16v-5.264H94.33v11.84h1.216v-5.552h2.176l4.256 5.552Zm10.812-11.84-3.648 5.952-3.68-5.952h-1.328l4.384 7.04v4.8h1.216v-4.8l4.384-7.04h-1.328Zm3.235 4.96c.48 0 .864-.4.864-.88a.87.87 0 0 0-.864-.864c-.464 0-.864.4-.864.864 0 .48.4.88.864.88Zm0 7.04c.48 0 .864-.4.864-.864a.86.86 0 0 0-.864-.864.87.87 0 0 0-.864.864c0 .464.4.864.864.864Zm11.276-12.16c-2.304 0-3.84 1.472-3.84 3.696 0 2.176 1.52 3.616 3.616 3.616.56 0 1.04-.08 1.456-.24l-3.44 4.928h1.376l3.76-5.552c.576-.832.912-1.696.912-2.784 0-2.192-1.536-3.664-3.84-3.664Zm-2.576 3.68c0-1.6 1.024-2.672 2.576-2.672s2.576 1.072 2.576 2.672c0 1.616-1.024 2.688-2.576 2.688s-2.576-1.072-2.576-2.688Zm12.211 10.64h1.168l1.296-3.616h-1.376l-1.088 3.616Zm13.153-9.472c-.56 0-1.04.08-1.456.24l3.44-4.928h-1.376l-3.76 5.552c-.576.832-.912 1.696-.912 2.784 0 2.192 1.536 3.664 3.84 3.664s3.84-1.472 3.84-3.696c0-2.176-1.52-3.616-3.616-3.616Zm-.224 6.304c-1.552 0-2.576-1.072-2.576-2.672 0-1.616 1.024-2.688 2.576-2.688s2.576 1.072 2.576 2.688c0 1.6-1.024 2.672-2.576 2.672Zm8.099.848h1.216v-11.84h-.944l-3.856 2.848.624.896 2.96-2.144v10.24Zm7.9 2.32h1.168l1.296-3.616h-1.376l-1.088 3.616Zm14.802-8.464c1.136-.48 1.84-1.472 1.84-2.752 0-1.856-1.408-3.104-3.52-3.104s-3.52 1.248-3.52 3.12c0 1.28.704 2.272 1.84 2.736-1.344.48-2.16 1.568-2.16 3.008 0 1.968 1.536 3.296 3.84 3.296s3.84-1.328 3.84-3.328c0-1.424-.816-2.512-2.16-2.976Zm-1.68-4.848c1.36 0 2.256.88 2.256 2.192 0 1.296-.896 2.16-2.256 2.16-1.36 0-2.256-.864-2.256-2.16 0-1.312.896-2.192 2.256-2.192Zm0 10.144c-1.552 0-2.576-.944-2.576-2.384 0-1.424 1.024-2.384 2.576-2.384s2.576.96 2.576 2.384c0 1.44-1.024 2.384-2.576 2.384Zm9.084 1.008c2.544 0 4.32-1.52 4.32-3.792 0-2.096-1.52-3.504-3.712-3.504-.688 0-1.36.096-1.968.272l.592-3.968h4.544v-1.008h-5.616l-.816 6.064.832.128a5.478 5.478 0 0 1 2.208-.48c1.6 0 2.672 1.04 2.672 2.56 0 1.632-1.264 2.72-3.168 2.72-1.152 0-2.224-.32-2.944-.992l-.368.896c.784.736 1.968 1.104 3.424 1.104Zm10.175 2.16h1.168l1.296-3.616h-1.376l-1.088 3.616Zm12.162-2.32h1.216v-11.84h-.944l-3.856 2.848.624.896 2.96-2.144v10.24Z" fill="#fff"/></svg>