<svg width="481" height="181" fill="none" xmlns="http://www.w3.org/2000/svg"><path fill="#535AE0" d="M.637.5h480v180h-480z"/><path d="M73.42 53.5h2.657l-3.12-4.784c1.376-.592 2.192-1.776 2.192-3.312 0-2.24-1.648-3.744-4.144-3.744h-4.96V53.5H68.3v-4.352h2.416L73.42 53.5Zm-5.12-9.968h2.449c1.248 0 2.08.752 2.08 1.872s-.896 1.872-2.24 1.872H68.3v-3.744ZM83.4 53.66c3.712 0 6.208-2.432 6.208-6.08S87.112 41.5 83.4 41.5c-3.728 0-6.224 2.432-6.224 6.08s2.496 6.08 6.224 6.08Zm0-1.872c-2.32 0-3.888-1.68-3.888-4.208 0-2.528 1.568-4.208 3.888-4.208s3.872 1.68 3.872 4.208c0 2.528-1.552 4.208-3.872 4.208ZM98.413 41.66l-2.944 5.472-2.96-5.472h-2.416l4.24 7.472V53.5h2.256v-4.368l4.224-7.472h-2.4Zm11.443 11.84h2.416l-5.056-11.84h-2.096l-5.056 11.84h2.416l.96-2.352h5.456l.96 2.352Zm-5.648-4.224 1.968-4.816 1.968 4.816h-3.936Zm12.013 2.352V41.66h-2.256V53.5h7.488v-1.872h-5.232Zm18.081-4.4c1.008-.544 1.584-1.392 1.584-2.464 0-1.856-1.424-3.104-3.552-3.104h-5.072V53.5h5.136c2.496 0 4.128-1.376 4.128-3.44 0-1.344-.848-2.368-2.224-2.832Zm-4.784-3.696h2.288c1.04 0 1.76.592 1.76 1.472 0 .896-.704 1.488-1.776 1.488h-2.272v-2.96Zm2.736 8.096h-2.736v-3.28h2.768c1.136 0 1.92.656 1.92 1.648 0 .976-.784 1.632-1.952 1.632Zm8.912 0V41.66h-2.256V53.5h7.488v-1.872h-5.232Zm11.838 2.032c3.104 0 5.168-1.856 5.168-4.64v-7.36h-2.256v7.264c0 1.712-1.168 2.864-2.912 2.864-1.76 0-2.944-1.152-2.944-2.864V41.66h-2.256v7.36c0 2.784 2.08 4.64 5.2 4.64Zm10.411-2.032v-3.2h5.28v-1.856h-5.28v-3.04h5.792V41.66h-8.048V53.5h8.176v-1.872h-5.92ZM75.421 82.5l-3.36-5.04c1.568-.464 2.528-1.68 2.528-3.296 0-2.112-1.568-3.504-3.968-3.504h-4.368V82.5h1.216v-4.832H70.829L73.98 82.5h1.44Zm-7.952-10.832h2.992c1.728 0 2.864.992 2.864 2.496 0 1.488-1.152 2.496-2.864 2.496h-2.992v-4.992Zm20.759 4.544h-5.024v1.024h3.76c-.128 2.656-1.76 4.416-4.288 4.416-2.736 0-4.544-2.032-4.544-5.072s1.808-5.072 4.528-5.072c1.264 0 2.304.304 3.152.992l.8-.784c-1.152-.864-2.384-1.216-3.952-1.216-3.504 0-5.808 2.432-5.808 6.08s2.32 6.08 5.808 6.08c3.408 0 5.584-2.368 5.584-6.08 0-.128-.016-.24-.016-.368Zm8.51.096c1.2-.48 1.92-1.408 1.92-2.656 0-1.792-1.425-2.992-3.553-2.992h-4.4V82.5h4.688c2.288 0 3.808-1.312 3.808-3.296 0-1.456-.944-2.528-2.464-2.896Zm-4.817-4.64h2.864c1.568 0 2.608.848 2.608 2.128 0 1.264-1.008 2.112-2.544 2.112h-2.928v-4.24Zm3.344 9.824h-3.344v-4.56h3.344c1.6 0 2.672.912 2.672 2.272 0 1.376-1.072 2.288-2.672 2.288Zm7.034-5.872c.48 0 .864-.4.864-.88a.87.87 0 0 0-.864-.864c-.464 0-.864.4-.864.864 0 .48.4.88.864.88Zm0 7.04c.48 0 .864-.4.864-.864a.86.86 0 0 0-.864-.864.87.87 0 0 0-.864.864c0 .464.4.864.864.864Zm13.276-6.304c1.136-.48 1.84-1.472 1.84-2.752 0-1.856-1.408-3.104-3.52-3.104s-3.52 1.248-3.52 3.12c0 1.28.704 2.272 1.84 2.736-1.344.48-2.16 1.568-2.16 3.008 0 1.968 1.536 3.296 3.84 3.296s3.84-1.328 3.84-3.328c0-1.424-.816-2.512-2.16-2.976Zm-1.68-4.848c1.36 0 2.256.88 2.256 2.192 0 1.296-.896 2.16-2.256 2.16-1.36 0-2.256-.864-2.256-2.16 0-1.312.896-2.192 2.256-2.192Zm0 10.144c-1.552 0-2.576-.944-2.576-2.384 0-1.424 1.024-2.384 2.576-2.384s2.576.96 2.576 2.384c0 1.44-1.024 2.384-2.576 2.384Zm9.532-5.968c-.224 0-.448.016-.672.032l4.032-4.288v-.768h-6.72v1.008h5.088l-4.304 4.736.32.624c.544-.272 1.168-.4 1.824-.4 1.76 0 2.944.976 2.944 2.464 0 1.536-1.184 2.56-3.024 2.56-1.216 0-2.192-.416-2.816-1.216l-.48.896c.704.864 1.968 1.328 3.424 1.328 2.528 0 4.16-1.424 4.16-3.584 0-2.032-1.504-3.392-3.776-3.392Zm9.65 9.136h1.168l1.296-3.616h-1.376l-1.088 3.616Zm12.801-14.32c-2.304 0-3.84 1.472-3.84 3.696 0 2.176 1.52 3.616 3.616 3.616.56 0 1.04-.08 1.456-.24l-3.44 4.928h1.376l3.76-5.552c.576-.832.912-1.696.912-2.784 0-2.192-1.536-3.664-3.84-3.664Zm-2.576 3.68c0-1.6 1.024-2.672 2.576-2.672s2.576 1.072 2.576 2.672c0 1.616-1.024 2.688-2.576 2.688s-2.576-1.072-2.576-2.688Zm12.424 8.48c2.528 0 4.192-2.432 4.192-6.08s-1.664-6.08-4.192-6.08c-2.512 0-4.176 2.432-4.176 6.08s1.664 6.08 4.176 6.08Zm0-1.008c-1.76 0-2.928-2.032-2.928-5.072s1.168-5.072 2.928-5.072 2.928 2.032 2.928 5.072-1.168 5.072-2.928 5.072Zm10.06 3.168h1.168l1.296-3.616h-1.376l-1.088 3.616Zm9.105-2.32h7.472v-1.008l-5.84.016 2.752-2.928c1.424-1.504 2.928-3.072 2.928-4.992 0-1.888-1.44-3.088-3.584-3.088-2.176 0-3.616 1.296-3.616 3.264l1.248.096c0-1.408.944-2.352 2.384-2.352 1.392 0 2.32.832 2.32 2.176 0 1.664-1.536 3.168-2.48 4.176l-3.584 3.856v.784Zm9.352 0h7.472v-1.008l-5.84.016 2.752-2.928c1.424-1.504 2.928-3.072 2.928-4.992 0-1.888-1.44-3.088-3.584-3.088-2.176 0-3.616 1.296-3.616 3.264l1.248.096c0-1.408.944-2.352 2.384-2.352 1.392 0 2.32.832 2.32 2.176 0 1.664-1.536 3.168-2.48 4.176l-3.584 3.856v.784Zm14.839 0h1.216v-2.56h1.792v-1.008h-1.792V70.66h-.992l-6.08 8.384v.896h5.856v2.56Zm-4.464-3.552 4.512-6.24-.016 6.24h-4.496ZM74.781 99.66v5.312h-7.312V99.66h-1.216v11.84h1.216v-5.504h7.312v5.504h1.216V99.66H74.78Zm5.976 10.832v-4.528h5.68v-1.008h-5.68v-4.288h6.08V99.66h-7.296v11.84h7.44v-1.008h-6.224Zm17.68 1.008-4.367-6.128 4-5.712h-1.408l-3.28 4.8-3.297-4.8h-1.391l3.983 5.728-4.352 6.112h1.409l3.648-5.2 3.663 5.2h1.392Zm1.082 1.6h1.168l3.824-14.08h-1.168l-3.824 14.08Zm16.151-13.44v5.312h-7.312V99.66h-1.216v11.84h1.216v-5.504h7.312v5.504h1.216V99.66h-1.216Zm12.201 0h-8.848v1.008h3.824V111.5h1.216v-10.832h3.808V99.66Zm14.995 11.84-.704-11.952h-1.28l-4.624 10.032-4.64-10.032h-1.264l-.704 11.952h1.2l.528-9.744 4.496 9.744h.752l4.512-9.744.512 9.744h1.216Zm4.452-1.008V99.66h-1.216v11.84h6.816v-1.008h-5.6Zm8.112-5.872c.48 0 .864-.4.864-.88a.87.87 0 0 0-.864-.864c-.464 0-.864.4-.864.864 0 .48.4.88.864.88Zm0 7.04c.48 0 .864-.4.864-.864a.86.86 0 0 0-.864-.864.87.87 0 0 0-.864.864c0 .464.4.864.864.864Zm17.052-7.248.192-.816h-1.968l.768-3.296h-.896l-.768 3.296h-3.072l.768-3.296h-.88l-.768 3.296h-1.952l-.176.816h1.952l-.704 3.024h-1.936l-.208.816h1.952l-.752 3.248h.88l.752-3.248h3.072l-.752 3.248h.896l.752-3.248h1.968l.192-.816h-1.968l.704-3.024h1.952Zm-3.552 3.024h-3.072l.704-3.024h3.072l-.704 3.024Zm8.649 4.224c2.544 0 4.32-1.52 4.32-3.792 0-2.096-1.52-3.504-3.712-3.504-.688 0-1.36.096-1.968.272l.592-3.968h4.544V99.66h-5.616l-.816 6.064.832.128a5.478 5.478 0 0 1 2.208-.48c1.6 0 2.672 1.04 2.672 2.56 0 1.632-1.264 2.72-3.168 2.72-1.152 0-2.224-.32-2.944-.992l-.368.896c.784.736 1.968 1.104 3.424 1.104Zm9.877-6.976c-.224 0-.448.016-.672.032l4.032-4.288v-.768h-6.72v1.008h5.088l-4.304 4.736.32.624c.544-.272 1.168-.4 1.824-.4 1.76 0 2.944.976 2.944 2.464 0 1.536-1.184 2.56-3.024 2.56-1.216 0-2.192-.416-2.816-1.216l-.48.896c.704.864 1.968 1.328 3.424 1.328 2.528 0 4.16-1.424 4.16-3.584 0-2.032-1.504-3.392-3.776-3.392Zm8.904 6.976c2.544 0 4.32-1.52 4.32-3.792 0-2.096-1.52-3.504-3.712-3.504-.688 0-1.36.096-1.968.272l.592-3.968h4.544V99.66h-5.616l-.816 6.064.832.128a5.478 5.478 0 0 1 2.208-.48c1.6 0 2.672 1.04 2.672 2.56 0 1.632-1.264 2.72-3.168 2.72-1.152 0-2.224-.32-2.944-.992l-.368.896c.784.736 1.968 1.104 3.424 1.104Zm9.669-8.784c-1.36 0-2.352.416-3.12 1.168l.528.704c.592-.608 1.312-.944 2.32-.944 1.552 0 2.528.976 2.528 2.512v.592c-.8-.192-1.68-.288-2.464-.288-2.08 0-3.456 1.04-3.456 2.576 0 1.488 1.12 2.464 2.784 2.464 1.344 0 2.544-.704 3.136-1.936l.032 1.776h1.12v-5.328c0-1.984-1.344-3.296-3.408-3.296Zm-.56 7.92c-1.184 0-1.904-.64-1.904-1.632 0-1.024.96-1.712 2.4-1.712.736 0 1.568.096 2.32.272 0 1.968-1.472 3.072-2.816 3.072Zm14.251-3.632c0-2.576-1.6-4.288-3.984-4.288-2.416 0-4.016 1.76-4.016 4.384 0 2.64 1.632 4.4 4.048 4.4 1.504 0 2.8-.656 3.616-1.872l-.88-.496c-.656.88-1.6 1.44-2.736 1.44-1.68 0-2.672-1.2-2.816-3.04h6.752c.016-.128.016-.384.016-.528Zm-3.984-3.36c1.632 0 2.688 1.184 2.784 3.072h-5.568c.112-1.888 1.152-3.072 2.784-3.072Zm9.965 7.856c2.528 0 4.192-2.432 4.192-6.08s-1.664-6.08-4.192-6.08c-2.512 0-4.176 2.432-4.176 6.08s1.664 6.08 4.176 6.08Zm0-1.008c-1.76 0-2.928-2.032-2.928-5.072s1.168-5.072 2.928-5.072 2.928 2.032 2.928 5.072-1.168 5.072-2.928 5.072ZM71.453 140.66c2.064 0 3.744-.88 4.8-2.304l-.832-.768c-.848 1.232-2.192 2.064-3.952 2.064-2.832 0-4.72-2.048-4.72-5.104 0-3.024 1.904-5.04 4.752-5.04 1.616 0 2.816.736 3.648 1.696l.768-.784c-1.088-1.184-2.528-1.92-4.464-1.92-3.584 0-5.984 2.416-5.984 6.048 0 3.664 2.4 6.112 5.984 6.112Zm20.14-.16-.703-11.952h-1.28l-4.624 10.032-4.64-10.032h-1.264l-.704 11.952h1.2l.528-9.744 4.496 9.744h.752l4.512-9.744.512 9.744h1.216Zm10.885 0h1.488l-4.704-6.08 4.544-5.76h-1.488l-4.112 5.264h-2.16v-5.264H94.83v11.84h1.216v-5.552h2.176l4.256 5.552Zm10.812-11.84-3.648 5.952-3.68-5.952h-1.328l4.384 7.04v4.8h1.216v-4.8l4.384-7.04h-1.328Zm3.235 4.96c.48 0 .864-.4.864-.88a.87.87 0 0 0-.864-.864c-.464 0-.864.4-.864.864 0 .48.4.88.864.88Zm0 7.04c.48 0 .864-.4.864-.864a.86.86 0 0 0-.864-.864.87.87 0 0 0-.864.864c0 .464.4.864.864.864Zm7.18-12v1.008h5.904l-3.92 10.832h1.296l4.224-11.84h-7.504Zm12.125 12c2.544 0 4.32-1.52 4.32-3.792 0-2.096-1.52-3.504-3.712-3.504-.688 0-1.36.096-1.968.272l.592-3.968h4.544v-1.008h-5.616l-.816 6.064.832.128a5.478 5.478 0 0 1 2.208-.48c1.6 0 2.672 1.04 2.672 2.56 0 1.632-1.264 2.72-3.168 2.72-1.152 0-2.224-.32-2.944-.992l-.368.896c.784.736 1.968 1.104 3.424 1.104Zm10.176 2.16h1.168l1.296-3.616h-1.376l-1.088 3.616Zm13.153-9.472c-.56 0-1.04.08-1.456.24l3.44-4.928h-1.376l-3.76 5.552c-.576.832-.912 1.696-.912 2.784 0 2.192 1.536 3.664 3.84 3.664s3.84-1.472 3.84-3.696c0-2.176-1.52-3.616-3.616-3.616Zm-.224 6.304c-1.552 0-2.576-1.072-2.576-2.672 0-1.616 1.024-2.688 2.576-2.688s2.576 1.072 2.576 2.688c0 1.6-1.024 2.672-2.576 2.672Zm9.177-11.152c-2.304 0-3.84 1.472-3.84 3.696 0 2.176 1.52 3.616 3.616 3.616.56 0 1.04-.08 1.456-.24l-3.44 4.928h1.376l3.76-5.552c.576-.832.912-1.696.912-2.784 0-2.192-1.536-3.664-3.84-3.664Zm-2.576 3.68c0-1.6 1.024-2.672 2.576-2.672s2.576 1.072 2.576 2.672c0 1.616-1.024 2.688-2.576 2.688s-2.576-1.072-2.576-2.688Zm12.211 10.64h1.168l1.296-3.616h-1.376l-1.088 3.616Zm13.345-2.16c2.528 0 4.192-2.432 4.192-6.08s-1.664-6.08-4.192-6.08c-2.512 0-4.176 2.432-4.176 6.08s1.664 6.08 4.176 6.08Zm0-1.008c-1.76 0-2.928-2.032-2.928-5.072s1.168-5.072 2.928-5.072 2.928 2.032 2.928 5.072-1.168 5.072-2.928 5.072Zm10.06 3.168h1.168l1.296-3.616h-1.376l-1.088 3.616Zm13.345-2.16c2.528 0 4.192-2.432 4.192-6.08s-1.664-6.08-4.192-6.08c-2.512 0-4.176 2.432-4.176 6.08s1.664 6.08 4.176 6.08Zm0-1.008c-1.76 0-2.928-2.032-2.928-5.072s1.168-5.072 2.928-5.072 2.928 2.032 2.928 5.072-1.168 5.072-2.928 5.072Z" fill="#fff"/></svg>