<svg width="645" height="385" fill="none" xmlns="http://www.w3.org/2000/svg"><path d="M98.557 170.5h18.72l-57.6-123.84-57.6 123.84h18.72l11.7-25.92h54.36l11.7 25.92Zm-58.14-43.2 19.26-42.48 19.26 42.48h-38.52Zm156.138-43.2v12.6c-7.02-9.18-17.1-14.04-28.8-14.04-25.2 0-43.2 19.98-43.2 44.64s18 44.64 43.2 44.64c11.7 0 21.78-4.86 28.8-14.04v12.6h17.28V84.1h-17.28Zm-27.36 70.56c-15.12 0-27.36-12.24-27.36-27.36s12.24-27.36 27.36-27.36 27.36 12.24 27.36 27.36-12.24 27.36-27.36 27.36ZM22.397 262.5h4.16l-12.8-27.52-12.8 27.52h4.16l2.6-5.76h12.08l2.6 5.76Zm-12.92-9.6 4.28-9.44 4.28 9.44h-8.56Zm34.37-4.84c1.76-.68 3.2-2.72 3.2-5.4 0-4.64-3.44-7.04-9.24-7.04h-8.04v26.88h9.92c5.4 0 8.64-3.44 8.64-8.08 0-2.68-1.32-5.6-4.48-6.36Zm-10.24-8.6h4.8c3.04 0 4.8 1.08 4.8 3.36 0 2.32-1.76 3.36-4.8 3.36h-4.8v-6.72Zm5.44 19.2h-5.44v-8.64h5.44c3.32 0 5.44 1.36 5.44 4.32s-2.12 4.32-5.44 4.32Zm25.934.32c-5.48 0-9.92-4.44-9.92-9.92 0-5.48 4.44-9.92 9.92-9.92 3.04 0 5.16 1 7 2.88l1.64-3.6c-2.24-2.08-5.48-3.12-8.4-3.12-7.72 0-14 6.16-14 13.76s6.28 13.76 14 13.76c2.92 0 6.16-1.08 8.4-3.16l-1.64-3.6c-1.84 1.92-3.96 2.92-7 2.92Zm20.834-23.36h-8.04v26.88h8.04c8.76 0 13.72-6 13.72-13.44 0-7.44-4.76-13.44-13.72-13.44Zm1 23.04h-5.2v-19.2h5.2c5.24 0 8.88 4.28 8.88 9.6 0 5.32-3.64 9.6-8.88 9.6Zm32.257-19.2v-3.84h-15.36v26.88h15.36v-3.84h-11.52v-7.68h9.6v-3.84h-9.6v-7.68h11.52Zm8.949 23.04v-11.52h9.6v-3.84h-9.6v-7.68h11.52v-3.84h-15.36v26.88h3.84Zm41.211-14.68-14-.04v3.84h10c-.88 4.2-4.16 7.36-9.04 7.36-5.48 0-9.92-4.44-9.92-9.92 0-5.48 4.44-9.92 9.92-9.92 3.6 0 6.48 1.92 8 4.8l3.88-1.12c-2.28-4.48-6.44-7.52-11.88-7.52-7.6 0-13.76 6.16-13.76 13.76s6.16 13.76 13.76 13.76 13.12-6.16 13.12-13.76c0-.44-.04-.88-.08-1.24Zm20.886-12.2v11.52h-12.8v-11.52h-3.84v26.88h3.84v-11.52h12.8v11.52h3.84v-26.88h-3.84Zm13.45 26.88v-26.88h-3.84v26.88h3.84Zm15.369-26.88v16.96c0 3.84-1.52 6.4-5.12 6.4-1.72 0-3.12-.88-3.84-1.92l-1.92 3.28c.96 1.24 3.44 2.48 5.76 2.48 5.2 0 8.96-3.24 8.96-10.56v-16.64h-3.84Zm16.315 13.16 11.84-13.16h-5.12l-10.24 11.84v-11.84h-3.84v26.88h3.84v-11.84l10.88 11.84h5.12l-12.48-13.72Zm19.839 9.88v-23.04h-3.84v26.88h14.72v-3.84h-10.88Zm29.451 4.48 8.56-16.56 2.56 15.92h3.92l-4.56-27.52-10.48 20.32-10.48-20.32-4.56 27.52h3.92l2.56-15.92 8.56 16.56Zm41.922 0v-27.52h-3.84v18.4l-18.56-19.04v27.52h3.84v-18.4l18.56 19.04Zm17.931-27.84c-7.6 0-13.76 6.16-13.76 13.76s6.16 13.76 13.76 13.76 13.76-6.16 13.76-13.76-6.16-13.76-13.76-13.76Zm0 23.68c-5.52 0-9.92-4.4-9.92-9.92s4.4-9.92 9.92-9.92 9.92 4.4 9.92 9.92-4.4 9.92-9.92 9.92Zm26.231-23.36h-8.32v26.88h3.84v-9.28h5.68c5.68 0 9.04-3.96 9.04-9 0-5.08-3.24-8.6-10.24-8.6Zm1.24 13.76h-5.72v-9.92h5.48c2.8 0 5.4 1.48 5.4 5 0 3.48-2.36 4.92-5.16 4.92Zm40.054 13.12-4.08-4.36c2.16-2.4 3.44-5.6 3.44-9.08 0-7.6-6.16-13.76-13.76-13.76s-13.76 6.16-13.76 13.76 6.16 13.76 13.76 13.76c2.88 0 5.52-.88 7.72-2.36l1.88 2.04h4.8Zm-14.4-3.52c-5.52 0-9.92-4.4-9.92-9.92s4.4-9.92 9.92-9.92 9.92 4.4 9.92 9.92c0 2.4-.84 4.6-2.24 6.28l-2.88-3.08h-4.48l4.8 5.32c-1.48.88-3.24 1.4-5.12 1.4Zm37.111 3.52-6.92-9.64c4-1.08 6.28-4.48 6.28-8.64 0-5.08-3.24-8.6-10.24-8.6h-8.32v26.88h3.84v-9.28h4.2l6.68 9.28h4.48Zm-15.36-23.04h5.8c2.8 0 5.08 1.48 5.08 5 0 3.48-2.36 4.92-5.16 4.92h-5.72v-9.92Zm28.767 7.36c-4.24-.84-6.08-1.8-6.08-3.88 0-2.4 2.08-3.8 5.76-3.8 3.36 0 5.52 1.48 6.92 2.84l1.84-3.48c-3.32-3.08-7.56-3.2-8.68-3.2-6.28 0-9.68 3.44-9.68 7.8 0 3.6 2.12 6.28 9.6 7.56 3.68.64 6.12 1.96 6.12 4.12 0 2.56-2.2 4.2-6.24 4.2-3.16 0-6.24-1.48-8.48-3.96l-1.92 3.44c.4.48 3.84 4.36 10.32 4.36 6.28 0 10.16-3.52 10.16-8.2 0-4.52-3.24-6.56-9.64-7.8Zm12.207-11.2v3.84h7.04v23.04h3.84v-23.04h7.04v-3.84h-17.92Zm38.412 0v16.32c0 4.16-2.4 7.04-6.4 7.04-4.04 0-6.4-2.88-6.4-7.04v-16.32h-3.84v15.04c0 7.08 3.04 12.16 10.24 12.16 7.04 0 10.24-5.08 10.24-12.16v-15.04h-3.84Zm18.561 27.52 12.16-27.52h-4.16l-8 18.48-8-18.48h-4.16l12.16 27.52Zm47.37-27.52-7.04 17.68-7.36-18.32-7.36 18.32-7.04-17.68h-4.16l11.2 27.52 7.36-18.56 7.36 18.56 11.2-27.52h-4.16Zm30.079 26.88-9.76-13.88 9.12-13h-4.6l-6.92 10-6.92-10h-4.6l9.12 13-9.76 13.88h4.64l7.52-10.84 7.52 10.84h4.64Zm20.01-26.88-7.2 12.32-7.2-12.32h-4.32l9.6 16v10.88h3.84v-10.88l9.6-16h-4.32Zm26.712 26.88v-3.84h-13.84l14.48-23.04h-20.48v3.84h13.84l-14.48 23.04h20.48ZM18.237 299.3v2.8c-1.56-2.04-3.8-3.12-6.4-3.12-5.6 0-9.6 4.44-9.6 9.92 0 5.48 4 9.92 9.6 9.92 2.6 0 4.84-1.08 6.4-3.12v2.8h3.84v-19.2h-3.84Zm-6.08 15.68c-3.36 0-6.08-2.72-6.08-6.08s2.72-6.08 6.08-6.08 6.08 2.72 6.08 6.08-2.72 6.08-6.08 6.08Zm19.223-24.64h-3.84v28.16h3.84v-2.8c1.56 2.04 3.8 3.12 6.4 3.12 5.6 0 9.6-4.44 9.6-9.92 0-5.48-4-9.92-9.6-9.92-2.6 0-4.84 1.08-6.4 3.12v-11.76Zm6.08 24.64c-3.36 0-6.08-2.72-6.08-6.08s2.72-6.08 6.08-6.08 6.08 2.72 6.08 6.08-2.72 6.08-6.08 6.08Zm13.136-6.08c0 5.48 3.8 9.92 10.24 9.92 2.32 0 4.88-.76 6.4-2.2l-1.64-3.6a6.683 6.683 0 0 1-4.72 1.96c-3.56 0-6.44-2.76-6.44-6.12 0-3.28 2.88-6.04 6.44-6.04 1.84 0 3.52.76 4.72 1.92l1.64-3.56c-1.68-1.52-4.08-2.2-6.4-2.2-6.36 0-10.24 4.44-10.24 9.92Zm35.219-18.56v11.76c-1.56-2.04-3.8-3.12-6.4-3.12-5.6 0-9.6 4.44-9.6 9.92 0 5.48 4 9.92 9.6 9.92 2.6 0 4.84-1.08 6.4-3.12v2.8h3.84v-28.16h-3.84Zm-6.08 24.64c-3.36 0-6.08-2.72-6.08-6.08s2.72-6.08 6.08-6.08 6.08 2.72 6.08 6.08-2.72 6.08-6.08 6.08Zm32.351-6c0-6.24-3.92-10-9-10-5.88 0-9.56 4.44-9.56 9.92 0 5.4 3.36 9.92 10.08 9.92 4.16 0 6.68-1.88 7.2-2.32l-1.28-3.44c-1.52 1.08-3.56 1.92-5.84 1.92-3.04 0-5.64-1.32-6.24-4.32h14.52c.08-.52.12-1.28.12-1.68Zm-14.64-1.84c.08-1.88 1.96-4.32 5.48-4.32 3.64 0 5.16 2.44 5.24 4.32h-10.72Zm17.213-7.84v3.84h2.56v15.36h3.84v-15.36h4.48v-3.84h-4.48v-2.2c0-2.28 1-3.24 2.56-3.24.92 0 1.44.24 1.92.56v-3.76c-.72-.44-1.4-.64-2.48-.64-3.4 0-5.84 2.28-5.84 6.96v2.32h-2.56Zm29.437 0v2.8c-1.56-2.04-3.8-3.12-6.4-3.12-5.6 0-9.6 4.44-9.6 9.92 0 5.48 4 9.92 9.6 9.92 2.6 0 4.84-1.08 6.4-3.12v2.16c0 4.72-2.4 7.36-6.4 7.36-3.4 0-5.44-1.56-7.04-2.8l-1.92 3.44c.88.68 4 3.2 8.96 3.2 6.12 0 10.24-3.76 10.24-11.76v-18h-3.84Zm-6.08 15.68c-3.36 0-6.08-2.72-6.08-6.08s2.72-6.08 6.08-6.08 6.08 2.72 6.08 6.08-2.72 6.08-6.08 6.08Zm25.224-16c-3 0-4.88 1.28-6 2.56v-11.2h-3.84v28.16h3.84v-10.56c0-3.28 2.96-5.12 5.28-5.12 3.28 0 4.32 1.88 4.32 4.96v10.72h3.84v-10.72c0-5.68-2.56-8.8-7.44-8.8Zm14.15-2.88c1.6 0 2.88-1.28 2.88-2.88 0-1.6-1.28-2.88-2.88-2.88-1.6 0-2.88 1.28-2.88 2.88 0 1.6 1.28 2.88 2.88 2.88Zm-1.92 22.4h3.84v-19.2h-3.84v19.2Zm11.217-22.4c1.6 0 2.88-1.28 2.88-2.88 0-1.6-1.28-2.88-2.88-2.88-1.6 0-2.88 1.28-2.88 2.88 0 1.6 1.28 2.88 2.88 2.88Zm-1.92 23.68c0 4.08-1.88 5.28-4.16 5.76l.96 3.52c2.36-.36 7.04-1.16 7.04-9.84V299.3h-3.84v20.48Zm16.337-11.2 9.6-9.28h-5.12l-7.68 7.84v-16.8h-3.84v28.16h3.84v-8.16l8.32 8.16h5.12l-10.24-9.92Zm13.428-18.24v28.16h3.84v-28.16h-3.84Zm30.657 8.64c-2.72 0-4.6.84-6.64 3.04-1.16-2-3.04-3.04-5.52-3.04-3 0-4.24 1.28-5.36 2.56v-2.24h-3.84v19.2h3.84v-10.56c0-3.28 2.32-5.12 4.64-5.12 2.64 0 3.68 1.88 3.68 4.96v10.72h3.84v-10.56c0-3.28 2.32-5.12 4.64-5.12 2.64 0 3.68 1.88 3.68 4.96v10.72h3.84v-10.72c0-5.68-2.56-8.8-6.8-8.8Zm21.449 0c-3 0-4.88 1.28-6 2.56v-2.24h-3.84v19.2h3.84v-10.56c0-3.28 2.96-5.12 5.28-5.12 3.28 0 4.32 1.88 4.32 4.96v10.72h3.84v-11.04c0-5.68-2.88-8.48-7.44-8.48Zm21.183 0c-5.48 0-9.92 4.44-9.92 9.92 0 5.48 4.44 9.92 9.92 9.92 5.48 0 9.92-4.44 9.92-9.92 0-5.48-4.44-9.92-9.92-9.92Zm0 16c-3.32 0-6.08-2.76-6.08-6.08 0-3.32 2.76-6.08 6.08-6.08 3.32 0 6.08 2.76 6.08 6.08 0 3.32-2.76 6.08-6.08 6.08Zm24.022-16c-2.6 0-4.84 1.08-6.4 3.12v-2.8h-3.84v29.44h3.84V315.7c1.56 2.04 3.8 3.12 6.4 3.12 5.6 0 9.6-4.44 9.6-9.92 0-5.48-4-9.92-9.6-9.92Zm-.32 16c-3.36 0-6.08-2.72-6.08-6.08s2.72-6.08 6.08-6.08 6.08 2.72 6.08 6.08-2.72 6.08-6.08 6.08Zm22.736-16c-5.6 0-9.6 4.44-9.6 9.92 0 5.48 4 9.92 9.6 9.92 2.6 0 4.84-1.08 6.4-3.12v13.04h3.84V299.3h-3.84v2.8c-1.56-2.04-3.8-3.12-6.4-3.12Zm.32 16c-3.36 0-6.08-2.72-6.08-6.08s2.72-6.08 6.08-6.08 6.08 2.72 6.08 6.08-2.72 6.08-6.08 6.08Zm19.223-11.56v-4.12h-3.84v19.2h3.84v-8.56c0-3.52 1.64-5.64 4.16-6.6 1.2-.44 2.6-.44 3.52-.16v-4.2c-3.6 0-6.36 1.68-7.68 4.44Zm19.271 3.24c-2.24-.44-4.52-.72-4.52-2.16 0-1.32 2.08-1.72 3.96-1.68 2.36.04 4.76.96 5.64 1.6l1.32-3.6c-2.6-1.4-5.24-1.84-6.96-1.84-4.72 0-7.8 2.28-7.8 5.48 0 3.08 1.48 4.92 7.76 6.04 2.36.44 3.76 1 3.76 2.44 0 1.16-1.48 2.08-3.96 2.04-2.16-.04-5.16-1.12-6.68-2.64l-1.52 3.76c.88.84 4.08 2.72 8.32 2.72 5 0 7.68-2.52 7.68-6.32 0-2.36-1.36-4.76-7-5.84Zm12.778 5.56c0 3.68 1.2 6.6 4.84 6.6 1.08 0 2-.16 2.84-.56v-3.88c-.88.44-2.16.76-3.08.08-.76-.56-.76-1.96-.76-3.32v-8h3.84v-3.84h-3.84v-7.68h-3.84v7.68h-2.56v3.84h2.56v9.08Zm19.583 6.6c3 0 4.88-1.28 6-2.56v2.24h3.84v-19.2h-3.84v10.56c0 3.28-2.96 5.12-5.28 5.12-3.28 0-4.32-1.88-4.32-4.96V299.3h-3.84v11.04c0 5.68 2.88 8.48 7.44 8.48Zm22.303.32 9.28-19.84h-4.16l-5.12 11.2-5.12-11.2h-4.16l9.28 19.84Zm36.188-19.84-4.48 11.44-5.76-12.08-5.76 12.08-4.48-11.44h-4.16l8.32 19.84 6.08-12.32 6.08 12.32 8.32-19.84h-4.16Zm17.638 9 6.72-9h-4.56l-4.44 6.32-4.44-6.32h-4.56l6.72 9-7.32 10.2h4.56l5.04-7.24 5.04 7.24h4.56l-7.32-10.2Zm24.172-9-5.64 13.28-5.64-13.28h-4.28l7.76 17.96-5.12 11.48h4.2l13-29.44h-4.28Zm21.237 19.2v-3.84h-8.88l9.52-15.36h-15.36v3.84h8.8l-9.44 15.36h15.36ZM3.517 349.86v3.52l4.48-1.44v22.56h3.84v-27.52l-8.32 2.88Zm14.686 5.76 3.92.64c.2-2.84 2.08-5.12 5.08-5.12 3.04 0 5.12 2 5.12 5.04 0 2.2-2.4 4.8-4.88 7.52l-9.84 10.8h19.84v-3.84h-11.48l4.2-4.48c3.6-3.8 6-6.64 6-10.24 0-5.08-3.84-8.64-8.96-8.64-5.48 0-8.68 4.04-9 8.32ZM57.3 360.3c2.24-1.32 3.2-3.32 3.2-5.64 0-3-2.72-7.36-8.96-7.36-4.96 0-8.6 3.52-9 8.32l3.84.64c.28-2.56 1.28-5.12 5.4-5.12 3.36 0 4.88 2.08 4.88 3.84 0 3.2-4.08 3.8-6.4 3.84v3.84c4.08 0 7.04.56 7.04 3.84 0 2.44-2 4.48-5.52 4.48-4.08 0-5.64-2.48-6-5.44l-3.84.64c.36 5.12 3.8 8.64 9.6 8.64 7 0 9.6-4.64 9.6-8.64 0-2.76-1.84-5.2-3.84-5.88Zm24.952 5.88v-19.2l-17.92 23.04h14.08v4.48h3.84v-4.48h3.2v-3.84h-3.2Zm-3.84 0h-6.48l6.48-8.88v8.88Zm21.976-9.6c-1.72 0-3.84.64-5.2 1.76l1.04-6.88h10.36v-3.84h-13.64l-2.4 16h3.92c1.2-2.12 3.6-3.2 5.68-3.2 3.04 0 5.16 2.12 5.16 5.12 0 3.08-2.68 5.44-5.76 5.44-3.16 0-5.36-2.4-5.6-4.88l-4 .4c.32 4.56 4.28 8.32 9.6 8.32 5.12 0 9.6-3.84 9.6-9.4 0-5.72-4.4-8.84-8.76-8.84Zm23.912-.88c-2.2 0-3.76.44-5.04 1.16 3.28-6.84 10.56-9.24 10.56-9.24h-6.8c-6.68 4.28-9.4 11.44-9.4 16.8 0 6.36 4.12 10.4 9.92 10.4 5.76 0 9.92-4.12 9.92-10.12 0-4.76-3.64-9-9.16-9Zm-.76 15.28c-3.56 0-6.08-2.6-6.08-5.8 0-3.2 2.52-5.64 6.08-5.64 3.76 0 6.08 2.44 6.08 5.64 0 3.2-2.52 5.8-6.08 5.8Zm14.416-23.36v3.84h13.12l-9.92 23.04h4.48l11.52-26.88h-19.2Zm37.958 12.12c1.6-1.16 2.36-3 2.36-4.92 0-4.32-3.88-7.52-8.64-7.52-4.8 0-8.64 3.2-8.64 7.52 0 1.92.72 3.8 2.32 4.92-2.32 1.4-3.6 3.72-3.6 6.48 0 5.2 4.48 8.6 9.92 8.6 5.44 0 9.92-3.4 9.92-8.6 0-2.76-1.28-5.12-3.64-6.48Zm-6.28-8.6c2.68 0 4.8 1.64 4.8 3.52 0 1.88-2.12 3.52-4.8 3.52-2.68 0-4.8-1.64-4.8-3.52 0-1.88 2.12-3.52 4.8-3.52Zm0 19.84c-3.36 0-6.08-2-6.08-4.64 0-2.64 2.72-4.64 6.08-4.64s6.08 2 6.08 4.64c0 2.64-2.72 4.64-6.08 4.64Zm23.576-4.56c2.44 0 3.76-.44 5.04-1.16-3.28 6.84-10.56 9.24-10.56 9.24h6.8c6.68-4.28 9.4-11.44 9.4-16.8 0-6.36-4.12-10.4-9.92-10.4-5.76 0-9.92 4.12-9.92 10.12 0 4.76 3.64 9 9.16 9Zm.76-15.28c3.56 0 6.08 2.6 6.08 5.8 0 3.2-2.52 5.64-6.08 5.64-3.76 0-6.08-2.44-6.08-5.64 0-3.2 2.52-5.8 6.08-5.8Zm24.336-3.84c-5.92 0-9.92 6.16-9.92 13.76s3.96 13.76 9.92 13.76c5.88 0 9.92-6.16 9.92-13.76s-4.04-13.76-9.92-13.76Zm0 23.68c-3.36 0-6.08-4.44-6.08-9.92 0-5.48 2.72-9.92 6.08-9.92s6.08 4.44 6.08 9.92c0 5.48-2.72 9.92-6.08 9.92Zm13.775 8h2.56l4.16-8.96H234l-1.92 8.96Zm14.067-4.16c1.64 0 2.88-1.28 2.88-2.88 0-1.64-1.24-2.88-2.88-2.88-1.6 0-2.88 1.24-2.88 2.88 0 1.6 1.28 2.88 2.88 2.88Zm15.355-27.52c-3.44 0-6.08 1.72-8 3.84l2.24 3.12c.92-1.4 2.76-3.12 5.8-3.12 3.08 0 4.76 1.72 4.76 3.84 0 2.28-2.52 3.72-4.28 5.56-2 2.08-2.52 4.56-2.44 6.28h3.84c.04-2.12.96-3.64 2.96-5.28 2.32-1.92 3.76-3.68 3.76-6.56 0-3.48-2.52-7.68-8.64-7.68Zm0 21.76c-1.6 0-2.88 1.28-2.88 2.88 0 1.6 1.28 2.88 2.88 2.88 1.64 0 2.88-1.28 2.88-2.88 0-1.6-1.24-2.88-2.88-2.88Zm15.373-2.24h2.56l1.28-19.2h-5.12l1.28 19.2Zm1.28 8c1.64 0 2.88-1.28 2.88-2.88 0-1.6-1.24-2.88-2.88-2.88-1.6 0-2.88 1.28-2.88 2.88 0 1.6 1.28 2.88 2.88 2.88Zm15.883-23.68.2-4.8h-2.88l.2 4.8-4.28-1.92-1.12 2.76 4.56 1.52-3.04 3.84 2.4 1.68 2.72-4 2.84 4 2.32-1.68-3.08-3.84 4.56-1.52-1.12-2.76-4.28 1.92Zm34.853 10.56h-5l-3.76 4.08-4.64-4.52c2.2-.68 6.36-2.72 6.36-7 0-3.68-2.88-6.96-7.92-6.96-5.68 0-8.32 3.4-8.32 6.72 0 2.36 1.56 4.16 3.36 5.88-2.52 1.08-5.04 3.52-5.04 7.12 0 4.68 3.28 7.8 8.4 7.8 3.4 0 5.88-1.52 7.96-3.64l3.24 3.32h5.4l-6.12-6.08 6.08-6.72Zm-16.08-3.08c-.96-.96-3.36-2.64-3.36-4.6 0-1.28 1.2-2.88 4.28-2.88 2.64 0 4.28 1.36 4.28 3.08 0 1.96-1.92 3.24-5.2 4.4Zm-.4 12.36c-2.92 0-4.64-1.52-4.64-3.84 0-2.48 2.36-3.92 3.96-4.56l5.84 5.88c-1.32 1.36-3.08 2.52-5.16 2.52Z" fill="#fff" fill-opacity=".81"/></svg>