<svg width="1547" height="608" fill="none" xmlns="http://www.w3.org/2000/svg"><rect x="1020.75" y="306.766" width="210" height="56" rx="28" fill="#000"/><path d="M1070.08 338.91c1.57 0 2.53-.576 3.4-1.488l-.94-.96c-.72.672-1.38 1.092-2.42 1.092-1.6 0-2.77-1.344-2.77-2.988v-.024c0-1.644 1.17-2.964 2.77-2.964.96 0 1.68.42 2.36 1.044l.94-1.092c-.8-.768-1.74-1.308-3.28-1.308-2.55 0-4.34 1.956-4.34 4.344v.024c0 2.412 1.83 4.32 4.28 4.32Zm8.75 0c2.58 0 4.41-1.98 4.41-4.344v-.024c0-2.364-1.8-4.32-4.38-4.32s-4.41 1.98-4.41 4.344v.024c0 2.364 1.8 4.32 4.38 4.32Zm.03-1.356c-1.67 0-2.86-1.356-2.86-2.988v-.024c0-1.632 1.16-2.964 2.83-2.964 1.67 0 2.86 1.356 2.86 2.988v.024c0 1.632-1.17 2.964-2.83 2.964Zm6.18 1.212h1.48v-2.928h1.85l2.06 2.928h1.74l-2.27-3.18c1.18-.336 2.01-1.164 2.01-2.544v-.024c0-.732-.25-1.356-.7-1.812-.54-.528-1.37-.84-2.42-.84h-3.75v8.4Zm1.48-4.236v-2.82h2.15c1.09 0 1.74.492 1.74 1.392v.024c0 .852-.67 1.404-1.73 1.404h-2.16Zm7.22 4.236h6.29v-1.32h-4.81v-2.256h4.21v-1.32h-4.21v-2.184h4.75v-1.32h-6.23v8.4Zm15.58.144c1.58 0 2.54-.576 3.41-1.488l-.95-.96c-.72.672-1.38 1.092-2.41 1.092-1.61 0-2.77-1.344-2.77-2.988v-.024c0-1.644 1.16-2.964 2.77-2.964.96 0 1.68.42 2.35 1.044l.95-1.092c-.8-.768-1.74-1.308-3.29-1.308-2.54 0-4.33 1.956-4.33 4.344v.024c0 2.412 1.83 4.32 4.27 4.32Zm8.76 0c2.58 0 4.41-1.98 4.41-4.344v-.024c0-2.364-1.8-4.32-4.38-4.32s-4.41 1.98-4.41 4.344v.024c0 2.364 1.8 4.32 4.38 4.32Zm.03-1.356c-1.67 0-2.86-1.356-2.86-2.988v-.024c0-1.632 1.16-2.964 2.83-2.964 1.67 0 2.86 1.356 2.86 2.988v.024c0 1.632-1.17 2.964-2.83 2.964Zm6.18 1.212h5.89v-1.344h-4.41v-7.056h-1.48v8.4Zm7.46 0h5.89v-1.344h-4.42v-7.056h-1.47v8.4Zm7.45 0h6.29v-1.32h-4.81v-2.256h4.21v-1.32h-4.21v-2.184h4.75v-1.32h-6.23v8.4Zm11.96.144c1.58 0 2.54-.576 3.41-1.488l-.95-.96c-.72.672-1.38 1.092-2.41 1.092-1.61 0-2.77-1.344-2.77-2.988v-.024c0-1.644 1.16-2.964 2.77-2.964.96 0 1.68.42 2.35 1.044l.95-1.092c-.8-.768-1.74-1.308-3.29-1.308-2.54 0-4.33 1.956-4.33 4.344v.024c0 2.412 1.83 4.32 4.27 4.32Zm7.05-.144h1.49v-7.032h2.66v-1.368h-6.81v1.368h2.66v7.032Zm5.83 0h1.47v-8.4h-1.47v8.4Zm7.75.144c2.58 0 4.41-1.98 4.41-4.344v-.024c0-2.364-1.8-4.32-4.38-4.32s-4.41 1.98-4.41 4.344v.024c0 2.364 1.8 4.32 4.38 4.32Zm.03-1.356c-1.67 0-2.86-1.356-2.86-2.988v-.024c0-1.632 1.16-2.964 2.83-2.964 1.67 0 2.86 1.356 2.86 2.988v.024c0 1.632-1.17 2.964-2.83 2.964Zm6.18 1.212h1.46v-5.976l4.63 5.976h1.23v-8.4h-1.45v5.808l-4.5-5.808H1178v8.4Z" fill="#fff"/><rect x="1350.75" y="306.766" width="196" height="56" rx="28" fill="#000"/><path d="M1396.28 338.766h5.89v-1.344h-4.42v-7.056h-1.47v8.4Zm7.53 0h1.48v-8.4h-1.48v8.4Zm3.75 0h1.46v-6l2.62 3.936h.05l2.65-3.96v6.024h1.48v-8.4h-1.57l-2.56 3.972-2.55-3.972h-1.58v8.4Zm10.53 0h1.48v-8.4h-1.48v8.4Zm5.81 0h1.49v-7.032h2.66v-1.368h-6.81v1.368h2.66v7.032Zm5.74 0h6.29v-1.32h-4.81v-2.256h4.21v-1.32h-4.21v-2.184h4.75v-1.32h-6.23v8.4Zm8.07 0h3.13c2.64 0 4.46-1.836 4.46-4.2v-.024c0-2.364-1.82-4.176-4.46-4.176h-3.13v8.4Zm1.47-1.344v-5.712h1.66c1.76 0 2.91 1.212 2.91 2.856v.024c0 1.644-1.15 2.832-2.91 2.832h-1.66Zm11.56 1.344h6.29v-1.32h-4.82v-2.256h4.22v-1.32h-4.22v-2.184h4.76v-1.32h-6.23v8.4Zm8.06 0h3.13c2.64 0 4.47-1.836 4.47-4.2v-.024c0-2.364-1.83-4.176-4.47-4.176h-3.13v8.4Zm1.48-1.344v-5.712h1.65c1.77 0 2.92 1.212 2.92 2.856v.024c0 1.644-1.15 2.832-2.92 2.832h-1.65Zm8.02 1.344h1.47v-8.4h-1.47v8.4Zm5.81 0h1.49v-7.032h2.66v-1.368h-6.81v1.368h2.66v7.032Zm5.82 0h1.48v-8.4h-1.48v8.4Zm7.76.144c2.58 0 4.4-1.98 4.4-4.344v-.024c0-2.364-1.8-4.32-4.38-4.32s-4.4 1.98-4.4 4.344v.024c0 2.364 1.8 4.32 4.38 4.32Zm.02-1.356c-1.66 0-2.85-1.356-2.85-2.988v-.024c0-1.632 1.16-2.964 2.83-2.964 1.67 0 2.86 1.356 2.86 2.988v.024c0 1.632-1.17 2.964-2.84 2.964Zm6.19 1.212h1.45v-5.976l4.64 5.976h1.23v-8.4h-1.45v5.808l-4.5-5.808h-1.37v8.4Z" fill="#fff"/><rect x="1191.75" y="402.766" width="184" height="56" rx="28" fill="#000"/><path d="M1237.24 434.766h1.48v-3.42h4.23v-1.344h-4.23v-2.292h4.77v-1.344h-6.25v8.4Zm7.9 0h5.89v-1.344h-4.41v-7.056h-1.48v8.4Zm6.74 0h1.51l.86-2.028h3.97l.86 2.028h1.56l-3.7-8.46h-1.37l-3.69 8.46Zm2.91-3.336 1.44-3.36 1.45 3.36h-2.89Zm8.89 3.396h1.29l3.49-8.46h-1.59l-2.52 6.456-2.53-6.456h-1.64l3.5 8.46Zm9.74.084c2.58 0 4.41-1.98 4.41-4.344v-.024c0-2.364-1.8-4.32-4.38-4.32s-4.41 1.98-4.41 4.344v.024c0 2.364 1.8 4.32 4.38 4.32Zm.03-1.356c-1.67 0-2.86-1.356-2.86-2.988v-.024c0-1.632 1.16-2.964 2.83-2.964 1.67 0 2.86 1.356 2.86 2.988v.024c0 1.632-1.17 2.964-2.83 2.964Zm9.63 1.344c2.19 0 3.61-1.26 3.61-3.768v-4.764h-1.48v4.836c0 1.548-.8 2.34-2.11 2.34-1.32 0-2.12-.84-2.12-2.4v-4.776h-1.48v4.836c0 2.436 1.39 3.696 3.58 3.696Zm5.66-.132h1.47v-2.928h1.85l2.07 2.928h1.74l-2.27-3.18c1.17-.336 2-1.164 2-2.544v-.024c0-.732-.25-1.356-.69-1.812-.54-.528-1.37-.84-2.43-.84h-3.74v8.4Zm1.47-4.236v-2.82h2.15c1.09 0 1.74.492 1.74 1.392v.024c0 .852-.67 1.404-1.73 1.404h-2.16Zm10.93 4.236h1.48v-8.4h-1.48v8.4Zm3.75 0h1.45v-5.976l4.63 5.976h1.24v-8.4h-1.45v5.808l-4.5-5.808h-1.37v8.4Zm9.5 0h1.48v-3.42h4.24v-1.344h-4.24v-2.292h4.78v-1.344h-6.26v8.4Zm11.84.144c2.58 0 4.4-1.98 4.4-4.344v-.024c0-2.364-1.8-4.32-4.38-4.32s-4.4 1.98-4.4 4.344v.024c0 2.364 1.8 4.32 4.38 4.32Zm.02-1.356c-1.66 0-2.85-1.356-2.85-2.988v-.024c0-1.632 1.16-2.964 2.83-2.964 1.67 0 2.86 1.356 2.86 2.988v.024c0 1.632-1.17 2.964-2.84 2.964Z" fill="#fff"/><rect x="555.25" y=".766" width="320" height="72" rx="36" fill="#000"/><path d="M608.87 41.766h4.176c3.52 0 5.952-2.448 5.952-5.6v-.032c0-3.152-2.432-5.568-5.952-5.568h-4.176v11.2Zm1.968-1.792v-7.616h2.208c2.352 0 3.888 1.616 3.888 3.808v.032c0 2.192-1.536 3.776-3.888 3.776h-2.208Zm10.692 1.792h1.968v-11.2h-1.968v11.2Zm8.918.16c2.352 0 4-1.248 4-3.344v-.032c0-1.856-1.232-2.704-3.6-3.28-2.144-.512-2.656-.896-2.656-1.76v-.032c0-.736.672-1.328 1.824-1.328 1.024 0 2.032.4 3.04 1.152l1.056-1.488c-1.136-.912-2.432-1.408-4.064-1.408-2.224 0-3.824 1.328-3.824 3.248v.032c0 2.064 1.344 2.768 3.728 3.344 2.08.48 2.528.912 2.528 1.712v.032c0 .848-.768 1.408-1.984 1.408-1.392 0-2.464-.528-3.536-1.456l-1.184 1.408a6.9 6.9 0 0 0 4.672 1.792Zm11.546.032c2.096 0 3.376-.768 4.544-1.984l-1.264-1.28c-.96.896-1.84 1.456-3.216 1.456-2.144 0-3.696-1.792-3.696-3.984v-.032c0-2.192 1.552-3.952 3.696-3.952 1.28 0 2.24.56 3.136 1.392l1.264-1.456c-1.072-1.024-2.32-1.744-4.384-1.744-3.392 0-5.776 2.608-5.776 5.792v.032c0 3.216 2.432 5.76 5.696 5.76Zm11.676 0c3.44 0 5.872-2.64 5.872-5.792v-.032c0-3.152-2.4-5.76-5.84-5.76s-5.872 2.64-5.872 5.792v.032c0 3.152 2.4 5.76 5.84 5.76Zm.032-1.808c-2.224 0-3.808-1.808-3.808-3.984v-.032c0-2.176 1.552-3.952 3.776-3.952 2.224 0 3.808 1.808 3.808 3.984v.032c0 2.176-1.552 3.952-3.776 3.952Zm11.258 1.696h1.728l4.656-11.28h-2.128l-3.36 8.608-3.376-8.608h-2.176l4.656 11.28Zm8.336-.08h8.384v-1.76h-6.416v-3.008h5.616v-1.76h-5.616v-2.912h6.336v-1.76h-8.304v11.2Zm10.751 0h1.968v-3.904h2.464l2.752 3.904h2.32l-3.024-4.24c1.568-.448 2.672-1.552 2.672-3.392v-.032c0-.976-.336-1.808-.928-2.416-.72-.704-1.824-1.12-3.232-1.12h-4.992v11.2Zm1.968-5.648v-3.76h2.864c1.456 0 2.32.656 2.32 1.856v.032c0 1.136-.896 1.872-2.304 1.872h-2.88Zm18.152 5.728h1.728l4.656-11.28h-2.128l-3.36 8.608-3.376-8.608h-2.176l4.656 11.28Zm12.928.096c2.928 0 4.816-1.68 4.816-5.024v-6.352h-1.968v6.448c0 2.064-1.072 3.12-2.816 3.12-1.76 0-2.832-1.12-2.832-3.2v-6.368h-1.968v6.448c0 3.248 1.856 4.928 4.768 4.928Zm11.469-.016c2.352 0 4-1.248 4-3.344v-.032c0-1.856-1.232-2.704-3.6-3.28-2.144-.512-2.656-.896-2.656-1.76v-.032c0-.736.672-1.328 1.824-1.328 1.024 0 2.032.4 3.04 1.152l1.056-1.488c-1.136-.912-2.432-1.408-4.064-1.408-2.224 0-3.824 1.328-3.824 3.248v.032c0 2.064 1.344 2.768 3.728 3.344 2.08.48 2.528.912 2.528 1.712v.032c0 .848-.768 1.408-1.984 1.408-1.392 0-2.464-.528-3.536-1.456l-1.184 1.408a6.9 6.9 0 0 0 4.672 1.792Zm6.346-.16h8.384v-1.76h-6.416v-3.008h5.616v-1.76h-5.616v-2.912h6.336v-1.76h-8.304v11.2Zm15.692 0h1.968v-11.2h-1.968v11.2Zm15.094.336 1.264-1.408-1.28-1.088a5.69 5.69 0 0 0 1.136-3.44v-.032c0-3.152-2.4-5.76-5.84-5.76s-5.872 2.64-5.872 5.792v.032c0 3.152 2.4 5.76 5.84 5.76 1.312 0 2.464-.384 3.408-1.056l1.344 1.2Zm-4.72-1.952c-2.224 0-3.808-1.808-3.808-3.984v-.032c0-2.176 1.552-3.952 3.776-3.952 2.224 0 3.808 1.808 3.808 3.984v.032c0 .784-.192 1.504-.576 2.096l-1.936-1.76-1.264 1.44 1.92 1.632a3.56 3.56 0 0 1-1.92.544Zm13.079 1.616h1.968v-4.72h5.344v4.72h1.968v-11.2h-1.968v4.656h-5.344v-4.656h-1.968v11.2Zm17.532.192c3.44 0 5.872-2.64 5.872-5.792v-.032c0-3.152-2.4-5.76-5.84-5.76s-5.872 2.64-5.872 5.792v.032c0 3.152 2.4 5.76 5.84 5.76Zm.032-1.808c-2.224 0-3.808-1.808-3.808-3.984v-.032c0-2.176 1.552-3.952 3.776-3.952 2.224 0 3.808 1.808 3.808 3.984v.032c0 2.176-1.552 3.952-3.776 3.952Zm8.25 1.616h1.936v-8l3.504 5.248h.064l3.536-5.28v8.032h1.968v-11.2h-2.096l-3.408 5.296-3.408-5.296h-2.096v11.2Zm13.922 0h8.384v-1.76h-6.416v-3.008h5.616v-1.76h-5.616v-2.912h6.336v-1.76h-8.304v11.2Z" fill="#fff"/><rect x="4.5" y="306.766" width="274" height="56" rx="28" fill="#000"/><path d="M50.072 338.766h1.452v-5.976l4.632 5.976h1.236v-8.4H55.94v5.808l-4.5-5.808h-1.368v8.4Zm9.588 0h1.476v-8.4H59.66v8.4Zm7.649.144c1.572 0 2.532-.576 3.408-1.488l-.948-.96c-.72.672-1.38 1.092-2.412 1.092-1.608 0-2.772-1.344-2.772-2.988v-.024c0-1.644 1.164-2.964 2.772-2.964.96 0 1.68.42 2.352 1.044l.948-1.092c-.804-.768-1.74-1.308-3.288-1.308-2.544 0-4.332 1.956-4.332 4.344v.024c0 2.412 1.824 4.32 4.272 4.32Zm8.757 0c2.58 0 4.404-1.98 4.404-4.344v-.024c0-2.364-1.8-4.32-4.38-4.32s-4.404 1.98-4.404 4.344v.024c0 2.364 1.8 4.32 4.38 4.32Zm.024-1.356c-1.668 0-2.856-1.356-2.856-2.988v-.024c0-1.632 1.164-2.964 2.832-2.964s2.856 1.356 2.856 2.988v.024c0 1.632-1.164 2.964-2.832 2.964Zm7.794 1.212h1.488v-7.032h2.664v-1.368H81.22v1.368h2.664v7.032Zm5.825 0h1.476v-8.4H89.71v8.4Zm3.749 0h1.452v-5.976l4.632 5.976h1.236v-8.4h-1.452v5.808l-4.5-5.808h-1.368v8.4Zm9.504 0h6.288v-1.32h-4.812v-2.256h4.212v-1.32h-4.212v-2.184h4.752v-1.32h-6.228v8.4Zm14.625.12c1.764 0 3-.936 3-2.508v-.024c0-1.392-.924-2.028-2.7-2.46-1.608-.384-1.992-.672-1.992-1.32v-.024c0-.552.504-.996 1.368-.996.768 0 1.524.3 2.28.864l.792-1.116c-.852-.684-1.824-1.056-3.048-1.056-1.668 0-2.868.996-2.868 2.436v.024c0 1.548 1.008 2.076 2.796 2.508 1.56.36 1.896.684 1.896 1.284v.024c0 .636-.576 1.056-1.488 1.056-1.044 0-1.848-.396-2.652-1.092l-.888 1.056a5.174 5.174 0 0 0 3.504 1.344Zm6.648-.12h1.488v-7.032h2.664v-1.368h-6.816v1.368h2.664v7.032Zm5.741 0h1.476v-2.928h1.848l2.064 2.928h1.74l-2.268-3.18c1.176-.336 2.004-1.164 2.004-2.544v-.024c0-.732-.252-1.356-.696-1.812-.54-.528-1.368-.84-2.424-.84h-3.744v8.4Zm1.476-4.236v-2.82h2.148c1.092 0 1.74.492 1.74 1.392v.024c0 .852-.672 1.404-1.728 1.404h-2.16Zm7.22 4.236h6.288v-1.32h-4.812v-2.256h4.212v-1.32h-4.212v-2.184h4.752v-1.32h-6.228v8.4Zm8.063 0h1.452v-5.976l4.632 5.976h1.236v-8.4h-1.452v5.808l-4.5-5.808h-1.368v8.4Zm13.489.144c1.488 0 2.676-.6 3.504-1.308v-3.528h-3.576v1.284h2.148v1.572c-.516.384-1.236.636-2.028.636-1.716 0-2.856-1.272-2.856-3v-.024c0-1.608 1.176-2.964 2.724-2.964 1.068 0 1.704.348 2.352.9l.936-1.116c-.864-.732-1.764-1.14-3.228-1.14-2.532 0-4.332 1.992-4.332 4.344v.024c0 2.448 1.728 4.32 4.356 4.32Zm7.361-.144h1.488v-7.032h2.664v-1.368h-6.816v1.368h2.664v7.032Zm5.742 0h1.476v-3.54h4.008v3.54h1.476v-8.4h-1.476v3.492h-4.008v-3.492h-1.476v8.4Zm16.663.144c1.572 0 2.532-.576 3.408-1.488l-.948-.96c-.72.672-1.38 1.092-2.412 1.092-1.608 0-2.772-1.344-2.772-2.988v-.024c0-1.644 1.164-2.964 2.772-2.964.96 0 1.68.42 2.352 1.044l.948-1.092c-.804-.768-1.74-1.308-3.288-1.308-2.544 0-4.332 1.956-4.332 4.344v.024c0 2.412 1.824 4.32 4.272 4.32Zm4.983-.144h1.476v-3.54h4.008v3.54h1.476v-8.4h-1.476v3.492h-4.008v-3.492h-1.476v8.4Zm13.149.144c2.58 0 4.404-1.98 4.404-4.344v-.024c0-2.364-1.8-4.32-4.38-4.32s-4.404 1.98-4.404 4.344v.024c0 2.364 1.8 4.32 4.38 4.32Zm.024-1.356c-1.668 0-2.856-1.356-2.856-2.988v-.024c0-1.632 1.164-2.964 2.832-2.964s2.856 1.356 2.856 2.988v.024c0 1.632-1.164 2.964-2.832 2.964Zm6.271 1.212h1.476v-8.4h-1.476v8.4Zm7.649.144c1.572 0 2.532-.576 3.408-1.488l-.948-.96c-.72.672-1.38 1.092-2.412 1.092-1.608 0-2.772-1.344-2.772-2.988v-.024c0-1.644 1.164-2.964 2.772-2.964.96 0 1.68.42 2.352 1.044l.948-1.092c-.804-.768-1.74-1.308-3.288-1.308-2.544 0-4.332 1.956-4.332 4.344v.024c0 2.412 1.824 4.32 4.272 4.32Zm4.983-.144h6.288v-1.32h-4.812v-2.256h4.212v-1.32h-4.212v-2.184h4.752v-1.32h-6.228v8.4Z" fill="#fff"/><rect x="593.25" y="168.766" width="232" height="72" rx="36" fill="#000"/><path d="M647.092 209.766h1.968v-4.56h5.648v-1.792h-5.648v-3.056h6.368v-1.792h-8.336v11.2Zm10.532 0h7.856v-1.792h-5.888v-9.408h-1.968v11.2Zm8.978 0h2.016l1.152-2.704h5.296l1.136 2.704h2.08l-4.928-11.28h-1.824l-4.928 11.28Zm3.888-4.448 1.92-4.48 1.936 4.48h-3.856Zm11.847 4.528h1.728l4.656-11.28h-2.128l-3.36 8.608-3.376-8.608h-2.176l4.656 11.28Zm12.993.112c3.44 0 5.872-2.64 5.872-5.792v-.032c0-3.152-2.4-5.76-5.84-5.76s-5.872 2.64-5.872 5.792v.032c0 3.152 2.4 5.76 5.84 5.76Zm.032-1.808c-2.224 0-3.808-1.808-3.808-3.984v-.032c0-2.176 1.552-3.952 3.776-3.952 2.224 0 3.808 1.808 3.808 3.984v.032c0 2.176-1.552 3.952-3.776 3.952Zm12.842 1.792c2.928 0 4.816-1.68 4.816-5.024v-6.352h-1.968v6.448c0 2.064-1.072 3.12-2.816 3.12-1.76 0-2.832-1.12-2.832-3.2v-6.368h-1.968v6.448c0 3.248 1.856 4.928 4.768 4.928Zm7.549-.176h1.968v-3.904h2.464l2.752 3.904h2.32l-3.024-4.24c1.568-.448 2.672-1.552 2.672-3.392v-.032c0-.976-.336-1.808-.928-2.416-.72-.704-1.824-1.12-3.232-1.12h-4.992v11.2Zm1.968-5.648v-3.76h2.864c1.456 0 2.32.656 2.32 1.856v.032c0 1.136-.896 1.872-2.304 1.872h-2.88Zm24.551 5.984 1.264-1.408-1.28-1.088a5.69 5.69 0 0 0 1.136-3.44v-.032c0-3.152-2.4-5.76-5.84-5.76s-5.872 2.64-5.872 5.792v.032c0 3.152 2.4 5.76 5.84 5.76 1.312 0 2.464-.384 3.408-1.056l1.344 1.2Zm-4.72-1.952c-2.224 0-3.808-1.808-3.808-3.984v-.032c0-2.176 1.552-3.952 3.776-3.952 2.224 0 3.808 1.808 3.808 3.984v.032c0 .784-.192 1.504-.576 2.096l-1.936-1.76-1.264 1.44 1.92 1.632a3.56 3.56 0 0 1-1.92.544Zm12.842 1.792c2.928 0 4.816-1.68 4.816-5.024v-6.352h-1.968v6.448c0 2.064-1.072 3.12-2.816 3.12-1.76 0-2.832-1.12-2.832-3.2v-6.368h-1.968v6.448c0 3.248 1.856 4.928 4.768 4.928Zm7.661-.176h1.968v-11.2h-1.968v11.2Zm4.598 0h9.168v-1.744h-6.608l6.608-8v-1.456h-8.96v1.744h6.4l-6.608 8v1.456Z" fill="#fff"/><rect x="1137.25" y="168.766" width="293" height="72" rx="36" fill="#000"/><path d="M1191.11 209.766h1.96v-4.56h5.65v-1.792h-5.65v-3.056h6.37v-1.792h-8.33v11.2Zm10.53 0h7.85v-1.792h-5.88v-9.408h-1.97v11.2Zm8.98 0h2.01l1.15-2.704h5.3l1.14 2.704h2.08l-4.93-11.28h-1.83l-4.92 11.28Zm3.88-4.448 1.92-4.48 1.94 4.48h-3.86Zm11.85 4.528h1.73l4.66-11.28h-2.13l-3.36 8.608-3.38-8.608h-2.17l4.65 11.28Zm12.99.112c3.44 0 5.88-2.64 5.88-5.792v-.032c0-3.152-2.4-5.76-5.84-5.76s-5.88 2.64-5.88 5.792v.032c0 3.152 2.4 5.76 5.84 5.76Zm.04-1.808c-2.23 0-3.81-1.808-3.81-3.984v-.032c0-2.176 1.55-3.952 3.77-3.952 2.23 0 3.81 1.808 3.81 3.984v.032c0 2.176-1.55 3.952-3.77 3.952Zm12.84 1.792c2.93 0 4.81-1.68 4.81-5.024v-6.352h-1.96v6.448c0 2.064-1.08 3.12-2.82 3.12-1.76 0-2.83-1.12-2.83-3.2v-6.368h-1.97v6.448c0 3.248 1.86 4.928 4.77 4.928Zm7.55-.176h1.96v-3.904h2.47l2.75 3.904h2.32l-3.02-4.24c1.56-.448 2.67-1.552 2.67-3.392v-.032c0-.976-.34-1.808-.93-2.416-.72-.704-1.82-1.12-3.23-1.12h-4.99v11.2Zm1.96-5.648v-3.76h2.87c1.45 0 2.32.656 2.32 1.856v.032c0 1.136-.9 1.872-2.31 1.872h-2.88Zm19.66 5.84c2.1 0 3.38-.768 4.54-1.984l-1.26-1.28c-.96.896-1.84 1.456-3.22 1.456-2.14 0-3.69-1.792-3.69-3.984v-.032c0-2.192 1.55-3.952 3.69-3.952 1.28 0 2.24.56 3.14 1.392l1.26-1.456c-1.07-1.024-2.32-1.744-4.38-1.744-3.39 0-5.78 2.608-5.78 5.792v.032c0 3.216 2.44 5.76 5.7 5.76Zm5.68-.192h2.02l1.15-2.704h5.3l1.13 2.704h2.08l-4.92-11.28H1292l-4.93 11.28Zm3.89-4.448 1.92-4.48 1.94 4.48h-3.86Zm11.06 4.448h1.99v-9.376h3.55v-1.824h-9.09v1.824h3.55v9.376Zm5.26 0h2.02l1.15-2.704h5.29l1.14 2.704h2.08l-4.93-11.28h-1.82l-4.93 11.28Zm3.89-4.448 1.92-4.48 1.93 4.48h-3.85Zm9.74 4.448h7.86v-1.792h-5.89v-9.408h-1.97v11.2Zm14.64.192c3.44 0 5.88-2.64 5.88-5.792v-.032c0-3.152-2.4-5.76-5.84-5.76s-5.88 2.64-5.88 5.792v.032c0 3.152 2.4 5.76 5.84 5.76Zm.04-1.808c-2.23 0-3.81-1.808-3.81-3.984v-.032c0-2.176 1.55-3.952 3.77-3.952 2.23 0 3.81 1.808 3.81 3.984v.032c0 2.176-1.55 3.952-3.77 3.952Zm13.56 1.808c1.98 0 3.57-.8 4.67-1.744v-4.704h-4.77v1.712h2.87v2.096c-.69.512-1.65.848-2.71.848-2.29 0-3.81-1.696-3.81-4v-.032c0-2.144 1.57-3.952 3.64-3.952 1.42 0 2.27.464 3.13 1.2l1.25-1.488c-1.15-.976-2.35-1.52-4.3-1.52-3.38 0-5.78 2.656-5.78 5.792v.032c0 3.264 2.3 5.76 5.81 5.76Zm11.86-.016c2.92 0 4.81-1.68 4.81-5.024v-6.352h-1.97v6.448c0 2.064-1.07 3.12-2.81 3.12-1.76 0-2.83-1.12-2.83-3.2v-6.368h-1.97v6.448c0 3.248 1.85 4.928 4.77 4.928Zm7.55-.176h8.38v-1.76h-6.42v-3.008h5.62v-1.76h-5.62v-2.912h6.34v-1.76h-8.3v11.2Z" fill="#fff"/><path d="M1124.69 307.826c.59.586 1.53.586 2.12 0l9.55-9.546a1.51 1.51 0 0 0 0-2.121 1.498 1.498 0 0 0-2.12 0l-8.49 8.485-8.49-8.485a1.498 1.498 0 0 0-2.12 0 1.51 1.51 0 0 0 0 2.121l9.55 9.546Zm-.44-91.56v90.5h3v-90.5h-3Zm13-13c-7.18 0-13 5.82-13 13h3c0-5.523 4.48-10 10-10v-3ZM1447.69 307.826c.59.586 1.53.586 2.12 0l9.55-9.546a1.51 1.51 0 0 0 0-2.121 1.498 1.498 0 0 0-2.12 0l-8.49 8.485-8.49-8.485a1.498 1.498 0 0 0-2.12 0 1.51 1.51 0 0 0 0 2.121l9.55 9.546Zm-.44-84.56v83.5h3v-83.5h-3Zm-17-17c9.39 0 17 7.611 17 17h3c0-11.046-8.95-20-20-20v3ZM1282.69 403.826c.59.586 1.53.586 2.12 0l9.55-9.546a1.51 1.51 0 0 0 0-2.121 1.498 1.498 0 0 0-2.12 0l-8.49 8.485-8.49-8.485a1.498 1.498 0 0 0-2.12 0 1.51 1.51 0 0 0 0 2.121l9.55 9.546Zm-51.94-67.56h33v-3h-33v3Zm51.5 18.5v48h3v-48h-3Zm-18.5-18.5c10.22 0 18.5 8.282 18.5 18.5h3c0-11.874-9.63-21.5-21.5-21.5v3Z" fill="#000"/><path d="M1282.69 403.826c.59.586 1.53.586 2.12 0l9.55-9.546a1.51 1.51 0 0 0 0-2.121 1.498 1.498 0 0 0-2.12 0l-8.49 8.485-8.49-8.485a1.498 1.498 0 0 0-2.12 0 1.51 1.51 0 0 0 0 2.121l9.55 9.546Zm68.06-70.56h-47v3h47v-3Zm-68.5 21.5v48h3v-48h-3Zm21.5-21.5c-11.87 0-21.5 9.626-21.5 21.5h3c0-10.218 8.28-18.5 18.5-18.5v-3ZM1268.19 166.826c.59.586 1.53.586 2.12 0l9.55-9.546a1.51 1.51 0 0 0 0-2.121 1.498 1.498 0 0 0-2.12 0l-8.49 8.485-8.49-8.485a1.498 1.498 0 0 0-2.12 0 1.51 1.51 0 0 0 0 2.121l9.55 9.546ZM875.25 38.266h177.32v-3H875.25v3Zm177.32 0h196.68v-3h-196.68v3Zm215.18 18.5v109h3v-109h-3Zm-18.5-18.5c10.22 0 18.5 8.282 18.5 18.5h3c0-11.874-9.63-21.5-21.5-21.5v3ZM141.811 166.826a1.5 1.5 0 0 1-2.122 0l-9.546-9.546a1.501 1.501 0 0 1 2.122-2.121l8.485 8.485 8.485-8.485a1.5 1.5 0 0 1 2.122 2.121l-9.546 9.546ZM556.25 38.266H375.509v-3H556.25v3Zm-180.741 0H160.75v-3h214.759v3Zm-233.259 18.5v109h-3v-109h3Zm18.5-18.5c-10.217 0-18.5 8.282-18.5 18.5h-3c0-11.874 9.626-21.5 21.5-21.5v3ZM708.189 169.826a1.5 1.5 0 0 0 2.122 0l9.546-9.546a1.501 1.501 0 0 0-2.122-2.121l-8.485 8.485-8.485-8.485a1.5 1.5 0 0 0-2.122 2.121l9.546 9.546Zm-.439-99.06v98h3v-98h-3ZM140.439 308.826a1.5 1.5 0 0 0 2.122 0l9.546-9.546a1.501 1.501 0 0 0-2.122-2.121l-8.485 8.485-8.485-8.485a1.5 1.5 0 0 0-2.122 2.121l9.546 9.546Zm-.439-68.56v67.5h3v-67.5h-3Z" fill="#000"/><rect x="36.5" y="429.266" width="210" height="56" rx="28" fill="#000"/><path d="M82.025 461.266h1.476v-3.42h4.236v-1.344h-4.236v-2.292h4.776v-1.344h-6.252v8.4Zm7.9 0h5.891v-1.344H91.4v-7.056h-1.476v8.4Zm6.733 0h1.512l.864-2.028h3.972l.852 2.028h1.56l-3.696-8.46h-1.368l-3.696 8.46Zm2.916-3.336 1.44-3.36 1.452 3.36h-2.892Zm8.885 3.396h1.296l3.492-8.46h-1.596l-2.52 6.456-2.532-6.456h-1.632l3.492 8.46Zm9.745.084c2.58 0 4.404-1.98 4.404-4.344v-.024c0-2.364-1.8-4.32-4.38-4.32s-4.404 1.98-4.404 4.344v.024c0 2.364 1.8 4.32 4.38 4.32Zm.024-1.356c-1.668 0-2.856-1.356-2.856-2.988v-.024c0-1.632 1.164-2.964 2.832-2.964s2.856 1.356 2.856 2.988v.024c0 1.632-1.164 2.964-2.832 2.964Zm9.631 1.344c2.196 0 3.612-1.26 3.612-3.768v-4.764h-1.476v4.836c0 1.548-.804 2.34-2.112 2.34-1.32 0-2.124-.84-2.124-2.4v-4.776h-1.476v4.836c0 2.436 1.392 3.696 3.576 3.696Zm5.662-.132h1.476v-2.928h1.848l2.064 2.928h1.74l-2.268-3.18c1.176-.336 2.004-1.164 2.004-2.544v-.024c0-.732-.252-1.356-.696-1.812-.54-.528-1.368-.84-2.424-.84h-3.744v8.4Zm1.476-4.236v-2.82h2.148c1.092 0 1.74.492 1.74 1.392v.024c0 .852-.672 1.404-1.728 1.404h-2.16Zm14.849 4.38c2.58 0 4.404-1.98 4.404-4.344v-.024c0-2.364-1.8-4.32-4.38-4.32s-4.404 1.98-4.404 4.344v.024c0 2.364 1.8 4.32 4.38 4.32Zm.024-1.356c-1.668 0-2.856-1.356-2.856-2.988v-.024c0-1.632 1.164-2.964 2.832-2.964s2.856 1.356 2.856 2.988v.024c0 1.632-1.164 2.964-2.832 2.964Zm6.188 1.212h1.476v-2.7h1.668c1.848 0 3.36-.984 3.36-2.868v-.024c0-1.692-1.236-2.808-3.192-2.808h-3.312v8.4Zm1.476-4.032v-3.024h1.716c1.104 0 1.812.516 1.812 1.5v.024c0 .876-.696 1.5-1.812 1.5h-1.716Zm8.627 4.032h1.488v-7.032h2.664v-1.368h-6.816v1.368h2.664v7.032Zm5.826 0h1.476v-8.4h-1.476v8.4Zm7.756.144c2.58 0 4.404-1.98 4.404-4.344v-.024c0-2.364-1.8-4.32-4.38-4.32s-4.404 1.98-4.404 4.344v.024c0 2.364 1.8 4.32 4.38 4.32Zm.024-1.356c-1.668 0-2.856-1.356-2.856-2.988v-.024c0-1.632 1.164-2.964 2.832-2.964s2.856 1.356 2.856 2.988v.024c0 1.632-1.164 2.964-2.832 2.964Zm6.187 1.212h1.452v-5.976l4.632 5.976h1.236v-8.4h-1.452v5.808l-4.5-5.808h-1.368v8.4Zm12.445.12c1.764 0 3-.936 3-2.508v-.024c0-1.392-.924-2.028-2.7-2.46-1.608-.384-1.992-.672-1.992-1.32v-.024c0-.552.504-.996 1.368-.996.768 0 1.524.3 2.28.864l.792-1.116c-.852-.684-1.824-1.056-3.048-1.056-1.668 0-2.868.996-2.868 2.436v.024c0 1.548 1.008 2.076 2.796 2.508 1.56.36 1.896.684 1.896 1.284v.024c0 .636-.576 1.056-1.488 1.056-1.044 0-1.848-.396-2.652-1.092l-.888 1.056a5.174 5.174 0 0 0 3.504 1.344Z" fill="#fff"/><path d="M140.439 431.326a1.5 1.5 0 0 0 2.122 0l9.546-9.546a1.501 1.501 0 0 0-2.122-2.121l-8.485 8.485-8.485-8.485a1.5 1.5 0 0 0-2.122 2.121l9.546 9.546Zm-.439-68.56v67.5h3v-67.5h-3Z" fill="#000"/><rect x="49.5" y="551.766" width="184" height="56" rx="28" fill="#000"/><path d="M94.993 583.766h1.476v-3.42h4.236v-1.344h-4.236v-2.292h4.776v-1.344h-6.252v8.4Zm7.899 0h5.892v-1.344h-4.416v-7.056h-1.476v8.4Zm6.734 0h1.512l.864-2.028h3.972l.852 2.028h1.56l-3.696-8.46h-1.368l-3.696 8.46Zm2.916-3.336 1.44-3.36 1.452 3.36h-2.892Zm8.885 3.396h1.296l3.492-8.46h-1.596l-2.52 6.456-2.532-6.456h-1.632l3.492 8.46Zm9.744.084c2.58 0 4.404-1.98 4.404-4.344v-.024c0-2.364-1.8-4.32-4.38-4.32s-4.404 1.98-4.404 4.344v.024c0 2.364 1.8 4.32 4.38 4.32Zm.024-1.356c-1.668 0-2.856-1.356-2.856-2.988v-.024c0-1.632 1.164-2.964 2.832-2.964s2.856 1.356 2.856 2.988v.024c0 1.632-1.164 2.964-2.832 2.964Zm9.631 1.344c2.196 0 3.612-1.26 3.612-3.768v-4.764h-1.476v4.836c0 1.548-.804 2.34-2.112 2.34-1.32 0-2.124-.84-2.124-2.4v-4.776h-1.476v4.836c0 2.436 1.392 3.696 3.576 3.696Zm5.662-.132h1.476v-2.928h1.848l2.064 2.928h1.74l-2.268-3.18c1.176-.336 2.004-1.164 2.004-2.544v-.024c0-.732-.252-1.356-.696-1.812-.54-.528-1.368-.84-2.424-.84h-3.744v8.4Zm1.476-4.236v-2.82h2.148c1.092 0 1.74.492 1.74 1.392v.024c0 .852-.672 1.404-1.728 1.404h-2.16Zm10.926 4.236h1.476v-8.4h-1.476v8.4Zm3.749 0h1.452v-5.976l4.632 5.976h1.236v-8.4h-1.452v5.808l-4.5-5.808h-1.368v8.4Zm9.504 0h1.476v-3.42h4.236v-1.344h-4.236v-2.292h4.776v-1.344h-6.252v8.4Zm11.837.144c2.58 0 4.404-1.98 4.404-4.344v-.024c0-2.364-1.8-4.32-4.38-4.32s-4.404 1.98-4.404 4.344v.024c0 2.364 1.8 4.32 4.38 4.32Zm.024-1.356c-1.668 0-2.856-1.356-2.856-2.988v-.024c0-1.632 1.164-2.964 2.832-2.964s2.856 1.356 2.856 2.988v.024c0 1.632-1.164 2.964-2.832 2.964Z" fill="#fff"/><path d="M140.439 553.826a1.5 1.5 0 0 0 2.122 0l9.546-9.546a1.501 1.501 0 0 0-2.122-2.121l-8.485 8.485-8.485-8.485a1.5 1.5 0 0 0-2.122 2.121l9.546 9.546Zm-.439-68.56v67.5h3v-67.5h-3Z" fill="#000"/><rect x="638.625" y="306.766" width="161" height="56" rx="28" fill="#000"/><path d="m691.452 339.018.948-1.056-.96-.816a4.268 4.268 0 0 0 .852-2.58v-.024c0-2.364-1.8-4.32-4.38-4.32s-4.404 1.98-4.404 4.344v.024c0 2.364 1.8 4.32 4.38 4.32.984 0 1.848-.288 2.556-.792l1.008.9Zm-3.54-1.464c-1.668 0-2.856-1.356-2.856-2.988v-.024c0-1.632 1.164-2.964 2.832-2.964s2.856 1.356 2.856 2.988v.024c0 .588-.144 1.128-.432 1.572l-1.452-1.32-.948 1.08 1.44 1.224a2.67 2.67 0 0 1-1.44.408Zm9.632 1.344c2.196 0 3.612-1.26 3.612-3.768v-4.764h-1.476v4.836c0 1.548-.804 2.34-2.112 2.34-1.32 0-2.124-.84-2.124-2.4v-4.776h-1.476v4.836c0 2.436 1.392 3.696 3.576 3.696Zm5.746-.132h1.476v-8.4h-1.476v8.4Zm3.448 0h6.876v-1.308h-4.956l4.956-6v-1.092h-6.72v1.308h4.8l-4.956 6v1.092Zm16.356.144c1.488 0 2.676-.6 3.504-1.308v-3.528h-3.576v1.284h2.148v1.572c-.516.384-1.236.636-2.028.636-1.716 0-2.856-1.272-2.856-3v-.024c0-1.608 1.176-2.964 2.724-2.964 1.068 0 1.704.348 2.352.9l.936-1.116c-.864-.732-1.764-1.14-3.228-1.14-2.532 0-4.332 1.992-4.332 4.344v.024c0 2.448 1.728 4.32 4.356 4.32Zm4.73-.144h1.512l.864-2.028h3.972l.852 2.028h1.56l-3.696-8.46h-1.368l-3.696 8.46Zm2.916-3.336 1.44-3.36 1.452 3.36h-2.892Zm7.308 3.336h1.452v-6l2.628 3.936h.048l2.652-3.96v6.024h1.476v-8.4h-1.572l-2.556 3.972-2.556-3.972h-1.572v8.4Zm10.442 0h6.288v-1.32h-4.812v-2.256h4.212v-1.32h-4.212v-2.184h4.752v-1.32h-6.228v8.4Z" fill="#fff"/><path d="M718.064 308.826a1.5 1.5 0 0 0 2.122 0l9.546-9.546a1.501 1.501 0 0 0-2.122-2.121l-8.485 8.485-8.485-8.485a1.5 1.5 0 0 0-2.122 2.121l9.546 9.546Zm-.439-68.56v67.5h3v-67.5h-3Z" fill="#000"/><rect x="599.75" y="429.266" width="219" height="56" rx="28" fill="#000"/><path d="m652.554 461.518.948-1.056-.96-.816a4.268 4.268 0 0 0 .852-2.58v-.024c0-2.364-1.8-4.32-4.38-4.32s-4.404 1.98-4.404 4.344v.024c0 2.364 1.8 4.32 4.38 4.32.984 0 1.848-.288 2.556-.792l1.008.9Zm-3.54-1.464c-1.668 0-2.856-1.356-2.856-2.988v-.024c0-1.632 1.164-2.964 2.832-2.964s2.856 1.356 2.856 2.988v.024c0 .588-.144 1.128-.432 1.572l-1.452-1.32-.948 1.08 1.44 1.224a2.67 2.67 0 0 1-1.44.408Zm9.631 1.344c2.196 0 3.612-1.26 3.612-3.768v-4.764h-1.476v4.836c0 1.548-.804 2.34-2.112 2.34-1.32 0-2.124-.84-2.124-2.4v-4.776h-1.476v4.836c0 2.436 1.392 3.696 3.576 3.696Zm5.746-.132h1.476v-8.4h-1.476v8.4Zm3.449 0h6.876v-1.308h-4.956l4.956-6v-1.092h-6.72v1.308h4.8l-4.956 6v1.092Zm12.371 0h1.452v-6l2.628 3.936h.048l2.652-3.96v6.024h1.476v-8.4h-1.572l-2.556 3.972-2.556-3.972h-1.572v8.4Zm9.722 0h1.512l.864-2.028h3.972l.852 2.028h1.56l-3.696-8.46h-1.368l-3.696 8.46Zm2.916-3.336 1.44-3.36 1.452 3.36h-2.892Zm8.294 3.336h1.488v-7.032h2.664v-1.368h-6.816v1.368h2.664v7.032Zm9.185.144c1.572 0 2.532-.576 3.408-1.488l-.948-.96c-.72.672-1.38 1.092-2.412 1.092-1.608 0-2.772-1.344-2.772-2.988v-.024c0-1.644 1.164-2.964 2.772-2.964.96 0 1.68.42 2.352 1.044l.948-1.092c-.804-.768-1.74-1.308-3.288-1.308-2.544 0-4.332 1.956-4.332 4.344v.024c0 2.412 1.824 4.32 4.272 4.32Zm4.983-.144h1.476v-3.54h4.008v3.54h1.476v-8.4h-1.476v3.492h-4.008v-3.492h-1.476v8.4Zm12.763 0h1.476v-2.928h1.848l2.064 2.928h1.74l-2.268-3.18c1.176-.336 2.004-1.164 2.004-2.544v-.024c0-.732-.252-1.356-.696-1.812-.54-.528-1.368-.84-2.424-.84h-3.744v8.4Zm1.476-4.236v-2.82h2.148c1.092 0 1.74.492 1.74 1.392v.024c0 .852-.672 1.404-1.728 1.404h-2.16Zm7.22 4.236h6.288v-1.32h-4.812v-2.256h4.212v-1.32h-4.212v-2.184h4.752v-1.32h-6.228v8.4Zm11.003.12c1.764 0 3-.936 3-2.508v-.024c0-1.392-.924-2.028-2.7-2.46-1.608-.384-1.992-.672-1.992-1.32v-.024c0-.552.504-.996 1.368-.996.768 0 1.524.3 2.28.864l.792-1.116c-.852-.684-1.824-1.056-3.048-1.056-1.668 0-2.868.996-2.868 2.436v.024c0 1.548 1.008 2.076 2.796 2.508 1.56.36 1.896.684 1.896 1.284v.024c0 .636-.576 1.056-1.488 1.056-1.044 0-1.848-.396-2.652-1.092l-.888 1.056a5.174 5.174 0 0 0 3.504 1.344Zm8.204.012c2.196 0 3.612-1.26 3.612-3.768v-4.764h-1.476v4.836c0 1.548-.804 2.34-2.112 2.34-1.32 0-2.124-.84-2.124-2.4v-4.776h-1.476v4.836c0 2.436 1.392 3.696 3.576 3.696Zm5.662-.132h5.892v-1.344h-4.416v-7.056h-1.476v8.4Zm8.322 0h1.488v-7.032h2.664v-1.368h-6.816v1.368h2.664v7.032Z" fill="#fff"/><path d="M718.064 431.326a1.5 1.5 0 0 0 2.122 0l9.546-9.546a1.501 1.501 0 0 0-2.122-2.121l-8.485 8.485-8.485-8.485a1.5 1.5 0 0 0-2.122 2.121l9.546 9.546Zm-.439-68.56v67.5h3v-67.5h-3Z" fill="#000"/><rect x="627.125" y="551.766" width="184" height="56" rx="28" fill="#000"/><path d="M672.618 583.766h1.476v-3.42h4.236v-1.344h-4.236v-2.292h4.776v-1.344h-6.252v8.4Zm7.899 0h5.892v-1.344h-4.416v-7.056h-1.476v8.4Zm6.734 0h1.512l.864-2.028h3.972l.852 2.028h1.56l-3.696-8.46h-1.368l-3.696 8.46Zm2.916-3.336 1.44-3.36 1.452 3.36h-2.892Zm8.885 3.396h1.296l3.492-8.46h-1.596l-2.52 6.456-2.532-6.456h-1.632l3.492 8.46Zm9.744.084c2.58 0 4.404-1.98 4.404-4.344v-.024c0-2.364-1.8-4.32-4.38-4.32s-4.404 1.98-4.404 4.344v.024c0 2.364 1.8 4.32 4.38 4.32Zm.024-1.356c-1.668 0-2.856-1.356-2.856-2.988v-.024c0-1.632 1.164-2.964 2.832-2.964s2.856 1.356 2.856 2.988v.024c0 1.632-1.164 2.964-2.832 2.964Zm9.631 1.344c2.196 0 3.612-1.26 3.612-3.768v-4.764h-1.476v4.836c0 1.548-.804 2.34-2.112 2.34-1.32 0-2.124-.84-2.124-2.4v-4.776h-1.476v4.836c0 2.436 1.392 3.696 3.576 3.696Zm5.662-.132h1.476v-2.928h1.848l2.064 2.928h1.74l-2.268-3.18c1.176-.336 2.004-1.164 2.004-2.544v-.024c0-.732-.252-1.356-.696-1.812-.54-.528-1.368-.84-2.424-.84h-3.744v8.4Zm1.476-4.236v-2.82h2.148c1.092 0 1.74.492 1.74 1.392v.024c0 .852-.672 1.404-1.728 1.404h-2.16Zm10.926 4.236h1.476v-8.4h-1.476v8.4Zm3.749 0h1.452v-5.976l4.632 5.976h1.236v-8.4h-1.452v5.808l-4.5-5.808h-1.368v8.4Zm9.504 0h1.476v-3.42h4.236v-1.344h-4.236v-2.292h4.776v-1.344h-6.252v8.4Zm11.837.144c2.58 0 4.404-1.98 4.404-4.344v-.024c0-2.364-1.8-4.32-4.38-4.32s-4.404 1.98-4.404 4.344v.024c0 2.364 1.8 4.32 4.38 4.32Zm.024-1.356c-1.668 0-2.856-1.356-2.856-2.988v-.024c0-1.632 1.164-2.964 2.832-2.964s2.856 1.356 2.856 2.988v.024c0 1.632-1.164 2.964-2.832 2.964Z" fill="#fff"/><path d="M718.064 553.826a1.5 1.5 0 0 0 2.122 0l9.546-9.546a1.501 1.501 0 0 0-2.122-2.121l-8.485 8.485-8.485-8.485a1.5 1.5 0 0 0-2.122 2.121l9.546 9.546Zm-.439-68.56v67.5h3v-67.5h-3Z" fill="#000"/><rect x=".25" y="168.766" width="281" height="72" rx="36" fill="#000"/><path d="M53.84 209.766h1.969v-4.56h5.648v-1.792h-5.648v-3.056h6.368v-1.792H53.84v11.2Zm10.533 0h7.856v-1.792H66.34v-9.408h-1.968v11.2Zm8.978 0h2.016l1.152-2.704h5.296l1.136 2.704h2.08l-4.928-11.28h-1.824l-4.928 11.28Zm3.888-4.448 1.92-4.48 1.936 4.48h-3.856Zm11.847 4.528h1.728l4.656-11.28h-2.128l-3.36 8.608-3.376-8.608H84.43l4.656 11.28Zm12.992.112c3.44 0 5.872-2.64 5.872-5.792v-.032c0-3.152-2.4-5.76-5.84-5.76s-5.872 2.64-5.872 5.792v.032c0 3.152 2.4 5.76 5.84 5.76Zm.032-1.808c-2.224 0-3.808-1.808-3.808-3.984v-.032c0-2.176 1.552-3.952 3.776-3.952 2.224 0 3.808 1.808 3.808 3.984v.032c0 2.176-1.552 3.952-3.776 3.952Zm12.842 1.792c2.928 0 4.816-1.68 4.816-5.024v-6.352H117.8v6.448c0 2.064-1.072 3.12-2.816 3.12-1.76 0-2.832-1.12-2.832-3.2v-6.368h-1.968v6.448c0 3.248 1.856 4.928 4.768 4.928Zm7.549-.176h1.968v-3.904h2.464l2.752 3.904h2.32l-3.024-4.24c1.568-.448 2.672-1.552 2.672-3.392v-.032c0-.976-.336-1.808-.928-2.416-.72-.704-1.824-1.12-3.232-1.12h-4.992v11.2Zm1.968-5.648v-3.76h2.864c1.456 0 2.32.656 2.32 1.856v.032c0 1.136-.896 1.872-2.304 1.872h-2.88Zm18.376 5.808c2.352 0 4-1.248 4-3.344v-.032c0-1.856-1.232-2.704-3.6-3.28-2.144-.512-2.656-.896-2.656-1.76v-.032c0-.736.672-1.328 1.824-1.328 1.024 0 2.032.4 3.04 1.152l1.056-1.488c-1.136-.912-2.432-1.408-4.064-1.408-2.224 0-3.824 1.328-3.824 3.248v.032c0 2.064 1.344 2.768 3.728 3.344 2.08.48 2.528.912 2.528 1.712v.032c0 .848-.768 1.408-1.984 1.408-1.392 0-2.464-.528-3.536-1.456l-1.184 1.408a6.9 6.9 0 0 0 4.672 1.792Zm6.346-.16h1.968v-3.6h2.224c2.464 0 4.48-1.312 4.48-3.824v-.032c0-2.256-1.648-3.744-4.256-3.744h-4.416v11.2Zm1.968-5.376v-4.032h2.288c1.472 0 2.416.688 2.416 2v.032c0 1.168-.928 2-2.416 2h-2.288Zm8.752 5.376h8.384v-1.76h-6.416v-3.008h5.616v-1.76h-5.616v-2.912h6.336v-1.76h-8.304v11.2Zm15.95.192c2.096 0 3.376-.768 4.544-1.984l-1.264-1.28c-.96.896-1.84 1.456-3.216 1.456-2.144 0-3.696-1.792-3.696-3.984v-.032c0-2.192 1.552-3.952 3.696-3.952 1.28 0 2.24.56 3.136 1.392l1.264-1.456c-1.072-1.024-2.32-1.744-4.384-1.744-3.392 0-5.776 2.608-5.776 5.792v.032c0 3.216 2.432 5.76 5.696 5.76Zm9.397-.192h1.984v-9.376h3.552v-1.824h-9.088v1.824h3.552v9.376Zm7.655 0h1.968v-3.904h2.464l2.752 3.904h2.32l-3.024-4.24c1.568-.448 2.672-1.552 2.672-3.392v-.032c0-.976-.336-1.808-.928-2.416-.72-.704-1.824-1.12-3.232-1.12h-4.992v11.2Zm1.968-5.648v-3.76h2.864c1.456 0 2.32.656 2.32 1.856v.032c0 1.136-.896 1.872-2.304 1.872h-2.88Zm14.218 5.824c2.928 0 4.816-1.68 4.816-5.024v-6.352h-1.968v6.448c0 2.064-1.072 3.12-2.816 3.12-1.76 0-2.832-1.12-2.832-3.2v-6.368h-1.968v6.448c0 3.248 1.856 4.928 4.768 4.928Zm7.55-.176h1.936v-8l3.504 5.248h.064l3.536-5.28v8.032h1.968v-11.2h-2.096l-3.408 5.296-3.408-5.296h-2.096v11.2Z" fill="#fff"/></svg>