<svg width="928" height="464" fill="none" xmlns="http://www.w3.org/2000/svg"><path fill="#1B1B1B" d="M0 0h928v464H0z"/><path d="M123.02 205.532h14.58l14.94-33.3h68.58l14.76 33.3h15.3l-57.42-126.9h-13.32l-57.42 126.9Zm35.1-46.08 28.8-64.26 28.62 64.26h-57.42Zm143.287 48.06c16.38 0 27-7.56 33.48-15.84v13.86h13.68v-56.88c0-11.88-3.24-20.88-9.72-27.36-6.66-6.66-16.92-10.26-30.06-10.26-13.68 0-23.58 3.24-33.84 7.92l4.14 11.34c8.64-3.96 17.28-6.66 28.26-6.66 17.46 0 27.54 8.64 27.54 25.2v2.88c-8.28-2.34-16.56-3.96-28.44-3.96-23.58 0-39.78 10.44-39.78 30.42v.36c0 19.08 17.28 28.98 34.74 28.98Zm2.7-11.16c-12.6 0-23.4-6.84-23.4-18.54v-.36c0-11.16 9.9-18.72 27.18-18.72 11.34 0 20.34 1.98 27.18 3.96v8.64c0 14.76-13.86 25.02-30.96 25.02ZM117.56 303.532h3.24l3.32-7.4h15.24l3.28 7.4h3.4l-12.76-28.2h-2.96l-12.76 28.2Zm7.8-10.24 6.4-14.28 6.36 14.28h-12.76Zm26.202 10.24h12.44c6.12 0 10.16-2.84 10.16-7.64v-.08c0-3.84-2.68-5.76-6-6.76 2.2-.96 4.44-2.84 4.44-6.48v-.08c0-1.8-.64-3.28-1.8-4.48-1.6-1.56-4.12-2.48-7.32-2.48h-11.92v28Zm3.12-15.52v-9.64h8.52c4 0 6.2 1.8 6.2 4.56v.08c0 3.28-2.64 5-6.44 5h-8.28Zm0 12.68v-9.88h8.84c4.88 0 7.44 1.76 7.44 4.8v.08c0 3.12-2.64 5-6.88 5h-9.4Zm38.547 3.32c5.08 0 8.28-1.96 11.2-4.92l-2.08-2.04c-2.68 2.56-5.2 4.04-9.04 4.04-6.16 0-10.84-5.08-10.84-11.56v-.08c0-6.44 4.64-11.48 10.84-11.48 3.8 0 6.44 1.6 8.8 3.84l2.16-2.32c-2.8-2.64-5.84-4.44-10.92-4.44-8.24 0-14.16 6.56-14.16 14.48v.08c0 8.04 5.96 14.4 14.04 14.4Zm16.731-.48h9.72c8.8 0 14.88-6.12 14.88-14v-.08c0-7.88-6.08-13.92-14.88-13.92h-9.72v28Zm3.16-2.92v-22.16h6.56c7.08 0 11.6 4.88 11.6 11.08v.08c0 6.2-4.52 11-11.6 11h-6.56Zm28.129 2.92h20.44v-2.88h-17.28v-9.8h15.28v-2.88h-15.28v-9.56h17.08v-2.88h-20.24v28Zm26.797 0h3.16v-12.2h15.16v-2.88h-15.16v-10h16.96v-2.92h-20.12v28Zm38.664.48c4.72 0 8.64-1.96 11.24-4.28v-11.16h-11.56v2.84h8.52v6.96c-1.92 1.56-4.88 2.8-8.08 2.8-6.8 0-11.08-4.96-11.08-11.64v-.08c0-6.24 4.44-11.48 10.64-11.48 3.96 0 6.36 1.32 8.52 3.2l2.04-2.4c-2.8-2.36-5.72-3.72-10.44-3.72-8.4 0-14.04 6.8-14.04 14.48v.08c0 8 5.44 14.4 14.24 14.4Zm18.367-.48h3.16v-12.6h16.16v12.6h3.16v-28h-3.16v12.44h-16.16v-12.44h-3.16v28Zm30.671 0h3.16v-28h-3.16v28Zm17.28.4c2.48 0 4.6-.8 6.16-2.32 1.6-1.6 2.56-4.08 2.56-7.36v-18.72h-3.2v18.76c0 4.44-2.32 6.72-5.48 6.72-2.92 0-4.68-1.4-6.4-4l-2.28 1.96c1.76 2.88 4.44 4.96 8.64 4.96Zm16.19-.4h3.16v-7.52l5.96-6.04 10.76 13.56h3.96l-12.52-15.76 12-12.24h-4.08l-16.08 16.72v-16.72h-3.16v28Zm28.75 0h18.92v-2.92h-15.76v-25.08h-3.16v28Zm24.765 0h3.08v-22.64l10.2 14.96h.16l10.2-15v22.68h3.16v-28h-3.2l-10.2 15.28-10.2-15.28h-3.2v28Zm34.727 0h3.08v-22.96l18.08 22.96h2.52v-28h-3.08v22.44l-17.64-22.44h-2.96v28Zm44.602.48c8.52 0 14.32-6.76 14.32-14.48v-.08c0-7.72-5.72-14.4-14.24-14.4s-14.32 6.76-14.32 14.48v.08c0 7.72 5.72 14.4 14.24 14.4Zm.08-2.92c-6.4 0-11.04-5.2-11.04-11.56v-.08c0-6.36 4.56-11.48 10.96-11.48 6.4 0 11.04 5.2 11.04 11.56v.08c0 6.36-4.56 11.48-10.96 11.48Zm20.904 2.44h3.16v-9.88h6.8c5.96 0 11-3.12 11-9.16v-.08c0-5.52-4.16-8.88-10.48-8.88h-10.48v28Zm3.16-12.76v-12.32h7.08c4.52 0 7.52 2.08 7.52 6.08v.08c0 3.68-3.04 6.16-7.68 6.16h-6.92Zm49.079 13.6 2.16-2.36-3.72-3.08c2.16-2.56 3.36-5.88 3.36-9.4v-.08c0-7.72-5.72-14.4-14.24-14.4s-14.32 6.76-14.32 14.48v.08c0 7.72 5.72 14.4 14.24 14.4 3.48 0 6.48-1.12 8.84-3l3.68 3.36Zm-12.44-3.28c-6.4 0-11.04-5.2-11.04-11.56v-.08c0-6.36 4.56-11.48 10.96-11.48 6.4 0 11.04 5.2 11.04 11.56v.08c0 2.76-.92 5.28-2.44 7.24l-5.16-4.68-2.12 2.36 5.2 4.44c-1.72 1.32-3.96 2.12-6.44 2.12Zm20.904 2.44h3.16v-10.88h8l8.12 10.88h3.88l-8.6-11.44c4.4-.8 7.6-3.52 7.6-8.16v-.08c0-2.2-.8-4.16-2.16-5.52-1.76-1.76-4.52-2.8-7.96-2.8h-12.04v28Zm3.16-13.72v-11.36h8.64c4.52 0 7.16 2.08 7.16 5.52v.08c0 3.6-3 5.76-7.2 5.76h-8.6Zm35.346 14.12c5.56 0 9.56-3.12 9.56-7.92v-.08c0-4.28-2.88-6.56-9.12-7.92-6.16-1.32-7.6-2.8-7.6-5.44v-.08c0-2.52 2.32-4.52 5.96-4.52 2.88 0 5.48.92 8.08 3.04l1.84-2.44c-2.84-2.28-5.76-3.44-9.84-3.44-5.32 0-9.2 3.24-9.2 7.64v.08c0 4.6 2.96 6.68 9.4 8.08 5.88 1.24 7.28 2.72 7.28 5.32v.08c0 2.76-2.48 4.76-6.24 4.76-3.88 0-6.68-1.32-9.6-3.96l-1.96 2.32c3.36 3 7 4.48 11.44 4.48Zm22.8-.4h3.2v-25.08h9.4v-2.92h-22v2.92h9.4v25.08Zm29.738.44c7 0 11.68-4.24 11.68-12.4v-16.04h-3.16v16.28c0 6.12-3.28 9.24-8.44 9.24-5.36 0-8.56-3.4-8.56-9.44v-16.08h-3.16v16.28c0 7.92 4.72 12.16 11.64 12.16Zm28.791-.24h2.8l12.04-28.2h-3.4l-10 24.12-9.96-24.12h-3.52l12.04 28.2Zm27.81 0h2.64l7.72-22.72 7.68 22.72h2.68l10-28.2h-3.32l-8 23.32-7.68-23.4h-2.6l-7.68 23.4-8-23.32h-3.44l10 28.2Zm33.751-.2h3.64l8.96-12.04 8.96 12.04h3.76l-10.76-14.32 10.36-13.68h-3.68l-8.52 11.44-8.6-11.44h-3.72l10.36 13.72-10.76 14.28Zm38.927 0h3.2v-11.12l11.64-16.88h-3.68l-9.52 14-9.44-14h-3.84l11.64 16.92v11.08Zm18.202 0h22.44v-2.84h-18.16l18.16-23.04v-2.12h-21.84v2.84h17.52l-18.12 23.04v2.12ZM125.6 359.972c3.64 0 6-1.68 7.44-3.52v3.08h3.04v-12.64c0-2.64-.72-4.64-2.16-6.08-1.48-1.48-3.76-2.28-6.68-2.28-3.04 0-5.24.72-7.52 1.76l.92 2.52c1.92-.88 3.84-1.48 6.28-1.48 3.88 0 6.12 1.92 6.12 5.6v.64c-1.84-.52-3.68-.88-6.32-.88-5.24 0-8.84 2.32-8.84 6.76v.08c0 4.24 3.84 6.44 7.72 6.44Zm.6-2.48c-2.8 0-5.2-1.52-5.2-4.12v-.08c0-2.48 2.2-4.16 6.04-4.16 2.52 0 4.52.44 6.04.88v1.92c0 3.28-3.08 5.56-6.88 5.56Zm27.404 2.48c5 0 9.88-4 9.88-10.76v-.08c0-6.8-4.92-10.72-9.88-10.72-3.8 0-6.24 2.12-7.92 4.6v-12.68h-3.08v29.2h3.08v-3.96c1.6 2.32 4.08 4.4 7.92 4.4Zm-.56-2.76c-3.84 0-7.48-3.2-7.48-8v-.08c0-4.72 3.64-7.96 7.48-7.96 3.92 0 7.28 3.12 7.28 8v.08c0 5-3.28 7.96-7.28 7.96Zm25.443 2.8c3.88 0 6.36-1.68 8.44-4l-1.96-1.84c-1.64 1.76-3.68 3.08-6.32 3.08-4.32 0-7.6-3.56-7.6-8.04v-.08c0-4.44 3.2-8 7.4-8 2.8 0 4.64 1.4 6.28 3.12l2.04-2.16c-1.92-2.04-4.36-3.68-8.28-3.68-6.04 0-10.6 4.96-10.6 10.8v.08c0 5.8 4.56 10.72 10.6 10.72Zm21.821-.04c3.8 0 6.24-2.12 7.92-4.6v4.16h3.08v-29.2h-3.08v12.48c-1.6-2.32-4.08-4.4-7.92-4.4-4.96 0-9.88 4-9.88 10.76v.08c0 6.8 4.92 10.72 9.88 10.72Zm.56-2.76c-3.92 0-7.28-3.12-7.28-8v-.08c0-5 3.28-7.96 7.28-7.96 3.84 0 7.48 3.2 7.48 7.96v.08c0 4.76-3.64 8-7.48 8Zm19.162-6.76h16.4c.04-.48.04-.8.04-1.08 0-6.08-3.52-10.96-9.64-10.96-5.72 0-9.92 4.8-9.92 10.8 0 6.44 4.64 10.8 10.32 10.8 3.92 0 6.44-1.56 8.52-3.88l-1.92-1.72c-1.68 1.76-3.68 2.92-6.52 2.92-3.64 0-6.84-2.52-7.28-6.88Zm0-2.48c.44-4 3.16-6.96 6.72-6.96 4.08 0 6.24 3.2 6.6 6.96h-13.32Zm22.992 11.56h3.08v-17.96h6.52v-2.64h-6.56v-1.68c0-2.96 1.2-4.4 3.6-4.4 1.04 0 1.88.2 3 .52v-2.68c-1-.36-1.96-.52-3.4-.52-1.88 0-3.4.56-4.44 1.6-1.16 1.16-1.8 2.96-1.8 5.32v1.8h-2.84v2.68h2.84v17.96Zm22.297 6.48c3.28 0 6.04-.92 7.88-2.76 1.68-1.68 2.64-4.12 2.64-7.32v-17.08h-3.08v3.72c-1.68-2.24-4.2-4.16-8.08-4.16-4.92 0-9.72 3.72-9.72 9.76v.08c0 5.96 4.76 9.68 9.72 9.68 3.8 0 6.32-1.96 8.12-4.36v2.44c0 4.84-2.96 7.36-7.52 7.36-2.96 0-5.6-.92-7.96-2.64l-1.4 2.4c2.76 1.92 5.96 2.88 9.4 2.88Zm-.04-10.8c-3.84 0-7.16-2.88-7.16-7.04v-.08c0-4.24 3.24-6.96 7.16-6.96s7.6 2.76 7.6 7v.08c0 4.16-3.68 7-7.6 7Zm17.442 4.32h3.08v-11.84c0-3.88 2.64-6.48 6.2-6.48 3.64 0 5.72 2.4 5.72 6.24v12.08h3.08v-12.84c0-4.92-2.92-8.28-7.92-8.28-3.56 0-5.72 1.8-7.08 4.04v-12.12h-3.08v29.2Zm24.729-25.2h3.52v-3.4h-3.52v3.4Zm.2 25.2h3.08v-20.68h-3.08v20.68Zm10.308-25.2h3.52v-3.4h-3.52v3.4Zm-1.76 31.72c3.12 0 5.04-1.68 5.04-5.32v-21.88h-3.08v21.84c0 1.92-.96 2.76-2.36 2.76-.44 0-1.04-.04-1.521-.12v2.52c.681.16 1.201.2 1.921.2Zm12.187-6.52h3.08v-5.4l4.2-4.24 7.4 9.64h3.68l-8.96-11.8 8.68-8.88h-3.84l-11.16 11.64v-20.16h-3.08v29.2Zm23.054 0h3.08v-29.2h-3.08v29.2Zm10.228 0h3.08v-11.8c0-3.8 2.48-6.52 5.76-6.52s5.32 2.28 5.32 6.16v12.16h3.04v-11.92c0-4.08 2.6-6.4 5.72-6.4 3.36 0 5.36 2.24 5.36 6.24v12.08h3.08v-12.8c0-5.12-2.92-8.32-7.68-8.32-3.6 0-5.8 1.84-7.28 4.12-1.12-2.32-3.28-4.12-6.64-4.12-3.48 0-5.32 1.88-6.68 3.92v-3.48h-3.08v20.68Zm38.046 0h3.08v-11.84c0-3.88 2.64-6.48 6.2-6.48 3.64 0 5.72 2.4 5.72 6.24v12.08h3.08v-12.84c0-4.92-2.92-8.28-7.92-8.28-3.56 0-5.72 1.8-7.08 4.04v-3.6h-3.08v20.68Zm34.089.48c6.24 0 10.84-4.96 10.84-10.8v-.08c0-5.84-4.56-10.72-10.76-10.72-6.24 0-10.8 4.96-10.8 10.8v.08c0 5.84 4.52 10.72 10.72 10.72Zm.08-2.76c-4.36 0-7.64-3.6-7.64-8.04v-.08c0-4.36 3.08-8 7.56-8 4.36 0 7.68 3.64 7.68 8.08v.08c0 4.36-3.12 7.96-7.6 7.96Zm16.339 8.68h3.08v-10.36c1.6 2.32 4.08 4.4 7.92 4.4 5 0 9.88-4 9.88-10.76v-.08c0-6.8-4.92-10.72-9.88-10.72-3.8 0-6.24 2.12-7.92 4.6v-4.16h-3.08v27.08Zm10.44-8.72c-3.84 0-7.48-3.2-7.48-8v-.08c0-4.72 3.64-7.96 7.48-7.96 3.92 0 7.28 3.12 7.28 8v.08c0 5-3.28 7.96-7.28 7.96Zm32.723 8.72h3.08v-27.08h-3.08v3.96c-1.6-2.32-4.08-4.4-7.92-4.4-4.96 0-9.88 4-9.88 10.76v.08c0 6.8 4.92 10.72 9.88 10.72 3.8 0 6.24-2.12 7.92-4.6v10.56Zm-7.36-8.72c-3.92 0-7.28-3.12-7.28-8v-.08c0-5 3.28-7.96 7.28-7.96 3.84 0 7.48 3.2 7.48 7.96v.08c0 4.76-3.64 8-7.48 8Zm17.322 2.32h3.08v-8.24c0-6.24 3.68-9.48 8.2-9.48h.24v-3.32c-3.92-.16-6.92 2.32-8.44 5.76v-5.4h-3.08v20.68Zm23.051.4c4.12 0 7.36-2.28 7.36-6.2v-.08c0-3.72-3.44-4.96-6.64-5.92-2.76-.84-5.32-1.6-5.32-3.56v-.08c0-1.72 1.56-3 4-3 2 0 4.2.76 6.12 2l1.4-2.32c-2.12-1.4-4.92-2.28-7.44-2.28-4.08 0-7.04 2.36-7.04 5.92v.08c0 3.8 3.6 4.92 6.84 5.84 2.72.76 5.16 1.56 5.16 3.64v.08c0 2-1.8 3.28-4.28 3.28-2.44 0-4.92-.96-7.16-2.64l-1.56 2.2c2.32 1.88 5.6 3.04 8.56 3.04Zm19.611-.04c1.48 0 2.64-.32 3.72-.88v-2.64c-1.08.52-1.96.72-3 .72-2.08 0-3.48-.92-3.48-3.44v-12.08h6.56v-2.72h-6.56v-6.24h-3.08v6.24h-2.88v2.72h2.88v12.48c0 4.2 2.52 5.84 5.84 5.84Zm16.852.08c3.56 0 5.68-1.8 7.08-4.04v3.6h3.04v-20.68h-3.04v11.84c0 3.88-2.68 6.48-6.2 6.48-3.64 0-5.72-2.4-5.72-6.24v-12.08h-3.08v12.84c0 4.92 2.92 8.28 7.92 8.28Zm23.969-.28h2.72l9-20.84h-3.32l-7 17.16-6.96-17.16h-3.4l8.96 20.84Zm21.45 0h2.72l5.6-16.32 5.56 16.32h2.68l7.28-20.84h-3.2l-5.44 16.6-5.6-16.68h-2.56l-5.56 16.68-5.44-16.6h-3.28l7.24 20.84Zm26.703-.16h3.44l6.44-8.44 6.4 8.44h3.56l-8.16-10.6 7.84-10.08h-3.44l-6.12 8-6.12-8h-3.52l7.8 10.16-8.12 10.52Zm27.658 6.52c3.12 0 5.12-1.56 6.88-5.84l8.68-21.36h-3.28l-6.64 17.24-7.52-17.24h-3.4l9.4 20.6c-1.24 2.92-2.4 3.88-4.24 3.88-1.32 0-2.24-.24-3.24-.76l-1.04 2.44c1.4.68 2.68 1.04 4.4 1.04Zm19.038-6.52h17.92v-2.6h-13.76l13.76-16.12v-1.96h-17.44v2.6h13.24l-13.72 16.12v1.96ZM123.16 415.532h3.12v-28.2h-2.32l-6.84 2.36.76 2.56 5.28-1.64v24.92Zm9.096 0h19.56v-2.88h-14.84l7.48-6.64c4.92-4.28 7.08-6.8 7.08-10.88v-.08c0-4.56-3.64-7.92-8.68-7.92-4.92 0-7.56 2.2-10.08 5.96l2.32 1.68c2.24-3.12 4.32-4.8 7.52-4.8 3.04 0 5.64 2.08 5.64 5.36 0 2.8-1.56 4.96-5.84 8.8l-10.16 8.96v2.44Zm34.465.48c5.2 0 9.36-3.44 9.36-8.44v-.08c0-5.12-4.36-7.48-9.24-7.88l8.8-9.76v-2.32h-17.88v2.84h13.68l-8.84 9.96.64 1.88h1.8c4.6 0 7.84 1.92 7.84 5.4v.08c0 3.28-2.72 5.44-6.12 5.44-3.44 0-6.04-1.52-8.2-4.16l-2.28 2.04c2.28 2.96 5.76 5 10.44 5Zm29.372-.48h3.04v-6.64h4.36v-2.64h-4.36v-18.92h-2.76l-15.84 19.28.8 2.28h14.76v6.64Zm-11.76-9.28 11.76-14.44v14.44h-11.76Zm33.435 9.76c5.84 0 10-3.72 10-9.2v-.08c0-5.32-4.24-8.56-9.68-8.56-2.32 0-3.88.52-5.52 1.24l.6-8.96h13.36v-2.92h-16.12l-.8 13.64 2.12 1.4c1.64-.88 3.52-1.6 5.88-1.6 4.08 0 6.96 2.4 6.96 5.88v.08c0 3.56-2.76 6.2-6.76 6.2-2.84 0-5.52-1.48-7.96-3.84l-2.08 2.28c2.52 2.52 6 4.44 10 4.44Zm25.693 0c5.68 0 10.04-3.92 10.04-9.32v-.08c0-5.24-4.48-8.6-9.68-8.6-4.08 0-6.44 2.04-7.96 4.28-.04-7.24 3.12-12.36 8.2-12.36 2.56 0 4.52 1 6.6 2.76l1.84-2.44c-2.44-2-4.92-3.2-8.28-3.2-7.32 0-11.64 6.68-11.64 15.2v.08c0 5.72 1.28 8.6 3.52 10.84 1.76 1.76 4.28 2.84 7.36 2.84Zm.04-2.8c-4.12 0-7.08-2.72-7.08-6.28v-.08c0-3.12 2.8-6.12 7-6.12 4.04 0 6.84 2.56 6.84 6v.08c0 3.56-2.64 6.4-6.76 6.4Zm17.12 2.32h3.52l12.72-25.64v-2.36h-19v2.88h15.4l-12.64 25.12Zm30.557.4c5.96 0 10.52-3.2 10.52-7.96v-.08c0-3.32-2.44-5.6-5.76-6.84 2.6-1.2 4.8-3.2 4.8-6.44v-.08c0-4.32-4.44-7.4-9.56-7.4s-9.56 3.08-9.56 7.4v.08c0 3.24 2.2 5.24 4.8 6.44-3.36 1.2-5.76 3.56-5.76 6.88v.08c0 4.68 4.56 7.92 10.52 7.92Zm0-16c-3.56 0-6.4-2.08-6.4-5.12v-.08c0-2.8 2.76-4.84 6.4-4.84 3.64 0 6.4 2.08 6.4 4.84v.08c0 3.04-2.84 5.12-6.4 5.12Zm0 13.24c-4.6 0-7.32-2.4-7.32-5.24v-.08c0-3.12 3.24-5.32 7.32-5.32s7.32 2.2 7.32 5.32v.08c0 2.84-2.72 5.24-7.32 5.24Zm24.2 2.84c6.92 0 11.64-6.28 11.64-15.16v-.08c0-5.6-1.36-8.72-3.48-10.84-1.8-1.8-4.16-2.88-7.36-2.88-5.96 0-10.08 4.2-10.08 9.52v.08c0 5.04 4 8.68 9.76 8.68 3.88 0 6.4-2.04 7.92-4.48.12 7.16-3.28 12.28-8.32 12.28-2.48 0-4.6-1-6.88-3l-1.84 2.44c2.36 1.96 5 3.44 8.64 3.44Zm.84-13.4c-4.08 0-6.88-2.56-6.88-6.12v-.08c0-3.48 2.52-6.56 6.72-6.56 4.2 0 7.12 2.8 7.12 6.36v.08c0 3.2-2.68 6.32-6.96 6.32Zm27.539 13.4c7.2 0 11.84-6.64 11.84-14.48v-.08c0-7.84-4.56-14.4-11.76-14.4s-11.88 6.64-11.88 14.48v.08c0 7.84 4.56 14.4 11.8 14.4Zm.08-2.88c-5.24 0-8.6-5.48-8.6-11.6v-.08c0-6.16 3.28-11.52 8.52-11.52 5.2 0 8.56 5.48 8.56 11.6v.08c0 6.12-3.24 11.52-8.48 11.52Zm15.772 7.28c3.04-.68 4.44-2.24 4.44-5.48v-3.6h-3.68v4.2h1.44c.16 1.72-.68 2.76-2.68 3.48l.48 1.4Zm10.565-4.88h3.68v-4.2h-3.68v4.2Zm15.524-7.92h2.04l.4-4.32c4.56-.64 8.32-3.12 8.32-8.12v-.08c0-4.56-3.56-7.92-8.96-7.92-4.28 0-7.12 1.88-9.4 4.64l2.04 1.96c2.04-2.36 4.32-3.76 7.28-3.76 3.6 0 5.84 2.32 5.84 5.2v.08c0 3.36-2.76 5.52-7.96 5.64l-.2.2.6 6.48Zm-.84 7.92h3.68v-4.2h-3.68v4.2Zm18.085-7.92h1.72l.96-17.8v-2.28h-3.6v2.28l.92 17.8Zm-.96 7.92h3.68v-4.2h-3.68v4.2Zm14.819-15.88h2.08l-.4-5 4.12 2.92 1.08-1.88-4.64-2.12 4.64-2.16-1.08-1.84-4.12 2.88.4-5h-2.08l.4 5-4.12-2.88-1.08 1.84 4.64 2.16-4.64 2.12 1.08 1.88 4.12-2.92-.4 5Zm33.788 16.44 2.4-1.84-4.88-5c1.52-2 2.8-4.4 4.04-7.04l-2.6-1.2c-1 2.32-2.12 4.44-3.36 6.24l-6.4-6.52c4.08-1.44 6.6-3.72 6.6-7.28v-.08c0-3.48-2.88-6.32-6.8-6.32-4.44 0-7.4 2.96-7.4 6.64v.08c0 2.2.88 3.92 2.8 6.16-4.28 1.68-6.76 4.36-6.76 8.08v.08c0 4.68 3.76 7.84 8.8 7.84 3.64 0 6.6-1.6 9.16-4.36l4.4 4.52Zm-12.56-17.16c-2.12-2.28-2.8-3.52-2.8-5.16v-.08c0-2.28 1.72-4.04 4.24-4.04 2.28 0 3.96 1.64 3.96 3.88v.08c0 2.4-1.84 4.12-5.4 5.32Zm-.76 14.32c-3.44 0-5.84-2.28-5.84-5.28v-.08c0-2.36 1.64-4.64 5.36-6l7.48 7.72c-2.04 2.24-4.36 3.64-7 3.64Z" fill="#fff"/></svg>