<svg width="929" height="465" fill="none" xmlns="http://www.w3.org/2000/svg"><path fill="#fff" d="M.5.532h928v464H.5z"/><path d="M206.19 75.032h-60.12l-24.12 102.24v23.76h34.92l4.14-22.5h26.64l3.78 22.5h38.88v-23.76l-24.12-102.24Zm-39.42 72 6.3-34.56h3.6l5.76 34.56h-15.66Zm114.455-47.88c-25.74 0-38.34 9.72-43.74 16.92v21.06h35.46v-5.4c.9-1.8 3.42-3.42 7.38-3.42s6.66 1.62 7.56 3.42v16.2c-5.04-4.14-12.42-7.02-23.4-7.02-16.56 0-26.82 9-28.62 13.5v35.1c1.98 4.5 12.06 13.5 28.62 13.5 12.06 0 19.8-3.6 24.84-8.28v6.3h36.72v-79.92c-3.96-8.64-17.64-21.96-44.82-21.96Zm-.9 80.46c-4.14 0-6.48-1.8-7.38-3.24v-9.54c.54-1.44 3.24-3.24 7.38-3.24 3.78 0 6.12 1.26 7.56 2.7v10.8c-1.44 1.44-3.78 2.52-7.56 2.52ZM138.57 264.032h-13.36l-5.36 22.72v5.28h7.76l.92-5h5.92l.84 5h8.64v-5.28l-5.36-22.72Zm-8.76 16 1.4-7.68h.8l1.28 7.68h-3.48Zm15.634 12h15.08c3.8 0 6.64-2.32 7.68-4.32v-7.64c-.32-.8-1.2-1.96-2-2.64.88-.76 1.72-1.88 2-2.6v-6.48c-.96-1.72-3.32-4.32-7.68-4.32h-15.08v28Zm9.2-17.08v-4.36h2.8c1.16 0 1.72.4 1.92.84v2.64c-.28.52-.76.88-1.92.88h-2.8Zm0 10.56v-4.76h2.8c1.16 0 1.68.4 1.92.84v3.08c-.28.44-.72.84-1.92.84h-2.8Zm26.373 7.12c6.08 0 9.44-2.44 10.76-4.76v-8.12h-8.8v4.88c-.24.48-1.04.84-1.96.84-.96 0-1.72-.36-1.96-.84v-13.16c.24-.44 1-.84 1.96-.84.92 0 1.72.36 1.96.84v4.36h8.8v-7.64c-1.32-2.28-4.68-4.76-10.76-4.76-6.8 0-10.12 3.04-11.16 5.48v18.24c1.04 2.44 4.36 5.48 11.16 5.48Zm12.591-.6h13.28c5.04 0 8-2.36 9.08-4.84v-18.32c-1.04-2.48-4.12-4.84-9.08-4.84h-13.28v28Zm9.2-6.96v-14.08h1.96c1.04 0 1.8.44 2 .88v12.36c-.28.44-.96.84-2 .84h-1.96Zm14.941 6.96h19v-7h-9.8v-3.84h9.08v-6.72h-9.08v-3.44h9.64v-7h-18.84v28Zm20.664 0h9.2v-10.32h8.64v-7h-8.64v-3.68h9.08v-7h-18.28v28Zm30.807.6c6.08 0 9.44-2.44 10.76-4.76v-12.08H269.1v6.24h2.08v2.8c-.24.4-1 .8-1.96.8s-1.72-.4-1.96-.8v-13.36c.24-.44 1-.84 1.96-.84s1.68.36 1.96.84v2.68h8.8v-5.96c-1.32-2.32-4.68-4.76-10.76-4.76-6.8 0-10.12 3.04-11.16 5.48v18.24c1.04 2.44 4.36 5.48 11.16 5.48Zm12.592-.6h9.2v-10.92h3.96v10.92h9.2v-28h-9.2v10.08h-3.96v-10.08h-9.2v28Zm24.296 0h9.2v-28h-9.2v28Zm10.852 0h1.96c6.36 0 9.72-2.28 11.04-4.84v-23.16h-9.2v20c-.28.48-.92.88-2.4.88h-1.4v7.12Zm37.089-28h-7.12l-5 7.28h-.8v-7.28h-9.2v28h9.2v-9.12h.8l4.32 9.12h7.8v-5.28l-5.72-10.2 5.72-7.24v-5.28Zm1.63 28h17.04v-7h-7.84v-21h-9.2v28Zm18.672 0h8.64v-13h.8l2.52 8.72h4.56l2.72-8.72h.8v13h8.6v-28h-11.4l-2.28 8.36h-.8l-2.56-8.36h-11.6v28Zm30.586 0h8.64v-11.48h.8l4.88 11.48h9.48v-28h-8.6v11.44h-.8l-4.88-11.44h-9.52v28Zm36.822.64c6.8 0 10.12-3.08 11.16-5.48v-18.32c-1.04-2.4-4.36-5.48-11.16-5.48s-10.12 3.08-11.16 5.48v18.32c1.04 2.4 4.36 5.48 11.16 5.48Zm0-7.2c-.96 0-1.72-.36-1.96-.8v-13.24c.24-.48 1-.84 1.96-.84s1.68.36 1.96.84v13.24c-.28.44-1 .8-1.96.8Zm12.982 6.56h9.2v-8.72h5c3.4 0 6.28-1.44 8.04-4.36v-10.6c-1.64-2.76-4.44-4.32-8.04-4.32h-14.2v28Zm9.2-15.72v-5.32h2.56c.96 0 1.64.36 1.84.88v3.6c-.2.52-.84.84-1.84.84h-2.56Zm37.025 10.88v-18.32c-1.04-2.4-4.36-5.48-11.16-5.48s-10.12 3.08-11.16 5.48v18.32c1.04 2.36 4.28 5.4 10.92 5.48 1.24 1.28 3.32 2.8 7.12 2.8h4.04v-4.48h-3.24v-.12c1.84-1.08 2.96-2.48 3.48-3.68Zm-13.12-2.52v-13.24c.24-.48 1-.84 1.96-.84s1.68.36 1.96.84v13.24c-.28.44-1 .8-1.96.8s-1.72-.36-1.96-.8Zm14.942 7.36h9.2v-9.24h1.2l4.08 9.24h7.88v-5.28l-2.96-5.68c1.12-.76 2.28-1.76 2.84-2.96v-9.84c-1.52-2.56-4.44-4.24-8.08-4.24h-14.16v28Zm9.2-15.92v-5.2h2.4c1.04 0 1.6.32 1.88.84v3.48c-.36.6-.92.88-1.88.88h-2.4Zm25.464 16.56c6.88 0 9.76-3 10.8-4.8v-8.64c-1-1.72-3.24-3.36-9.64-4.68-1.96-.48-2.84-.72-3.12-1.16v-2.2c.24-.4.96-.84 1.96-.84 1.04 0 1.8.44 2 .84v2.28h8.8v-5.28c-1.08-1.84-3.96-4.8-10.8-4.8-6.8 0-9.72 3-10.72 4.8v8.4c.96 1.68 3.12 3.48 9.72 4.68 2 .44 2.72.64 3 1.12v2.52c-.28.4-.96.8-2 .8-1 0-1.76-.44-1.96-.8v-2.4h-8.76v5.36c1 1.8 3.92 4.8 10.72 4.8Zm17.924-.64h9.16v-21h5.88v-7h-20.88v7h5.84v21Zm27.674.6c6.8 0 10.12-3.04 11.2-5.48v-23.12h-9.2v20.56c-.28.44-1.04.8-2 .8-.92 0-1.68-.36-1.96-.8v-20.56h-9.2v23.12c1.08 2.44 4.36 5.48 11.16 5.48Zm18.417-.6h12.88l5.6-22.72v-5.28h-8.32l-3.2 17.6h-.8l-2.8-17.6h-8.96v5.28l5.6 22.72Zm24.146 0h10.4l2.08-9.88h.8l2.08 9.88h10.52l4.04-22.72v-5.28h-8.56l-1.6 14.64h-.8l-2.2-14.64h-7.04l-2.52 14.64h-.8l-1.24-14.64h-9.24v5.28l4.08 22.72Zm31.661 0h7.68l2.8-7.32h.8l2.52 7.32h8.44v-5.28l-4.96-8.84 4.96-8.6v-5.28h-7.64l-2.76 7.28h-.76l-2.64-7.28h-8.44v5.28l5 8.6-5 8.84v5.28Zm30.428 0h9.2v-10l6.76-12.72v-5.28h-8.08l-2.64 7.52h-.8l-2.64-7.52h-8.44v5.28l6.64 12.6v10.12Zm17.387 0h20v-6.96h-8.76v-.76l8.76-14.12v-6.16h-19.96v7h8.68v.76l-8.72 14.08v6.16ZM130.01 325.392c-5.72 0-8.52 2.16-9.72 3.76v4.68h7.88v-1.2c.2-.4.76-.76 1.64-.76.88 0 1.48.36 1.68.76v3.6c-1.12-.92-2.76-1.56-5.2-1.56-3.68 0-5.96 2-6.36 3v7.8c.44 1 2.68 3 6.36 3 2.68 0 4.4-.8 5.52-1.84v1.4h8.16v-17.76c-.88-1.92-3.92-4.88-9.96-4.88Zm-.2 17.88c-.92 0-1.44-.4-1.64-.72v-2.12c.12-.32.72-.72 1.64-.72.84 0 1.36.28 1.68.6v2.4c-.32.32-.84.56-1.68.56Zm25.601-17.64c-2.32 0-3.96.72-5.12 1.76v-7.36h-8.48v28h8.16v-1.52c1.16 1.12 2.88 1.92 5.44 1.92 4.08 0 6-2.4 6.6-4.08v-14.68c-.6-1.64-2.52-4.04-6.6-4.04Zm-1.88 15.52c-.16.4-.68.76-1.64.76-.76 0-1.32-.24-1.6-.6v-8.6c.28-.36.84-.56 1.6-.56.96 0 1.48.36 1.64.72v8.28Zm20.313 7.52c5.24 0 8.24-2.04 9.64-4v-6.04h-8v2.72c-.2.44-.76.76-1.64.76-.88 0-1.48-.32-1.68-.76v-8.68c.2-.4.8-.72 1.68-.72.88 0 1.44.32 1.64.72v2.76h8v-6.04c-1.4-1.96-4.4-4-9.64-4-6.28 0-9.32 2.96-10.16 4.88v13.52c.88 1.92 3.88 4.88 10.16 4.88Zm23.044-28.64v7.36c-1.16-1.04-2.8-1.76-5.12-1.76-4.08 0-6 2.4-6.6 4.04v14.68c.6 1.68 2.52 4.08 6.6 4.08 2.56 0 4.28-.8 5.44-1.92v1.52h8.16v-28h-8.48Zm-1.6 21.88c-.96 0-1.48-.36-1.64-.76v-8.28c.16-.36.68-.72 1.64-.72.76 0 1.32.2 1.6.56v8.6c-.28.36-.84.6-1.6.6Zm31.633-2.68v-9.84c-1.4-1.96-4.4-4-9.64-4-6.28 0-9.32 2.96-10.16 4.88v13.52c.88 1.92 3.88 4.88 10.16 4.88 5.24 0 8.24-2.04 9.64-4v-4.32h-8v1.32c-.2.44-.76.76-1.64.76-.88 0-1.48-.32-1.68-.76v-2.44h11.32Zm-9.64-7.88c.88 0 1.44.32 1.64.76v2.72h-3.32v-2.72c.2-.44.8-.76 1.68-.76Zm23.128-6.64h1.16v-5.24c-.56-.24-2-.52-3.88-.52-4.76 0-6.96 1.8-7.68 3.68v3.4h-1.84v5.84h1.84v16.16h8.48v-16.16h3.08v-5.84h-3.08v-.76c.16-.24.6-.56 1.92-.56Zm14.377 1.32v1.56c-1.16-1.16-2.88-1.96-5.44-1.96-4.08 0-6 2.4-6.6 4.04v11.32c.56 1.64 2.68 3.92 6.64 3.92 2.32 0 3.92-.64 5.08-1.6v3.44c-.24.4-.76.76-1.64.76-.88 0-1.4-.36-1.6-.76v-.96h-8.2v3.92c1.24 1.6 4.08 3.76 9.96 3.76 6.04 0 9.04-2.96 9.96-4.88v-22.56h-8.16Zm-1.96 12.76c-.88 0-1.4-.36-1.6-.72v-5.28c.2-.36.72-.72 1.6-.72.76 0 1.32.2 1.64.6v5.56c-.32.36-.88.56-1.64.56Zm25.553-13.16c-2.32 0-3.96.72-5.12 1.76v-7.36h-8.48v28h8.48v-15.28c.28-.36.84-.6 1.6-.6.96 0 1.48.36 1.64.76v15.12h8.48v-18.32c-.6-1.68-2.52-4.08-6.6-4.08Zm12.672-.36c2 0 3.4-.64 4.12-1.44v-3.12c-.72-.84-2.12-1.52-4.12-1.52-1.96 0-3.4.68-4.08 1.52v3.12c.68.8 2.12 1.44 4.08 1.44Zm-4.24 22.76h8.48v-21.28h-8.48v21.28Zm14.552-22.76c2 0 3.4-.64 4.12-1.44v-3.12c-.72-.84-2.12-1.52-4.12-1.52-1.96 0-3.4.68-4.08 1.52v3.12c.68.8 2.12 1.44 4.08 1.44Zm-5.72 28.2c6.2 0 9.12-3.04 9.96-4.88v-21.84h-8.48v19.88c-.16.56-.72 1.04-1.48 1.04v5.8Zm31.313-27.44h-6.72l-3.52 6.12h-.8v-12.12h-8.48v28h8.48v-6.68h.8l2.92 6.68h7.32v-4.72l-3.96-7.32 3.96-5.24v-4.72Zm1.495 22h8.48v-28h-8.48v28Zm35.033-22.4c-2.76 0-4.56.96-5.8 2.24-1.04-1.2-2.76-2.24-5.44-2.24-2.44 0-4.12.8-5.32 1.92v-1.52h-8.16v22h8.48v-15.32c.28-.32.8-.56 1.52-.56.88 0 1.32.36 1.48.76v15.12h8.52v-15.32c.28-.32.76-.56 1.48-.56.88 0 1.36.36 1.52.76v15.12h8.48v-18.32c-.6-1.68-2.72-4.08-6.76-4.08Zm22.2 0c-2.52 0-4.24.84-5.44 2.08v-1.68h-8.16v22h8.48v-15.24c.28-.36.84-.6 1.6-.6.96 0 1.44.36 1.64.72v15.12h8.48v-18.32c-.6-1.68-2.52-4.08-6.6-4.08Zm18.511 23.04c6.24 0 9.24-2.96 10.16-4.88v-13.52c-.92-1.92-3.92-4.88-10.16-4.88-6.28 0-9.32 2.96-10.16 4.88v13.52c.88 1.92 3.88 4.88 10.16 4.88Zm0-6.56c-.88 0-1.48-.32-1.68-.76v-8.68c.2-.4.8-.72 1.68-.72.88 0 1.44.32 1.64.72v8.68c-.2.44-.76.76-1.64.76Zm25.473-16.48c-2.56 0-4.28.8-5.44 1.92v-1.52h-8.16v26.8h8.48v-6.16c1.16 1.04 2.8 1.76 5.12 1.76 4.08 0 6-2.4 6.6-4.08v-14.68c-.6-1.64-2.52-4.04-6.6-4.04Zm-1.88 15.52c-.16.4-.68.76-1.64.76-.76 0-1.32-.24-1.6-.6v-8.6c.28-.36.84-.56 1.6-.56.96 0 1.48.36 1.64.72v8.28Zm22.194-15.12v1.52c-1.16-1.12-2.88-1.92-5.44-1.92-4.08 0-6 2.4-6.6 4.04v14.68c.6 1.68 2.52 4.08 6.6 4.08 2.32 0 3.96-.72 5.12-1.76v6.16h8.48v-26.8h-8.16Zm-1.92 15.88c-.96 0-1.48-.36-1.64-.76v-8.28c.16-.36.68-.72 1.64-.72.76 0 1.32.2 1.6.56v8.6c-.28.36-.84.6-1.6.6Zm25.233-16.04c-2.68 0-4.24 1.32-5.16 3.04v-2.88h-8.16v22h8.48v-12.6c.96-.84 2.52-1.28 4.76-1.28h1.64v-8.12c-.36-.08-.92-.16-1.56-.16Zm12.646 22.8c6.2 0 8.8-2.72 9.68-4v-6.8c-.68-1.12-2.36-2.56-7.64-3.48-2.44-.48-3.48-.88-3.68-1.36v-1.2c.2-.4.8-.72 1.68-.72.88 0 1.44.32 1.64.72v1.56h8v-4c-.76-1.16-3.4-4-9.64-4s-8.84 2.8-9.68 4v6.76c.64 1.12 2.36 2.6 7.68 3.48 2.2.44 3.32.76 3.64 1.28v1.32c-.2.4-.76.72-1.64.72-.88 0-1.48-.32-1.68-.72v-1.6h-8v4.04c.84 1.2 3.44 4 9.64 4Zm24.26-16.8v-5.84h-3.04v-4.4h-8.48v4.4h-1.84v5.84h1.84v12.96c.72 1.88 2.88 3.72 7.68 3.72 1.84 0 3.28-.28 3.84-.52v-5.68h-.84c-1.28 0-1.92-.4-2.2-.76v-9.72h3.04Zm13.052-5.84v15.28c-.28.32-.76.52-1.52.52-.921 0-1.36-.32-1.52-.72v-15.08h-8.48v18.32c.6 1.64 2.4 4.04 6.48 4.04 2.48 0 4.2-.84 5.36-2.04v1.68h8.16v-22h-8.48Zm14.515 22h11.8l4.48-17.28v-4.72h-7.6l-2.04 13.16h-.8l-2.04-13.16h-8.28v4.72l4.48 17.28Zm21.432 0h10.16l1.2-7.76h.8l1.08 7.76h9.96l3.8-17.28v-4.72h-7.48l-1.44 13.16h-.8l-1.8-13.16h-7l-1.88 13.16h-.8l-1.36-13.16h-8.24v4.72l3.8 17.28Zm28.426 0h7.92l1.72-6.4h.8l1.72 6.4h7.96v-4.72l-3.12-6.32 3.12-6.24v-4.72h-7.96l-1.72 6.44h-.8l-1.72-6.44h-7.92v4.72l3.08 6.24-3.08 6.32v4.72Zm34.643-22-2.04 12.88h-.8l-2.04-12.88h-8.28v4.72l5.32 16.84c-.4.12-.84.16-1.48.16h-1.8v5.2c1 .24 2.96.52 4.76.52 4.52 0 6.8-1.48 8-3.04l5.96-19.72v-4.68h-7.6Zm8.991 22h17.04v-6.16h-6.84v-.68l6.84-9.92v-5.24h-17.04v6.12h6.56v.68l-6.56 9.6v5.6ZM123.21 403.912h9.16v-27.88h-8c-1.16 1.6-2.88 2.6-4.48 3.04v5.08h3.32v19.76Zm11.607.12h20.96v-7h-8.72v-.44l5.64-5.32c1.6-1.36 2.8-2.72 3.08-3.36v-6.96c-.96-2.36-4.12-5.48-11-5.48-6.48 0-9.24 2.76-9.96 3.76v7.44h8.08v-3.76c.2-.36.76-.8 1.84-.8 1.16 0 1.64.44 1.88.8v3.4c-.2.44-.96 1.28-1.96 2.28l-9.84 8.64v6.8Zm32.496.6c6.8 0 9.96-3.08 11.04-5.48v-6.36c-.48-1.08-1.4-2.04-2.8-2.96 1.32-.76 2.28-1.76 2.8-2.88v-6.04c-1.48-3.12-5.12-5.44-11.04-5.44-5.88 0-8.68 2.2-9.96 3.72v5.8h8.12v-2.04c.24-.44.88-.84 1.84-.84.96 0 1.6.36 1.84.84v3.16c-.24.36-.84.84-1.84.84h-4v5.72h4.04c.96 0 1.56.44 1.8.84v3.68c-.24.4-.88.8-1.84.8-.96 0-1.6-.4-1.84-.8v-2.44h-8.12v6.12c.84 1 3.4 3.76 9.96 3.76Zm24.937-.6h8.4v-4.92h2.44v-6.44h-2.44v-16.64h-12.68l-8.04 16.64v6.44h12.32v4.92Zm-4.32-11.36 3.6-7.96h.72v7.96h-4.32Zm26.535 11.96c5.32 0 8.44-1.88 10.08-3.92v-12c-1.16-1.68-3.68-3.16-6.56-3.16-2.24 0-4 .6-5.36 1.52v-4.04h11.92v-7h-20.08v17.68h8.16v-1.28c.28-.4.84-.8 1.84-.8s1.6.4 1.84.8v4.76c-.24.44-.92.8-1.84.8s-1.6-.32-1.84-.8v-1.68h-8.08v5.36c.8.96 3.24 3.76 9.92 3.76Zm22.799 0c5.28 0 8.4-1.88 10.04-3.88v-11.32c-1.12-1.68-3.56-3.24-6.64-3.24-2.2 0-3.92.6-5.28 1.48v-4.88c.28-.44.88-.84 1.88-.84.96 0 1.6.4 1.84.84v1.88h8.2v-5.32c-1.96-2.4-5.28-3.88-10.04-3.88-6.84 0-9.96 3.04-11.04 5.48v18.2c1.04 2.4 4.2 5.48 11.04 5.48Zm0-6.64c-.96 0-1.6-.36-1.88-.8v-4.6c.56-.2 1.2-.28 1.88-.28.96 0 1.6.4 1.84.8v4.08c-.28.44-.92.8-1.84.8Zm14.414 6.04h8.44l8.16-21.16v-6.84h-19.6v7h9.92v.72l-6.92 15v5.28Zm28.785.6c6.76 0 9.96-3.04 11-5.48v-6.28c-.44-1.08-1.36-2.28-2.8-3.28 1-.72 1.76-1.52 2.28-2.32v-7.32c-1.4-2.24-4.6-4.48-10.48-4.48-5.92 0-9.08 2.24-10.52 4.48v7.32c.52.8 1.28 1.6 2.32 2.32-1.44 1-2.4 2.2-2.84 3.28v6.28c1.08 2.48 4.24 5.48 11.04 5.48Zm0-17.52c-.96 0-1.6-.4-1.88-.8v-3.4c.28-.44.92-.84 1.88-.84.96 0 1.56.4 1.84.84v3.4c-.28.4-.92.8-1.84.8Zm0 10.88c-.96 0-1.6-.36-1.88-.8v-4c.28-.4.92-.8 1.88-.8.96 0 1.56.4 1.84.8v4c-.28.48-.92.8-1.84.8Zm22.597 6.6c6.8 0 9.92-3.04 11-5.48v-18.2c-1.04-2.4-4.2-5.48-11-5.48-5.32 0-8.44 1.88-10.04 3.88v11.68c1.12 1.68 3.52 3.24 6.6 3.24 2.24 0 3.92-.6 5.28-1.48v4.52c-.24.44-.88.84-1.84.84-1 0-1.6-.4-1.88-.84v-1.52h-8.16v4.96c1.92 2.4 5.24 3.88 10.04 3.88Zm0-16.48c-1 0-1.64-.4-1.88-.8v-4.4c.28-.44.92-.8 1.88-.8.92 0 1.56.36 1.84.8v4.92c-.52.16-1.2.28-1.84.28Zm23.813 16.52c6.8 0 9.96-3.08 11-5.48v-18.2c-1.04-2.4-4.2-5.48-11-5.48-6.84 0-10 3.04-11.04 5.48v18.2c1.04 2.4 4.2 5.48 11.04 5.48Zm0-6.72c-.96 0-1.6-.36-1.88-.8v-14.08c.28-.48.92-.84 1.88-.84.92 0 1.56.32 1.84.84v14.08c-.28.44-.92.8-1.84.8Zm12.949 10.2h2.64c3.2 0 4.96-2.4 5.48-3.84v-6.48c-.44-.8-1.8-1.92-4.32-1.92-2.48 0-3.84 1.12-4.32 1.92v4.12c.48.8 1.84 1.92 4.32 1.92h.28v.12c-.28.72-.96.96-1.64.96h-2.44v3.2Zm13.606-3.64c2.48 0 3.84-1.12 4.36-1.96v-4.68c-.52-.8-1.88-1.92-4.36-1.92-2.48 0-3.88 1.12-4.36 1.92v4.68c.48.84 1.88 1.96 4.36 1.96Zm9.524-9.48h8.64v-1.48l4.08-2.76c2.08-1.36 3.12-2.24 3.52-2.96v-8.04c-1.16-1.56-3.92-4.32-10.48-4.32-6 0-8.76 2.36-9.92 3.72v6.12h7.92v-2.08c.32-.48 1.04-.84 2-.84s1.76.4 1.96.84v1.72c-.24.52-1.44 1.36-2.96 2.32l-4.76 3.28v4.48Zm4.28 9.48c-2.48 0-3.84-1.12-4.32-1.96v-4.4c.48-.8 1.84-1.96 4.32-1.96 2.48 0 3.88 1.16 4.36 1.96v4.4c-.48.84-1.88 1.96-4.36 1.96Zm14.606-9.96h7.32l1.12-10.32v-8.16h-9.56v8.16l1.12 10.32Zm3.68 9.96c2.48 0 3.84-1.12 4.36-1.96v-4.68c-.52-.8-1.88-1.92-4.36-1.92-2.48 0-3.88 1.12-4.36 1.92v4.68c.48.84 1.88 1.96 4.36 1.96Zm20.804-21.8-1.64-5.08-.64.24-3.16 1.8.76-3.56v-.68h-5.32v.68l.76 3.56-3.16-1.8-.68-.24-1.6 5.08.6.16 3.68.4-2.72 2.44-.4.56 4.28 3.12.4-.52 1.48-3.32 1.48 3.32.4.52 4.32-3.12-.4-.52-2.68-2.44 3.56-.4.68-.2Zm23.389 4.24v-1.08h-9.08v1.08h-2c-.96 0-1.68-.4-1.96-.84v-3.28c.28-.48 1-.84 1.96-.84s1.72.36 2 .84v1.64h9.08v-3.56c-1-2.4-4.32-5.48-11.08-5.48s-10 3.08-11.04 5.48v6.16c.4.96 1.2 2 2.4 2.88-1.2.92-2 1.96-2.4 2.92v6.24c1.04 2.4 4.28 5.48 11.04 5.48 2.56 0 4.6-.44 6.24-1.12 1 .6 2.36 1.04 4.24 1.04 1.16 0 2.24-.24 2.88-.44v-5.92h-.68c-.92 0-1.36-.36-1.6-.72v-4.56h2.28v-5.92h-2.28Zm-9.08 10.24c-.28.48-1.04.84-2 .84s-1.68-.36-1.96-.84v-3.48c.28-.44 1-.84 1.96-.84h2v4.32Z" fill="#1B1B1B"/></svg>